<?xml version="1.0" encoding="utf-8" standalone="no"?>
<!DOCTYPE svg PUBLIC "-//W3C//DTD SVG 1.1//EN"
  "http://www.w3.org/Graphics/SVG/1.1/DTD/svg11.dtd">
<svg xmlns:xlink="http://www.w3.org/1999/xlink" width="468pt" height="180pt" viewBox="0 0 468 180" xmlns="http://www.w3.org/2000/svg" version="1.1">
 <metadata>
  <rdf:RDF xmlns:dc="http://purl.org/dc/elements/1.1/" xmlns:cc="http://creativecommons.org/ns#" xmlns:rdf="http://www.w3.org/1999/02/22-rdf-syntax-ns#">
   <cc:Work>
    <dc:type rdf:resource="http://purl.org/dc/dcmitype/StillImage"/>
    <dc:date>2024-04-11T14:00:35.680007</dc:date>
    <dc:format>image/svg+xml</dc:format>
    <dc:creator>
     <cc:Agent>
      <dc:title>Matplotlib v3.8.3, https://matplotlib.org/</dc:title>
     </cc:Agent>
    </dc:creator>
   </cc:Work>
  </rdf:RDF>
 </metadata>
 <defs>
  <style type="text/css">*{stroke-linejoin: round; stroke-linecap: butt}</style>
 </defs>
 <g id="figure_1">
  <g id="patch_1">
   <path d="M 0 180 
L 468 180 
L 468 0 
L 0 0 
z
" style="fill: #ffffff"/>
  </g>
  <g id="axes_1">
   <g id="patch_2">
    <path d="M 58.5 144 
L 421.2 144 
L 421.2 21.6 
L 58.5 21.6 
z
" style="fill: #ffffff"/>
   </g>
   <g id="matplotlib.axis_1">
    <g id="xtick_1">
     <g id="line2d_1">
      <path d="M 81.063415 144 
L 81.063415 21.6 
" clip-path="url(#p6494d6d74c)" style="fill: none; stroke: #d3d3d3; stroke-width: 0.2; stroke-linecap: square"/>
     </g>
     <g id="line2d_2">
      <defs>
       <path id="m14626bb11d" d="M 0 0 
L 0 -3.5 
" style="stroke: #000000; stroke-width: 0.8"/>
      </defs>
      <g>
       <use xlink:href="#m14626bb11d" x="81.063415" y="144" style="stroke: #000000; stroke-width: 0.8"/>
      </g>
     </g>
     <g id="text_1">
      <!-- $\mathdefault{−0.3}$ -->
      <g transform="translate(70.824003 154.418498) scale(0.1 -0.1)">
       <defs>
        <path id="CMSY10-0" d="M 4218 1472 
C 4326 1472 4442 1472 4442 1600 
C 4442 1728 4326 1728 4218 1728 
L 755 1728 
C 646 1728 531 1728 531 1600 
C 531 1472 646 1472 755 1472 
L 4218 1472 
z
" transform="scale(0.015625)"/>
        <path id="CMR17-30" d="M 2688 2025 
C 2688 2416 2682 3080 2413 3591 
C 2176 4039 1798 4198 1466 4198 
C 1158 4198 768 4058 525 3597 
C 269 3118 243 2524 243 2025 
C 243 1661 250 1106 448 619 
C 723 -39 1216 -128 1466 -128 
C 1760 -128 2208 -7 2470 600 
C 2662 1042 2688 1559 2688 2025 
z
M 1466 -26 
C 1056 -26 813 325 723 812 
C 653 1188 653 1738 653 2096 
C 653 2588 653 2997 736 3387 
C 858 3929 1216 4096 1466 4096 
C 1728 4096 2067 3923 2189 3400 
C 2272 3036 2278 2607 2278 2096 
C 2278 1680 2278 1169 2202 792 
C 2067 95 1690 -26 1466 -26 
z
" transform="scale(0.015625)"/>
        <path id="CMMI12-3a" d="M 1178 307 
C 1178 492 1024 619 870 619 
C 685 619 557 466 557 313 
C 557 128 710 0 864 0 
C 1050 0 1178 153 1178 307 
z
" transform="scale(0.015625)"/>
        <path id="CMR17-33" d="M 1414 2157 
C 1984 2157 2234 1662 2234 1090 
C 2234 320 1824 25 1453 25 
C 1114 25 563 194 390 693 
C 422 680 454 680 486 680 
C 640 680 755 782 755 948 
C 755 1133 614 1216 486 1216 
C 378 1216 211 1165 211 926 
C 211 335 787 -128 1466 -128 
C 2176 -128 2720 430 2720 1085 
C 2720 1707 2208 2157 1600 2227 
C 2086 2328 2554 2756 2554 3329 
C 2554 3820 2048 4179 1472 4179 
C 890 4179 378 3829 378 3329 
C 378 3110 544 3072 627 3072 
C 762 3072 877 3155 877 3321 
C 877 3486 762 3569 627 3569 
C 602 3569 570 3569 544 3557 
C 730 3959 1235 4032 1459 4032 
C 1683 4032 2106 3925 2106 3320 
C 2106 3143 2080 2828 1862 2550 
C 1670 2304 1453 2304 1242 2284 
C 1210 2284 1062 2269 1037 2269 
C 992 2263 966 2257 966 2208 
C 966 2163 973 2157 1101 2157 
L 1414 2157 
z
" transform="scale(0.015625)"/>
       </defs>
       <use xlink:href="#CMSY10-0" transform="scale(0.996264)"/>
       <use xlink:href="#CMR17-30" transform="translate(77.487468 0) scale(0.996264)"/>
       <use xlink:href="#CMMI12-3a" transform="translate(123.177945 0) scale(0.996264)"/>
       <use xlink:href="#CMR17-33" transform="translate(150.275122 0) scale(0.996264)"/>
      </g>
     </g>
    </g>
    <g id="xtick_2">
     <g id="line2d_3">
      <path d="M 133.992276 144 
L 133.992276 21.6 
" clip-path="url(#p6494d6d74c)" style="fill: none; stroke: #d3d3d3; stroke-width: 0.2; stroke-linecap: square"/>
     </g>
     <g id="line2d_4">
      <g>
       <use xlink:href="#m14626bb11d" x="133.992276" y="144" style="stroke: #000000; stroke-width: 0.8"/>
      </g>
     </g>
     <g id="text_2">
      <!-- $\mathdefault{−0.2}$ -->
      <g transform="translate(123.752865 154.418498) scale(0.1 -0.1)">
       <defs>
        <path id="CMR17-32" d="M 2669 989 
L 2554 989 
C 2490 536 2438 459 2413 420 
C 2381 369 1920 369 1830 369 
L 602 369 
C 832 619 1280 1072 1824 1597 
C 2214 1967 2669 2402 2669 3035 
C 2669 3790 2067 4224 1395 4224 
C 691 4224 262 3604 262 3030 
C 262 2780 448 2748 525 2748 
C 589 2748 781 2787 781 3010 
C 781 3207 614 3264 525 3264 
C 486 3264 448 3258 422 3245 
C 544 3790 915 4058 1306 4058 
C 1862 4058 2227 3617 2227 3035 
C 2227 2479 1901 2000 1536 1584 
L 262 146 
L 262 0 
L 2515 0 
L 2669 989 
z
" transform="scale(0.015625)"/>
       </defs>
       <use xlink:href="#CMSY10-0" transform="scale(0.996264)"/>
       <use xlink:href="#CMR17-30" transform="translate(77.487468 0) scale(0.996264)"/>
       <use xlink:href="#CMMI12-3a" transform="translate(123.177945 0) scale(0.996264)"/>
       <use xlink:href="#CMR17-32" transform="translate(150.275122 0) scale(0.996264)"/>
      </g>
     </g>
    </g>
    <g id="xtick_3">
     <g id="line2d_5">
      <path d="M 186.921138 144 
L 186.921138 21.6 
" clip-path="url(#p6494d6d74c)" style="fill: none; stroke: #d3d3d3; stroke-width: 0.2; stroke-linecap: square"/>
     </g>
     <g id="line2d_6">
      <g>
       <use xlink:href="#m14626bb11d" x="186.921138" y="144" style="stroke: #000000; stroke-width: 0.8"/>
      </g>
     </g>
     <g id="text_3">
      <!-- $\mathdefault{−0.1}$ -->
      <g transform="translate(176.681727 154.418498) scale(0.1 -0.1)">
       <defs>
        <path id="CMR17-31" d="M 1702 4058 
C 1702 4192 1696 4192 1606 4192 
C 1357 3916 979 3827 621 3827 
C 602 3827 570 3827 563 3808 
C 557 3795 557 3782 557 3648 
C 755 3648 1088 3686 1344 3839 
L 1344 461 
C 1344 236 1331 160 781 160 
L 589 160 
L 589 0 
C 896 0 1216 0 1523 0 
C 1830 0 2150 0 2458 0 
L 2458 160 
L 2266 160 
C 1715 160 1702 230 1702 458 
L 1702 4058 
z
" transform="scale(0.015625)"/>
       </defs>
       <use xlink:href="#CMSY10-0" transform="scale(0.996264)"/>
       <use xlink:href="#CMR17-30" transform="translate(77.487468 0) scale(0.996264)"/>
       <use xlink:href="#CMMI12-3a" transform="translate(123.177945 0) scale(0.996264)"/>
       <use xlink:href="#CMR17-31" transform="translate(150.275122 0) scale(0.996264)"/>
      </g>
     </g>
    </g>
    <g id="xtick_4">
     <g id="line2d_7">
      <path d="M 239.85 144 
L 239.85 21.6 
" clip-path="url(#p6494d6d74c)" style="fill: none; stroke: #d3d3d3; stroke-width: 0.2; stroke-linecap: square"/>
     </g>
     <g id="line2d_8">
      <g>
       <use xlink:href="#m14626bb11d" x="239.85" y="144" style="stroke: #000000; stroke-width: 0.8"/>
      </g>
     </g>
     <g id="text_4">
      <!-- $\mathdefault{0.0}$ -->
      <g transform="translate(233.484961 154.418498) scale(0.1 -0.1)">
       <use xlink:href="#CMR17-30" transform="scale(0.996264)"/>
       <use xlink:href="#CMMI12-3a" transform="translate(45.690477 0) scale(0.996264)"/>
       <use xlink:href="#CMR17-30" transform="translate(72.787654 0) scale(0.996264)"/>
      </g>
     </g>
    </g>
    <g id="xtick_5">
     <g id="line2d_9">
      <path d="M 292.778862 144 
L 292.778862 21.6 
" clip-path="url(#p6494d6d74c)" style="fill: none; stroke: #d3d3d3; stroke-width: 0.2; stroke-linecap: square"/>
     </g>
     <g id="line2d_10">
      <g>
       <use xlink:href="#m14626bb11d" x="292.778862" y="144" style="stroke: #000000; stroke-width: 0.8"/>
      </g>
     </g>
     <g id="text_5">
      <!-- $\mathdefault{0.1}$ -->
      <g transform="translate(286.413822 154.418498) scale(0.1 -0.1)">
       <use xlink:href="#CMR17-30" transform="scale(0.996264)"/>
       <use xlink:href="#CMMI12-3a" transform="translate(45.690477 0) scale(0.996264)"/>
       <use xlink:href="#CMR17-31" transform="translate(72.787654 0) scale(0.996264)"/>
      </g>
     </g>
    </g>
    <g id="xtick_6">
     <g id="line2d_11">
      <path d="M 345.707724 144 
L 345.707724 21.6 
" clip-path="url(#p6494d6d74c)" style="fill: none; stroke: #d3d3d3; stroke-width: 0.2; stroke-linecap: square"/>
     </g>
     <g id="line2d_12">
      <g>
       <use xlink:href="#m14626bb11d" x="345.707724" y="144" style="stroke: #000000; stroke-width: 0.8"/>
      </g>
     </g>
     <g id="text_6">
      <!-- $\mathdefault{0.2}$ -->
      <g transform="translate(339.342684 154.418498) scale(0.1 -0.1)">
       <use xlink:href="#CMR17-30" transform="scale(0.996264)"/>
       <use xlink:href="#CMMI12-3a" transform="translate(45.690477 0) scale(0.996264)"/>
       <use xlink:href="#CMR17-32" transform="translate(72.787654 0) scale(0.996264)"/>
      </g>
     </g>
    </g>
    <g id="xtick_7">
     <g id="line2d_13">
      <path d="M 398.636585 144 
L 398.636585 21.6 
" clip-path="url(#p6494d6d74c)" style="fill: none; stroke: #d3d3d3; stroke-width: 0.2; stroke-linecap: square"/>
     </g>
     <g id="line2d_14">
      <g>
       <use xlink:href="#m14626bb11d" x="398.636585" y="144" style="stroke: #000000; stroke-width: 0.8"/>
      </g>
     </g>
     <g id="text_7">
      <!-- $\mathdefault{0.3}$ -->
      <g transform="translate(392.271546 154.418498) scale(0.1 -0.1)">
       <use xlink:href="#CMR17-30" transform="scale(0.996264)"/>
       <use xlink:href="#CMMI12-3a" transform="translate(45.690477 0) scale(0.996264)"/>
       <use xlink:href="#CMR17-33" transform="translate(72.787654 0) scale(0.996264)"/>
      </g>
     </g>
    </g>
    <g id="text_8">
     <!-- $u$ [m] -->
     <g transform="translate(226.43863 169.322053) scale(0.12 -0.12)">
      <defs>
       <path id="CMMI12-75" d="M 2182 370 
C 2266 13 2573 -64 2726 -64 
C 2931 -64 3085 70 3187 287 
C 3296 517 3379 894 3379 913 
C 3379 945 3354 971 3315 971 
C 3258 971 3251 939 3226 843 
C 3110 402 2995 64 2739 64 
C 2547 64 2547 275 2547 358 
C 2547 505 2566 568 2630 837 
C 2675 1009 2720 1181 2758 1360 
L 3021 2401 
C 3066 2561 3066 2574 3066 2593 
C 3066 2689 2989 2753 2893 2753 
C 2707 2753 2662 2593 2624 2433 
C 2560 2184 2214 811 2170 588 
C 2163 588 1914 64 1446 64 
C 1114 64 1050 351 1050 588 
C 1050 952 1229 1462 1395 1890 
C 1472 2095 1504 2178 1504 2305 
C 1504 2580 1306 2816 998 2816 
C 410 2816 173 1890 173 1839 
C 173 1814 198 1782 243 1782 
C 301 1782 307 1807 333 1896 
C 486 2441 736 2682 979 2682 
C 1043 2682 1146 2682 1146 2478 
C 1146 2312 1075 2127 979 1884 
C 698 1124 666 881 666 690 
C 666 38 1158 -64 1421 -64 
C 1830 -64 2054 217 2182 370 
z
" transform="scale(0.015625)"/>
       <path id="CMR17-5b" d="M 1504 -1600 
L 1504 -1377 
L 902 -1377 
L 902 4544 
L 1504 4544 
L 1504 4767 
L 678 4767 
L 678 -1600 
L 1504 -1600 
z
" transform="scale(0.015625)"/>
       <path id="CMR17-6d" d="M 4326 1933 
C 4326 2252 4269 2790 3507 2790 
C 3072 2790 2771 2496 2656 2151 
L 2650 2151 
C 2573 2676 2195 2790 1837 2790 
C 1331 2790 1069 2400 973 2144 
L 966 2144 
L 966 2790 
L 211 2720 
L 211 2554 
C 589 2554 646 2515 646 2208 
L 646 428 
C 646 184 621 153 211 153 
L 211 -13 
C 365 0 646 0 813 0 
C 979 0 1267 0 1421 -13 
L 1421 153 
C 1011 153 986 178 986 428 
L 986 1658 
C 986 2247 1344 2688 1792 2688 
C 2266 2688 2317 2266 2317 1958 
L 2317 428 
C 2317 184 2291 153 1882 153 
L 1882 -13 
C 2035 0 2317 0 2483 0 
C 2650 0 2938 0 3091 -13 
L 3091 153 
C 2682 153 2656 178 2656 428 
L 2656 1658 
C 2656 2247 3014 2688 3462 2688 
C 3936 2688 3987 2266 3987 1958 
L 3987 428 
C 3987 184 3962 153 3552 153 
L 3552 -13 
C 3706 0 3987 0 4154 0 
C 4320 0 4608 0 4762 -13 
L 4762 153 
C 4352 153 4326 178 4326 428 
L 4326 1933 
z
" transform="scale(0.015625)"/>
       <path id="CMR17-5d" d="M 915 4767 
L 90 4767 
L 90 4544 
L 691 4544 
L 691 -1377 
L 90 -1377 
L 90 -1600 
L 915 -1600 
L 915 4767 
z
" transform="scale(0.015625)"/>
      </defs>
      <use xlink:href="#CMMI12-75" transform="scale(0.996264)"/>
      <use xlink:href="#CMR17-5b" transform="translate(85.596296 0) scale(0.996264)"/>
      <use xlink:href="#CMR17-6d" transform="translate(110.467354 0) scale(0.996264)"/>
      <use xlink:href="#CMR17-5d" transform="translate(187.386944 0) scale(0.996264)"/>
     </g>
    </g>
   </g>
   <g id="matplotlib.axis_2">
    <g id="ytick_1">
     <g id="line2d_15">
      <path d="M 58.5 138.436364 
L 421.2 138.436364 
" clip-path="url(#p6494d6d74c)" style="fill: none; stroke: #d3d3d3; stroke-width: 0.2; stroke-linecap: square"/>
     </g>
     <g id="line2d_16">
      <defs>
       <path id="mfd7ddcfa5b" d="M 0 0 
L 3.5 0 
" style="stroke: #000000; stroke-width: 0.8"/>
      </defs>
      <g>
       <use xlink:href="#mfd7ddcfa5b" x="58.5" y="138.436364" style="stroke: #000000; stroke-width: 0.8"/>
      </g>
     </g>
     <g id="text_9">
      <!-- $\mathdefault{0}$ -->
      <g transform="translate(50.018665 141.895613) scale(0.1 -0.1)">
       <use xlink:href="#CMR17-30" transform="scale(0.996264)"/>
      </g>
     </g>
    </g>
    <g id="ytick_2">
     <g id="line2d_17">
      <path d="M 58.5 116.181766 
L 421.2 116.181766 
" clip-path="url(#p6494d6d74c)" style="fill: none; stroke: #d3d3d3; stroke-width: 0.2; stroke-linecap: square"/>
     </g>
     <g id="line2d_18">
      <g>
       <use xlink:href="#mfd7ddcfa5b" x="58.5" y="116.181766" style="stroke: #000000; stroke-width: 0.8"/>
      </g>
     </g>
     <g id="text_10">
      <!-- $\mathdefault{250}$ -->
      <g transform="translate(40.055994 119.641015) scale(0.1 -0.1)">
       <defs>
        <path id="CMR17-35" d="M 730 3692 
C 794 3666 1056 3584 1325 3584 
C 1920 3584 2246 3911 2432 4100 
C 2432 4157 2432 4192 2394 4192 
C 2387 4192 2374 4192 2323 4163 
C 2099 4058 1837 3973 1517 3973 
C 1325 3973 1037 3999 723 4139 
C 653 4171 640 4171 634 4171 
C 602 4171 595 4164 595 4037 
L 595 2203 
C 595 2089 595 2057 659 2057 
C 691 2057 704 2070 736 2114 
C 941 2401 1222 2522 1542 2522 
C 1766 2522 2246 2382 2246 1289 
C 2246 1085 2246 715 2054 421 
C 1894 159 1645 25 1370 25 
C 947 25 518 320 403 814 
C 429 807 480 795 506 795 
C 589 795 749 840 749 1038 
C 749 1210 627 1280 506 1280 
C 358 1280 262 1190 262 1011 
C 262 454 704 -128 1382 -128 
C 2042 -128 2669 440 2669 1264 
C 2669 2030 2170 2624 1549 2624 
C 1222 2624 947 2503 730 2274 
L 730 3692 
z
" transform="scale(0.015625)"/>
       </defs>
       <use xlink:href="#CMR17-32" transform="scale(0.996264)"/>
       <use xlink:href="#CMR17-35" transform="translate(45.690477 0) scale(0.996264)"/>
       <use xlink:href="#CMR17-30" transform="translate(91.380954 0) scale(0.996264)"/>
      </g>
     </g>
    </g>
    <g id="ytick_3">
     <g id="line2d_19">
      <path d="M 58.5 93.927169 
L 421.2 93.927169 
" clip-path="url(#p6494d6d74c)" style="fill: none; stroke: #d3d3d3; stroke-width: 0.2; stroke-linecap: square"/>
     </g>
     <g id="line2d_20">
      <g>
       <use xlink:href="#mfd7ddcfa5b" x="58.5" y="93.927169" style="stroke: #000000; stroke-width: 0.8"/>
      </g>
     </g>
     <g id="text_11">
      <!-- $\mathdefault{500}$ -->
      <g transform="translate(40.055994 97.386418) scale(0.1 -0.1)">
       <use xlink:href="#CMR17-35" transform="scale(0.996264)"/>
       <use xlink:href="#CMR17-30" transform="translate(45.690477 0) scale(0.996264)"/>
       <use xlink:href="#CMR17-30" transform="translate(91.380954 0) scale(0.996264)"/>
      </g>
     </g>
    </g>
    <g id="ytick_4">
     <g id="line2d_21">
      <path d="M 58.5 71.672571 
L 421.2 71.672571 
" clip-path="url(#p6494d6d74c)" style="fill: none; stroke: #d3d3d3; stroke-width: 0.2; stroke-linecap: square"/>
     </g>
     <g id="line2d_22">
      <g>
       <use xlink:href="#mfd7ddcfa5b" x="58.5" y="71.672571" style="stroke: #000000; stroke-width: 0.8"/>
      </g>
     </g>
     <g id="text_12">
      <!-- $\mathdefault{750}$ -->
      <g transform="translate(40.055994 75.13182) scale(0.1 -0.1)">
       <defs>
        <path id="CMR17-37" d="M 2886 3941 
L 2886 4081 
L 1382 4081 
C 634 4081 621 4165 595 4288 
L 480 4288 
L 294 3094 
L 410 3094 
C 429 3215 474 3540 550 3661 
C 589 3712 1062 3712 1171 3712 
L 2579 3712 
L 1869 2661 
C 1395 1954 1069 999 1069 165 
C 1069 89 1069 -128 1299 -128 
C 1530 -128 1530 89 1530 171 
L 1530 465 
C 1530 1508 1709 2196 2003 2636 
L 2886 3941 
z
" transform="scale(0.015625)"/>
       </defs>
       <use xlink:href="#CMR17-37" transform="scale(0.996264)"/>
       <use xlink:href="#CMR17-35" transform="translate(45.690477 0) scale(0.996264)"/>
       <use xlink:href="#CMR17-30" transform="translate(91.380954 0) scale(0.996264)"/>
      </g>
     </g>
    </g>
    <g id="ytick_5">
     <g id="line2d_23">
      <path d="M 58.5 49.417974 
L 421.2 49.417974 
" clip-path="url(#p6494d6d74c)" style="fill: none; stroke: #d3d3d3; stroke-width: 0.2; stroke-linecap: square"/>
     </g>
     <g id="line2d_24">
      <g>
       <use xlink:href="#mfd7ddcfa5b" x="58.5" y="49.417974" style="stroke: #000000; stroke-width: 0.8"/>
      </g>
     </g>
     <g id="text_13">
      <!-- $\mathdefault{1000}$ -->
      <g transform="translate(35.074659 52.877223) scale(0.1 -0.1)">
       <use xlink:href="#CMR17-31" transform="scale(0.996264)"/>
       <use xlink:href="#CMR17-30" transform="translate(45.690477 0) scale(0.996264)"/>
       <use xlink:href="#CMR17-30" transform="translate(91.380954 0) scale(0.996264)"/>
       <use xlink:href="#CMR17-30" transform="translate(137.071431 0) scale(0.996264)"/>
      </g>
     </g>
    </g>
    <g id="ytick_6">
     <g id="line2d_25">
      <path d="M 58.5 27.163376 
L 421.2 27.163376 
" clip-path="url(#p6494d6d74c)" style="fill: none; stroke: #d3d3d3; stroke-width: 0.2; stroke-linecap: square"/>
     </g>
     <g id="line2d_26">
      <g>
       <use xlink:href="#mfd7ddcfa5b" x="58.5" y="27.163376" style="stroke: #000000; stroke-width: 0.8"/>
      </g>
     </g>
     <g id="text_14">
      <!-- $\mathdefault{1250}$ -->
      <g transform="translate(35.074659 30.622625) scale(0.1 -0.1)">
       <use xlink:href="#CMR17-31" transform="scale(0.996264)"/>
       <use xlink:href="#CMR17-32" transform="translate(45.690477 0) scale(0.996264)"/>
       <use xlink:href="#CMR17-35" transform="translate(91.380954 0) scale(0.996264)"/>
       <use xlink:href="#CMR17-30" transform="translate(137.071431 0) scale(0.996264)"/>
      </g>
     </g>
    </g>
    <g id="text_15">
     <!-- $\frac{dF}{du}$ [kN/m] -->
     <g transform="translate(26.952027 109.327452) rotate(-90) scale(0.12 -0.12)">
      <defs>
       <path id="CMMI12-64" d="M 3219 4257 
C 3226 4282 3238 4320 3238 4352 
C 3238 4416 3174 4416 3162 4416 
C 3155 4416 2842 4388 2810 4380 
C 2701 4373 2605 4358 2490 4358 
C 2330 4345 2285 4339 2285 4224 
C 2285 4160 2336 4160 2426 4160 
C 2739 4160 2746 4103 2746 4040 
C 2746 4002 2733 3952 2726 3933 
L 2336 2395 
C 2266 2561 2093 2816 1760 2816 
C 1037 2816 256 1884 256 939 
C 256 307 627 -64 1062 -64 
C 1414 -64 1715 211 1894 422 
C 1958 45 2259 -64 2451 -64 
C 2643 -64 2797 51 2912 281 
C 3014 498 3104 888 3104 913 
C 3104 945 3078 971 3040 971 
C 2982 971 2976 939 2950 843 
C 2854 466 2733 64 2470 64 
C 2285 64 2272 229 2272 357 
C 2272 382 2272 515 2317 694 
L 3219 4257 
z
M 1926 760 
C 1894 651 1894 639 1805 517 
C 1664 338 1382 64 1082 64 
C 819 64 672 300 672 677 
C 672 1028 870 1743 992 2012 
C 1210 2459 1510 2689 1760 2689 
C 2182 2689 2266 2165 2266 2114 
C 2266 2108 2246 2024 2240 2012 
L 1926 760 
z
" transform="scale(0.015625)"/>
       <path id="CMMI12-46" d="M 1901 2055 
L 2515 2055 
C 3002 2055 3040 1946 3040 1761 
C 3040 1678 3027 1589 2995 1448 
C 2982 1423 2976 1391 2976 1378 
C 2976 1333 3002 1308 3046 1308 
C 3098 1308 3104 1333 3130 1435 
L 3501 2935 
C 3501 2961 3482 2999 3437 2999 
C 3379 2999 3373 2974 3347 2863 
C 3213 2376 3085 2240 2528 2240 
L 1946 2240 
L 2362 3926 
C 2419 4154 2432 4154 2694 4154 
L 3552 4154 
C 4352 4154 4467 3918 4467 3464 
C 4467 3426 4467 3285 4448 3119 
C 4442 3094 4429 3011 4429 2985 
C 4429 2934 4461 2915 4499 2915 
C 4544 2915 4570 2941 4582 3055 
L 4717 4174 
C 4717 4195 4730 4263 4730 4277 
C 4730 4352 4672 4352 4557 4352 
L 1523 4352 
C 1402 4352 1338 4352 1338 4229 
C 1338 4154 1382 4154 1491 4154 
C 1888 4154 1888 4113 1888 4050 
C 1888 4018 1882 3992 1862 3922 
L 998 473 
C 941 249 928 185 480 185 
C 358 185 294 185 294 70 
C 294 0 352 0 390 0 
C 512 0 640 0 762 0 
L 1594 0 
C 1734 0 1888 0 2029 0 
C 2086 0 2163 0 2163 115 
C 2163 185 2125 185 1984 185 
C 1478 185 1466 229 1466 324 
C 1466 356 1478 406 1491 449 
L 1901 2055 
z
" transform="scale(0.015625)"/>
       <path id="CMR17-6b" d="M 1670 1673 
C 1664 1686 1632 1724 1632 1743 
C 1632 1756 2086 2171 2144 2222 
C 2509 2528 2739 2560 2906 2560 
L 2906 2733 
C 2867 2733 2854 2733 2848 2720 
L 2534 2720 
C 2355 2720 2080 2720 1907 2733 
L 1907 2566 
C 1997 2559 2061 2508 2061 2419 
C 2061 2291 1933 2170 1926 2170 
L 960 1289 
L 960 4396 
L 198 4326 
L 198 4160 
C 576 4160 634 4122 634 3817 
L 634 426 
C 634 184 608 153 198 153 
L 198 -13 
C 352 0 634 0 794 0 
C 954 0 1235 0 1389 -13 
L 1389 153 
C 979 153 954 178 954 428 
L 954 1130 
L 1395 1532 
L 2042 574 
C 2118 459 2182 369 2182 286 
C 2182 172 2067 153 1990 153 
L 1990 -13 
C 2144 0 2419 0 2579 0 
C 2694 0 2931 0 3040 0 
L 3040 153 
C 2739 153 2669 210 2477 491 
L 1670 1673 
z
" transform="scale(0.015625)"/>
       <path id="CMR17-4e" d="M 1312 4250 
C 1267 4320 1261 4320 1139 4320 
L 326 4320 
L 326 4160 
L 448 4160 
C 704 4160 819 4129 838 4122 
L 838 610 
C 838 451 838 153 326 153 
L 326 -13 
C 474 0 742 0 902 0 
C 1062 0 1331 0 1478 -13 
L 1478 153 
C 966 153 966 451 966 610 
L 966 4033 
C 1011 3995 1011 3982 1056 3919 
L 3430 76 
C 3475 0 3494 0 3526 0 
C 3590 0 3590 19 3590 139 
L 3590 3705 
C 3590 3863 3590 4160 4102 4160 
L 4102 4326 
C 3955 4320 3686 4320 3526 4320 
C 3366 4320 3098 4320 2950 4326 
L 2950 4160 
C 3462 4160 3462 3862 3462 3703 
L 3462 763 
L 1312 4250 
z
" transform="scale(0.015625)"/>
       <path id="CMR17-2f" d="M 2605 4545 
C 2637 4627 2637 4640 2637 4653 
C 2637 4729 2579 4768 2528 4768 
C 2451 4768 2426 4717 2400 4640 
L 326 -1377 
C 294 -1460 294 -1473 294 -1486 
C 294 -1562 352 -1600 403 -1600 
C 480 -1600 506 -1549 531 -1473 
L 2605 4545 
z
" transform="scale(0.015625)"/>
      </defs>
      <use xlink:href="#CMMI12-64" transform="translate(0 39.226102) scale(0.697382)"/>
      <use xlink:href="#CMMI12-46" transform="translate(35.482207 39.226102) scale(0.697382)"/>
      <use xlink:href="#CMMI12-64" transform="translate(7.411735 -34.355253) scale(0.697382)"/>
      <use xlink:href="#CMMI12-75" transform="translate(42.893942 -34.355253) scale(0.697382)"/>
      <use xlink:href="#CMR17-5b" transform="translate(120.441198 0) scale(0.996264)"/>
      <use xlink:href="#CMR17-6b" transform="translate(145.312257 0) scale(0.996264)"/>
      <use xlink:href="#CMR17-4e" transform="translate(193.605173 0) scale(0.996264)"/>
      <use xlink:href="#CMR17-2f" transform="translate(262.677602 0) scale(0.996264)"/>
      <use xlink:href="#CMR17-6d" transform="translate(308.36808 0) scale(0.996264)"/>
      <use xlink:href="#CMR17-5d" transform="translate(385.287669 0) scale(0.996264)"/>
      <path d="M 0 22.914133 
L 89.169718 22.914133 
L 89.169718 26.899083 
L 0 26.899083 
L 0 22.914133 
z
"/>
     </g>
    </g>
   </g>
   <g id="PolyCollection_1">
    <defs>
     <path id="m47ced0c949" d="M 74.986364 -41.563636 
L 74.986364 -44.822114 
L 75.710069 -44.83223 
L 76.429296 -44.852541 
L 77.14409 -44.872889 
L 77.854499 -44.893274 
L 78.560568 -44.913694 
L 79.262343 -44.934149 
L 79.959868 -44.95464 
L 80.653188 -44.975166 
L 81.342345 -44.995726 
L 82.027382 -45.01632 
L 82.708343 -45.036948 
L 83.385267 -45.05761 
L 84.058198 -45.078304 
L 84.727175 -45.099032 
L 85.392238 -45.119792 
L 86.053427 -45.140584 
L 86.71078 -45.161409 
L 87.364337 -45.182264 
L 88.014136 -45.203151 
L 88.660213 -45.224069 
L 89.302606 -45.245017 
L 89.941351 -45.265996 
L 90.576485 -45.287004 
L 91.208043 -45.308042 
L 91.83606 -45.329108 
L 92.460571 -45.350204 
L 93.08161 -45.371328 
L 93.69921 -45.392481 
L 94.313407 -45.413661 
L 94.924231 -45.434869 
L 95.531716 -45.456103 
L 96.135894 -45.477365 
L 96.736796 -45.498653 
L 97.334455 -45.519967 
L 97.928901 -45.541307 
L 98.520164 -45.562673 
L 99.108274 -45.584063 
L 99.693263 -45.605478 
L 100.275158 -45.626918 
L 100.853989 -45.648381 
L 101.429785 -45.669869 
L 102.002575 -45.691379 
L 102.572385 -45.712913 
L 103.139245 -45.734469 
L 103.70318 -45.756048 
L 104.26422 -45.777649 
L 104.822389 -45.799271 
L 105.377715 -45.820915 
L 105.930223 -45.842579 
L 106.47994 -45.864265 
L 107.02689 -45.88597 
L 107.5711 -45.907695 
L 108.112593 -45.92944 
L 108.651395 -45.951204 
L 109.18753 -45.972987 
L 109.721022 -45.994789 
L 110.251894 -46.016608 
L 110.78017 -46.038446 
L 111.305874 -46.0603 
L 111.829028 -46.082172 
L 112.349654 -46.104061 
L 112.867776 -46.125966 
L 113.383415 -46.147887 
L 113.896594 -46.169824 
L 114.407333 -46.191776 
L 114.915655 -46.213744 
L 115.42158 -46.235726 
L 115.92513 -46.257722 
L 116.426325 -46.279732 
L 116.925186 -46.301756 
L 117.421732 -46.323792 
L 117.915985 -46.345842 
L 118.407963 -46.367905 
L 118.897687 -46.389979 
L 119.385175 -46.412065 
L 119.870447 -46.434163 
L 120.353522 -46.456272 
L 120.834418 -46.478392 
L 121.313154 -46.500522 
L 121.789748 -46.522662 
L 122.264219 -46.544812 
L 122.736585 -46.566971 
L 123.206863 -46.589139 
L 123.67507 -46.611316 
L 124.141224 -46.633501 
L 124.605343 -46.655694 
L 125.067443 -46.677894 
L 125.527541 -46.700102 
L 125.985654 -46.722316 
L 126.441798 -46.744537 
L 126.895989 -46.766765 
L 127.348244 -46.788998 
L 127.798579 -46.811236 
L 128.247009 -46.833479 
L 128.693551 -46.855727 
L 129.138218 -46.87798 
L 129.581028 -46.900237 
L 130.021994 -46.922497 
L 130.461132 -46.94476 
L 130.898458 -46.967026 
L 131.333984 -46.989295 
L 131.767727 -47.011566 
L 132.1997 -47.033839 
L 132.629918 -47.056114 
L 133.058394 -47.07839 
L 133.485143 -47.100666 
L 133.910179 -47.122943 
L 134.333515 -47.14522 
L 134.755165 -47.167496 
L 135.175142 -47.189772 
L 135.593459 -47.212047 
L 136.01013 -47.234321 
L 136.425168 -47.256593 
L 136.838585 -47.278863 
L 137.250395 -47.30113 
L 137.660609 -47.323395 
L 138.069242 -47.345656 
L 138.476303 -47.367914 
L 138.881807 -47.390168 
L 139.285766 -47.412418 
L 139.688191 -47.434663 
L 140.089094 -47.456904 
L 140.488487 -47.479139 
L 140.886381 -47.501368 
L 141.28279 -47.523592 
L 141.677723 -47.545809 
L 142.071192 -47.568019 
L 142.463209 -47.590222 
L 142.853784 -47.612418 
L 143.242929 -47.634606 
L 143.630655 -47.656786 
L 144.016972 -47.678958 
L 144.401891 -47.701121 
L 144.785423 -47.723274 
L 145.167579 -47.745418 
L 145.548368 -47.767552 
L 145.927801 -47.789676 
L 146.305889 -47.811789 
L 146.682642 -47.833891 
L 147.058069 -47.855982 
L 147.432181 -47.878061 
L 147.804987 -47.900128 
L 148.176498 -47.922183 
L 148.546723 -47.944225 
L 148.915671 -47.966253 
L 149.283352 -47.988269 
L 149.649776 -48.01027 
L 150.014953 -48.032258 
L 150.37889 -48.054231 
L 150.741598 -48.076189 
L 151.103085 -48.098132 
L 151.463361 -48.120059 
L 151.822434 -48.14197 
L 152.180314 -48.163865 
L 152.537009 -48.185744 
L 152.892528 -48.207605 
L 153.24688 -48.22945 
L 153.600073 -48.251276 
L 153.952115 -48.273085 
L 154.303015 -48.294875 
L 154.652782 -48.316646 
L 155.001424 -48.338399 
L 155.348948 -48.360132 
L 155.695364 -48.381845 
L 156.040678 -48.403538 
L 156.3849 -48.42521 
L 156.728036 -48.446862 
L 157.070095 -48.468493 
L 157.411086 -48.490102 
L 157.751014 -48.511689 
L 158.089888 -48.533254 
L 158.427717 -48.554797 
L 158.764506 -48.576316 
L 159.100264 -48.597813 
L 159.434998 -48.619286 
L 159.768715 -48.640735 
L 160.101423 -48.662159 
L 160.433129 -48.683559 
L 160.76384 -48.704934 
L 161.093564 -48.726284 
L 161.422306 -48.747608 
L 161.750075 -48.768907 
L 162.076877 -48.790178 
L 162.402719 -48.811424 
L 162.727607 -48.832642 
L 163.05155 -48.853833 
L 163.374553 -48.874996 
L 163.696623 -48.896131 
L 164.017766 -48.917238 
L 164.33799 -48.938316 
L 164.6573 -48.959365 
L 164.975704 -48.980385 
L 165.293207 -49.001375 
L 165.609815 -49.022335 
L 165.925537 -49.043264 
L 166.240376 -49.064163 
L 166.55434 -49.085031 
L 166.867435 -49.105867 
L 167.179667 -49.126672 
L 167.491042 -49.147445 
L 167.801565 -49.168185 
L 168.111244 -49.188893 
L 168.420083 -49.209567 
L 168.728089 -49.230208 
L 169.035268 -49.250816 
L 169.341625 -49.271389 
L 169.647166 -49.291928 
L 169.951897 -49.312432 
L 170.255823 -49.332901 
L 170.55895 -49.353335 
L 170.861284 -49.373733 
L 171.16283 -49.394096 
L 171.463593 -49.414421 
L 171.76358 -49.434711 
L 172.062795 -49.454963 
L 172.361243 -49.475178 
L 172.658931 -49.495355 
L 172.955863 -49.515494 
L 173.252045 -49.535595 
L 173.547482 -49.555657 
L 173.842179 -49.575681 
L 174.13614 -49.595665 
L 174.429372 -49.615609 
L 174.72188 -49.635514 
L 175.013668 -49.655379 
L 175.304741 -49.675202 
L 175.595104 -49.694986 
L 175.884762 -49.714727 
L 176.173721 -49.734428 
L 176.461984 -49.754087 
L 176.749557 -49.773703 
L 177.036444 -49.793277 
L 177.322651 -49.812809 
L 177.608182 -49.832297 
L 177.893041 -49.851742 
L 178.177233 -49.871143 
L 178.460763 -49.8905 
L 178.743636 -49.909813 
L 179.025855 -49.929082 
L 179.307426 -49.948305 
L 179.588353 -49.967483 
L 179.86864 -49.986616 
L 180.148293 -50.005703 
L 180.427314 -50.024743 
L 180.705709 -50.043738 
L 180.983482 -50.062685 
L 181.260637 -50.081586 
L 181.537178 -50.100439 
L 181.81311 -47.980342 
L 182.088437 -86.579053 
L 182.363164 -127.494379 
L 182.637293 -127.680985 
L 182.91083 -127.867102 
L 183.183779 -128.052727 
L 183.456143 -128.237858 
L 183.727926 -128.422491 
L 183.999134 -128.606624 
L 184.269769 -128.790253 
L 184.539835 -128.973376 
L 184.809338 -129.155989 
L 185.078279 -129.33809 
L 185.346665 -129.519676 
L 185.614497 -129.700744 
L 185.881781 -129.88129 
L 186.148519 -130.061313 
L 186.414717 -130.240809 
L 186.680376 -130.419775 
L 186.945503 -130.598208 
L 187.210099 -130.776106 
L 187.474168 -130.953466 
L 187.737715 -131.130285 
L 188.000744 -131.306559 
L 188.263256 -131.482287 
L 188.525258 -131.657465 
L 188.786751 -131.832091 
L 189.047739 -132.006162 
L 189.308226 -132.179674 
L 189.568216 -132.352626 
L 189.827712 -132.525014 
L 190.086717 -132.696836 
L 190.345236 -132.868089 
L 190.60327 -133.03877 
L 190.860825 -133.208876 
L 191.117902 -133.378405 
L 191.374507 -133.547354 
L 191.630641 -133.71572 
L 191.886308 -133.883501 
L 192.141512 -134.050694 
L 192.396256 -134.217296 
L 192.650543 -134.383305 
L 192.904377 -134.548717 
L 193.15776 -134.713531 
L 193.410696 -134.877743 
L 193.663188 -135.041351 
L 193.91524 -135.204352 
L 194.166854 -135.366744 
L 194.418033 -135.528525 
L 194.668781 -135.689691 
L 194.919101 -135.850239 
L 195.168996 -136.010168 
L 195.418469 -136.169475 
L 195.667524 -136.328157 
L 195.916162 -136.486212 
L 196.164387 -136.643637 
L 196.412203 -136.80043 
L 196.659612 -136.956587 
L 196.906617 -137.112108 
L 197.153221 -137.266988 
L 197.399427 -137.421226 
L 197.645238 -137.574819 
L 197.890657 -137.727765 
L 198.135687 -137.880062 
L 198.38033 -138.031706 
L 198.62459 -138.182695 
L 198.86847 -138.333028 
L 199.111972 -138.4827 
L 199.355098 -138.631712 
L 199.597853 -138.780058 
L 199.840238 -138.927739 
L 200.082257 -139.07475 
L 200.323912 -139.22109 
L 200.565206 -139.366756 
L 200.806142 -139.511746 
L 201.046722 -139.656058 
L 201.28695 -139.799689 
L 201.526827 -139.942638 
L 201.766357 -140.084901 
L 202.005542 -140.226476 
L 202.244385 -140.367362 
L 202.482888 -140.507555 
L 202.721055 -140.647055 
L 202.958887 -140.785857 
L 203.196387 -140.923961 
L 203.433559 -141.061364 
L 203.670404 -141.198064 
L 203.906925 -141.334058 
L 204.143125 -141.469345 
L 204.379006 -141.603922 
L 204.614571 -141.737788 
L 204.849822 -141.870939 
L 205.084762 -142.003374 
L 205.319393 -142.13509 
L 205.553718 -142.266087 
L 205.787739 -142.396361 
L 206.021459 -142.52591 
L 206.25488 -142.654732 
L 206.488004 -142.782826 
L 206.720835 -142.910189 
L 206.953374 -143.03682 
L 207.185623 -143.162715 
L 207.417586 -143.287873 
L 207.649265 -143.412293 
L 207.880662 -143.535972 
L 208.111779 -143.658907 
L 208.342618 -143.781098 
L 208.573183 -143.902543 
L 208.803475 -144.023238 
L 209.033497 -144.143183 
L 209.263251 -144.262375 
L 209.492739 -144.380813 
L 209.721964 -144.498494 
L 209.950928 -144.615417 
L 210.179633 -144.73158 
L 210.408081 -144.846981 
L 210.636275 -144.961618 
L 210.864218 -145.075489 
L 211.09191 -145.188593 
L 211.319355 -145.300927 
L 211.546554 -145.41249 
L 211.773511 -145.52328 
L 212.000226 -145.633296 
L 212.226703 -145.742535 
L 212.452944 -145.850995 
L 212.67895 -145.958676 
L 212.904724 -146.065575 
L 213.130268 -146.171691 
L 213.355584 -146.277022 
L 213.580674 -146.381565 
L 213.805541 -146.485321 
L 214.030186 -146.588286 
L 214.254612 -146.690459 
L 214.478821 -146.791839 
L 214.702815 -146.892424 
L 214.926596 -146.992212 
L 215.150166 -147.091202 
L 215.373528 -147.189392 
L 215.596682 -147.28678 
L 215.819632 -147.383366 
L 216.04238 -147.479147 
L 216.264927 -147.574122 
L 216.487275 -147.668289 
L 216.709427 -147.761647 
L 216.931385 -147.854195 
L 217.15315 -147.94593 
L 217.374726 -148.036852 
L 217.596112 -148.126959 
L 217.817313 -148.21625 
L 218.038329 -148.304722 
L 218.259163 -148.392376 
L 218.479817 -148.479208 
L 218.700293 -148.565219 
L 218.920592 -148.650406 
L 219.140717 -148.734768 
L 219.360669 -148.818304 
L 219.580451 -148.901012 
L 219.800065 -148.982892 
L 220.019512 -149.063941 
L 220.238795 -149.144159 
L 220.457915 -149.223544 
L 220.676874 -149.302095 
L 220.895675 -149.37981 
L 221.114318 -149.456689 
L 221.332807 -149.532731 
L 221.551143 -149.607933 
L 221.769328 -149.682295 
L 221.987364 -149.755816 
L 222.205252 -149.828494 
L 222.422995 -149.900328 
L 222.640595 -149.971318 
L 222.858053 -150.041461 
L 223.075371 -150.110758 
L 223.292552 -150.179206 
L 223.509596 -150.246804 
L 223.726506 -150.313553 
L 223.943285 -150.379449 
L 224.159932 -150.444493 
L 224.376451 -150.508684 
L 224.592844 -150.57202 
L 224.809112 -150.6345 
L 225.025256 -150.696124 
L 225.24128 -150.756889 
L 225.457184 -150.816797 
L 225.672971 -150.875844 
L 225.888641 -150.934031 
L 226.104199 -150.991357 
L 226.319644 -151.04782 
L 226.534978 -151.10342 
L 226.750205 -151.158156 
L 226.965325 -151.212027 
L 227.18034 -151.265032 
L 227.395252 -151.31717 
L 227.610062 -151.36844 
L 227.824774 -151.418842 
L 228.039387 -151.468375 
L 228.253905 -151.517038 
L 228.468329 -151.564829 
L 228.68266 -151.61175 
L 228.896901 -151.657798 
L 229.111053 -151.702973 
L 229.325119 -151.747274 
L 229.539099 -151.7907 
L 229.752995 -151.833252 
L 229.96681 -151.874927 
L 230.180545 -151.915726 
L 230.394202 -151.955648 
L 230.607783 -151.994692 
L 230.821288 -152.032857 
L 231.034721 -152.070144 
L 231.248083 -152.10655 
L 231.461375 -152.142077 
L 231.6746 -152.176722 
L 231.887759 -152.210487 
L 232.100853 -152.243369 
L 232.313885 -152.275369 
L 232.526857 -152.306485 
L 232.739769 -152.336719 
L 232.952624 -152.366068 
L 233.165424 -152.394533 
L 233.37817 -152.422113 
L 233.590864 -152.448808 
L 233.803507 -152.474617 
L 234.016102 -152.49954 
L 234.22865 -152.523576 
L 234.441152 -152.546725 
L 234.653611 -152.568987 
L 234.866029 -152.590362 
L 235.078406 -152.610848 
L 235.290745 -152.630446 
L 235.503048 -152.649155 
L 235.715316 -152.666976 
L 235.92755 -152.683907 
L 236.139753 -152.699948 
L 236.351926 -152.7151 
L 236.564071 -152.729362 
L 236.77619 -152.742733 
L 236.988284 -152.755214 
L 237.200355 -152.766805 
L 237.412404 -152.777504 
L 237.624435 -152.787313 
L 237.836447 -152.79623 
L 238.048443 -152.804256 
L 238.260425 -152.81139 
L 238.472394 -152.817633 
L 238.684352 -152.822985 
L 238.896301 -152.827444 
L 239.108242 -152.831012 
L 239.320177 -152.833688 
L 239.532108 -152.835472 
L 239.744036 -152.836364 
L 239.955964 -152.836364 
L 240.167892 -152.835472 
L 240.379823 -152.833688 
L 240.591758 -152.831012 
L 240.803699 -152.827444 
L 241.015648 -152.822985 
L 241.227606 -152.817633 
L 241.439575 -152.81139 
L 241.651557 -152.804256 
L 241.863553 -152.79623 
L 242.075565 -152.787313 
L 242.287596 -152.777504 
L 242.499645 -152.766805 
L 242.711716 -152.755214 
L 242.92381 -152.742733 
L 243.135929 -152.729362 
L 243.348074 -152.7151 
L 243.560247 -152.699948 
L 243.77245 -152.683907 
L 243.984684 -152.666976 
L 244.196952 -152.649155 
L 244.409255 -152.630446 
L 244.621594 -152.610848 
L 244.833971 -152.590362 
L 245.046389 -152.568987 
L 245.258848 -152.546725 
L 245.47135 -152.523576 
L 245.683898 -152.49954 
L 245.896493 -152.474617 
L 246.109136 -152.448808 
L 246.32183 -152.422113 
L 246.534576 -152.394533 
L 246.747376 -152.366068 
L 246.960231 -152.336719 
L 247.173143 -152.306485 
L 247.386115 -152.275369 
L 247.599147 -152.243369 
L 247.812241 -152.210487 
L 248.0254 -152.176722 
L 248.238625 -152.142077 
L 248.451917 -152.10655 
L 248.665279 -152.070144 
L 248.878712 -152.032857 
L 249.092217 -151.994692 
L 249.305798 -151.955648 
L 249.519455 -151.915726 
L 249.73319 -151.874927 
L 249.947005 -151.833252 
L 250.160901 -151.7907 
L 250.374881 -151.747274 
L 250.588947 -151.702973 
L 250.803099 -151.657798 
L 251.01734 -151.61175 
L 251.231671 -151.564829 
L 251.446095 -151.517038 
L 251.660613 -151.468375 
L 251.875226 -151.418842 
L 252.089938 -151.36844 
L 252.304748 -151.31717 
L 252.51966 -151.265032 
L 252.734675 -151.212027 
L 252.949795 -151.158156 
L 253.165022 -151.10342 
L 253.380356 -151.04782 
L 253.595801 -150.991357 
L 253.811359 -150.934031 
L 254.027029 -150.875844 
L 254.242816 -150.816797 
L 254.45872 -150.756889 
L 254.674744 -150.696124 
L 254.890888 -150.6345 
L 255.107156 -150.57202 
L 255.323549 -150.508684 
L 255.540068 -150.444493 
L 255.756715 -150.379449 
L 255.973494 -150.313553 
L 256.190404 -150.246804 
L 256.407448 -150.179206 
L 256.624629 -150.110758 
L 256.841947 -150.041461 
L 257.059405 -149.971318 
L 257.277005 -149.900328 
L 257.494748 -149.828494 
L 257.712636 -149.755816 
L 257.930672 -149.682295 
L 258.148857 -149.607933 
L 258.367193 -149.532731 
L 258.585682 -149.456689 
L 258.804325 -149.37981 
L 259.023126 -149.302095 
L 259.242085 -149.223544 
L 259.461205 -149.144159 
L 259.680488 -149.063941 
L 259.899935 -148.982892 
L 260.119549 -148.901012 
L 260.339331 -148.818304 
L 260.559283 -148.734768 
L 260.779408 -148.650406 
L 260.999707 -148.565219 
L 261.220183 -148.479208 
L 261.440837 -148.392376 
L 261.661671 -148.304722 
L 261.882687 -148.21625 
L 262.103888 -148.126959 
L 262.325274 -148.036852 
L 262.54685 -147.94593 
L 262.768615 -147.854195 
L 262.990573 -147.761647 
L 263.212725 -147.668289 
L 263.435073 -147.574122 
L 263.65762 -147.479147 
L 263.880368 -147.383366 
L 264.103318 -147.28678 
L 264.326472 -147.189392 
L 264.549834 -147.091202 
L 264.773404 -146.992212 
L 264.997185 -146.892424 
L 265.221179 -146.791839 
L 265.445388 -146.690459 
L 265.669814 -146.588286 
L 265.894459 -146.485321 
L 266.119326 -146.381565 
L 266.344416 -146.277022 
L 266.569732 -146.171691 
L 266.795276 -146.065575 
L 267.02105 -145.958676 
L 267.247056 -145.850995 
L 267.473297 -145.742535 
L 267.699774 -145.633296 
L 267.926489 -145.52328 
L 268.153446 -145.41249 
L 268.380645 -145.300927 
L 268.60809 -145.188593 
L 268.835782 -145.075489 
L 269.063725 -144.961618 
L 269.291919 -144.846981 
L 269.520367 -144.73158 
L 269.749072 -144.615417 
L 269.978036 -144.498494 
L 270.207261 -144.380813 
L 270.436749 -144.262375 
L 270.666503 -144.143183 
L 270.896525 -144.023238 
L 271.126817 -143.902543 
L 271.357382 -143.781098 
L 271.588221 -143.658907 
L 271.819338 -143.535972 
L 272.050735 -143.412293 
L 272.282414 -143.287873 
L 272.514377 -143.162715 
L 272.746626 -143.03682 
L 272.979165 -142.910189 
L 273.211996 -142.782826 
L 273.44512 -142.654732 
L 273.678541 -142.52591 
L 273.912261 -142.396361 
L 274.146282 -142.266087 
L 274.380607 -142.13509 
L 274.615238 -142.003374 
L 274.850178 -141.870939 
L 275.085429 -141.737788 
L 275.320994 -141.603922 
L 275.556875 -141.469345 
L 275.793075 -141.334058 
L 276.029596 -141.198064 
L 276.266441 -141.061364 
L 276.503613 -140.923961 
L 276.741113 -140.785857 
L 276.978945 -140.647055 
L 277.217112 -140.507555 
L 277.455615 -140.367362 
L 277.694458 -140.226476 
L 277.933643 -140.084901 
L 278.173173 -139.942638 
L 278.41305 -139.799689 
L 278.653278 -139.656058 
L 278.893858 -139.511746 
L 279.134794 -139.366756 
L 279.376088 -139.22109 
L 279.617743 -139.07475 
L 279.859762 -138.927739 
L 280.102147 -138.780058 
L 280.344902 -138.631712 
L 280.588028 -138.4827 
L 280.83153 -138.333028 
L 281.07541 -138.182695 
L 281.31967 -138.031706 
L 281.564313 -137.880062 
L 281.809343 -137.727765 
L 282.054762 -137.574819 
L 282.300573 -137.421226 
L 282.546779 -137.266988 
L 282.793383 -137.112108 
L 283.040388 -136.956587 
L 283.287797 -136.80043 
L 283.535613 -136.643637 
L 283.783838 -136.486212 
L 284.032476 -136.328157 
L 284.281531 -136.169475 
L 284.531004 -136.010168 
L 284.780899 -135.850239 
L 285.031219 -135.689691 
L 285.281967 -135.528525 
L 285.533146 -135.366744 
L 285.78476 -135.204352 
L 286.036812 -135.041351 
L 286.289304 -134.877743 
L 286.54224 -134.713531 
L 286.795623 -134.548717 
L 287.049457 -134.383305 
L 287.303744 -134.217296 
L 287.558488 -134.050694 
L 287.813692 -133.883501 
L 288.069359 -133.71572 
L 288.325493 -133.547354 
L 288.582098 -133.378405 
L 288.839175 -133.208876 
L 289.09673 -133.03877 
L 289.354764 -132.868089 
L 289.613283 -132.696836 
L 289.872288 -132.525014 
L 290.131784 -132.352626 
L 290.391774 -132.179674 
L 290.652261 -132.006162 
L 290.913249 -131.832091 
L 291.174742 -131.657465 
L 291.436744 -131.482287 
L 291.699256 -131.306559 
L 291.962285 -131.130285 
L 292.225832 -130.953466 
L 292.489901 -130.776106 
L 292.754497 -130.598208 
L 293.019624 -130.419775 
L 293.285283 -130.240809 
L 293.551481 -130.061313 
L 293.818219 -129.88129 
L 294.085503 -129.700744 
L 294.353335 -129.519676 
L 294.621721 -129.33809 
L 294.890662 -129.155989 
L 295.160165 -128.973376 
L 295.430231 -128.790253 
L 295.700866 -128.606624 
L 295.972074 -128.422491 
L 296.243857 -128.237858 
L 296.516221 -128.052727 
L 296.78917 -127.867102 
L 297.062707 -127.680985 
L 297.336836 -127.494379 
L 297.611563 -86.579053 
L 297.88689 -47.980342 
L 298.162822 -50.100439 
L 298.439363 -50.081586 
L 298.716518 -50.062685 
L 298.994291 -50.043738 
L 299.272686 -50.024743 
L 299.551707 -50.005703 
L 299.83136 -49.986616 
L 300.111647 -49.967483 
L 300.392574 -49.948305 
L 300.674145 -49.929082 
L 300.956364 -49.909813 
L 301.239237 -49.8905 
L 301.522767 -49.871143 
L 301.806959 -49.851742 
L 302.091818 -49.832297 
L 302.377349 -49.812809 
L 302.663556 -49.793277 
L 302.950443 -49.773703 
L 303.238016 -49.754087 
L 303.526279 -49.734428 
L 303.815238 -49.714727 
L 304.104896 -49.694986 
L 304.395259 -49.675202 
L 304.686332 -49.655379 
L 304.97812 -49.635514 
L 305.270628 -49.615609 
L 305.56386 -49.595665 
L 305.857821 -49.575681 
L 306.152518 -49.555657 
L 306.447955 -49.535595 
L 306.744137 -49.515494 
L 307.041069 -49.495355 
L 307.338757 -49.475178 
L 307.637205 -49.454963 
L 307.93642 -49.434711 
L 308.236407 -49.414421 
L 308.53717 -49.394096 
L 308.838716 -49.373733 
L 309.14105 -49.353335 
L 309.444177 -49.332901 
L 309.748103 -49.312432 
L 310.052834 -49.291928 
L 310.358375 -49.271389 
L 310.664732 -49.250816 
L 310.971911 -49.230208 
L 311.279917 -49.209567 
L 311.588756 -49.188893 
L 311.898435 -49.168185 
L 312.208958 -49.147445 
L 312.520333 -49.126672 
L 312.832565 -49.105867 
L 313.14566 -49.085031 
L 313.459624 -49.064163 
L 313.774463 -49.043264 
L 314.090185 -49.022335 
L 314.406793 -49.001375 
L 314.724296 -48.980385 
L 315.0427 -48.959365 
L 315.36201 -48.938316 
L 315.682234 -48.917238 
L 316.003377 -48.896131 
L 316.325447 -48.874996 
L 316.64845 -48.853833 
L 316.972393 -48.832642 
L 317.297281 -48.811424 
L 317.623123 -48.790178 
L 317.949925 -48.768907 
L 318.277694 -48.747608 
L 318.606436 -48.726284 
L 318.93616 -48.704934 
L 319.266871 -48.683559 
L 319.598577 -48.662159 
L 319.931285 -48.640735 
L 320.265002 -48.619286 
L 320.599736 -48.597813 
L 320.935494 -48.576316 
L 321.272283 -48.554797 
L 321.610112 -48.533254 
L 321.948986 -48.511689 
L 322.288914 -48.490102 
L 322.629905 -48.468493 
L 322.971964 -48.446862 
L 323.3151 -48.42521 
L 323.659322 -48.403538 
L 324.004636 -48.381845 
L 324.351052 -48.360132 
L 324.698576 -48.338399 
L 325.047218 -48.316646 
L 325.396985 -48.294875 
L 325.747885 -48.273085 
L 326.099927 -48.251276 
L 326.45312 -48.22945 
L 326.807472 -48.207605 
L 327.162991 -48.185744 
L 327.519686 -48.163865 
L 327.877566 -48.14197 
L 328.236639 -48.120059 
L 328.596915 -48.098132 
L 328.958402 -48.076189 
L 329.32111 -48.054231 
L 329.685047 -48.032258 
L 330.050224 -48.01027 
L 330.416648 -47.988269 
L 330.784329 -47.966253 
L 331.153277 -47.944225 
L 331.523502 -47.922183 
L 331.895013 -47.900128 
L 332.267819 -47.878061 
L 332.641931 -47.855982 
L 333.017358 -47.833891 
L 333.394111 -47.811789 
L 333.772199 -47.789676 
L 334.151632 -47.767552 
L 334.532421 -47.745418 
L 334.914577 -47.723274 
L 335.298109 -47.701121 
L 335.683028 -47.678958 
L 336.069345 -47.656786 
L 336.457071 -47.634606 
L 336.846216 -47.612418 
L 337.236791 -47.590222 
L 337.628808 -47.568019 
L 338.022277 -47.545809 
L 338.41721 -47.523592 
L 338.813619 -47.501368 
L 339.211513 -47.479139 
L 339.610906 -47.456904 
L 340.011809 -47.434663 
L 340.414234 -47.412418 
L 340.818193 -47.390168 
L 341.223697 -47.367914 
L 341.630758 -47.345656 
L 342.039391 -47.323395 
L 342.449605 -47.30113 
L 342.861415 -47.278863 
L 343.274832 -47.256593 
L 343.68987 -47.234321 
L 344.106541 -47.212047 
L 344.524858 -47.189772 
L 344.944835 -47.167496 
L 345.366485 -47.14522 
L 345.789821 -47.122943 
L 346.214857 -47.100666 
L 346.641606 -47.07839 
L 347.070082 -47.056114 
L 347.5003 -47.033839 
L 347.932273 -47.011566 
L 348.366016 -46.989295 
L 348.801542 -46.967026 
L 349.238868 -46.94476 
L 349.678006 -46.922497 
L 350.118972 -46.900237 
L 350.561782 -46.87798 
L 351.006449 -46.855727 
L 351.452991 -46.833479 
L 351.901421 -46.811236 
L 352.351756 -46.788998 
L 352.804011 -46.766765 
L 353.258202 -46.744537 
L 353.714346 -46.722316 
L 354.172459 -46.700102 
L 354.632557 -46.677894 
L 355.094657 -46.655694 
L 355.558776 -46.633501 
L 356.02493 -46.611316 
L 356.493137 -46.589139 
L 356.963415 -46.566971 
L 357.435781 -46.544812 
L 357.910252 -46.522662 
L 358.386846 -46.500522 
L 358.865582 -46.478392 
L 359.346478 -46.456272 
L 359.829553 -46.434163 
L 360.314825 -46.412065 
L 360.802313 -46.389979 
L 361.292037 -46.367905 
L 361.784015 -46.345842 
L 362.278268 -46.323792 
L 362.774814 -46.301756 
L 363.273675 -46.279732 
L 363.77487 -46.257722 
L 364.27842 -46.235726 
L 364.784345 -46.213744 
L 365.292667 -46.191776 
L 365.803406 -46.169824 
L 366.316585 -46.147887 
L 366.832224 -46.125966 
L 367.350346 -46.104061 
L 367.870972 -46.082172 
L 368.394126 -46.0603 
L 368.91983 -46.038446 
L 369.448106 -46.016608 
L 369.978978 -45.994789 
L 370.51247 -45.972987 
L 371.048605 -45.951204 
L 371.587407 -45.92944 
L 372.1289 -45.907695 
L 372.67311 -45.88597 
L 373.22006 -45.864265 
L 373.769777 -45.842579 
L 374.322285 -45.820915 
L 374.877611 -45.799271 
L 375.43578 -45.777649 
L 375.99682 -45.756048 
L 376.560755 -45.734469 
L 377.127615 -45.712913 
L 377.697425 -45.691379 
L 378.270215 -45.669869 
L 378.846011 -45.648381 
L 379.424842 -45.626918 
L 380.006737 -45.605478 
L 380.591726 -45.584063 
L 381.179836 -45.562673 
L 381.771099 -45.541307 
L 382.365545 -45.519967 
L 382.963204 -45.498653 
L 383.564106 -45.477365 
L 384.168284 -45.456103 
L 384.775769 -45.434869 
L 385.386593 -45.413661 
L 386.00079 -45.392481 
L 386.61839 -45.371328 
L 387.239429 -45.350204 
L 387.86394 -45.329108 
L 388.491957 -45.308042 
L 389.123515 -45.287004 
L 389.758649 -45.265996 
L 390.397394 -45.245017 
L 391.039787 -45.224069 
L 391.685864 -45.203151 
L 392.335663 -45.182264 
L 392.98922 -45.161409 
L 393.646573 -45.140584 
L 394.307762 -45.119792 
L 394.972825 -45.099032 
L 395.641802 -45.078304 
L 396.314733 -45.05761 
L 396.991657 -45.036948 
L 397.672618 -45.01632 
L 398.357655 -44.995726 
L 399.046812 -44.975166 
L 399.740132 -44.95464 
L 400.437657 -44.934149 
L 401.139432 -44.913694 
L 401.845501 -44.893274 
L 402.55591 -44.872889 
L 403.270704 -44.852541 
L 403.989931 -44.83223 
L 404.713636 -44.822114 
L 404.713636 -41.563636 
L 404.713636 -41.563636 
L 403.989931 -41.563636 
L 403.270704 -41.563636 
L 402.55591 -41.563636 
L 401.845501 -41.563636 
L 401.139432 -41.563636 
L 400.437657 -41.563636 
L 399.740132 -41.563636 
L 399.046812 -41.563636 
L 398.357655 -41.563636 
L 397.672618 -41.563636 
L 396.991657 -41.563636 
L 396.314733 -41.563636 
L 395.641802 -41.563636 
L 394.972825 -41.563636 
L 394.307762 -41.563636 
L 393.646573 -41.563636 
L 392.98922 -41.563636 
L 392.335663 -41.563636 
L 391.685864 -41.563636 
L 391.039787 -41.563636 
L 390.397394 -41.563636 
L 389.758649 -41.563636 
L 389.123515 -41.563636 
L 388.491957 -41.563636 
L 387.86394 -41.563636 
L 387.239429 -41.563636 
L 386.61839 -41.563636 
L 386.00079 -41.563636 
L 385.386593 -41.563636 
L 384.775769 -41.563636 
L 384.168284 -41.563636 
L 383.564106 -41.563636 
L 382.963204 -41.563636 
L 382.365545 -41.563636 
L 381.771099 -41.563636 
L 381.179836 -41.563636 
L 380.591726 -41.563636 
L 380.006737 -41.563636 
L 379.424842 -41.563636 
L 378.846011 -41.563636 
L 378.270215 -41.563636 
L 377.697425 -41.563636 
L 377.127615 -41.563636 
L 376.560755 -41.563636 
L 375.99682 -41.563636 
L 375.43578 -41.563636 
L 374.877611 -41.563636 
L 374.322285 -41.563636 
L 373.769777 -41.563636 
L 373.22006 -41.563636 
L 372.67311 -41.563636 
L 372.1289 -41.563636 
L 371.587407 -41.563636 
L 371.048605 -41.563636 
L 370.51247 -41.563636 
L 369.978978 -41.563636 
L 369.448106 -41.563636 
L 368.91983 -41.563636 
L 368.394126 -41.563636 
L 367.870972 -41.563636 
L 367.350346 -41.563636 
L 366.832224 -41.563636 
L 366.316585 -41.563636 
L 365.803406 -41.563636 
L 365.292667 -41.563636 
L 364.784345 -41.563636 
L 364.27842 -41.563636 
L 363.77487 -41.563636 
L 363.273675 -41.563636 
L 362.774814 -41.563636 
L 362.278268 -41.563636 
L 361.784015 -41.563636 
L 361.292037 -41.563636 
L 360.802313 -41.563636 
L 360.314825 -41.563636 
L 359.829553 -41.563636 
L 359.346478 -41.563636 
L 358.865582 -41.563636 
L 358.386846 -41.563636 
L 357.910252 -41.563636 
L 357.435781 -41.563636 
L 356.963415 -41.563636 
L 356.493137 -41.563636 
L 356.02493 -41.563636 
L 355.558776 -41.563636 
L 355.094657 -41.563636 
L 354.632557 -41.563636 
L 354.172459 -41.563636 
L 353.714346 -41.563636 
L 353.258202 -41.563636 
L 352.804011 -41.563636 
L 352.351756 -41.563636 
L 351.901421 -41.563636 
L 351.452991 -41.563636 
L 351.006449 -41.563636 
L 350.561782 -41.563636 
L 350.118972 -41.563636 
L 349.678006 -41.563636 
L 349.238868 -41.563636 
L 348.801542 -41.563636 
L 348.366016 -41.563636 
L 347.932273 -41.563636 
L 347.5003 -41.563636 
L 347.070082 -41.563636 
L 346.641606 -41.563636 
L 346.214857 -41.563636 
L 345.789821 -41.563636 
L 345.366485 -41.563636 
L 344.944835 -41.563636 
L 344.524858 -41.563636 
L 344.106541 -41.563636 
L 343.68987 -41.563636 
L 343.274832 -41.563636 
L 342.861415 -41.563636 
L 342.449605 -41.563636 
L 342.039391 -41.563636 
L 341.630758 -41.563636 
L 341.223697 -41.563636 
L 340.818193 -41.563636 
L 340.414234 -41.563636 
L 340.011809 -41.563636 
L 339.610906 -41.563636 
L 339.211513 -41.563636 
L 338.813619 -41.563636 
L 338.41721 -41.563636 
L 338.022277 -41.563636 
L 337.628808 -41.563636 
L 337.236791 -41.563636 
L 336.846216 -41.563636 
L 336.457071 -41.563636 
L 336.069345 -41.563636 
L 335.683028 -41.563636 
L 335.298109 -41.563636 
L 334.914577 -41.563636 
L 334.532421 -41.563636 
L 334.151632 -41.563636 
L 333.772199 -41.563636 
L 333.394111 -41.563636 
L 333.017358 -41.563636 
L 332.641931 -41.563636 
L 332.267819 -41.563636 
L 331.895013 -41.563636 
L 331.523502 -41.563636 
L 331.153277 -41.563636 
L 330.784329 -41.563636 
L 330.416648 -41.563636 
L 330.050224 -41.563636 
L 329.685047 -41.563636 
L 329.32111 -41.563636 
L 328.958402 -41.563636 
L 328.596915 -41.563636 
L 328.236639 -41.563636 
L 327.877566 -41.563636 
L 327.519686 -41.563636 
L 327.162991 -41.563636 
L 326.807472 -41.563636 
L 326.45312 -41.563636 
L 326.099927 -41.563636 
L 325.747885 -41.563636 
L 325.396985 -41.563636 
L 325.047218 -41.563636 
L 324.698576 -41.563636 
L 324.351052 -41.563636 
L 324.004636 -41.563636 
L 323.659322 -41.563636 
L 323.3151 -41.563636 
L 322.971964 -41.563636 
L 322.629905 -41.563636 
L 322.288914 -41.563636 
L 321.948986 -41.563636 
L 321.610112 -41.563636 
L 321.272283 -41.563636 
L 320.935494 -41.563636 
L 320.599736 -41.563636 
L 320.265002 -41.563636 
L 319.931285 -41.563636 
L 319.598577 -41.563636 
L 319.266871 -41.563636 
L 318.93616 -41.563636 
L 318.606436 -41.563636 
L 318.277694 -41.563636 
L 317.949925 -41.563636 
L 317.623123 -41.563636 
L 317.297281 -41.563636 
L 316.972393 -41.563636 
L 316.64845 -41.563636 
L 316.325447 -41.563636 
L 316.003377 -41.563636 
L 315.682234 -41.563636 
L 315.36201 -41.563636 
L 315.0427 -41.563636 
L 314.724296 -41.563636 
L 314.406793 -41.563636 
L 314.090185 -41.563636 
L 313.774463 -41.563636 
L 313.459624 -41.563636 
L 313.14566 -41.563636 
L 312.832565 -41.563636 
L 312.520333 -41.563636 
L 312.208958 -41.563636 
L 311.898435 -41.563636 
L 311.588756 -41.563636 
L 311.279917 -41.563636 
L 310.971911 -41.563636 
L 310.664732 -41.563636 
L 310.358375 -41.563636 
L 310.052834 -41.563636 
L 309.748103 -41.563636 
L 309.444177 -41.563636 
L 309.14105 -41.563636 
L 308.838716 -41.563636 
L 308.53717 -41.563636 
L 308.236407 -41.563636 
L 307.93642 -41.563636 
L 307.637205 -41.563636 
L 307.338757 -41.563636 
L 307.041069 -41.563636 
L 306.744137 -41.563636 
L 306.447955 -41.563636 
L 306.152518 -41.563636 
L 305.857821 -41.563636 
L 305.56386 -41.563636 
L 305.270628 -41.563636 
L 304.97812 -41.563636 
L 304.686332 -41.563636 
L 304.395259 -41.563636 
L 304.104896 -41.563636 
L 303.815238 -41.563636 
L 303.526279 -41.563636 
L 303.238016 -41.563636 
L 302.950443 -41.563636 
L 302.663556 -41.563636 
L 302.377349 -41.563636 
L 302.091818 -41.563636 
L 301.806959 -41.563636 
L 301.522767 -41.563636 
L 301.239237 -41.563636 
L 300.956364 -41.563636 
L 300.674145 -41.563636 
L 300.392574 -41.563636 
L 300.111647 -41.563636 
L 299.83136 -41.563636 
L 299.551707 -41.563636 
L 299.272686 -41.563636 
L 298.994291 -41.563636 
L 298.716518 -41.563636 
L 298.439363 -41.563636 
L 298.162822 -41.563636 
L 297.88689 -41.563636 
L 297.611563 -41.563636 
L 297.336836 -41.563636 
L 297.062707 -41.563636 
L 296.78917 -41.563636 
L 296.516221 -41.563636 
L 296.243857 -41.563636 
L 295.972074 -41.563636 
L 295.700866 -41.563636 
L 295.430231 -41.563636 
L 295.160165 -41.563636 
L 294.890662 -41.563636 
L 294.621721 -41.563636 
L 294.353335 -41.563636 
L 294.085503 -41.563636 
L 293.818219 -41.563636 
L 293.551481 -41.563636 
L 293.285283 -41.563636 
L 293.019624 -41.563636 
L 292.754497 -41.563636 
L 292.489901 -41.563636 
L 292.225832 -41.563636 
L 291.962285 -41.563636 
L 291.699256 -41.563636 
L 291.436744 -41.563636 
L 291.174742 -41.563636 
L 290.913249 -41.563636 
L 290.652261 -41.563636 
L 290.391774 -41.563636 
L 290.131784 -41.563636 
L 289.872288 -41.563636 
L 289.613283 -41.563636 
L 289.354764 -41.563636 
L 289.09673 -41.563636 
L 288.839175 -41.563636 
L 288.582098 -41.563636 
L 288.325493 -41.563636 
L 288.069359 -41.563636 
L 287.813692 -41.563636 
L 287.558488 -41.563636 
L 287.303744 -41.563636 
L 287.049457 -41.563636 
L 286.795623 -41.563636 
L 286.54224 -41.563636 
L 286.289304 -41.563636 
L 286.036812 -41.563636 
L 285.78476 -41.563636 
L 285.533146 -41.563636 
L 285.281967 -41.563636 
L 285.031219 -41.563636 
L 284.780899 -41.563636 
L 284.531004 -41.563636 
L 284.281531 -41.563636 
L 284.032476 -41.563636 
L 283.783838 -41.563636 
L 283.535613 -41.563636 
L 283.287797 -41.563636 
L 283.040388 -41.563636 
L 282.793383 -41.563636 
L 282.546779 -41.563636 
L 282.300573 -41.563636 
L 282.054762 -41.563636 
L 281.809343 -41.563636 
L 281.564313 -41.563636 
L 281.31967 -41.563636 
L 281.07541 -41.563636 
L 280.83153 -41.563636 
L 280.588028 -41.563636 
L 280.344902 -41.563636 
L 280.102147 -41.563636 
L 279.859762 -41.563636 
L 279.617743 -41.563636 
L 279.376088 -41.563636 
L 279.134794 -41.563636 
L 278.893858 -41.563636 
L 278.653278 -41.563636 
L 278.41305 -41.563636 
L 278.173173 -41.563636 
L 277.933643 -41.563636 
L 277.694458 -41.563636 
L 277.455615 -41.563636 
L 277.217112 -41.563636 
L 276.978945 -41.563636 
L 276.741113 -41.563636 
L 276.503613 -41.563636 
L 276.266441 -41.563636 
L 276.029596 -41.563636 
L 275.793075 -41.563636 
L 275.556875 -41.563636 
L 275.320994 -41.563636 
L 275.085429 -41.563636 
L 274.850178 -41.563636 
L 274.615238 -41.563636 
L 274.380607 -41.563636 
L 274.146282 -41.563636 
L 273.912261 -41.563636 
L 273.678541 -41.563636 
L 273.44512 -41.563636 
L 273.211996 -41.563636 
L 272.979165 -41.563636 
L 272.746626 -41.563636 
L 272.514377 -41.563636 
L 272.282414 -41.563636 
L 272.050735 -41.563636 
L 271.819338 -41.563636 
L 271.588221 -41.563636 
L 271.357382 -41.563636 
L 271.126817 -41.563636 
L 270.896525 -41.563636 
L 270.666503 -41.563636 
L 270.436749 -41.563636 
L 270.207261 -41.563636 
L 269.978036 -41.563636 
L 269.749072 -41.563636 
L 269.520367 -41.563636 
L 269.291919 -41.563636 
L 269.063725 -41.563636 
L 268.835782 -41.563636 
L 268.60809 -41.563636 
L 268.380645 -41.563636 
L 268.153446 -41.563636 
L 267.926489 -41.563636 
L 267.699774 -41.563636 
L 267.473297 -41.563636 
L 267.247056 -41.563636 
L 267.02105 -41.563636 
L 266.795276 -41.563636 
L 266.569732 -41.563636 
L 266.344416 -41.563636 
L 266.119326 -41.563636 
L 265.894459 -41.563636 
L 265.669814 -41.563636 
L 265.445388 -41.563636 
L 265.221179 -41.563636 
L 264.997185 -41.563636 
L 264.773404 -41.563636 
L 264.549834 -41.563636 
L 264.326472 -41.563636 
L 264.103318 -41.563636 
L 263.880368 -41.563636 
L 263.65762 -41.563636 
L 263.435073 -41.563636 
L 263.212725 -41.563636 
L 262.990573 -41.563636 
L 262.768615 -41.563636 
L 262.54685 -41.563636 
L 262.325274 -41.563636 
L 262.103888 -41.563636 
L 261.882687 -41.563636 
L 261.661671 -41.563636 
L 261.440837 -41.563636 
L 261.220183 -41.563636 
L 260.999707 -41.563636 
L 260.779408 -41.563636 
L 260.559283 -41.563636 
L 260.339331 -41.563636 
L 260.119549 -41.563636 
L 259.899935 -41.563636 
L 259.680488 -41.563636 
L 259.461205 -41.563636 
L 259.242085 -41.563636 
L 259.023126 -41.563636 
L 258.804325 -41.563636 
L 258.585682 -41.563636 
L 258.367193 -41.563636 
L 258.148857 -41.563636 
L 257.930672 -41.563636 
L 257.712636 -41.563636 
L 257.494748 -41.563636 
L 257.277005 -41.563636 
L 257.059405 -41.563636 
L 256.841947 -41.563636 
L 256.624629 -41.563636 
L 256.407448 -41.563636 
L 256.190404 -41.563636 
L 255.973494 -41.563636 
L 255.756715 -41.563636 
L 255.540068 -41.563636 
L 255.323549 -41.563636 
L 255.107156 -41.563636 
L 254.890888 -41.563636 
L 254.674744 -41.563636 
L 254.45872 -41.563636 
L 254.242816 -41.563636 
L 254.027029 -41.563636 
L 253.811359 -41.563636 
L 253.595801 -41.563636 
L 253.380356 -41.563636 
L 253.165022 -41.563636 
L 252.949795 -41.563636 
L 252.734675 -41.563636 
L 252.51966 -41.563636 
L 252.304748 -41.563636 
L 252.089938 -41.563636 
L 251.875226 -41.563636 
L 251.660613 -41.563636 
L 251.446095 -41.563636 
L 251.231671 -41.563636 
L 251.01734 -41.563636 
L 250.803099 -41.563636 
L 250.588947 -41.563636 
L 250.374881 -41.563636 
L 250.160901 -41.563636 
L 249.947005 -41.563636 
L 249.73319 -41.563636 
L 249.519455 -41.563636 
L 249.305798 -41.563636 
L 249.092217 -41.563636 
L 248.878712 -41.563636 
L 248.665279 -41.563636 
L 248.451917 -41.563636 
L 248.238625 -41.563636 
L 248.0254 -41.563636 
L 247.812241 -41.563636 
L 247.599147 -41.563636 
L 247.386115 -41.563636 
L 247.173143 -41.563636 
L 246.960231 -41.563636 
L 246.747376 -41.563636 
L 246.534576 -41.563636 
L 246.32183 -41.563636 
L 246.109136 -41.563636 
L 245.896493 -41.563636 
L 245.683898 -41.563636 
L 245.47135 -41.563636 
L 245.258848 -41.563636 
L 245.046389 -41.563636 
L 244.833971 -41.563636 
L 244.621594 -41.563636 
L 244.409255 -41.563636 
L 244.196952 -41.563636 
L 243.984684 -41.563636 
L 243.77245 -41.563636 
L 243.560247 -41.563636 
L 243.348074 -41.563636 
L 243.135929 -41.563636 
L 242.92381 -41.563636 
L 242.711716 -41.563636 
L 242.499645 -41.563636 
L 242.287596 -41.563636 
L 242.075565 -41.563636 
L 241.863553 -41.563636 
L 241.651557 -41.563636 
L 241.439575 -41.563636 
L 241.227606 -41.563636 
L 241.015648 -41.563636 
L 240.803699 -41.563636 
L 240.591758 -41.563636 
L 240.379823 -41.563636 
L 240.167892 -41.563636 
L 239.955964 -41.563636 
L 239.744036 -41.563636 
L 239.532108 -41.563636 
L 239.320177 -41.563636 
L 239.108242 -41.563636 
L 238.896301 -41.563636 
L 238.684352 -41.563636 
L 238.472394 -41.563636 
L 238.260425 -41.563636 
L 238.048443 -41.563636 
L 237.836447 -41.563636 
L 237.624435 -41.563636 
L 237.412404 -41.563636 
L 237.200355 -41.563636 
L 236.988284 -41.563636 
L 236.77619 -41.563636 
L 236.564071 -41.563636 
L 236.351926 -41.563636 
L 236.139753 -41.563636 
L 235.92755 -41.563636 
L 235.715316 -41.563636 
L 235.503048 -41.563636 
L 235.290745 -41.563636 
L 235.078406 -41.563636 
L 234.866029 -41.563636 
L 234.653611 -41.563636 
L 234.441152 -41.563636 
L 234.22865 -41.563636 
L 234.016102 -41.563636 
L 233.803507 -41.563636 
L 233.590864 -41.563636 
L 233.37817 -41.563636 
L 233.165424 -41.563636 
L 232.952624 -41.563636 
L 232.739769 -41.563636 
L 232.526857 -41.563636 
L 232.313885 -41.563636 
L 232.100853 -41.563636 
L 231.887759 -41.563636 
L 231.6746 -41.563636 
L 231.461375 -41.563636 
L 231.248083 -41.563636 
L 231.034721 -41.563636 
L 230.821288 -41.563636 
L 230.607783 -41.563636 
L 230.394202 -41.563636 
L 230.180545 -41.563636 
L 229.96681 -41.563636 
L 229.752995 -41.563636 
L 229.539099 -41.563636 
L 229.325119 -41.563636 
L 229.111053 -41.563636 
L 228.896901 -41.563636 
L 228.68266 -41.563636 
L 228.468329 -41.563636 
L 228.253905 -41.563636 
L 228.039387 -41.563636 
L 227.824774 -41.563636 
L 227.610062 -41.563636 
L 227.395252 -41.563636 
L 227.18034 -41.563636 
L 226.965325 -41.563636 
L 226.750205 -41.563636 
L 226.534978 -41.563636 
L 226.319644 -41.563636 
L 226.104199 -41.563636 
L 225.888641 -41.563636 
L 225.672971 -41.563636 
L 225.457184 -41.563636 
L 225.24128 -41.563636 
L 225.025256 -41.563636 
L 224.809112 -41.563636 
L 224.592844 -41.563636 
L 224.376451 -41.563636 
L 224.159932 -41.563636 
L 223.943285 -41.563636 
L 223.726506 -41.563636 
L 223.509596 -41.563636 
L 223.292552 -41.563636 
L 223.075371 -41.563636 
L 222.858053 -41.563636 
L 222.640595 -41.563636 
L 222.422995 -41.563636 
L 222.205252 -41.563636 
L 221.987364 -41.563636 
L 221.769328 -41.563636 
L 221.551143 -41.563636 
L 221.332807 -41.563636 
L 221.114318 -41.563636 
L 220.895675 -41.563636 
L 220.676874 -41.563636 
L 220.457915 -41.563636 
L 220.238795 -41.563636 
L 220.019512 -41.563636 
L 219.800065 -41.563636 
L 219.580451 -41.563636 
L 219.360669 -41.563636 
L 219.140717 -41.563636 
L 218.920592 -41.563636 
L 218.700293 -41.563636 
L 218.479817 -41.563636 
L 218.259163 -41.563636 
L 218.038329 -41.563636 
L 217.817313 -41.563636 
L 217.596112 -41.563636 
L 217.374726 -41.563636 
L 217.15315 -41.563636 
L 216.931385 -41.563636 
L 216.709427 -41.563636 
L 216.487275 -41.563636 
L 216.264927 -41.563636 
L 216.04238 -41.563636 
L 215.819632 -41.563636 
L 215.596682 -41.563636 
L 215.373528 -41.563636 
L 215.150166 -41.563636 
L 214.926596 -41.563636 
L 214.702815 -41.563636 
L 214.478821 -41.563636 
L 214.254612 -41.563636 
L 214.030186 -41.563636 
L 213.805541 -41.563636 
L 213.580674 -41.563636 
L 213.355584 -41.563636 
L 213.130268 -41.563636 
L 212.904724 -41.563636 
L 212.67895 -41.563636 
L 212.452944 -41.563636 
L 212.226703 -41.563636 
L 212.000226 -41.563636 
L 211.773511 -41.563636 
L 211.546554 -41.563636 
L 211.319355 -41.563636 
L 211.09191 -41.563636 
L 210.864218 -41.563636 
L 210.636275 -41.563636 
L 210.408081 -41.563636 
L 210.179633 -41.563636 
L 209.950928 -41.563636 
L 209.721964 -41.563636 
L 209.492739 -41.563636 
L 209.263251 -41.563636 
L 209.033497 -41.563636 
L 208.803475 -41.563636 
L 208.573183 -41.563636 
L 208.342618 -41.563636 
L 208.111779 -41.563636 
L 207.880662 -41.563636 
L 207.649265 -41.563636 
L 207.417586 -41.563636 
L 207.185623 -41.563636 
L 206.953374 -41.563636 
L 206.720835 -41.563636 
L 206.488004 -41.563636 
L 206.25488 -41.563636 
L 206.021459 -41.563636 
L 205.787739 -41.563636 
L 205.553718 -41.563636 
L 205.319393 -41.563636 
L 205.084762 -41.563636 
L 204.849822 -41.563636 
L 204.614571 -41.563636 
L 204.379006 -41.563636 
L 204.143125 -41.563636 
L 203.906925 -41.563636 
L 203.670404 -41.563636 
L 203.433559 -41.563636 
L 203.196387 -41.563636 
L 202.958887 -41.563636 
L 202.721055 -41.563636 
L 202.482888 -41.563636 
L 202.244385 -41.563636 
L 202.005542 -41.563636 
L 201.766357 -41.563636 
L 201.526827 -41.563636 
L 201.28695 -41.563636 
L 201.046722 -41.563636 
L 200.806142 -41.563636 
L 200.565206 -41.563636 
L 200.323912 -41.563636 
L 200.082257 -41.563636 
L 199.840238 -41.563636 
L 199.597853 -41.563636 
L 199.355098 -41.563636 
L 199.111972 -41.563636 
L 198.86847 -41.563636 
L 198.62459 -41.563636 
L 198.38033 -41.563636 
L 198.135687 -41.563636 
L 197.890657 -41.563636 
L 197.645238 -41.563636 
L 197.399427 -41.563636 
L 197.153221 -41.563636 
L 196.906617 -41.563636 
L 196.659612 -41.563636 
L 196.412203 -41.563636 
L 196.164387 -41.563636 
L 195.916162 -41.563636 
L 195.667524 -41.563636 
L 195.418469 -41.563636 
L 195.168996 -41.563636 
L 194.919101 -41.563636 
L 194.668781 -41.563636 
L 194.418033 -41.563636 
L 194.166854 -41.563636 
L 193.91524 -41.563636 
L 193.663188 -41.563636 
L 193.410696 -41.563636 
L 193.15776 -41.563636 
L 192.904377 -41.563636 
L 192.650543 -41.563636 
L 192.396256 -41.563636 
L 192.141512 -41.563636 
L 191.886308 -41.563636 
L 191.630641 -41.563636 
L 191.374507 -41.563636 
L 191.117902 -41.563636 
L 190.860825 -41.563636 
L 190.60327 -41.563636 
L 190.345236 -41.563636 
L 190.086717 -41.563636 
L 189.827712 -41.563636 
L 189.568216 -41.563636 
L 189.308226 -41.563636 
L 189.047739 -41.563636 
L 188.786751 -41.563636 
L 188.525258 -41.563636 
L 188.263256 -41.563636 
L 188.000744 -41.563636 
L 187.737715 -41.563636 
L 187.474168 -41.563636 
L 187.210099 -41.563636 
L 186.945503 -41.563636 
L 186.680376 -41.563636 
L 186.414717 -41.563636 
L 186.148519 -41.563636 
L 185.881781 -41.563636 
L 185.614497 -41.563636 
L 185.346665 -41.563636 
L 185.078279 -41.563636 
L 184.809338 -41.563636 
L 184.539835 -41.563636 
L 184.269769 -41.563636 
L 183.999134 -41.563636 
L 183.727926 -41.563636 
L 183.456143 -41.563636 
L 183.183779 -41.563636 
L 182.91083 -41.563636 
L 182.637293 -41.563636 
L 182.363164 -41.563636 
L 182.088437 -41.563636 
L 181.81311 -41.563636 
L 181.537178 -41.563636 
L 181.260637 -41.563636 
L 180.983482 -41.563636 
L 180.705709 -41.563636 
L 180.427314 -41.563636 
L 180.148293 -41.563636 
L 179.86864 -41.563636 
L 179.588353 -41.563636 
L 179.307426 -41.563636 
L 179.025855 -41.563636 
L 178.743636 -41.563636 
L 178.460763 -41.563636 
L 178.177233 -41.563636 
L 177.893041 -41.563636 
L 177.608182 -41.563636 
L 177.322651 -41.563636 
L 177.036444 -41.563636 
L 176.749557 -41.563636 
L 176.461984 -41.563636 
L 176.173721 -41.563636 
L 175.884762 -41.563636 
L 175.595104 -41.563636 
L 175.304741 -41.563636 
L 175.013668 -41.563636 
L 174.72188 -41.563636 
L 174.429372 -41.563636 
L 174.13614 -41.563636 
L 173.842179 -41.563636 
L 173.547482 -41.563636 
L 173.252045 -41.563636 
L 172.955863 -41.563636 
L 172.658931 -41.563636 
L 172.361243 -41.563636 
L 172.062795 -41.563636 
L 171.76358 -41.563636 
L 171.463593 -41.563636 
L 171.16283 -41.563636 
L 170.861284 -41.563636 
L 170.55895 -41.563636 
L 170.255823 -41.563636 
L 169.951897 -41.563636 
L 169.647166 -41.563636 
L 169.341625 -41.563636 
L 169.035268 -41.563636 
L 168.728089 -41.563636 
L 168.420083 -41.563636 
L 168.111244 -41.563636 
L 167.801565 -41.563636 
L 167.491042 -41.563636 
L 167.179667 -41.563636 
L 166.867435 -41.563636 
L 166.55434 -41.563636 
L 166.240376 -41.563636 
L 165.925537 -41.563636 
L 165.609815 -41.563636 
L 165.293207 -41.563636 
L 164.975704 -41.563636 
L 164.6573 -41.563636 
L 164.33799 -41.563636 
L 164.017766 -41.563636 
L 163.696623 -41.563636 
L 163.374553 -41.563636 
L 163.05155 -41.563636 
L 162.727607 -41.563636 
L 162.402719 -41.563636 
L 162.076877 -41.563636 
L 161.750075 -41.563636 
L 161.422306 -41.563636 
L 161.093564 -41.563636 
L 160.76384 -41.563636 
L 160.433129 -41.563636 
L 160.101423 -41.563636 
L 159.768715 -41.563636 
L 159.434998 -41.563636 
L 159.100264 -41.563636 
L 158.764506 -41.563636 
L 158.427717 -41.563636 
L 158.089888 -41.563636 
L 157.751014 -41.563636 
L 157.411086 -41.563636 
L 157.070095 -41.563636 
L 156.728036 -41.563636 
L 156.3849 -41.563636 
L 156.040678 -41.563636 
L 155.695364 -41.563636 
L 155.348948 -41.563636 
L 155.001424 -41.563636 
L 154.652782 -41.563636 
L 154.303015 -41.563636 
L 153.952115 -41.563636 
L 153.600073 -41.563636 
L 153.24688 -41.563636 
L 152.892528 -41.563636 
L 152.537009 -41.563636 
L 152.180314 -41.563636 
L 151.822434 -41.563636 
L 151.463361 -41.563636 
L 151.103085 -41.563636 
L 150.741598 -41.563636 
L 150.37889 -41.563636 
L 150.014953 -41.563636 
L 149.649776 -41.563636 
L 149.283352 -41.563636 
L 148.915671 -41.563636 
L 148.546723 -41.563636 
L 148.176498 -41.563636 
L 147.804987 -41.563636 
L 147.432181 -41.563636 
L 147.058069 -41.563636 
L 146.682642 -41.563636 
L 146.305889 -41.563636 
L 145.927801 -41.563636 
L 145.548368 -41.563636 
L 145.167579 -41.563636 
L 144.785423 -41.563636 
L 144.401891 -41.563636 
L 144.016972 -41.563636 
L 143.630655 -41.563636 
L 143.242929 -41.563636 
L 142.853784 -41.563636 
L 142.463209 -41.563636 
L 142.071192 -41.563636 
L 141.677723 -41.563636 
L 141.28279 -41.563636 
L 140.886381 -41.563636 
L 140.488487 -41.563636 
L 140.089094 -41.563636 
L 139.688191 -41.563636 
L 139.285766 -41.563636 
L 138.881807 -41.563636 
L 138.476303 -41.563636 
L 138.069242 -41.563636 
L 137.660609 -41.563636 
L 137.250395 -41.563636 
L 136.838585 -41.563636 
L 136.425168 -41.563636 
L 136.01013 -41.563636 
L 135.593459 -41.563636 
L 135.175142 -41.563636 
L 134.755165 -41.563636 
L 134.333515 -41.563636 
L 133.910179 -41.563636 
L 133.485143 -41.563636 
L 133.058394 -41.563636 
L 132.629918 -41.563636 
L 132.1997 -41.563636 
L 131.767727 -41.563636 
L 131.333984 -41.563636 
L 130.898458 -41.563636 
L 130.461132 -41.563636 
L 130.021994 -41.563636 
L 129.581028 -41.563636 
L 129.138218 -41.563636 
L 128.693551 -41.563636 
L 128.247009 -41.563636 
L 127.798579 -41.563636 
L 127.348244 -41.563636 
L 126.895989 -41.563636 
L 126.441798 -41.563636 
L 125.985654 -41.563636 
L 125.527541 -41.563636 
L 125.067443 -41.563636 
L 124.605343 -41.563636 
L 124.141224 -41.563636 
L 123.67507 -41.563636 
L 123.206863 -41.563636 
L 122.736585 -41.563636 
L 122.264219 -41.563636 
L 121.789748 -41.563636 
L 121.313154 -41.563636 
L 120.834418 -41.563636 
L 120.353522 -41.563636 
L 119.870447 -41.563636 
L 119.385175 -41.563636 
L 118.897687 -41.563636 
L 118.407963 -41.563636 
L 117.915985 -41.563636 
L 117.421732 -41.563636 
L 116.925186 -41.563636 
L 116.426325 -41.563636 
L 115.92513 -41.563636 
L 115.42158 -41.563636 
L 114.915655 -41.563636 
L 114.407333 -41.563636 
L 113.896594 -41.563636 
L 113.383415 -41.563636 
L 112.867776 -41.563636 
L 112.349654 -41.563636 
L 111.829028 -41.563636 
L 111.305874 -41.563636 
L 110.78017 -41.563636 
L 110.251894 -41.563636 
L 109.721022 -41.563636 
L 109.18753 -41.563636 
L 108.651395 -41.563636 
L 108.112593 -41.563636 
L 107.5711 -41.563636 
L 107.02689 -41.563636 
L 106.47994 -41.563636 
L 105.930223 -41.563636 
L 105.377715 -41.563636 
L 104.822389 -41.563636 
L 104.26422 -41.563636 
L 103.70318 -41.563636 
L 103.139245 -41.563636 
L 102.572385 -41.563636 
L 102.002575 -41.563636 
L 101.429785 -41.563636 
L 100.853989 -41.563636 
L 100.275158 -41.563636 
L 99.693263 -41.563636 
L 99.108274 -41.563636 
L 98.520164 -41.563636 
L 97.928901 -41.563636 
L 97.334455 -41.563636 
L 96.736796 -41.563636 
L 96.135894 -41.563636 
L 95.531716 -41.563636 
L 94.924231 -41.563636 
L 94.313407 -41.563636 
L 93.69921 -41.563636 
L 93.08161 -41.563636 
L 92.460571 -41.563636 
L 91.83606 -41.563636 
L 91.208043 -41.563636 
L 90.576485 -41.563636 
L 89.941351 -41.563636 
L 89.302606 -41.563636 
L 88.660213 -41.563636 
L 88.014136 -41.563636 
L 87.364337 -41.563636 
L 86.71078 -41.563636 
L 86.053427 -41.563636 
L 85.392238 -41.563636 
L 84.727175 -41.563636 
L 84.058198 -41.563636 
L 83.385267 -41.563636 
L 82.708343 -41.563636 
L 82.027382 -41.563636 
L 81.342345 -41.563636 
L 80.653188 -41.563636 
L 79.959868 -41.563636 
L 79.262343 -41.563636 
L 78.560568 -41.563636 
L 77.854499 -41.563636 
L 77.14409 -41.563636 
L 76.429296 -41.563636 
L 75.710069 -41.563636 
L 74.986364 -41.563636 
z
" style="stroke: #000000; stroke-opacity: 0.1; stroke-width: 0.5"/>
    </defs>
    <g clip-path="url(#p6494d6d74c)">
     <use xlink:href="#m47ced0c949" x="0" y="180" style="fill-opacity: 0.1; stroke: #000000; stroke-opacity: 0.1; stroke-width: 0.5"/>
    </g>
   </g>
   <g id="line2d_27">
    <path d="M 74.986364 135.177886 
L 82.708343 134.963052 
L 107.02689 134.11403 
L 129.138218 133.12202 
L 150.37889 131.945769 
L 175.013668 130.344621 
L 181.537178 129.899561 
L 181.81311 132.019658 
L 182.363164 52.505621 
L 193.15776 45.286469 
L 199.840238 41.072261 
L 205.319393 37.86491 
L 210.179633 35.26842 
L 214.702815 33.107576 
L 218.700293 31.434781 
L 222.640595 30.028682 
L 226.319644 28.95218 
L 229.96681 28.125073 
L 233.37817 27.577887 
L 236.77619 27.257267 
L 240.167892 27.164528 
L 243.560247 27.300052 
L 246.960231 27.663281 
L 250.374881 28.252726 
L 253.811359 29.065969 
L 257.494748 30.171506 
L 261.220183 31.520792 
L 265.221179 33.208161 
L 269.520367 35.26842 
L 274.146282 37.733913 
L 279.376088 40.77891 
L 285.533146 44.633256 
L 293.551481 49.938687 
L 297.336836 52.505621 
L 297.88689 132.019658 
L 298.162822 129.899561 
L 333.017358 132.166109 
L 354.172459 133.299898 
L 375.99682 134.243952 
L 399.740132 135.04536 
L 404.713636 135.177886 
L 404.713636 135.177886 
" clip-path="url(#p6494d6d74c)" style="fill: none; stroke: #000000; stroke-width: 0.7; stroke-linecap: square"/>
   </g>
   <g id="patch_3">
    <path d="M 58.5 144 
L 58.5 21.6 
" style="fill: none; stroke: #000000; stroke-width: 0.5; stroke-linejoin: miter; stroke-linecap: square"/>
   </g>
   <g id="patch_4">
    <path d="M 58.5 144 
L 421.2 144 
" style="fill: none; stroke: #000000; stroke-width: 0.5; stroke-linejoin: miter; stroke-linecap: square"/>
   </g>
  </g>
 </g>
 <defs>
  <clipPath id="p6494d6d74c">
   <rect x="58.5" y="21.6" width="362.7" height="122.4"/>
  </clipPath>
 </defs>
</svg>
