<?xml version="1.0" encoding="utf-8" standalone="no"?>
<!DOCTYPE svg PUBLIC "-//W3C//DTD SVG 1.1//EN"
  "http://www.w3.org/Graphics/SVG/1.1/DTD/svg11.dtd">
<svg xmlns:xlink="http://www.w3.org/1999/xlink" width="468pt" height="180pt" viewBox="0 0 468 180" xmlns="http://www.w3.org/2000/svg" version="1.1">
 <metadata>
  <rdf:RDF xmlns:dc="http://purl.org/dc/elements/1.1/" xmlns:cc="http://creativecommons.org/ns#" xmlns:rdf="http://www.w3.org/1999/02/22-rdf-syntax-ns#">
   <cc:Work>
    <dc:type rdf:resource="http://purl.org/dc/dcmitype/StillImage"/>
    <dc:date>2024-04-30T13:54:57.467177</dc:date>
    <dc:format>image/svg+xml</dc:format>
    <dc:creator>
     <cc:Agent>
      <dc:title>Matplotlib v3.8.3, https://matplotlib.org/</dc:title>
     </cc:Agent>
    </dc:creator>
   </cc:Work>
  </rdf:RDF>
 </metadata>
 <defs>
  <style type="text/css">*{stroke-linejoin: round; stroke-linecap: butt}</style>
 </defs>
 <g id="figure_1">
  <g id="patch_1">
   <path d="M 0 180 
L 468 180 
L 468 0 
L 0 0 
z
" style="fill: #ffffff"/>
  </g>
  <g id="axes_1">
   <g id="patch_2">
    <path d="M 58.5 144 
L 421.2 144 
L 421.2 21.6 
L 58.5 21.6 
z
" style="fill: #ffffff"/>
   </g>
   <g id="matplotlib.axis_1">
    <g id="xtick_1">
     <g id="line2d_1">
      <path d="M 81.063415 144 
L 81.063415 21.6 
" clip-path="url(#pe604f5c624)" style="fill: none; stroke: #d3d3d3; stroke-width: 0.2; stroke-linecap: square"/>
     </g>
     <g id="line2d_2">
      <defs>
       <path id="m9ea1f4d655" d="M 0 0 
L 0 -3.5 
" style="stroke: #000000; stroke-width: 0.8"/>
      </defs>
      <g>
       <use xlink:href="#m9ea1f4d655" x="81.063415" y="144" style="stroke: #000000; stroke-width: 0.8"/>
      </g>
     </g>
     <g id="text_1">
      <!-- $\mathdefault{−0.3}$ -->
      <g transform="translate(70.824003 154.418498) scale(0.1 -0.1)">
       <defs>
        <path id="CMSY10-0" d="M 4218 1472 
C 4326 1472 4442 1472 4442 1600 
C 4442 1728 4326 1728 4218 1728 
L 755 1728 
C 646 1728 531 1728 531 1600 
C 531 1472 646 1472 755 1472 
L 4218 1472 
z
" transform="scale(0.015625)"/>
        <path id="CMR17-30" d="M 2688 2025 
C 2688 2416 2682 3080 2413 3591 
C 2176 4039 1798 4198 1466 4198 
C 1158 4198 768 4058 525 3597 
C 269 3118 243 2524 243 2025 
C 243 1661 250 1106 448 619 
C 723 -39 1216 -128 1466 -128 
C 1760 -128 2208 -7 2470 600 
C 2662 1042 2688 1559 2688 2025 
z
M 1466 -26 
C 1056 -26 813 325 723 812 
C 653 1188 653 1738 653 2096 
C 653 2588 653 2997 736 3387 
C 858 3929 1216 4096 1466 4096 
C 1728 4096 2067 3923 2189 3400 
C 2272 3036 2278 2607 2278 2096 
C 2278 1680 2278 1169 2202 792 
C 2067 95 1690 -26 1466 -26 
z
" transform="scale(0.015625)"/>
        <path id="CMMI12-3a" d="M 1178 307 
C 1178 492 1024 619 870 619 
C 685 619 557 466 557 313 
C 557 128 710 0 864 0 
C 1050 0 1178 153 1178 307 
z
" transform="scale(0.015625)"/>
        <path id="CMR17-33" d="M 1414 2157 
C 1984 2157 2234 1662 2234 1090 
C 2234 320 1824 25 1453 25 
C 1114 25 563 194 390 693 
C 422 680 454 680 486 680 
C 640 680 755 782 755 948 
C 755 1133 614 1216 486 1216 
C 378 1216 211 1165 211 926 
C 211 335 787 -128 1466 -128 
C 2176 -128 2720 430 2720 1085 
C 2720 1707 2208 2157 1600 2227 
C 2086 2328 2554 2756 2554 3329 
C 2554 3820 2048 4179 1472 4179 
C 890 4179 378 3829 378 3329 
C 378 3110 544 3072 627 3072 
C 762 3072 877 3155 877 3321 
C 877 3486 762 3569 627 3569 
C 602 3569 570 3569 544 3557 
C 730 3959 1235 4032 1459 4032 
C 1683 4032 2106 3925 2106 3320 
C 2106 3143 2080 2828 1862 2550 
C 1670 2304 1453 2304 1242 2284 
C 1210 2284 1062 2269 1037 2269 
C 992 2263 966 2257 966 2208 
C 966 2163 973 2157 1101 2157 
L 1414 2157 
z
" transform="scale(0.015625)"/>
       </defs>
       <use xlink:href="#CMSY10-0" transform="scale(0.996264)"/>
       <use xlink:href="#CMR17-30" transform="translate(77.487468 0) scale(0.996264)"/>
       <use xlink:href="#CMMI12-3a" transform="translate(123.177945 0) scale(0.996264)"/>
       <use xlink:href="#CMR17-33" transform="translate(150.275122 0) scale(0.996264)"/>
      </g>
     </g>
    </g>
    <g id="xtick_2">
     <g id="line2d_3">
      <path d="M 133.992276 144 
L 133.992276 21.6 
" clip-path="url(#pe604f5c624)" style="fill: none; stroke: #d3d3d3; stroke-width: 0.2; stroke-linecap: square"/>
     </g>
     <g id="line2d_4">
      <g>
       <use xlink:href="#m9ea1f4d655" x="133.992276" y="144" style="stroke: #000000; stroke-width: 0.8"/>
      </g>
     </g>
     <g id="text_2">
      <!-- $\mathdefault{−0.2}$ -->
      <g transform="translate(123.752865 154.418498) scale(0.1 -0.1)">
       <defs>
        <path id="CMR17-32" d="M 2669 989 
L 2554 989 
C 2490 536 2438 459 2413 420 
C 2381 369 1920 369 1830 369 
L 602 369 
C 832 619 1280 1072 1824 1597 
C 2214 1967 2669 2402 2669 3035 
C 2669 3790 2067 4224 1395 4224 
C 691 4224 262 3604 262 3030 
C 262 2780 448 2748 525 2748 
C 589 2748 781 2787 781 3010 
C 781 3207 614 3264 525 3264 
C 486 3264 448 3258 422 3245 
C 544 3790 915 4058 1306 4058 
C 1862 4058 2227 3617 2227 3035 
C 2227 2479 1901 2000 1536 1584 
L 262 146 
L 262 0 
L 2515 0 
L 2669 989 
z
" transform="scale(0.015625)"/>
       </defs>
       <use xlink:href="#CMSY10-0" transform="scale(0.996264)"/>
       <use xlink:href="#CMR17-30" transform="translate(77.487468 0) scale(0.996264)"/>
       <use xlink:href="#CMMI12-3a" transform="translate(123.177945 0) scale(0.996264)"/>
       <use xlink:href="#CMR17-32" transform="translate(150.275122 0) scale(0.996264)"/>
      </g>
     </g>
    </g>
    <g id="xtick_3">
     <g id="line2d_5">
      <path d="M 186.921138 144 
L 186.921138 21.6 
" clip-path="url(#pe604f5c624)" style="fill: none; stroke: #d3d3d3; stroke-width: 0.2; stroke-linecap: square"/>
     </g>
     <g id="line2d_6">
      <g>
       <use xlink:href="#m9ea1f4d655" x="186.921138" y="144" style="stroke: #000000; stroke-width: 0.8"/>
      </g>
     </g>
     <g id="text_3">
      <!-- $\mathdefault{−0.1}$ -->
      <g transform="translate(176.681727 154.418498) scale(0.1 -0.1)">
       <defs>
        <path id="CMR17-31" d="M 1702 4058 
C 1702 4192 1696 4192 1606 4192 
C 1357 3916 979 3827 621 3827 
C 602 3827 570 3827 563 3808 
C 557 3795 557 3782 557 3648 
C 755 3648 1088 3686 1344 3839 
L 1344 461 
C 1344 236 1331 160 781 160 
L 589 160 
L 589 0 
C 896 0 1216 0 1523 0 
C 1830 0 2150 0 2458 0 
L 2458 160 
L 2266 160 
C 1715 160 1702 230 1702 458 
L 1702 4058 
z
" transform="scale(0.015625)"/>
       </defs>
       <use xlink:href="#CMSY10-0" transform="scale(0.996264)"/>
       <use xlink:href="#CMR17-30" transform="translate(77.487468 0) scale(0.996264)"/>
       <use xlink:href="#CMMI12-3a" transform="translate(123.177945 0) scale(0.996264)"/>
       <use xlink:href="#CMR17-31" transform="translate(150.275122 0) scale(0.996264)"/>
      </g>
     </g>
    </g>
    <g id="xtick_4">
     <g id="line2d_7">
      <path d="M 239.85 144 
L 239.85 21.6 
" clip-path="url(#pe604f5c624)" style="fill: none; stroke: #d3d3d3; stroke-width: 0.2; stroke-linecap: square"/>
     </g>
     <g id="line2d_8">
      <g>
       <use xlink:href="#m9ea1f4d655" x="239.85" y="144" style="stroke: #000000; stroke-width: 0.8"/>
      </g>
     </g>
     <g id="text_4">
      <!-- $\mathdefault{0.0}$ -->
      <g transform="translate(233.484961 154.418498) scale(0.1 -0.1)">
       <use xlink:href="#CMR17-30" transform="scale(0.996264)"/>
       <use xlink:href="#CMMI12-3a" transform="translate(45.690477 0) scale(0.996264)"/>
       <use xlink:href="#CMR17-30" transform="translate(72.787654 0) scale(0.996264)"/>
      </g>
     </g>
    </g>
    <g id="xtick_5">
     <g id="line2d_9">
      <path d="M 292.778862 144 
L 292.778862 21.6 
" clip-path="url(#pe604f5c624)" style="fill: none; stroke: #d3d3d3; stroke-width: 0.2; stroke-linecap: square"/>
     </g>
     <g id="line2d_10">
      <g>
       <use xlink:href="#m9ea1f4d655" x="292.778862" y="144" style="stroke: #000000; stroke-width: 0.8"/>
      </g>
     </g>
     <g id="text_5">
      <!-- $\mathdefault{0.1}$ -->
      <g transform="translate(286.413822 154.418498) scale(0.1 -0.1)">
       <use xlink:href="#CMR17-30" transform="scale(0.996264)"/>
       <use xlink:href="#CMMI12-3a" transform="translate(45.690477 0) scale(0.996264)"/>
       <use xlink:href="#CMR17-31" transform="translate(72.787654 0) scale(0.996264)"/>
      </g>
     </g>
    </g>
    <g id="xtick_6">
     <g id="line2d_11">
      <path d="M 345.707724 144 
L 345.707724 21.6 
" clip-path="url(#pe604f5c624)" style="fill: none; stroke: #d3d3d3; stroke-width: 0.2; stroke-linecap: square"/>
     </g>
     <g id="line2d_12">
      <g>
       <use xlink:href="#m9ea1f4d655" x="345.707724" y="144" style="stroke: #000000; stroke-width: 0.8"/>
      </g>
     </g>
     <g id="text_6">
      <!-- $\mathdefault{0.2}$ -->
      <g transform="translate(339.342684 154.418498) scale(0.1 -0.1)">
       <use xlink:href="#CMR17-30" transform="scale(0.996264)"/>
       <use xlink:href="#CMMI12-3a" transform="translate(45.690477 0) scale(0.996264)"/>
       <use xlink:href="#CMR17-32" transform="translate(72.787654 0) scale(0.996264)"/>
      </g>
     </g>
    </g>
    <g id="xtick_7">
     <g id="line2d_13">
      <path d="M 398.636585 144 
L 398.636585 21.6 
" clip-path="url(#pe604f5c624)" style="fill: none; stroke: #d3d3d3; stroke-width: 0.2; stroke-linecap: square"/>
     </g>
     <g id="line2d_14">
      <g>
       <use xlink:href="#m9ea1f4d655" x="398.636585" y="144" style="stroke: #000000; stroke-width: 0.8"/>
      </g>
     </g>
     <g id="text_7">
      <!-- $\mathdefault{0.3}$ -->
      <g transform="translate(392.271546 154.418498) scale(0.1 -0.1)">
       <use xlink:href="#CMR17-30" transform="scale(0.996264)"/>
       <use xlink:href="#CMMI12-3a" transform="translate(45.690477 0) scale(0.996264)"/>
       <use xlink:href="#CMR17-33" transform="translate(72.787654 0) scale(0.996264)"/>
      </g>
     </g>
    </g>
    <g id="text_8">
     <!-- $u$ [m] -->
     <g transform="translate(226.43863 169.322053) scale(0.12 -0.12)">
      <defs>
       <path id="CMMI12-75" d="M 2182 370 
C 2266 13 2573 -64 2726 -64 
C 2931 -64 3085 70 3187 287 
C 3296 517 3379 894 3379 913 
C 3379 945 3354 971 3315 971 
C 3258 971 3251 939 3226 843 
C 3110 402 2995 64 2739 64 
C 2547 64 2547 275 2547 358 
C 2547 505 2566 568 2630 837 
C 2675 1009 2720 1181 2758 1360 
L 3021 2401 
C 3066 2561 3066 2574 3066 2593 
C 3066 2689 2989 2753 2893 2753 
C 2707 2753 2662 2593 2624 2433 
C 2560 2184 2214 811 2170 588 
C 2163 588 1914 64 1446 64 
C 1114 64 1050 351 1050 588 
C 1050 952 1229 1462 1395 1890 
C 1472 2095 1504 2178 1504 2305 
C 1504 2580 1306 2816 998 2816 
C 410 2816 173 1890 173 1839 
C 173 1814 198 1782 243 1782 
C 301 1782 307 1807 333 1896 
C 486 2441 736 2682 979 2682 
C 1043 2682 1146 2682 1146 2478 
C 1146 2312 1075 2127 979 1884 
C 698 1124 666 881 666 690 
C 666 38 1158 -64 1421 -64 
C 1830 -64 2054 217 2182 370 
z
" transform="scale(0.015625)"/>
       <path id="CMR17-5b" d="M 1504 -1600 
L 1504 -1377 
L 902 -1377 
L 902 4544 
L 1504 4544 
L 1504 4767 
L 678 4767 
L 678 -1600 
L 1504 -1600 
z
" transform="scale(0.015625)"/>
       <path id="CMR17-6d" d="M 4326 1933 
C 4326 2252 4269 2790 3507 2790 
C 3072 2790 2771 2496 2656 2151 
L 2650 2151 
C 2573 2676 2195 2790 1837 2790 
C 1331 2790 1069 2400 973 2144 
L 966 2144 
L 966 2790 
L 211 2720 
L 211 2554 
C 589 2554 646 2515 646 2208 
L 646 428 
C 646 184 621 153 211 153 
L 211 -13 
C 365 0 646 0 813 0 
C 979 0 1267 0 1421 -13 
L 1421 153 
C 1011 153 986 178 986 428 
L 986 1658 
C 986 2247 1344 2688 1792 2688 
C 2266 2688 2317 2266 2317 1958 
L 2317 428 
C 2317 184 2291 153 1882 153 
L 1882 -13 
C 2035 0 2317 0 2483 0 
C 2650 0 2938 0 3091 -13 
L 3091 153 
C 2682 153 2656 178 2656 428 
L 2656 1658 
C 2656 2247 3014 2688 3462 2688 
C 3936 2688 3987 2266 3987 1958 
L 3987 428 
C 3987 184 3962 153 3552 153 
L 3552 -13 
C 3706 0 3987 0 4154 0 
C 4320 0 4608 0 4762 -13 
L 4762 153 
C 4352 153 4326 178 4326 428 
L 4326 1933 
z
" transform="scale(0.015625)"/>
       <path id="CMR17-5d" d="M 915 4767 
L 90 4767 
L 90 4544 
L 691 4544 
L 691 -1377 
L 90 -1377 
L 90 -1600 
L 915 -1600 
L 915 4767 
z
" transform="scale(0.015625)"/>
      </defs>
      <use xlink:href="#CMMI12-75" transform="scale(0.996264)"/>
      <use xlink:href="#CMR17-5b" transform="translate(85.596296 0) scale(0.996264)"/>
      <use xlink:href="#CMR17-6d" transform="translate(110.467354 0) scale(0.996264)"/>
      <use xlink:href="#CMR17-5d" transform="translate(187.386944 0) scale(0.996264)"/>
     </g>
    </g>
   </g>
   <g id="matplotlib.axis_2">
    <g id="ytick_1">
     <g id="line2d_15">
      <path d="M 58.5 123.303354 
L 421.2 123.303354 
" clip-path="url(#pe604f5c624)" style="fill: none; stroke: #d3d3d3; stroke-width: 0.2; stroke-linecap: square"/>
     </g>
     <g id="line2d_16">
      <defs>
       <path id="m0fb3010670" d="M 0 0 
L 3.5 0 
" style="stroke: #000000; stroke-width: 0.8"/>
      </defs>
      <g>
       <use xlink:href="#m0fb3010670" x="58.5" y="123.303354" style="stroke: #000000; stroke-width: 0.8"/>
      </g>
     </g>
     <g id="text_9">
      <!-- $\mathdefault{−100}$ -->
      <g transform="translate(32.307251 126.762603) scale(0.1 -0.1)">
       <use xlink:href="#CMSY10-0" transform="scale(0.996264)"/>
       <use xlink:href="#CMR17-31" transform="translate(77.487468 0) scale(0.996264)"/>
       <use xlink:href="#CMR17-30" transform="translate(123.177945 0) scale(0.996264)"/>
       <use xlink:href="#CMR17-30" transform="translate(168.868422 0) scale(0.996264)"/>
      </g>
     </g>
    </g>
    <g id="ytick_2">
     <g id="line2d_17">
      <path d="M 58.5 82.8 
L 421.2 82.8 
" clip-path="url(#pe604f5c624)" style="fill: none; stroke: #d3d3d3; stroke-width: 0.2; stroke-linecap: square"/>
     </g>
     <g id="line2d_18">
      <g>
       <use xlink:href="#m0fb3010670" x="58.5" y="82.8" style="stroke: #000000; stroke-width: 0.8"/>
      </g>
     </g>
     <g id="text_10">
      <!-- $\mathdefault{0}$ -->
      <g transform="translate(50.018665 86.259249) scale(0.1 -0.1)">
       <use xlink:href="#CMR17-30" transform="scale(0.996264)"/>
      </g>
     </g>
    </g>
    <g id="ytick_3">
     <g id="line2d_19">
      <path d="M 58.5 42.296646 
L 421.2 42.296646 
" clip-path="url(#pe604f5c624)" style="fill: none; stroke: #d3d3d3; stroke-width: 0.2; stroke-linecap: square"/>
     </g>
     <g id="line2d_20">
      <g>
       <use xlink:href="#m0fb3010670" x="58.5" y="42.296646" style="stroke: #000000; stroke-width: 0.8"/>
      </g>
     </g>
     <g id="text_11">
      <!-- $\mathdefault{100}$ -->
      <g transform="translate(40.055994 45.755895) scale(0.1 -0.1)">
       <use xlink:href="#CMR17-31" transform="scale(0.996264)"/>
       <use xlink:href="#CMR17-30" transform="translate(45.690477 0) scale(0.996264)"/>
       <use xlink:href="#CMR17-30" transform="translate(91.380954 0) scale(0.996264)"/>
      </g>
     </g>
    </g>
    <g id="text_12">
     <!-- $F$ [kN] -->
     <g transform="translate(25.318458 100.081211) rotate(-90) scale(0.12 -0.12)">
      <defs>
       <path id="CMMI12-46" d="M 1901 2055 
L 2515 2055 
C 3002 2055 3040 1946 3040 1761 
C 3040 1678 3027 1589 2995 1448 
C 2982 1423 2976 1391 2976 1378 
C 2976 1333 3002 1308 3046 1308 
C 3098 1308 3104 1333 3130 1435 
L 3501 2935 
C 3501 2961 3482 2999 3437 2999 
C 3379 2999 3373 2974 3347 2863 
C 3213 2376 3085 2240 2528 2240 
L 1946 2240 
L 2362 3926 
C 2419 4154 2432 4154 2694 4154 
L 3552 4154 
C 4352 4154 4467 3918 4467 3464 
C 4467 3426 4467 3285 4448 3119 
C 4442 3094 4429 3011 4429 2985 
C 4429 2934 4461 2915 4499 2915 
C 4544 2915 4570 2941 4582 3055 
L 4717 4174 
C 4717 4195 4730 4263 4730 4277 
C 4730 4352 4672 4352 4557 4352 
L 1523 4352 
C 1402 4352 1338 4352 1338 4229 
C 1338 4154 1382 4154 1491 4154 
C 1888 4154 1888 4113 1888 4050 
C 1888 4018 1882 3992 1862 3922 
L 998 473 
C 941 249 928 185 480 185 
C 358 185 294 185 294 70 
C 294 0 352 0 390 0 
C 512 0 640 0 762 0 
L 1594 0 
C 1734 0 1888 0 2029 0 
C 2086 0 2163 0 2163 115 
C 2163 185 2125 185 1984 185 
C 1478 185 1466 229 1466 324 
C 1466 356 1478 406 1491 449 
L 1901 2055 
z
" transform="scale(0.015625)"/>
       <path id="CMR17-6b" d="M 1670 1673 
C 1664 1686 1632 1724 1632 1743 
C 1632 1756 2086 2171 2144 2222 
C 2509 2528 2739 2560 2906 2560 
L 2906 2733 
C 2867 2733 2854 2733 2848 2720 
L 2534 2720 
C 2355 2720 2080 2720 1907 2733 
L 1907 2566 
C 1997 2559 2061 2508 2061 2419 
C 2061 2291 1933 2170 1926 2170 
L 960 1289 
L 960 4396 
L 198 4326 
L 198 4160 
C 576 4160 634 4122 634 3817 
L 634 426 
C 634 184 608 153 198 153 
L 198 -13 
C 352 0 634 0 794 0 
C 954 0 1235 0 1389 -13 
L 1389 153 
C 979 153 954 178 954 428 
L 954 1130 
L 1395 1532 
L 2042 574 
C 2118 459 2182 369 2182 286 
C 2182 172 2067 153 1990 153 
L 1990 -13 
C 2144 0 2419 0 2579 0 
C 2694 0 2931 0 3040 0 
L 3040 153 
C 2739 153 2669 210 2477 491 
L 1670 1673 
z
" transform="scale(0.015625)"/>
       <path id="CMR17-4e" d="M 1312 4250 
C 1267 4320 1261 4320 1139 4320 
L 326 4320 
L 326 4160 
L 448 4160 
C 704 4160 819 4129 838 4122 
L 838 610 
C 838 451 838 153 326 153 
L 326 -13 
C 474 0 742 0 902 0 
C 1062 0 1331 0 1478 -13 
L 1478 153 
C 966 153 966 451 966 610 
L 966 4033 
C 1011 3995 1011 3982 1056 3919 
L 3430 76 
C 3475 0 3494 0 3526 0 
C 3590 0 3590 19 3590 139 
L 3590 3705 
C 3590 3863 3590 4160 4102 4160 
L 4102 4326 
C 3955 4320 3686 4320 3526 4320 
C 3366 4320 3098 4320 2950 4326 
L 2950 4160 
C 3462 4160 3462 3862 3462 3703 
L 3462 763 
L 1312 4250 
z
" transform="scale(0.015625)"/>
      </defs>
      <use xlink:href="#CMMI12-46" transform="scale(0.996264)"/>
      <use xlink:href="#CMR17-5b" transform="translate(106.772759 0) scale(0.996264)"/>
      <use xlink:href="#CMR17-6b" transform="translate(131.643817 0) scale(0.996264)"/>
      <use xlink:href="#CMR17-4e" transform="translate(179.936733 0) scale(0.996264)"/>
      <use xlink:href="#CMR17-5d" transform="translate(249.009163 0) scale(0.996264)"/>
     </g>
    </g>
   </g>
   <g id="PolyCollection_1">
    <defs>
     <path id="ma1c8d650bf" d="M 74.986364 -97.2 
L 74.986364 -41.563636 
L 75.710069 -41.583908 
L 76.429296 -41.60418 
L 77.14409 -41.624452 
L 77.854499 -41.644724 
L 78.560568 -41.664996 
L 79.262343 -41.685268 
L 79.959868 -41.70554 
L 80.653188 -41.725812 
L 81.342345 -41.746084 
L 82.027382 -41.766356 
L 82.708343 -41.786628 
L 83.385267 -41.8069 
L 84.058198 -41.827172 
L 84.727175 -41.847444 
L 85.392238 -41.867716 
L 86.053427 -41.887988 
L 86.71078 -41.908259 
L 87.364337 -41.928531 
L 88.014136 -41.948803 
L 88.660213 -41.969075 
L 89.302606 -41.989347 
L 89.941351 -42.009619 
L 90.576485 -42.029891 
L 91.208043 -42.050163 
L 91.83606 -42.070435 
L 92.460571 -42.090707 
L 93.08161 -42.110979 
L 93.69921 -42.131251 
L 94.313407 -42.151523 
L 94.924231 -42.171795 
L 95.531716 -42.192067 
L 96.135894 -42.212339 
L 96.736796 -42.232611 
L 97.334455 -42.252883 
L 97.928901 -42.273155 
L 98.520164 -42.293427 
L 99.108274 -42.313698 
L 99.693263 -42.33397 
L 100.275158 -42.354242 
L 100.853989 -42.374514 
L 101.429785 -42.394786 
L 102.002575 -42.415058 
L 102.572385 -42.43533 
L 103.139245 -42.455602 
L 103.70318 -42.475874 
L 104.26422 -42.496146 
L 104.822389 -42.516418 
L 105.377715 -42.53669 
L 105.930223 -42.556962 
L 106.47994 -42.577234 
L 107.02689 -42.597506 
L 107.5711 -42.617778 
L 108.112593 -42.63805 
L 108.651395 -42.658322 
L 109.18753 -42.678594 
L 109.721022 -42.698865 
L 110.251894 -42.719137 
L 110.78017 -42.739409 
L 111.305874 -42.759681 
L 111.829028 -42.779953 
L 112.349654 -42.800225 
L 112.867776 -42.820497 
L 113.383415 -42.840769 
L 113.896594 -42.861041 
L 114.407333 -42.881313 
L 114.915655 -42.901585 
L 115.42158 -42.921857 
L 115.92513 -42.942129 
L 116.426325 -42.962401 
L 116.925186 -42.982673 
L 117.421732 -43.002945 
L 117.915985 -43.023217 
L 118.407963 -43.043489 
L 118.897687 -43.063761 
L 119.385175 -43.084033 
L 119.870447 -43.104304 
L 120.353522 -43.124576 
L 120.834418 -43.144848 
L 121.313154 -43.16512 
L 121.789748 -43.185392 
L 122.264219 -43.205664 
L 122.736585 -43.225936 
L 123.206863 -43.246208 
L 123.67507 -43.26648 
L 124.141224 -43.286752 
L 124.605343 -43.307024 
L 125.067443 -43.327296 
L 125.527541 -43.347568 
L 125.985654 -43.36784 
L 126.441798 -43.388112 
L 126.895989 -43.408384 
L 127.348244 -43.428656 
L 127.798579 -43.448928 
L 128.247009 -43.4692 
L 128.693551 -43.489472 
L 129.138218 -43.509743 
L 129.581028 -43.530015 
L 130.021994 -43.550287 
L 130.461132 -43.570559 
L 130.898458 -43.590831 
L 131.333984 -43.611103 
L 131.767727 -43.631375 
L 132.1997 -43.651647 
L 132.629918 -43.671919 
L 133.058394 -43.692191 
L 133.485143 -43.712463 
L 133.910179 -43.732735 
L 134.333515 -43.753007 
L 134.755165 -43.773279 
L 135.175142 -43.793551 
L 135.593459 -43.813823 
L 136.01013 -43.834095 
L 136.425168 -43.854367 
L 136.838585 -43.874639 
L 137.250395 -43.89491 
L 137.660609 -43.915182 
L 138.069242 -43.935454 
L 138.476303 -43.955726 
L 138.881807 -43.975998 
L 139.285766 -43.99627 
L 139.688191 -44.016542 
L 140.089094 -44.036814 
L 140.488487 -44.057086 
L 140.886381 -44.077358 
L 141.28279 -44.09763 
L 141.677723 -44.117902 
L 142.071192 -44.138174 
L 142.463209 -44.158446 
L 142.853784 -44.178718 
L 143.242929 -44.19899 
L 143.630655 -44.219262 
L 144.016972 -44.239534 
L 144.401891 -44.259806 
L 144.785423 -44.280078 
L 145.167579 -44.300349 
L 145.548368 -44.320621 
L 145.927801 -44.340893 
L 146.305889 -44.361165 
L 146.682642 -44.381437 
L 147.058069 -44.401709 
L 147.432181 -44.421981 
L 147.804987 -44.442253 
L 148.176498 -44.462525 
L 148.546723 -44.482797 
L 148.915671 -44.503069 
L 149.283352 -44.523341 
L 149.649776 -44.543613 
L 150.014953 -44.563885 
L 150.37889 -44.584157 
L 150.741598 -44.604429 
L 151.103085 -44.624701 
L 151.463361 -44.644973 
L 151.822434 -44.665245 
L 152.180314 -44.685516 
L 152.537009 -44.705788 
L 152.892528 -44.72606 
L 153.24688 -44.746332 
L 153.600073 -44.766604 
L 153.952115 -44.786876 
L 154.303015 -44.807148 
L 154.652782 -44.82742 
L 155.001424 -44.847692 
L 155.348948 -44.867964 
L 155.695364 -44.888236 
L 156.040678 -44.908508 
L 156.3849 -44.92878 
L 156.728036 -44.949052 
L 157.070095 -44.969324 
L 157.411086 -44.989596 
L 157.751014 -45.009868 
L 158.089888 -45.03014 
L 158.427717 -45.050412 
L 158.764506 -45.070684 
L 159.100264 -45.090955 
L 159.434998 -45.111227 
L 159.768715 -45.131499 
L 160.101423 -45.151771 
L 160.433129 -45.172043 
L 160.76384 -45.192315 
L 161.093564 -45.212587 
L 161.422306 -45.232859 
L 161.750075 -45.253131 
L 162.076877 -45.273403 
L 162.402719 -45.293675 
L 162.727607 -45.313947 
L 163.05155 -45.334219 
L 163.374553 -45.354491 
L 163.696623 -45.374763 
L 164.017766 -45.395035 
L 164.33799 -45.415307 
L 164.6573 -45.435579 
L 164.975704 -45.455851 
L 165.293207 -45.476122 
L 165.609815 -45.496394 
L 165.925537 -45.516666 
L 166.240376 -45.536938 
L 166.55434 -45.55721 
L 166.867435 -45.577482 
L 167.179667 -45.597754 
L 167.491042 -45.618026 
L 167.801565 -45.638298 
L 168.111244 -45.65857 
L 168.420083 -45.678842 
L 168.728089 -45.699114 
L 169.035268 -45.719386 
L 169.341625 -45.739658 
L 169.647166 -45.75993 
L 169.951897 -45.780202 
L 170.255823 -45.800474 
L 170.55895 -45.820746 
L 170.861284 -45.841018 
L 171.16283 -45.86129 
L 171.463593 -45.881561 
L 171.76358 -45.901833 
L 172.062795 -45.922105 
L 172.361243 -45.942377 
L 172.658931 -45.962649 
L 172.955863 -45.982921 
L 173.252045 -46.003193 
L 173.547482 -46.023465 
L 173.842179 -46.043737 
L 174.13614 -46.064009 
L 174.429372 -46.084281 
L 174.72188 -46.104553 
L 175.013668 -46.124825 
L 175.304741 -46.145097 
L 175.595104 -46.165369 
L 175.884762 -46.185641 
L 176.173721 -46.205913 
L 176.461984 -46.226185 
L 176.749557 -46.246457 
L 177.036444 -46.266728 
L 177.322651 -46.287 
L 177.608182 -46.307272 
L 177.893041 -46.327544 
L 178.177233 -46.347816 
L 178.460763 -46.368088 
L 178.743636 -46.38836 
L 179.025855 -46.408632 
L 179.307426 -46.428904 
L 179.588353 -46.449176 
L 179.86864 -46.469448 
L 180.148293 -46.48972 
L 180.427314 -46.509992 
L 180.705709 -46.530264 
L 180.983482 -46.550536 
L 181.260637 -46.570808 
L 181.537178 -46.59108 
L 181.81311 -46.611352 
L 182.088437 -46.621488 
L 182.363164 -46.824207 
L 182.637293 -47.026927 
L 182.91083 -47.229646 
L 183.183779 -47.432366 
L 183.456143 -47.635085 
L 183.727926 -47.837805 
L 183.999134 -48.040524 
L 184.269769 -48.243244 
L 184.539835 -48.445963 
L 184.809338 -48.648682 
L 185.078279 -48.851402 
L 185.346665 -49.054121 
L 185.614497 -49.256841 
L 185.881781 -49.45956 
L 186.148519 -49.66228 
L 186.414717 -49.864999 
L 186.680376 -50.067719 
L 186.945503 -50.270438 
L 187.210099 -50.473158 
L 187.474168 -50.675877 
L 187.737715 -50.878597 
L 188.000744 -51.081316 
L 188.263256 -51.284036 
L 188.525258 -51.486755 
L 188.786751 -51.689475 
L 189.047739 -51.892194 
L 189.308226 -52.094914 
L 189.568216 -52.297633 
L 189.827712 -52.500353 
L 190.086717 -52.703072 
L 190.345236 -52.905792 
L 190.60327 -53.108511 
L 190.860825 -53.311231 
L 191.117902 -53.51395 
L 191.374507 -53.71667 
L 191.630641 -53.919389 
L 191.886308 -54.122109 
L 192.141512 -54.324828 
L 192.396256 -54.527548 
L 192.650543 -54.730267 
L 192.904377 -54.932987 
L 193.15776 -55.135706 
L 193.410696 -55.338426 
L 193.663188 -55.541145 
L 193.91524 -55.743865 
L 194.166854 -55.946584 
L 194.418033 -56.149304 
L 194.668781 -56.352023 
L 194.919101 -56.554743 
L 195.168996 -56.757462 
L 195.418469 -56.960182 
L 195.667524 -57.162901 
L 195.916162 -57.36562 
L 196.164387 -57.56834 
L 196.412203 -57.771059 
L 196.659612 -57.973779 
L 196.906617 -58.176498 
L 197.153221 -58.379218 
L 197.399427 -58.581937 
L 197.645238 -58.784657 
L 197.890657 -58.987376 
L 198.135687 -59.190096 
L 198.38033 -59.392815 
L 198.62459 -59.595535 
L 198.86847 -59.798254 
L 199.111972 -60.000974 
L 199.355098 -60.203693 
L 199.597853 -60.406413 
L 199.840238 -60.609132 
L 200.082257 -60.811852 
L 200.323912 -61.014571 
L 200.565206 -61.217291 
L 200.806142 -61.42001 
L 201.046722 -61.62273 
L 201.28695 -61.825449 
L 201.526827 -62.028169 
L 201.766357 -62.230888 
L 202.005542 -62.433608 
L 202.244385 -62.636327 
L 202.482888 -62.839047 
L 202.721055 -63.041766 
L 202.958887 -63.244486 
L 203.196387 -63.447205 
L 203.433559 -63.649925 
L 203.670404 -63.852644 
L 203.906925 -64.055364 
L 204.143125 -64.258083 
L 204.379006 -64.460803 
L 204.614571 -64.663522 
L 204.849822 -64.866242 
L 205.084762 -65.068961 
L 205.319393 -65.271681 
L 205.553718 -65.4744 
L 205.787739 -65.67712 
L 206.021459 -65.879839 
L 206.25488 -66.082559 
L 206.488004 -66.285278 
L 206.720835 -66.487997 
L 206.953374 -66.690717 
L 207.185623 -66.893436 
L 207.417586 -67.096156 
L 207.649265 -67.298875 
L 207.880662 -67.501595 
L 208.111779 -67.704314 
L 208.342618 -67.907034 
L 208.573183 -68.109753 
L 208.803475 -68.312473 
L 209.033497 -68.515192 
L 209.263251 -68.717912 
L 209.492739 -68.920631 
L 209.721964 -69.123351 
L 209.950928 -69.32607 
L 210.179633 -69.52879 
L 210.408081 -69.731509 
L 210.636275 -69.934229 
L 210.864218 -70.136948 
L 211.09191 -70.339668 
L 211.319355 -70.542387 
L 211.546554 -70.745107 
L 211.773511 -70.947826 
L 212.000226 -71.150546 
L 212.226703 -71.353265 
L 212.452944 -71.555985 
L 212.67895 -71.758704 
L 212.904724 -71.961424 
L 213.130268 -72.164143 
L 213.355584 -72.366863 
L 213.580674 -72.569582 
L 213.805541 -72.772302 
L 214.030186 -72.975021 
L 214.254612 -73.177741 
L 214.478821 -73.38046 
L 214.702815 -73.58318 
L 214.926596 -73.785899 
L 215.150166 -73.988619 
L 215.373528 -74.191338 
L 215.596682 -74.394058 
L 215.819632 -74.596777 
L 216.04238 -74.799497 
L 216.264927 -75.002216 
L 216.487275 -75.204935 
L 216.709427 -75.407655 
L 216.931385 -75.610374 
L 217.15315 -75.813094 
L 217.374726 -76.015813 
L 217.596112 -76.218533 
L 217.817313 -76.421252 
L 218.038329 -76.623972 
L 218.259163 -76.826691 
L 218.479817 -77.029411 
L 218.700293 -77.23213 
L 218.920592 -77.43485 
L 219.140717 -77.637569 
L 219.360669 -77.840289 
L 219.580451 -78.043008 
L 219.800065 -78.245728 
L 220.019512 -78.448447 
L 220.238795 -78.651167 
L 220.457915 -78.853886 
L 220.676874 -79.056606 
L 220.895675 -79.259325 
L 221.114318 -79.462045 
L 221.332807 -79.664764 
L 221.551143 -79.867484 
L 221.769328 -80.070203 
L 221.987364 -80.272923 
L 222.205252 -80.475642 
L 222.422995 -80.678362 
L 222.640595 -80.881081 
L 222.858053 -81.083801 
L 223.075371 -81.28652 
L 223.292552 -81.48924 
L 223.509596 -81.691959 
L 223.726506 -81.894679 
L 223.943285 -82.097398 
L 224.159932 -82.300118 
L 224.376451 -82.502837 
L 224.592844 -82.705557 
L 224.809112 -82.908276 
L 225.025256 -83.110996 
L 225.24128 -83.313715 
L 225.457184 -83.516435 
L 225.672971 -83.719154 
L 225.888641 -83.921873 
L 226.104199 -84.124593 
L 226.319644 -84.327312 
L 226.534978 -84.530032 
L 226.750205 -84.732751 
L 226.965325 -84.935471 
L 227.18034 -85.13819 
L 227.395252 -85.34091 
L 227.610062 -85.543629 
L 227.824774 -85.746349 
L 228.039387 -85.949068 
L 228.253905 -86.151788 
L 228.468329 -86.354507 
L 228.68266 -86.557227 
L 228.896901 -86.759946 
L 229.111053 -86.962666 
L 229.325119 -87.165385 
L 229.539099 -87.368105 
L 229.752995 -87.570824 
L 229.96681 -87.773544 
L 230.180545 -87.976263 
L 230.394202 -88.178983 
L 230.607783 -88.381702 
L 230.821288 -88.584422 
L 231.034721 -88.787141 
L 231.248083 -88.989861 
L 231.461375 -89.19258 
L 231.6746 -89.3953 
L 231.887759 -89.598019 
L 232.100853 -89.800739 
L 232.313885 -90.003458 
L 232.526857 -90.206178 
L 232.739769 -90.408897 
L 232.952624 -90.611617 
L 233.165424 -90.814336 
L 233.37817 -91.017056 
L 233.590864 -91.219775 
L 233.803507 -91.422495 
L 234.016102 -91.625214 
L 234.22865 -91.827934 
L 234.441152 -92.030653 
L 234.653611 -92.233373 
L 234.866029 -92.436092 
L 235.078406 -92.638812 
L 235.290745 -92.841531 
L 235.503048 -93.04425 
L 235.715316 -93.24697 
L 235.92755 -93.449689 
L 236.139753 -93.652409 
L 236.351926 -93.855128 
L 236.564071 -94.057848 
L 236.77619 -94.260567 
L 236.988284 -94.463287 
L 237.200355 -94.666006 
L 237.412404 -94.868726 
L 237.624435 -95.071445 
L 237.836447 -95.274165 
L 238.048443 -95.476884 
L 238.260425 -95.679604 
L 238.472394 -95.882323 
L 238.684352 -96.085043 
L 238.896301 -96.287762 
L 239.108242 -96.490482 
L 239.320177 -96.693201 
L 239.532108 -96.895921 
L 239.744036 -97.09864 
L 239.955964 -97.30136 
L 240.167892 -97.504079 
L 240.379823 -97.706799 
L 240.591758 -97.909518 
L 240.803699 -98.112238 
L 241.015648 -98.314957 
L 241.227606 -98.517677 
L 241.439575 -98.720396 
L 241.651557 -98.923116 
L 241.863553 -99.125835 
L 242.075565 -99.328555 
L 242.287596 -99.531274 
L 242.499645 -99.733994 
L 242.711716 -99.936713 
L 242.92381 -100.139433 
L 243.135929 -100.342152 
L 243.348074 -100.544872 
L 243.560247 -100.747591 
L 243.77245 -100.950311 
L 243.984684 -101.15303 
L 244.196952 -101.35575 
L 244.409255 -101.558469 
L 244.621594 -101.761188 
L 244.833971 -101.963908 
L 245.046389 -102.166627 
L 245.258848 -102.369347 
L 245.47135 -102.572066 
L 245.683898 -102.774786 
L 245.896493 -102.977505 
L 246.109136 -103.180225 
L 246.32183 -103.382944 
L 246.534576 -103.585664 
L 246.747376 -103.788383 
L 246.960231 -103.991103 
L 247.173143 -104.193822 
L 247.386115 -104.396542 
L 247.599147 -104.599261 
L 247.812241 -104.801981 
L 248.0254 -105.0047 
L 248.238625 -105.20742 
L 248.451917 -105.410139 
L 248.665279 -105.612859 
L 248.878712 -105.815578 
L 249.092217 -106.018298 
L 249.305798 -106.221017 
L 249.519455 -106.423737 
L 249.73319 -106.626456 
L 249.947005 -106.829176 
L 250.160901 -107.031895 
L 250.374881 -107.234615 
L 250.588947 -107.437334 
L 250.803099 -107.640054 
L 251.01734 -107.842773 
L 251.231671 -108.045493 
L 251.446095 -108.248212 
L 251.660613 -108.450932 
L 251.875226 -108.653651 
L 252.089938 -108.856371 
L 252.304748 -109.05909 
L 252.51966 -109.26181 
L 252.734675 -109.464529 
L 252.949795 -109.667249 
L 253.165022 -109.869968 
L 253.380356 -110.072688 
L 253.595801 -110.275407 
L 253.811359 -110.478127 
L 254.027029 -110.680846 
L 254.242816 -110.883565 
L 254.45872 -111.086285 
L 254.674744 -111.289004 
L 254.890888 -111.491724 
L 255.107156 -111.694443 
L 255.323549 -111.897163 
L 255.540068 -112.099882 
L 255.756715 -112.302602 
L 255.973494 -112.505321 
L 256.190404 -112.708041 
L 256.407448 -112.91076 
L 256.624629 -113.11348 
L 256.841947 -113.316199 
L 257.059405 -113.518919 
L 257.277005 -113.721638 
L 257.494748 -113.924358 
L 257.712636 -114.127077 
L 257.930672 -114.329797 
L 258.148857 -114.532516 
L 258.367193 -114.735236 
L 258.585682 -114.937955 
L 258.804325 -115.140675 
L 259.023126 -115.343394 
L 259.242085 -115.546114 
L 259.461205 -115.748833 
L 259.680488 -115.951553 
L 259.899935 -116.154272 
L 260.119549 -116.356992 
L 260.339331 -116.559711 
L 260.559283 -116.762431 
L 260.779408 -116.96515 
L 260.999707 -117.16787 
L 261.220183 -117.370589 
L 261.440837 -117.573309 
L 261.661671 -117.776028 
L 261.882687 -117.978748 
L 262.103888 -118.181467 
L 262.325274 -118.384187 
L 262.54685 -118.586906 
L 262.768615 -118.789626 
L 262.990573 -118.992345 
L 263.212725 -119.195065 
L 263.435073 -119.397784 
L 263.65762 -119.600503 
L 263.880368 -119.803223 
L 264.103318 -120.005942 
L 264.326472 -120.208662 
L 264.549834 -120.411381 
L 264.773404 -120.614101 
L 264.997185 -120.81682 
L 265.221179 -121.01954 
L 265.445388 -121.222259 
L 265.669814 -121.424979 
L 265.894459 -121.627698 
L 266.119326 -121.830418 
L 266.344416 -122.033137 
L 266.569732 -122.235857 
L 266.795276 -122.438576 
L 267.02105 -122.641296 
L 267.247056 -122.844015 
L 267.473297 -123.046735 
L 267.699774 -123.249454 
L 267.926489 -123.452174 
L 268.153446 -123.654893 
L 268.380645 -123.857613 
L 268.60809 -124.060332 
L 268.835782 -124.263052 
L 269.063725 -124.465771 
L 269.291919 -124.668491 
L 269.520367 -124.87121 
L 269.749072 -125.07393 
L 269.978036 -125.276649 
L 270.207261 -125.479369 
L 270.436749 -125.682088 
L 270.666503 -125.884808 
L 270.896525 -126.087527 
L 271.126817 -126.290247 
L 271.357382 -126.492966 
L 271.588221 -126.695686 
L 271.819338 -126.898405 
L 272.050735 -127.101125 
L 272.282414 -127.303844 
L 272.514377 -127.506564 
L 272.746626 -127.709283 
L 272.979165 -127.912003 
L 273.211996 -128.114722 
L 273.44512 -128.317441 
L 273.678541 -128.520161 
L 273.912261 -128.72288 
L 274.146282 -128.9256 
L 274.380607 -129.128319 
L 274.615238 -129.331039 
L 274.850178 -129.533758 
L 275.085429 -129.736478 
L 275.320994 -129.939197 
L 275.556875 -130.141917 
L 275.793075 -130.344636 
L 276.029596 -130.547356 
L 276.266441 -130.750075 
L 276.503613 -130.952795 
L 276.741113 -131.155514 
L 276.978945 -131.358234 
L 277.217112 -131.560953 
L 277.455615 -131.763673 
L 277.694458 -131.966392 
L 277.933643 -132.169112 
L 278.173173 -132.371831 
L 278.41305 -132.574551 
L 278.653278 -132.77727 
L 278.893858 -132.97999 
L 279.134794 -133.182709 
L 279.376088 -133.385429 
L 279.617743 -133.588148 
L 279.859762 -133.790868 
L 280.102147 -133.993587 
L 280.344902 -134.196307 
L 280.588028 -134.399026 
L 280.83153 -134.601746 
L 281.07541 -134.804465 
L 281.31967 -135.007185 
L 281.564313 -135.209904 
L 281.809343 -135.412624 
L 282.054762 -135.615343 
L 282.300573 -135.818063 
L 282.546779 -136.020782 
L 282.793383 -136.223502 
L 283.040388 -136.426221 
L 283.287797 -136.628941 
L 283.535613 -136.83166 
L 283.783838 -137.03438 
L 284.032476 -137.237099 
L 284.281531 -137.439818 
L 284.531004 -137.642538 
L 284.780899 -137.845257 
L 285.031219 -138.047977 
L 285.281967 -138.250696 
L 285.533146 -138.453416 
L 285.78476 -138.656135 
L 286.036812 -138.858855 
L 286.289304 -139.061574 
L 286.54224 -139.264294 
L 286.795623 -139.467013 
L 287.049457 -139.669733 
L 287.303744 -139.872452 
L 287.558488 -140.075172 
L 287.813692 -140.277891 
L 288.069359 -140.480611 
L 288.325493 -140.68333 
L 288.582098 -140.88605 
L 288.839175 -141.088769 
L 289.09673 -141.291489 
L 289.354764 -141.494208 
L 289.613283 -141.696928 
L 289.872288 -141.899647 
L 290.131784 -142.102367 
L 290.391774 -142.305086 
L 290.652261 -142.507806 
L 290.913249 -142.710525 
L 291.174742 -142.913245 
L 291.436744 -143.115964 
L 291.699256 -143.318684 
L 291.962285 -143.521403 
L 292.225832 -143.724123 
L 292.489901 -143.926842 
L 292.754497 -144.129562 
L 293.019624 -144.332281 
L 293.285283 -144.535001 
L 293.551481 -144.73772 
L 293.818219 -144.94044 
L 294.085503 -145.143159 
L 294.353335 -145.345879 
L 294.621721 -145.548598 
L 294.890662 -145.751318 
L 295.160165 -145.954037 
L 295.430231 -146.156756 
L 295.700866 -146.359476 
L 295.972074 -146.562195 
L 296.243857 -146.764915 
L 296.516221 -146.967634 
L 296.78917 -147.170354 
L 297.062707 -147.373073 
L 297.336836 -147.575793 
L 297.611563 -147.778512 
L 297.88689 -147.788648 
L 298.162822 -147.80892 
L 298.439363 -147.829192 
L 298.716518 -147.849464 
L 298.994291 -147.869736 
L 299.272686 -147.890008 
L 299.551707 -147.91028 
L 299.83136 -147.930552 
L 300.111647 -147.950824 
L 300.392574 -147.971096 
L 300.674145 -147.991368 
L 300.956364 -148.01164 
L 301.239237 -148.031912 
L 301.522767 -148.052184 
L 301.806959 -148.072456 
L 302.091818 -148.092728 
L 302.377349 -148.113 
L 302.663556 -148.133272 
L 302.950443 -148.153543 
L 303.238016 -148.173815 
L 303.526279 -148.194087 
L 303.815238 -148.214359 
L 304.104896 -148.234631 
L 304.395259 -148.254903 
L 304.686332 -148.275175 
L 304.97812 -148.295447 
L 305.270628 -148.315719 
L 305.56386 -148.335991 
L 305.857821 -148.356263 
L 306.152518 -148.376535 
L 306.447955 -148.396807 
L 306.744137 -148.417079 
L 307.041069 -148.437351 
L 307.338757 -148.457623 
L 307.637205 -148.477895 
L 307.93642 -148.498167 
L 308.236407 -148.518439 
L 308.53717 -148.53871 
L 308.838716 -148.558982 
L 309.14105 -148.579254 
L 309.444177 -148.599526 
L 309.748103 -148.619798 
L 310.052834 -148.64007 
L 310.358375 -148.660342 
L 310.664732 -148.680614 
L 310.971911 -148.700886 
L 311.279917 -148.721158 
L 311.588756 -148.74143 
L 311.898435 -148.761702 
L 312.208958 -148.781974 
L 312.520333 -148.802246 
L 312.832565 -148.822518 
L 313.14566 -148.84279 
L 313.459624 -148.863062 
L 313.774463 -148.883334 
L 314.090185 -148.903606 
L 314.406793 -148.923878 
L 314.724296 -148.944149 
L 315.0427 -148.964421 
L 315.36201 -148.984693 
L 315.682234 -149.004965 
L 316.003377 -149.025237 
L 316.325447 -149.045509 
L 316.64845 -149.065781 
L 316.972393 -149.086053 
L 317.297281 -149.106325 
L 317.623123 -149.126597 
L 317.949925 -149.146869 
L 318.277694 -149.167141 
L 318.606436 -149.187413 
L 318.93616 -149.207685 
L 319.266871 -149.227957 
L 319.598577 -149.248229 
L 319.931285 -149.268501 
L 320.265002 -149.288773 
L 320.599736 -149.309045 
L 320.935494 -149.329316 
L 321.272283 -149.349588 
L 321.610112 -149.36986 
L 321.948986 -149.390132 
L 322.288914 -149.410404 
L 322.629905 -149.430676 
L 322.971964 -149.450948 
L 323.3151 -149.47122 
L 323.659322 -149.491492 
L 324.004636 -149.511764 
L 324.351052 -149.532036 
L 324.698576 -149.552308 
L 325.047218 -149.57258 
L 325.396985 -149.592852 
L 325.747885 -149.613124 
L 326.099927 -149.633396 
L 326.45312 -149.653668 
L 326.807472 -149.67394 
L 327.162991 -149.694212 
L 327.519686 -149.714484 
L 327.877566 -149.734755 
L 328.236639 -149.755027 
L 328.596915 -149.775299 
L 328.958402 -149.795571 
L 329.32111 -149.815843 
L 329.685047 -149.836115 
L 330.050224 -149.856387 
L 330.416648 -149.876659 
L 330.784329 -149.896931 
L 331.153277 -149.917203 
L 331.523502 -149.937475 
L 331.895013 -149.957747 
L 332.267819 -149.978019 
L 332.641931 -149.998291 
L 333.017358 -150.018563 
L 333.394111 -150.038835 
L 333.772199 -150.059107 
L 334.151632 -150.079379 
L 334.532421 -150.099651 
L 334.914577 -150.119922 
L 335.298109 -150.140194 
L 335.683028 -150.160466 
L 336.069345 -150.180738 
L 336.457071 -150.20101 
L 336.846216 -150.221282 
L 337.236791 -150.241554 
L 337.628808 -150.261826 
L 338.022277 -150.282098 
L 338.41721 -150.30237 
L 338.813619 -150.322642 
L 339.211513 -150.342914 
L 339.610906 -150.363186 
L 340.011809 -150.383458 
L 340.414234 -150.40373 
L 340.818193 -150.424002 
L 341.223697 -150.444274 
L 341.630758 -150.464546 
L 342.039391 -150.484818 
L 342.449605 -150.50509 
L 342.861415 -150.525361 
L 343.274832 -150.545633 
L 343.68987 -150.565905 
L 344.106541 -150.586177 
L 344.524858 -150.606449 
L 344.944835 -150.626721 
L 345.366485 -150.646993 
L 345.789821 -150.667265 
L 346.214857 -150.687537 
L 346.641606 -150.707809 
L 347.070082 -150.728081 
L 347.5003 -150.748353 
L 347.932273 -150.768625 
L 348.366016 -150.788897 
L 348.801542 -150.809169 
L 349.238868 -150.829441 
L 349.678006 -150.849713 
L 350.118972 -150.869985 
L 350.561782 -150.890257 
L 351.006449 -150.910528 
L 351.452991 -150.9308 
L 351.901421 -150.951072 
L 352.351756 -150.971344 
L 352.804011 -150.991616 
L 353.258202 -151.011888 
L 353.714346 -151.03216 
L 354.172459 -151.052432 
L 354.632557 -151.072704 
L 355.094657 -151.092976 
L 355.558776 -151.113248 
L 356.02493 -151.13352 
L 356.493137 -151.153792 
L 356.963415 -151.174064 
L 357.435781 -151.194336 
L 357.910252 -151.214608 
L 358.386846 -151.23488 
L 358.865582 -151.255152 
L 359.346478 -151.275424 
L 359.829553 -151.295696 
L 360.314825 -151.315967 
L 360.802313 -151.336239 
L 361.292037 -151.356511 
L 361.784015 -151.376783 
L 362.278268 -151.397055 
L 362.774814 -151.417327 
L 363.273675 -151.437599 
L 363.77487 -151.457871 
L 364.27842 -151.478143 
L 364.784345 -151.498415 
L 365.292667 -151.518687 
L 365.803406 -151.538959 
L 366.316585 -151.559231 
L 366.832224 -151.579503 
L 367.350346 -151.599775 
L 367.870972 -151.620047 
L 368.394126 -151.640319 
L 368.91983 -151.660591 
L 369.448106 -151.680863 
L 369.978978 -151.701135 
L 370.51247 -151.721406 
L 371.048605 -151.741678 
L 371.587407 -151.76195 
L 372.1289 -151.782222 
L 372.67311 -151.802494 
L 373.22006 -151.822766 
L 373.769777 -151.843038 
L 374.322285 -151.86331 
L 374.877611 -151.883582 
L 375.43578 -151.903854 
L 375.99682 -151.924126 
L 376.560755 -151.944398 
L 377.127615 -151.96467 
L 377.697425 -151.984942 
L 378.270215 -152.005214 
L 378.846011 -152.025486 
L 379.424842 -152.045758 
L 380.006737 -152.06603 
L 380.591726 -152.086302 
L 381.179836 -152.106573 
L 381.771099 -152.126845 
L 382.365545 -152.147117 
L 382.963204 -152.167389 
L 383.564106 -152.187661 
L 384.168284 -152.207933 
L 384.775769 -152.228205 
L 385.386593 -152.248477 
L 386.00079 -152.268749 
L 386.61839 -152.289021 
L 387.239429 -152.309293 
L 387.86394 -152.329565 
L 388.491957 -152.349837 
L 389.123515 -152.370109 
L 389.758649 -152.390381 
L 390.397394 -152.410653 
L 391.039787 -152.430925 
L 391.685864 -152.451197 
L 392.335663 -152.471469 
L 392.98922 -152.491741 
L 393.646573 -152.512012 
L 394.307762 -152.532284 
L 394.972825 -152.552556 
L 395.641802 -152.572828 
L 396.314733 -152.5931 
L 396.991657 -152.613372 
L 397.672618 -152.633644 
L 398.357655 -152.653916 
L 399.046812 -152.674188 
L 399.740132 -152.69446 
L 400.437657 -152.714732 
L 401.139432 -152.735004 
L 401.845501 -152.755276 
L 402.55591 -152.775548 
L 403.270704 -152.79582 
L 403.989931 -152.816092 
L 404.713636 -152.836364 
L 404.713636 -97.2 
L 404.713636 -97.2 
L 403.989931 -97.2 
L 403.270704 -97.2 
L 402.55591 -97.2 
L 401.845501 -97.2 
L 401.139432 -97.2 
L 400.437657 -97.2 
L 399.740132 -97.2 
L 399.046812 -97.2 
L 398.357655 -97.2 
L 397.672618 -97.2 
L 396.991657 -97.2 
L 396.314733 -97.2 
L 395.641802 -97.2 
L 394.972825 -97.2 
L 394.307762 -97.2 
L 393.646573 -97.2 
L 392.98922 -97.2 
L 392.335663 -97.2 
L 391.685864 -97.2 
L 391.039787 -97.2 
L 390.397394 -97.2 
L 389.758649 -97.2 
L 389.123515 -97.2 
L 388.491957 -97.2 
L 387.86394 -97.2 
L 387.239429 -97.2 
L 386.61839 -97.2 
L 386.00079 -97.2 
L 385.386593 -97.2 
L 384.775769 -97.2 
L 384.168284 -97.2 
L 383.564106 -97.2 
L 382.963204 -97.2 
L 382.365545 -97.2 
L 381.771099 -97.2 
L 381.179836 -97.2 
L 380.591726 -97.2 
L 380.006737 -97.2 
L 379.424842 -97.2 
L 378.846011 -97.2 
L 378.270215 -97.2 
L 377.697425 -97.2 
L 377.127615 -97.2 
L 376.560755 -97.2 
L 375.99682 -97.2 
L 375.43578 -97.2 
L 374.877611 -97.2 
L 374.322285 -97.2 
L 373.769777 -97.2 
L 373.22006 -97.2 
L 372.67311 -97.2 
L 372.1289 -97.2 
L 371.587407 -97.2 
L 371.048605 -97.2 
L 370.51247 -97.2 
L 369.978978 -97.2 
L 369.448106 -97.2 
L 368.91983 -97.2 
L 368.394126 -97.2 
L 367.870972 -97.2 
L 367.350346 -97.2 
L 366.832224 -97.2 
L 366.316585 -97.2 
L 365.803406 -97.2 
L 365.292667 -97.2 
L 364.784345 -97.2 
L 364.27842 -97.2 
L 363.77487 -97.2 
L 363.273675 -97.2 
L 362.774814 -97.2 
L 362.278268 -97.2 
L 361.784015 -97.2 
L 361.292037 -97.2 
L 360.802313 -97.2 
L 360.314825 -97.2 
L 359.829553 -97.2 
L 359.346478 -97.2 
L 358.865582 -97.2 
L 358.386846 -97.2 
L 357.910252 -97.2 
L 357.435781 -97.2 
L 356.963415 -97.2 
L 356.493137 -97.2 
L 356.02493 -97.2 
L 355.558776 -97.2 
L 355.094657 -97.2 
L 354.632557 -97.2 
L 354.172459 -97.2 
L 353.714346 -97.2 
L 353.258202 -97.2 
L 352.804011 -97.2 
L 352.351756 -97.2 
L 351.901421 -97.2 
L 351.452991 -97.2 
L 351.006449 -97.2 
L 350.561782 -97.2 
L 350.118972 -97.2 
L 349.678006 -97.2 
L 349.238868 -97.2 
L 348.801542 -97.2 
L 348.366016 -97.2 
L 347.932273 -97.2 
L 347.5003 -97.2 
L 347.070082 -97.2 
L 346.641606 -97.2 
L 346.214857 -97.2 
L 345.789821 -97.2 
L 345.366485 -97.2 
L 344.944835 -97.2 
L 344.524858 -97.2 
L 344.106541 -97.2 
L 343.68987 -97.2 
L 343.274832 -97.2 
L 342.861415 -97.2 
L 342.449605 -97.2 
L 342.039391 -97.2 
L 341.630758 -97.2 
L 341.223697 -97.2 
L 340.818193 -97.2 
L 340.414234 -97.2 
L 340.011809 -97.2 
L 339.610906 -97.2 
L 339.211513 -97.2 
L 338.813619 -97.2 
L 338.41721 -97.2 
L 338.022277 -97.2 
L 337.628808 -97.2 
L 337.236791 -97.2 
L 336.846216 -97.2 
L 336.457071 -97.2 
L 336.069345 -97.2 
L 335.683028 -97.2 
L 335.298109 -97.2 
L 334.914577 -97.2 
L 334.532421 -97.2 
L 334.151632 -97.2 
L 333.772199 -97.2 
L 333.394111 -97.2 
L 333.017358 -97.2 
L 332.641931 -97.2 
L 332.267819 -97.2 
L 331.895013 -97.2 
L 331.523502 -97.2 
L 331.153277 -97.2 
L 330.784329 -97.2 
L 330.416648 -97.2 
L 330.050224 -97.2 
L 329.685047 -97.2 
L 329.32111 -97.2 
L 328.958402 -97.2 
L 328.596915 -97.2 
L 328.236639 -97.2 
L 327.877566 -97.2 
L 327.519686 -97.2 
L 327.162991 -97.2 
L 326.807472 -97.2 
L 326.45312 -97.2 
L 326.099927 -97.2 
L 325.747885 -97.2 
L 325.396985 -97.2 
L 325.047218 -97.2 
L 324.698576 -97.2 
L 324.351052 -97.2 
L 324.004636 -97.2 
L 323.659322 -97.2 
L 323.3151 -97.2 
L 322.971964 -97.2 
L 322.629905 -97.2 
L 322.288914 -97.2 
L 321.948986 -97.2 
L 321.610112 -97.2 
L 321.272283 -97.2 
L 320.935494 -97.2 
L 320.599736 -97.2 
L 320.265002 -97.2 
L 319.931285 -97.2 
L 319.598577 -97.2 
L 319.266871 -97.2 
L 318.93616 -97.2 
L 318.606436 -97.2 
L 318.277694 -97.2 
L 317.949925 -97.2 
L 317.623123 -97.2 
L 317.297281 -97.2 
L 316.972393 -97.2 
L 316.64845 -97.2 
L 316.325447 -97.2 
L 316.003377 -97.2 
L 315.682234 -97.2 
L 315.36201 -97.2 
L 315.0427 -97.2 
L 314.724296 -97.2 
L 314.406793 -97.2 
L 314.090185 -97.2 
L 313.774463 -97.2 
L 313.459624 -97.2 
L 313.14566 -97.2 
L 312.832565 -97.2 
L 312.520333 -97.2 
L 312.208958 -97.2 
L 311.898435 -97.2 
L 311.588756 -97.2 
L 311.279917 -97.2 
L 310.971911 -97.2 
L 310.664732 -97.2 
L 310.358375 -97.2 
L 310.052834 -97.2 
L 309.748103 -97.2 
L 309.444177 -97.2 
L 309.14105 -97.2 
L 308.838716 -97.2 
L 308.53717 -97.2 
L 308.236407 -97.2 
L 307.93642 -97.2 
L 307.637205 -97.2 
L 307.338757 -97.2 
L 307.041069 -97.2 
L 306.744137 -97.2 
L 306.447955 -97.2 
L 306.152518 -97.2 
L 305.857821 -97.2 
L 305.56386 -97.2 
L 305.270628 -97.2 
L 304.97812 -97.2 
L 304.686332 -97.2 
L 304.395259 -97.2 
L 304.104896 -97.2 
L 303.815238 -97.2 
L 303.526279 -97.2 
L 303.238016 -97.2 
L 302.950443 -97.2 
L 302.663556 -97.2 
L 302.377349 -97.2 
L 302.091818 -97.2 
L 301.806959 -97.2 
L 301.522767 -97.2 
L 301.239237 -97.2 
L 300.956364 -97.2 
L 300.674145 -97.2 
L 300.392574 -97.2 
L 300.111647 -97.2 
L 299.83136 -97.2 
L 299.551707 -97.2 
L 299.272686 -97.2 
L 298.994291 -97.2 
L 298.716518 -97.2 
L 298.439363 -97.2 
L 298.162822 -97.2 
L 297.88689 -97.2 
L 297.611563 -97.2 
L 297.336836 -97.2 
L 297.062707 -97.2 
L 296.78917 -97.2 
L 296.516221 -97.2 
L 296.243857 -97.2 
L 295.972074 -97.2 
L 295.700866 -97.2 
L 295.430231 -97.2 
L 295.160165 -97.2 
L 294.890662 -97.2 
L 294.621721 -97.2 
L 294.353335 -97.2 
L 294.085503 -97.2 
L 293.818219 -97.2 
L 293.551481 -97.2 
L 293.285283 -97.2 
L 293.019624 -97.2 
L 292.754497 -97.2 
L 292.489901 -97.2 
L 292.225832 -97.2 
L 291.962285 -97.2 
L 291.699256 -97.2 
L 291.436744 -97.2 
L 291.174742 -97.2 
L 290.913249 -97.2 
L 290.652261 -97.2 
L 290.391774 -97.2 
L 290.131784 -97.2 
L 289.872288 -97.2 
L 289.613283 -97.2 
L 289.354764 -97.2 
L 289.09673 -97.2 
L 288.839175 -97.2 
L 288.582098 -97.2 
L 288.325493 -97.2 
L 288.069359 -97.2 
L 287.813692 -97.2 
L 287.558488 -97.2 
L 287.303744 -97.2 
L 287.049457 -97.2 
L 286.795623 -97.2 
L 286.54224 -97.2 
L 286.289304 -97.2 
L 286.036812 -97.2 
L 285.78476 -97.2 
L 285.533146 -97.2 
L 285.281967 -97.2 
L 285.031219 -97.2 
L 284.780899 -97.2 
L 284.531004 -97.2 
L 284.281531 -97.2 
L 284.032476 -97.2 
L 283.783838 -97.2 
L 283.535613 -97.2 
L 283.287797 -97.2 
L 283.040388 -97.2 
L 282.793383 -97.2 
L 282.546779 -97.2 
L 282.300573 -97.2 
L 282.054762 -97.2 
L 281.809343 -97.2 
L 281.564313 -97.2 
L 281.31967 -97.2 
L 281.07541 -97.2 
L 280.83153 -97.2 
L 280.588028 -97.2 
L 280.344902 -97.2 
L 280.102147 -97.2 
L 279.859762 -97.2 
L 279.617743 -97.2 
L 279.376088 -97.2 
L 279.134794 -97.2 
L 278.893858 -97.2 
L 278.653278 -97.2 
L 278.41305 -97.2 
L 278.173173 -97.2 
L 277.933643 -97.2 
L 277.694458 -97.2 
L 277.455615 -97.2 
L 277.217112 -97.2 
L 276.978945 -97.2 
L 276.741113 -97.2 
L 276.503613 -97.2 
L 276.266441 -97.2 
L 276.029596 -97.2 
L 275.793075 -97.2 
L 275.556875 -97.2 
L 275.320994 -97.2 
L 275.085429 -97.2 
L 274.850178 -97.2 
L 274.615238 -97.2 
L 274.380607 -97.2 
L 274.146282 -97.2 
L 273.912261 -97.2 
L 273.678541 -97.2 
L 273.44512 -97.2 
L 273.211996 -97.2 
L 272.979165 -97.2 
L 272.746626 -97.2 
L 272.514377 -97.2 
L 272.282414 -97.2 
L 272.050735 -97.2 
L 271.819338 -97.2 
L 271.588221 -97.2 
L 271.357382 -97.2 
L 271.126817 -97.2 
L 270.896525 -97.2 
L 270.666503 -97.2 
L 270.436749 -97.2 
L 270.207261 -97.2 
L 269.978036 -97.2 
L 269.749072 -97.2 
L 269.520367 -97.2 
L 269.291919 -97.2 
L 269.063725 -97.2 
L 268.835782 -97.2 
L 268.60809 -97.2 
L 268.380645 -97.2 
L 268.153446 -97.2 
L 267.926489 -97.2 
L 267.699774 -97.2 
L 267.473297 -97.2 
L 267.247056 -97.2 
L 267.02105 -97.2 
L 266.795276 -97.2 
L 266.569732 -97.2 
L 266.344416 -97.2 
L 266.119326 -97.2 
L 265.894459 -97.2 
L 265.669814 -97.2 
L 265.445388 -97.2 
L 265.221179 -97.2 
L 264.997185 -97.2 
L 264.773404 -97.2 
L 264.549834 -97.2 
L 264.326472 -97.2 
L 264.103318 -97.2 
L 263.880368 -97.2 
L 263.65762 -97.2 
L 263.435073 -97.2 
L 263.212725 -97.2 
L 262.990573 -97.2 
L 262.768615 -97.2 
L 262.54685 -97.2 
L 262.325274 -97.2 
L 262.103888 -97.2 
L 261.882687 -97.2 
L 261.661671 -97.2 
L 261.440837 -97.2 
L 261.220183 -97.2 
L 260.999707 -97.2 
L 260.779408 -97.2 
L 260.559283 -97.2 
L 260.339331 -97.2 
L 260.119549 -97.2 
L 259.899935 -97.2 
L 259.680488 -97.2 
L 259.461205 -97.2 
L 259.242085 -97.2 
L 259.023126 -97.2 
L 258.804325 -97.2 
L 258.585682 -97.2 
L 258.367193 -97.2 
L 258.148857 -97.2 
L 257.930672 -97.2 
L 257.712636 -97.2 
L 257.494748 -97.2 
L 257.277005 -97.2 
L 257.059405 -97.2 
L 256.841947 -97.2 
L 256.624629 -97.2 
L 256.407448 -97.2 
L 256.190404 -97.2 
L 255.973494 -97.2 
L 255.756715 -97.2 
L 255.540068 -97.2 
L 255.323549 -97.2 
L 255.107156 -97.2 
L 254.890888 -97.2 
L 254.674744 -97.2 
L 254.45872 -97.2 
L 254.242816 -97.2 
L 254.027029 -97.2 
L 253.811359 -97.2 
L 253.595801 -97.2 
L 253.380356 -97.2 
L 253.165022 -97.2 
L 252.949795 -97.2 
L 252.734675 -97.2 
L 252.51966 -97.2 
L 252.304748 -97.2 
L 252.089938 -97.2 
L 251.875226 -97.2 
L 251.660613 -97.2 
L 251.446095 -97.2 
L 251.231671 -97.2 
L 251.01734 -97.2 
L 250.803099 -97.2 
L 250.588947 -97.2 
L 250.374881 -97.2 
L 250.160901 -97.2 
L 249.947005 -97.2 
L 249.73319 -97.2 
L 249.519455 -97.2 
L 249.305798 -97.2 
L 249.092217 -97.2 
L 248.878712 -97.2 
L 248.665279 -97.2 
L 248.451917 -97.2 
L 248.238625 -97.2 
L 248.0254 -97.2 
L 247.812241 -97.2 
L 247.599147 -97.2 
L 247.386115 -97.2 
L 247.173143 -97.2 
L 246.960231 -97.2 
L 246.747376 -97.2 
L 246.534576 -97.2 
L 246.32183 -97.2 
L 246.109136 -97.2 
L 245.896493 -97.2 
L 245.683898 -97.2 
L 245.47135 -97.2 
L 245.258848 -97.2 
L 245.046389 -97.2 
L 244.833971 -97.2 
L 244.621594 -97.2 
L 244.409255 -97.2 
L 244.196952 -97.2 
L 243.984684 -97.2 
L 243.77245 -97.2 
L 243.560247 -97.2 
L 243.348074 -97.2 
L 243.135929 -97.2 
L 242.92381 -97.2 
L 242.711716 -97.2 
L 242.499645 -97.2 
L 242.287596 -97.2 
L 242.075565 -97.2 
L 241.863553 -97.2 
L 241.651557 -97.2 
L 241.439575 -97.2 
L 241.227606 -97.2 
L 241.015648 -97.2 
L 240.803699 -97.2 
L 240.591758 -97.2 
L 240.379823 -97.2 
L 240.167892 -97.2 
L 239.955964 -97.2 
L 239.744036 -97.2 
L 239.532108 -97.2 
L 239.320177 -97.2 
L 239.108242 -97.2 
L 238.896301 -97.2 
L 238.684352 -97.2 
L 238.472394 -97.2 
L 238.260425 -97.2 
L 238.048443 -97.2 
L 237.836447 -97.2 
L 237.624435 -97.2 
L 237.412404 -97.2 
L 237.200355 -97.2 
L 236.988284 -97.2 
L 236.77619 -97.2 
L 236.564071 -97.2 
L 236.351926 -97.2 
L 236.139753 -97.2 
L 235.92755 -97.2 
L 235.715316 -97.2 
L 235.503048 -97.2 
L 235.290745 -97.2 
L 235.078406 -97.2 
L 234.866029 -97.2 
L 234.653611 -97.2 
L 234.441152 -97.2 
L 234.22865 -97.2 
L 234.016102 -97.2 
L 233.803507 -97.2 
L 233.590864 -97.2 
L 233.37817 -97.2 
L 233.165424 -97.2 
L 232.952624 -97.2 
L 232.739769 -97.2 
L 232.526857 -97.2 
L 232.313885 -97.2 
L 232.100853 -97.2 
L 231.887759 -97.2 
L 231.6746 -97.2 
L 231.461375 -97.2 
L 231.248083 -97.2 
L 231.034721 -97.2 
L 230.821288 -97.2 
L 230.607783 -97.2 
L 230.394202 -97.2 
L 230.180545 -97.2 
L 229.96681 -97.2 
L 229.752995 -97.2 
L 229.539099 -97.2 
L 229.325119 -97.2 
L 229.111053 -97.2 
L 228.896901 -97.2 
L 228.68266 -97.2 
L 228.468329 -97.2 
L 228.253905 -97.2 
L 228.039387 -97.2 
L 227.824774 -97.2 
L 227.610062 -97.2 
L 227.395252 -97.2 
L 227.18034 -97.2 
L 226.965325 -97.2 
L 226.750205 -97.2 
L 226.534978 -97.2 
L 226.319644 -97.2 
L 226.104199 -97.2 
L 225.888641 -97.2 
L 225.672971 -97.2 
L 225.457184 -97.2 
L 225.24128 -97.2 
L 225.025256 -97.2 
L 224.809112 -97.2 
L 224.592844 -97.2 
L 224.376451 -97.2 
L 224.159932 -97.2 
L 223.943285 -97.2 
L 223.726506 -97.2 
L 223.509596 -97.2 
L 223.292552 -97.2 
L 223.075371 -97.2 
L 222.858053 -97.2 
L 222.640595 -97.2 
L 222.422995 -97.2 
L 222.205252 -97.2 
L 221.987364 -97.2 
L 221.769328 -97.2 
L 221.551143 -97.2 
L 221.332807 -97.2 
L 221.114318 -97.2 
L 220.895675 -97.2 
L 220.676874 -97.2 
L 220.457915 -97.2 
L 220.238795 -97.2 
L 220.019512 -97.2 
L 219.800065 -97.2 
L 219.580451 -97.2 
L 219.360669 -97.2 
L 219.140717 -97.2 
L 218.920592 -97.2 
L 218.700293 -97.2 
L 218.479817 -97.2 
L 218.259163 -97.2 
L 218.038329 -97.2 
L 217.817313 -97.2 
L 217.596112 -97.2 
L 217.374726 -97.2 
L 217.15315 -97.2 
L 216.931385 -97.2 
L 216.709427 -97.2 
L 216.487275 -97.2 
L 216.264927 -97.2 
L 216.04238 -97.2 
L 215.819632 -97.2 
L 215.596682 -97.2 
L 215.373528 -97.2 
L 215.150166 -97.2 
L 214.926596 -97.2 
L 214.702815 -97.2 
L 214.478821 -97.2 
L 214.254612 -97.2 
L 214.030186 -97.2 
L 213.805541 -97.2 
L 213.580674 -97.2 
L 213.355584 -97.2 
L 213.130268 -97.2 
L 212.904724 -97.2 
L 212.67895 -97.2 
L 212.452944 -97.2 
L 212.226703 -97.2 
L 212.000226 -97.2 
L 211.773511 -97.2 
L 211.546554 -97.2 
L 211.319355 -97.2 
L 211.09191 -97.2 
L 210.864218 -97.2 
L 210.636275 -97.2 
L 210.408081 -97.2 
L 210.179633 -97.2 
L 209.950928 -97.2 
L 209.721964 -97.2 
L 209.492739 -97.2 
L 209.263251 -97.2 
L 209.033497 -97.2 
L 208.803475 -97.2 
L 208.573183 -97.2 
L 208.342618 -97.2 
L 208.111779 -97.2 
L 207.880662 -97.2 
L 207.649265 -97.2 
L 207.417586 -97.2 
L 207.185623 -97.2 
L 206.953374 -97.2 
L 206.720835 -97.2 
L 206.488004 -97.2 
L 206.25488 -97.2 
L 206.021459 -97.2 
L 205.787739 -97.2 
L 205.553718 -97.2 
L 205.319393 -97.2 
L 205.084762 -97.2 
L 204.849822 -97.2 
L 204.614571 -97.2 
L 204.379006 -97.2 
L 204.143125 -97.2 
L 203.906925 -97.2 
L 203.670404 -97.2 
L 203.433559 -97.2 
L 203.196387 -97.2 
L 202.958887 -97.2 
L 202.721055 -97.2 
L 202.482888 -97.2 
L 202.244385 -97.2 
L 202.005542 -97.2 
L 201.766357 -97.2 
L 201.526827 -97.2 
L 201.28695 -97.2 
L 201.046722 -97.2 
L 200.806142 -97.2 
L 200.565206 -97.2 
L 200.323912 -97.2 
L 200.082257 -97.2 
L 199.840238 -97.2 
L 199.597853 -97.2 
L 199.355098 -97.2 
L 199.111972 -97.2 
L 198.86847 -97.2 
L 198.62459 -97.2 
L 198.38033 -97.2 
L 198.135687 -97.2 
L 197.890657 -97.2 
L 197.645238 -97.2 
L 197.399427 -97.2 
L 197.153221 -97.2 
L 196.906617 -97.2 
L 196.659612 -97.2 
L 196.412203 -97.2 
L 196.164387 -97.2 
L 195.916162 -97.2 
L 195.667524 -97.2 
L 195.418469 -97.2 
L 195.168996 -97.2 
L 194.919101 -97.2 
L 194.668781 -97.2 
L 194.418033 -97.2 
L 194.166854 -97.2 
L 193.91524 -97.2 
L 193.663188 -97.2 
L 193.410696 -97.2 
L 193.15776 -97.2 
L 192.904377 -97.2 
L 192.650543 -97.2 
L 192.396256 -97.2 
L 192.141512 -97.2 
L 191.886308 -97.2 
L 191.630641 -97.2 
L 191.374507 -97.2 
L 191.117902 -97.2 
L 190.860825 -97.2 
L 190.60327 -97.2 
L 190.345236 -97.2 
L 190.086717 -97.2 
L 189.827712 -97.2 
L 189.568216 -97.2 
L 189.308226 -97.2 
L 189.047739 -97.2 
L 188.786751 -97.2 
L 188.525258 -97.2 
L 188.263256 -97.2 
L 188.000744 -97.2 
L 187.737715 -97.2 
L 187.474168 -97.2 
L 187.210099 -97.2 
L 186.945503 -97.2 
L 186.680376 -97.2 
L 186.414717 -97.2 
L 186.148519 -97.2 
L 185.881781 -97.2 
L 185.614497 -97.2 
L 185.346665 -97.2 
L 185.078279 -97.2 
L 184.809338 -97.2 
L 184.539835 -97.2 
L 184.269769 -97.2 
L 183.999134 -97.2 
L 183.727926 -97.2 
L 183.456143 -97.2 
L 183.183779 -97.2 
L 182.91083 -97.2 
L 182.637293 -97.2 
L 182.363164 -97.2 
L 182.088437 -97.2 
L 181.81311 -97.2 
L 181.537178 -97.2 
L 181.260637 -97.2 
L 180.983482 -97.2 
L 180.705709 -97.2 
L 180.427314 -97.2 
L 180.148293 -97.2 
L 179.86864 -97.2 
L 179.588353 -97.2 
L 179.307426 -97.2 
L 179.025855 -97.2 
L 178.743636 -97.2 
L 178.460763 -97.2 
L 178.177233 -97.2 
L 177.893041 -97.2 
L 177.608182 -97.2 
L 177.322651 -97.2 
L 177.036444 -97.2 
L 176.749557 -97.2 
L 176.461984 -97.2 
L 176.173721 -97.2 
L 175.884762 -97.2 
L 175.595104 -97.2 
L 175.304741 -97.2 
L 175.013668 -97.2 
L 174.72188 -97.2 
L 174.429372 -97.2 
L 174.13614 -97.2 
L 173.842179 -97.2 
L 173.547482 -97.2 
L 173.252045 -97.2 
L 172.955863 -97.2 
L 172.658931 -97.2 
L 172.361243 -97.2 
L 172.062795 -97.2 
L 171.76358 -97.2 
L 171.463593 -97.2 
L 171.16283 -97.2 
L 170.861284 -97.2 
L 170.55895 -97.2 
L 170.255823 -97.2 
L 169.951897 -97.2 
L 169.647166 -97.2 
L 169.341625 -97.2 
L 169.035268 -97.2 
L 168.728089 -97.2 
L 168.420083 -97.2 
L 168.111244 -97.2 
L 167.801565 -97.2 
L 167.491042 -97.2 
L 167.179667 -97.2 
L 166.867435 -97.2 
L 166.55434 -97.2 
L 166.240376 -97.2 
L 165.925537 -97.2 
L 165.609815 -97.2 
L 165.293207 -97.2 
L 164.975704 -97.2 
L 164.6573 -97.2 
L 164.33799 -97.2 
L 164.017766 -97.2 
L 163.696623 -97.2 
L 163.374553 -97.2 
L 163.05155 -97.2 
L 162.727607 -97.2 
L 162.402719 -97.2 
L 162.076877 -97.2 
L 161.750075 -97.2 
L 161.422306 -97.2 
L 161.093564 -97.2 
L 160.76384 -97.2 
L 160.433129 -97.2 
L 160.101423 -97.2 
L 159.768715 -97.2 
L 159.434998 -97.2 
L 159.100264 -97.2 
L 158.764506 -97.2 
L 158.427717 -97.2 
L 158.089888 -97.2 
L 157.751014 -97.2 
L 157.411086 -97.2 
L 157.070095 -97.2 
L 156.728036 -97.2 
L 156.3849 -97.2 
L 156.040678 -97.2 
L 155.695364 -97.2 
L 155.348948 -97.2 
L 155.001424 -97.2 
L 154.652782 -97.2 
L 154.303015 -97.2 
L 153.952115 -97.2 
L 153.600073 -97.2 
L 153.24688 -97.2 
L 152.892528 -97.2 
L 152.537009 -97.2 
L 152.180314 -97.2 
L 151.822434 -97.2 
L 151.463361 -97.2 
L 151.103085 -97.2 
L 150.741598 -97.2 
L 150.37889 -97.2 
L 150.014953 -97.2 
L 149.649776 -97.2 
L 149.283352 -97.2 
L 148.915671 -97.2 
L 148.546723 -97.2 
L 148.176498 -97.2 
L 147.804987 -97.2 
L 147.432181 -97.2 
L 147.058069 -97.2 
L 146.682642 -97.2 
L 146.305889 -97.2 
L 145.927801 -97.2 
L 145.548368 -97.2 
L 145.167579 -97.2 
L 144.785423 -97.2 
L 144.401891 -97.2 
L 144.016972 -97.2 
L 143.630655 -97.2 
L 143.242929 -97.2 
L 142.853784 -97.2 
L 142.463209 -97.2 
L 142.071192 -97.2 
L 141.677723 -97.2 
L 141.28279 -97.2 
L 140.886381 -97.2 
L 140.488487 -97.2 
L 140.089094 -97.2 
L 139.688191 -97.2 
L 139.285766 -97.2 
L 138.881807 -97.2 
L 138.476303 -97.2 
L 138.069242 -97.2 
L 137.660609 -97.2 
L 137.250395 -97.2 
L 136.838585 -97.2 
L 136.425168 -97.2 
L 136.01013 -97.2 
L 135.593459 -97.2 
L 135.175142 -97.2 
L 134.755165 -97.2 
L 134.333515 -97.2 
L 133.910179 -97.2 
L 133.485143 -97.2 
L 133.058394 -97.2 
L 132.629918 -97.2 
L 132.1997 -97.2 
L 131.767727 -97.2 
L 131.333984 -97.2 
L 130.898458 -97.2 
L 130.461132 -97.2 
L 130.021994 -97.2 
L 129.581028 -97.2 
L 129.138218 -97.2 
L 128.693551 -97.2 
L 128.247009 -97.2 
L 127.798579 -97.2 
L 127.348244 -97.2 
L 126.895989 -97.2 
L 126.441798 -97.2 
L 125.985654 -97.2 
L 125.527541 -97.2 
L 125.067443 -97.2 
L 124.605343 -97.2 
L 124.141224 -97.2 
L 123.67507 -97.2 
L 123.206863 -97.2 
L 122.736585 -97.2 
L 122.264219 -97.2 
L 121.789748 -97.2 
L 121.313154 -97.2 
L 120.834418 -97.2 
L 120.353522 -97.2 
L 119.870447 -97.2 
L 119.385175 -97.2 
L 118.897687 -97.2 
L 118.407963 -97.2 
L 117.915985 -97.2 
L 117.421732 -97.2 
L 116.925186 -97.2 
L 116.426325 -97.2 
L 115.92513 -97.2 
L 115.42158 -97.2 
L 114.915655 -97.2 
L 114.407333 -97.2 
L 113.896594 -97.2 
L 113.383415 -97.2 
L 112.867776 -97.2 
L 112.349654 -97.2 
L 111.829028 -97.2 
L 111.305874 -97.2 
L 110.78017 -97.2 
L 110.251894 -97.2 
L 109.721022 -97.2 
L 109.18753 -97.2 
L 108.651395 -97.2 
L 108.112593 -97.2 
L 107.5711 -97.2 
L 107.02689 -97.2 
L 106.47994 -97.2 
L 105.930223 -97.2 
L 105.377715 -97.2 
L 104.822389 -97.2 
L 104.26422 -97.2 
L 103.70318 -97.2 
L 103.139245 -97.2 
L 102.572385 -97.2 
L 102.002575 -97.2 
L 101.429785 -97.2 
L 100.853989 -97.2 
L 100.275158 -97.2 
L 99.693263 -97.2 
L 99.108274 -97.2 
L 98.520164 -97.2 
L 97.928901 -97.2 
L 97.334455 -97.2 
L 96.736796 -97.2 
L 96.135894 -97.2 
L 95.531716 -97.2 
L 94.924231 -97.2 
L 94.313407 -97.2 
L 93.69921 -97.2 
L 93.08161 -97.2 
L 92.460571 -97.2 
L 91.83606 -97.2 
L 91.208043 -97.2 
L 90.576485 -97.2 
L 89.941351 -97.2 
L 89.302606 -97.2 
L 88.660213 -97.2 
L 88.014136 -97.2 
L 87.364337 -97.2 
L 86.71078 -97.2 
L 86.053427 -97.2 
L 85.392238 -97.2 
L 84.727175 -97.2 
L 84.058198 -97.2 
L 83.385267 -97.2 
L 82.708343 -97.2 
L 82.027382 -97.2 
L 81.342345 -97.2 
L 80.653188 -97.2 
L 79.959868 -97.2 
L 79.262343 -97.2 
L 78.560568 -97.2 
L 77.854499 -97.2 
L 77.14409 -97.2 
L 76.429296 -97.2 
L 75.710069 -97.2 
L 74.986364 -97.2 
z
" style="stroke: #000000; stroke-opacity: 0.1; stroke-width: 0.5"/>
    </defs>
    <g clip-path="url(#pe604f5c624)">
     <use xlink:href="#ma1c8d650bf" x="0" y="180" style="fill-opacity: 0.1; stroke: #000000; stroke-opacity: 0.1; stroke-width: 0.5"/>
    </g>
   </g>
   <g id="line2d_21">
    <path d="M 266.344416 144 
L 266.344416 21.6 
" clip-path="url(#pe604f5c624)" style="fill: none; stroke-dasharray: 2.59,1.12; stroke-dashoffset: 0; stroke: #000000; stroke-width: 0.7"/>
   </g>
   <g id="line2d_22">
    <path d="M 343.274832 144 
L 343.274832 21.6 
" clip-path="url(#pe604f5c624)" style="fill: none; stroke-dasharray: 0.7,1.155; stroke-dashoffset: 0; stroke: #000000; stroke-width: 0.7"/>
   </g>
   <g id="line2d_23">
    <path d="M 74.986364 138.436364 
L 103.70318 137.524126 
L 128.693551 136.510528 
L 150.741598 135.395571 
L 170.861284 134.158982 
L 182.088437 133.378512 
L 189.047739 128.107806 
L 196.164387 122.43166 
L 203.433559 116.350075 
L 211.319355 109.457613 
L 220.019512 101.551553 
L 230.821288 91.415578 
L 262.990573 61.007655 
L 271.819338 53.101595 
L 279.617743 46.411852 
L 287.049457 40.330267 
L 294.085503 34.856841 
L 297.611563 32.221488 
L 300.956364 31.98836 
L 320.599736 30.690955 
L 341.223697 29.555726 
L 363.77487 28.542129 
L 389.123515 27.629891 
L 404.713636 27.163636 
L 404.713636 27.163636 
" clip-path="url(#pe604f5c624)" style="fill: none; stroke: #000000; stroke-width: 0.7; stroke-linecap: square"/>
   </g>
   <g id="patch_3">
    <path d="M 58.5 144 
L 58.5 21.6 
" style="fill: none; stroke: #000000; stroke-width: 0.5; stroke-linejoin: miter; stroke-linecap: square"/>
   </g>
   <g id="patch_4">
    <path d="M 58.5 144 
L 421.2 144 
" style="fill: none; stroke: #000000; stroke-width: 0.5; stroke-linejoin: miter; stroke-linecap: square"/>
   </g>
  </g>
 </g>
 <defs>
  <clipPath id="pe604f5c624">
   <rect x="58.5" y="21.6" width="362.7" height="122.4"/>
  </clipPath>
 </defs>
</svg>
