<?xml version="1.0" encoding="utf-8" standalone="no"?>
<!DOCTYPE svg PUBLIC "-//W3C//DTD SVG 1.1//EN"
  "http://www.w3.org/Graphics/SVG/1.1/DTD/svg11.dtd">
<svg xmlns:xlink="http://www.w3.org/1999/xlink" width="432pt" height="288pt" viewBox="0 0 432 288" xmlns="http://www.w3.org/2000/svg" version="1.1">
 <metadata>
  <rdf:RDF xmlns:dc="http://purl.org/dc/elements/1.1/" xmlns:cc="http://creativecommons.org/ns#" xmlns:rdf="http://www.w3.org/1999/02/22-rdf-syntax-ns#">
   <cc:Work>
    <dc:type rdf:resource="http://purl.org/dc/dcmitype/StillImage"/>
    <dc:date>2024-04-30T13:54:56.915912</dc:date>
    <dc:format>image/svg+xml</dc:format>
    <dc:creator>
     <cc:Agent>
      <dc:title>Matplotlib v3.8.3, https://matplotlib.org/</dc:title>
     </cc:Agent>
    </dc:creator>
   </cc:Work>
  </rdf:RDF>
 </metadata>
 <defs>
  <style type="text/css">*{stroke-linejoin: round; stroke-linecap: butt}</style>
 </defs>
 <g id="figure_1">
  <g id="patch_1">
   <path d="M 0 288 
L 432 288 
L 432 0 
L 0 0 
z
" style="fill: #ffffff"/>
  </g>
  <g id="axes_1">
   <g id="patch_2">
    <path d="M 60.089253 123.364578 
L 208.136296 123.364578 
L 208.136296 12.96 
L 60.089253 12.96 
z
" style="fill: #ffffff"/>
   </g>
   <g id="matplotlib.axis_1">
    <g id="xtick_1">
     <g id="line2d_1">
      <path d="M 66.818664 123.364578 
L 66.818664 12.96 
" clip-path="url(#p4d4be9220f)" style="fill: none; stroke: #d3d3d3; stroke-width: 0.2; stroke-linecap: square"/>
     </g>
     <g id="line2d_2">
      <defs>
       <path id="m2d18e4f113" d="M 0 0 
L 0 -3.5 
" style="stroke: #000000; stroke-width: 0.8"/>
      </defs>
      <g>
       <use xlink:href="#m2d18e4f113" x="66.818664" y="123.364578" style="stroke: #000000; stroke-width: 0.8"/>
      </g>
     </g>
     <g id="text_1">
      <!-- $\mathdefault{0}$ -->
      <g transform="translate(64.327996 133.783076) scale(0.1 -0.1)">
       <defs>
        <path id="CMR17-30" d="M 2688 2025 
C 2688 2416 2682 3080 2413 3591 
C 2176 4039 1798 4198 1466 4198 
C 1158 4198 768 4058 525 3597 
C 269 3118 243 2524 243 2025 
C 243 1661 250 1106 448 619 
C 723 -39 1216 -128 1466 -128 
C 1760 -128 2208 -7 2470 600 
C 2662 1042 2688 1559 2688 2025 
z
M 1466 -26 
C 1056 -26 813 325 723 812 
C 653 1188 653 1738 653 2096 
C 653 2588 653 2997 736 3387 
C 858 3929 1216 4096 1466 4096 
C 1728 4096 2067 3923 2189 3400 
C 2272 3036 2278 2607 2278 2096 
C 2278 1680 2278 1169 2202 792 
C 2067 95 1690 -26 1466 -26 
z
" transform="scale(0.015625)"/>
       </defs>
       <use xlink:href="#CMR17-30" transform="scale(0.996264)"/>
      </g>
     </g>
    </g>
    <g id="xtick_2">
     <g id="line2d_3">
      <path d="M 120.653952 123.364578 
L 120.653952 12.96 
" clip-path="url(#p4d4be9220f)" style="fill: none; stroke: #d3d3d3; stroke-width: 0.2; stroke-linecap: square"/>
     </g>
     <g id="line2d_4">
      <g>
       <use xlink:href="#m2d18e4f113" x="120.653952" y="123.364578" style="stroke: #000000; stroke-width: 0.8"/>
      </g>
     </g>
     <g id="text_2">
      <!-- $\mathdefault{2}$ -->
      <g transform="translate(118.163285 133.783076) scale(0.1 -0.1)">
       <defs>
        <path id="CMR17-32" d="M 2669 989 
L 2554 989 
C 2490 536 2438 459 2413 420 
C 2381 369 1920 369 1830 369 
L 602 369 
C 832 619 1280 1072 1824 1597 
C 2214 1967 2669 2402 2669 3035 
C 2669 3790 2067 4224 1395 4224 
C 691 4224 262 3604 262 3030 
C 262 2780 448 2748 525 2748 
C 589 2748 781 2787 781 3010 
C 781 3207 614 3264 525 3264 
C 486 3264 448 3258 422 3245 
C 544 3790 915 4058 1306 4058 
C 1862 4058 2227 3617 2227 3035 
C 2227 2479 1901 2000 1536 1584 
L 262 146 
L 262 0 
L 2515 0 
L 2669 989 
z
" transform="scale(0.015625)"/>
       </defs>
       <use xlink:href="#CMR17-32" transform="scale(0.996264)"/>
      </g>
     </g>
    </g>
    <g id="xtick_3">
     <g id="line2d_5">
      <path d="M 174.489241 123.364578 
L 174.489241 12.96 
" clip-path="url(#p4d4be9220f)" style="fill: none; stroke: #d3d3d3; stroke-width: 0.2; stroke-linecap: square"/>
     </g>
     <g id="line2d_6">
      <g>
       <use xlink:href="#m2d18e4f113" x="174.489241" y="123.364578" style="stroke: #000000; stroke-width: 0.8"/>
      </g>
     </g>
     <g id="text_3">
      <!-- $\mathdefault{4}$ -->
      <g transform="translate(171.998573 133.783076) scale(0.1 -0.1)">
       <defs>
        <path id="CMR17-34" d="M 2150 4122 
C 2150 4256 2144 4256 2029 4256 
L 128 1254 
L 128 1088 
L 1779 1088 
L 1779 457 
C 1779 224 1766 160 1318 160 
L 1197 160 
L 1197 0 
C 1402 0 1747 0 1965 0 
C 2182 0 2528 0 2733 0 
L 2733 160 
L 2611 160 
C 2163 160 2150 224 2150 457 
L 2150 1088 
L 2803 1088 
L 2803 1254 
L 2150 1254 
L 2150 4122 
z
M 1798 3703 
L 1798 1254 
L 256 1254 
L 1798 3703 
z
" transform="scale(0.015625)"/>
       </defs>
       <use xlink:href="#CMR17-34" transform="scale(0.996264)"/>
      </g>
     </g>
    </g>
    <g id="text_4">
     <!-- $x$ [m] -->
     <g transform="translate(120.706581 148.68663) scale(0.12 -0.12)">
      <defs>
       <path id="CMMI12-78" d="M 3034 2606 
C 2829 2567 2752 2414 2752 2293 
C 2752 2139 2874 2088 2963 2088 
C 3155 2088 3290 2254 3290 2427 
C 3290 2695 2982 2816 2714 2816 
C 2323 2816 2106 2433 2048 2312 
C 1901 2816 1504 2816 1389 2816 
C 736 2816 390 1980 390 1839 
C 390 1814 416 1782 461 1782 
C 512 1782 525 1820 538 1846 
C 755 2555 1184 2689 1370 2689 
C 1658 2689 1715 2420 1715 2267 
C 1715 2127 1677 1980 1600 1673 
L 1382 798 
C 1286 415 1101 64 762 64 
C 730 64 570 64 435 147 
C 666 192 717 383 717 460 
C 717 588 621 664 499 664 
C 346 664 179 530 179 326 
C 179 57 480 -64 755 -64 
C 1062 -64 1280 179 1414 441 
C 1517 64 1837 -64 2074 -64 
C 2726 -64 3072 773 3072 913 
C 3072 945 3046 971 3008 971 
C 2950 971 2944 939 2925 888 
C 2752 326 2381 64 2093 64 
C 1869 64 1747 230 1747 492 
C 1747 632 1773 734 1875 1156 
L 2099 2024 
C 2195 2408 2413 2689 2707 2689 
C 2720 2689 2899 2689 3034 2606 
z
" transform="scale(0.015625)"/>
       <path id="CMR17-5b" d="M 1504 -1600 
L 1504 -1377 
L 902 -1377 
L 902 4544 
L 1504 4544 
L 1504 4767 
L 678 4767 
L 678 -1600 
L 1504 -1600 
z
" transform="scale(0.015625)"/>
       <path id="CMR17-6d" d="M 4326 1933 
C 4326 2252 4269 2790 3507 2790 
C 3072 2790 2771 2496 2656 2151 
L 2650 2151 
C 2573 2676 2195 2790 1837 2790 
C 1331 2790 1069 2400 973 2144 
L 966 2144 
L 966 2790 
L 211 2720 
L 211 2554 
C 589 2554 646 2515 646 2208 
L 646 428 
C 646 184 621 153 211 153 
L 211 -13 
C 365 0 646 0 813 0 
C 979 0 1267 0 1421 -13 
L 1421 153 
C 1011 153 986 178 986 428 
L 986 1658 
C 986 2247 1344 2688 1792 2688 
C 2266 2688 2317 2266 2317 1958 
L 2317 428 
C 2317 184 2291 153 1882 153 
L 1882 -13 
C 2035 0 2317 0 2483 0 
C 2650 0 2938 0 3091 -13 
L 3091 153 
C 2682 153 2656 178 2656 428 
L 2656 1658 
C 2656 2247 3014 2688 3462 2688 
C 3936 2688 3987 2266 3987 1958 
L 3987 428 
C 3987 184 3962 153 3552 153 
L 3552 -13 
C 3706 0 3987 0 4154 0 
C 4320 0 4608 0 4762 -13 
L 4762 153 
C 4352 153 4326 178 4326 428 
L 4326 1933 
z
" transform="scale(0.015625)"/>
       <path id="CMR17-5d" d="M 915 4767 
L 90 4767 
L 90 4544 
L 691 4544 
L 691 -1377 
L 90 -1377 
L 90 -1600 
L 915 -1600 
L 915 4767 
z
" transform="scale(0.015625)"/>
      </defs>
      <use xlink:href="#CMMI12-78" transform="scale(0.996264)"/>
      <use xlink:href="#CMR17-5b" transform="translate(85.510026 0) scale(0.996264)"/>
      <use xlink:href="#CMR17-6d" transform="translate(110.381084 0) scale(0.996264)"/>
      <use xlink:href="#CMR17-5d" transform="translate(187.300674 0) scale(0.996264)"/>
     </g>
    </g>
   </g>
   <g id="matplotlib.axis_2">
    <g id="ytick_1">
     <g id="line2d_7">
      <path d="M 60.089253 118.346188 
L 208.136296 118.346188 
" clip-path="url(#p4d4be9220f)" style="fill: none; stroke: #d3d3d3; stroke-width: 0.2; stroke-linecap: square"/>
     </g>
     <g id="line2d_8">
      <defs>
       <path id="m969f168c0e" d="M 0 0 
L 3.5 0 
" style="stroke: #000000; stroke-width: 0.8"/>
      </defs>
      <g>
       <use xlink:href="#m969f168c0e" x="60.089253" y="118.346188" style="stroke: #000000; stroke-width: 0.8"/>
      </g>
     </g>
     <g id="text_5">
      <!-- $\mathdefault{0.00000}$ -->
      <g transform="translate(23.933833 121.805437) scale(0.1 -0.1)">
       <defs>
        <path id="CMMI12-3a" d="M 1178 307 
C 1178 492 1024 619 870 619 
C 685 619 557 466 557 313 
C 557 128 710 0 864 0 
C 1050 0 1178 153 1178 307 
z
" transform="scale(0.015625)"/>
       </defs>
       <use xlink:href="#CMR17-30" transform="scale(0.996264)"/>
       <use xlink:href="#CMMI12-3a" transform="translate(45.690477 0) scale(0.996264)"/>
       <use xlink:href="#CMR17-30" transform="translate(72.787654 0) scale(0.996264)"/>
       <use xlink:href="#CMR17-30" transform="translate(118.478131 0) scale(0.996264)"/>
       <use xlink:href="#CMR17-30" transform="translate(164.168608 0) scale(0.996264)"/>
       <use xlink:href="#CMR17-30" transform="translate(209.859086 0) scale(0.996264)"/>
       <use xlink:href="#CMR17-30" transform="translate(255.549563 0) scale(0.996264)"/>
      </g>
     </g>
    </g>
    <g id="ytick_2">
     <g id="line2d_9">
      <path d="M 60.089253 93.254238 
L 208.136296 93.254238 
" clip-path="url(#p4d4be9220f)" style="fill: none; stroke: #d3d3d3; stroke-width: 0.2; stroke-linecap: square"/>
     </g>
     <g id="line2d_10">
      <g>
       <use xlink:href="#m969f168c0e" x="60.089253" y="93.254238" style="stroke: #000000; stroke-width: 0.8"/>
      </g>
     </g>
     <g id="text_6">
      <!-- $\mathdefault{0.00025}$ -->
      <g transform="translate(23.933833 96.713487) scale(0.1 -0.1)">
       <defs>
        <path id="CMR17-35" d="M 730 3692 
C 794 3666 1056 3584 1325 3584 
C 1920 3584 2246 3911 2432 4100 
C 2432 4157 2432 4192 2394 4192 
C 2387 4192 2374 4192 2323 4163 
C 2099 4058 1837 3973 1517 3973 
C 1325 3973 1037 3999 723 4139 
C 653 4171 640 4171 634 4171 
C 602 4171 595 4164 595 4037 
L 595 2203 
C 595 2089 595 2057 659 2057 
C 691 2057 704 2070 736 2114 
C 941 2401 1222 2522 1542 2522 
C 1766 2522 2246 2382 2246 1289 
C 2246 1085 2246 715 2054 421 
C 1894 159 1645 25 1370 25 
C 947 25 518 320 403 814 
C 429 807 480 795 506 795 
C 589 795 749 840 749 1038 
C 749 1210 627 1280 506 1280 
C 358 1280 262 1190 262 1011 
C 262 454 704 -128 1382 -128 
C 2042 -128 2669 440 2669 1264 
C 2669 2030 2170 2624 1549 2624 
C 1222 2624 947 2503 730 2274 
L 730 3692 
z
" transform="scale(0.015625)"/>
       </defs>
       <use xlink:href="#CMR17-30" transform="scale(0.996264)"/>
       <use xlink:href="#CMMI12-3a" transform="translate(45.690477 0) scale(0.996264)"/>
       <use xlink:href="#CMR17-30" transform="translate(72.787654 0) scale(0.996264)"/>
       <use xlink:href="#CMR17-30" transform="translate(118.478131 0) scale(0.996264)"/>
       <use xlink:href="#CMR17-30" transform="translate(164.168608 0) scale(0.996264)"/>
       <use xlink:href="#CMR17-32" transform="translate(209.859086 0) scale(0.996264)"/>
       <use xlink:href="#CMR17-35" transform="translate(255.549563 0) scale(0.996264)"/>
      </g>
     </g>
    </g>
    <g id="ytick_3">
     <g id="line2d_11">
      <path d="M 60.089253 68.162289 
L 208.136296 68.162289 
" clip-path="url(#p4d4be9220f)" style="fill: none; stroke: #d3d3d3; stroke-width: 0.2; stroke-linecap: square"/>
     </g>
     <g id="line2d_12">
      <g>
       <use xlink:href="#m969f168c0e" x="60.089253" y="68.162289" style="stroke: #000000; stroke-width: 0.8"/>
      </g>
     </g>
     <g id="text_7">
      <!-- $\mathdefault{0.00050}$ -->
      <g transform="translate(23.933833 71.621538) scale(0.1 -0.1)">
       <use xlink:href="#CMR17-30" transform="scale(0.996264)"/>
       <use xlink:href="#CMMI12-3a" transform="translate(45.690477 0) scale(0.996264)"/>
       <use xlink:href="#CMR17-30" transform="translate(72.787654 0) scale(0.996264)"/>
       <use xlink:href="#CMR17-30" transform="translate(118.478131 0) scale(0.996264)"/>
       <use xlink:href="#CMR17-30" transform="translate(164.168608 0) scale(0.996264)"/>
       <use xlink:href="#CMR17-35" transform="translate(209.859086 0) scale(0.996264)"/>
       <use xlink:href="#CMR17-30" transform="translate(255.549563 0) scale(0.996264)"/>
      </g>
     </g>
    </g>
    <g id="ytick_4">
     <g id="line2d_13">
      <path d="M 60.089253 43.070339 
L 208.136296 43.070339 
" clip-path="url(#p4d4be9220f)" style="fill: none; stroke: #d3d3d3; stroke-width: 0.2; stroke-linecap: square"/>
     </g>
     <g id="line2d_14">
      <g>
       <use xlink:href="#m969f168c0e" x="60.089253" y="43.070339" style="stroke: #000000; stroke-width: 0.8"/>
      </g>
     </g>
     <g id="text_8">
      <!-- $\mathdefault{0.00075}$ -->
      <g transform="translate(23.933833 46.529589) scale(0.1 -0.1)">
       <defs>
        <path id="CMR17-37" d="M 2886 3941 
L 2886 4081 
L 1382 4081 
C 634 4081 621 4165 595 4288 
L 480 4288 
L 294 3094 
L 410 3094 
C 429 3215 474 3540 550 3661 
C 589 3712 1062 3712 1171 3712 
L 2579 3712 
L 1869 2661 
C 1395 1954 1069 999 1069 165 
C 1069 89 1069 -128 1299 -128 
C 1530 -128 1530 89 1530 171 
L 1530 465 
C 1530 1508 1709 2196 2003 2636 
L 2886 3941 
z
" transform="scale(0.015625)"/>
       </defs>
       <use xlink:href="#CMR17-30" transform="scale(0.996264)"/>
       <use xlink:href="#CMMI12-3a" transform="translate(45.690477 0) scale(0.996264)"/>
       <use xlink:href="#CMR17-30" transform="translate(72.787654 0) scale(0.996264)"/>
       <use xlink:href="#CMR17-30" transform="translate(118.478131 0) scale(0.996264)"/>
       <use xlink:href="#CMR17-30" transform="translate(164.168608 0) scale(0.996264)"/>
       <use xlink:href="#CMR17-37" transform="translate(209.859086 0) scale(0.996264)"/>
       <use xlink:href="#CMR17-35" transform="translate(255.549563 0) scale(0.996264)"/>
      </g>
     </g>
    </g>
    <g id="ytick_5">
     <g id="line2d_15">
      <path d="M 60.089253 17.97839 
L 208.136296 17.97839 
" clip-path="url(#p4d4be9220f)" style="fill: none; stroke: #d3d3d3; stroke-width: 0.2; stroke-linecap: square"/>
     </g>
     <g id="line2d_16">
      <g>
       <use xlink:href="#m969f168c0e" x="60.089253" y="17.97839" style="stroke: #000000; stroke-width: 0.8"/>
      </g>
     </g>
     <g id="text_9">
      <!-- $\mathdefault{0.00100}$ -->
      <g transform="translate(23.933833 21.437639) scale(0.1 -0.1)">
       <defs>
        <path id="CMR17-31" d="M 1702 4058 
C 1702 4192 1696 4192 1606 4192 
C 1357 3916 979 3827 621 3827 
C 602 3827 570 3827 563 3808 
C 557 3795 557 3782 557 3648 
C 755 3648 1088 3686 1344 3839 
L 1344 461 
C 1344 236 1331 160 781 160 
L 589 160 
L 589 0 
C 896 0 1216 0 1523 0 
C 1830 0 2150 0 2458 0 
L 2458 160 
L 2266 160 
C 1715 160 1702 230 1702 458 
L 1702 4058 
z
" transform="scale(0.015625)"/>
       </defs>
       <use xlink:href="#CMR17-30" transform="scale(0.996264)"/>
       <use xlink:href="#CMMI12-3a" transform="translate(45.690477 0) scale(0.996264)"/>
       <use xlink:href="#CMR17-30" transform="translate(72.787654 0) scale(0.996264)"/>
       <use xlink:href="#CMR17-30" transform="translate(118.478131 0) scale(0.996264)"/>
       <use xlink:href="#CMR17-31" transform="translate(164.168608 0) scale(0.996264)"/>
       <use xlink:href="#CMR17-30" transform="translate(209.859086 0) scale(0.996264)"/>
       <use xlink:href="#CMR17-30" transform="translate(255.549563 0) scale(0.996264)"/>
      </g>
     </g>
    </g>
    <g id="text_10">
     <!-- $V$ [kN] -->
     <g transform="translate(16.945041 85.554526) rotate(-90) scale(0.12 -0.12)">
      <defs>
       <path id="CMMI12-56" d="M 3962 3640 
C 4179 3984 4378 4136 4704 4162 
C 4768 4168 4819 4168 4819 4282 
C 4819 4308 4806 4346 4749 4346 
C 4634 4346 4358 4346 4243 4346 
C 4058 4346 3866 4346 3686 4346 
C 3635 4346 3571 4346 3571 4226 
C 3571 4168 3629 4162 3654 4162 
C 3891 4143 3917 4029 3917 3952 
C 3917 3857 3827 3710 3821 3704 
L 1811 540 
L 1363 3969 
C 1363 4160 1696 4160 1766 4160 
C 1862 4160 1920 4160 1920 4282 
C 1920 4346 1850 4346 1830 4346 
C 1722 4346 1594 4346 1485 4346 
L 1126 4346 
C 659 4346 467 4346 461 4346 
C 422 4346 346 4346 346 4230 
C 346 4160 390 4160 493 4160 
C 819 4160 838 4102 858 3944 
L 1370 24 
C 1389 -109 1389 -128 1478 -128 
C 1555 -128 1587 -109 1651 -8 
L 3962 3640 
z
" transform="scale(0.015625)"/>
       <path id="CMR17-6b" d="M 1670 1673 
C 1664 1686 1632 1724 1632 1743 
C 1632 1756 2086 2171 2144 2222 
C 2509 2528 2739 2560 2906 2560 
L 2906 2733 
C 2867 2733 2854 2733 2848 2720 
L 2534 2720 
C 2355 2720 2080 2720 1907 2733 
L 1907 2566 
C 1997 2559 2061 2508 2061 2419 
C 2061 2291 1933 2170 1926 2170 
L 960 1289 
L 960 4396 
L 198 4326 
L 198 4160 
C 576 4160 634 4122 634 3817 
L 634 426 
C 634 184 608 153 198 153 
L 198 -13 
C 352 0 634 0 794 0 
C 954 0 1235 0 1389 -13 
L 1389 153 
C 979 153 954 178 954 428 
L 954 1130 
L 1395 1532 
L 2042 574 
C 2118 459 2182 369 2182 286 
C 2182 172 2067 153 1990 153 
L 1990 -13 
C 2144 0 2419 0 2579 0 
C 2694 0 2931 0 3040 0 
L 3040 153 
C 2739 153 2669 210 2477 491 
L 1670 1673 
z
" transform="scale(0.015625)"/>
       <path id="CMR17-4e" d="M 1312 4250 
C 1267 4320 1261 4320 1139 4320 
L 326 4320 
L 326 4160 
L 448 4160 
C 704 4160 819 4129 838 4122 
L 838 610 
C 838 451 838 153 326 153 
L 326 -13 
C 474 0 742 0 902 0 
C 1062 0 1331 0 1478 -13 
L 1478 153 
C 966 153 966 451 966 610 
L 966 4033 
C 1011 3995 1011 3982 1056 3919 
L 3430 76 
C 3475 0 3494 0 3526 0 
C 3590 0 3590 19 3590 139 
L 3590 3705 
C 3590 3863 3590 4160 4102 4160 
L 4102 4326 
C 3955 4320 3686 4320 3526 4320 
C 3366 4320 3098 4320 2950 4326 
L 2950 4160 
C 3462 4160 3462 3862 3462 3703 
L 3462 763 
L 1312 4250 
z
" transform="scale(0.015625)"/>
      </defs>
      <use xlink:href="#CMMI12-56" transform="scale(0.996264)"/>
      <use xlink:href="#CMR17-5b" transform="translate(108.623287 0) scale(0.996264)"/>
      <use xlink:href="#CMR17-6b" transform="translate(133.494346 0) scale(0.996264)"/>
      <use xlink:href="#CMR17-4e" transform="translate(181.787261 0) scale(0.996264)"/>
      <use xlink:href="#CMR17-5d" transform="translate(250.859691 0) scale(0.996264)"/>
     </g>
    </g>
   </g>
   <g id="PolyCollection_1">
    <defs>
     <path id="m999ef004cd" d="M 66.818664 -169.653812 
L 66.818664 -270.02161 
L 67.08838 -270.02161 
L 67.358096 -270.02161 
L 67.627812 -270.02161 
L 67.897527 -270.02161 
L 68.167243 -270.02161 
L 68.436959 -270.02161 
L 68.706675 -270.02161 
L 68.976391 -270.02161 
L 69.246107 -270.02161 
L 69.515823 -270.02161 
L 69.785538 -270.02161 
L 70.055254 -270.02161 
L 70.32497 -270.02161 
L 70.594686 -270.02161 
L 70.864402 -270.02161 
L 71.134118 -270.02161 
L 71.403834 -270.02161 
L 71.67355 -270.02161 
L 71.943265 -270.02161 
L 72.212981 -270.02161 
L 72.482697 -270.02161 
L 72.752413 -270.02161 
L 73.022129 -270.02161 
L 73.291845 -270.02161 
L 73.561561 -270.02161 
L 73.831277 -270.02161 
L 74.100992 -270.02161 
L 74.370708 -270.02161 
L 74.640424 -270.02161 
L 74.91014 -270.02161 
L 75.179856 -270.02161 
L 75.449572 -270.02161 
L 75.719288 -270.02161 
L 75.989004 -270.02161 
L 76.258719 -270.02161 
L 76.528435 -270.02161 
L 76.798151 -270.02161 
L 77.067867 -270.02161 
L 77.337583 -270.02161 
L 77.607299 -270.02161 
L 77.877015 -270.02161 
L 78.146731 -270.02161 
L 78.416446 -270.02161 
L 78.686162 -270.02161 
L 78.955878 -270.02161 
L 79.225594 -270.02161 
L 79.49531 -270.02161 
L 79.765026 -270.02161 
L 80.034742 -270.02161 
L 80.304458 -270.02161 
L 80.574173 -270.02161 
L 80.843889 -270.02161 
L 81.113605 -270.02161 
L 81.383321 -270.02161 
L 81.653037 -270.02161 
L 81.922753 -270.02161 
L 82.192469 -270.02161 
L 82.462185 -270.02161 
L 82.7319 -270.02161 
L 83.001616 -270.02161 
L 83.271332 -270.02161 
L 83.541048 -270.02161 
L 83.810764 -270.02161 
L 84.08048 -270.02161 
L 84.350196 -270.02161 
L 84.619912 -270.02161 
L 84.889627 -270.02161 
L 85.159343 -270.02161 
L 85.429059 -270.02161 
L 85.698775 -270.02161 
L 85.968491 -270.02161 
L 86.238207 -270.02161 
L 86.507923 -270.02161 
L 86.777639 -270.02161 
L 87.047354 -270.02161 
L 87.31707 -270.02161 
L 87.586786 -270.02161 
L 87.856502 -270.02161 
L 88.126218 -270.02161 
L 88.395934 -270.02161 
L 88.66565 -270.02161 
L 88.935366 -270.02161 
L 89.205081 -270.02161 
L 89.474797 -270.02161 
L 89.744513 -270.02161 
L 90.014229 -270.02161 
L 90.283945 -270.02161 
L 90.553661 -270.02161 
L 90.823377 -270.02161 
L 91.093092 -270.02161 
L 91.362808 -270.02161 
L 91.632524 -270.02161 
L 91.90224 -270.02161 
L 92.171956 -270.02161 
L 92.441672 -270.02161 
L 92.711388 -270.02161 
L 92.981104 -270.02161 
L 93.250819 -270.02161 
L 93.520535 -270.02161 
L 93.790251 -270.02161 
L 94.059967 -270.02161 
L 94.329683 -270.02161 
L 94.599399 -270.02161 
L 94.869115 -270.02161 
L 95.138831 -270.02161 
L 95.408546 -270.02161 
L 95.678262 -270.02161 
L 95.947978 -270.02161 
L 96.217694 -270.02161 
L 96.48741 -270.02161 
L 96.757126 -270.02161 
L 97.026842 -270.02161 
L 97.296558 -270.02161 
L 97.566273 -270.02161 
L 97.835989 -270.02161 
L 98.105705 -270.02161 
L 98.375421 -270.02161 
L 98.645137 -270.02161 
L 98.914853 -270.02161 
L 99.184569 -270.02161 
L 99.454285 -270.02161 
L 99.724 -270.02161 
L 99.993716 -270.02161 
L 100.263432 -270.02161 
L 100.533148 -270.02161 
L 100.802864 -270.02161 
L 101.07258 -270.02161 
L 101.342296 -270.02161 
L 101.612012 -270.02161 
L 101.881727 -270.02161 
L 102.151443 -270.02161 
L 102.421159 -270.02161 
L 102.690875 -270.02161 
L 102.960591 -270.02161 
L 103.230307 -270.02161 
L 103.500023 -270.02161 
L 103.769739 -270.02161 
L 104.039454 -270.02161 
L 104.30917 -270.02161 
L 104.578886 -270.02161 
L 104.848602 -270.02161 
L 105.118318 -270.02161 
L 105.388034 -270.02161 
L 105.65775 -270.02161 
L 105.927466 -270.02161 
L 106.197181 -270.02161 
L 106.466897 -270.02161 
L 106.736613 -270.02161 
L 107.006329 -270.02161 
L 107.276045 -270.02161 
L 107.545761 -270.02161 
L 107.815477 -270.02161 
L 108.085193 -270.02161 
L 108.354908 -270.02161 
L 108.624624 -270.02161 
L 108.89434 -270.02161 
L 109.164056 -270.02161 
L 109.433772 -270.02161 
L 109.703488 -270.02161 
L 109.973204 -270.02161 
L 110.24292 -270.02161 
L 110.512635 -270.02161 
L 110.782351 -270.02161 
L 111.052067 -270.02161 
L 111.321783 -270.02161 
L 111.591499 -270.02161 
L 111.861215 -270.02161 
L 112.130931 -270.02161 
L 112.400646 -270.02161 
L 112.670362 -270.02161 
L 112.940078 -270.02161 
L 113.209794 -270.02161 
L 113.47951 -270.02161 
L 113.749226 -270.02161 
L 114.018942 -270.02161 
L 114.288658 -270.02161 
L 114.558373 -270.02161 
L 114.828089 -270.02161 
L 115.097805 -270.02161 
L 115.367521 -270.02161 
L 115.637237 -270.02161 
L 115.906953 -270.02161 
L 116.176669 -270.02161 
L 116.446385 -270.02161 
L 116.7161 -270.02161 
L 116.985816 -270.02161 
L 117.255532 -270.02161 
L 117.525248 -270.02161 
L 117.794964 -270.02161 
L 118.06468 -270.02161 
L 118.334396 -270.02161 
L 118.604112 -270.02161 
L 118.873827 -270.02161 
L 119.143543 -270.02161 
L 119.413259 -270.02161 
L 119.682975 -270.02161 
L 119.952691 -270.02161 
L 120.222407 -270.02161 
L 120.492123 -270.02161 
L 120.761839 -270.02161 
L 121.031554 -270.02161 
L 121.30127 -270.02161 
L 121.570986 -270.02161 
L 121.840702 -270.02161 
L 122.110418 -270.02161 
L 122.380134 -270.02161 
L 122.64985 -270.02161 
L 122.919566 -270.02161 
L 123.189281 -270.02161 
L 123.458997 -270.02161 
L 123.728713 -270.02161 
L 123.998429 -270.02161 
L 124.268145 -270.02161 
L 124.537861 -270.02161 
L 124.807577 -270.02161 
L 125.077293 -270.02161 
L 125.347008 -270.02161 
L 125.616724 -270.02161 
L 125.88644 -270.02161 
L 126.156156 -270.02161 
L 126.425872 -270.02161 
L 126.695588 -270.02161 
L 126.965304 -270.02161 
L 127.23502 -270.02161 
L 127.504735 -270.02161 
L 127.774451 -270.02161 
L 128.044167 -270.02161 
L 128.313883 -270.02161 
L 128.583599 -270.02161 
L 128.853315 -270.02161 
L 129.123031 -270.02161 
L 129.392747 -270.02161 
L 129.662462 -270.02161 
L 129.932178 -270.02161 
L 130.201894 -270.02161 
L 130.47161 -270.02161 
L 130.741326 -270.02161 
L 131.011042 -270.02161 
L 131.280758 -270.02161 
L 131.550474 -270.02161 
L 131.820189 -270.02161 
L 132.089905 -270.02161 
L 132.359621 -270.02161 
L 132.629337 -270.02161 
L 132.899053 -270.02161 
L 133.168769 -270.02161 
L 133.438485 -270.02161 
L 133.7082 -270.02161 
L 133.977916 -270.02161 
L 134.247632 -270.02161 
L 134.517348 -270.02161 
L 134.787064 -270.02161 
L 135.05678 -270.02161 
L 135.326496 -270.02161 
L 135.596212 -270.02161 
L 135.865927 -270.02161 
L 136.135643 -270.02161 
L 136.405359 -270.02161 
L 136.675075 -270.02161 
L 136.944791 -270.02161 
L 137.214507 -270.02161 
L 137.484223 -270.02161 
L 137.753939 -270.02161 
L 138.023654 -270.02161 
L 138.29337 -270.02161 
L 138.563086 -270.02161 
L 138.832802 -270.02161 
L 139.102518 -270.02161 
L 139.372234 -270.02161 
L 139.64195 -270.02161 
L 139.911666 -270.02161 
L 140.181381 -270.02161 
L 140.451097 -270.02161 
L 140.720813 -270.02161 
L 140.990529 -270.02161 
L 141.260245 -270.02161 
L 141.529961 -270.02161 
L 141.799677 -270.02161 
L 142.069393 -270.02161 
L 142.339108 -270.02161 
L 142.608824 -270.02161 
L 142.87854 -270.02161 
L 143.148256 -270.02161 
L 143.417972 -270.02161 
L 143.687688 -270.02161 
L 143.957404 -270.02161 
L 144.22712 -270.02161 
L 144.496835 -270.02161 
L 144.766551 -270.02161 
L 145.036267 -270.02161 
L 145.305983 -270.02161 
L 145.575699 -270.02161 
L 145.845415 -270.02161 
L 146.115131 -270.02161 
L 146.384847 -270.02161 
L 146.654562 -270.02161 
L 146.924278 -270.02161 
L 147.193994 -270.02161 
L 147.46371 -270.02161 
L 147.733426 -270.02161 
L 148.003142 -270.02161 
L 148.272858 -270.02161 
L 148.542574 -270.02161 
L 148.812289 -270.02161 
L 149.082005 -270.02161 
L 149.351721 -270.02161 
L 149.621437 -270.02161 
L 149.891153 -270.02161 
L 150.160869 -270.02161 
L 150.430585 -270.02161 
L 150.700301 -270.02161 
L 150.970016 -270.02161 
L 151.239732 -270.02161 
L 151.509448 -270.02161 
L 151.779164 -270.02161 
L 152.04888 -270.02161 
L 152.318596 -270.02161 
L 152.588312 -270.02161 
L 152.858028 -270.02161 
L 153.127743 -270.02161 
L 153.397459 -270.02161 
L 153.667175 -270.02161 
L 153.936891 -270.02161 
L 154.206607 -270.02161 
L 154.476323 -270.02161 
L 154.746039 -270.02161 
L 155.015754 -270.02161 
L 155.28547 -270.02161 
L 155.555186 -270.02161 
L 155.824902 -270.02161 
L 156.094618 -270.02161 
L 156.364334 -270.02161 
L 156.63405 -270.02161 
L 156.903766 -270.02161 
L 157.173481 -270.02161 
L 157.443197 -270.02161 
L 157.712913 -270.02161 
L 157.982629 -270.02161 
L 158.252345 -270.02161 
L 158.522061 -270.02161 
L 158.791777 -270.02161 
L 159.061493 -270.02161 
L 159.331208 -270.02161 
L 159.600924 -270.02161 
L 159.87064 -270.02161 
L 160.140356 -270.02161 
L 160.410072 -270.02161 
L 160.679788 -270.02161 
L 160.949504 -270.02161 
L 161.21922 -270.02161 
L 161.488935 -270.02161 
L 161.758651 -270.02161 
L 162.028367 -270.02161 
L 162.298083 -270.02161 
L 162.567799 -270.02161 
L 162.837515 -270.02161 
L 163.107231 -270.02161 
L 163.376947 -270.02161 
L 163.646662 -270.02161 
L 163.916378 -270.02161 
L 164.186094 -270.02161 
L 164.45581 -270.02161 
L 164.725526 -270.02161 
L 164.995242 -270.02161 
L 165.264958 -270.02161 
L 165.534674 -270.02161 
L 165.804389 -270.02161 
L 166.074105 -270.02161 
L 166.343821 -270.02161 
L 166.613537 -270.02161 
L 166.883253 -270.02161 
L 167.152969 -270.02161 
L 167.422685 -270.02161 
L 167.692401 -270.02161 
L 167.962116 -270.02161 
L 168.231832 -270.02161 
L 168.501548 -270.02161 
L 168.771264 -270.02161 
L 169.04098 -270.02161 
L 169.310696 -270.02161 
L 169.580412 -270.02161 
L 169.850128 -270.02161 
L 170.119843 -270.02161 
L 170.389559 -270.02161 
L 170.659275 -270.02161 
L 170.928991 -270.02161 
L 171.198707 -270.02161 
L 171.468423 -270.02161 
L 171.738139 -270.02161 
L 172.007855 -270.02161 
L 172.27757 -270.02161 
L 172.547286 -270.02161 
L 172.817002 -270.02161 
L 173.086718 -270.02161 
L 173.356434 -270.02161 
L 173.62615 -270.02161 
L 173.895866 -270.02161 
L 174.165582 -270.02161 
L 174.435297 -270.02161 
L 174.705013 -270.02161 
L 174.974729 -270.02161 
L 175.244445 -270.02161 
L 175.514161 -270.02161 
L 175.783877 -270.02161 
L 176.053593 -270.02161 
L 176.323308 -270.02161 
L 176.593024 -270.02161 
L 176.86274 -270.02161 
L 177.132456 -270.02161 
L 177.402172 -270.02161 
L 177.671888 -270.02161 
L 177.941604 -270.02161 
L 178.21132 -270.02161 
L 178.481035 -270.02161 
L 178.750751 -270.02161 
L 179.020467 -270.02161 
L 179.290183 -270.02161 
L 179.559899 -270.02161 
L 179.829615 -270.02161 
L 180.099331 -270.02161 
L 180.369047 -270.02161 
L 180.638762 -270.02161 
L 180.908478 -270.02161 
L 181.178194 -270.02161 
L 181.44791 -270.02161 
L 181.717626 -270.02161 
L 181.987342 -270.02161 
L 182.257058 -270.02161 
L 182.526774 -270.02161 
L 182.796489 -270.02161 
L 183.066205 -270.02161 
L 183.335921 -270.02161 
L 183.605637 -270.02161 
L 183.875353 -270.02161 
L 184.145069 -270.02161 
L 184.414785 -270.02161 
L 184.684501 -270.02161 
L 184.954216 -270.02161 
L 185.223932 -270.02161 
L 185.493648 -270.02161 
L 185.763364 -270.02161 
L 186.03308 -270.02161 
L 186.302796 -270.02161 
L 186.572512 -270.02161 
L 186.842228 -270.02161 
L 187.111943 -270.02161 
L 187.381659 -270.02161 
L 187.651375 -270.02161 
L 187.921091 -270.02161 
L 188.190807 -270.02161 
L 188.460523 -270.02161 
L 188.730239 -270.02161 
L 188.999955 -270.02161 
L 189.26967 -270.02161 
L 189.539386 -270.02161 
L 189.809102 -270.02161 
L 190.078818 -270.02161 
L 190.348534 -270.02161 
L 190.61825 -270.02161 
L 190.887966 -270.02161 
L 191.157682 -270.02161 
L 191.427397 -270.02161 
L 191.697113 -270.02161 
L 191.966829 -270.02161 
L 192.236545 -270.02161 
L 192.506261 -270.02161 
L 192.775977 -270.02161 
L 193.045693 -270.02161 
L 193.315409 -270.02161 
L 193.585124 -270.02161 
L 193.85484 -270.02161 
L 194.124556 -270.02161 
L 194.394272 -270.02161 
L 194.663988 -270.02161 
L 194.933704 -270.02161 
L 195.20342 -270.02161 
L 195.473136 -270.02161 
L 195.742851 -270.02161 
L 196.012567 -270.02161 
L 196.282283 -270.02161 
L 196.551999 -270.02161 
L 196.821715 -270.02161 
L 197.091431 -270.02161 
L 197.361147 -270.02161 
L 197.630862 -270.02161 
L 197.900578 -270.02161 
L 198.170294 -270.02161 
L 198.44001 -270.02161 
L 198.709726 -270.02161 
L 198.979442 -270.02161 
L 199.249158 -270.02161 
L 199.518874 -270.02161 
L 199.788589 -270.02161 
L 200.058305 -270.02161 
L 200.328021 -270.02161 
L 200.597737 -270.02161 
L 200.867453 -270.02161 
L 201.137169 -270.02161 
L 201.406885 -270.02161 
L 201.406885 -169.653812 
L 201.406885 -169.653812 
L 201.137169 -169.653812 
L 200.867453 -169.653812 
L 200.597737 -169.653812 
L 200.328021 -169.653812 
L 200.058305 -169.653812 
L 199.788589 -169.653812 
L 199.518874 -169.653812 
L 199.249158 -169.653812 
L 198.979442 -169.653812 
L 198.709726 -169.653812 
L 198.44001 -169.653812 
L 198.170294 -169.653812 
L 197.900578 -169.653812 
L 197.630862 -169.653812 
L 197.361147 -169.653812 
L 197.091431 -169.653812 
L 196.821715 -169.653812 
L 196.551999 -169.653812 
L 196.282283 -169.653812 
L 196.012567 -169.653812 
L 195.742851 -169.653812 
L 195.473136 -169.653812 
L 195.20342 -169.653812 
L 194.933704 -169.653812 
L 194.663988 -169.653812 
L 194.394272 -169.653812 
L 194.124556 -169.653812 
L 193.85484 -169.653812 
L 193.585124 -169.653812 
L 193.315409 -169.653812 
L 193.045693 -169.653812 
L 192.775977 -169.653812 
L 192.506261 -169.653812 
L 192.236545 -169.653812 
L 191.966829 -169.653812 
L 191.697113 -169.653812 
L 191.427397 -169.653812 
L 191.157682 -169.653812 
L 190.887966 -169.653812 
L 190.61825 -169.653812 
L 190.348534 -169.653812 
L 190.078818 -169.653812 
L 189.809102 -169.653812 
L 189.539386 -169.653812 
L 189.26967 -169.653812 
L 188.999955 -169.653812 
L 188.730239 -169.653812 
L 188.460523 -169.653812 
L 188.190807 -169.653812 
L 187.921091 -169.653812 
L 187.651375 -169.653812 
L 187.381659 -169.653812 
L 187.111943 -169.653812 
L 186.842228 -169.653812 
L 186.572512 -169.653812 
L 186.302796 -169.653812 
L 186.03308 -169.653812 
L 185.763364 -169.653812 
L 185.493648 -169.653812 
L 185.223932 -169.653812 
L 184.954216 -169.653812 
L 184.684501 -169.653812 
L 184.414785 -169.653812 
L 184.145069 -169.653812 
L 183.875353 -169.653812 
L 183.605637 -169.653812 
L 183.335921 -169.653812 
L 183.066205 -169.653812 
L 182.796489 -169.653812 
L 182.526774 -169.653812 
L 182.257058 -169.653812 
L 181.987342 -169.653812 
L 181.717626 -169.653812 
L 181.44791 -169.653812 
L 181.178194 -169.653812 
L 180.908478 -169.653812 
L 180.638762 -169.653812 
L 180.369047 -169.653812 
L 180.099331 -169.653812 
L 179.829615 -169.653812 
L 179.559899 -169.653812 
L 179.290183 -169.653812 
L 179.020467 -169.653812 
L 178.750751 -169.653812 
L 178.481035 -169.653812 
L 178.21132 -169.653812 
L 177.941604 -169.653812 
L 177.671888 -169.653812 
L 177.402172 -169.653812 
L 177.132456 -169.653812 
L 176.86274 -169.653812 
L 176.593024 -169.653812 
L 176.323308 -169.653812 
L 176.053593 -169.653812 
L 175.783877 -169.653812 
L 175.514161 -169.653812 
L 175.244445 -169.653812 
L 174.974729 -169.653812 
L 174.705013 -169.653812 
L 174.435297 -169.653812 
L 174.165582 -169.653812 
L 173.895866 -169.653812 
L 173.62615 -169.653812 
L 173.356434 -169.653812 
L 173.086718 -169.653812 
L 172.817002 -169.653812 
L 172.547286 -169.653812 
L 172.27757 -169.653812 
L 172.007855 -169.653812 
L 171.738139 -169.653812 
L 171.468423 -169.653812 
L 171.198707 -169.653812 
L 170.928991 -169.653812 
L 170.659275 -169.653812 
L 170.389559 -169.653812 
L 170.119843 -169.653812 
L 169.850128 -169.653812 
L 169.580412 -169.653812 
L 169.310696 -169.653812 
L 169.04098 -169.653812 
L 168.771264 -169.653812 
L 168.501548 -169.653812 
L 168.231832 -169.653812 
L 167.962116 -169.653812 
L 167.692401 -169.653812 
L 167.422685 -169.653812 
L 167.152969 -169.653812 
L 166.883253 -169.653812 
L 166.613537 -169.653812 
L 166.343821 -169.653812 
L 166.074105 -169.653812 
L 165.804389 -169.653812 
L 165.534674 -169.653812 
L 165.264958 -169.653812 
L 164.995242 -169.653812 
L 164.725526 -169.653812 
L 164.45581 -169.653812 
L 164.186094 -169.653812 
L 163.916378 -169.653812 
L 163.646662 -169.653812 
L 163.376947 -169.653812 
L 163.107231 -169.653812 
L 162.837515 -169.653812 
L 162.567799 -169.653812 
L 162.298083 -169.653812 
L 162.028367 -169.653812 
L 161.758651 -169.653812 
L 161.488935 -169.653812 
L 161.21922 -169.653812 
L 160.949504 -169.653812 
L 160.679788 -169.653812 
L 160.410072 -169.653812 
L 160.140356 -169.653812 
L 159.87064 -169.653812 
L 159.600924 -169.653812 
L 159.331208 -169.653812 
L 159.061493 -169.653812 
L 158.791777 -169.653812 
L 158.522061 -169.653812 
L 158.252345 -169.653812 
L 157.982629 -169.653812 
L 157.712913 -169.653812 
L 157.443197 -169.653812 
L 157.173481 -169.653812 
L 156.903766 -169.653812 
L 156.63405 -169.653812 
L 156.364334 -169.653812 
L 156.094618 -169.653812 
L 155.824902 -169.653812 
L 155.555186 -169.653812 
L 155.28547 -169.653812 
L 155.015754 -169.653812 
L 154.746039 -169.653812 
L 154.476323 -169.653812 
L 154.206607 -169.653812 
L 153.936891 -169.653812 
L 153.667175 -169.653812 
L 153.397459 -169.653812 
L 153.127743 -169.653812 
L 152.858028 -169.653812 
L 152.588312 -169.653812 
L 152.318596 -169.653812 
L 152.04888 -169.653812 
L 151.779164 -169.653812 
L 151.509448 -169.653812 
L 151.239732 -169.653812 
L 150.970016 -169.653812 
L 150.700301 -169.653812 
L 150.430585 -169.653812 
L 150.160869 -169.653812 
L 149.891153 -169.653812 
L 149.621437 -169.653812 
L 149.351721 -169.653812 
L 149.082005 -169.653812 
L 148.812289 -169.653812 
L 148.542574 -169.653812 
L 148.272858 -169.653812 
L 148.003142 -169.653812 
L 147.733426 -169.653812 
L 147.46371 -169.653812 
L 147.193994 -169.653812 
L 146.924278 -169.653812 
L 146.654562 -169.653812 
L 146.384847 -169.653812 
L 146.115131 -169.653812 
L 145.845415 -169.653812 
L 145.575699 -169.653812 
L 145.305983 -169.653812 
L 145.036267 -169.653812 
L 144.766551 -169.653812 
L 144.496835 -169.653812 
L 144.22712 -169.653812 
L 143.957404 -169.653812 
L 143.687688 -169.653812 
L 143.417972 -169.653812 
L 143.148256 -169.653812 
L 142.87854 -169.653812 
L 142.608824 -169.653812 
L 142.339108 -169.653812 
L 142.069393 -169.653812 
L 141.799677 -169.653812 
L 141.529961 -169.653812 
L 141.260245 -169.653812 
L 140.990529 -169.653812 
L 140.720813 -169.653812 
L 140.451097 -169.653812 
L 140.181381 -169.653812 
L 139.911666 -169.653812 
L 139.64195 -169.653812 
L 139.372234 -169.653812 
L 139.102518 -169.653812 
L 138.832802 -169.653812 
L 138.563086 -169.653812 
L 138.29337 -169.653812 
L 138.023654 -169.653812 
L 137.753939 -169.653812 
L 137.484223 -169.653812 
L 137.214507 -169.653812 
L 136.944791 -169.653812 
L 136.675075 -169.653812 
L 136.405359 -169.653812 
L 136.135643 -169.653812 
L 135.865927 -169.653812 
L 135.596212 -169.653812 
L 135.326496 -169.653812 
L 135.05678 -169.653812 
L 134.787064 -169.653812 
L 134.517348 -169.653812 
L 134.247632 -169.653812 
L 133.977916 -169.653812 
L 133.7082 -169.653812 
L 133.438485 -169.653812 
L 133.168769 -169.653812 
L 132.899053 -169.653812 
L 132.629337 -169.653812 
L 132.359621 -169.653812 
L 132.089905 -169.653812 
L 131.820189 -169.653812 
L 131.550474 -169.653812 
L 131.280758 -169.653812 
L 131.011042 -169.653812 
L 130.741326 -169.653812 
L 130.47161 -169.653812 
L 130.201894 -169.653812 
L 129.932178 -169.653812 
L 129.662462 -169.653812 
L 129.392747 -169.653812 
L 129.123031 -169.653812 
L 128.853315 -169.653812 
L 128.583599 -169.653812 
L 128.313883 -169.653812 
L 128.044167 -169.653812 
L 127.774451 -169.653812 
L 127.504735 -169.653812 
L 127.23502 -169.653812 
L 126.965304 -169.653812 
L 126.695588 -169.653812 
L 126.425872 -169.653812 
L 126.156156 -169.653812 
L 125.88644 -169.653812 
L 125.616724 -169.653812 
L 125.347008 -169.653812 
L 125.077293 -169.653812 
L 124.807577 -169.653812 
L 124.537861 -169.653812 
L 124.268145 -169.653812 
L 123.998429 -169.653812 
L 123.728713 -169.653812 
L 123.458997 -169.653812 
L 123.189281 -169.653812 
L 122.919566 -169.653812 
L 122.64985 -169.653812 
L 122.380134 -169.653812 
L 122.110418 -169.653812 
L 121.840702 -169.653812 
L 121.570986 -169.653812 
L 121.30127 -169.653812 
L 121.031554 -169.653812 
L 120.761839 -169.653812 
L 120.492123 -169.653812 
L 120.222407 -169.653812 
L 119.952691 -169.653812 
L 119.682975 -169.653812 
L 119.413259 -169.653812 
L 119.143543 -169.653812 
L 118.873827 -169.653812 
L 118.604112 -169.653812 
L 118.334396 -169.653812 
L 118.06468 -169.653812 
L 117.794964 -169.653812 
L 117.525248 -169.653812 
L 117.255532 -169.653812 
L 116.985816 -169.653812 
L 116.7161 -169.653812 
L 116.446385 -169.653812 
L 116.176669 -169.653812 
L 115.906953 -169.653812 
L 115.637237 -169.653812 
L 115.367521 -169.653812 
L 115.097805 -169.653812 
L 114.828089 -169.653812 
L 114.558373 -169.653812 
L 114.288658 -169.653812 
L 114.018942 -169.653812 
L 113.749226 -169.653812 
L 113.47951 -169.653812 
L 113.209794 -169.653812 
L 112.940078 -169.653812 
L 112.670362 -169.653812 
L 112.400646 -169.653812 
L 112.130931 -169.653812 
L 111.861215 -169.653812 
L 111.591499 -169.653812 
L 111.321783 -169.653812 
L 111.052067 -169.653812 
L 110.782351 -169.653812 
L 110.512635 -169.653812 
L 110.24292 -169.653812 
L 109.973204 -169.653812 
L 109.703488 -169.653812 
L 109.433772 -169.653812 
L 109.164056 -169.653812 
L 108.89434 -169.653812 
L 108.624624 -169.653812 
L 108.354908 -169.653812 
L 108.085193 -169.653812 
L 107.815477 -169.653812 
L 107.545761 -169.653812 
L 107.276045 -169.653812 
L 107.006329 -169.653812 
L 106.736613 -169.653812 
L 106.466897 -169.653812 
L 106.197181 -169.653812 
L 105.927466 -169.653812 
L 105.65775 -169.653812 
L 105.388034 -169.653812 
L 105.118318 -169.653812 
L 104.848602 -169.653812 
L 104.578886 -169.653812 
L 104.30917 -169.653812 
L 104.039454 -169.653812 
L 103.769739 -169.653812 
L 103.500023 -169.653812 
L 103.230307 -169.653812 
L 102.960591 -169.653812 
L 102.690875 -169.653812 
L 102.421159 -169.653812 
L 102.151443 -169.653812 
L 101.881727 -169.653812 
L 101.612012 -169.653812 
L 101.342296 -169.653812 
L 101.07258 -169.653812 
L 100.802864 -169.653812 
L 100.533148 -169.653812 
L 100.263432 -169.653812 
L 99.993716 -169.653812 
L 99.724 -169.653812 
L 99.454285 -169.653812 
L 99.184569 -169.653812 
L 98.914853 -169.653812 
L 98.645137 -169.653812 
L 98.375421 -169.653812 
L 98.105705 -169.653812 
L 97.835989 -169.653812 
L 97.566273 -169.653812 
L 97.296558 -169.653812 
L 97.026842 -169.653812 
L 96.757126 -169.653812 
L 96.48741 -169.653812 
L 96.217694 -169.653812 
L 95.947978 -169.653812 
L 95.678262 -169.653812 
L 95.408546 -169.653812 
L 95.138831 -169.653812 
L 94.869115 -169.653812 
L 94.599399 -169.653812 
L 94.329683 -169.653812 
L 94.059967 -169.653812 
L 93.790251 -169.653812 
L 93.520535 -169.653812 
L 93.250819 -169.653812 
L 92.981104 -169.653812 
L 92.711388 -169.653812 
L 92.441672 -169.653812 
L 92.171956 -169.653812 
L 91.90224 -169.653812 
L 91.632524 -169.653812 
L 91.362808 -169.653812 
L 91.093092 -169.653812 
L 90.823377 -169.653812 
L 90.553661 -169.653812 
L 90.283945 -169.653812 
L 90.014229 -169.653812 
L 89.744513 -169.653812 
L 89.474797 -169.653812 
L 89.205081 -169.653812 
L 88.935366 -169.653812 
L 88.66565 -169.653812 
L 88.395934 -169.653812 
L 88.126218 -169.653812 
L 87.856502 -169.653812 
L 87.586786 -169.653812 
L 87.31707 -169.653812 
L 87.047354 -169.653812 
L 86.777639 -169.653812 
L 86.507923 -169.653812 
L 86.238207 -169.653812 
L 85.968491 -169.653812 
L 85.698775 -169.653812 
L 85.429059 -169.653812 
L 85.159343 -169.653812 
L 84.889627 -169.653812 
L 84.619912 -169.653812 
L 84.350196 -169.653812 
L 84.08048 -169.653812 
L 83.810764 -169.653812 
L 83.541048 -169.653812 
L 83.271332 -169.653812 
L 83.001616 -169.653812 
L 82.7319 -169.653812 
L 82.462185 -169.653812 
L 82.192469 -169.653812 
L 81.922753 -169.653812 
L 81.653037 -169.653812 
L 81.383321 -169.653812 
L 81.113605 -169.653812 
L 80.843889 -169.653812 
L 80.574173 -169.653812 
L 80.304458 -169.653812 
L 80.034742 -169.653812 
L 79.765026 -169.653812 
L 79.49531 -169.653812 
L 79.225594 -169.653812 
L 78.955878 -169.653812 
L 78.686162 -169.653812 
L 78.416446 -169.653812 
L 78.146731 -169.653812 
L 77.877015 -169.653812 
L 77.607299 -169.653812 
L 77.337583 -169.653812 
L 77.067867 -169.653812 
L 76.798151 -169.653812 
L 76.528435 -169.653812 
L 76.258719 -169.653812 
L 75.989004 -169.653812 
L 75.719288 -169.653812 
L 75.449572 -169.653812 
L 75.179856 -169.653812 
L 74.91014 -169.653812 
L 74.640424 -169.653812 
L 74.370708 -169.653812 
L 74.100992 -169.653812 
L 73.831277 -169.653812 
L 73.561561 -169.653812 
L 73.291845 -169.653812 
L 73.022129 -169.653812 
L 72.752413 -169.653812 
L 72.482697 -169.653812 
L 72.212981 -169.653812 
L 71.943265 -169.653812 
L 71.67355 -169.653812 
L 71.403834 -169.653812 
L 71.134118 -169.653812 
L 70.864402 -169.653812 
L 70.594686 -169.653812 
L 70.32497 -169.653812 
L 70.055254 -169.653812 
L 69.785538 -169.653812 
L 69.515823 -169.653812 
L 69.246107 -169.653812 
L 68.976391 -169.653812 
L 68.706675 -169.653812 
L 68.436959 -169.653812 
L 68.167243 -169.653812 
L 67.897527 -169.653812 
L 67.627812 -169.653812 
L 67.358096 -169.653812 
L 67.08838 -169.653812 
L 66.818664 -169.653812 
z
" style="stroke: #000000; stroke-opacity: 0.1; stroke-width: 0.5"/>
    </defs>
    <g clip-path="url(#p4d4be9220f)">
     <use xlink:href="#m999ef004cd" x="0" y="288" style="fill-opacity: 0.1; stroke: #000000; stroke-opacity: 0.1; stroke-width: 0.5"/>
    </g>
   </g>
   <g id="line2d_17">
    <path d="M 66.818664 17.97839 
L 201.406885 17.97839 
L 201.406885 17.97839 
" clip-path="url(#p4d4be9220f)" style="fill: none; stroke: #000000; stroke-opacity: 0.5; stroke-width: 0.7; stroke-linecap: square"/>
   </g>
   <g id="line2d_18">
    <path d="M 66.818664 118.346188 
L 201.406885 118.346188 
L 201.406885 118.346188 
" clip-path="url(#p4d4be9220f)" style="fill: none; stroke: #000000; stroke-width: 0.7; stroke-linecap: square"/>
   </g>
   <g id="patch_3">
    <path d="M 60.089253 123.364578 
L 60.089253 12.96 
" style="fill: none; stroke: #000000; stroke-width: 0.5; stroke-linejoin: miter; stroke-linecap: square"/>
   </g>
   <g id="patch_4">
    <path d="M 60.089253 123.364578 
L 208.136296 123.364578 
" style="fill: none; stroke: #000000; stroke-width: 0.5; stroke-linejoin: miter; stroke-linecap: square"/>
   </g>
  </g>
  <g id="axes_2">
   <g id="patch_5">
    <path d="M 270.992957 123.364578 
L 419.04 123.364578 
L 419.04 12.96 
L 270.992957 12.96 
z
" style="fill: #ffffff"/>
   </g>
   <g id="matplotlib.axis_3">
    <g id="xtick_4">
     <g id="line2d_19">
      <path d="M 277.722368 123.364578 
L 277.722368 12.96 
" clip-path="url(#p43ab3c4a8d)" style="fill: none; stroke: #d3d3d3; stroke-width: 0.2; stroke-linecap: square"/>
     </g>
     <g id="line2d_20">
      <g>
       <use xlink:href="#m2d18e4f113" x="277.722368" y="123.364578" style="stroke: #000000; stroke-width: 0.8"/>
      </g>
     </g>
     <g id="text_11">
      <!-- $\mathdefault{0}$ -->
      <g transform="translate(275.231701 133.783076) scale(0.1 -0.1)">
       <use xlink:href="#CMR17-30" transform="scale(0.996264)"/>
      </g>
     </g>
    </g>
    <g id="xtick_5">
     <g id="line2d_21">
      <path d="M 331.557656 123.364578 
L 331.557656 12.96 
" clip-path="url(#p43ab3c4a8d)" style="fill: none; stroke: #d3d3d3; stroke-width: 0.2; stroke-linecap: square"/>
     </g>
     <g id="line2d_22">
      <g>
       <use xlink:href="#m2d18e4f113" x="331.557656" y="123.364578" style="stroke: #000000; stroke-width: 0.8"/>
      </g>
     </g>
     <g id="text_12">
      <!-- $\mathdefault{2}$ -->
      <g transform="translate(329.066989 133.783076) scale(0.1 -0.1)">
       <use xlink:href="#CMR17-32" transform="scale(0.996264)"/>
      </g>
     </g>
    </g>
    <g id="xtick_6">
     <g id="line2d_23">
      <path d="M 385.392945 123.364578 
L 385.392945 12.96 
" clip-path="url(#p43ab3c4a8d)" style="fill: none; stroke: #d3d3d3; stroke-width: 0.2; stroke-linecap: square"/>
     </g>
     <g id="line2d_24">
      <g>
       <use xlink:href="#m2d18e4f113" x="385.392945" y="123.364578" style="stroke: #000000; stroke-width: 0.8"/>
      </g>
     </g>
     <g id="text_13">
      <!-- $\mathdefault{4}$ -->
      <g transform="translate(382.902277 133.783076) scale(0.1 -0.1)">
       <use xlink:href="#CMR17-34" transform="scale(0.996264)"/>
      </g>
     </g>
    </g>
    <g id="text_14">
     <!-- $x$ [m] -->
     <g transform="translate(331.610285 148.68663) scale(0.12 -0.12)">
      <use xlink:href="#CMMI12-78" transform="scale(0.996264)"/>
      <use xlink:href="#CMR17-5b" transform="translate(85.510026 0) scale(0.996264)"/>
      <use xlink:href="#CMR17-6d" transform="translate(110.381084 0) scale(0.996264)"/>
      <use xlink:href="#CMR17-5d" transform="translate(187.300674 0) scale(0.996264)"/>
     </g>
    </g>
   </g>
   <g id="matplotlib.axis_4">
    <g id="ytick_6">
     <g id="line2d_25">
      <path d="M 270.992957 38.051949 
L 419.04 38.051949 
" clip-path="url(#p43ab3c4a8d)" style="fill: none; stroke: #d3d3d3; stroke-width: 0.2; stroke-linecap: square"/>
     </g>
     <g id="line2d_26">
      <g>
       <use xlink:href="#m969f168c0e" x="270.992957" y="38.051949" style="stroke: #000000; stroke-width: 0.8"/>
      </g>
     </g>
     <g id="text_15">
      <!-- $\mathdefault{−0.004}$ -->
      <g transform="translate(237.051464 41.511199) scale(0.1 -0.1)">
       <defs>
        <path id="CMSY10-0" d="M 4218 1472 
C 4326 1472 4442 1472 4442 1600 
C 4442 1728 4326 1728 4218 1728 
L 755 1728 
C 646 1728 531 1728 531 1600 
C 531 1472 646 1472 755 1472 
L 4218 1472 
z
" transform="scale(0.015625)"/>
       </defs>
       <use xlink:href="#CMSY10-0" transform="scale(0.996264)"/>
       <use xlink:href="#CMR17-30" transform="translate(77.487468 0) scale(0.996264)"/>
       <use xlink:href="#CMMI12-3a" transform="translate(123.177945 0) scale(0.996264)"/>
       <use xlink:href="#CMR17-30" transform="translate(150.275122 0) scale(0.996264)"/>
       <use xlink:href="#CMR17-30" transform="translate(195.965599 0) scale(0.996264)"/>
       <use xlink:href="#CMR17-34" transform="translate(241.656076 0) scale(0.996264)"/>
      </g>
     </g>
    </g>
    <g id="ytick_7">
     <g id="line2d_27">
      <path d="M 270.992957 78.199069 
L 419.04 78.199069 
" clip-path="url(#p43ab3c4a8d)" style="fill: none; stroke: #d3d3d3; stroke-width: 0.2; stroke-linecap: square"/>
     </g>
     <g id="line2d_28">
      <g>
       <use xlink:href="#m969f168c0e" x="270.992957" y="78.199069" style="stroke: #000000; stroke-width: 0.8"/>
      </g>
     </g>
     <g id="text_16">
      <!-- $\mathdefault{−0.002}$ -->
      <g transform="translate(237.051464 81.658318) scale(0.1 -0.1)">
       <use xlink:href="#CMSY10-0" transform="scale(0.996264)"/>
       <use xlink:href="#CMR17-30" transform="translate(77.487468 0) scale(0.996264)"/>
       <use xlink:href="#CMMI12-3a" transform="translate(123.177945 0) scale(0.996264)"/>
       <use xlink:href="#CMR17-30" transform="translate(150.275122 0) scale(0.996264)"/>
       <use xlink:href="#CMR17-30" transform="translate(195.965599 0) scale(0.996264)"/>
       <use xlink:href="#CMR17-32" transform="translate(241.656076 0) scale(0.996264)"/>
      </g>
     </g>
    </g>
    <g id="ytick_8">
     <g id="line2d_29">
      <path d="M 270.992957 118.346188 
L 419.04 118.346188 
" clip-path="url(#p43ab3c4a8d)" style="fill: none; stroke: #d3d3d3; stroke-width: 0.2; stroke-linecap: square"/>
     </g>
     <g id="line2d_30">
      <g>
       <use xlink:href="#m969f168c0e" x="270.992957" y="118.346188" style="stroke: #000000; stroke-width: 0.8"/>
      </g>
     </g>
     <g id="text_17">
      <!-- $\mathdefault{0.000}$ -->
      <g transform="translate(244.800208 121.805437) scale(0.1 -0.1)">
       <use xlink:href="#CMR17-30" transform="scale(0.996264)"/>
       <use xlink:href="#CMMI12-3a" transform="translate(45.690477 0) scale(0.996264)"/>
       <use xlink:href="#CMR17-30" transform="translate(72.787654 0) scale(0.996264)"/>
       <use xlink:href="#CMR17-30" transform="translate(118.478131 0) scale(0.996264)"/>
       <use xlink:href="#CMR17-30" transform="translate(164.168608 0) scale(0.996264)"/>
      </g>
     </g>
    </g>
    <g id="text_18">
     <!-- $M$ [kNm] -->
     <g transform="translate(230.062672 92.005988) rotate(-90) scale(0.12 -0.12)">
      <defs>
       <path id="CMMI12-4d" d="M 5811 3886 
C 5869 4103 5882 4167 6336 4167 
C 6458 4167 6515 4167 6515 4288 
C 6515 4352 6470 4352 6349 4352 
L 5581 4352 
C 5421 4352 5414 4346 5344 4243 
L 3008 562 
L 2528 4211 
C 2509 4352 2502 4352 2336 4352 
L 1542 4352 
C 1421 4352 1363 4352 1363 4231 
C 1363 4167 1421 4167 1517 4167 
C 1907 4167 1907 4116 1907 4046 
C 1907 4034 1907 3995 1882 3899 
L 1062 634 
C 986 327 838 186 410 186 
C 390 186 314 186 314 73 
C 314 0 371 0 397 0 
C 525 0 851 0 979 0 
L 1286 0 
C 1376 0 1485 0 1574 0 
C 1619 0 1690 0 1690 122 
C 1690 180 1626 186 1600 186 
C 1389 186 1184 224 1184 454 
C 1184 518 1184 524 1210 613 
L 2093 4129 
L 2099 4129 
L 2630 172 
C 2650 19 2656 0 2714 0 
C 2784 0 2816 51 2848 109 
L 5421 4161 
L 5427 4161 
L 4499 473 
C 4442 250 4429 186 3981 186 
C 3859 186 3795 186 3795 70 
C 3795 0 3853 0 3891 0 
C 4000 0 4128 0 4237 0 
L 4992 0 
C 5101 0 5235 0 5344 0 
C 5395 0 5466 0 5466 122 
C 5466 186 5408 186 5312 186 
C 4922 186 4922 234 4922 294 
C 4922 301 4922 345 4934 396 
L 5811 3886 
z
" transform="scale(0.015625)"/>
      </defs>
      <use xlink:href="#CMMI12-4d" transform="scale(0.996264)"/>
      <use xlink:href="#CMR17-5b" transform="translate(134.856045 0) scale(0.996264)"/>
      <use xlink:href="#CMR17-6b" transform="translate(159.727104 0) scale(0.996264)"/>
      <use xlink:href="#CMR17-4e" transform="translate(208.02002 0) scale(0.996264)"/>
      <use xlink:href="#CMR17-6d" transform="translate(277.092449 0) scale(0.996264)"/>
      <use xlink:href="#CMR17-5d" transform="translate(354.012039 0) scale(0.996264)"/>
     </g>
    </g>
   </g>
   <g id="PolyCollection_2">
    <defs>
     <path id="m54bc98d24e" d="M 277.722368 -169.653812 
L 277.722368 -270.02161 
L 277.992084 -269.820472 
L 278.2618 -269.619334 
L 278.531516 -269.418196 
L 278.801232 -269.217059 
L 279.070947 -269.015921 
L 279.340663 -268.814783 
L 279.610379 -268.613645 
L 279.880095 -268.412507 
L 280.149811 -268.211369 
L 280.419527 -268.010231 
L 280.689243 -267.809094 
L 280.958959 -267.607956 
L 281.228674 -267.406818 
L 281.49839 -267.20568 
L 281.768106 -267.004542 
L 282.037822 -266.803404 
L 282.307538 -266.602266 
L 282.577254 -266.401128 
L 282.84697 -266.199991 
L 283.116686 -265.998853 
L 283.386401 -265.797715 
L 283.656117 -265.596577 
L 283.925833 -265.395439 
L 284.195549 -265.194301 
L 284.465265 -264.993163 
L 284.734981 -264.792025 
L 285.004697 -264.590888 
L 285.274413 -264.38975 
L 285.544128 -264.188612 
L 285.813844 -263.987474 
L 286.08356 -263.786336 
L 286.353276 -263.585198 
L 286.622992 -263.38406 
L 286.892708 -263.182922 
L 287.162424 -262.981785 
L 287.43214 -262.780647 
L 287.701855 -262.579509 
L 287.971571 -262.378371 
L 288.241287 -262.177233 
L 288.511003 -261.976095 
L 288.780719 -261.774957 
L 289.050435 -261.57382 
L 289.320151 -261.372682 
L 289.589867 -261.171544 
L 289.859582 -260.970406 
L 290.129298 -260.769268 
L 290.399014 -260.56813 
L 290.66873 -260.366992 
L 290.938446 -260.165854 
L 291.208162 -259.964717 
L 291.477878 -259.763579 
L 291.747594 -259.562441 
L 292.017309 -259.361303 
L 292.287025 -259.160165 
L 292.556741 -258.959027 
L 292.826457 -258.757889 
L 293.096173 -258.556751 
L 293.365889 -258.355614 
L 293.635605 -258.154476 
L 293.905321 -257.953338 
L 294.175036 -257.7522 
L 294.444752 -257.551062 
L 294.714468 -257.349924 
L 294.984184 -257.148786 
L 295.2539 -256.947648 
L 295.523616 -256.746511 
L 295.793332 -256.545373 
L 296.063048 -256.344235 
L 296.332763 -256.143097 
L 296.602479 -255.941959 
L 296.872195 -255.740821 
L 297.141911 -255.539683 
L 297.411627 -255.338546 
L 297.681343 -255.137408 
L 297.951059 -254.93627 
L 298.220775 -254.735132 
L 298.49049 -254.533994 
L 298.760206 -254.332856 
L 299.029922 -254.131718 
L 299.299638 -253.93058 
L 299.569354 -253.729443 
L 299.83907 -253.528305 
L 300.108786 -253.327167 
L 300.378501 -253.126029 
L 300.648217 -252.924891 
L 300.917933 -252.723753 
L 301.187649 -252.522615 
L 301.457365 -252.321477 
L 301.727081 -252.12034 
L 301.996797 -251.919202 
L 302.266513 -251.718064 
L 302.536228 -251.516926 
L 302.805944 -251.315788 
L 303.07566 -251.11465 
L 303.345376 -250.913512 
L 303.615092 -250.712374 
L 303.884808 -250.511237 
L 304.154524 -250.310099 
L 304.42424 -250.108961 
L 304.693955 -249.907823 
L 304.963671 -249.706685 
L 305.233387 -249.505547 
L 305.503103 -249.304409 
L 305.772819 -249.103271 
L 306.042535 -248.902134 
L 306.312251 -248.700996 
L 306.581967 -248.499858 
L 306.851682 -248.29872 
L 307.121398 -248.097582 
L 307.391114 -247.896444 
L 307.66083 -247.695306 
L 307.930546 -247.494169 
L 308.200262 -247.293031 
L 308.469978 -247.091893 
L 308.739694 -246.890755 
L 309.009409 -246.689617 
L 309.279125 -246.488479 
L 309.548841 -246.287341 
L 309.818557 -246.086203 
L 310.088273 -245.885066 
L 310.357989 -245.683928 
L 310.627705 -245.48279 
L 310.897421 -245.281652 
L 311.167136 -245.080514 
L 311.436852 -244.879376 
L 311.706568 -244.678238 
L 311.976284 -244.4771 
L 312.246 -244.275963 
L 312.515716 -244.074825 
L 312.785432 -243.873687 
L 313.055148 -243.672549 
L 313.324863 -243.471411 
L 313.594579 -243.270273 
L 313.864295 -243.069135 
L 314.134011 -242.867997 
L 314.403727 -242.66686 
L 314.673443 -242.465722 
L 314.943159 -242.264584 
L 315.212875 -242.063446 
L 315.48259 -241.862308 
L 315.752306 -241.66117 
L 316.022022 -241.460032 
L 316.291738 -241.258895 
L 316.561454 -241.057757 
L 316.83117 -240.856619 
L 317.100886 -240.655481 
L 317.370602 -240.454343 
L 317.640317 -240.253205 
L 317.910033 -240.052067 
L 318.179749 -239.850929 
L 318.449465 -239.649792 
L 318.719181 -239.448654 
L 318.988897 -239.247516 
L 319.258613 -239.046378 
L 319.528329 -238.84524 
L 319.798044 -238.644102 
L 320.06776 -238.442964 
L 320.337476 -238.241826 
L 320.607192 -238.040689 
L 320.876908 -237.839551 
L 321.146624 -237.638413 
L 321.41634 -237.437275 
L 321.686055 -237.236137 
L 321.955771 -237.034999 
L 322.225487 -236.833861 
L 322.495203 -236.632723 
L 322.764919 -236.431586 
L 323.034635 -236.230448 
L 323.304351 -236.02931 
L 323.574067 -235.828172 
L 323.843782 -235.627034 
L 324.113498 -235.425896 
L 324.383214 -235.224758 
L 324.65293 -235.02362 
L 324.922646 -234.822483 
L 325.192362 -234.621345 
L 325.462078 -234.420207 
L 325.731794 -234.219069 
L 326.001509 -234.017931 
L 326.271225 -233.816793 
L 326.540941 -233.615655 
L 326.810657 -233.414518 
L 327.080373 -233.21338 
L 327.350089 -233.012242 
L 327.619805 -232.811104 
L 327.889521 -232.609966 
L 328.159236 -232.408828 
L 328.428952 -232.20769 
L 328.698668 -232.006552 
L 328.968384 -231.805415 
L 329.2381 -231.604277 
L 329.507816 -231.403139 
L 329.777532 -231.202001 
L 330.047248 -231.000863 
L 330.316963 -230.799725 
L 330.586679 -230.598587 
L 330.856395 -230.397449 
L 331.126111 -230.196312 
L 331.395827 -229.995174 
L 331.665543 -229.794036 
L 331.935259 -229.592898 
L 332.204975 -229.39176 
L 332.47469 -229.190622 
L 332.744406 -228.989484 
L 333.014122 -228.788346 
L 333.283838 -228.587209 
L 333.553554 -228.386071 
L 333.82327 -228.184933 
L 334.092986 -227.983795 
L 334.362702 -227.782657 
L 334.632417 -227.581519 
L 334.902133 -227.380381 
L 335.171849 -227.179244 
L 335.441565 -226.978106 
L 335.711281 -226.776968 
L 335.980997 -226.57583 
L 336.250713 -226.374692 
L 336.520429 -226.173554 
L 336.790144 -225.972416 
L 337.05986 -225.771278 
L 337.329576 -225.570141 
L 337.599292 -225.369003 
L 337.869008 -225.167865 
L 338.138724 -224.966727 
L 338.40844 -224.765589 
L 338.678156 -224.564451 
L 338.947871 -224.363313 
L 339.217587 -224.162175 
L 339.487303 -223.961038 
L 339.757019 -223.7599 
L 340.026735 -223.558762 
L 340.296451 -223.357624 
L 340.566167 -223.156486 
L 340.835883 -222.955348 
L 341.105598 -222.75421 
L 341.375314 -222.553072 
L 341.64503 -222.351935 
L 341.914746 -222.150797 
L 342.184462 -221.949659 
L 342.454178 -221.748521 
L 342.723894 -221.547383 
L 342.993609 -221.346245 
L 343.263325 -221.145107 
L 343.533041 -220.943969 
L 343.802757 -220.742832 
L 344.072473 -220.541694 
L 344.342189 -220.340556 
L 344.611905 -220.139418 
L 344.881621 -219.93828 
L 345.151336 -219.737142 
L 345.421052 -219.536004 
L 345.690768 -219.334867 
L 345.960484 -219.133729 
L 346.2302 -218.932591 
L 346.499916 -218.731453 
L 346.769632 -218.530315 
L 347.039348 -218.329177 
L 347.309063 -218.128039 
L 347.578779 -217.926901 
L 347.848495 -217.725764 
L 348.118211 -217.524626 
L 348.387927 -217.323488 
L 348.657643 -217.12235 
L 348.927359 -216.921212 
L 349.197075 -216.720074 
L 349.46679 -216.518936 
L 349.736506 -216.317798 
L 350.006222 -216.116661 
L 350.275938 -215.915523 
L 350.545654 -215.714385 
L 350.81537 -215.513247 
L 351.085086 -215.312109 
L 351.354802 -215.110971 
L 351.624517 -214.909833 
L 351.894233 -214.708695 
L 352.163949 -214.507558 
L 352.433665 -214.30642 
L 352.703381 -214.105282 
L 352.973097 -213.904144 
L 353.242813 -213.703006 
L 353.512529 -213.501868 
L 353.782244 -213.30073 
L 354.05196 -213.099593 
L 354.321676 -212.898455 
L 354.591392 -212.697317 
L 354.861108 -212.496179 
L 355.130824 -212.295041 
L 355.40054 -212.093903 
L 355.670256 -211.892765 
L 355.939971 -211.691627 
L 356.209687 -211.49049 
L 356.479403 -211.289352 
L 356.749119 -211.088214 
L 357.018835 -210.887076 
L 357.288551 -210.685938 
L 357.558267 -210.4848 
L 357.827983 -210.283662 
L 358.097698 -210.082524 
L 358.367414 -209.881387 
L 358.63713 -209.680249 
L 358.906846 -209.479111 
L 359.176562 -209.277973 
L 359.446278 -209.076835 
L 359.715994 -208.875697 
L 359.98571 -208.674559 
L 360.255425 -208.473421 
L 360.525141 -208.272284 
L 360.794857 -208.071146 
L 361.064573 -207.870008 
L 361.334289 -207.66887 
L 361.604005 -207.467732 
L 361.873721 -207.266594 
L 362.143437 -207.065456 
L 362.413152 -206.864319 
L 362.682868 -206.663181 
L 362.952584 -206.462043 
L 363.2223 -206.260905 
L 363.492016 -206.059767 
L 363.761732 -205.858629 
L 364.031448 -205.657491 
L 364.301163 -205.456353 
L 364.570879 -205.255216 
L 364.840595 -205.054078 
L 365.110311 -204.85294 
L 365.380027 -204.651802 
L 365.649743 -204.450664 
L 365.919459 -204.249526 
L 366.189175 -204.048388 
L 366.45889 -203.84725 
L 366.728606 -203.646113 
L 366.998322 -203.444975 
L 367.268038 -203.243837 
L 367.537754 -203.042699 
L 367.80747 -202.841561 
L 368.077186 -202.640423 
L 368.346902 -202.439285 
L 368.616617 -202.238147 
L 368.886333 -202.03701 
L 369.156049 -201.835872 
L 369.425765 -201.634734 
L 369.695481 -201.433596 
L 369.965197 -201.232458 
L 370.234913 -201.03132 
L 370.504629 -200.830182 
L 370.774344 -200.629044 
L 371.04406 -200.427907 
L 371.313776 -200.226769 
L 371.583492 -200.025631 
L 371.853208 -199.824493 
L 372.122924 -199.623355 
L 372.39264 -199.422217 
L 372.662356 -199.221079 
L 372.932071 -199.019942 
L 373.201787 -198.818804 
L 373.471503 -198.617666 
L 373.741219 -198.416528 
L 374.010935 -198.21539 
L 374.280651 -198.014252 
L 374.550367 -197.813114 
L 374.820083 -197.611976 
L 375.089798 -197.410839 
L 375.359514 -197.209701 
L 375.62923 -197.008563 
L 375.898946 -196.807425 
L 376.168662 -196.606287 
L 376.438378 -196.405149 
L 376.708094 -196.204011 
L 376.97781 -196.002873 
L 377.247525 -195.801736 
L 377.517241 -195.600598 
L 377.786957 -195.39946 
L 378.056673 -195.198322 
L 378.326389 -194.997184 
L 378.596105 -194.796046 
L 378.865821 -194.594908 
L 379.135537 -194.39377 
L 379.405252 -194.192633 
L 379.674968 -193.991495 
L 379.944684 -193.790357 
L 380.2144 -193.589219 
L 380.484116 -193.388081 
L 380.753832 -193.186943 
L 381.023548 -192.985805 
L 381.293264 -192.784668 
L 381.562979 -192.58353 
L 381.832695 -192.382392 
L 382.102411 -192.181254 
L 382.372127 -191.980116 
L 382.641843 -191.778978 
L 382.911559 -191.57784 
L 383.181275 -191.376702 
L 383.450991 -191.175565 
L 383.720706 -190.974427 
L 383.990422 -190.773289 
L 384.260138 -190.572151 
L 384.529854 -190.371013 
L 384.79957 -190.169875 
L 385.069286 -189.968737 
L 385.339002 -189.767599 
L 385.608717 -189.566462 
L 385.878433 -189.365324 
L 386.148149 -189.164186 
L 386.417865 -188.963048 
L 386.687581 -188.76191 
L 386.957297 -188.560772 
L 387.227013 -188.359634 
L 387.496729 -188.158496 
L 387.766444 -187.957359 
L 388.03616 -187.756221 
L 388.305876 -187.555083 
L 388.575592 -187.353945 
L 388.845308 -187.152807 
L 389.115024 -186.951669 
L 389.38474 -186.750531 
L 389.654456 -186.549393 
L 389.924171 -186.348256 
L 390.193887 -186.147118 
L 390.463603 -185.94598 
L 390.733319 -185.744842 
L 391.003035 -185.543704 
L 391.272751 -185.342566 
L 391.542467 -185.141428 
L 391.812183 -184.940291 
L 392.081898 -184.739153 
L 392.351614 -184.538015 
L 392.62133 -184.336877 
L 392.891046 -184.135739 
L 393.160762 -183.934601 
L 393.430478 -183.733463 
L 393.700194 -183.532325 
L 393.96991 -183.331188 
L 394.239625 -183.13005 
L 394.509341 -182.928912 
L 394.779057 -182.727774 
L 395.048773 -182.526636 
L 395.318489 -182.325498 
L 395.588205 -182.12436 
L 395.857921 -181.923222 
L 396.127637 -181.722085 
L 396.397352 -181.520947 
L 396.667068 -181.319809 
L 396.936784 -181.118671 
L 397.2065 -180.917533 
L 397.476216 -180.716395 
L 397.745932 -180.515257 
L 398.015648 -180.314119 
L 398.285364 -180.112982 
L 398.555079 -179.911844 
L 398.824795 -179.710706 
L 399.094511 -179.509568 
L 399.364227 -179.30843 
L 399.633943 -179.107292 
L 399.903659 -178.906154 
L 400.173375 -178.705017 
L 400.443091 -178.503879 
L 400.712806 -178.302741 
L 400.982522 -178.101603 
L 401.252238 -177.900465 
L 401.521954 -177.699327 
L 401.79167 -177.498189 
L 402.061386 -177.297051 
L 402.331102 -177.095914 
L 402.600818 -176.894776 
L 402.870533 -176.693638 
L 403.140249 -176.4925 
L 403.409965 -176.291362 
L 403.679681 -176.090224 
L 403.949397 -175.889086 
L 404.219113 -175.687948 
L 404.488829 -175.486811 
L 404.758545 -175.285673 
L 405.02826 -175.084535 
L 405.297976 -174.883397 
L 405.567692 -174.682259 
L 405.837408 -174.481121 
L 406.107124 -174.279983 
L 406.37684 -174.078845 
L 406.646556 -173.877708 
L 406.916271 -173.67657 
L 407.185987 -173.475432 
L 407.455703 -173.274294 
L 407.725419 -173.073156 
L 407.995135 -172.872018 
L 408.264851 -172.67088 
L 408.534567 -172.469743 
L 408.804283 -172.268605 
L 409.073998 -172.067467 
L 409.343714 -171.866329 
L 409.61343 -171.665191 
L 409.883146 -171.464053 
L 410.152862 -171.262915 
L 410.422578 -171.061777 
L 410.692294 -170.86064 
L 410.96201 -170.659502 
L 411.231725 -170.458364 
L 411.501441 -170.257226 
L 411.771157 -170.056088 
L 412.040873 -169.85495 
L 412.310589 -169.653812 
L 412.310589 -169.653812 
L 412.310589 -169.653812 
L 412.040873 -169.653812 
L 411.771157 -169.653812 
L 411.501441 -169.653812 
L 411.231725 -169.653812 
L 410.96201 -169.653812 
L 410.692294 -169.653812 
L 410.422578 -169.653812 
L 410.152862 -169.653812 
L 409.883146 -169.653812 
L 409.61343 -169.653812 
L 409.343714 -169.653812 
L 409.073998 -169.653812 
L 408.804283 -169.653812 
L 408.534567 -169.653812 
L 408.264851 -169.653812 
L 407.995135 -169.653812 
L 407.725419 -169.653812 
L 407.455703 -169.653812 
L 407.185987 -169.653812 
L 406.916271 -169.653812 
L 406.646556 -169.653812 
L 406.37684 -169.653812 
L 406.107124 -169.653812 
L 405.837408 -169.653812 
L 405.567692 -169.653812 
L 405.297976 -169.653812 
L 405.02826 -169.653812 
L 404.758545 -169.653812 
L 404.488829 -169.653812 
L 404.219113 -169.653812 
L 403.949397 -169.653812 
L 403.679681 -169.653812 
L 403.409965 -169.653812 
L 403.140249 -169.653812 
L 402.870533 -169.653812 
L 402.600818 -169.653812 
L 402.331102 -169.653812 
L 402.061386 -169.653812 
L 401.79167 -169.653812 
L 401.521954 -169.653812 
L 401.252238 -169.653812 
L 400.982522 -169.653812 
L 400.712806 -169.653812 
L 400.443091 -169.653812 
L 400.173375 -169.653812 
L 399.903659 -169.653812 
L 399.633943 -169.653812 
L 399.364227 -169.653812 
L 399.094511 -169.653812 
L 398.824795 -169.653812 
L 398.555079 -169.653812 
L 398.285364 -169.653812 
L 398.015648 -169.653812 
L 397.745932 -169.653812 
L 397.476216 -169.653812 
L 397.2065 -169.653812 
L 396.936784 -169.653812 
L 396.667068 -169.653812 
L 396.397352 -169.653812 
L 396.127637 -169.653812 
L 395.857921 -169.653812 
L 395.588205 -169.653812 
L 395.318489 -169.653812 
L 395.048773 -169.653812 
L 394.779057 -169.653812 
L 394.509341 -169.653812 
L 394.239625 -169.653812 
L 393.96991 -169.653812 
L 393.700194 -169.653812 
L 393.430478 -169.653812 
L 393.160762 -169.653812 
L 392.891046 -169.653812 
L 392.62133 -169.653812 
L 392.351614 -169.653812 
L 392.081898 -169.653812 
L 391.812183 -169.653812 
L 391.542467 -169.653812 
L 391.272751 -169.653812 
L 391.003035 -169.653812 
L 390.733319 -169.653812 
L 390.463603 -169.653812 
L 390.193887 -169.653812 
L 389.924171 -169.653812 
L 389.654456 -169.653812 
L 389.38474 -169.653812 
L 389.115024 -169.653812 
L 388.845308 -169.653812 
L 388.575592 -169.653812 
L 388.305876 -169.653812 
L 388.03616 -169.653812 
L 387.766444 -169.653812 
L 387.496729 -169.653812 
L 387.227013 -169.653812 
L 386.957297 -169.653812 
L 386.687581 -169.653812 
L 386.417865 -169.653812 
L 386.148149 -169.653812 
L 385.878433 -169.653812 
L 385.608717 -169.653812 
L 385.339002 -169.653812 
L 385.069286 -169.653812 
L 384.79957 -169.653812 
L 384.529854 -169.653812 
L 384.260138 -169.653812 
L 383.990422 -169.653812 
L 383.720706 -169.653812 
L 383.450991 -169.653812 
L 383.181275 -169.653812 
L 382.911559 -169.653812 
L 382.641843 -169.653812 
L 382.372127 -169.653812 
L 382.102411 -169.653812 
L 381.832695 -169.653812 
L 381.562979 -169.653812 
L 381.293264 -169.653812 
L 381.023548 -169.653812 
L 380.753832 -169.653812 
L 380.484116 -169.653812 
L 380.2144 -169.653812 
L 379.944684 -169.653812 
L 379.674968 -169.653812 
L 379.405252 -169.653812 
L 379.135537 -169.653812 
L 378.865821 -169.653812 
L 378.596105 -169.653812 
L 378.326389 -169.653812 
L 378.056673 -169.653812 
L 377.786957 -169.653812 
L 377.517241 -169.653812 
L 377.247525 -169.653812 
L 376.97781 -169.653812 
L 376.708094 -169.653812 
L 376.438378 -169.653812 
L 376.168662 -169.653812 
L 375.898946 -169.653812 
L 375.62923 -169.653812 
L 375.359514 -169.653812 
L 375.089798 -169.653812 
L 374.820083 -169.653812 
L 374.550367 -169.653812 
L 374.280651 -169.653812 
L 374.010935 -169.653812 
L 373.741219 -169.653812 
L 373.471503 -169.653812 
L 373.201787 -169.653812 
L 372.932071 -169.653812 
L 372.662356 -169.653812 
L 372.39264 -169.653812 
L 372.122924 -169.653812 
L 371.853208 -169.653812 
L 371.583492 -169.653812 
L 371.313776 -169.653812 
L 371.04406 -169.653812 
L 370.774344 -169.653812 
L 370.504629 -169.653812 
L 370.234913 -169.653812 
L 369.965197 -169.653812 
L 369.695481 -169.653812 
L 369.425765 -169.653812 
L 369.156049 -169.653812 
L 368.886333 -169.653812 
L 368.616617 -169.653812 
L 368.346902 -169.653812 
L 368.077186 -169.653812 
L 367.80747 -169.653812 
L 367.537754 -169.653812 
L 367.268038 -169.653812 
L 366.998322 -169.653812 
L 366.728606 -169.653812 
L 366.45889 -169.653812 
L 366.189175 -169.653812 
L 365.919459 -169.653812 
L 365.649743 -169.653812 
L 365.380027 -169.653812 
L 365.110311 -169.653812 
L 364.840595 -169.653812 
L 364.570879 -169.653812 
L 364.301163 -169.653812 
L 364.031448 -169.653812 
L 363.761732 -169.653812 
L 363.492016 -169.653812 
L 363.2223 -169.653812 
L 362.952584 -169.653812 
L 362.682868 -169.653812 
L 362.413152 -169.653812 
L 362.143437 -169.653812 
L 361.873721 -169.653812 
L 361.604005 -169.653812 
L 361.334289 -169.653812 
L 361.064573 -169.653812 
L 360.794857 -169.653812 
L 360.525141 -169.653812 
L 360.255425 -169.653812 
L 359.98571 -169.653812 
L 359.715994 -169.653812 
L 359.446278 -169.653812 
L 359.176562 -169.653812 
L 358.906846 -169.653812 
L 358.63713 -169.653812 
L 358.367414 -169.653812 
L 358.097698 -169.653812 
L 357.827983 -169.653812 
L 357.558267 -169.653812 
L 357.288551 -169.653812 
L 357.018835 -169.653812 
L 356.749119 -169.653812 
L 356.479403 -169.653812 
L 356.209687 -169.653812 
L 355.939971 -169.653812 
L 355.670256 -169.653812 
L 355.40054 -169.653812 
L 355.130824 -169.653812 
L 354.861108 -169.653812 
L 354.591392 -169.653812 
L 354.321676 -169.653812 
L 354.05196 -169.653812 
L 353.782244 -169.653812 
L 353.512529 -169.653812 
L 353.242813 -169.653812 
L 352.973097 -169.653812 
L 352.703381 -169.653812 
L 352.433665 -169.653812 
L 352.163949 -169.653812 
L 351.894233 -169.653812 
L 351.624517 -169.653812 
L 351.354802 -169.653812 
L 351.085086 -169.653812 
L 350.81537 -169.653812 
L 350.545654 -169.653812 
L 350.275938 -169.653812 
L 350.006222 -169.653812 
L 349.736506 -169.653812 
L 349.46679 -169.653812 
L 349.197075 -169.653812 
L 348.927359 -169.653812 
L 348.657643 -169.653812 
L 348.387927 -169.653812 
L 348.118211 -169.653812 
L 347.848495 -169.653812 
L 347.578779 -169.653812 
L 347.309063 -169.653812 
L 347.039348 -169.653812 
L 346.769632 -169.653812 
L 346.499916 -169.653812 
L 346.2302 -169.653812 
L 345.960484 -169.653812 
L 345.690768 -169.653812 
L 345.421052 -169.653812 
L 345.151336 -169.653812 
L 344.881621 -169.653812 
L 344.611905 -169.653812 
L 344.342189 -169.653812 
L 344.072473 -169.653812 
L 343.802757 -169.653812 
L 343.533041 -169.653812 
L 343.263325 -169.653812 
L 342.993609 -169.653812 
L 342.723894 -169.653812 
L 342.454178 -169.653812 
L 342.184462 -169.653812 
L 341.914746 -169.653812 
L 341.64503 -169.653812 
L 341.375314 -169.653812 
L 341.105598 -169.653812 
L 340.835883 -169.653812 
L 340.566167 -169.653812 
L 340.296451 -169.653812 
L 340.026735 -169.653812 
L 339.757019 -169.653812 
L 339.487303 -169.653812 
L 339.217587 -169.653812 
L 338.947871 -169.653812 
L 338.678156 -169.653812 
L 338.40844 -169.653812 
L 338.138724 -169.653812 
L 337.869008 -169.653812 
L 337.599292 -169.653812 
L 337.329576 -169.653812 
L 337.05986 -169.653812 
L 336.790144 -169.653812 
L 336.520429 -169.653812 
L 336.250713 -169.653812 
L 335.980997 -169.653812 
L 335.711281 -169.653812 
L 335.441565 -169.653812 
L 335.171849 -169.653812 
L 334.902133 -169.653812 
L 334.632417 -169.653812 
L 334.362702 -169.653812 
L 334.092986 -169.653812 
L 333.82327 -169.653812 
L 333.553554 -169.653812 
L 333.283838 -169.653812 
L 333.014122 -169.653812 
L 332.744406 -169.653812 
L 332.47469 -169.653812 
L 332.204975 -169.653812 
L 331.935259 -169.653812 
L 331.665543 -169.653812 
L 331.395827 -169.653812 
L 331.126111 -169.653812 
L 330.856395 -169.653812 
L 330.586679 -169.653812 
L 330.316963 -169.653812 
L 330.047248 -169.653812 
L 329.777532 -169.653812 
L 329.507816 -169.653812 
L 329.2381 -169.653812 
L 328.968384 -169.653812 
L 328.698668 -169.653812 
L 328.428952 -169.653812 
L 328.159236 -169.653812 
L 327.889521 -169.653812 
L 327.619805 -169.653812 
L 327.350089 -169.653812 
L 327.080373 -169.653812 
L 326.810657 -169.653812 
L 326.540941 -169.653812 
L 326.271225 -169.653812 
L 326.001509 -169.653812 
L 325.731794 -169.653812 
L 325.462078 -169.653812 
L 325.192362 -169.653812 
L 324.922646 -169.653812 
L 324.65293 -169.653812 
L 324.383214 -169.653812 
L 324.113498 -169.653812 
L 323.843782 -169.653812 
L 323.574067 -169.653812 
L 323.304351 -169.653812 
L 323.034635 -169.653812 
L 322.764919 -169.653812 
L 322.495203 -169.653812 
L 322.225487 -169.653812 
L 321.955771 -169.653812 
L 321.686055 -169.653812 
L 321.41634 -169.653812 
L 321.146624 -169.653812 
L 320.876908 -169.653812 
L 320.607192 -169.653812 
L 320.337476 -169.653812 
L 320.06776 -169.653812 
L 319.798044 -169.653812 
L 319.528329 -169.653812 
L 319.258613 -169.653812 
L 318.988897 -169.653812 
L 318.719181 -169.653812 
L 318.449465 -169.653812 
L 318.179749 -169.653812 
L 317.910033 -169.653812 
L 317.640317 -169.653812 
L 317.370602 -169.653812 
L 317.100886 -169.653812 
L 316.83117 -169.653812 
L 316.561454 -169.653812 
L 316.291738 -169.653812 
L 316.022022 -169.653812 
L 315.752306 -169.653812 
L 315.48259 -169.653812 
L 315.212875 -169.653812 
L 314.943159 -169.653812 
L 314.673443 -169.653812 
L 314.403727 -169.653812 
L 314.134011 -169.653812 
L 313.864295 -169.653812 
L 313.594579 -169.653812 
L 313.324863 -169.653812 
L 313.055148 -169.653812 
L 312.785432 -169.653812 
L 312.515716 -169.653812 
L 312.246 -169.653812 
L 311.976284 -169.653812 
L 311.706568 -169.653812 
L 311.436852 -169.653812 
L 311.167136 -169.653812 
L 310.897421 -169.653812 
L 310.627705 -169.653812 
L 310.357989 -169.653812 
L 310.088273 -169.653812 
L 309.818557 -169.653812 
L 309.548841 -169.653812 
L 309.279125 -169.653812 
L 309.009409 -169.653812 
L 308.739694 -169.653812 
L 308.469978 -169.653812 
L 308.200262 -169.653812 
L 307.930546 -169.653812 
L 307.66083 -169.653812 
L 307.391114 -169.653812 
L 307.121398 -169.653812 
L 306.851682 -169.653812 
L 306.581967 -169.653812 
L 306.312251 -169.653812 
L 306.042535 -169.653812 
L 305.772819 -169.653812 
L 305.503103 -169.653812 
L 305.233387 -169.653812 
L 304.963671 -169.653812 
L 304.693955 -169.653812 
L 304.42424 -169.653812 
L 304.154524 -169.653812 
L 303.884808 -169.653812 
L 303.615092 -169.653812 
L 303.345376 -169.653812 
L 303.07566 -169.653812 
L 302.805944 -169.653812 
L 302.536228 -169.653812 
L 302.266513 -169.653812 
L 301.996797 -169.653812 
L 301.727081 -169.653812 
L 301.457365 -169.653812 
L 301.187649 -169.653812 
L 300.917933 -169.653812 
L 300.648217 -169.653812 
L 300.378501 -169.653812 
L 300.108786 -169.653812 
L 299.83907 -169.653812 
L 299.569354 -169.653812 
L 299.299638 -169.653812 
L 299.029922 -169.653812 
L 298.760206 -169.653812 
L 298.49049 -169.653812 
L 298.220775 -169.653812 
L 297.951059 -169.653812 
L 297.681343 -169.653812 
L 297.411627 -169.653812 
L 297.141911 -169.653812 
L 296.872195 -169.653812 
L 296.602479 -169.653812 
L 296.332763 -169.653812 
L 296.063048 -169.653812 
L 295.793332 -169.653812 
L 295.523616 -169.653812 
L 295.2539 -169.653812 
L 294.984184 -169.653812 
L 294.714468 -169.653812 
L 294.444752 -169.653812 
L 294.175036 -169.653812 
L 293.905321 -169.653812 
L 293.635605 -169.653812 
L 293.365889 -169.653812 
L 293.096173 -169.653812 
L 292.826457 -169.653812 
L 292.556741 -169.653812 
L 292.287025 -169.653812 
L 292.017309 -169.653812 
L 291.747594 -169.653812 
L 291.477878 -169.653812 
L 291.208162 -169.653812 
L 290.938446 -169.653812 
L 290.66873 -169.653812 
L 290.399014 -169.653812 
L 290.129298 -169.653812 
L 289.859582 -169.653812 
L 289.589867 -169.653812 
L 289.320151 -169.653812 
L 289.050435 -169.653812 
L 288.780719 -169.653812 
L 288.511003 -169.653812 
L 288.241287 -169.653812 
L 287.971571 -169.653812 
L 287.701855 -169.653812 
L 287.43214 -169.653812 
L 287.162424 -169.653812 
L 286.892708 -169.653812 
L 286.622992 -169.653812 
L 286.353276 -169.653812 
L 286.08356 -169.653812 
L 285.813844 -169.653812 
L 285.544128 -169.653812 
L 285.274413 -169.653812 
L 285.004697 -169.653812 
L 284.734981 -169.653812 
L 284.465265 -169.653812 
L 284.195549 -169.653812 
L 283.925833 -169.653812 
L 283.656117 -169.653812 
L 283.386401 -169.653812 
L 283.116686 -169.653812 
L 282.84697 -169.653812 
L 282.577254 -169.653812 
L 282.307538 -169.653812 
L 282.037822 -169.653812 
L 281.768106 -169.653812 
L 281.49839 -169.653812 
L 281.228674 -169.653812 
L 280.958959 -169.653812 
L 280.689243 -169.653812 
L 280.419527 -169.653812 
L 280.149811 -169.653812 
L 279.880095 -169.653812 
L 279.610379 -169.653812 
L 279.340663 -169.653812 
L 279.070947 -169.653812 
L 278.801232 -169.653812 
L 278.531516 -169.653812 
L 278.2618 -169.653812 
L 277.992084 -169.653812 
L 277.722368 -169.653812 
z
" style="stroke: #000000; stroke-opacity: 0.1; stroke-width: 0.5"/>
    </defs>
    <g clip-path="url(#p43ab3c4a8d)">
     <use xlink:href="#m54bc98d24e" x="0" y="288" style="fill-opacity: 0.1; stroke: #000000; stroke-opacity: 0.1; stroke-width: 0.5"/>
    </g>
   </g>
   <g id="line2d_31">
    <path d="M 277.722368 17.97839 
L 412.310589 118.346188 
L 412.310589 118.346188 
" clip-path="url(#p43ab3c4a8d)" style="fill: none; stroke: #000000; stroke-opacity: 0.5; stroke-width: 0.7; stroke-linecap: square"/>
   </g>
   <g id="line2d_32">
    <path d="M 277.722368 118.346188 
L 412.310589 118.346188 
L 412.310589 118.346188 
" clip-path="url(#p43ab3c4a8d)" style="fill: none; stroke: #000000; stroke-width: 0.7; stroke-linecap: square"/>
   </g>
   <g id="patch_6">
    <path d="M 270.992957 123.364578 
L 270.992957 12.96 
" style="fill: none; stroke: #000000; stroke-width: 0.5; stroke-linejoin: miter; stroke-linecap: square"/>
   </g>
   <g id="patch_7">
    <path d="M 270.992957 123.364578 
L 419.04 123.364578 
" style="fill: none; stroke: #000000; stroke-width: 0.5; stroke-linejoin: miter; stroke-linecap: square"/>
   </g>
  </g>
 </g>
 <defs>
  <clipPath id="p4d4be9220f">
   <rect x="60.089253" y="12.96" width="148.047043" height="110.404578"/>
  </clipPath>
  <clipPath id="p43ab3c4a8d">
   <rect x="270.992957" y="12.96" width="148.047043" height="110.404578"/>
  </clipPath>
 </defs>
</svg>
