<?xml version="1.0" encoding="utf-8" standalone="no"?>
<!DOCTYPE svg PUBLIC "-//W3C//DTD SVG 1.1//EN"
  "http://www.w3.org/Graphics/SVG/1.1/DTD/svg11.dtd">
<svg xmlns:xlink="http://www.w3.org/1999/xlink" width="432pt" height="288pt" viewBox="0 0 432 288" xmlns="http://www.w3.org/2000/svg" version="1.1">
 <metadata>
  <rdf:RDF xmlns:dc="http://purl.org/dc/elements/1.1/" xmlns:cc="http://creativecommons.org/ns#" xmlns:rdf="http://www.w3.org/1999/02/22-rdf-syntax-ns#">
   <cc:Work>
    <dc:type rdf:resource="http://purl.org/dc/dcmitype/StillImage"/>
    <dc:date>2024-06-01T15:00:46.897758</dc:date>
    <dc:format>image/svg+xml</dc:format>
    <dc:creator>
     <cc:Agent>
      <dc:title>Matplotlib v3.8.4, https://matplotlib.org/</dc:title>
     </cc:Agent>
    </dc:creator>
   </cc:Work>
  </rdf:RDF>
 </metadata>
 <defs>
  <style type="text/css">*{stroke-linejoin: round; stroke-linecap: butt}</style>
 </defs>
 <g id="figure_1">
  <g id="patch_1">
   <path d="M 0 288 
L 432 288 
L 432 0 
L 0 0 
z
" style="fill: #ffffff"/>
  </g>
  <g id="axes_1">
   <g id="patch_2">
    <path d="M 60.897288 123.364578 
L 208.136296 123.364578 
L 208.136296 12.96 
L 60.897288 12.96 
z
" style="fill: #ffffff"/>
   </g>
   <g id="matplotlib.axis_1">
    <g id="xtick_1">
     <g id="line2d_1">
      <path d="M 67.589971 123.364578 
L 67.589971 12.96 
" clip-path="url(#pccd5a0b5a5)" style="fill: none; stroke: #d3d3d3; stroke-width: 0.2; stroke-linecap: square"/>
     </g>
     <g id="line2d_2">
      <defs>
       <path id="m3f81c9d92d" d="M 0 0 
L 0 -3.5 
" style="stroke: #000000; stroke-width: 0.8"/>
      </defs>
      <g>
       <use xlink:href="#m3f81c9d92d" x="67.589971" y="123.364578" style="stroke: #000000; stroke-width: 0.8"/>
      </g>
     </g>
     <g id="text_1">
      <!-- $\mathdefault{0}$ -->
      <g transform="translate(65.099303 133.783076) scale(0.1 -0.1)">
       <defs>
        <path id="CMR17-30" d="M 2688 2038 
C 2688 2430 2682 3099 2413 3613 
C 2176 4063 1798 4224 1466 4224 
C 1158 4224 768 4082 525 3620 
C 269 3137 243 2539 243 2038 
C 243 1671 250 1112 448 623 
C 723 -39 1216 -128 1466 -128 
C 1760 -128 2208 -7 2470 604 
C 2662 1048 2688 1568 2688 2038 
z
M 1466 -26 
C 1056 -26 813 328 723 816 
C 653 1196 653 1749 653 2109 
C 653 2604 653 3015 736 3407 
C 858 3954 1216 4121 1466 4121 
C 1728 4121 2067 3947 2189 3420 
C 2272 3054 2278 2623 2278 2109 
C 2278 1691 2278 1176 2202 797 
C 2067 96 1690 -26 1466 -26 
z
" transform="scale(0.015625)"/>
       </defs>
       <use xlink:href="#CMR17-30" transform="scale(0.996264)"/>
      </g>
     </g>
    </g>
    <g id="xtick_2">
     <g id="line2d_3">
      <path d="M 121.131428 123.364578 
L 121.131428 12.96 
" clip-path="url(#pccd5a0b5a5)" style="fill: none; stroke: #d3d3d3; stroke-width: 0.2; stroke-linecap: square"/>
     </g>
     <g id="line2d_4">
      <g>
       <use xlink:href="#m3f81c9d92d" x="121.131428" y="123.364578" style="stroke: #000000; stroke-width: 0.8"/>
      </g>
     </g>
     <g id="text_2">
      <!-- $\mathdefault{2}$ -->
      <g transform="translate(118.64076 133.783076) scale(0.1 -0.1)">
       <defs>
        <path id="CMR17-32" d="M 2669 990 
L 2554 990 
C 2490 537 2438 460 2413 422 
C 2381 371 1920 371 1830 371 
L 602 371 
C 832 620 1280 1073 1824 1596 
C 2214 1966 2669 2400 2669 3033 
C 2669 3788 2067 4224 1395 4224 
C 691 4224 262 3603 262 3027 
C 262 2777 448 2745 525 2745 
C 589 2745 781 2783 781 3007 
C 781 3206 614 3264 525 3264 
C 486 3264 448 3257 422 3244 
C 544 3788 915 4057 1306 4057 
C 1862 4057 2227 3616 2227 3033 
C 2227 2477 1901 1998 1536 1583 
L 262 147 
L 262 0 
L 2515 0 
L 2669 990 
z
" transform="scale(0.015625)"/>
       </defs>
       <use xlink:href="#CMR17-32" transform="scale(0.996264)"/>
      </g>
     </g>
    </g>
    <g id="xtick_3">
     <g id="line2d_5">
      <path d="M 174.672885 123.364578 
L 174.672885 12.96 
" clip-path="url(#pccd5a0b5a5)" style="fill: none; stroke: #d3d3d3; stroke-width: 0.2; stroke-linecap: square"/>
     </g>
     <g id="line2d_6">
      <g>
       <use xlink:href="#m3f81c9d92d" x="174.672885" y="123.364578" style="stroke: #000000; stroke-width: 0.8"/>
      </g>
     </g>
     <g id="text_3">
      <!-- $\mathdefault{4}$ -->
      <g transform="translate(172.182217 133.783076) scale(0.1 -0.1)">
       <defs>
        <path id="CMR17-34" d="M 2150 4147 
C 2150 4281 2144 4288 2029 4288 
L 128 1254 
L 128 1088 
L 1779 1088 
L 1779 460 
C 1779 230 1766 166 1318 166 
L 1197 166 
L 1197 0 
C 1402 12 1747 12 1965 12 
C 2182 12 2528 12 2733 0 
L 2733 166 
L 2611 166 
C 2163 166 2150 230 2150 460 
L 2150 1088 
L 2803 1088 
L 2803 1254 
L 2150 1254 
L 2150 4147 
z
M 1798 3723 
L 1798 1254 
L 256 1254 
L 1798 3723 
z
" transform="scale(0.015625)"/>
       </defs>
       <use xlink:href="#CMR17-34" transform="scale(0.996264)"/>
      </g>
     </g>
    </g>
    <g id="text_4">
     <!-- $x$ [m] -->
     <g transform="translate(121.110599 148.68663) scale(0.12 -0.12)">
      <defs>
       <path id="CMMI12-78" d="M 3034 2624 
C 2829 2585 2752 2431 2752 2310 
C 2752 2156 2874 2105 2963 2105 
C 3155 2105 3290 2271 3290 2444 
C 3290 2694 2982 2816 2714 2816 
C 2323 2816 2106 2451 2048 2329 
C 1901 2790 1504 2816 1389 2816 
C 736 2816 390 1993 390 1849 
C 390 1823 416 1790 461 1790 
C 512 1790 525 1829 538 1855 
C 755 2572 1184 2687 1370 2687 
C 1658 2687 1715 2438 1715 2284 
C 1715 2143 1677 1993 1600 1678 
L 1382 778 
C 1286 390 1101 64 762 64 
C 730 64 570 64 435 126 
C 666 166 717 358 717 435 
C 717 563 621 640 499 640 
C 346 640 179 505 179 300 
C 179 57 480 -64 755 -64 
C 1062 -64 1280 153 1414 415 
C 1517 64 1837 -64 2074 -64 
C 2726 -64 3072 751 3072 896 
C 3072 929 3046 955 3008 955 
C 2950 955 2944 922 2925 870 
C 2752 300 2381 64 2093 64 
C 1869 64 1747 204 1747 467 
C 1747 607 1773 712 1875 1146 
L 2099 2039 
C 2195 2425 2413 2687 2707 2687 
C 2720 2687 2899 2687 3034 2624 
z
" transform="scale(0.015625)"/>
       <path id="CMR17-5b" d="M 1504 -1600 
L 1504 -1376 
L 902 -1376 
L 902 4575 
L 1504 4575 
L 1504 4800 
L 678 4800 
L 678 -1600 
L 1504 -1600 
z
" transform="scale(0.015625)"/>
       <path id="CMR17-6d" d="M 4326 1954 
C 4326 2276 4269 2816 3507 2816 
C 3072 2816 2771 2520 2656 2173 
L 2650 2173 
C 2573 2700 2195 2816 1837 2816 
C 1331 2816 1069 2424 973 2166 
L 966 2166 
L 966 2816 
L 211 2745 
L 211 2578 
C 589 2578 646 2540 646 2231 
L 646 443 
C 646 198 621 166 211 166 
L 211 0 
C 365 12 646 12 813 12 
C 979 12 1267 12 1421 0 
L 1421 166 
C 1011 166 986 192 986 443 
L 986 1678 
C 986 2269 1344 2713 1792 2713 
C 2266 2713 2317 2289 2317 1980 
L 2317 443 
C 2317 198 2291 166 1882 166 
L 1882 0 
C 2035 12 2317 12 2483 12 
C 2650 12 2938 12 3091 0 
L 3091 166 
C 2682 166 2656 192 2656 443 
L 2656 1678 
C 2656 2269 3014 2713 3462 2713 
C 3936 2713 3987 2289 3987 1980 
L 3987 443 
C 3987 198 3962 166 3552 166 
L 3552 0 
C 3706 12 3987 12 4154 12 
C 4320 12 4608 12 4762 0 
L 4762 166 
C 4352 166 4326 192 4326 443 
L 4326 1954 
z
" transform="scale(0.015625)"/>
       <path id="CMR17-5d" d="M 915 4800 
L 90 4800 
L 90 4575 
L 691 4575 
L 691 -1376 
L 90 -1376 
L 90 -1600 
L 915 -1600 
L 915 4800 
z
" transform="scale(0.015625)"/>
      </defs>
      <use xlink:href="#CMMI12-78" transform="scale(0.996264)"/>
      <use xlink:href="#CMR17-5b" transform="translate(85.510026 0) scale(0.996264)"/>
      <use xlink:href="#CMR17-6d" transform="translate(110.381084 0) scale(0.996264)"/>
      <use xlink:href="#CMR17-5d" transform="translate(187.300674 0) scale(0.996264)"/>
     </g>
    </g>
   </g>
   <g id="matplotlib.axis_2">
    <g id="ytick_1">
     <g id="line2d_7">
      <path d="M 60.897288 118.346188 
L 208.136296 118.346188 
" clip-path="url(#pccd5a0b5a5)" style="fill: none; stroke: #d3d3d3; stroke-width: 0.2; stroke-linecap: square"/>
     </g>
     <g id="line2d_8">
      <defs>
       <path id="m8453d3be8e" d="M 0 0 
L 3.5 0 
" style="stroke: #000000; stroke-width: 0.8"/>
      </defs>
      <g>
       <use xlink:href="#m8453d3be8e" x="60.897288" y="118.346188" style="stroke: #000000; stroke-width: 0.8"/>
      </g>
     </g>
     <g id="text_5">
      <!-- $\mathdefault{0.00000}$ -->
      <g transform="translate(24.741868 121.805437) scale(0.1 -0.1)">
       <defs>
        <path id="CMMI12-3a" d="M 1178 307 
C 1178 492 1024 620 870 620 
C 685 620 557 467 557 313 
C 557 128 710 0 864 0 
C 1050 0 1178 153 1178 307 
z
" transform="scale(0.015625)"/>
       </defs>
       <use xlink:href="#CMR17-30" transform="scale(0.996264)"/>
       <use xlink:href="#CMMI12-3a" transform="translate(45.690477 0) scale(0.996264)"/>
       <use xlink:href="#CMR17-30" transform="translate(72.787654 0) scale(0.996264)"/>
       <use xlink:href="#CMR17-30" transform="translate(118.478131 0) scale(0.996264)"/>
       <use xlink:href="#CMR17-30" transform="translate(164.168608 0) scale(0.996264)"/>
       <use xlink:href="#CMR17-30" transform="translate(209.859086 0) scale(0.996264)"/>
       <use xlink:href="#CMR17-30" transform="translate(255.549563 0) scale(0.996264)"/>
      </g>
     </g>
    </g>
    <g id="ytick_2">
     <g id="line2d_9">
      <path d="M 60.897288 93.254238 
L 208.136296 93.254238 
" clip-path="url(#pccd5a0b5a5)" style="fill: none; stroke: #d3d3d3; stroke-width: 0.2; stroke-linecap: square"/>
     </g>
     <g id="line2d_10">
      <g>
       <use xlink:href="#m8453d3be8e" x="60.897288" y="93.254238" style="stroke: #000000; stroke-width: 0.8"/>
      </g>
     </g>
     <g id="text_6">
      <!-- $\mathdefault{0.00025}$ -->
      <g transform="translate(24.741868 96.713487) scale(0.1 -0.1)">
       <defs>
        <path id="CMR17-35" d="M 730 3750 
C 794 3724 1056 3641 1325 3641 
C 1920 3641 2246 3961 2432 4140 
C 2432 4191 2432 4224 2394 4224 
C 2387 4224 2374 4224 2323 4198 
C 2099 4102 1837 4032 1517 4032 
C 1325 4032 1037 4055 723 4191 
C 653 4224 640 4224 634 4224 
C 602 4224 595 4217 595 4090 
L 595 2231 
C 595 2113 595 2080 659 2080 
C 691 2080 704 2093 736 2139 
C 941 2435 1222 2560 1542 2560 
C 1766 2560 2246 2415 2246 1293 
C 2246 1087 2246 716 2054 422 
C 1894 159 1645 25 1370 25 
C 947 25 518 319 403 812 
C 429 806 480 793 506 793 
C 589 793 749 838 749 1036 
C 749 1209 627 1280 506 1280 
C 358 1280 262 1190 262 1011 
C 262 454 704 -128 1382 -128 
C 2042 -128 2669 441 2669 1267 
C 2669 2054 2170 2662 1549 2662 
C 1222 2662 947 2540 730 2304 
L 730 3750 
z
" transform="scale(0.015625)"/>
       </defs>
       <use xlink:href="#CMR17-30" transform="scale(0.996264)"/>
       <use xlink:href="#CMMI12-3a" transform="translate(45.690477 0) scale(0.996264)"/>
       <use xlink:href="#CMR17-30" transform="translate(72.787654 0) scale(0.996264)"/>
       <use xlink:href="#CMR17-30" transform="translate(118.478131 0) scale(0.996264)"/>
       <use xlink:href="#CMR17-30" transform="translate(164.168608 0) scale(0.996264)"/>
       <use xlink:href="#CMR17-32" transform="translate(209.859086 0) scale(0.996264)"/>
       <use xlink:href="#CMR17-35" transform="translate(255.549563 0) scale(0.996264)"/>
      </g>
     </g>
    </g>
    <g id="ytick_3">
     <g id="line2d_11">
      <path d="M 60.897288 68.162289 
L 208.136296 68.162289 
" clip-path="url(#pccd5a0b5a5)" style="fill: none; stroke: #d3d3d3; stroke-width: 0.2; stroke-linecap: square"/>
     </g>
     <g id="line2d_12">
      <g>
       <use xlink:href="#m8453d3be8e" x="60.897288" y="68.162289" style="stroke: #000000; stroke-width: 0.8"/>
      </g>
     </g>
     <g id="text_7">
      <!-- $\mathdefault{0.00050}$ -->
      <g transform="translate(24.741868 71.621538) scale(0.1 -0.1)">
       <use xlink:href="#CMR17-30" transform="scale(0.996264)"/>
       <use xlink:href="#CMMI12-3a" transform="translate(45.690477 0) scale(0.996264)"/>
       <use xlink:href="#CMR17-30" transform="translate(72.787654 0) scale(0.996264)"/>
       <use xlink:href="#CMR17-30" transform="translate(118.478131 0) scale(0.996264)"/>
       <use xlink:href="#CMR17-30" transform="translate(164.168608 0) scale(0.996264)"/>
       <use xlink:href="#CMR17-35" transform="translate(209.859086 0) scale(0.996264)"/>
       <use xlink:href="#CMR17-30" transform="translate(255.549563 0) scale(0.996264)"/>
      </g>
     </g>
    </g>
    <g id="ytick_4">
     <g id="line2d_13">
      <path d="M 60.897288 43.070339 
L 208.136296 43.070339 
" clip-path="url(#pccd5a0b5a5)" style="fill: none; stroke: #d3d3d3; stroke-width: 0.2; stroke-linecap: square"/>
     </g>
     <g id="line2d_14">
      <g>
       <use xlink:href="#m8453d3be8e" x="60.897288" y="43.070339" style="stroke: #000000; stroke-width: 0.8"/>
      </g>
     </g>
     <g id="text_8">
      <!-- $\mathdefault{0.00075}$ -->
      <g transform="translate(24.741868 46.529589) scale(0.1 -0.1)">
       <defs>
        <path id="CMR17-37" d="M 2886 3955 
L 2886 4096 
L 1382 4096 
C 634 4096 621 4166 595 4288 
L 480 4288 
L 294 3104 
L 410 3104 
C 429 3226 474 3552 550 3673 
C 589 3724 1062 3724 1171 3724 
L 2579 3724 
L 1869 2670 
C 1395 1961 1069 1003 1069 166 
C 1069 89 1069 -128 1299 -128 
C 1530 -128 1530 89 1530 172 
L 1530 466 
C 1530 1514 1709 2204 2003 2644 
L 2886 3955 
z
" transform="scale(0.015625)"/>
       </defs>
       <use xlink:href="#CMR17-30" transform="scale(0.996264)"/>
       <use xlink:href="#CMMI12-3a" transform="translate(45.690477 0) scale(0.996264)"/>
       <use xlink:href="#CMR17-30" transform="translate(72.787654 0) scale(0.996264)"/>
       <use xlink:href="#CMR17-30" transform="translate(118.478131 0) scale(0.996264)"/>
       <use xlink:href="#CMR17-30" transform="translate(164.168608 0) scale(0.996264)"/>
       <use xlink:href="#CMR17-37" transform="translate(209.859086 0) scale(0.996264)"/>
       <use xlink:href="#CMR17-35" transform="translate(255.549563 0) scale(0.996264)"/>
      </g>
     </g>
    </g>
    <g id="ytick_5">
     <g id="line2d_15">
      <path d="M 60.897288 17.97839 
L 208.136296 17.97839 
" clip-path="url(#pccd5a0b5a5)" style="fill: none; stroke: #d3d3d3; stroke-width: 0.2; stroke-linecap: square"/>
     </g>
     <g id="line2d_16">
      <g>
       <use xlink:href="#m8453d3be8e" x="60.897288" y="17.97839" style="stroke: #000000; stroke-width: 0.8"/>
      </g>
     </g>
     <g id="text_9">
      <!-- $\mathdefault{0.00100}$ -->
      <g transform="translate(24.741868 21.437639) scale(0.1 -0.1)">
       <defs>
        <path id="CMR17-31" d="M 1702 4083 
C 1702 4217 1696 4224 1606 4224 
C 1357 3927 979 3833 621 3820 
C 602 3820 570 3820 563 3808 
C 557 3795 557 3782 557 3648 
C 755 3648 1088 3686 1344 3839 
L 1344 467 
C 1344 243 1331 166 781 166 
L 589 166 
L 589 0 
C 896 6 1216 12 1523 12 
C 1830 12 2150 6 2458 0 
L 2458 166 
L 2266 166 
C 1715 166 1702 236 1702 467 
L 1702 4083 
z
" transform="scale(0.015625)"/>
       </defs>
       <use xlink:href="#CMR17-30" transform="scale(0.996264)"/>
       <use xlink:href="#CMMI12-3a" transform="translate(45.690477 0) scale(0.996264)"/>
       <use xlink:href="#CMR17-30" transform="translate(72.787654 0) scale(0.996264)"/>
       <use xlink:href="#CMR17-30" transform="translate(118.478131 0) scale(0.996264)"/>
       <use xlink:href="#CMR17-31" transform="translate(164.168608 0) scale(0.996264)"/>
       <use xlink:href="#CMR17-30" transform="translate(209.859086 0) scale(0.996264)"/>
       <use xlink:href="#CMR17-30" transform="translate(255.549563 0) scale(0.996264)"/>
      </g>
     </g>
    </g>
    <g id="text_10">
     <!-- $\bar{V}$ [-] -->
     <g transform="translate(17.753076 80.028777) rotate(-90) scale(0.12 -0.12)">
      <defs>
       <path id="CMR17-16" d="M 2554 3520 
L 2554 3667 
L 378 3667 
L 378 3520 
L 2554 3520 
z
" transform="scale(0.015625)"/>
       <path id="CMMI12-56" d="M 3962 3644 
C 4179 3987 4378 4140 4704 4166 
C 4768 4172 4819 4172 4819 4287 
C 4819 4313 4806 4352 4749 4352 
C 4634 4352 4358 4339 4243 4339 
C 4058 4339 3866 4352 3686 4352 
C 3635 4352 3571 4352 3571 4230 
C 3571 4172 3629 4166 3654 4166 
C 3891 4146 3917 4032 3917 3956 
C 3917 3860 3827 3714 3821 3708 
L 1811 540 
L 1363 3968 
C 1363 4153 1696 4166 1766 4166 
C 1862 4166 1920 4166 1920 4287 
C 1920 4352 1850 4352 1830 4352 
C 1722 4352 1594 4339 1485 4339 
L 1126 4339 
C 659 4339 467 4352 461 4352 
C 422 4352 346 4352 346 4236 
C 346 4166 390 4166 493 4166 
C 819 4166 838 4108 858 3949 
L 1370 25 
C 1389 -109 1389 -128 1478 -128 
C 1555 -128 1587 -109 1651 -7 
L 3962 3644 
z
" transform="scale(0.015625)"/>
       <path id="CMR17-2d" d="M 1632 1254 
L 1632 1536 
L 26 1536 
L 26 1254 
L 1632 1254 
z
" transform="scale(0.015625)"/>
      </defs>
      <use xlink:href="#CMR17-16" transform="translate(16.428429 25.189733) scale(0.996264)"/>
      <use xlink:href="#CMMI12-56" transform="scale(0.996264)"/>
      <use xlink:href="#CMR17-5b" transform="translate(108.623287 0) scale(0.996264)"/>
      <use xlink:href="#CMR17-2d" transform="translate(133.494346 0) scale(0.996264)"/>
      <use xlink:href="#CMR17-5d" transform="translate(163.570312 0) scale(0.996264)"/>
     </g>
    </g>
   </g>
   <g id="PolyCollection_1">
    <defs>
     <path id="me5eaa7b810" d="M 67.589971 -169.653812 
L 67.589971 -270.02161 
L 67.858214 -270.02161 
L 68.126458 -270.02161 
L 68.394702 -270.02161 
L 68.662946 -270.02161 
L 68.931189 -270.02161 
L 69.199433 -270.02161 
L 69.467677 -270.02161 
L 69.735921 -270.02161 
L 70.004165 -270.02161 
L 70.272408 -270.02161 
L 70.540652 -270.02161 
L 70.808896 -270.02161 
L 71.07714 -270.02161 
L 71.345383 -270.02161 
L 71.613627 -270.02161 
L 71.881871 -270.02161 
L 72.150115 -270.02161 
L 72.418358 -270.02161 
L 72.686602 -270.02161 
L 72.954846 -270.02161 
L 73.22309 -270.02161 
L 73.491334 -270.02161 
L 73.759577 -270.02161 
L 74.027821 -270.02161 
L 74.296065 -270.02161 
L 74.564309 -270.02161 
L 74.832552 -270.02161 
L 75.100796 -270.02161 
L 75.36904 -270.02161 
L 75.637284 -270.02161 
L 75.905528 -270.02161 
L 76.173771 -270.02161 
L 76.442015 -270.02161 
L 76.710259 -270.02161 
L 76.978503 -270.02161 
L 77.246746 -270.02161 
L 77.51499 -270.02161 
L 77.783234 -270.02161 
L 78.051478 -270.02161 
L 78.319721 -270.02161 
L 78.587965 -270.02161 
L 78.856209 -270.02161 
L 79.124453 -270.02161 
L 79.392697 -270.02161 
L 79.66094 -270.02161 
L 79.929184 -270.02161 
L 80.197428 -270.02161 
L 80.465672 -270.02161 
L 80.733915 -270.02161 
L 81.002159 -270.02161 
L 81.270403 -270.02161 
L 81.538647 -270.02161 
L 81.806891 -270.02161 
L 82.075134 -270.02161 
L 82.343378 -270.02161 
L 82.611622 -270.02161 
L 82.879866 -270.02161 
L 83.148109 -270.02161 
L 83.416353 -270.02161 
L 83.684597 -270.02161 
L 83.952841 -270.02161 
L 84.221085 -270.02161 
L 84.489328 -270.02161 
L 84.757572 -270.02161 
L 85.025816 -270.02161 
L 85.29406 -270.02161 
L 85.562303 -270.02161 
L 85.830547 -270.02161 
L 86.098791 -270.02161 
L 86.367035 -270.02161 
L 86.635278 -270.02161 
L 86.903522 -270.02161 
L 87.171766 -270.02161 
L 87.44001 -270.02161 
L 87.708254 -270.02161 
L 87.976497 -270.02161 
L 88.244741 -270.02161 
L 88.512985 -270.02161 
L 88.781229 -270.02161 
L 89.049472 -270.02161 
L 89.317716 -270.02161 
L 89.58596 -270.02161 
L 89.854204 -270.02161 
L 90.122448 -270.02161 
L 90.390691 -270.02161 
L 90.658935 -270.02161 
L 90.927179 -270.02161 
L 91.195423 -270.02161 
L 91.463666 -270.02161 
L 91.73191 -270.02161 
L 92.000154 -270.02161 
L 92.268398 -270.02161 
L 92.536641 -270.02161 
L 92.804885 -270.02161 
L 93.073129 -270.02161 
L 93.341373 -270.02161 
L 93.609617 -270.02161 
L 93.87786 -270.02161 
L 94.146104 -270.02161 
L 94.414348 -270.02161 
L 94.682592 -270.02161 
L 94.950835 -270.02161 
L 95.219079 -270.02161 
L 95.487323 -270.02161 
L 95.755567 -270.02161 
L 96.023811 -270.02161 
L 96.292054 -270.02161 
L 96.560298 -270.02161 
L 96.828542 -270.02161 
L 97.096786 -270.02161 
L 97.365029 -270.02161 
L 97.633273 -270.02161 
L 97.901517 -270.02161 
L 98.169761 -270.02161 
L 98.438005 -270.02161 
L 98.706248 -270.02161 
L 98.974492 -270.02161 
L 99.242736 -270.02161 
L 99.51098 -270.02161 
L 99.779223 -270.02161 
L 100.047467 -270.02161 
L 100.315711 -270.02161 
L 100.583955 -270.02161 
L 100.852198 -270.02161 
L 101.120442 -270.02161 
L 101.388686 -270.02161 
L 101.65693 -270.02161 
L 101.925174 -270.02161 
L 102.193417 -270.02161 
L 102.461661 -270.02161 
L 102.729905 -270.02161 
L 102.998149 -270.02161 
L 103.266392 -270.02161 
L 103.534636 -270.02161 
L 103.80288 -270.02161 
L 104.071124 -270.02161 
L 104.339368 -270.02161 
L 104.607611 -270.02161 
L 104.875855 -270.02161 
L 105.144099 -270.02161 
L 105.412343 -270.02161 
L 105.680586 -270.02161 
L 105.94883 -270.02161 
L 106.217074 -270.02161 
L 106.485318 -270.02161 
L 106.753562 -270.02161 
L 107.021805 -270.02161 
L 107.290049 -270.02161 
L 107.558293 -270.02161 
L 107.826537 -270.02161 
L 108.09478 -270.02161 
L 108.363024 -270.02161 
L 108.631268 -270.02161 
L 108.899512 -270.02161 
L 109.167755 -270.02161 
L 109.435999 -270.02161 
L 109.704243 -270.02161 
L 109.972487 -270.02161 
L 110.240731 -270.02161 
L 110.508974 -270.02161 
L 110.777218 -270.02161 
L 111.045462 -270.02161 
L 111.313706 -270.02161 
L 111.581949 -270.02161 
L 111.850193 -270.02161 
L 112.118437 -270.02161 
L 112.386681 -270.02161 
L 112.654925 -270.02161 
L 112.923168 -270.02161 
L 113.191412 -270.02161 
L 113.459656 -270.02161 
L 113.7279 -270.02161 
L 113.996143 -270.02161 
L 114.264387 -270.02161 
L 114.532631 -270.02161 
L 114.800875 -270.02161 
L 115.069118 -270.02161 
L 115.337362 -270.02161 
L 115.605606 -270.02161 
L 115.87385 -270.02161 
L 116.142094 -270.02161 
L 116.410337 -270.02161 
L 116.678581 -270.02161 
L 116.946825 -270.02161 
L 117.215069 -270.02161 
L 117.483312 -270.02161 
L 117.751556 -270.02161 
L 118.0198 -270.02161 
L 118.288044 -270.02161 
L 118.556288 -270.02161 
L 118.824531 -270.02161 
L 119.092775 -270.02161 
L 119.361019 -270.02161 
L 119.629263 -270.02161 
L 119.897506 -270.02161 
L 120.16575 -270.02161 
L 120.433994 -270.02161 
L 120.702238 -270.02161 
L 120.970482 -270.02161 
L 121.238725 -270.02161 
L 121.506969 -270.02161 
L 121.775213 -270.02161 
L 122.043457 -270.02161 
L 122.3117 -270.02161 
L 122.579944 -270.02161 
L 122.848188 -270.02161 
L 123.116432 -270.02161 
L 123.384675 -270.02161 
L 123.652919 -270.02161 
L 123.921163 -270.02161 
L 124.189407 -270.02161 
L 124.457651 -270.02161 
L 124.725894 -270.02161 
L 124.994138 -270.02161 
L 125.262382 -270.02161 
L 125.530626 -270.02161 
L 125.798869 -270.02161 
L 126.067113 -270.02161 
L 126.335357 -270.02161 
L 126.603601 -270.02161 
L 126.871845 -270.02161 
L 127.140088 -270.02161 
L 127.408332 -270.02161 
L 127.676576 -270.02161 
L 127.94482 -270.02161 
L 128.213063 -270.02161 
L 128.481307 -270.02161 
L 128.749551 -270.02161 
L 129.017795 -270.02161 
L 129.286038 -270.02161 
L 129.554282 -270.02161 
L 129.822526 -270.02161 
L 130.09077 -270.02161 
L 130.359014 -270.02161 
L 130.627257 -270.02161 
L 130.895501 -270.02161 
L 131.163745 -270.02161 
L 131.431989 -270.02161 
L 131.700232 -270.02161 
L 131.968476 -270.02161 
L 132.23672 -270.02161 
L 132.504964 -270.02161 
L 132.773208 -270.02161 
L 133.041451 -270.02161 
L 133.309695 -270.02161 
L 133.577939 -270.02161 
L 133.846183 -270.02161 
L 134.114426 -270.02161 
L 134.38267 -270.02161 
L 134.650914 -270.02161 
L 134.919158 -270.02161 
L 135.187402 -270.02161 
L 135.455645 -270.02161 
L 135.723889 -270.02161 
L 135.992133 -270.02161 
L 136.260377 -270.02161 
L 136.52862 -270.02161 
L 136.796864 -270.02161 
L 137.065108 -270.02161 
L 137.333352 -270.02161 
L 137.601595 -270.02161 
L 137.869839 -270.02161 
L 138.138083 -270.02161 
L 138.406327 -270.02161 
L 138.674571 -270.02161 
L 138.942814 -270.02161 
L 139.211058 -270.02161 
L 139.479302 -270.02161 
L 139.747546 -270.02161 
L 140.015789 -270.02161 
L 140.284033 -270.02161 
L 140.552277 -270.02161 
L 140.820521 -270.02161 
L 141.088765 -270.02161 
L 141.357008 -270.02161 
L 141.625252 -270.02161 
L 141.893496 -270.02161 
L 142.16174 -270.02161 
L 142.429983 -270.02161 
L 142.698227 -270.02161 
L 142.966471 -270.02161 
L 143.234715 -270.02161 
L 143.502958 -270.02161 
L 143.771202 -270.02161 
L 144.039446 -270.02161 
L 144.30769 -270.02161 
L 144.575934 -270.02161 
L 144.844177 -270.02161 
L 145.112421 -270.02161 
L 145.380665 -270.02161 
L 145.648909 -270.02161 
L 145.917152 -270.02161 
L 146.185396 -270.02161 
L 146.45364 -270.02161 
L 146.721884 -270.02161 
L 146.990128 -270.02161 
L 147.258371 -270.02161 
L 147.526615 -270.02161 
L 147.794859 -270.02161 
L 148.063103 -270.02161 
L 148.331346 -270.02161 
L 148.59959 -270.02161 
L 148.867834 -270.02161 
L 149.136078 -270.02161 
L 149.404322 -270.02161 
L 149.672565 -270.02161 
L 149.940809 -270.02161 
L 150.209053 -270.02161 
L 150.477297 -270.02161 
L 150.74554 -270.02161 
L 151.013784 -270.02161 
L 151.282028 -270.02161 
L 151.550272 -270.02161 
L 151.818515 -270.02161 
L 152.086759 -270.02161 
L 152.355003 -270.02161 
L 152.623247 -270.02161 
L 152.891491 -270.02161 
L 153.159734 -270.02161 
L 153.427978 -270.02161 
L 153.696222 -270.02161 
L 153.964466 -270.02161 
L 154.232709 -270.02161 
L 154.500953 -270.02161 
L 154.769197 -270.02161 
L 155.037441 -270.02161 
L 155.305685 -270.02161 
L 155.573928 -270.02161 
L 155.842172 -270.02161 
L 156.110416 -270.02161 
L 156.37866 -270.02161 
L 156.646903 -270.02161 
L 156.915147 -270.02161 
L 157.183391 -270.02161 
L 157.451635 -270.02161 
L 157.719879 -270.02161 
L 157.988122 -270.02161 
L 158.256366 -270.02161 
L 158.52461 -270.02161 
L 158.792854 -270.02161 
L 159.061097 -270.02161 
L 159.329341 -270.02161 
L 159.597585 -270.02161 
L 159.865829 -270.02161 
L 160.134072 -270.02161 
L 160.402316 -270.02161 
L 160.67056 -270.02161 
L 160.938804 -270.02161 
L 161.207048 -270.02161 
L 161.475291 -270.02161 
L 161.743535 -270.02161 
L 162.011779 -270.02161 
L 162.280023 -270.02161 
L 162.548266 -270.02161 
L 162.81651 -270.02161 
L 163.084754 -270.02161 
L 163.352998 -270.02161 
L 163.621242 -270.02161 
L 163.889485 -270.02161 
L 164.157729 -270.02161 
L 164.425973 -270.02161 
L 164.694217 -270.02161 
L 164.96246 -270.02161 
L 165.230704 -270.02161 
L 165.498948 -270.02161 
L 165.767192 -270.02161 
L 166.035435 -270.02161 
L 166.303679 -270.02161 
L 166.571923 -270.02161 
L 166.840167 -270.02161 
L 167.108411 -270.02161 
L 167.376654 -270.02161 
L 167.644898 -270.02161 
L 167.913142 -270.02161 
L 168.181386 -270.02161 
L 168.449629 -270.02161 
L 168.717873 -270.02161 
L 168.986117 -270.02161 
L 169.254361 -270.02161 
L 169.522605 -270.02161 
L 169.790848 -270.02161 
L 170.059092 -270.02161 
L 170.327336 -270.02161 
L 170.59558 -270.02161 
L 170.863823 -270.02161 
L 171.132067 -270.02161 
L 171.400311 -270.02161 
L 171.668555 -270.02161 
L 171.936799 -270.02161 
L 172.205042 -270.02161 
L 172.473286 -270.02161 
L 172.74153 -270.02161 
L 173.009774 -270.02161 
L 173.278017 -270.02161 
L 173.546261 -270.02161 
L 173.814505 -270.02161 
L 174.082749 -270.02161 
L 174.350992 -270.02161 
L 174.619236 -270.02161 
L 174.88748 -270.02161 
L 175.155724 -270.02161 
L 175.423968 -270.02161 
L 175.692211 -270.02161 
L 175.960455 -270.02161 
L 176.228699 -270.02161 
L 176.496943 -270.02161 
L 176.765186 -270.02161 
L 177.03343 -270.02161 
L 177.301674 -270.02161 
L 177.569918 -270.02161 
L 177.838162 -270.02161 
L 178.106405 -270.02161 
L 178.374649 -270.02161 
L 178.642893 -270.02161 
L 178.911137 -270.02161 
L 179.17938 -270.02161 
L 179.447624 -270.02161 
L 179.715868 -270.02161 
L 179.984112 -270.02161 
L 180.252355 -270.02161 
L 180.520599 -270.02161 
L 180.788843 -270.02161 
L 181.057087 -270.02161 
L 181.325331 -270.02161 
L 181.593574 -270.02161 
L 181.861818 -270.02161 
L 182.130062 -270.02161 
L 182.398306 -270.02161 
L 182.666549 -270.02161 
L 182.934793 -270.02161 
L 183.203037 -270.02161 
L 183.471281 -270.02161 
L 183.739525 -270.02161 
L 184.007768 -270.02161 
L 184.276012 -270.02161 
L 184.544256 -270.02161 
L 184.8125 -270.02161 
L 185.080743 -270.02161 
L 185.348987 -270.02161 
L 185.617231 -270.02161 
L 185.885475 -270.02161 
L 186.153719 -270.02161 
L 186.421962 -270.02161 
L 186.690206 -270.02161 
L 186.95845 -270.02161 
L 187.226694 -270.02161 
L 187.494937 -270.02161 
L 187.763181 -270.02161 
L 188.031425 -270.02161 
L 188.299669 -270.02161 
L 188.567912 -270.02161 
L 188.836156 -270.02161 
L 189.1044 -270.02161 
L 189.372644 -270.02161 
L 189.640888 -270.02161 
L 189.909131 -270.02161 
L 190.177375 -270.02161 
L 190.445619 -270.02161 
L 190.713863 -270.02161 
L 190.982106 -270.02161 
L 191.25035 -270.02161 
L 191.518594 -270.02161 
L 191.786838 -270.02161 
L 192.055082 -270.02161 
L 192.323325 -270.02161 
L 192.591569 -270.02161 
L 192.859813 -270.02161 
L 193.128057 -270.02161 
L 193.3963 -270.02161 
L 193.664544 -270.02161 
L 193.932788 -270.02161 
L 194.201032 -270.02161 
L 194.469275 -270.02161 
L 194.737519 -270.02161 
L 195.005763 -270.02161 
L 195.274007 -270.02161 
L 195.542251 -270.02161 
L 195.810494 -270.02161 
L 196.078738 -270.02161 
L 196.346982 -270.02161 
L 196.615226 -270.02161 
L 196.883469 -270.02161 
L 197.151713 -270.02161 
L 197.419957 -270.02161 
L 197.688201 -270.02161 
L 197.956445 -270.02161 
L 198.224688 -270.02161 
L 198.492932 -270.02161 
L 198.761176 -270.02161 
L 199.02942 -270.02161 
L 199.297663 -270.02161 
L 199.565907 -270.02161 
L 199.834151 -270.02161 
L 200.102395 -270.02161 
L 200.370639 -270.02161 
L 200.638882 -270.02161 
L 200.907126 -270.02161 
L 201.17537 -270.02161 
L 201.443614 -270.02161 
L 201.443614 -169.653812 
L 201.443614 -169.653812 
L 201.17537 -169.653812 
L 200.907126 -169.653812 
L 200.638882 -169.653812 
L 200.370639 -169.653812 
L 200.102395 -169.653812 
L 199.834151 -169.653812 
L 199.565907 -169.653812 
L 199.297663 -169.653812 
L 199.02942 -169.653812 
L 198.761176 -169.653812 
L 198.492932 -169.653812 
L 198.224688 -169.653812 
L 197.956445 -169.653812 
L 197.688201 -169.653812 
L 197.419957 -169.653812 
L 197.151713 -169.653812 
L 196.883469 -169.653812 
L 196.615226 -169.653812 
L 196.346982 -169.653812 
L 196.078738 -169.653812 
L 195.810494 -169.653812 
L 195.542251 -169.653812 
L 195.274007 -169.653812 
L 195.005763 -169.653812 
L 194.737519 -169.653812 
L 194.469275 -169.653812 
L 194.201032 -169.653812 
L 193.932788 -169.653812 
L 193.664544 -169.653812 
L 193.3963 -169.653812 
L 193.128057 -169.653812 
L 192.859813 -169.653812 
L 192.591569 -169.653812 
L 192.323325 -169.653812 
L 192.055082 -169.653812 
L 191.786838 -169.653812 
L 191.518594 -169.653812 
L 191.25035 -169.653812 
L 190.982106 -169.653812 
L 190.713863 -169.653812 
L 190.445619 -169.653812 
L 190.177375 -169.653812 
L 189.909131 -169.653812 
L 189.640888 -169.653812 
L 189.372644 -169.653812 
L 189.1044 -169.653812 
L 188.836156 -169.653812 
L 188.567912 -169.653812 
L 188.299669 -169.653812 
L 188.031425 -169.653812 
L 187.763181 -169.653812 
L 187.494937 -169.653812 
L 187.226694 -169.653812 
L 186.95845 -169.653812 
L 186.690206 -169.653812 
L 186.421962 -169.653812 
L 186.153719 -169.653812 
L 185.885475 -169.653812 
L 185.617231 -169.653812 
L 185.348987 -169.653812 
L 185.080743 -169.653812 
L 184.8125 -169.653812 
L 184.544256 -169.653812 
L 184.276012 -169.653812 
L 184.007768 -169.653812 
L 183.739525 -169.653812 
L 183.471281 -169.653812 
L 183.203037 -169.653812 
L 182.934793 -169.653812 
L 182.666549 -169.653812 
L 182.398306 -169.653812 
L 182.130062 -169.653812 
L 181.861818 -169.653812 
L 181.593574 -169.653812 
L 181.325331 -169.653812 
L 181.057087 -169.653812 
L 180.788843 -169.653812 
L 180.520599 -169.653812 
L 180.252355 -169.653812 
L 179.984112 -169.653812 
L 179.715868 -169.653812 
L 179.447624 -169.653812 
L 179.17938 -169.653812 
L 178.911137 -169.653812 
L 178.642893 -169.653812 
L 178.374649 -169.653812 
L 178.106405 -169.653812 
L 177.838162 -169.653812 
L 177.569918 -169.653812 
L 177.301674 -169.653812 
L 177.03343 -169.653812 
L 176.765186 -169.653812 
L 176.496943 -169.653812 
L 176.228699 -169.653812 
L 175.960455 -169.653812 
L 175.692211 -169.653812 
L 175.423968 -169.653812 
L 175.155724 -169.653812 
L 174.88748 -169.653812 
L 174.619236 -169.653812 
L 174.350992 -169.653812 
L 174.082749 -169.653812 
L 173.814505 -169.653812 
L 173.546261 -169.653812 
L 173.278017 -169.653812 
L 173.009774 -169.653812 
L 172.74153 -169.653812 
L 172.473286 -169.653812 
L 172.205042 -169.653812 
L 171.936799 -169.653812 
L 171.668555 -169.653812 
L 171.400311 -169.653812 
L 171.132067 -169.653812 
L 170.863823 -169.653812 
L 170.59558 -169.653812 
L 170.327336 -169.653812 
L 170.059092 -169.653812 
L 169.790848 -169.653812 
L 169.522605 -169.653812 
L 169.254361 -169.653812 
L 168.986117 -169.653812 
L 168.717873 -169.653812 
L 168.449629 -169.653812 
L 168.181386 -169.653812 
L 167.913142 -169.653812 
L 167.644898 -169.653812 
L 167.376654 -169.653812 
L 167.108411 -169.653812 
L 166.840167 -169.653812 
L 166.571923 -169.653812 
L 166.303679 -169.653812 
L 166.035435 -169.653812 
L 165.767192 -169.653812 
L 165.498948 -169.653812 
L 165.230704 -169.653812 
L 164.96246 -169.653812 
L 164.694217 -169.653812 
L 164.425973 -169.653812 
L 164.157729 -169.653812 
L 163.889485 -169.653812 
L 163.621242 -169.653812 
L 163.352998 -169.653812 
L 163.084754 -169.653812 
L 162.81651 -169.653812 
L 162.548266 -169.653812 
L 162.280023 -169.653812 
L 162.011779 -169.653812 
L 161.743535 -169.653812 
L 161.475291 -169.653812 
L 161.207048 -169.653812 
L 160.938804 -169.653812 
L 160.67056 -169.653812 
L 160.402316 -169.653812 
L 160.134072 -169.653812 
L 159.865829 -169.653812 
L 159.597585 -169.653812 
L 159.329341 -169.653812 
L 159.061097 -169.653812 
L 158.792854 -169.653812 
L 158.52461 -169.653812 
L 158.256366 -169.653812 
L 157.988122 -169.653812 
L 157.719879 -169.653812 
L 157.451635 -169.653812 
L 157.183391 -169.653812 
L 156.915147 -169.653812 
L 156.646903 -169.653812 
L 156.37866 -169.653812 
L 156.110416 -169.653812 
L 155.842172 -169.653812 
L 155.573928 -169.653812 
L 155.305685 -169.653812 
L 155.037441 -169.653812 
L 154.769197 -169.653812 
L 154.500953 -169.653812 
L 154.232709 -169.653812 
L 153.964466 -169.653812 
L 153.696222 -169.653812 
L 153.427978 -169.653812 
L 153.159734 -169.653812 
L 152.891491 -169.653812 
L 152.623247 -169.653812 
L 152.355003 -169.653812 
L 152.086759 -169.653812 
L 151.818515 -169.653812 
L 151.550272 -169.653812 
L 151.282028 -169.653812 
L 151.013784 -169.653812 
L 150.74554 -169.653812 
L 150.477297 -169.653812 
L 150.209053 -169.653812 
L 149.940809 -169.653812 
L 149.672565 -169.653812 
L 149.404322 -169.653812 
L 149.136078 -169.653812 
L 148.867834 -169.653812 
L 148.59959 -169.653812 
L 148.331346 -169.653812 
L 148.063103 -169.653812 
L 147.794859 -169.653812 
L 147.526615 -169.653812 
L 147.258371 -169.653812 
L 146.990128 -169.653812 
L 146.721884 -169.653812 
L 146.45364 -169.653812 
L 146.185396 -169.653812 
L 145.917152 -169.653812 
L 145.648909 -169.653812 
L 145.380665 -169.653812 
L 145.112421 -169.653812 
L 144.844177 -169.653812 
L 144.575934 -169.653812 
L 144.30769 -169.653812 
L 144.039446 -169.653812 
L 143.771202 -169.653812 
L 143.502958 -169.653812 
L 143.234715 -169.653812 
L 142.966471 -169.653812 
L 142.698227 -169.653812 
L 142.429983 -169.653812 
L 142.16174 -169.653812 
L 141.893496 -169.653812 
L 141.625252 -169.653812 
L 141.357008 -169.653812 
L 141.088765 -169.653812 
L 140.820521 -169.653812 
L 140.552277 -169.653812 
L 140.284033 -169.653812 
L 140.015789 -169.653812 
L 139.747546 -169.653812 
L 139.479302 -169.653812 
L 139.211058 -169.653812 
L 138.942814 -169.653812 
L 138.674571 -169.653812 
L 138.406327 -169.653812 
L 138.138083 -169.653812 
L 137.869839 -169.653812 
L 137.601595 -169.653812 
L 137.333352 -169.653812 
L 137.065108 -169.653812 
L 136.796864 -169.653812 
L 136.52862 -169.653812 
L 136.260377 -169.653812 
L 135.992133 -169.653812 
L 135.723889 -169.653812 
L 135.455645 -169.653812 
L 135.187402 -169.653812 
L 134.919158 -169.653812 
L 134.650914 -169.653812 
L 134.38267 -169.653812 
L 134.114426 -169.653812 
L 133.846183 -169.653812 
L 133.577939 -169.653812 
L 133.309695 -169.653812 
L 133.041451 -169.653812 
L 132.773208 -169.653812 
L 132.504964 -169.653812 
L 132.23672 -169.653812 
L 131.968476 -169.653812 
L 131.700232 -169.653812 
L 131.431989 -169.653812 
L 131.163745 -169.653812 
L 130.895501 -169.653812 
L 130.627257 -169.653812 
L 130.359014 -169.653812 
L 130.09077 -169.653812 
L 129.822526 -169.653812 
L 129.554282 -169.653812 
L 129.286038 -169.653812 
L 129.017795 -169.653812 
L 128.749551 -169.653812 
L 128.481307 -169.653812 
L 128.213063 -169.653812 
L 127.94482 -169.653812 
L 127.676576 -169.653812 
L 127.408332 -169.653812 
L 127.140088 -169.653812 
L 126.871845 -169.653812 
L 126.603601 -169.653812 
L 126.335357 -169.653812 
L 126.067113 -169.653812 
L 125.798869 -169.653812 
L 125.530626 -169.653812 
L 125.262382 -169.653812 
L 124.994138 -169.653812 
L 124.725894 -169.653812 
L 124.457651 -169.653812 
L 124.189407 -169.653812 
L 123.921163 -169.653812 
L 123.652919 -169.653812 
L 123.384675 -169.653812 
L 123.116432 -169.653812 
L 122.848188 -169.653812 
L 122.579944 -169.653812 
L 122.3117 -169.653812 
L 122.043457 -169.653812 
L 121.775213 -169.653812 
L 121.506969 -169.653812 
L 121.238725 -169.653812 
L 120.970482 -169.653812 
L 120.702238 -169.653812 
L 120.433994 -169.653812 
L 120.16575 -169.653812 
L 119.897506 -169.653812 
L 119.629263 -169.653812 
L 119.361019 -169.653812 
L 119.092775 -169.653812 
L 118.824531 -169.653812 
L 118.556288 -169.653812 
L 118.288044 -169.653812 
L 118.0198 -169.653812 
L 117.751556 -169.653812 
L 117.483312 -169.653812 
L 117.215069 -169.653812 
L 116.946825 -169.653812 
L 116.678581 -169.653812 
L 116.410337 -169.653812 
L 116.142094 -169.653812 
L 115.87385 -169.653812 
L 115.605606 -169.653812 
L 115.337362 -169.653812 
L 115.069118 -169.653812 
L 114.800875 -169.653812 
L 114.532631 -169.653812 
L 114.264387 -169.653812 
L 113.996143 -169.653812 
L 113.7279 -169.653812 
L 113.459656 -169.653812 
L 113.191412 -169.653812 
L 112.923168 -169.653812 
L 112.654925 -169.653812 
L 112.386681 -169.653812 
L 112.118437 -169.653812 
L 111.850193 -169.653812 
L 111.581949 -169.653812 
L 111.313706 -169.653812 
L 111.045462 -169.653812 
L 110.777218 -169.653812 
L 110.508974 -169.653812 
L 110.240731 -169.653812 
L 109.972487 -169.653812 
L 109.704243 -169.653812 
L 109.435999 -169.653812 
L 109.167755 -169.653812 
L 108.899512 -169.653812 
L 108.631268 -169.653812 
L 108.363024 -169.653812 
L 108.09478 -169.653812 
L 107.826537 -169.653812 
L 107.558293 -169.653812 
L 107.290049 -169.653812 
L 107.021805 -169.653812 
L 106.753562 -169.653812 
L 106.485318 -169.653812 
L 106.217074 -169.653812 
L 105.94883 -169.653812 
L 105.680586 -169.653812 
L 105.412343 -169.653812 
L 105.144099 -169.653812 
L 104.875855 -169.653812 
L 104.607611 -169.653812 
L 104.339368 -169.653812 
L 104.071124 -169.653812 
L 103.80288 -169.653812 
L 103.534636 -169.653812 
L 103.266392 -169.653812 
L 102.998149 -169.653812 
L 102.729905 -169.653812 
L 102.461661 -169.653812 
L 102.193417 -169.653812 
L 101.925174 -169.653812 
L 101.65693 -169.653812 
L 101.388686 -169.653812 
L 101.120442 -169.653812 
L 100.852198 -169.653812 
L 100.583955 -169.653812 
L 100.315711 -169.653812 
L 100.047467 -169.653812 
L 99.779223 -169.653812 
L 99.51098 -169.653812 
L 99.242736 -169.653812 
L 98.974492 -169.653812 
L 98.706248 -169.653812 
L 98.438005 -169.653812 
L 98.169761 -169.653812 
L 97.901517 -169.653812 
L 97.633273 -169.653812 
L 97.365029 -169.653812 
L 97.096786 -169.653812 
L 96.828542 -169.653812 
L 96.560298 -169.653812 
L 96.292054 -169.653812 
L 96.023811 -169.653812 
L 95.755567 -169.653812 
L 95.487323 -169.653812 
L 95.219079 -169.653812 
L 94.950835 -169.653812 
L 94.682592 -169.653812 
L 94.414348 -169.653812 
L 94.146104 -169.653812 
L 93.87786 -169.653812 
L 93.609617 -169.653812 
L 93.341373 -169.653812 
L 93.073129 -169.653812 
L 92.804885 -169.653812 
L 92.536641 -169.653812 
L 92.268398 -169.653812 
L 92.000154 -169.653812 
L 91.73191 -169.653812 
L 91.463666 -169.653812 
L 91.195423 -169.653812 
L 90.927179 -169.653812 
L 90.658935 -169.653812 
L 90.390691 -169.653812 
L 90.122448 -169.653812 
L 89.854204 -169.653812 
L 89.58596 -169.653812 
L 89.317716 -169.653812 
L 89.049472 -169.653812 
L 88.781229 -169.653812 
L 88.512985 -169.653812 
L 88.244741 -169.653812 
L 87.976497 -169.653812 
L 87.708254 -169.653812 
L 87.44001 -169.653812 
L 87.171766 -169.653812 
L 86.903522 -169.653812 
L 86.635278 -169.653812 
L 86.367035 -169.653812 
L 86.098791 -169.653812 
L 85.830547 -169.653812 
L 85.562303 -169.653812 
L 85.29406 -169.653812 
L 85.025816 -169.653812 
L 84.757572 -169.653812 
L 84.489328 -169.653812 
L 84.221085 -169.653812 
L 83.952841 -169.653812 
L 83.684597 -169.653812 
L 83.416353 -169.653812 
L 83.148109 -169.653812 
L 82.879866 -169.653812 
L 82.611622 -169.653812 
L 82.343378 -169.653812 
L 82.075134 -169.653812 
L 81.806891 -169.653812 
L 81.538647 -169.653812 
L 81.270403 -169.653812 
L 81.002159 -169.653812 
L 80.733915 -169.653812 
L 80.465672 -169.653812 
L 80.197428 -169.653812 
L 79.929184 -169.653812 
L 79.66094 -169.653812 
L 79.392697 -169.653812 
L 79.124453 -169.653812 
L 78.856209 -169.653812 
L 78.587965 -169.653812 
L 78.319721 -169.653812 
L 78.051478 -169.653812 
L 77.783234 -169.653812 
L 77.51499 -169.653812 
L 77.246746 -169.653812 
L 76.978503 -169.653812 
L 76.710259 -169.653812 
L 76.442015 -169.653812 
L 76.173771 -169.653812 
L 75.905528 -169.653812 
L 75.637284 -169.653812 
L 75.36904 -169.653812 
L 75.100796 -169.653812 
L 74.832552 -169.653812 
L 74.564309 -169.653812 
L 74.296065 -169.653812 
L 74.027821 -169.653812 
L 73.759577 -169.653812 
L 73.491334 -169.653812 
L 73.22309 -169.653812 
L 72.954846 -169.653812 
L 72.686602 -169.653812 
L 72.418358 -169.653812 
L 72.150115 -169.653812 
L 71.881871 -169.653812 
L 71.613627 -169.653812 
L 71.345383 -169.653812 
L 71.07714 -169.653812 
L 70.808896 -169.653812 
L 70.540652 -169.653812 
L 70.272408 -169.653812 
L 70.004165 -169.653812 
L 69.735921 -169.653812 
L 69.467677 -169.653812 
L 69.199433 -169.653812 
L 68.931189 -169.653812 
L 68.662946 -169.653812 
L 68.394702 -169.653812 
L 68.126458 -169.653812 
L 67.858214 -169.653812 
L 67.589971 -169.653812 
z
" style="stroke: #000000; stroke-opacity: 0.1; stroke-width: 0.5"/>
    </defs>
    <g clip-path="url(#pccd5a0b5a5)">
     <use xlink:href="#me5eaa7b810" x="0" y="288" style="fill-opacity: 0.1; stroke: #000000; stroke-opacity: 0.1; stroke-width: 0.5"/>
    </g>
   </g>
   <g id="line2d_17">
    <path d="M 67.589971 17.97839 
L 201.443614 17.97839 
L 201.443614 17.97839 
" clip-path="url(#pccd5a0b5a5)" style="fill: none; stroke: #000000; stroke-opacity: 0.5; stroke-width: 0.7; stroke-linecap: square"/>
   </g>
   <g id="line2d_18">
    <path d="M 67.589971 118.346188 
L 201.443614 118.346188 
L 201.443614 118.346188 
" clip-path="url(#pccd5a0b5a5)" style="fill: none; stroke: #000000; stroke-width: 0.7; stroke-linecap: square"/>
   </g>
   <g id="patch_3">
    <path d="M 60.897288 123.364578 
L 60.897288 12.96 
" style="fill: none; stroke: #000000; stroke-width: 0.5; stroke-linejoin: miter; stroke-linecap: square"/>
   </g>
   <g id="patch_4">
    <path d="M 60.897288 123.364578 
L 208.136296 123.364578 
" style="fill: none; stroke: #000000; stroke-width: 0.5; stroke-linejoin: miter; stroke-linecap: square"/>
   </g>
  </g>
  <g id="axes_2">
   <g id="patch_5">
    <path d="M 271.800993 123.364578 
L 419.04 123.364578 
L 419.04 12.96 
L 271.800993 12.96 
z
" style="fill: #ffffff"/>
   </g>
   <g id="matplotlib.axis_3">
    <g id="xtick_4">
     <g id="line2d_19">
      <path d="M 278.493675 123.364578 
L 278.493675 12.96 
" clip-path="url(#p6136e891e0)" style="fill: none; stroke: #d3d3d3; stroke-width: 0.2; stroke-linecap: square"/>
     </g>
     <g id="line2d_20">
      <g>
       <use xlink:href="#m3f81c9d92d" x="278.493675" y="123.364578" style="stroke: #000000; stroke-width: 0.8"/>
      </g>
     </g>
     <g id="text_11">
      <!-- $\mathdefault{0}$ -->
      <g transform="translate(276.003007 133.783076) scale(0.1 -0.1)">
       <use xlink:href="#CMR17-30" transform="scale(0.996264)"/>
      </g>
     </g>
    </g>
    <g id="xtick_5">
     <g id="line2d_21">
      <path d="M 332.035132 123.364578 
L 332.035132 12.96 
" clip-path="url(#p6136e891e0)" style="fill: none; stroke: #d3d3d3; stroke-width: 0.2; stroke-linecap: square"/>
     </g>
     <g id="line2d_22">
      <g>
       <use xlink:href="#m3f81c9d92d" x="332.035132" y="123.364578" style="stroke: #000000; stroke-width: 0.8"/>
      </g>
     </g>
     <g id="text_12">
      <!-- $\mathdefault{2}$ -->
      <g transform="translate(329.544464 133.783076) scale(0.1 -0.1)">
       <use xlink:href="#CMR17-32" transform="scale(0.996264)"/>
      </g>
     </g>
    </g>
    <g id="xtick_6">
     <g id="line2d_23">
      <path d="M 385.576589 123.364578 
L 385.576589 12.96 
" clip-path="url(#p6136e891e0)" style="fill: none; stroke: #d3d3d3; stroke-width: 0.2; stroke-linecap: square"/>
     </g>
     <g id="line2d_24">
      <g>
       <use xlink:href="#m3f81c9d92d" x="385.576589" y="123.364578" style="stroke: #000000; stroke-width: 0.8"/>
      </g>
     </g>
     <g id="text_13">
      <!-- $\mathdefault{4}$ -->
      <g transform="translate(383.085922 133.783076) scale(0.1 -0.1)">
       <use xlink:href="#CMR17-34" transform="scale(0.996264)"/>
      </g>
     </g>
    </g>
    <g id="text_14">
     <!-- $x$ [m] -->
     <g transform="translate(332.014303 148.68663) scale(0.12 -0.12)">
      <use xlink:href="#CMMI12-78" transform="scale(0.996264)"/>
      <use xlink:href="#CMR17-5b" transform="translate(85.510026 0) scale(0.996264)"/>
      <use xlink:href="#CMR17-6d" transform="translate(110.381084 0) scale(0.996264)"/>
      <use xlink:href="#CMR17-5d" transform="translate(187.300674 0) scale(0.996264)"/>
     </g>
    </g>
   </g>
   <g id="matplotlib.axis_4">
    <g id="ytick_6">
     <g id="line2d_25">
      <path d="M 271.800993 38.051949 
L 419.04 38.051949 
" clip-path="url(#p6136e891e0)" style="fill: none; stroke: #d3d3d3; stroke-width: 0.2; stroke-linecap: square"/>
     </g>
     <g id="line2d_26">
      <g>
       <use xlink:href="#m8453d3be8e" x="271.800993" y="38.051949" style="stroke: #000000; stroke-width: 0.8"/>
      </g>
     </g>
     <g id="text_15">
      <!-- $\mathdefault{−0.004}$ -->
      <g transform="translate(237.859499 41.511199) scale(0.1 -0.1)">
       <defs>
        <path id="CMSY10-0" d="M 4218 1472 
C 4326 1472 4442 1472 4442 1600 
C 4442 1728 4326 1728 4218 1728 
L 755 1728 
C 646 1728 531 1728 531 1600 
C 531 1472 646 1472 755 1472 
L 4218 1472 
z
" transform="scale(0.015625)"/>
       </defs>
       <use xlink:href="#CMSY10-0" transform="scale(0.996264)"/>
       <use xlink:href="#CMR17-30" transform="translate(77.487468 0) scale(0.996264)"/>
       <use xlink:href="#CMMI12-3a" transform="translate(123.177945 0) scale(0.996264)"/>
       <use xlink:href="#CMR17-30" transform="translate(150.275122 0) scale(0.996264)"/>
       <use xlink:href="#CMR17-30" transform="translate(195.965599 0) scale(0.996264)"/>
       <use xlink:href="#CMR17-34" transform="translate(241.656076 0) scale(0.996264)"/>
      </g>
     </g>
    </g>
    <g id="ytick_7">
     <g id="line2d_27">
      <path d="M 271.800993 78.199069 
L 419.04 78.199069 
" clip-path="url(#p6136e891e0)" style="fill: none; stroke: #d3d3d3; stroke-width: 0.2; stroke-linecap: square"/>
     </g>
     <g id="line2d_28">
      <g>
       <use xlink:href="#m8453d3be8e" x="271.800993" y="78.199069" style="stroke: #000000; stroke-width: 0.8"/>
      </g>
     </g>
     <g id="text_16">
      <!-- $\mathdefault{−0.002}$ -->
      <g transform="translate(237.859499 81.658318) scale(0.1 -0.1)">
       <use xlink:href="#CMSY10-0" transform="scale(0.996264)"/>
       <use xlink:href="#CMR17-30" transform="translate(77.487468 0) scale(0.996264)"/>
       <use xlink:href="#CMMI12-3a" transform="translate(123.177945 0) scale(0.996264)"/>
       <use xlink:href="#CMR17-30" transform="translate(150.275122 0) scale(0.996264)"/>
       <use xlink:href="#CMR17-30" transform="translate(195.965599 0) scale(0.996264)"/>
       <use xlink:href="#CMR17-32" transform="translate(241.656076 0) scale(0.996264)"/>
      </g>
     </g>
    </g>
    <g id="ytick_8">
     <g id="line2d_29">
      <path d="M 271.800993 118.346188 
L 419.04 118.346188 
" clip-path="url(#p6136e891e0)" style="fill: none; stroke: #d3d3d3; stroke-width: 0.2; stroke-linecap: square"/>
     </g>
     <g id="line2d_30">
      <g>
       <use xlink:href="#m8453d3be8e" x="271.800993" y="118.346188" style="stroke: #000000; stroke-width: 0.8"/>
      </g>
     </g>
     <g id="text_17">
      <!-- $\mathdefault{0.000}$ -->
      <g transform="translate(245.608243 121.805437) scale(0.1 -0.1)">
       <use xlink:href="#CMR17-30" transform="scale(0.996264)"/>
       <use xlink:href="#CMMI12-3a" transform="translate(45.690477 0) scale(0.996264)"/>
       <use xlink:href="#CMR17-30" transform="translate(72.787654 0) scale(0.996264)"/>
       <use xlink:href="#CMR17-30" transform="translate(118.478131 0) scale(0.996264)"/>
       <use xlink:href="#CMR17-30" transform="translate(164.168608 0) scale(0.996264)"/>
      </g>
     </g>
    </g>
    <g id="text_18">
     <!-- $\bar{M}$ [m] -->
     <g transform="translate(230.870707 84.529242) rotate(-90) scale(0.12 -0.12)">
      <defs>
       <path id="CMMI12-4d" d="M 5811 3886 
C 5869 4102 5882 4166 6336 4166 
C 6458 4166 6515 4166 6515 4287 
C 6515 4352 6470 4352 6349 4352 
L 5581 4352 
C 5421 4352 5414 4345 5344 4243 
L 3008 567 
L 2528 4211 
C 2509 4352 2502 4352 2336 4352 
L 1542 4352 
C 1421 4352 1363 4352 1363 4230 
C 1363 4166 1421 4166 1517 4166 
C 1907 4166 1907 4115 1907 4045 
C 1907 4032 1907 3994 1882 3898 
L 1062 650 
C 986 344 838 204 410 185 
C 390 185 314 179 314 70 
C 314 0 371 0 397 0 
C 525 0 851 12 979 12 
L 1286 12 
C 1376 12 1485 0 1574 0 
C 1619 0 1690 0 1690 121 
C 1690 179 1626 185 1600 185 
C 1389 191 1184 230 1184 459 
C 1184 523 1184 529 1210 618 
L 2093 4128 
L 2099 4128 
L 2630 172 
C 2650 19 2656 0 2714 0 
C 2784 0 2816 51 2848 108 
L 5421 4159 
L 5427 4159 
L 4499 472 
C 4442 249 4429 185 3981 185 
C 3859 185 3795 185 3795 70 
C 3795 0 3853 0 3891 0 
C 4000 0 4128 12 4237 12 
L 4992 12 
C 5101 12 5235 0 5344 0 
C 5395 0 5466 0 5466 121 
C 5466 185 5408 185 5312 185 
C 4922 185 4922 236 4922 300 
C 4922 306 4922 351 4934 402 
L 5811 3886 
z
" transform="scale(0.015625)"/>
      </defs>
      <use xlink:href="#CMR17-16" transform="translate(37.673954 25.189733) scale(0.996264)"/>
      <use xlink:href="#CMMI12-4d" transform="scale(0.996264)"/>
      <use xlink:href="#CMR17-5b" transform="translate(134.856045 0) scale(0.996264)"/>
      <use xlink:href="#CMR17-6d" transform="translate(159.727104 0) scale(0.996264)"/>
      <use xlink:href="#CMR17-5d" transform="translate(236.646694 0) scale(0.996264)"/>
     </g>
    </g>
   </g>
   <g id="PolyCollection_2">
    <defs>
     <path id="m6d971b4042" d="M 278.493675 -169.653812 
L 278.493675 -270.02161 
L 278.761919 -269.820472 
L 279.030162 -269.619334 
L 279.298406 -269.418196 
L 279.56665 -269.217059 
L 279.834894 -269.015921 
L 280.103137 -268.814783 
L 280.371381 -268.613645 
L 280.639625 -268.412507 
L 280.907869 -268.211369 
L 281.176113 -268.010231 
L 281.444356 -267.809094 
L 281.7126 -267.607956 
L 281.980844 -267.406818 
L 282.249088 -267.20568 
L 282.517331 -267.004542 
L 282.785575 -266.803404 
L 283.053819 -266.602266 
L 283.322063 -266.401128 
L 283.590306 -266.199991 
L 283.85855 -265.998853 
L 284.126794 -265.797715 
L 284.395038 -265.596577 
L 284.663282 -265.395439 
L 284.931525 -265.194301 
L 285.199769 -264.993163 
L 285.468013 -264.792025 
L 285.736257 -264.590888 
L 286.0045 -264.38975 
L 286.272744 -264.188612 
L 286.540988 -263.987474 
L 286.809232 -263.786336 
L 287.077476 -263.585198 
L 287.345719 -263.38406 
L 287.613963 -263.182922 
L 287.882207 -262.981785 
L 288.150451 -262.780647 
L 288.418694 -262.579509 
L 288.686938 -262.378371 
L 288.955182 -262.177233 
L 289.223426 -261.976095 
L 289.49167 -261.774957 
L 289.759913 -261.57382 
L 290.028157 -261.372682 
L 290.296401 -261.171544 
L 290.564645 -260.970406 
L 290.832888 -260.769268 
L 291.101132 -260.56813 
L 291.369376 -260.366992 
L 291.63762 -260.165854 
L 291.905863 -259.964717 
L 292.174107 -259.763579 
L 292.442351 -259.562441 
L 292.710595 -259.361303 
L 292.978839 -259.160165 
L 293.247082 -258.959027 
L 293.515326 -258.757889 
L 293.78357 -258.556751 
L 294.051814 -258.355614 
L 294.320057 -258.154476 
L 294.588301 -257.953338 
L 294.856545 -257.7522 
L 295.124789 -257.551062 
L 295.393033 -257.349924 
L 295.661276 -257.148786 
L 295.92952 -256.947648 
L 296.197764 -256.746511 
L 296.466008 -256.545373 
L 296.734251 -256.344235 
L 297.002495 -256.143097 
L 297.270739 -255.941959 
L 297.538983 -255.740821 
L 297.807226 -255.539683 
L 298.07547 -255.338546 
L 298.343714 -255.137408 
L 298.611958 -254.93627 
L 298.880202 -254.735132 
L 299.148445 -254.533994 
L 299.416689 -254.332856 
L 299.684933 -254.131718 
L 299.953177 -253.93058 
L 300.22142 -253.729443 
L 300.489664 -253.528305 
L 300.757908 -253.327167 
L 301.026152 -253.126029 
L 301.294396 -252.924891 
L 301.562639 -252.723753 
L 301.830883 -252.522615 
L 302.099127 -252.321477 
L 302.367371 -252.12034 
L 302.635614 -251.919202 
L 302.903858 -251.718064 
L 303.172102 -251.516926 
L 303.440346 -251.315788 
L 303.70859 -251.11465 
L 303.976833 -250.913512 
L 304.245077 -250.712374 
L 304.513321 -250.511237 
L 304.781565 -250.310099 
L 305.049808 -250.108961 
L 305.318052 -249.907823 
L 305.586296 -249.706685 
L 305.85454 -249.505547 
L 306.122783 -249.304409 
L 306.391027 -249.103271 
L 306.659271 -248.902134 
L 306.927515 -248.700996 
L 307.195759 -248.499858 
L 307.464002 -248.29872 
L 307.732246 -248.097582 
L 308.00049 -247.896444 
L 308.268734 -247.695306 
L 308.536977 -247.494169 
L 308.805221 -247.293031 
L 309.073465 -247.091893 
L 309.341709 -246.890755 
L 309.609953 -246.689617 
L 309.878196 -246.488479 
L 310.14644 -246.287341 
L 310.414684 -246.086203 
L 310.682928 -245.885066 
L 310.951171 -245.683928 
L 311.219415 -245.48279 
L 311.487659 -245.281652 
L 311.755903 -245.080514 
L 312.024146 -244.879376 
L 312.29239 -244.678238 
L 312.560634 -244.4771 
L 312.828878 -244.275963 
L 313.097122 -244.074825 
L 313.365365 -243.873687 
L 313.633609 -243.672549 
L 313.901853 -243.471411 
L 314.170097 -243.270273 
L 314.43834 -243.069135 
L 314.706584 -242.867997 
L 314.974828 -242.66686 
L 315.243072 -242.465722 
L 315.511316 -242.264584 
L 315.779559 -242.063446 
L 316.047803 -241.862308 
L 316.316047 -241.66117 
L 316.584291 -241.460032 
L 316.852534 -241.258895 
L 317.120778 -241.057757 
L 317.389022 -240.856619 
L 317.657266 -240.655481 
L 317.92551 -240.454343 
L 318.193753 -240.253205 
L 318.461997 -240.052067 
L 318.730241 -239.850929 
L 318.998485 -239.649792 
L 319.266728 -239.448654 
L 319.534972 -239.247516 
L 319.803216 -239.046378 
L 320.07146 -238.84524 
L 320.339703 -238.644102 
L 320.607947 -238.442964 
L 320.876191 -238.241826 
L 321.144435 -238.040689 
L 321.412679 -237.839551 
L 321.680922 -237.638413 
L 321.949166 -237.437275 
L 322.21741 -237.236137 
L 322.485654 -237.034999 
L 322.753897 -236.833861 
L 323.022141 -236.632723 
L 323.290385 -236.431586 
L 323.558629 -236.230448 
L 323.826873 -236.02931 
L 324.095116 -235.828172 
L 324.36336 -235.627034 
L 324.631604 -235.425896 
L 324.899848 -235.224758 
L 325.168091 -235.02362 
L 325.436335 -234.822483 
L 325.704579 -234.621345 
L 325.972823 -234.420207 
L 326.241066 -234.219069 
L 326.50931 -234.017931 
L 326.777554 -233.816793 
L 327.045798 -233.615655 
L 327.314042 -233.414518 
L 327.582285 -233.21338 
L 327.850529 -233.012242 
L 328.118773 -232.811104 
L 328.387017 -232.609966 
L 328.65526 -232.408828 
L 328.923504 -232.20769 
L 329.191748 -232.006552 
L 329.459992 -231.805415 
L 329.728236 -231.604277 
L 329.996479 -231.403139 
L 330.264723 -231.202001 
L 330.532967 -231.000863 
L 330.801211 -230.799725 
L 331.069454 -230.598587 
L 331.337698 -230.397449 
L 331.605942 -230.196312 
L 331.874186 -229.995174 
L 332.14243 -229.794036 
L 332.410673 -229.592898 
L 332.678917 -229.39176 
L 332.947161 -229.190622 
L 333.215405 -228.989484 
L 333.483648 -228.788346 
L 333.751892 -228.587209 
L 334.020136 -228.386071 
L 334.28838 -228.184933 
L 334.556623 -227.983795 
L 334.824867 -227.782657 
L 335.093111 -227.581519 
L 335.361355 -227.380381 
L 335.629599 -227.179244 
L 335.897842 -226.978106 
L 336.166086 -226.776968 
L 336.43433 -226.57583 
L 336.702574 -226.374692 
L 336.970817 -226.173554 
L 337.239061 -225.972416 
L 337.507305 -225.771278 
L 337.775549 -225.570141 
L 338.043793 -225.369003 
L 338.312036 -225.167865 
L 338.58028 -224.966727 
L 338.848524 -224.765589 
L 339.116768 -224.564451 
L 339.385011 -224.363313 
L 339.653255 -224.162175 
L 339.921499 -223.961038 
L 340.189743 -223.7599 
L 340.457987 -223.558762 
L 340.72623 -223.357624 
L 340.994474 -223.156486 
L 341.262718 -222.955348 
L 341.530962 -222.75421 
L 341.799205 -222.553072 
L 342.067449 -222.351935 
L 342.335693 -222.150797 
L 342.603937 -221.949659 
L 342.87218 -221.748521 
L 343.140424 -221.547383 
L 343.408668 -221.346245 
L 343.676912 -221.145107 
L 343.945156 -220.943969 
L 344.213399 -220.742832 
L 344.481643 -220.541694 
L 344.749887 -220.340556 
L 345.018131 -220.139418 
L 345.286374 -219.93828 
L 345.554618 -219.737142 
L 345.822862 -219.536004 
L 346.091106 -219.334867 
L 346.35935 -219.133729 
L 346.627593 -218.932591 
L 346.895837 -218.731453 
L 347.164081 -218.530315 
L 347.432325 -218.329177 
L 347.700568 -218.128039 
L 347.968812 -217.926901 
L 348.237056 -217.725764 
L 348.5053 -217.524626 
L 348.773543 -217.323488 
L 349.041787 -217.12235 
L 349.310031 -216.921212 
L 349.578275 -216.720074 
L 349.846519 -216.518936 
L 350.114762 -216.317798 
L 350.383006 -216.116661 
L 350.65125 -215.915523 
L 350.919494 -215.714385 
L 351.187737 -215.513247 
L 351.455981 -215.312109 
L 351.724225 -215.110971 
L 351.992469 -214.909833 
L 352.260713 -214.708695 
L 352.528956 -214.507558 
L 352.7972 -214.30642 
L 353.065444 -214.105282 
L 353.333688 -213.904144 
L 353.601931 -213.703006 
L 353.870175 -213.501868 
L 354.138419 -213.30073 
L 354.406663 -213.099593 
L 354.674907 -212.898455 
L 354.94315 -212.697317 
L 355.211394 -212.496179 
L 355.479638 -212.295041 
L 355.747882 -212.093903 
L 356.016125 -211.892765 
L 356.284369 -211.691627 
L 356.552613 -211.49049 
L 356.820857 -211.289352 
L 357.0891 -211.088214 
L 357.357344 -210.887076 
L 357.625588 -210.685938 
L 357.893832 -210.4848 
L 358.162076 -210.283662 
L 358.430319 -210.082524 
L 358.698563 -209.881387 
L 358.966807 -209.680249 
L 359.235051 -209.479111 
L 359.503294 -209.277973 
L 359.771538 -209.076835 
L 360.039782 -208.875697 
L 360.308026 -208.674559 
L 360.57627 -208.473421 
L 360.844513 -208.272284 
L 361.112757 -208.071146 
L 361.381001 -207.870008 
L 361.649245 -207.66887 
L 361.917488 -207.467732 
L 362.185732 -207.266594 
L 362.453976 -207.065456 
L 362.72222 -206.864319 
L 362.990463 -206.663181 
L 363.258707 -206.462043 
L 363.526951 -206.260905 
L 363.795195 -206.059767 
L 364.063439 -205.858629 
L 364.331682 -205.657491 
L 364.599926 -205.456353 
L 364.86817 -205.255216 
L 365.136414 -205.054078 
L 365.404657 -204.85294 
L 365.672901 -204.651802 
L 365.941145 -204.450664 
L 366.209389 -204.249526 
L 366.477633 -204.048388 
L 366.745876 -203.84725 
L 367.01412 -203.646113 
L 367.282364 -203.444975 
L 367.550608 -203.243837 
L 367.818851 -203.042699 
L 368.087095 -202.841561 
L 368.355339 -202.640423 
L 368.623583 -202.439285 
L 368.891827 -202.238147 
L 369.16007 -202.03701 
L 369.428314 -201.835872 
L 369.696558 -201.634734 
L 369.964802 -201.433596 
L 370.233045 -201.232458 
L 370.501289 -201.03132 
L 370.769533 -200.830182 
L 371.037777 -200.629044 
L 371.30602 -200.427907 
L 371.574264 -200.226769 
L 371.842508 -200.025631 
L 372.110752 -199.824493 
L 372.378996 -199.623355 
L 372.647239 -199.422217 
L 372.915483 -199.221079 
L 373.183727 -199.019942 
L 373.451971 -198.818804 
L 373.720214 -198.617666 
L 373.988458 -198.416528 
L 374.256702 -198.21539 
L 374.524946 -198.014252 
L 374.79319 -197.813114 
L 375.061433 -197.611976 
L 375.329677 -197.410839 
L 375.597921 -197.209701 
L 375.866165 -197.008563 
L 376.134408 -196.807425 
L 376.402652 -196.606287 
L 376.670896 -196.405149 
L 376.93914 -196.204011 
L 377.207383 -196.002873 
L 377.475627 -195.801736 
L 377.743871 -195.600598 
L 378.012115 -195.39946 
L 378.280359 -195.198322 
L 378.548602 -194.997184 
L 378.816846 -194.796046 
L 379.08509 -194.594908 
L 379.353334 -194.39377 
L 379.621577 -194.192633 
L 379.889821 -193.991495 
L 380.158065 -193.790357 
L 380.426309 -193.589219 
L 380.694553 -193.388081 
L 380.962796 -193.186943 
L 381.23104 -192.985805 
L 381.499284 -192.784668 
L 381.767528 -192.58353 
L 382.035771 -192.382392 
L 382.304015 -192.181254 
L 382.572259 -191.980116 
L 382.840503 -191.778978 
L 383.108747 -191.57784 
L 383.37699 -191.376702 
L 383.645234 -191.175565 
L 383.913478 -190.974427 
L 384.181722 -190.773289 
L 384.449965 -190.572151 
L 384.718209 -190.371013 
L 384.986453 -190.169875 
L 385.254697 -189.968737 
L 385.52294 -189.767599 
L 385.791184 -189.566462 
L 386.059428 -189.365324 
L 386.327672 -189.164186 
L 386.595916 -188.963048 
L 386.864159 -188.76191 
L 387.132403 -188.560772 
L 387.400647 -188.359634 
L 387.668891 -188.158496 
L 387.937134 -187.957359 
L 388.205378 -187.756221 
L 388.473622 -187.555083 
L 388.741866 -187.353945 
L 389.01011 -187.152807 
L 389.278353 -186.951669 
L 389.546597 -186.750531 
L 389.814841 -186.549393 
L 390.083085 -186.348256 
L 390.351328 -186.147118 
L 390.619572 -185.94598 
L 390.887816 -185.744842 
L 391.15606 -185.543704 
L 391.424303 -185.342566 
L 391.692547 -185.141428 
L 391.960791 -184.940291 
L 392.229035 -184.739153 
L 392.497279 -184.538015 
L 392.765522 -184.336877 
L 393.033766 -184.135739 
L 393.30201 -183.934601 
L 393.570254 -183.733463 
L 393.838497 -183.532325 
L 394.106741 -183.331188 
L 394.374985 -183.13005 
L 394.643229 -182.928912 
L 394.911473 -182.727774 
L 395.179716 -182.526636 
L 395.44796 -182.325498 
L 395.716204 -182.12436 
L 395.984448 -181.923222 
L 396.252691 -181.722085 
L 396.520935 -181.520947 
L 396.789179 -181.319809 
L 397.057423 -181.118671 
L 397.325667 -180.917533 
L 397.59391 -180.716395 
L 397.862154 -180.515257 
L 398.130398 -180.314119 
L 398.398642 -180.112982 
L 398.666885 -179.911844 
L 398.935129 -179.710706 
L 399.203373 -179.509568 
L 399.471617 -179.30843 
L 399.73986 -179.107292 
L 400.008104 -178.906154 
L 400.276348 -178.705017 
L 400.544592 -178.503879 
L 400.812836 -178.302741 
L 401.081079 -178.101603 
L 401.349323 -177.900465 
L 401.617567 -177.699327 
L 401.885811 -177.498189 
L 402.154054 -177.297051 
L 402.422298 -177.095914 
L 402.690542 -176.894776 
L 402.958786 -176.693638 
L 403.22703 -176.4925 
L 403.495273 -176.291362 
L 403.763517 -176.090224 
L 404.031761 -175.889086 
L 404.300005 -175.687948 
L 404.568248 -175.486811 
L 404.836492 -175.285673 
L 405.104736 -175.084535 
L 405.37298 -174.883397 
L 405.641224 -174.682259 
L 405.909467 -174.481121 
L 406.177711 -174.279983 
L 406.445955 -174.078845 
L 406.714199 -173.877708 
L 406.982442 -173.67657 
L 407.250686 -173.475432 
L 407.51893 -173.274294 
L 407.787174 -173.073156 
L 408.055417 -172.872018 
L 408.323661 -172.67088 
L 408.591905 -172.469743 
L 408.860149 -172.268605 
L 409.128393 -172.067467 
L 409.396636 -171.866329 
L 409.66488 -171.665191 
L 409.933124 -171.464053 
L 410.201368 -171.262915 
L 410.469611 -171.061777 
L 410.737855 -170.86064 
L 411.006099 -170.659502 
L 411.274343 -170.458364 
L 411.542587 -170.257226 
L 411.81083 -170.056088 
L 412.079074 -169.85495 
L 412.347318 -169.653812 
L 412.347318 -169.653812 
L 412.347318 -169.653812 
L 412.079074 -169.653812 
L 411.81083 -169.653812 
L 411.542587 -169.653812 
L 411.274343 -169.653812 
L 411.006099 -169.653812 
L 410.737855 -169.653812 
L 410.469611 -169.653812 
L 410.201368 -169.653812 
L 409.933124 -169.653812 
L 409.66488 -169.653812 
L 409.396636 -169.653812 
L 409.128393 -169.653812 
L 408.860149 -169.653812 
L 408.591905 -169.653812 
L 408.323661 -169.653812 
L 408.055417 -169.653812 
L 407.787174 -169.653812 
L 407.51893 -169.653812 
L 407.250686 -169.653812 
L 406.982442 -169.653812 
L 406.714199 -169.653812 
L 406.445955 -169.653812 
L 406.177711 -169.653812 
L 405.909467 -169.653812 
L 405.641224 -169.653812 
L 405.37298 -169.653812 
L 405.104736 -169.653812 
L 404.836492 -169.653812 
L 404.568248 -169.653812 
L 404.300005 -169.653812 
L 404.031761 -169.653812 
L 403.763517 -169.653812 
L 403.495273 -169.653812 
L 403.22703 -169.653812 
L 402.958786 -169.653812 
L 402.690542 -169.653812 
L 402.422298 -169.653812 
L 402.154054 -169.653812 
L 401.885811 -169.653812 
L 401.617567 -169.653812 
L 401.349323 -169.653812 
L 401.081079 -169.653812 
L 400.812836 -169.653812 
L 400.544592 -169.653812 
L 400.276348 -169.653812 
L 400.008104 -169.653812 
L 399.73986 -169.653812 
L 399.471617 -169.653812 
L 399.203373 -169.653812 
L 398.935129 -169.653812 
L 398.666885 -169.653812 
L 398.398642 -169.653812 
L 398.130398 -169.653812 
L 397.862154 -169.653812 
L 397.59391 -169.653812 
L 397.325667 -169.653812 
L 397.057423 -169.653812 
L 396.789179 -169.653812 
L 396.520935 -169.653812 
L 396.252691 -169.653812 
L 395.984448 -169.653812 
L 395.716204 -169.653812 
L 395.44796 -169.653812 
L 395.179716 -169.653812 
L 394.911473 -169.653812 
L 394.643229 -169.653812 
L 394.374985 -169.653812 
L 394.106741 -169.653812 
L 393.838497 -169.653812 
L 393.570254 -169.653812 
L 393.30201 -169.653812 
L 393.033766 -169.653812 
L 392.765522 -169.653812 
L 392.497279 -169.653812 
L 392.229035 -169.653812 
L 391.960791 -169.653812 
L 391.692547 -169.653812 
L 391.424303 -169.653812 
L 391.15606 -169.653812 
L 390.887816 -169.653812 
L 390.619572 -169.653812 
L 390.351328 -169.653812 
L 390.083085 -169.653812 
L 389.814841 -169.653812 
L 389.546597 -169.653812 
L 389.278353 -169.653812 
L 389.01011 -169.653812 
L 388.741866 -169.653812 
L 388.473622 -169.653812 
L 388.205378 -169.653812 
L 387.937134 -169.653812 
L 387.668891 -169.653812 
L 387.400647 -169.653812 
L 387.132403 -169.653812 
L 386.864159 -169.653812 
L 386.595916 -169.653812 
L 386.327672 -169.653812 
L 386.059428 -169.653812 
L 385.791184 -169.653812 
L 385.52294 -169.653812 
L 385.254697 -169.653812 
L 384.986453 -169.653812 
L 384.718209 -169.653812 
L 384.449965 -169.653812 
L 384.181722 -169.653812 
L 383.913478 -169.653812 
L 383.645234 -169.653812 
L 383.37699 -169.653812 
L 383.108747 -169.653812 
L 382.840503 -169.653812 
L 382.572259 -169.653812 
L 382.304015 -169.653812 
L 382.035771 -169.653812 
L 381.767528 -169.653812 
L 381.499284 -169.653812 
L 381.23104 -169.653812 
L 380.962796 -169.653812 
L 380.694553 -169.653812 
L 380.426309 -169.653812 
L 380.158065 -169.653812 
L 379.889821 -169.653812 
L 379.621577 -169.653812 
L 379.353334 -169.653812 
L 379.08509 -169.653812 
L 378.816846 -169.653812 
L 378.548602 -169.653812 
L 378.280359 -169.653812 
L 378.012115 -169.653812 
L 377.743871 -169.653812 
L 377.475627 -169.653812 
L 377.207383 -169.653812 
L 376.93914 -169.653812 
L 376.670896 -169.653812 
L 376.402652 -169.653812 
L 376.134408 -169.653812 
L 375.866165 -169.653812 
L 375.597921 -169.653812 
L 375.329677 -169.653812 
L 375.061433 -169.653812 
L 374.79319 -169.653812 
L 374.524946 -169.653812 
L 374.256702 -169.653812 
L 373.988458 -169.653812 
L 373.720214 -169.653812 
L 373.451971 -169.653812 
L 373.183727 -169.653812 
L 372.915483 -169.653812 
L 372.647239 -169.653812 
L 372.378996 -169.653812 
L 372.110752 -169.653812 
L 371.842508 -169.653812 
L 371.574264 -169.653812 
L 371.30602 -169.653812 
L 371.037777 -169.653812 
L 370.769533 -169.653812 
L 370.501289 -169.653812 
L 370.233045 -169.653812 
L 369.964802 -169.653812 
L 369.696558 -169.653812 
L 369.428314 -169.653812 
L 369.16007 -169.653812 
L 368.891827 -169.653812 
L 368.623583 -169.653812 
L 368.355339 -169.653812 
L 368.087095 -169.653812 
L 367.818851 -169.653812 
L 367.550608 -169.653812 
L 367.282364 -169.653812 
L 367.01412 -169.653812 
L 366.745876 -169.653812 
L 366.477633 -169.653812 
L 366.209389 -169.653812 
L 365.941145 -169.653812 
L 365.672901 -169.653812 
L 365.404657 -169.653812 
L 365.136414 -169.653812 
L 364.86817 -169.653812 
L 364.599926 -169.653812 
L 364.331682 -169.653812 
L 364.063439 -169.653812 
L 363.795195 -169.653812 
L 363.526951 -169.653812 
L 363.258707 -169.653812 
L 362.990463 -169.653812 
L 362.72222 -169.653812 
L 362.453976 -169.653812 
L 362.185732 -169.653812 
L 361.917488 -169.653812 
L 361.649245 -169.653812 
L 361.381001 -169.653812 
L 361.112757 -169.653812 
L 360.844513 -169.653812 
L 360.57627 -169.653812 
L 360.308026 -169.653812 
L 360.039782 -169.653812 
L 359.771538 -169.653812 
L 359.503294 -169.653812 
L 359.235051 -169.653812 
L 358.966807 -169.653812 
L 358.698563 -169.653812 
L 358.430319 -169.653812 
L 358.162076 -169.653812 
L 357.893832 -169.653812 
L 357.625588 -169.653812 
L 357.357344 -169.653812 
L 357.0891 -169.653812 
L 356.820857 -169.653812 
L 356.552613 -169.653812 
L 356.284369 -169.653812 
L 356.016125 -169.653812 
L 355.747882 -169.653812 
L 355.479638 -169.653812 
L 355.211394 -169.653812 
L 354.94315 -169.653812 
L 354.674907 -169.653812 
L 354.406663 -169.653812 
L 354.138419 -169.653812 
L 353.870175 -169.653812 
L 353.601931 -169.653812 
L 353.333688 -169.653812 
L 353.065444 -169.653812 
L 352.7972 -169.653812 
L 352.528956 -169.653812 
L 352.260713 -169.653812 
L 351.992469 -169.653812 
L 351.724225 -169.653812 
L 351.455981 -169.653812 
L 351.187737 -169.653812 
L 350.919494 -169.653812 
L 350.65125 -169.653812 
L 350.383006 -169.653812 
L 350.114762 -169.653812 
L 349.846519 -169.653812 
L 349.578275 -169.653812 
L 349.310031 -169.653812 
L 349.041787 -169.653812 
L 348.773543 -169.653812 
L 348.5053 -169.653812 
L 348.237056 -169.653812 
L 347.968812 -169.653812 
L 347.700568 -169.653812 
L 347.432325 -169.653812 
L 347.164081 -169.653812 
L 346.895837 -169.653812 
L 346.627593 -169.653812 
L 346.35935 -169.653812 
L 346.091106 -169.653812 
L 345.822862 -169.653812 
L 345.554618 -169.653812 
L 345.286374 -169.653812 
L 345.018131 -169.653812 
L 344.749887 -169.653812 
L 344.481643 -169.653812 
L 344.213399 -169.653812 
L 343.945156 -169.653812 
L 343.676912 -169.653812 
L 343.408668 -169.653812 
L 343.140424 -169.653812 
L 342.87218 -169.653812 
L 342.603937 -169.653812 
L 342.335693 -169.653812 
L 342.067449 -169.653812 
L 341.799205 -169.653812 
L 341.530962 -169.653812 
L 341.262718 -169.653812 
L 340.994474 -169.653812 
L 340.72623 -169.653812 
L 340.457987 -169.653812 
L 340.189743 -169.653812 
L 339.921499 -169.653812 
L 339.653255 -169.653812 
L 339.385011 -169.653812 
L 339.116768 -169.653812 
L 338.848524 -169.653812 
L 338.58028 -169.653812 
L 338.312036 -169.653812 
L 338.043793 -169.653812 
L 337.775549 -169.653812 
L 337.507305 -169.653812 
L 337.239061 -169.653812 
L 336.970817 -169.653812 
L 336.702574 -169.653812 
L 336.43433 -169.653812 
L 336.166086 -169.653812 
L 335.897842 -169.653812 
L 335.629599 -169.653812 
L 335.361355 -169.653812 
L 335.093111 -169.653812 
L 334.824867 -169.653812 
L 334.556623 -169.653812 
L 334.28838 -169.653812 
L 334.020136 -169.653812 
L 333.751892 -169.653812 
L 333.483648 -169.653812 
L 333.215405 -169.653812 
L 332.947161 -169.653812 
L 332.678917 -169.653812 
L 332.410673 -169.653812 
L 332.14243 -169.653812 
L 331.874186 -169.653812 
L 331.605942 -169.653812 
L 331.337698 -169.653812 
L 331.069454 -169.653812 
L 330.801211 -169.653812 
L 330.532967 -169.653812 
L 330.264723 -169.653812 
L 329.996479 -169.653812 
L 329.728236 -169.653812 
L 329.459992 -169.653812 
L 329.191748 -169.653812 
L 328.923504 -169.653812 
L 328.65526 -169.653812 
L 328.387017 -169.653812 
L 328.118773 -169.653812 
L 327.850529 -169.653812 
L 327.582285 -169.653812 
L 327.314042 -169.653812 
L 327.045798 -169.653812 
L 326.777554 -169.653812 
L 326.50931 -169.653812 
L 326.241066 -169.653812 
L 325.972823 -169.653812 
L 325.704579 -169.653812 
L 325.436335 -169.653812 
L 325.168091 -169.653812 
L 324.899848 -169.653812 
L 324.631604 -169.653812 
L 324.36336 -169.653812 
L 324.095116 -169.653812 
L 323.826873 -169.653812 
L 323.558629 -169.653812 
L 323.290385 -169.653812 
L 323.022141 -169.653812 
L 322.753897 -169.653812 
L 322.485654 -169.653812 
L 322.21741 -169.653812 
L 321.949166 -169.653812 
L 321.680922 -169.653812 
L 321.412679 -169.653812 
L 321.144435 -169.653812 
L 320.876191 -169.653812 
L 320.607947 -169.653812 
L 320.339703 -169.653812 
L 320.07146 -169.653812 
L 319.803216 -169.653812 
L 319.534972 -169.653812 
L 319.266728 -169.653812 
L 318.998485 -169.653812 
L 318.730241 -169.653812 
L 318.461997 -169.653812 
L 318.193753 -169.653812 
L 317.92551 -169.653812 
L 317.657266 -169.653812 
L 317.389022 -169.653812 
L 317.120778 -169.653812 
L 316.852534 -169.653812 
L 316.584291 -169.653812 
L 316.316047 -169.653812 
L 316.047803 -169.653812 
L 315.779559 -169.653812 
L 315.511316 -169.653812 
L 315.243072 -169.653812 
L 314.974828 -169.653812 
L 314.706584 -169.653812 
L 314.43834 -169.653812 
L 314.170097 -169.653812 
L 313.901853 -169.653812 
L 313.633609 -169.653812 
L 313.365365 -169.653812 
L 313.097122 -169.653812 
L 312.828878 -169.653812 
L 312.560634 -169.653812 
L 312.29239 -169.653812 
L 312.024146 -169.653812 
L 311.755903 -169.653812 
L 311.487659 -169.653812 
L 311.219415 -169.653812 
L 310.951171 -169.653812 
L 310.682928 -169.653812 
L 310.414684 -169.653812 
L 310.14644 -169.653812 
L 309.878196 -169.653812 
L 309.609953 -169.653812 
L 309.341709 -169.653812 
L 309.073465 -169.653812 
L 308.805221 -169.653812 
L 308.536977 -169.653812 
L 308.268734 -169.653812 
L 308.00049 -169.653812 
L 307.732246 -169.653812 
L 307.464002 -169.653812 
L 307.195759 -169.653812 
L 306.927515 -169.653812 
L 306.659271 -169.653812 
L 306.391027 -169.653812 
L 306.122783 -169.653812 
L 305.85454 -169.653812 
L 305.586296 -169.653812 
L 305.318052 -169.653812 
L 305.049808 -169.653812 
L 304.781565 -169.653812 
L 304.513321 -169.653812 
L 304.245077 -169.653812 
L 303.976833 -169.653812 
L 303.70859 -169.653812 
L 303.440346 -169.653812 
L 303.172102 -169.653812 
L 302.903858 -169.653812 
L 302.635614 -169.653812 
L 302.367371 -169.653812 
L 302.099127 -169.653812 
L 301.830883 -169.653812 
L 301.562639 -169.653812 
L 301.294396 -169.653812 
L 301.026152 -169.653812 
L 300.757908 -169.653812 
L 300.489664 -169.653812 
L 300.22142 -169.653812 
L 299.953177 -169.653812 
L 299.684933 -169.653812 
L 299.416689 -169.653812 
L 299.148445 -169.653812 
L 298.880202 -169.653812 
L 298.611958 -169.653812 
L 298.343714 -169.653812 
L 298.07547 -169.653812 
L 297.807226 -169.653812 
L 297.538983 -169.653812 
L 297.270739 -169.653812 
L 297.002495 -169.653812 
L 296.734251 -169.653812 
L 296.466008 -169.653812 
L 296.197764 -169.653812 
L 295.92952 -169.653812 
L 295.661276 -169.653812 
L 295.393033 -169.653812 
L 295.124789 -169.653812 
L 294.856545 -169.653812 
L 294.588301 -169.653812 
L 294.320057 -169.653812 
L 294.051814 -169.653812 
L 293.78357 -169.653812 
L 293.515326 -169.653812 
L 293.247082 -169.653812 
L 292.978839 -169.653812 
L 292.710595 -169.653812 
L 292.442351 -169.653812 
L 292.174107 -169.653812 
L 291.905863 -169.653812 
L 291.63762 -169.653812 
L 291.369376 -169.653812 
L 291.101132 -169.653812 
L 290.832888 -169.653812 
L 290.564645 -169.653812 
L 290.296401 -169.653812 
L 290.028157 -169.653812 
L 289.759913 -169.653812 
L 289.49167 -169.653812 
L 289.223426 -169.653812 
L 288.955182 -169.653812 
L 288.686938 -169.653812 
L 288.418694 -169.653812 
L 288.150451 -169.653812 
L 287.882207 -169.653812 
L 287.613963 -169.653812 
L 287.345719 -169.653812 
L 287.077476 -169.653812 
L 286.809232 -169.653812 
L 286.540988 -169.653812 
L 286.272744 -169.653812 
L 286.0045 -169.653812 
L 285.736257 -169.653812 
L 285.468013 -169.653812 
L 285.199769 -169.653812 
L 284.931525 -169.653812 
L 284.663282 -169.653812 
L 284.395038 -169.653812 
L 284.126794 -169.653812 
L 283.85855 -169.653812 
L 283.590306 -169.653812 
L 283.322063 -169.653812 
L 283.053819 -169.653812 
L 282.785575 -169.653812 
L 282.517331 -169.653812 
L 282.249088 -169.653812 
L 281.980844 -169.653812 
L 281.7126 -169.653812 
L 281.444356 -169.653812 
L 281.176113 -169.653812 
L 280.907869 -169.653812 
L 280.639625 -169.653812 
L 280.371381 -169.653812 
L 280.103137 -169.653812 
L 279.834894 -169.653812 
L 279.56665 -169.653812 
L 279.298406 -169.653812 
L 279.030162 -169.653812 
L 278.761919 -169.653812 
L 278.493675 -169.653812 
z
" style="stroke: #000000; stroke-opacity: 0.1; stroke-width: 0.5"/>
    </defs>
    <g clip-path="url(#p6136e891e0)">
     <use xlink:href="#m6d971b4042" x="0" y="288" style="fill-opacity: 0.1; stroke: #000000; stroke-opacity: 0.1; stroke-width: 0.5"/>
    </g>
   </g>
   <g id="line2d_31">
    <path d="M 278.493675 17.97839 
L 412.347318 118.346188 
L 412.347318 118.346188 
" clip-path="url(#p6136e891e0)" style="fill: none; stroke: #000000; stroke-opacity: 0.5; stroke-width: 0.7; stroke-linecap: square"/>
   </g>
   <g id="line2d_32">
    <path d="M 278.493675 118.346188 
L 412.347318 118.346188 
L 412.347318 118.346188 
" clip-path="url(#p6136e891e0)" style="fill: none; stroke: #000000; stroke-width: 0.7; stroke-linecap: square"/>
   </g>
   <g id="patch_6">
    <path d="M 271.800993 123.364578 
L 271.800993 12.96 
" style="fill: none; stroke: #000000; stroke-width: 0.5; stroke-linejoin: miter; stroke-linecap: square"/>
   </g>
   <g id="patch_7">
    <path d="M 271.800993 123.364578 
L 419.04 123.364578 
" style="fill: none; stroke: #000000; stroke-width: 0.5; stroke-linejoin: miter; stroke-linecap: square"/>
   </g>
  </g>
 </g>
 <defs>
  <clipPath id="pccd5a0b5a5">
   <rect x="60.897288" y="12.96" width="147.239007" height="110.404578"/>
  </clipPath>
  <clipPath id="p6136e891e0">
   <rect x="271.800993" y="12.96" width="147.239007" height="110.404578"/>
  </clipPath>
 </defs>
</svg>
