<?xml version="1.0" encoding="utf-8" standalone="no"?>
<!DOCTYPE svg PUBLIC "-//W3C//DTD SVG 1.1//EN"
  "http://www.w3.org/Graphics/SVG/1.1/DTD/svg11.dtd">
<svg xmlns:xlink="http://www.w3.org/1999/xlink" width="468pt" height="180pt" viewBox="0 0 468 180" xmlns="http://www.w3.org/2000/svg" version="1.1">
 <metadata>
  <rdf:RDF xmlns:dc="http://purl.org/dc/elements/1.1/" xmlns:cc="http://creativecommons.org/ns#" xmlns:rdf="http://www.w3.org/1999/02/22-rdf-syntax-ns#">
   <cc:Work>
    <dc:type rdf:resource="http://purl.org/dc/dcmitype/StillImage"/>
    <dc:date>2024-04-11T13:35:23.703716</dc:date>
    <dc:format>image/svg+xml</dc:format>
    <dc:creator>
     <cc:Agent>
      <dc:title>Matplotlib v3.8.3, https://matplotlib.org/</dc:title>
     </cc:Agent>
    </dc:creator>
   </cc:Work>
  </rdf:RDF>
 </metadata>
 <defs>
  <style type="text/css">*{stroke-linejoin: round; stroke-linecap: butt}</style>
 </defs>
 <g id="figure_1">
  <g id="patch_1">
   <path d="M 0 180 
L 468 180 
L 468 0 
L 0 0 
z
" style="fill: #ffffff"/>
  </g>
  <g id="axes_1">
   <g id="patch_2">
    <path d="M 58.5 144 
L 421.2 144 
L 421.2 21.6 
L 58.5 21.6 
z
" style="fill: #ffffff"/>
   </g>
   <g id="matplotlib.axis_1">
    <g id="xtick_1">
     <g id="line2d_1">
      <path d="M 74.986364 144 
L 74.986364 21.6 
" clip-path="url(#p61db6e9051)" style="fill: none; stroke: #d3d3d3; stroke-width: 0.2; stroke-linecap: square"/>
     </g>
     <g id="line2d_2">
      <defs>
       <path id="m7bb5ae7aec" d="M 0 0 
L 0 -3.5 
" style="stroke: #000000; stroke-width: 0.8"/>
      </defs>
      <g>
       <use xlink:href="#m7bb5ae7aec" x="74.986364" y="144" style="stroke: #000000; stroke-width: 0.8"/>
      </g>
     </g>
     <g id="text_1">
      <!-- $\mathdefault{0.000}$ -->
      <g transform="translate(63.639989 154.418498) scale(0.1 -0.1)">
       <defs>
        <path id="CMR17-30" d="M 2688 2025 
C 2688 2416 2682 3080 2413 3591 
C 2176 4039 1798 4198 1466 4198 
C 1158 4198 768 4058 525 3597 
C 269 3118 243 2524 243 2025 
C 243 1661 250 1106 448 619 
C 723 -39 1216 -128 1466 -128 
C 1760 -128 2208 -7 2470 600 
C 2662 1042 2688 1559 2688 2025 
z
M 1466 -26 
C 1056 -26 813 325 723 812 
C 653 1188 653 1738 653 2096 
C 653 2588 653 2997 736 3387 
C 858 3929 1216 4096 1466 4096 
C 1728 4096 2067 3923 2189 3400 
C 2272 3036 2278 2607 2278 2096 
C 2278 1680 2278 1169 2202 792 
C 2067 95 1690 -26 1466 -26 
z
" transform="scale(0.015625)"/>
        <path id="CMMI12-3a" d="M 1178 307 
C 1178 492 1024 619 870 619 
C 685 619 557 466 557 313 
C 557 128 710 0 864 0 
C 1050 0 1178 153 1178 307 
z
" transform="scale(0.015625)"/>
       </defs>
       <use xlink:href="#CMR17-30" transform="scale(0.996264)"/>
       <use xlink:href="#CMMI12-3a" transform="translate(45.690477 0) scale(0.996264)"/>
       <use xlink:href="#CMR17-30" transform="translate(72.787654 0) scale(0.996264)"/>
       <use xlink:href="#CMR17-30" transform="translate(118.478131 0) scale(0.996264)"/>
       <use xlink:href="#CMR17-30" transform="translate(164.168608 0) scale(0.996264)"/>
      </g>
     </g>
    </g>
    <g id="xtick_2">
     <g id="line2d_3">
      <path d="M 127.280153 144 
L 127.280153 21.6 
" clip-path="url(#p61db6e9051)" style="fill: none; stroke: #d3d3d3; stroke-width: 0.2; stroke-linecap: square"/>
     </g>
     <g id="line2d_4">
      <g>
       <use xlink:href="#m7bb5ae7aec" x="127.280153" y="144" style="stroke: #000000; stroke-width: 0.8"/>
      </g>
     </g>
     <g id="text_2">
      <!-- $\mathdefault{0.005}$ -->
      <g transform="translate(115.933778 154.418498) scale(0.1 -0.1)">
       <defs>
        <path id="CMR17-35" d="M 730 3692 
C 794 3666 1056 3584 1325 3584 
C 1920 3584 2246 3911 2432 4100 
C 2432 4157 2432 4192 2394 4192 
C 2387 4192 2374 4192 2323 4163 
C 2099 4058 1837 3973 1517 3973 
C 1325 3973 1037 3999 723 4139 
C 653 4171 640 4171 634 4171 
C 602 4171 595 4164 595 4037 
L 595 2203 
C 595 2089 595 2057 659 2057 
C 691 2057 704 2070 736 2114 
C 941 2401 1222 2522 1542 2522 
C 1766 2522 2246 2382 2246 1289 
C 2246 1085 2246 715 2054 421 
C 1894 159 1645 25 1370 25 
C 947 25 518 320 403 814 
C 429 807 480 795 506 795 
C 589 795 749 840 749 1038 
C 749 1210 627 1280 506 1280 
C 358 1280 262 1190 262 1011 
C 262 454 704 -128 1382 -128 
C 2042 -128 2669 440 2669 1264 
C 2669 2030 2170 2624 1549 2624 
C 1222 2624 947 2503 730 2274 
L 730 3692 
z
" transform="scale(0.015625)"/>
       </defs>
       <use xlink:href="#CMR17-30" transform="scale(0.996264)"/>
       <use xlink:href="#CMMI12-3a" transform="translate(45.690477 0) scale(0.996264)"/>
       <use xlink:href="#CMR17-30" transform="translate(72.787654 0) scale(0.996264)"/>
       <use xlink:href="#CMR17-30" transform="translate(118.478131 0) scale(0.996264)"/>
       <use xlink:href="#CMR17-35" transform="translate(164.168608 0) scale(0.996264)"/>
      </g>
     </g>
    </g>
    <g id="xtick_3">
     <g id="line2d_5">
      <path d="M 179.573942 144 
L 179.573942 21.6 
" clip-path="url(#p61db6e9051)" style="fill: none; stroke: #d3d3d3; stroke-width: 0.2; stroke-linecap: square"/>
     </g>
     <g id="line2d_6">
      <g>
       <use xlink:href="#m7bb5ae7aec" x="179.573942" y="144" style="stroke: #000000; stroke-width: 0.8"/>
      </g>
     </g>
     <g id="text_3">
      <!-- $\mathdefault{0.010}$ -->
      <g transform="translate(168.227567 154.418498) scale(0.1 -0.1)">
       <defs>
        <path id="CMR17-31" d="M 1702 4058 
C 1702 4192 1696 4192 1606 4192 
C 1357 3916 979 3827 621 3827 
C 602 3827 570 3827 563 3808 
C 557 3795 557 3782 557 3648 
C 755 3648 1088 3686 1344 3839 
L 1344 461 
C 1344 236 1331 160 781 160 
L 589 160 
L 589 0 
C 896 0 1216 0 1523 0 
C 1830 0 2150 0 2458 0 
L 2458 160 
L 2266 160 
C 1715 160 1702 230 1702 458 
L 1702 4058 
z
" transform="scale(0.015625)"/>
       </defs>
       <use xlink:href="#CMR17-30" transform="scale(0.996264)"/>
       <use xlink:href="#CMMI12-3a" transform="translate(45.690477 0) scale(0.996264)"/>
       <use xlink:href="#CMR17-30" transform="translate(72.787654 0) scale(0.996264)"/>
       <use xlink:href="#CMR17-31" transform="translate(118.478131 0) scale(0.996264)"/>
       <use xlink:href="#CMR17-30" transform="translate(164.168608 0) scale(0.996264)"/>
      </g>
     </g>
    </g>
    <g id="xtick_4">
     <g id="line2d_7">
      <path d="M 231.867731 144 
L 231.867731 21.6 
" clip-path="url(#p61db6e9051)" style="fill: none; stroke: #d3d3d3; stroke-width: 0.2; stroke-linecap: square"/>
     </g>
     <g id="line2d_8">
      <g>
       <use xlink:href="#m7bb5ae7aec" x="231.867731" y="144" style="stroke: #000000; stroke-width: 0.8"/>
      </g>
     </g>
     <g id="text_4">
      <!-- $\mathdefault{0.015}$ -->
      <g transform="translate(220.521357 154.418498) scale(0.1 -0.1)">
       <use xlink:href="#CMR17-30" transform="scale(0.996264)"/>
       <use xlink:href="#CMMI12-3a" transform="translate(45.690477 0) scale(0.996264)"/>
       <use xlink:href="#CMR17-30" transform="translate(72.787654 0) scale(0.996264)"/>
       <use xlink:href="#CMR17-31" transform="translate(118.478131 0) scale(0.996264)"/>
       <use xlink:href="#CMR17-35" transform="translate(164.168608 0) scale(0.996264)"/>
      </g>
     </g>
    </g>
    <g id="xtick_5">
     <g id="line2d_9">
      <path d="M 284.161521 144 
L 284.161521 21.6 
" clip-path="url(#p61db6e9051)" style="fill: none; stroke: #d3d3d3; stroke-width: 0.2; stroke-linecap: square"/>
     </g>
     <g id="line2d_10">
      <g>
       <use xlink:href="#m7bb5ae7aec" x="284.161521" y="144" style="stroke: #000000; stroke-width: 0.8"/>
      </g>
     </g>
     <g id="text_5">
      <!-- $\mathdefault{0.020}$ -->
      <g transform="translate(272.815146 154.418498) scale(0.1 -0.1)">
       <defs>
        <path id="CMR17-32" d="M 2669 989 
L 2554 989 
C 2490 536 2438 459 2413 420 
C 2381 369 1920 369 1830 369 
L 602 369 
C 832 619 1280 1072 1824 1597 
C 2214 1967 2669 2402 2669 3035 
C 2669 3790 2067 4224 1395 4224 
C 691 4224 262 3604 262 3030 
C 262 2780 448 2748 525 2748 
C 589 2748 781 2787 781 3010 
C 781 3207 614 3264 525 3264 
C 486 3264 448 3258 422 3245 
C 544 3790 915 4058 1306 4058 
C 1862 4058 2227 3617 2227 3035 
C 2227 2479 1901 2000 1536 1584 
L 262 146 
L 262 0 
L 2515 0 
L 2669 989 
z
" transform="scale(0.015625)"/>
       </defs>
       <use xlink:href="#CMR17-30" transform="scale(0.996264)"/>
       <use xlink:href="#CMMI12-3a" transform="translate(45.690477 0) scale(0.996264)"/>
       <use xlink:href="#CMR17-30" transform="translate(72.787654 0) scale(0.996264)"/>
       <use xlink:href="#CMR17-32" transform="translate(118.478131 0) scale(0.996264)"/>
       <use xlink:href="#CMR17-30" transform="translate(164.168608 0) scale(0.996264)"/>
      </g>
     </g>
    </g>
    <g id="xtick_6">
     <g id="line2d_11">
      <path d="M 336.45531 144 
L 336.45531 21.6 
" clip-path="url(#p61db6e9051)" style="fill: none; stroke: #d3d3d3; stroke-width: 0.2; stroke-linecap: square"/>
     </g>
     <g id="line2d_12">
      <g>
       <use xlink:href="#m7bb5ae7aec" x="336.45531" y="144" style="stroke: #000000; stroke-width: 0.8"/>
      </g>
     </g>
     <g id="text_6">
      <!-- $\mathdefault{0.025}$ -->
      <g transform="translate(325.108935 154.418498) scale(0.1 -0.1)">
       <use xlink:href="#CMR17-30" transform="scale(0.996264)"/>
       <use xlink:href="#CMMI12-3a" transform="translate(45.690477 0) scale(0.996264)"/>
       <use xlink:href="#CMR17-30" transform="translate(72.787654 0) scale(0.996264)"/>
       <use xlink:href="#CMR17-32" transform="translate(118.478131 0) scale(0.996264)"/>
       <use xlink:href="#CMR17-35" transform="translate(164.168608 0) scale(0.996264)"/>
      </g>
     </g>
    </g>
    <g id="xtick_7">
     <g id="line2d_13">
      <path d="M 388.749099 144 
L 388.749099 21.6 
" clip-path="url(#p61db6e9051)" style="fill: none; stroke: #d3d3d3; stroke-width: 0.2; stroke-linecap: square"/>
     </g>
     <g id="line2d_14">
      <g>
       <use xlink:href="#m7bb5ae7aec" x="388.749099" y="144" style="stroke: #000000; stroke-width: 0.8"/>
      </g>
     </g>
     <g id="text_7">
      <!-- $\mathdefault{0.030}$ -->
      <g transform="translate(377.402724 154.418498) scale(0.1 -0.1)">
       <defs>
        <path id="CMR17-33" d="M 1414 2157 
C 1984 2157 2234 1662 2234 1090 
C 2234 320 1824 25 1453 25 
C 1114 25 563 194 390 693 
C 422 680 454 680 486 680 
C 640 680 755 782 755 948 
C 755 1133 614 1216 486 1216 
C 378 1216 211 1165 211 926 
C 211 335 787 -128 1466 -128 
C 2176 -128 2720 430 2720 1085 
C 2720 1707 2208 2157 1600 2227 
C 2086 2328 2554 2756 2554 3329 
C 2554 3820 2048 4179 1472 4179 
C 890 4179 378 3829 378 3329 
C 378 3110 544 3072 627 3072 
C 762 3072 877 3155 877 3321 
C 877 3486 762 3569 627 3569 
C 602 3569 570 3569 544 3557 
C 730 3959 1235 4032 1459 4032 
C 1683 4032 2106 3925 2106 3320 
C 2106 3143 2080 2828 1862 2550 
C 1670 2304 1453 2304 1242 2284 
C 1210 2284 1062 2269 1037 2269 
C 992 2263 966 2257 966 2208 
C 966 2163 973 2157 1101 2157 
L 1414 2157 
z
" transform="scale(0.015625)"/>
       </defs>
       <use xlink:href="#CMR17-30" transform="scale(0.996264)"/>
       <use xlink:href="#CMMI12-3a" transform="translate(45.690477 0) scale(0.996264)"/>
       <use xlink:href="#CMR17-30" transform="translate(72.787654 0) scale(0.996264)"/>
       <use xlink:href="#CMR17-33" transform="translate(118.478131 0) scale(0.996264)"/>
       <use xlink:href="#CMR17-30" transform="translate(164.168608 0) scale(0.996264)"/>
      </g>
     </g>
    </g>
    <g id="text_8">
     <!-- $\chi$ [1/m] -->
     <g transform="translate(220.250084 169.322053) scale(0.12 -0.12)">
      <defs>
       <path id="CMMI12-1f" d="M 2112 1039 
C 1939 1566 1978 1515 1818 1959 
C 1619 2505 1568 2550 1478 2639 
C 1363 2740 1146 2816 922 2816 
C 563 2816 390 2486 390 2403 
C 390 2365 422 2346 461 2346 
C 512 2346 525 2378 531 2403 
C 627 2651 826 2689 883 2689 
C 1069 2689 1248 2232 1363 1928 
C 1517 1540 1594 1273 1766 657 
L 256 -1049 
C 198 -1119 198 -1144 198 -1151 
C 198 -1202 230 -1215 256 -1215 
C 282 -1215 301 -1202 320 -1183 
C 499 -1004 896 -533 1062 -342 
L 1805 499 
C 2118 -479 2118 -492 2214 -727 
C 2317 -968 2451 -1280 2995 -1280 
C 3360 -1280 3526 -955 3526 -866 
C 3526 -822 3488 -809 3456 -809 
C 3405 -809 3398 -835 3379 -886 
C 3309 -1063 3142 -1152 3040 -1152 
C 2957 -1152 2854 -1152 2573 -447 
C 2406 -21 2259 486 2150 880 
L 3667 2594 
C 3718 2652 3725 2658 3725 2683 
C 3725 2727 3693 2746 3661 2746 
C 3642 2746 3622 2746 3558 2677 
L 2112 1039 
z
" transform="scale(0.015625)"/>
       <path id="CMR17-5b" d="M 1504 -1600 
L 1504 -1377 
L 902 -1377 
L 902 4544 
L 1504 4544 
L 1504 4767 
L 678 4767 
L 678 -1600 
L 1504 -1600 
z
" transform="scale(0.015625)"/>
       <path id="CMR17-2f" d="M 2605 4545 
C 2637 4627 2637 4640 2637 4653 
C 2637 4729 2579 4768 2528 4768 
C 2451 4768 2426 4717 2400 4640 
L 326 -1377 
C 294 -1460 294 -1473 294 -1486 
C 294 -1562 352 -1600 403 -1600 
C 480 -1600 506 -1549 531 -1473 
L 2605 4545 
z
" transform="scale(0.015625)"/>
       <path id="CMR17-6d" d="M 4326 1933 
C 4326 2252 4269 2790 3507 2790 
C 3072 2790 2771 2496 2656 2151 
L 2650 2151 
C 2573 2676 2195 2790 1837 2790 
C 1331 2790 1069 2400 973 2144 
L 966 2144 
L 966 2790 
L 211 2720 
L 211 2554 
C 589 2554 646 2515 646 2208 
L 646 428 
C 646 184 621 153 211 153 
L 211 -13 
C 365 0 646 0 813 0 
C 979 0 1267 0 1421 -13 
L 1421 153 
C 1011 153 986 178 986 428 
L 986 1658 
C 986 2247 1344 2688 1792 2688 
C 2266 2688 2317 2266 2317 1958 
L 2317 428 
C 2317 184 2291 153 1882 153 
L 1882 -13 
C 2035 0 2317 0 2483 0 
C 2650 0 2938 0 3091 -13 
L 3091 153 
C 2682 153 2656 178 2656 428 
L 2656 1658 
C 2656 2247 3014 2688 3462 2688 
C 3936 2688 3987 2266 3987 1958 
L 3987 428 
C 3987 184 3962 153 3552 153 
L 3552 -13 
C 3706 0 3987 0 4154 0 
C 4320 0 4608 0 4762 -13 
L 4762 153 
C 4352 153 4326 178 4326 428 
L 4326 1933 
z
" transform="scale(0.015625)"/>
       <path id="CMR17-5d" d="M 915 4767 
L 90 4767 
L 90 4544 
L 691 4544 
L 691 -1377 
L 90 -1377 
L 90 -1600 
L 915 -1600 
L 915 4767 
z
" transform="scale(0.015625)"/>
      </defs>
      <use xlink:href="#CMMI12-1f" transform="scale(0.996264)"/>
      <use xlink:href="#CMR17-5b" transform="translate(91.188925 0) scale(0.996264)"/>
      <use xlink:href="#CMR17-31" transform="translate(116.059984 0) scale(0.996264)"/>
      <use xlink:href="#CMR17-2f" transform="translate(161.750461 0) scale(0.996264)"/>
      <use xlink:href="#CMR17-6d" transform="translate(207.440938 0) scale(0.996264)"/>
      <use xlink:href="#CMR17-5d" transform="translate(284.360528 0) scale(0.996264)"/>
     </g>
    </g>
   </g>
   <g id="matplotlib.axis_2">
    <g id="ytick_1">
     <g id="line2d_15">
      <path d="M 58.5 138.436364 
L 421.2 138.436364 
" clip-path="url(#p61db6e9051)" style="fill: none; stroke: #d3d3d3; stroke-width: 0.2; stroke-linecap: square"/>
     </g>
     <g id="line2d_16">
      <defs>
       <path id="m7f028db7dc" d="M 0 0 
L 3.5 0 
" style="stroke: #000000; stroke-width: 0.8"/>
      </defs>
      <g>
       <use xlink:href="#m7f028db7dc" x="58.5" y="138.436364" style="stroke: #000000; stroke-width: 0.8"/>
      </g>
     </g>
     <g id="text_9">
      <!-- $\mathdefault{0}$ -->
      <g transform="translate(50.018665 141.895613) scale(0.1 -0.1)">
       <use xlink:href="#CMR17-30" transform="scale(0.996264)"/>
      </g>
     </g>
    </g>
    <g id="ytick_2">
     <g id="line2d_17">
      <path d="M 58.5 106.864733 
L 421.2 106.864733 
" clip-path="url(#p61db6e9051)" style="fill: none; stroke: #d3d3d3; stroke-width: 0.2; stroke-linecap: square"/>
     </g>
     <g id="line2d_18">
      <g>
       <use xlink:href="#m7f028db7dc" x="58.5" y="106.864733" style="stroke: #000000; stroke-width: 0.8"/>
      </g>
     </g>
     <g id="text_10">
      <!-- $\mathdefault{50}$ -->
      <g transform="translate(45.037329 110.323982) scale(0.1 -0.1)">
       <use xlink:href="#CMR17-35" transform="scale(0.996264)"/>
       <use xlink:href="#CMR17-30" transform="translate(45.690477 0) scale(0.996264)"/>
      </g>
     </g>
    </g>
    <g id="ytick_3">
     <g id="line2d_19">
      <path d="M 58.5 75.293102 
L 421.2 75.293102 
" clip-path="url(#p61db6e9051)" style="fill: none; stroke: #d3d3d3; stroke-width: 0.2; stroke-linecap: square"/>
     </g>
     <g id="line2d_20">
      <g>
       <use xlink:href="#m7f028db7dc" x="58.5" y="75.293102" style="stroke: #000000; stroke-width: 0.8"/>
      </g>
     </g>
     <g id="text_11">
      <!-- $\mathdefault{100}$ -->
      <g transform="translate(40.055994 78.752351) scale(0.1 -0.1)">
       <use xlink:href="#CMR17-31" transform="scale(0.996264)"/>
       <use xlink:href="#CMR17-30" transform="translate(45.690477 0) scale(0.996264)"/>
       <use xlink:href="#CMR17-30" transform="translate(91.380954 0) scale(0.996264)"/>
      </g>
     </g>
    </g>
    <g id="ytick_4">
     <g id="line2d_21">
      <path d="M 58.5 43.721471 
L 421.2 43.721471 
" clip-path="url(#p61db6e9051)" style="fill: none; stroke: #d3d3d3; stroke-width: 0.2; stroke-linecap: square"/>
     </g>
     <g id="line2d_22">
      <g>
       <use xlink:href="#m7f028db7dc" x="58.5" y="43.721471" style="stroke: #000000; stroke-width: 0.8"/>
      </g>
     </g>
     <g id="text_12">
      <!-- $\mathdefault{150}$ -->
      <g transform="translate(40.055994 47.18072) scale(0.1 -0.1)">
       <use xlink:href="#CMR17-31" transform="scale(0.996264)"/>
       <use xlink:href="#CMR17-35" transform="translate(45.690477 0) scale(0.996264)"/>
       <use xlink:href="#CMR17-30" transform="translate(91.380954 0) scale(0.996264)"/>
      </g>
     </g>
    </g>
    <g id="text_13">
     <!-- $M$ [kNm] -->
     <g transform="translate(33.067202 106.643699) rotate(-90) scale(0.12 -0.12)">
      <defs>
       <path id="CMMI12-4d" d="M 5811 3886 
C 5869 4103 5882 4167 6336 4167 
C 6458 4167 6515 4167 6515 4288 
C 6515 4352 6470 4352 6349 4352 
L 5581 4352 
C 5421 4352 5414 4346 5344 4243 
L 3008 562 
L 2528 4211 
C 2509 4352 2502 4352 2336 4352 
L 1542 4352 
C 1421 4352 1363 4352 1363 4231 
C 1363 4167 1421 4167 1517 4167 
C 1907 4167 1907 4116 1907 4046 
C 1907 4034 1907 3995 1882 3899 
L 1062 634 
C 986 327 838 186 410 186 
C 390 186 314 186 314 73 
C 314 0 371 0 397 0 
C 525 0 851 0 979 0 
L 1286 0 
C 1376 0 1485 0 1574 0 
C 1619 0 1690 0 1690 122 
C 1690 180 1626 186 1600 186 
C 1389 186 1184 224 1184 454 
C 1184 518 1184 524 1210 613 
L 2093 4129 
L 2099 4129 
L 2630 172 
C 2650 19 2656 0 2714 0 
C 2784 0 2816 51 2848 109 
L 5421 4161 
L 5427 4161 
L 4499 473 
C 4442 250 4429 186 3981 186 
C 3859 186 3795 186 3795 70 
C 3795 0 3853 0 3891 0 
C 4000 0 4128 0 4237 0 
L 4992 0 
C 5101 0 5235 0 5344 0 
C 5395 0 5466 0 5466 122 
C 5466 186 5408 186 5312 186 
C 4922 186 4922 234 4922 294 
C 4922 301 4922 345 4934 396 
L 5811 3886 
z
" transform="scale(0.015625)"/>
       <path id="CMR17-6b" d="M 1670 1673 
C 1664 1686 1632 1724 1632 1743 
C 1632 1756 2086 2171 2144 2222 
C 2509 2528 2739 2560 2906 2560 
L 2906 2733 
C 2867 2733 2854 2733 2848 2720 
L 2534 2720 
C 2355 2720 2080 2720 1907 2733 
L 1907 2566 
C 1997 2559 2061 2508 2061 2419 
C 2061 2291 1933 2170 1926 2170 
L 960 1289 
L 960 4396 
L 198 4326 
L 198 4160 
C 576 4160 634 4122 634 3817 
L 634 426 
C 634 184 608 153 198 153 
L 198 -13 
C 352 0 634 0 794 0 
C 954 0 1235 0 1389 -13 
L 1389 153 
C 979 153 954 178 954 428 
L 954 1130 
L 1395 1532 
L 2042 574 
C 2118 459 2182 369 2182 286 
C 2182 172 2067 153 1990 153 
L 1990 -13 
C 2144 0 2419 0 2579 0 
C 2694 0 2931 0 3040 0 
L 3040 153 
C 2739 153 2669 210 2477 491 
L 1670 1673 
z
" transform="scale(0.015625)"/>
       <path id="CMR17-4e" d="M 1312 4250 
C 1267 4320 1261 4320 1139 4320 
L 326 4320 
L 326 4160 
L 448 4160 
C 704 4160 819 4129 838 4122 
L 838 610 
C 838 451 838 153 326 153 
L 326 -13 
C 474 0 742 0 902 0 
C 1062 0 1331 0 1478 -13 
L 1478 153 
C 966 153 966 451 966 610 
L 966 4033 
C 1011 3995 1011 3982 1056 3919 
L 3430 76 
C 3475 0 3494 0 3526 0 
C 3590 0 3590 19 3590 139 
L 3590 3705 
C 3590 3863 3590 4160 4102 4160 
L 4102 4326 
C 3955 4320 3686 4320 3526 4320 
C 3366 4320 3098 4320 2950 4326 
L 2950 4160 
C 3462 4160 3462 3862 3462 3703 
L 3462 763 
L 1312 4250 
z
" transform="scale(0.015625)"/>
      </defs>
      <use xlink:href="#CMMI12-4d" transform="scale(0.996264)"/>
      <use xlink:href="#CMR17-5b" transform="translate(134.856045 0) scale(0.996264)"/>
      <use xlink:href="#CMR17-6b" transform="translate(159.727104 0) scale(0.996264)"/>
      <use xlink:href="#CMR17-4e" transform="translate(208.02002 0) scale(0.996264)"/>
      <use xlink:href="#CMR17-6d" transform="translate(277.092449 0) scale(0.996264)"/>
      <use xlink:href="#CMR17-5d" transform="translate(354.012039 0) scale(0.996264)"/>
     </g>
    </g>
   </g>
   <g id="PolyCollection_1">
    <defs>
     <path id="m3be9bff0dc" d="M 74.986364 -41.563636 
L 74.986364 -41.563636 
L 75.316421 -42.5565 
L 75.646478 -43.549364 
L 75.976536 -44.542228 
L 76.306593 -45.535092 
L 76.63665 -46.527955 
L 76.966708 -47.520819 
L 77.296765 -48.513683 
L 77.626822 -49.506547 
L 77.95688 -50.499411 
L 78.286937 -51.492274 
L 78.616994 -52.485138 
L 78.947052 -53.478002 
L 79.277109 -54.470866 
L 79.607166 -55.46373 
L 79.937224 -56.456594 
L 80.267281 -57.449457 
L 80.597338 -58.442321 
L 80.927396 -59.435185 
L 81.257453 -60.428049 
L 81.58751 -60.699765 
L 81.917568 -60.699765 
L 82.247625 -60.699765 
L 82.577682 -60.699765 
L 82.90774 -60.699765 
L 83.237797 -60.699765 
L 83.567854 -60.699765 
L 83.897912 -60.699765 
L 84.227969 -60.699765 
L 84.558026 -60.699765 
L 84.888084 -60.699765 
L 85.218141 -60.699765 
L 85.548198 -60.699765 
L 85.878256 -60.699765 
L 86.208313 -60.699765 
L 86.53837 -60.699765 
L 86.868428 -60.699765 
L 87.198485 -60.699765 
L 87.528542 -60.699765 
L 87.8586 -60.699765 
L 88.188657 -60.699765 
L 88.518714 -60.699765 
L 88.848771 -60.699765 
L 89.178829 -60.699765 
L 89.508886 -60.699765 
L 89.838943 -60.699765 
L 90.169001 -60.699765 
L 90.499058 -60.699765 
L 90.829115 -60.699765 
L 91.159173 -60.699765 
L 91.48923 -60.699765 
L 91.819287 -60.699765 
L 92.149345 -60.699765 
L 92.479402 -60.699765 
L 92.809459 -60.699765 
L 93.139517 -60.699765 
L 93.469574 -60.699765 
L 93.799631 -60.699765 
L 94.129689 -60.699765 
L 94.459746 -60.699765 
L 94.789803 -60.699765 
L 95.119861 -60.699765 
L 95.449918 -60.699765 
L 95.779975 -60.699765 
L 96.110033 -60.699765 
L 96.44009 -60.699765 
L 96.770147 -60.699765 
L 97.100205 -60.699765 
L 97.430262 -60.699765 
L 97.760319 -60.715631 
L 98.090377 -60.993196 
L 98.420434 -61.270761 
L 98.750491 -61.548326 
L 99.080549 -61.825892 
L 99.410606 -62.103457 
L 99.740663 -62.381022 
L 100.070721 -62.658587 
L 100.400778 -62.936152 
L 100.730835 -63.213717 
L 101.060893 -63.491282 
L 101.39095 -63.768847 
L 101.721007 -64.046413 
L 102.051065 -64.323978 
L 102.381122 -64.601543 
L 102.711179 -64.879108 
L 103.041237 -65.156673 
L 103.371294 -65.434238 
L 103.701351 -65.711803 
L 104.031409 -65.989368 
L 104.361466 -66.266934 
L 104.691523 -66.544499 
L 105.021581 -66.822064 
L 105.351638 -67.099629 
L 105.681695 -67.377194 
L 106.011753 -67.654759 
L 106.34181 -67.932324 
L 106.671867 -68.209889 
L 107.001925 -68.487455 
L 107.331982 -68.76502 
L 107.662039 -69.042585 
L 107.992097 -69.32015 
L 108.322154 -69.597715 
L 108.652211 -69.87528 
L 108.982269 -70.152845 
L 109.312326 -70.430411 
L 109.642383 -70.707976 
L 109.972441 -70.985541 
L 110.302498 -71.263106 
L 110.632555 -71.540671 
L 110.962613 -71.818236 
L 111.29267 -72.095801 
L 111.622727 -72.373366 
L 111.952785 -72.650932 
L 112.282842 -72.928497 
L 112.612899 -73.206062 
L 112.942957 -73.483627 
L 113.273014 -73.761192 
L 113.603071 -74.038757 
L 113.933129 -74.316322 
L 114.263186 -74.593887 
L 114.593243 -74.871453 
L 114.923301 -75.149018 
L 115.253358 -75.426583 
L 115.583415 -75.704148 
L 115.913473 -75.981713 
L 116.24353 -76.259278 
L 116.573587 -76.536843 
L 116.903645 -76.814408 
L 117.233702 -77.091974 
L 117.563759 -77.369539 
L 117.893817 -77.647104 
L 118.223874 -77.924669 
L 118.553931 -78.202234 
L 118.883989 -78.479799 
L 119.214046 -78.757364 
L 119.544103 -79.034929 
L 119.874161 -79.312495 
L 120.204218 -79.59006 
L 120.534275 -79.867625 
L 120.864333 -80.14519 
L 121.19439 -80.422755 
L 121.524447 -80.70032 
L 121.854505 -80.977885 
L 122.184562 -81.255451 
L 122.514619 -81.533016 
L 122.844676 -81.810581 
L 123.174734 -82.088146 
L 123.504791 -82.365711 
L 123.834848 -82.643276 
L 124.164906 -82.920841 
L 124.494963 -83.198406 
L 124.82502 -83.475972 
L 125.155078 -83.753537 
L 125.485135 -84.031102 
L 125.815192 -84.308667 
L 126.14525 -84.586232 
L 126.475307 -84.863797 
L 126.805364 -85.141362 
L 127.135422 -85.418927 
L 127.465479 -85.696493 
L 127.795536 -85.974058 
L 128.125594 -86.251623 
L 128.455651 -86.529188 
L 128.785708 -86.806753 
L 129.115766 -87.084318 
L 129.445823 -87.361883 
L 129.77588 -87.639448 
L 130.105938 -87.917014 
L 130.435995 -88.194579 
L 130.766052 -88.472144 
L 131.09611 -88.749709 
L 131.426167 -89.027274 
L 131.756224 -89.304839 
L 132.086282 -89.582404 
L 132.416339 -89.859969 
L 132.746396 -90.137535 
L 133.076454 -90.4151 
L 133.406511 -90.692665 
L 133.736568 -90.97023 
L 134.066626 -91.247795 
L 134.396683 -91.52536 
L 134.72674 -91.802925 
L 135.056798 -92.08049 
L 135.386855 -92.358056 
L 135.716912 -92.635621 
L 136.04697 -92.913186 
L 136.377027 -93.190751 
L 136.707084 -93.468316 
L 137.037142 -93.745881 
L 137.367199 -94.023446 
L 137.697256 -94.301012 
L 138.027314 -94.578577 
L 138.357371 -94.856142 
L 138.687428 -95.133707 
L 139.017486 -95.411272 
L 139.347543 -95.688837 
L 139.6776 -95.966402 
L 140.007658 -96.243967 
L 140.337715 -96.521533 
L 140.667772 -96.799098 
L 140.99783 -97.076663 
L 141.327887 -97.354228 
L 141.657944 -97.631793 
L 141.988002 -97.909358 
L 142.318059 -98.186923 
L 142.648116 -98.464488 
L 142.978174 -98.742054 
L 143.308231 -99.019619 
L 143.638288 -99.297184 
L 143.968346 -99.574749 
L 144.298403 -99.852314 
L 144.62846 -100.129879 
L 144.958518 -100.407444 
L 145.288575 -100.685009 
L 145.618632 -100.962575 
L 145.94869 -101.24014 
L 146.278747 -101.517705 
L 146.608804 -101.79527 
L 146.938862 -102.072835 
L 147.268919 -102.3504 
L 147.598976 -102.627965 
L 147.929034 -102.90553 
L 148.259091 -103.183096 
L 148.589148 -103.460661 
L 148.919206 -103.738226 
L 149.249263 -104.015791 
L 149.57932 -104.293356 
L 149.909378 -104.570921 
L 150.239435 -104.848486 
L 150.569492 -105.126051 
L 150.89955 -105.403617 
L 151.229607 -105.681182 
L 151.559664 -105.958747 
L 151.889722 -106.236312 
L 152.219779 -106.513877 
L 152.549836 -106.791442 
L 152.879894 -107.069007 
L 153.209951 -107.346573 
L 153.540008 -107.624138 
L 153.870066 -107.901703 
L 154.200123 -108.179268 
L 154.53018 -108.456833 
L 154.860238 -108.734398 
L 155.190295 -109.011963 
L 155.520352 -109.289528 
L 155.85041 -109.567094 
L 156.180467 -109.844659 
L 156.510524 -110.122224 
L 156.840581 -110.399789 
L 157.170639 -110.677354 
L 157.500696 -110.954919 
L 157.830753 -111.232484 
L 158.160811 -111.510049 
L 158.490868 -111.787615 
L 158.820925 -112.06518 
L 159.150983 -112.342745 
L 159.48104 -112.62031 
L 159.811097 -112.897875 
L 160.141155 -113.17544 
L 160.471212 -113.453005 
L 160.801269 -113.73057 
L 161.131327 -114.008136 
L 161.461384 -114.285701 
L 161.791441 -114.563266 
L 162.121499 -114.840831 
L 162.451556 -115.118396 
L 162.781613 -115.395961 
L 163.111671 -115.673526 
L 163.441728 -115.951091 
L 163.771785 -116.228657 
L 164.101843 -116.506222 
L 164.4319 -116.783787 
L 164.761957 -117.061352 
L 165.092015 -117.338917 
L 165.422072 -117.616482 
L 165.752129 -117.894047 
L 166.082187 -118.171612 
L 166.412244 -118.449178 
L 166.742301 -118.726743 
L 167.072359 -119.004308 
L 167.402416 -119.281873 
L 167.732473 -119.559438 
L 168.062531 -119.837003 
L 168.392588 -120.114568 
L 168.722645 -120.392134 
L 169.052703 -120.669699 
L 169.38276 -120.909147 
L 169.712817 -121.135489 
L 170.042875 -121.361831 
L 170.372932 -121.588174 
L 170.702989 -121.814516 
L 171.033047 -122.040858 
L 171.363104 -122.267201 
L 171.693161 -122.493543 
L 172.023219 -122.719885 
L 172.353276 -122.946227 
L 172.683333 -123.17257 
L 173.013391 -123.398912 
L 173.343448 -123.625254 
L 173.673505 -123.851597 
L 174.003563 -124.077939 
L 174.33362 -124.304281 
L 174.663677 -124.530624 
L 174.993735 -124.756966 
L 175.323792 -124.983308 
L 175.653849 -125.209651 
L 175.983907 -125.435993 
L 176.313964 -125.662335 
L 176.644021 -125.888678 
L 176.974079 -126.11502 
L 177.304136 -126.341362 
L 177.634193 -126.567704 
L 177.964251 -126.794047 
L 178.294308 -127.020389 
L 178.624365 -127.246731 
L 178.954423 -127.473074 
L 179.28448 -127.699416 
L 179.614537 -127.925758 
L 179.944595 -128.152101 
L 180.274652 -128.378443 
L 180.604709 -128.604785 
L 180.934767 -128.831128 
L 181.264824 -129.05747 
L 181.594881 -129.283812 
L 181.924939 -129.510155 
L 182.254996 -129.736497 
L 182.585053 -129.962839 
L 182.915111 -130.189182 
L 183.245168 -130.415524 
L 183.575225 -130.641866 
L 183.905283 -130.868208 
L 184.23534 -131.094551 
L 184.565397 -131.320893 
L 184.895455 -131.547235 
L 185.225512 -131.773578 
L 185.555569 -131.99992 
L 185.885627 -132.226262 
L 186.215684 -132.452605 
L 186.545741 -132.678947 
L 186.875799 -132.905289 
L 187.205856 -133.131632 
L 187.535913 -133.357974 
L 187.865971 -133.584316 
L 188.196028 -133.810659 
L 188.526085 -134.037001 
L 188.856143 -134.263343 
L 189.1862 -134.489686 
L 189.516257 -134.716028 
L 189.846314 -134.94237 
L 190.176372 -135.168712 
L 190.506429 -135.395055 
L 190.836486 -135.621397 
L 191.166544 -135.653335 
L 191.496601 -135.679893 
L 191.826658 -135.706451 
L 192.156716 -135.733009 
L 192.486773 -135.759567 
L 192.81683 -135.786125 
L 193.146888 -135.812683 
L 193.476945 -135.839241 
L 193.807002 -135.865799 
L 194.13706 -135.892357 
L 194.467117 -135.918915 
L 194.797174 -135.945473 
L 195.127232 -135.972031 
L 195.457289 -135.998589 
L 195.787346 -136.025147 
L 196.117404 -136.051705 
L 196.447461 -136.078263 
L 196.777518 -136.104821 
L 197.107576 -136.131379 
L 197.437633 -136.157937 
L 197.76769 -136.184495 
L 198.097748 -136.211053 
L 198.427805 -136.237611 
L 198.757862 -136.264169 
L 199.08792 -136.290727 
L 199.417977 -136.317285 
L 199.748034 -136.343843 
L 200.078092 -136.370401 
L 200.408149 -136.396959 
L 200.738206 -136.423517 
L 201.068264 -136.450075 
L 201.398321 -136.476633 
L 201.728378 -136.503191 
L 202.058436 -136.529749 
L 202.388493 -136.556307 
L 202.71855 -136.582865 
L 203.048608 -136.609423 
L 203.378665 -136.635981 
L 203.708722 -136.662539 
L 204.03878 -136.689097 
L 204.368837 -136.715655 
L 204.698894 -136.742213 
L 205.028952 -136.768771 
L 205.359009 -136.795329 
L 205.689066 -136.821887 
L 206.019124 -136.848445 
L 206.349181 -136.875003 
L 206.679238 -136.901561 
L 207.009296 -136.928119 
L 207.339353 -136.954677 
L 207.66941 -136.981235 
L 207.999468 -137.007793 
L 208.329525 -137.034351 
L 208.659582 -137.060909 
L 208.98964 -137.087467 
L 209.319697 -137.114025 
L 209.649754 -137.140583 
L 209.979812 -137.167141 
L 210.309869 -137.193699 
L 210.639926 -137.220257 
L 210.969984 -137.246815 
L 211.300041 -137.273373 
L 211.630098 -137.299931 
L 211.960156 -137.326489 
L 212.290213 -137.353047 
L 212.62027 -137.379605 
L 212.950328 -137.406163 
L 213.280385 -137.432721 
L 213.610442 -137.459279 
L 213.9405 -137.485837 
L 214.270557 -137.512395 
L 214.600614 -137.538953 
L 214.930672 -137.565511 
L 215.260729 -137.592069 
L 215.590786 -137.618627 
L 215.920844 -137.645185 
L 216.250901 -137.671743 
L 216.580958 -137.698301 
L 216.911016 -137.724859 
L 217.241073 -137.751417 
L 217.57113 -137.777975 
L 217.901188 -137.804533 
L 218.231245 -137.831091 
L 218.561302 -137.857649 
L 218.89136 -137.884207 
L 219.221417 -137.910765 
L 219.551474 -137.937323 
L 219.881532 -137.963881 
L 220.211589 -137.990439 
L 220.541646 -138.016997 
L 220.871704 -138.043555 
L 221.201761 -138.070113 
L 221.531818 -138.096671 
L 221.861876 -138.123229 
L 222.191933 -138.149787 
L 222.52199 -138.176345 
L 222.852048 -138.202903 
L 223.182105 -138.229461 
L 223.512162 -138.256019 
L 223.842219 -138.282577 
L 224.172277 -138.309135 
L 224.502334 -138.335693 
L 224.832391 -138.362251 
L 225.162449 -138.388809 
L 225.492506 -138.415367 
L 225.822563 -138.441925 
L 226.152621 -138.468483 
L 226.482678 -138.495041 
L 226.812735 -138.521599 
L 227.142793 -138.548157 
L 227.47285 -138.574715 
L 227.802907 -138.601273 
L 228.132965 -138.627831 
L 228.463022 -138.654389 
L 228.793079 -138.680948 
L 229.123137 -138.707506 
L 229.453194 -138.734064 
L 229.783251 -138.760622 
L 230.113309 -138.78718 
L 230.443366 -138.813738 
L 230.773423 -138.840296 
L 231.103481 -138.866854 
L 231.433538 -138.893412 
L 231.763595 -138.91997 
L 232.093653 -138.946528 
L 232.42371 -138.973086 
L 232.753767 -138.999644 
L 233.083825 -139.026202 
L 233.413882 -139.05276 
L 233.743939 -139.079318 
L 234.073997 -139.105876 
L 234.404054 -139.132434 
L 234.734111 -139.158992 
L 235.064169 -139.18555 
L 235.394226 -139.212108 
L 235.724283 -139.238666 
L 236.054341 -139.265224 
L 236.384398 -139.291782 
L 236.714455 -139.31834 
L 237.044513 -139.344898 
L 237.37457 -139.371456 
L 237.704627 -139.398014 
L 238.034685 -139.424572 
L 238.364742 -139.45113 
L 238.694799 -139.477688 
L 239.024857 -139.504246 
L 239.354914 -139.530804 
L 239.684971 -139.557362 
L 240.015029 -139.58392 
L 240.345086 -139.610478 
L 240.675143 -139.637036 
L 241.005201 -139.663594 
L 241.335258 -139.690152 
L 241.665315 -139.71671 
L 241.995373 -139.743268 
L 242.32543 -139.769826 
L 242.655487 -139.796384 
L 242.985545 -139.822942 
L 243.315602 -139.8495 
L 243.645659 -139.876058 
L 243.975717 -139.902616 
L 244.305774 -139.929174 
L 244.635831 -139.955732 
L 244.965889 -139.98229 
L 245.295946 -140.008848 
L 245.626003 -140.035406 
L 245.956061 -140.061964 
L 246.286118 -140.088522 
L 246.616175 -140.11508 
L 246.946233 -140.141638 
L 247.27629 -140.168196 
L 247.606347 -140.194754 
L 247.936405 -140.221312 
L 248.266462 -140.24787 
L 248.596519 -140.274428 
L 248.926577 -140.300986 
L 249.256634 -140.327544 
L 249.586691 -140.354102 
L 249.916749 -140.38066 
L 250.246806 -140.407218 
L 250.576863 -140.433776 
L 250.906921 -140.460334 
L 251.236978 -140.486892 
L 251.567035 -140.51345 
L 251.897093 -140.540008 
L 252.22715 -140.566566 
L 252.557207 -140.593124 
L 252.887265 -140.619682 
L 253.217322 -140.64624 
L 253.547379 -140.672798 
L 253.877437 -140.699356 
L 254.207494 -140.725914 
L 254.537551 -140.752472 
L 254.867609 -140.77903 
L 255.197666 -140.805588 
L 255.527723 -140.832146 
L 255.857781 -140.858704 
L 256.187838 -140.885262 
L 256.517895 -140.91182 
L 256.847952 -140.938378 
L 257.17801 -140.964936 
L 257.508067 -140.991494 
L 257.838124 -141.018052 
L 258.168182 -141.04461 
L 258.498239 -141.071168 
L 258.828296 -141.097726 
L 259.158354 -141.124284 
L 259.488411 -141.150842 
L 259.818468 -141.1774 
L 260.148526 -141.203958 
L 260.478583 -141.230516 
L 260.80864 -141.257074 
L 261.138698 -141.283632 
L 261.468755 -141.31019 
L 261.798812 -141.336748 
L 262.12887 -141.363306 
L 262.458927 -141.389864 
L 262.788984 -141.416422 
L 263.119042 -141.44298 
L 263.449099 -141.469538 
L 263.779156 -141.496096 
L 264.109214 -141.522654 
L 264.439271 -141.549212 
L 264.769328 -141.57577 
L 265.099386 -141.602328 
L 265.429443 -141.628886 
L 265.7595 -141.655444 
L 266.089558 -141.682002 
L 266.419615 -141.70856 
L 266.749672 -141.735118 
L 267.07973 -141.761676 
L 267.409787 -141.788234 
L 267.739844 -141.814792 
L 268.069902 -141.84135 
L 268.399959 -141.867908 
L 268.730016 -141.894466 
L 269.060074 -141.921024 
L 269.390131 -141.947582 
L 269.720188 -141.97414 
L 270.050246 -142.000698 
L 270.380303 -142.027256 
L 270.71036 -142.053814 
L 271.040418 -142.080372 
L 271.370475 -142.10693 
L 271.700532 -142.133488 
L 272.03059 -142.160046 
L 272.360647 -142.186604 
L 272.690704 -142.213162 
L 273.020762 -142.23972 
L 273.350819 -142.266278 
L 273.680876 -142.292836 
L 274.010934 -142.319394 
L 274.340991 -142.345952 
L 274.671048 -142.37251 
L 275.001106 -142.399068 
L 275.331163 -142.425626 
L 275.66122 -142.452184 
L 275.991278 -142.478742 
L 276.321335 -142.5053 
L 276.651392 -142.531858 
L 276.98145 -142.558416 
L 277.311507 -142.584974 
L 277.641564 -142.611532 
L 277.971622 -142.63809 
L 278.301679 -142.664648 
L 278.631736 -142.691206 
L 278.961794 -142.717764 
L 279.291851 -142.744322 
L 279.621908 -142.77088 
L 279.951966 -142.797438 
L 280.282023 -142.823996 
L 280.61208 -142.850554 
L 280.942138 -142.877112 
L 281.272195 -142.90367 
L 281.602252 -142.930228 
L 281.93231 -142.956786 
L 282.262367 -142.983344 
L 282.592424 -143.009902 
L 282.922482 -143.03646 
L 283.252539 -143.063018 
L 283.582596 -143.089576 
L 283.912654 -143.116134 
L 284.242711 -143.142692 
L 284.572768 -143.16925 
L 284.902826 -143.195808 
L 285.232883 -143.222366 
L 285.56294 -143.248924 
L 285.892998 -143.275482 
L 286.223055 -143.30204 
L 286.553112 -143.328598 
L 286.88317 -143.355156 
L 287.213227 -143.381714 
L 287.543284 -143.408272 
L 287.873342 -143.43483 
L 288.203399 -143.461388 
L 288.533456 -143.487946 
L 288.863514 -143.514504 
L 289.193571 -143.541062 
L 289.523628 -143.56762 
L 289.853686 -143.594178 
L 290.183743 -143.620736 
L 290.5138 -143.647294 
L 290.843857 -143.673852 
L 291.173915 -143.70041 
L 291.503972 -143.726968 
L 291.834029 -143.753526 
L 292.164087 -143.780084 
L 292.494144 -143.806642 
L 292.824201 -143.8332 
L 293.154259 -143.859758 
L 293.484316 -143.886316 
L 293.814373 -143.912874 
L 294.144431 -143.939432 
L 294.474488 -143.96599 
L 294.804545 -143.992548 
L 295.134603 -144.019106 
L 295.46466 -144.045664 
L 295.794717 -144.072222 
L 296.124775 -144.09878 
L 296.454832 -144.125338 
L 296.784889 -144.151896 
L 297.114947 -144.178454 
L 297.445004 -144.205012 
L 297.775061 -144.23157 
L 298.105119 -144.258128 
L 298.435176 -144.284686 
L 298.765233 -144.311244 
L 299.095291 -144.337802 
L 299.425348 -144.36436 
L 299.755405 -144.390918 
L 300.085463 -144.417476 
L 300.41552 -144.444034 
L 300.745577 -144.470592 
L 301.075635 -144.49715 
L 301.405692 -144.523708 
L 301.735749 -144.550266 
L 302.065807 -144.576824 
L 302.395864 -144.603382 
L 302.725921 -144.62994 
L 303.055979 -144.656498 
L 303.386036 -144.683056 
L 303.716093 -144.709614 
L 304.046151 -144.736172 
L 304.376208 -144.76273 
L 304.706265 -144.789288 
L 305.036323 -144.815846 
L 305.36638 -144.842404 
L 305.696437 -144.868962 
L 306.026495 -144.89552 
L 306.356552 -144.922078 
L 306.686609 -144.948636 
L 307.016667 -144.975194 
L 307.346724 -145.001752 
L 307.676781 -145.02831 
L 308.006839 -145.054868 
L 308.336896 -145.081426 
L 308.666953 -145.107984 
L 308.997011 -145.134542 
L 309.327068 -145.1611 
L 309.657125 -145.187658 
L 309.987183 -145.214216 
L 310.31724 -145.240774 
L 310.647297 -145.267332 
L 310.977355 -145.29389 
L 311.307412 -145.320449 
L 311.637469 -145.347007 
L 311.967527 -145.373565 
L 312.297584 -145.400123 
L 312.627641 -145.426681 
L 312.957699 -145.453239 
L 313.287756 -145.479797 
L 313.617813 -145.506355 
L 313.947871 -145.532913 
L 314.277928 -145.559471 
L 314.607985 -145.586029 
L 314.938043 -145.612587 
L 315.2681 -145.639145 
L 315.598157 -145.665703 
L 315.928215 -145.692261 
L 316.258272 -145.718819 
L 316.588329 -145.745377 
L 316.918387 -145.771935 
L 317.248444 -145.798493 
L 317.578501 -145.825051 
L 317.908559 -145.851609 
L 318.238616 -145.878167 
L 318.568673 -145.904725 
L 318.898731 -145.931283 
L 319.228788 -145.957841 
L 319.558845 -145.984399 
L 319.888903 -146.010957 
L 320.21896 -146.037515 
L 320.549017 -146.064073 
L 320.879075 -146.090631 
L 321.209132 -146.117189 
L 321.539189 -146.143747 
L 321.869247 -146.170305 
L 322.199304 -146.196863 
L 322.529361 -146.223421 
L 322.859419 -146.249979 
L 323.189476 -146.276537 
L 323.519533 -146.303095 
L 323.84959 -146.329653 
L 324.179648 -146.356211 
L 324.509705 -146.382769 
L 324.839762 -146.409327 
L 325.16982 -146.435885 
L 325.499877 -146.462443 
L 325.829934 -146.489001 
L 326.159992 -146.515559 
L 326.490049 -146.542117 
L 326.820106 -146.568675 
L 327.150164 -146.595233 
L 327.480221 -146.621791 
L 327.810278 -146.648349 
L 328.140336 -146.674907 
L 328.470393 -146.701465 
L 328.80045 -146.728023 
L 329.130508 -146.754581 
L 329.460565 -146.781139 
L 329.790622 -146.807697 
L 330.12068 -146.834255 
L 330.450737 -146.860813 
L 330.780794 -146.887371 
L 331.110852 -146.913929 
L 331.440909 -146.940487 
L 331.770966 -146.967045 
L 332.101024 -146.993603 
L 332.431081 -147.020161 
L 332.761138 -147.046719 
L 333.091196 -147.073277 
L 333.421253 -147.099835 
L 333.75131 -147.126393 
L 334.081368 -147.152951 
L 334.411425 -147.179509 
L 334.741482 -147.206067 
L 335.07154 -147.232625 
L 335.401597 -147.259183 
L 335.731654 -147.285741 
L 336.061712 -147.312299 
L 336.391769 -147.338857 
L 336.721826 -147.365415 
L 337.051884 -147.391973 
L 337.381941 -147.418531 
L 337.711998 -147.445089 
L 338.042056 -147.471647 
L 338.372113 -147.498205 
L 338.70217 -147.524763 
L 339.032228 -147.551321 
L 339.362285 -147.577879 
L 339.692342 -147.604437 
L 340.0224 -147.630995 
L 340.352457 -147.657553 
L 340.682514 -147.684111 
L 341.012572 -147.710669 
L 341.342629 -147.737227 
L 341.672686 -147.763785 
L 342.002744 -147.790343 
L 342.332801 -147.816901 
L 342.662858 -147.843459 
L 342.992916 -147.870017 
L 343.322973 -147.896575 
L 343.65303 -147.923133 
L 343.983088 -147.949691 
L 344.313145 -147.976249 
L 344.643202 -148.002807 
L 344.97326 -148.029365 
L 345.303317 -148.055923 
L 345.633374 -148.082481 
L 345.963432 -148.109039 
L 346.293489 -148.135597 
L 346.623546 -148.162155 
L 346.953604 -148.188713 
L 347.283661 -148.215271 
L 347.613718 -148.241829 
L 347.943776 -148.268387 
L 348.273833 -148.294945 
L 348.60389 -148.321503 
L 348.933948 -148.348061 
L 349.264005 -148.374619 
L 349.594062 -148.401177 
L 349.92412 -148.427735 
L 350.254177 -148.454293 
L 350.584234 -148.480851 
L 350.914292 -148.507409 
L 351.244349 -148.533967 
L 351.574406 -148.560525 
L 351.904464 -148.587083 
L 352.234521 -148.613641 
L 352.564578 -148.640199 
L 352.894636 -148.666757 
L 353.224693 -148.693315 
L 353.55475 -148.719873 
L 353.884808 -148.746431 
L 354.214865 -148.772989 
L 354.544922 -148.799547 
L 354.87498 -148.826105 
L 355.205037 -148.852663 
L 355.535094 -148.879221 
L 355.865152 -148.905779 
L 356.195209 -148.932337 
L 356.525266 -148.958895 
L 356.855324 -148.985453 
L 357.185381 -149.012011 
L 357.515438 -149.038569 
L 357.845495 -149.065127 
L 358.175553 -149.091685 
L 358.50561 -149.118243 
L 358.835667 -149.144801 
L 359.165725 -149.171359 
L 359.495782 -149.197917 
L 359.825839 -149.224475 
L 360.155897 -149.251033 
L 360.485954 -149.277591 
L 360.816011 -149.304149 
L 361.146069 -149.330707 
L 361.476126 -149.357265 
L 361.806183 -149.383823 
L 362.136241 -149.410381 
L 362.466298 -149.436939 
L 362.796355 -149.463497 
L 363.126413 -149.490055 
L 363.45647 -149.516613 
L 363.786527 -149.543171 
L 364.116585 -149.569729 
L 364.446642 -149.596287 
L 364.776699 -149.622845 
L 365.106757 -149.649403 
L 365.436814 -149.675961 
L 365.766871 -149.702519 
L 366.096929 -149.729077 
L 366.426986 -149.755635 
L 366.757043 -149.782193 
L 367.087101 -149.808751 
L 367.417158 -149.835309 
L 367.747215 -149.861867 
L 368.077273 -149.888425 
L 368.40733 -149.914983 
L 368.737387 -149.941541 
L 369.067445 -149.968099 
L 369.397502 -149.994657 
L 369.727559 -150.021215 
L 370.057617 -150.047773 
L 370.387674 -150.074331 
L 370.717731 -150.100889 
L 371.047789 -150.127447 
L 371.377846 -150.154005 
L 371.707903 -150.180563 
L 372.037961 -150.207121 
L 372.368018 -150.233679 
L 372.698075 -150.260237 
L 373.028133 -150.286795 
L 373.35819 -150.313353 
L 373.688247 -150.339911 
L 374.018305 -150.366469 
L 374.348362 -150.393027 
L 374.678419 -150.419585 
L 375.008477 -150.446143 
L 375.338534 -150.472701 
L 375.668591 -150.499259 
L 375.998649 -150.525817 
L 376.328706 -150.552375 
L 376.658763 -150.578933 
L 376.988821 -150.605491 
L 377.318878 -150.632049 
L 377.648935 -150.658607 
L 377.978993 -150.685165 
L 378.30905 -150.711723 
L 378.639107 -150.738281 
L 378.969165 -150.764839 
L 379.299222 -150.791397 
L 379.629279 -150.817955 
L 379.959337 -150.844513 
L 380.289394 -150.871071 
L 380.619451 -150.897629 
L 380.949509 -150.924187 
L 381.279566 -150.950745 
L 381.609623 -150.977303 
L 381.939681 -151.003861 
L 382.269738 -151.030419 
L 382.599795 -151.056977 
L 382.929853 -151.083535 
L 383.25991 -151.110093 
L 383.589967 -151.136651 
L 383.920025 -151.163209 
L 384.250082 -151.189767 
L 384.580139 -151.216325 
L 384.910197 -151.242883 
L 385.240254 -151.269441 
L 385.570311 -151.295999 
L 385.900369 -151.322557 
L 386.230426 -151.349115 
L 386.560483 -151.375673 
L 386.890541 -151.402231 
L 387.220598 -151.428789 
L 387.550655 -151.455347 
L 387.880713 -151.481905 
L 388.21077 -151.508463 
L 388.540827 -151.535021 
L 388.870885 -151.561579 
L 389.200942 -151.588137 
L 389.530999 -151.614695 
L 389.861057 -151.641253 
L 390.191114 -151.667811 
L 390.521171 -151.694369 
L 390.851229 -151.720927 
L 391.181286 -151.747485 
L 391.511343 -151.774043 
L 391.8414 -151.800601 
L 392.171458 -151.827159 
L 392.501515 -151.853717 
L 392.831572 -151.880275 
L 393.16163 -151.906833 
L 393.491687 -151.933392 
L 393.821744 -151.95995 
L 394.151802 -151.986508 
L 394.481859 -152.013066 
L 394.811916 -152.039624 
L 395.141974 -152.066182 
L 395.472031 -152.09274 
L 395.802088 -152.119298 
L 396.132146 -152.145856 
L 396.462203 -152.172414 
L 396.79226 -152.198972 
L 397.122318 -152.22553 
L 397.452375 -152.252088 
L 397.782432 -152.278646 
L 398.11249 -152.305204 
L 398.442547 -152.331762 
L 398.772604 -152.35832 
L 399.102662 -152.384878 
L 399.432719 -152.411436 
L 399.762776 -152.437994 
L 400.092834 -152.464552 
L 400.422891 -152.49111 
L 400.752948 -152.517668 
L 401.083006 -152.544226 
L 401.413063 -152.570784 
L 401.74312 -152.597342 
L 402.073178 -152.6239 
L 402.403235 -152.650458 
L 402.733292 -152.677016 
L 403.06335 -152.703574 
L 403.393407 -152.730132 
L 403.723464 -152.75669 
L 404.053522 -152.783248 
L 404.383579 -152.809806 
L 404.713636 -152.836364 
L 404.713636 -41.563636 
L 404.713636 -41.563636 
L 404.383579 -41.563636 
L 404.053522 -41.563636 
L 403.723464 -41.563636 
L 403.393407 -41.563636 
L 403.06335 -41.563636 
L 402.733292 -41.563636 
L 402.403235 -41.563636 
L 402.073178 -41.563636 
L 401.74312 -41.563636 
L 401.413063 -41.563636 
L 401.083006 -41.563636 
L 400.752948 -41.563636 
L 400.422891 -41.563636 
L 400.092834 -41.563636 
L 399.762776 -41.563636 
L 399.432719 -41.563636 
L 399.102662 -41.563636 
L 398.772604 -41.563636 
L 398.442547 -41.563636 
L 398.11249 -41.563636 
L 397.782432 -41.563636 
L 397.452375 -41.563636 
L 397.122318 -41.563636 
L 396.79226 -41.563636 
L 396.462203 -41.563636 
L 396.132146 -41.563636 
L 395.802088 -41.563636 
L 395.472031 -41.563636 
L 395.141974 -41.563636 
L 394.811916 -41.563636 
L 394.481859 -41.563636 
L 394.151802 -41.563636 
L 393.821744 -41.563636 
L 393.491687 -41.563636 
L 393.16163 -41.563636 
L 392.831572 -41.563636 
L 392.501515 -41.563636 
L 392.171458 -41.563636 
L 391.8414 -41.563636 
L 391.511343 -41.563636 
L 391.181286 -41.563636 
L 390.851229 -41.563636 
L 390.521171 -41.563636 
L 390.191114 -41.563636 
L 389.861057 -41.563636 
L 389.530999 -41.563636 
L 389.200942 -41.563636 
L 388.870885 -41.563636 
L 388.540827 -41.563636 
L 388.21077 -41.563636 
L 387.880713 -41.563636 
L 387.550655 -41.563636 
L 387.220598 -41.563636 
L 386.890541 -41.563636 
L 386.560483 -41.563636 
L 386.230426 -41.563636 
L 385.900369 -41.563636 
L 385.570311 -41.563636 
L 385.240254 -41.563636 
L 384.910197 -41.563636 
L 384.580139 -41.563636 
L 384.250082 -41.563636 
L 383.920025 -41.563636 
L 383.589967 -41.563636 
L 383.25991 -41.563636 
L 382.929853 -41.563636 
L 382.599795 -41.563636 
L 382.269738 -41.563636 
L 381.939681 -41.563636 
L 381.609623 -41.563636 
L 381.279566 -41.563636 
L 380.949509 -41.563636 
L 380.619451 -41.563636 
L 380.289394 -41.563636 
L 379.959337 -41.563636 
L 379.629279 -41.563636 
L 379.299222 -41.563636 
L 378.969165 -41.563636 
L 378.639107 -41.563636 
L 378.30905 -41.563636 
L 377.978993 -41.563636 
L 377.648935 -41.563636 
L 377.318878 -41.563636 
L 376.988821 -41.563636 
L 376.658763 -41.563636 
L 376.328706 -41.563636 
L 375.998649 -41.563636 
L 375.668591 -41.563636 
L 375.338534 -41.563636 
L 375.008477 -41.563636 
L 374.678419 -41.563636 
L 374.348362 -41.563636 
L 374.018305 -41.563636 
L 373.688247 -41.563636 
L 373.35819 -41.563636 
L 373.028133 -41.563636 
L 372.698075 -41.563636 
L 372.368018 -41.563636 
L 372.037961 -41.563636 
L 371.707903 -41.563636 
L 371.377846 -41.563636 
L 371.047789 -41.563636 
L 370.717731 -41.563636 
L 370.387674 -41.563636 
L 370.057617 -41.563636 
L 369.727559 -41.563636 
L 369.397502 -41.563636 
L 369.067445 -41.563636 
L 368.737387 -41.563636 
L 368.40733 -41.563636 
L 368.077273 -41.563636 
L 367.747215 -41.563636 
L 367.417158 -41.563636 
L 367.087101 -41.563636 
L 366.757043 -41.563636 
L 366.426986 -41.563636 
L 366.096929 -41.563636 
L 365.766871 -41.563636 
L 365.436814 -41.563636 
L 365.106757 -41.563636 
L 364.776699 -41.563636 
L 364.446642 -41.563636 
L 364.116585 -41.563636 
L 363.786527 -41.563636 
L 363.45647 -41.563636 
L 363.126413 -41.563636 
L 362.796355 -41.563636 
L 362.466298 -41.563636 
L 362.136241 -41.563636 
L 361.806183 -41.563636 
L 361.476126 -41.563636 
L 361.146069 -41.563636 
L 360.816011 -41.563636 
L 360.485954 -41.563636 
L 360.155897 -41.563636 
L 359.825839 -41.563636 
L 359.495782 -41.563636 
L 359.165725 -41.563636 
L 358.835667 -41.563636 
L 358.50561 -41.563636 
L 358.175553 -41.563636 
L 357.845495 -41.563636 
L 357.515438 -41.563636 
L 357.185381 -41.563636 
L 356.855324 -41.563636 
L 356.525266 -41.563636 
L 356.195209 -41.563636 
L 355.865152 -41.563636 
L 355.535094 -41.563636 
L 355.205037 -41.563636 
L 354.87498 -41.563636 
L 354.544922 -41.563636 
L 354.214865 -41.563636 
L 353.884808 -41.563636 
L 353.55475 -41.563636 
L 353.224693 -41.563636 
L 352.894636 -41.563636 
L 352.564578 -41.563636 
L 352.234521 -41.563636 
L 351.904464 -41.563636 
L 351.574406 -41.563636 
L 351.244349 -41.563636 
L 350.914292 -41.563636 
L 350.584234 -41.563636 
L 350.254177 -41.563636 
L 349.92412 -41.563636 
L 349.594062 -41.563636 
L 349.264005 -41.563636 
L 348.933948 -41.563636 
L 348.60389 -41.563636 
L 348.273833 -41.563636 
L 347.943776 -41.563636 
L 347.613718 -41.563636 
L 347.283661 -41.563636 
L 346.953604 -41.563636 
L 346.623546 -41.563636 
L 346.293489 -41.563636 
L 345.963432 -41.563636 
L 345.633374 -41.563636 
L 345.303317 -41.563636 
L 344.97326 -41.563636 
L 344.643202 -41.563636 
L 344.313145 -41.563636 
L 343.983088 -41.563636 
L 343.65303 -41.563636 
L 343.322973 -41.563636 
L 342.992916 -41.563636 
L 342.662858 -41.563636 
L 342.332801 -41.563636 
L 342.002744 -41.563636 
L 341.672686 -41.563636 
L 341.342629 -41.563636 
L 341.012572 -41.563636 
L 340.682514 -41.563636 
L 340.352457 -41.563636 
L 340.0224 -41.563636 
L 339.692342 -41.563636 
L 339.362285 -41.563636 
L 339.032228 -41.563636 
L 338.70217 -41.563636 
L 338.372113 -41.563636 
L 338.042056 -41.563636 
L 337.711998 -41.563636 
L 337.381941 -41.563636 
L 337.051884 -41.563636 
L 336.721826 -41.563636 
L 336.391769 -41.563636 
L 336.061712 -41.563636 
L 335.731654 -41.563636 
L 335.401597 -41.563636 
L 335.07154 -41.563636 
L 334.741482 -41.563636 
L 334.411425 -41.563636 
L 334.081368 -41.563636 
L 333.75131 -41.563636 
L 333.421253 -41.563636 
L 333.091196 -41.563636 
L 332.761138 -41.563636 
L 332.431081 -41.563636 
L 332.101024 -41.563636 
L 331.770966 -41.563636 
L 331.440909 -41.563636 
L 331.110852 -41.563636 
L 330.780794 -41.563636 
L 330.450737 -41.563636 
L 330.12068 -41.563636 
L 329.790622 -41.563636 
L 329.460565 -41.563636 
L 329.130508 -41.563636 
L 328.80045 -41.563636 
L 328.470393 -41.563636 
L 328.140336 -41.563636 
L 327.810278 -41.563636 
L 327.480221 -41.563636 
L 327.150164 -41.563636 
L 326.820106 -41.563636 
L 326.490049 -41.563636 
L 326.159992 -41.563636 
L 325.829934 -41.563636 
L 325.499877 -41.563636 
L 325.16982 -41.563636 
L 324.839762 -41.563636 
L 324.509705 -41.563636 
L 324.179648 -41.563636 
L 323.84959 -41.563636 
L 323.519533 -41.563636 
L 323.189476 -41.563636 
L 322.859419 -41.563636 
L 322.529361 -41.563636 
L 322.199304 -41.563636 
L 321.869247 -41.563636 
L 321.539189 -41.563636 
L 321.209132 -41.563636 
L 320.879075 -41.563636 
L 320.549017 -41.563636 
L 320.21896 -41.563636 
L 319.888903 -41.563636 
L 319.558845 -41.563636 
L 319.228788 -41.563636 
L 318.898731 -41.563636 
L 318.568673 -41.563636 
L 318.238616 -41.563636 
L 317.908559 -41.563636 
L 317.578501 -41.563636 
L 317.248444 -41.563636 
L 316.918387 -41.563636 
L 316.588329 -41.563636 
L 316.258272 -41.563636 
L 315.928215 -41.563636 
L 315.598157 -41.563636 
L 315.2681 -41.563636 
L 314.938043 -41.563636 
L 314.607985 -41.563636 
L 314.277928 -41.563636 
L 313.947871 -41.563636 
L 313.617813 -41.563636 
L 313.287756 -41.563636 
L 312.957699 -41.563636 
L 312.627641 -41.563636 
L 312.297584 -41.563636 
L 311.967527 -41.563636 
L 311.637469 -41.563636 
L 311.307412 -41.563636 
L 310.977355 -41.563636 
L 310.647297 -41.563636 
L 310.31724 -41.563636 
L 309.987183 -41.563636 
L 309.657125 -41.563636 
L 309.327068 -41.563636 
L 308.997011 -41.563636 
L 308.666953 -41.563636 
L 308.336896 -41.563636 
L 308.006839 -41.563636 
L 307.676781 -41.563636 
L 307.346724 -41.563636 
L 307.016667 -41.563636 
L 306.686609 -41.563636 
L 306.356552 -41.563636 
L 306.026495 -41.563636 
L 305.696437 -41.563636 
L 305.36638 -41.563636 
L 305.036323 -41.563636 
L 304.706265 -41.563636 
L 304.376208 -41.563636 
L 304.046151 -41.563636 
L 303.716093 -41.563636 
L 303.386036 -41.563636 
L 303.055979 -41.563636 
L 302.725921 -41.563636 
L 302.395864 -41.563636 
L 302.065807 -41.563636 
L 301.735749 -41.563636 
L 301.405692 -41.563636 
L 301.075635 -41.563636 
L 300.745577 -41.563636 
L 300.41552 -41.563636 
L 300.085463 -41.563636 
L 299.755405 -41.563636 
L 299.425348 -41.563636 
L 299.095291 -41.563636 
L 298.765233 -41.563636 
L 298.435176 -41.563636 
L 298.105119 -41.563636 
L 297.775061 -41.563636 
L 297.445004 -41.563636 
L 297.114947 -41.563636 
L 296.784889 -41.563636 
L 296.454832 -41.563636 
L 296.124775 -41.563636 
L 295.794717 -41.563636 
L 295.46466 -41.563636 
L 295.134603 -41.563636 
L 294.804545 -41.563636 
L 294.474488 -41.563636 
L 294.144431 -41.563636 
L 293.814373 -41.563636 
L 293.484316 -41.563636 
L 293.154259 -41.563636 
L 292.824201 -41.563636 
L 292.494144 -41.563636 
L 292.164087 -41.563636 
L 291.834029 -41.563636 
L 291.503972 -41.563636 
L 291.173915 -41.563636 
L 290.843857 -41.563636 
L 290.5138 -41.563636 
L 290.183743 -41.563636 
L 289.853686 -41.563636 
L 289.523628 -41.563636 
L 289.193571 -41.563636 
L 288.863514 -41.563636 
L 288.533456 -41.563636 
L 288.203399 -41.563636 
L 287.873342 -41.563636 
L 287.543284 -41.563636 
L 287.213227 -41.563636 
L 286.88317 -41.563636 
L 286.553112 -41.563636 
L 286.223055 -41.563636 
L 285.892998 -41.563636 
L 285.56294 -41.563636 
L 285.232883 -41.563636 
L 284.902826 -41.563636 
L 284.572768 -41.563636 
L 284.242711 -41.563636 
L 283.912654 -41.563636 
L 283.582596 -41.563636 
L 283.252539 -41.563636 
L 282.922482 -41.563636 
L 282.592424 -41.563636 
L 282.262367 -41.563636 
L 281.93231 -41.563636 
L 281.602252 -41.563636 
L 281.272195 -41.563636 
L 280.942138 -41.563636 
L 280.61208 -41.563636 
L 280.282023 -41.563636 
L 279.951966 -41.563636 
L 279.621908 -41.563636 
L 279.291851 -41.563636 
L 278.961794 -41.563636 
L 278.631736 -41.563636 
L 278.301679 -41.563636 
L 277.971622 -41.563636 
L 277.641564 -41.563636 
L 277.311507 -41.563636 
L 276.98145 -41.563636 
L 276.651392 -41.563636 
L 276.321335 -41.563636 
L 275.991278 -41.563636 
L 275.66122 -41.563636 
L 275.331163 -41.563636 
L 275.001106 -41.563636 
L 274.671048 -41.563636 
L 274.340991 -41.563636 
L 274.010934 -41.563636 
L 273.680876 -41.563636 
L 273.350819 -41.563636 
L 273.020762 -41.563636 
L 272.690704 -41.563636 
L 272.360647 -41.563636 
L 272.03059 -41.563636 
L 271.700532 -41.563636 
L 271.370475 -41.563636 
L 271.040418 -41.563636 
L 270.71036 -41.563636 
L 270.380303 -41.563636 
L 270.050246 -41.563636 
L 269.720188 -41.563636 
L 269.390131 -41.563636 
L 269.060074 -41.563636 
L 268.730016 -41.563636 
L 268.399959 -41.563636 
L 268.069902 -41.563636 
L 267.739844 -41.563636 
L 267.409787 -41.563636 
L 267.07973 -41.563636 
L 266.749672 -41.563636 
L 266.419615 -41.563636 
L 266.089558 -41.563636 
L 265.7595 -41.563636 
L 265.429443 -41.563636 
L 265.099386 -41.563636 
L 264.769328 -41.563636 
L 264.439271 -41.563636 
L 264.109214 -41.563636 
L 263.779156 -41.563636 
L 263.449099 -41.563636 
L 263.119042 -41.563636 
L 262.788984 -41.563636 
L 262.458927 -41.563636 
L 262.12887 -41.563636 
L 261.798812 -41.563636 
L 261.468755 -41.563636 
L 261.138698 -41.563636 
L 260.80864 -41.563636 
L 260.478583 -41.563636 
L 260.148526 -41.563636 
L 259.818468 -41.563636 
L 259.488411 -41.563636 
L 259.158354 -41.563636 
L 258.828296 -41.563636 
L 258.498239 -41.563636 
L 258.168182 -41.563636 
L 257.838124 -41.563636 
L 257.508067 -41.563636 
L 257.17801 -41.563636 
L 256.847952 -41.563636 
L 256.517895 -41.563636 
L 256.187838 -41.563636 
L 255.857781 -41.563636 
L 255.527723 -41.563636 
L 255.197666 -41.563636 
L 254.867609 -41.563636 
L 254.537551 -41.563636 
L 254.207494 -41.563636 
L 253.877437 -41.563636 
L 253.547379 -41.563636 
L 253.217322 -41.563636 
L 252.887265 -41.563636 
L 252.557207 -41.563636 
L 252.22715 -41.563636 
L 251.897093 -41.563636 
L 251.567035 -41.563636 
L 251.236978 -41.563636 
L 250.906921 -41.563636 
L 250.576863 -41.563636 
L 250.246806 -41.563636 
L 249.916749 -41.563636 
L 249.586691 -41.563636 
L 249.256634 -41.563636 
L 248.926577 -41.563636 
L 248.596519 -41.563636 
L 248.266462 -41.563636 
L 247.936405 -41.563636 
L 247.606347 -41.563636 
L 247.27629 -41.563636 
L 246.946233 -41.563636 
L 246.616175 -41.563636 
L 246.286118 -41.563636 
L 245.956061 -41.563636 
L 245.626003 -41.563636 
L 245.295946 -41.563636 
L 244.965889 -41.563636 
L 244.635831 -41.563636 
L 244.305774 -41.563636 
L 243.975717 -41.563636 
L 243.645659 -41.563636 
L 243.315602 -41.563636 
L 242.985545 -41.563636 
L 242.655487 -41.563636 
L 242.32543 -41.563636 
L 241.995373 -41.563636 
L 241.665315 -41.563636 
L 241.335258 -41.563636 
L 241.005201 -41.563636 
L 240.675143 -41.563636 
L 240.345086 -41.563636 
L 240.015029 -41.563636 
L 239.684971 -41.563636 
L 239.354914 -41.563636 
L 239.024857 -41.563636 
L 238.694799 -41.563636 
L 238.364742 -41.563636 
L 238.034685 -41.563636 
L 237.704627 -41.563636 
L 237.37457 -41.563636 
L 237.044513 -41.563636 
L 236.714455 -41.563636 
L 236.384398 -41.563636 
L 236.054341 -41.563636 
L 235.724283 -41.563636 
L 235.394226 -41.563636 
L 235.064169 -41.563636 
L 234.734111 -41.563636 
L 234.404054 -41.563636 
L 234.073997 -41.563636 
L 233.743939 -41.563636 
L 233.413882 -41.563636 
L 233.083825 -41.563636 
L 232.753767 -41.563636 
L 232.42371 -41.563636 
L 232.093653 -41.563636 
L 231.763595 -41.563636 
L 231.433538 -41.563636 
L 231.103481 -41.563636 
L 230.773423 -41.563636 
L 230.443366 -41.563636 
L 230.113309 -41.563636 
L 229.783251 -41.563636 
L 229.453194 -41.563636 
L 229.123137 -41.563636 
L 228.793079 -41.563636 
L 228.463022 -41.563636 
L 228.132965 -41.563636 
L 227.802907 -41.563636 
L 227.47285 -41.563636 
L 227.142793 -41.563636 
L 226.812735 -41.563636 
L 226.482678 -41.563636 
L 226.152621 -41.563636 
L 225.822563 -41.563636 
L 225.492506 -41.563636 
L 225.162449 -41.563636 
L 224.832391 -41.563636 
L 224.502334 -41.563636 
L 224.172277 -41.563636 
L 223.842219 -41.563636 
L 223.512162 -41.563636 
L 223.182105 -41.563636 
L 222.852048 -41.563636 
L 222.52199 -41.563636 
L 222.191933 -41.563636 
L 221.861876 -41.563636 
L 221.531818 -41.563636 
L 221.201761 -41.563636 
L 220.871704 -41.563636 
L 220.541646 -41.563636 
L 220.211589 -41.563636 
L 219.881532 -41.563636 
L 219.551474 -41.563636 
L 219.221417 -41.563636 
L 218.89136 -41.563636 
L 218.561302 -41.563636 
L 218.231245 -41.563636 
L 217.901188 -41.563636 
L 217.57113 -41.563636 
L 217.241073 -41.563636 
L 216.911016 -41.563636 
L 216.580958 -41.563636 
L 216.250901 -41.563636 
L 215.920844 -41.563636 
L 215.590786 -41.563636 
L 215.260729 -41.563636 
L 214.930672 -41.563636 
L 214.600614 -41.563636 
L 214.270557 -41.563636 
L 213.9405 -41.563636 
L 213.610442 -41.563636 
L 213.280385 -41.563636 
L 212.950328 -41.563636 
L 212.62027 -41.563636 
L 212.290213 -41.563636 
L 211.960156 -41.563636 
L 211.630098 -41.563636 
L 211.300041 -41.563636 
L 210.969984 -41.563636 
L 210.639926 -41.563636 
L 210.309869 -41.563636 
L 209.979812 -41.563636 
L 209.649754 -41.563636 
L 209.319697 -41.563636 
L 208.98964 -41.563636 
L 208.659582 -41.563636 
L 208.329525 -41.563636 
L 207.999468 -41.563636 
L 207.66941 -41.563636 
L 207.339353 -41.563636 
L 207.009296 -41.563636 
L 206.679238 -41.563636 
L 206.349181 -41.563636 
L 206.019124 -41.563636 
L 205.689066 -41.563636 
L 205.359009 -41.563636 
L 205.028952 -41.563636 
L 204.698894 -41.563636 
L 204.368837 -41.563636 
L 204.03878 -41.563636 
L 203.708722 -41.563636 
L 203.378665 -41.563636 
L 203.048608 -41.563636 
L 202.71855 -41.563636 
L 202.388493 -41.563636 
L 202.058436 -41.563636 
L 201.728378 -41.563636 
L 201.398321 -41.563636 
L 201.068264 -41.563636 
L 200.738206 -41.563636 
L 200.408149 -41.563636 
L 200.078092 -41.563636 
L 199.748034 -41.563636 
L 199.417977 -41.563636 
L 199.08792 -41.563636 
L 198.757862 -41.563636 
L 198.427805 -41.563636 
L 198.097748 -41.563636 
L 197.76769 -41.563636 
L 197.437633 -41.563636 
L 197.107576 -41.563636 
L 196.777518 -41.563636 
L 196.447461 -41.563636 
L 196.117404 -41.563636 
L 195.787346 -41.563636 
L 195.457289 -41.563636 
L 195.127232 -41.563636 
L 194.797174 -41.563636 
L 194.467117 -41.563636 
L 194.13706 -41.563636 
L 193.807002 -41.563636 
L 193.476945 -41.563636 
L 193.146888 -41.563636 
L 192.81683 -41.563636 
L 192.486773 -41.563636 
L 192.156716 -41.563636 
L 191.826658 -41.563636 
L 191.496601 -41.563636 
L 191.166544 -41.563636 
L 190.836486 -41.563636 
L 190.506429 -41.563636 
L 190.176372 -41.563636 
L 189.846314 -41.563636 
L 189.516257 -41.563636 
L 189.1862 -41.563636 
L 188.856143 -41.563636 
L 188.526085 -41.563636 
L 188.196028 -41.563636 
L 187.865971 -41.563636 
L 187.535913 -41.563636 
L 187.205856 -41.563636 
L 186.875799 -41.563636 
L 186.545741 -41.563636 
L 186.215684 -41.563636 
L 185.885627 -41.563636 
L 185.555569 -41.563636 
L 185.225512 -41.563636 
L 184.895455 -41.563636 
L 184.565397 -41.563636 
L 184.23534 -41.563636 
L 183.905283 -41.563636 
L 183.575225 -41.563636 
L 183.245168 -41.563636 
L 182.915111 -41.563636 
L 182.585053 -41.563636 
L 182.254996 -41.563636 
L 181.924939 -41.563636 
L 181.594881 -41.563636 
L 181.264824 -41.563636 
L 180.934767 -41.563636 
L 180.604709 -41.563636 
L 180.274652 -41.563636 
L 179.944595 -41.563636 
L 179.614537 -41.563636 
L 179.28448 -41.563636 
L 178.954423 -41.563636 
L 178.624365 -41.563636 
L 178.294308 -41.563636 
L 177.964251 -41.563636 
L 177.634193 -41.563636 
L 177.304136 -41.563636 
L 176.974079 -41.563636 
L 176.644021 -41.563636 
L 176.313964 -41.563636 
L 175.983907 -41.563636 
L 175.653849 -41.563636 
L 175.323792 -41.563636 
L 174.993735 -41.563636 
L 174.663677 -41.563636 
L 174.33362 -41.563636 
L 174.003563 -41.563636 
L 173.673505 -41.563636 
L 173.343448 -41.563636 
L 173.013391 -41.563636 
L 172.683333 -41.563636 
L 172.353276 -41.563636 
L 172.023219 -41.563636 
L 171.693161 -41.563636 
L 171.363104 -41.563636 
L 171.033047 -41.563636 
L 170.702989 -41.563636 
L 170.372932 -41.563636 
L 170.042875 -41.563636 
L 169.712817 -41.563636 
L 169.38276 -41.563636 
L 169.052703 -41.563636 
L 168.722645 -41.563636 
L 168.392588 -41.563636 
L 168.062531 -41.563636 
L 167.732473 -41.563636 
L 167.402416 -41.563636 
L 167.072359 -41.563636 
L 166.742301 -41.563636 
L 166.412244 -41.563636 
L 166.082187 -41.563636 
L 165.752129 -41.563636 
L 165.422072 -41.563636 
L 165.092015 -41.563636 
L 164.761957 -41.563636 
L 164.4319 -41.563636 
L 164.101843 -41.563636 
L 163.771785 -41.563636 
L 163.441728 -41.563636 
L 163.111671 -41.563636 
L 162.781613 -41.563636 
L 162.451556 -41.563636 
L 162.121499 -41.563636 
L 161.791441 -41.563636 
L 161.461384 -41.563636 
L 161.131327 -41.563636 
L 160.801269 -41.563636 
L 160.471212 -41.563636 
L 160.141155 -41.563636 
L 159.811097 -41.563636 
L 159.48104 -41.563636 
L 159.150983 -41.563636 
L 158.820925 -41.563636 
L 158.490868 -41.563636 
L 158.160811 -41.563636 
L 157.830753 -41.563636 
L 157.500696 -41.563636 
L 157.170639 -41.563636 
L 156.840581 -41.563636 
L 156.510524 -41.563636 
L 156.180467 -41.563636 
L 155.85041 -41.563636 
L 155.520352 -41.563636 
L 155.190295 -41.563636 
L 154.860238 -41.563636 
L 154.53018 -41.563636 
L 154.200123 -41.563636 
L 153.870066 -41.563636 
L 153.540008 -41.563636 
L 153.209951 -41.563636 
L 152.879894 -41.563636 
L 152.549836 -41.563636 
L 152.219779 -41.563636 
L 151.889722 -41.563636 
L 151.559664 -41.563636 
L 151.229607 -41.563636 
L 150.89955 -41.563636 
L 150.569492 -41.563636 
L 150.239435 -41.563636 
L 149.909378 -41.563636 
L 149.57932 -41.563636 
L 149.249263 -41.563636 
L 148.919206 -41.563636 
L 148.589148 -41.563636 
L 148.259091 -41.563636 
L 147.929034 -41.563636 
L 147.598976 -41.563636 
L 147.268919 -41.563636 
L 146.938862 -41.563636 
L 146.608804 -41.563636 
L 146.278747 -41.563636 
L 145.94869 -41.563636 
L 145.618632 -41.563636 
L 145.288575 -41.563636 
L 144.958518 -41.563636 
L 144.62846 -41.563636 
L 144.298403 -41.563636 
L 143.968346 -41.563636 
L 143.638288 -41.563636 
L 143.308231 -41.563636 
L 142.978174 -41.563636 
L 142.648116 -41.563636 
L 142.318059 -41.563636 
L 141.988002 -41.563636 
L 141.657944 -41.563636 
L 141.327887 -41.563636 
L 140.99783 -41.563636 
L 140.667772 -41.563636 
L 140.337715 -41.563636 
L 140.007658 -41.563636 
L 139.6776 -41.563636 
L 139.347543 -41.563636 
L 139.017486 -41.563636 
L 138.687428 -41.563636 
L 138.357371 -41.563636 
L 138.027314 -41.563636 
L 137.697256 -41.563636 
L 137.367199 -41.563636 
L 137.037142 -41.563636 
L 136.707084 -41.563636 
L 136.377027 -41.563636 
L 136.04697 -41.563636 
L 135.716912 -41.563636 
L 135.386855 -41.563636 
L 135.056798 -41.563636 
L 134.72674 -41.563636 
L 134.396683 -41.563636 
L 134.066626 -41.563636 
L 133.736568 -41.563636 
L 133.406511 -41.563636 
L 133.076454 -41.563636 
L 132.746396 -41.563636 
L 132.416339 -41.563636 
L 132.086282 -41.563636 
L 131.756224 -41.563636 
L 131.426167 -41.563636 
L 131.09611 -41.563636 
L 130.766052 -41.563636 
L 130.435995 -41.563636 
L 130.105938 -41.563636 
L 129.77588 -41.563636 
L 129.445823 -41.563636 
L 129.115766 -41.563636 
L 128.785708 -41.563636 
L 128.455651 -41.563636 
L 128.125594 -41.563636 
L 127.795536 -41.563636 
L 127.465479 -41.563636 
L 127.135422 -41.563636 
L 126.805364 -41.563636 
L 126.475307 -41.563636 
L 126.14525 -41.563636 
L 125.815192 -41.563636 
L 125.485135 -41.563636 
L 125.155078 -41.563636 
L 124.82502 -41.563636 
L 124.494963 -41.563636 
L 124.164906 -41.563636 
L 123.834848 -41.563636 
L 123.504791 -41.563636 
L 123.174734 -41.563636 
L 122.844676 -41.563636 
L 122.514619 -41.563636 
L 122.184562 -41.563636 
L 121.854505 -41.563636 
L 121.524447 -41.563636 
L 121.19439 -41.563636 
L 120.864333 -41.563636 
L 120.534275 -41.563636 
L 120.204218 -41.563636 
L 119.874161 -41.563636 
L 119.544103 -41.563636 
L 119.214046 -41.563636 
L 118.883989 -41.563636 
L 118.553931 -41.563636 
L 118.223874 -41.563636 
L 117.893817 -41.563636 
L 117.563759 -41.563636 
L 117.233702 -41.563636 
L 116.903645 -41.563636 
L 116.573587 -41.563636 
L 116.24353 -41.563636 
L 115.913473 -41.563636 
L 115.583415 -41.563636 
L 115.253358 -41.563636 
L 114.923301 -41.563636 
L 114.593243 -41.563636 
L 114.263186 -41.563636 
L 113.933129 -41.563636 
L 113.603071 -41.563636 
L 113.273014 -41.563636 
L 112.942957 -41.563636 
L 112.612899 -41.563636 
L 112.282842 -41.563636 
L 111.952785 -41.563636 
L 111.622727 -41.563636 
L 111.29267 -41.563636 
L 110.962613 -41.563636 
L 110.632555 -41.563636 
L 110.302498 -41.563636 
L 109.972441 -41.563636 
L 109.642383 -41.563636 
L 109.312326 -41.563636 
L 108.982269 -41.563636 
L 108.652211 -41.563636 
L 108.322154 -41.563636 
L 107.992097 -41.563636 
L 107.662039 -41.563636 
L 107.331982 -41.563636 
L 107.001925 -41.563636 
L 106.671867 -41.563636 
L 106.34181 -41.563636 
L 106.011753 -41.563636 
L 105.681695 -41.563636 
L 105.351638 -41.563636 
L 105.021581 -41.563636 
L 104.691523 -41.563636 
L 104.361466 -41.563636 
L 104.031409 -41.563636 
L 103.701351 -41.563636 
L 103.371294 -41.563636 
L 103.041237 -41.563636 
L 102.711179 -41.563636 
L 102.381122 -41.563636 
L 102.051065 -41.563636 
L 101.721007 -41.563636 
L 101.39095 -41.563636 
L 101.060893 -41.563636 
L 100.730835 -41.563636 
L 100.400778 -41.563636 
L 100.070721 -41.563636 
L 99.740663 -41.563636 
L 99.410606 -41.563636 
L 99.080549 -41.563636 
L 98.750491 -41.563636 
L 98.420434 -41.563636 
L 98.090377 -41.563636 
L 97.760319 -41.563636 
L 97.430262 -41.563636 
L 97.100205 -41.563636 
L 96.770147 -41.563636 
L 96.44009 -41.563636 
L 96.110033 -41.563636 
L 95.779975 -41.563636 
L 95.449918 -41.563636 
L 95.119861 -41.563636 
L 94.789803 -41.563636 
L 94.459746 -41.563636 
L 94.129689 -41.563636 
L 93.799631 -41.563636 
L 93.469574 -41.563636 
L 93.139517 -41.563636 
L 92.809459 -41.563636 
L 92.479402 -41.563636 
L 92.149345 -41.563636 
L 91.819287 -41.563636 
L 91.48923 -41.563636 
L 91.159173 -41.563636 
L 90.829115 -41.563636 
L 90.499058 -41.563636 
L 90.169001 -41.563636 
L 89.838943 -41.563636 
L 89.508886 -41.563636 
L 89.178829 -41.563636 
L 88.848771 -41.563636 
L 88.518714 -41.563636 
L 88.188657 -41.563636 
L 87.8586 -41.563636 
L 87.528542 -41.563636 
L 87.198485 -41.563636 
L 86.868428 -41.563636 
L 86.53837 -41.563636 
L 86.208313 -41.563636 
L 85.878256 -41.563636 
L 85.548198 -41.563636 
L 85.218141 -41.563636 
L 84.888084 -41.563636 
L 84.558026 -41.563636 
L 84.227969 -41.563636 
L 83.897912 -41.563636 
L 83.567854 -41.563636 
L 83.237797 -41.563636 
L 82.90774 -41.563636 
L 82.577682 -41.563636 
L 82.247625 -41.563636 
L 81.917568 -41.563636 
L 81.58751 -41.563636 
L 81.257453 -41.563636 
L 80.927396 -41.563636 
L 80.597338 -41.563636 
L 80.267281 -41.563636 
L 79.937224 -41.563636 
L 79.607166 -41.563636 
L 79.277109 -41.563636 
L 78.947052 -41.563636 
L 78.616994 -41.563636 
L 78.286937 -41.563636 
L 77.95688 -41.563636 
L 77.626822 -41.563636 
L 77.296765 -41.563636 
L 76.966708 -41.563636 
L 76.63665 -41.563636 
L 76.306593 -41.563636 
L 75.976536 -41.563636 
L 75.646478 -41.563636 
L 75.316421 -41.563636 
L 74.986364 -41.563636 
z
" style="stroke: #000000; stroke-opacity: 0.1; stroke-width: 0.5"/>
    </defs>
    <g clip-path="url(#p61db6e9051)">
     <use xlink:href="#m3be9bff0dc" x="0" y="180" style="fill-opacity: 0.1; stroke: #000000; stroke-opacity: 0.1; stroke-width: 0.5"/>
    </g>
   </g>
   <g id="line2d_23">
    <path d="M 74.986364 138.436364 
L 81.257453 119.571951 
L 81.58751 119.300235 
L 97.760319 119.284369 
L 170.042875 58.638169 
L 190.836486 44.378603 
L 197.76769 43.815505 
L 404.713636 27.163636 
L 404.713636 27.163636 
" clip-path="url(#p61db6e9051)" style="fill: none; stroke: #000000; stroke-width: 0.7; stroke-linecap: square"/>
   </g>
   <g id="line2d_24">
    <path d="M 74.986364 138.436364 
L 81.257453 119.571951 
L 81.58751 119.300235 
L 89.508886 119.300235 
L 90.169001 118.81675 
L 161.791441 58.70953 
L 182.915111 44.355679 
L 404.713636 27.163636 
L 404.713636 27.163636 
" clip-path="url(#p61db6e9051)" style="fill: none; stroke-dasharray: 2.59,1.12; stroke-dashoffset: 0; stroke: #000000; stroke-width: 0.7"/>
   </g>
   <g id="patch_3">
    <path d="M 58.5 144 
L 58.5 21.6 
" style="fill: none; stroke: #000000; stroke-width: 0.5; stroke-linejoin: miter; stroke-linecap: square"/>
   </g>
   <g id="patch_4">
    <path d="M 58.5 144 
L 421.2 144 
" style="fill: none; stroke: #000000; stroke-width: 0.5; stroke-linejoin: miter; stroke-linecap: square"/>
   </g>
  </g>
 </g>
 <defs>
  <clipPath id="p61db6e9051">
   <rect x="58.5" y="21.6" width="362.7" height="122.4"/>
  </clipPath>
 </defs>
</svg>
