<?xml version="1.0" encoding="utf-8" standalone="no"?>
<!DOCTYPE svg PUBLIC "-//W3C//DTD SVG 1.1//EN"
  "http://www.w3.org/Graphics/SVG/1.1/DTD/svg11.dtd">
<svg xmlns:xlink="http://www.w3.org/1999/xlink" width="468pt" height="180pt" viewBox="0 0 468 180" xmlns="http://www.w3.org/2000/svg" version="1.1">
 <metadata>
  <rdf:RDF xmlns:dc="http://purl.org/dc/elements/1.1/" xmlns:cc="http://creativecommons.org/ns#" xmlns:rdf="http://www.w3.org/1999/02/22-rdf-syntax-ns#">
   <cc:Work>
    <dc:type rdf:resource="http://purl.org/dc/dcmitype/StillImage"/>
    <dc:date>2024-04-30T13:54:57.749700</dc:date>
    <dc:format>image/svg+xml</dc:format>
    <dc:creator>
     <cc:Agent>
      <dc:title>Matplotlib v3.8.3, https://matplotlib.org/</dc:title>
     </cc:Agent>
    </dc:creator>
   </cc:Work>
  </rdf:RDF>
 </metadata>
 <defs>
  <style type="text/css">*{stroke-linejoin: round; stroke-linecap: butt}</style>
 </defs>
 <g id="figure_1">
  <g id="patch_1">
   <path d="M 0 180 
L 468 180 
L 468 0 
L 0 0 
z
" style="fill: #ffffff"/>
  </g>
  <g id="axes_1">
   <g id="patch_2">
    <path d="M 58.5 144 
L 421.2 144 
L 421.2 21.6 
L 58.5 21.6 
z
" style="fill: #ffffff"/>
   </g>
   <g id="matplotlib.axis_1">
    <g id="xtick_1">
     <g id="line2d_1">
      <path d="M 74.986364 144 
L 74.986364 21.6 
" clip-path="url(#pbf1121d618)" style="fill: none; stroke: #d3d3d3; stroke-width: 0.2; stroke-linecap: square"/>
     </g>
     <g id="line2d_2">
      <defs>
       <path id="m7b0d8d4630" d="M 0 0 
L 0 -3.5 
" style="stroke: #000000; stroke-width: 0.8"/>
      </defs>
      <g>
       <use xlink:href="#m7b0d8d4630" x="74.986364" y="144" style="stroke: #000000; stroke-width: 0.8"/>
      </g>
     </g>
     <g id="text_1">
      <!-- $\mathdefault{0.00}$ -->
      <g transform="translate(66.130657 154.418498) scale(0.1 -0.1)">
       <defs>
        <path id="CMR17-30" d="M 2688 2025 
C 2688 2416 2682 3080 2413 3591 
C 2176 4039 1798 4198 1466 4198 
C 1158 4198 768 4058 525 3597 
C 269 3118 243 2524 243 2025 
C 243 1661 250 1106 448 619 
C 723 -39 1216 -128 1466 -128 
C 1760 -128 2208 -7 2470 600 
C 2662 1042 2688 1559 2688 2025 
z
M 1466 -26 
C 1056 -26 813 325 723 812 
C 653 1188 653 1738 653 2096 
C 653 2588 653 2997 736 3387 
C 858 3929 1216 4096 1466 4096 
C 1728 4096 2067 3923 2189 3400 
C 2272 3036 2278 2607 2278 2096 
C 2278 1680 2278 1169 2202 792 
C 2067 95 1690 -26 1466 -26 
z
" transform="scale(0.015625)"/>
        <path id="CMMI12-3a" d="M 1178 307 
C 1178 492 1024 619 870 619 
C 685 619 557 466 557 313 
C 557 128 710 0 864 0 
C 1050 0 1178 153 1178 307 
z
" transform="scale(0.015625)"/>
       </defs>
       <use xlink:href="#CMR17-30" transform="scale(0.996264)"/>
       <use xlink:href="#CMMI12-3a" transform="translate(45.690477 0) scale(0.996264)"/>
       <use xlink:href="#CMR17-30" transform="translate(72.787654 0) scale(0.996264)"/>
       <use xlink:href="#CMR17-30" transform="translate(118.478131 0) scale(0.996264)"/>
      </g>
     </g>
    </g>
    <g id="xtick_2">
     <g id="line2d_3">
      <path d="M 142.717284 144 
L 142.717284 21.6 
" clip-path="url(#pbf1121d618)" style="fill: none; stroke: #d3d3d3; stroke-width: 0.2; stroke-linecap: square"/>
     </g>
     <g id="line2d_4">
      <g>
       <use xlink:href="#m7b0d8d4630" x="142.717284" y="144" style="stroke: #000000; stroke-width: 0.8"/>
      </g>
     </g>
     <g id="text_2">
      <!-- $\mathdefault{0.02}$ -->
      <g transform="translate(133.861577 154.418498) scale(0.1 -0.1)">
       <defs>
        <path id="CMR17-32" d="M 2669 989 
L 2554 989 
C 2490 536 2438 459 2413 420 
C 2381 369 1920 369 1830 369 
L 602 369 
C 832 619 1280 1072 1824 1597 
C 2214 1967 2669 2402 2669 3035 
C 2669 3790 2067 4224 1395 4224 
C 691 4224 262 3604 262 3030 
C 262 2780 448 2748 525 2748 
C 589 2748 781 2787 781 3010 
C 781 3207 614 3264 525 3264 
C 486 3264 448 3258 422 3245 
C 544 3790 915 4058 1306 4058 
C 1862 4058 2227 3617 2227 3035 
C 2227 2479 1901 2000 1536 1584 
L 262 146 
L 262 0 
L 2515 0 
L 2669 989 
z
" transform="scale(0.015625)"/>
       </defs>
       <use xlink:href="#CMR17-30" transform="scale(0.996264)"/>
       <use xlink:href="#CMMI12-3a" transform="translate(45.690477 0) scale(0.996264)"/>
       <use xlink:href="#CMR17-30" transform="translate(72.787654 0) scale(0.996264)"/>
       <use xlink:href="#CMR17-32" transform="translate(118.478131 0) scale(0.996264)"/>
      </g>
     </g>
    </g>
    <g id="xtick_3">
     <g id="line2d_5">
      <path d="M 210.448204 144 
L 210.448204 21.6 
" clip-path="url(#pbf1121d618)" style="fill: none; stroke: #d3d3d3; stroke-width: 0.2; stroke-linecap: square"/>
     </g>
     <g id="line2d_6">
      <g>
       <use xlink:href="#m7b0d8d4630" x="210.448204" y="144" style="stroke: #000000; stroke-width: 0.8"/>
      </g>
     </g>
     <g id="text_3">
      <!-- $\mathdefault{0.04}$ -->
      <g transform="translate(201.592497 154.418498) scale(0.1 -0.1)">
       <defs>
        <path id="CMR17-34" d="M 2150 4122 
C 2150 4256 2144 4256 2029 4256 
L 128 1254 
L 128 1088 
L 1779 1088 
L 1779 457 
C 1779 224 1766 160 1318 160 
L 1197 160 
L 1197 0 
C 1402 0 1747 0 1965 0 
C 2182 0 2528 0 2733 0 
L 2733 160 
L 2611 160 
C 2163 160 2150 224 2150 457 
L 2150 1088 
L 2803 1088 
L 2803 1254 
L 2150 1254 
L 2150 4122 
z
M 1798 3703 
L 1798 1254 
L 256 1254 
L 1798 3703 
z
" transform="scale(0.015625)"/>
       </defs>
       <use xlink:href="#CMR17-30" transform="scale(0.996264)"/>
       <use xlink:href="#CMMI12-3a" transform="translate(45.690477 0) scale(0.996264)"/>
       <use xlink:href="#CMR17-30" transform="translate(72.787654 0) scale(0.996264)"/>
       <use xlink:href="#CMR17-34" transform="translate(118.478131 0) scale(0.996264)"/>
      </g>
     </g>
    </g>
    <g id="xtick_4">
     <g id="line2d_7">
      <path d="M 278.179125 144 
L 278.179125 21.6 
" clip-path="url(#pbf1121d618)" style="fill: none; stroke: #d3d3d3; stroke-width: 0.2; stroke-linecap: square"/>
     </g>
     <g id="line2d_8">
      <g>
       <use xlink:href="#m7b0d8d4630" x="278.179125" y="144" style="stroke: #000000; stroke-width: 0.8"/>
      </g>
     </g>
     <g id="text_4">
      <!-- $\mathdefault{0.06}$ -->
      <g transform="translate(269.323418 154.418498) scale(0.1 -0.1)">
       <defs>
        <path id="CMR17-36" d="M 678 2176 
C 678 3690 1395 4032 1811 4032 
C 1946 4032 2272 4009 2400 3776 
C 2298 3776 2106 3776 2106 3553 
C 2106 3381 2246 3323 2336 3323 
C 2394 3323 2566 3348 2566 3560 
C 2566 3954 2246 4179 1805 4179 
C 1043 4179 243 3390 243 1984 
C 243 253 966 -128 1478 -128 
C 2099 -128 2688 427 2688 1283 
C 2688 2081 2170 2662 1517 2662 
C 1126 2662 838 2407 678 1960 
L 678 2176 
z
M 1478 25 
C 691 25 691 1200 691 1436 
C 691 1896 909 2560 1504 2560 
C 1613 2560 1926 2560 2138 2120 
C 2253 1870 2253 1609 2253 1289 
C 2253 944 2253 690 2118 434 
C 1978 171 1773 25 1478 25 
z
" transform="scale(0.015625)"/>
       </defs>
       <use xlink:href="#CMR17-30" transform="scale(0.996264)"/>
       <use xlink:href="#CMMI12-3a" transform="translate(45.690477 0) scale(0.996264)"/>
       <use xlink:href="#CMR17-30" transform="translate(72.787654 0) scale(0.996264)"/>
       <use xlink:href="#CMR17-36" transform="translate(118.478131 0) scale(0.996264)"/>
      </g>
     </g>
    </g>
    <g id="xtick_5">
     <g id="line2d_9">
      <path d="M 345.910045 144 
L 345.910045 21.6 
" clip-path="url(#pbf1121d618)" style="fill: none; stroke: #d3d3d3; stroke-width: 0.2; stroke-linecap: square"/>
     </g>
     <g id="line2d_10">
      <g>
       <use xlink:href="#m7b0d8d4630" x="345.910045" y="144" style="stroke: #000000; stroke-width: 0.8"/>
      </g>
     </g>
     <g id="text_5">
      <!-- $\mathdefault{0.08}$ -->
      <g transform="translate(337.054338 154.418498) scale(0.1 -0.1)">
       <defs>
        <path id="CMR17-38" d="M 1741 2264 
C 2144 2467 2554 2773 2554 3263 
C 2554 3841 1990 4179 1472 4179 
C 890 4179 378 3759 378 3180 
C 378 3021 416 2747 666 2505 
C 730 2442 998 2251 1171 2130 
C 883 1983 211 1634 211 934 
C 211 279 838 -128 1459 -128 
C 2144 -128 2720 362 2720 1010 
C 2720 1590 2330 1857 2074 2029 
L 1741 2264 
z
M 902 2822 
C 851 2854 595 3051 595 3351 
C 595 3739 998 4032 1459 4032 
C 1965 4032 2336 3676 2336 3262 
C 2336 2669 1670 2331 1638 2331 
C 1632 2331 1626 2331 1574 2370 
L 902 2822 
z
M 2080 1519 
C 2176 1449 2483 1240 2483 851 
C 2483 381 2010 25 1472 25 
C 890 25 448 438 448 940 
C 448 1443 838 1862 1280 2060 
L 2080 1519 
z
" transform="scale(0.015625)"/>
       </defs>
       <use xlink:href="#CMR17-30" transform="scale(0.996264)"/>
       <use xlink:href="#CMMI12-3a" transform="translate(45.690477 0) scale(0.996264)"/>
       <use xlink:href="#CMR17-30" transform="translate(72.787654 0) scale(0.996264)"/>
       <use xlink:href="#CMR17-38" transform="translate(118.478131 0) scale(0.996264)"/>
      </g>
     </g>
    </g>
    <g id="xtick_6">
     <g id="line2d_11">
      <path d="M 413.640965 144 
L 413.640965 21.6 
" clip-path="url(#pbf1121d618)" style="fill: none; stroke: #d3d3d3; stroke-width: 0.2; stroke-linecap: square"/>
     </g>
     <g id="line2d_12">
      <g>
       <use xlink:href="#m7b0d8d4630" x="413.640965" y="144" style="stroke: #000000; stroke-width: 0.8"/>
      </g>
     </g>
     <g id="text_6">
      <!-- $\mathdefault{0.10}$ -->
      <g transform="translate(404.785258 154.418498) scale(0.1 -0.1)">
       <defs>
        <path id="CMR17-31" d="M 1702 4058 
C 1702 4192 1696 4192 1606 4192 
C 1357 3916 979 3827 621 3827 
C 602 3827 570 3827 563 3808 
C 557 3795 557 3782 557 3648 
C 755 3648 1088 3686 1344 3839 
L 1344 461 
C 1344 236 1331 160 781 160 
L 589 160 
L 589 0 
C 896 0 1216 0 1523 0 
C 1830 0 2150 0 2458 0 
L 2458 160 
L 2266 160 
C 1715 160 1702 230 1702 458 
L 1702 4058 
z
" transform="scale(0.015625)"/>
       </defs>
       <use xlink:href="#CMR17-30" transform="scale(0.996264)"/>
       <use xlink:href="#CMMI12-3a" transform="translate(45.690477 0) scale(0.996264)"/>
       <use xlink:href="#CMR17-31" transform="translate(72.787654 0) scale(0.996264)"/>
       <use xlink:href="#CMR17-30" transform="translate(118.478131 0) scale(0.996264)"/>
      </g>
     </g>
    </g>
    <g id="text_7">
     <!-- $\chi$ [1/m] -->
     <g transform="translate(220.250084 169.322053) scale(0.12 -0.12)">
      <defs>
       <path id="CMMI12-1f" d="M 2112 1039 
C 1939 1566 1978 1515 1818 1959 
C 1619 2505 1568 2550 1478 2639 
C 1363 2740 1146 2816 922 2816 
C 563 2816 390 2486 390 2403 
C 390 2365 422 2346 461 2346 
C 512 2346 525 2378 531 2403 
C 627 2651 826 2689 883 2689 
C 1069 2689 1248 2232 1363 1928 
C 1517 1540 1594 1273 1766 657 
L 256 -1049 
C 198 -1119 198 -1144 198 -1151 
C 198 -1202 230 -1215 256 -1215 
C 282 -1215 301 -1202 320 -1183 
C 499 -1004 896 -533 1062 -342 
L 1805 499 
C 2118 -479 2118 -492 2214 -727 
C 2317 -968 2451 -1280 2995 -1280 
C 3360 -1280 3526 -955 3526 -866 
C 3526 -822 3488 -809 3456 -809 
C 3405 -809 3398 -835 3379 -886 
C 3309 -1063 3142 -1152 3040 -1152 
C 2957 -1152 2854 -1152 2573 -447 
C 2406 -21 2259 486 2150 880 
L 3667 2594 
C 3718 2652 3725 2658 3725 2683 
C 3725 2727 3693 2746 3661 2746 
C 3642 2746 3622 2746 3558 2677 
L 2112 1039 
z
" transform="scale(0.015625)"/>
       <path id="CMR17-5b" d="M 1504 -1600 
L 1504 -1377 
L 902 -1377 
L 902 4544 
L 1504 4544 
L 1504 4767 
L 678 4767 
L 678 -1600 
L 1504 -1600 
z
" transform="scale(0.015625)"/>
       <path id="CMR17-2f" d="M 2605 4545 
C 2637 4627 2637 4640 2637 4653 
C 2637 4729 2579 4768 2528 4768 
C 2451 4768 2426 4717 2400 4640 
L 326 -1377 
C 294 -1460 294 -1473 294 -1486 
C 294 -1562 352 -1600 403 -1600 
C 480 -1600 506 -1549 531 -1473 
L 2605 4545 
z
" transform="scale(0.015625)"/>
       <path id="CMR17-6d" d="M 4326 1933 
C 4326 2252 4269 2790 3507 2790 
C 3072 2790 2771 2496 2656 2151 
L 2650 2151 
C 2573 2676 2195 2790 1837 2790 
C 1331 2790 1069 2400 973 2144 
L 966 2144 
L 966 2790 
L 211 2720 
L 211 2554 
C 589 2554 646 2515 646 2208 
L 646 428 
C 646 184 621 153 211 153 
L 211 -13 
C 365 0 646 0 813 0 
C 979 0 1267 0 1421 -13 
L 1421 153 
C 1011 153 986 178 986 428 
L 986 1658 
C 986 2247 1344 2688 1792 2688 
C 2266 2688 2317 2266 2317 1958 
L 2317 428 
C 2317 184 2291 153 1882 153 
L 1882 -13 
C 2035 0 2317 0 2483 0 
C 2650 0 2938 0 3091 -13 
L 3091 153 
C 2682 153 2656 178 2656 428 
L 2656 1658 
C 2656 2247 3014 2688 3462 2688 
C 3936 2688 3987 2266 3987 1958 
L 3987 428 
C 3987 184 3962 153 3552 153 
L 3552 -13 
C 3706 0 3987 0 4154 0 
C 4320 0 4608 0 4762 -13 
L 4762 153 
C 4352 153 4326 178 4326 428 
L 4326 1933 
z
" transform="scale(0.015625)"/>
       <path id="CMR17-5d" d="M 915 4767 
L 90 4767 
L 90 4544 
L 691 4544 
L 691 -1377 
L 90 -1377 
L 90 -1600 
L 915 -1600 
L 915 4767 
z
" transform="scale(0.015625)"/>
      </defs>
      <use xlink:href="#CMMI12-1f" transform="scale(0.996264)"/>
      <use xlink:href="#CMR17-5b" transform="translate(91.188925 0) scale(0.996264)"/>
      <use xlink:href="#CMR17-31" transform="translate(116.059984 0) scale(0.996264)"/>
      <use xlink:href="#CMR17-2f" transform="translate(161.750461 0) scale(0.996264)"/>
      <use xlink:href="#CMR17-6d" transform="translate(207.440938 0) scale(0.996264)"/>
      <use xlink:href="#CMR17-5d" transform="translate(284.360528 0) scale(0.996264)"/>
     </g>
    </g>
   </g>
   <g id="matplotlib.axis_2">
    <g id="ytick_1">
     <g id="line2d_13">
      <path d="M 58.5 138.436364 
L 421.2 138.436364 
" clip-path="url(#pbf1121d618)" style="fill: none; stroke: #d3d3d3; stroke-width: 0.2; stroke-linecap: square"/>
     </g>
     <g id="line2d_14">
      <defs>
       <path id="me4b82b0796" d="M 0 0 
L 3.5 0 
" style="stroke: #000000; stroke-width: 0.8"/>
      </defs>
      <g>
       <use xlink:href="#me4b82b0796" x="58.5" y="138.436364" style="stroke: #000000; stroke-width: 0.8"/>
      </g>
     </g>
     <g id="text_8">
      <!-- $\mathdefault{0}$ -->
      <g transform="translate(50.018665 141.895613) scale(0.1 -0.1)">
       <use xlink:href="#CMR17-30" transform="scale(0.996264)"/>
      </g>
     </g>
    </g>
    <g id="ytick_2">
     <g id="line2d_15">
      <path d="M 58.5 110.596984 
L 421.2 110.596984 
" clip-path="url(#pbf1121d618)" style="fill: none; stroke: #d3d3d3; stroke-width: 0.2; stroke-linecap: square"/>
     </g>
     <g id="line2d_16">
      <g>
       <use xlink:href="#me4b82b0796" x="58.5" y="110.596984" style="stroke: #000000; stroke-width: 0.8"/>
      </g>
     </g>
     <g id="text_9">
      <!-- $\mathdefault{50}$ -->
      <g transform="translate(45.037329 114.056233) scale(0.1 -0.1)">
       <defs>
        <path id="CMR17-35" d="M 730 3692 
C 794 3666 1056 3584 1325 3584 
C 1920 3584 2246 3911 2432 4100 
C 2432 4157 2432 4192 2394 4192 
C 2387 4192 2374 4192 2323 4163 
C 2099 4058 1837 3973 1517 3973 
C 1325 3973 1037 3999 723 4139 
C 653 4171 640 4171 634 4171 
C 602 4171 595 4164 595 4037 
L 595 2203 
C 595 2089 595 2057 659 2057 
C 691 2057 704 2070 736 2114 
C 941 2401 1222 2522 1542 2522 
C 1766 2522 2246 2382 2246 1289 
C 2246 1085 2246 715 2054 421 
C 1894 159 1645 25 1370 25 
C 947 25 518 320 403 814 
C 429 807 480 795 506 795 
C 589 795 749 840 749 1038 
C 749 1210 627 1280 506 1280 
C 358 1280 262 1190 262 1011 
C 262 454 704 -128 1382 -128 
C 2042 -128 2669 440 2669 1264 
C 2669 2030 2170 2624 1549 2624 
C 1222 2624 947 2503 730 2274 
L 730 3692 
z
" transform="scale(0.015625)"/>
       </defs>
       <use xlink:href="#CMR17-35" transform="scale(0.996264)"/>
       <use xlink:href="#CMR17-30" transform="translate(45.690477 0) scale(0.996264)"/>
      </g>
     </g>
    </g>
    <g id="ytick_3">
     <g id="line2d_17">
      <path d="M 58.5 82.757604 
L 421.2 82.757604 
" clip-path="url(#pbf1121d618)" style="fill: none; stroke: #d3d3d3; stroke-width: 0.2; stroke-linecap: square"/>
     </g>
     <g id="line2d_18">
      <g>
       <use xlink:href="#me4b82b0796" x="58.5" y="82.757604" style="stroke: #000000; stroke-width: 0.8"/>
      </g>
     </g>
     <g id="text_10">
      <!-- $\mathdefault{100}$ -->
      <g transform="translate(40.055994 86.216854) scale(0.1 -0.1)">
       <use xlink:href="#CMR17-31" transform="scale(0.996264)"/>
       <use xlink:href="#CMR17-30" transform="translate(45.690477 0) scale(0.996264)"/>
       <use xlink:href="#CMR17-30" transform="translate(91.380954 0) scale(0.996264)"/>
      </g>
     </g>
    </g>
    <g id="ytick_4">
     <g id="line2d_19">
      <path d="M 58.5 54.918225 
L 421.2 54.918225 
" clip-path="url(#pbf1121d618)" style="fill: none; stroke: #d3d3d3; stroke-width: 0.2; stroke-linecap: square"/>
     </g>
     <g id="line2d_20">
      <g>
       <use xlink:href="#me4b82b0796" x="58.5" y="54.918225" style="stroke: #000000; stroke-width: 0.8"/>
      </g>
     </g>
     <g id="text_11">
      <!-- $\mathdefault{150}$ -->
      <g transform="translate(40.055994 58.377474) scale(0.1 -0.1)">
       <use xlink:href="#CMR17-31" transform="scale(0.996264)"/>
       <use xlink:href="#CMR17-35" transform="translate(45.690477 0) scale(0.996264)"/>
       <use xlink:href="#CMR17-30" transform="translate(91.380954 0) scale(0.996264)"/>
      </g>
     </g>
    </g>
    <g id="ytick_5">
     <g id="line2d_21">
      <path d="M 58.5 27.078845 
L 421.2 27.078845 
" clip-path="url(#pbf1121d618)" style="fill: none; stroke: #d3d3d3; stroke-width: 0.2; stroke-linecap: square"/>
     </g>
     <g id="line2d_22">
      <g>
       <use xlink:href="#me4b82b0796" x="58.5" y="27.078845" style="stroke: #000000; stroke-width: 0.8"/>
      </g>
     </g>
     <g id="text_12">
      <!-- $\mathdefault{200}$ -->
      <g transform="translate(40.055994 30.538094) scale(0.1 -0.1)">
       <use xlink:href="#CMR17-32" transform="scale(0.996264)"/>
       <use xlink:href="#CMR17-30" transform="translate(45.690477 0) scale(0.996264)"/>
       <use xlink:href="#CMR17-30" transform="translate(91.380954 0) scale(0.996264)"/>
      </g>
     </g>
    </g>
    <g id="text_13">
     <!-- $M$ [kNm] -->
     <g transform="translate(33.067202 106.643699) rotate(-90) scale(0.12 -0.12)">
      <defs>
       <path id="CMMI12-4d" d="M 5811 3886 
C 5869 4103 5882 4167 6336 4167 
C 6458 4167 6515 4167 6515 4288 
C 6515 4352 6470 4352 6349 4352 
L 5581 4352 
C 5421 4352 5414 4346 5344 4243 
L 3008 562 
L 2528 4211 
C 2509 4352 2502 4352 2336 4352 
L 1542 4352 
C 1421 4352 1363 4352 1363 4231 
C 1363 4167 1421 4167 1517 4167 
C 1907 4167 1907 4116 1907 4046 
C 1907 4034 1907 3995 1882 3899 
L 1062 634 
C 986 327 838 186 410 186 
C 390 186 314 186 314 73 
C 314 0 371 0 397 0 
C 525 0 851 0 979 0 
L 1286 0 
C 1376 0 1485 0 1574 0 
C 1619 0 1690 0 1690 122 
C 1690 180 1626 186 1600 186 
C 1389 186 1184 224 1184 454 
C 1184 518 1184 524 1210 613 
L 2093 4129 
L 2099 4129 
L 2630 172 
C 2650 19 2656 0 2714 0 
C 2784 0 2816 51 2848 109 
L 5421 4161 
L 5427 4161 
L 4499 473 
C 4442 250 4429 186 3981 186 
C 3859 186 3795 186 3795 70 
C 3795 0 3853 0 3891 0 
C 4000 0 4128 0 4237 0 
L 4992 0 
C 5101 0 5235 0 5344 0 
C 5395 0 5466 0 5466 122 
C 5466 186 5408 186 5312 186 
C 4922 186 4922 234 4922 294 
C 4922 301 4922 345 4934 396 
L 5811 3886 
z
" transform="scale(0.015625)"/>
       <path id="CMR17-6b" d="M 1670 1673 
C 1664 1686 1632 1724 1632 1743 
C 1632 1756 2086 2171 2144 2222 
C 2509 2528 2739 2560 2906 2560 
L 2906 2733 
C 2867 2733 2854 2733 2848 2720 
L 2534 2720 
C 2355 2720 2080 2720 1907 2733 
L 1907 2566 
C 1997 2559 2061 2508 2061 2419 
C 2061 2291 1933 2170 1926 2170 
L 960 1289 
L 960 4396 
L 198 4326 
L 198 4160 
C 576 4160 634 4122 634 3817 
L 634 426 
C 634 184 608 153 198 153 
L 198 -13 
C 352 0 634 0 794 0 
C 954 0 1235 0 1389 -13 
L 1389 153 
C 979 153 954 178 954 428 
L 954 1130 
L 1395 1532 
L 2042 574 
C 2118 459 2182 369 2182 286 
C 2182 172 2067 153 1990 153 
L 1990 -13 
C 2144 0 2419 0 2579 0 
C 2694 0 2931 0 3040 0 
L 3040 153 
C 2739 153 2669 210 2477 491 
L 1670 1673 
z
" transform="scale(0.015625)"/>
       <path id="CMR17-4e" d="M 1312 4250 
C 1267 4320 1261 4320 1139 4320 
L 326 4320 
L 326 4160 
L 448 4160 
C 704 4160 819 4129 838 4122 
L 838 610 
C 838 451 838 153 326 153 
L 326 -13 
C 474 0 742 0 902 0 
C 1062 0 1331 0 1478 -13 
L 1478 153 
C 966 153 966 451 966 610 
L 966 4033 
C 1011 3995 1011 3982 1056 3919 
L 3430 76 
C 3475 0 3494 0 3526 0 
C 3590 0 3590 19 3590 139 
L 3590 3705 
C 3590 3863 3590 4160 4102 4160 
L 4102 4326 
C 3955 4320 3686 4320 3526 4320 
C 3366 4320 3098 4320 2950 4326 
L 2950 4160 
C 3462 4160 3462 3862 3462 3703 
L 3462 763 
L 1312 4250 
z
" transform="scale(0.015625)"/>
      </defs>
      <use xlink:href="#CMMI12-4d" transform="scale(0.996264)"/>
      <use xlink:href="#CMR17-5b" transform="translate(134.856045 0) scale(0.996264)"/>
      <use xlink:href="#CMR17-6b" transform="translate(159.727104 0) scale(0.996264)"/>
      <use xlink:href="#CMR17-4e" transform="translate(208.02002 0) scale(0.996264)"/>
      <use xlink:href="#CMR17-6d" transform="translate(277.092449 0) scale(0.996264)"/>
      <use xlink:href="#CMR17-5d" transform="translate(354.012039 0) scale(0.996264)"/>
     </g>
    </g>
   </g>
   <g id="PolyCollection_1">
    <defs>
     <path id="m544a295dbc" d="M 74.986364 -41.563636 
L 74.986364 -41.563636 
L 75.316421 -42.760865 
L 75.646478 -43.958094 
L 75.976536 -45.155322 
L 76.306593 -46.352551 
L 76.63665 -47.549779 
L 76.966708 -48.747008 
L 77.296765 -49.944236 
L 77.626822 -51.141465 
L 77.95688 -52.338694 
L 78.286937 -53.535922 
L 78.616994 -54.733151 
L 78.947052 -55.836252 
L 79.277109 -55.836252 
L 79.607166 -55.836252 
L 79.937224 -55.836252 
L 80.267281 -55.836252 
L 80.597338 -55.836252 
L 80.927396 -55.836252 
L 81.257453 -55.836252 
L 81.58751 -55.836252 
L 81.917568 -55.836252 
L 82.247625 -55.836252 
L 82.577682 -55.836252 
L 82.90774 -55.836252 
L 83.237797 -55.836252 
L 83.567854 -55.836252 
L 83.897912 -55.836252 
L 84.227969 -55.836252 
L 84.558026 -55.836252 
L 84.888084 -55.836252 
L 85.218141 -55.836252 
L 85.548198 -55.836252 
L 85.878256 -55.836252 
L 86.208313 -55.836252 
L 86.53837 -55.836252 
L 86.868428 -55.836252 
L 87.198485 -55.836252 
L 87.528542 -55.836252 
L 87.8586 -56.174462 
L 88.188657 -56.549098 
L 88.518714 -56.923735 
L 88.848771 -57.298372 
L 89.178829 -57.673008 
L 89.508886 -58.047645 
L 89.838943 -58.422281 
L 90.169001 -58.796918 
L 90.499058 -59.171554 
L 90.829115 -59.546191 
L 91.159173 -59.920827 
L 91.48923 -60.295464 
L 91.819287 -60.670101 
L 92.149345 -61.044737 
L 92.479402 -61.419374 
L 92.809459 -61.79401 
L 93.139517 -62.168647 
L 93.469574 -62.543283 
L 93.799631 -62.91792 
L 94.129689 -63.292556 
L 94.459746 -63.667193 
L 94.789803 -64.04183 
L 95.119861 -64.416466 
L 95.449918 -64.791103 
L 95.779975 -65.165739 
L 96.110033 -65.540376 
L 96.44009 -65.915012 
L 96.770147 -66.289649 
L 97.100205 -66.664285 
L 97.430262 -67.038922 
L 97.760319 -67.413559 
L 98.090377 -67.788195 
L 98.420434 -68.162832 
L 98.750491 -68.537468 
L 99.080549 -68.912105 
L 99.410606 -69.286741 
L 99.740663 -69.661378 
L 100.070721 -70.036014 
L 100.400778 -70.410651 
L 100.730835 -70.785288 
L 101.060893 -71.159924 
L 101.39095 -71.534561 
L 101.721007 -71.909197 
L 102.051065 -72.283834 
L 102.381122 -72.65847 
L 102.711179 -73.033107 
L 103.041237 -73.407743 
L 103.371294 -73.78238 
L 103.701351 -74.157016 
L 104.031409 -74.531653 
L 104.361466 -74.90629 
L 104.691523 -75.280926 
L 105.021581 -75.655563 
L 105.351638 -76.030199 
L 105.681695 -76.404836 
L 106.011753 -76.779472 
L 106.34181 -77.154109 
L 106.671867 -77.528745 
L 107.001925 -77.903382 
L 107.331982 -78.278019 
L 107.662039 -78.652655 
L 107.992097 -79.027292 
L 108.322154 -79.401928 
L 108.652211 -79.776565 
L 108.982269 -80.151201 
L 109.312326 -80.525838 
L 109.642383 -80.900474 
L 109.972441 -81.275111 
L 110.302498 -81.649748 
L 110.632555 -82.024384 
L 110.962613 -82.399021 
L 111.29267 -82.773657 
L 111.622727 -83.148294 
L 111.952785 -83.52293 
L 112.282842 -83.897567 
L 112.612899 -84.272203 
L 112.942957 -84.64684 
L 113.273014 -85.021477 
L 113.603071 -85.396113 
L 113.933129 -85.77075 
L 114.263186 -86.145386 
L 114.593243 -86.520023 
L 114.923301 -86.894659 
L 115.253358 -87.269296 
L 115.583415 -87.643932 
L 115.913473 -88.018569 
L 116.24353 -88.393206 
L 116.573587 -88.767842 
L 116.903645 -89.142479 
L 117.233702 -89.517115 
L 117.563759 -89.891752 
L 117.893817 -90.266388 
L 118.223874 -90.641025 
L 118.553931 -91.015661 
L 118.883989 -91.390298 
L 119.214046 -91.764934 
L 119.544103 -92.139571 
L 119.874161 -92.514208 
L 120.204218 -92.888844 
L 120.534275 -93.263481 
L 120.864333 -93.638117 
L 121.19439 -94.012754 
L 121.524447 -94.38739 
L 121.854505 -94.762027 
L 122.184562 -95.136663 
L 122.514619 -95.5113 
L 122.844676 -95.885937 
L 123.174734 -96.260573 
L 123.504791 -96.63521 
L 123.834848 -97.009846 
L 124.164906 -97.384483 
L 124.494963 -97.759119 
L 124.82502 -98.133756 
L 125.155078 -98.508392 
L 125.485135 -98.883029 
L 125.815192 -99.257666 
L 126.14525 -99.632302 
L 126.475307 -100.006939 
L 126.805364 -100.381575 
L 127.135422 -100.756212 
L 127.465479 -101.130848 
L 127.795536 -101.505485 
L 128.125594 -101.880121 
L 128.455651 -102.254758 
L 128.785708 -102.629395 
L 129.115766 -103.004031 
L 129.445823 -103.378668 
L 129.77588 -103.753304 
L 130.105938 -104.127941 
L 130.435995 -104.502577 
L 130.766052 -104.877214 
L 131.09611 -105.25185 
L 131.426167 -105.626487 
L 131.756224 -106.001124 
L 132.086282 -106.37576 
L 132.416339 -106.750397 
L 132.746396 -107.125033 
L 133.076454 -107.49967 
L 133.406511 -107.874306 
L 133.736568 -108.248943 
L 134.066626 -108.623579 
L 134.396683 -108.998216 
L 134.72674 -109.372852 
L 135.056798 -109.747489 
L 135.386855 -110.122126 
L 135.716912 -110.496762 
L 136.04697 -110.871399 
L 136.377027 -111.246035 
L 136.707084 -111.620672 
L 137.037142 -111.995308 
L 137.367199 -112.369945 
L 137.697256 -112.744581 
L 138.027314 -113.119218 
L 138.357371 -113.493855 
L 138.687428 -113.868491 
L 139.017486 -114.243128 
L 139.347543 -114.617764 
L 139.6776 -114.992401 
L 140.007658 -115.367037 
L 140.337715 -115.741674 
L 140.667772 -116.11631 
L 140.99783 -116.490947 
L 141.327887 -116.865584 
L 141.657944 -117.24022 
L 141.988002 -117.614857 
L 142.318059 -117.989493 
L 142.648116 -118.36413 
L 142.978174 -118.738766 
L 143.308231 -119.113403 
L 143.638288 -119.488039 
L 143.968346 -119.862676 
L 144.298403 -120.237313 
L 144.62846 -120.611949 
L 144.958518 -120.986586 
L 145.288575 -121.361222 
L 145.618632 -121.735859 
L 145.94869 -122.110495 
L 146.278747 -122.485132 
L 146.608804 -122.859768 
L 146.938862 -123.234405 
L 147.268919 -123.609041 
L 147.598976 -123.983678 
L 147.929034 -124.358315 
L 148.259091 -124.732951 
L 148.589148 -125.107588 
L 148.919206 -125.482224 
L 149.249263 -125.856861 
L 149.57932 -126.231497 
L 149.909378 -126.606134 
L 150.239435 -126.98077 
L 150.569492 -127.355407 
L 150.89955 -127.730044 
L 151.229607 -128.10468 
L 151.559664 -128.479317 
L 151.889722 -128.853953 
L 152.219779 -129.22859 
L 152.549836 -129.603226 
L 152.879894 -129.977863 
L 153.209951 -130.352499 
L 153.540008 -130.727136 
L 153.870066 -131.101773 
L 154.200123 -131.476409 
L 154.53018 -131.851046 
L 154.860238 -132.225682 
L 155.190295 -132.600319 
L 155.520352 -132.974955 
L 155.85041 -133.349592 
L 156.180467 -133.724228 
L 156.510524 -134.098865 
L 156.840581 -134.473502 
L 157.170639 -134.848138 
L 157.500696 -135.222775 
L 157.830753 -135.597411 
L 158.160811 -135.972048 
L 158.490868 -136.346684 
L 158.820925 -136.721321 
L 159.150983 -137.095957 
L 159.48104 -137.470594 
L 159.811097 -137.845231 
L 160.141155 -138.219867 
L 160.471212 -138.594504 
L 160.801269 -138.96914 
L 161.131327 -139.343777 
L 161.461384 -139.718413 
L 161.791441 -140.09305 
L 162.121499 -140.22426 
L 162.451556 -140.24142 
L 162.781613 -140.258579 
L 163.111671 -140.275738 
L 163.441728 -140.292898 
L 163.771785 -140.310057 
L 164.101843 -140.327216 
L 164.4319 -140.344375 
L 164.761957 -140.361535 
L 165.092015 -140.378694 
L 165.422072 -140.395853 
L 165.752129 -140.413013 
L 166.082187 -140.430172 
L 166.412244 -140.447331 
L 166.742301 -140.464491 
L 167.072359 -140.48165 
L 167.402416 -140.498809 
L 167.732473 -140.515969 
L 168.062531 -140.533128 
L 168.392588 -140.550287 
L 168.722645 -140.567447 
L 169.052703 -140.584606 
L 169.38276 -140.601765 
L 169.712817 -140.618925 
L 170.042875 -140.636084 
L 170.372932 -140.653243 
L 170.702989 -140.670403 
L 171.033047 -140.687562 
L 171.363104 -140.704721 
L 171.693161 -140.721881 
L 172.023219 -140.73904 
L 172.353276 -140.756199 
L 172.683333 -140.773359 
L 173.013391 -140.790518 
L 173.343448 -140.807677 
L 173.673505 -140.824837 
L 174.003563 -140.841996 
L 174.33362 -140.859155 
L 174.663677 -140.876315 
L 174.993735 -140.893474 
L 175.323792 -140.910633 
L 175.653849 -140.927793 
L 175.983907 -140.944952 
L 176.313964 -140.962111 
L 176.644021 -140.97927 
L 176.974079 -140.99643 
L 177.304136 -141.013589 
L 177.634193 -141.030748 
L 177.964251 -141.047908 
L 178.294308 -141.065067 
L 178.624365 -141.082226 
L 178.954423 -141.099386 
L 179.28448 -141.116545 
L 179.614537 -141.133704 
L 179.944595 -141.150864 
L 180.274652 -141.168023 
L 180.604709 -141.185182 
L 180.934767 -141.202342 
L 181.264824 -141.219501 
L 181.594881 -141.23666 
L 181.924939 -141.25382 
L 182.254996 -141.270979 
L 182.585053 -141.288138 
L 182.915111 -141.305298 
L 183.245168 -141.322457 
L 183.575225 -141.339616 
L 183.905283 -141.356776 
L 184.23534 -141.373935 
L 184.565397 -141.391094 
L 184.895455 -141.408254 
L 185.225512 -141.425413 
L 185.555569 -141.442572 
L 185.885627 -141.459732 
L 186.215684 -141.476891 
L 186.545741 -141.49405 
L 186.875799 -141.51121 
L 187.205856 -141.528369 
L 187.535913 -141.545528 
L 187.865971 -141.562688 
L 188.196028 -141.579847 
L 188.526085 -141.597006 
L 188.856143 -141.614165 
L 189.1862 -141.631325 
L 189.516257 -141.648484 
L 189.846314 -141.665643 
L 190.176372 -141.682803 
L 190.506429 -141.699962 
L 190.836486 -141.717121 
L 191.166544 -141.734281 
L 191.496601 -141.75144 
L 191.826658 -141.768599 
L 192.156716 -141.785759 
L 192.486773 -141.802918 
L 192.81683 -141.820077 
L 193.146888 -141.837237 
L 193.476945 -141.854396 
L 193.807002 -141.871555 
L 194.13706 -141.888715 
L 194.467117 -141.905874 
L 194.797174 -141.923033 
L 195.127232 -141.940193 
L 195.457289 -141.957352 
L 195.787346 -141.974511 
L 196.117404 -141.991671 
L 196.447461 -142.00883 
L 196.777518 -142.025989 
L 197.107576 -142.043149 
L 197.437633 -142.060308 
L 197.76769 -142.077467 
L 198.097748 -142.094627 
L 198.427805 -142.111786 
L 198.757862 -142.128945 
L 199.08792 -142.146105 
L 199.417977 -142.163264 
L 199.748034 -142.180423 
L 200.078092 -142.197583 
L 200.408149 -142.214742 
L 200.738206 -142.231901 
L 201.068264 -142.24906 
L 201.398321 -142.26622 
L 201.728378 -142.283379 
L 202.058436 -142.300538 
L 202.388493 -142.317698 
L 202.71855 -142.334857 
L 203.048608 -142.352016 
L 203.378665 -142.369176 
L 203.708722 -142.386335 
L 204.03878 -142.403494 
L 204.368837 -142.420654 
L 204.698894 -142.437813 
L 205.028952 -142.454972 
L 205.359009 -142.472132 
L 205.689066 -142.489291 
L 206.019124 -142.50645 
L 206.349181 -142.52361 
L 206.679238 -142.540769 
L 207.009296 -142.557928 
L 207.339353 -142.575088 
L 207.66941 -142.592247 
L 207.999468 -142.609406 
L 208.329525 -142.626566 
L 208.659582 -142.643725 
L 208.98964 -142.660884 
L 209.319697 -142.678044 
L 209.649754 -142.695203 
L 209.979812 -142.712362 
L 210.309869 -142.729522 
L 210.639926 -142.746681 
L 210.969984 -142.76384 
L 211.300041 -142.781 
L 211.630098 -142.798159 
L 211.960156 -142.815318 
L 212.290213 -142.832478 
L 212.62027 -142.849637 
L 212.950328 -142.866796 
L 213.280385 -142.883955 
L 213.610442 -142.901115 
L 213.9405 -142.918274 
L 214.270557 -142.935433 
L 214.600614 -142.952593 
L 214.930672 -142.969752 
L 215.260729 -142.986911 
L 215.590786 -143.004071 
L 215.920844 -143.02123 
L 216.250901 -143.038389 
L 216.580958 -143.055549 
L 216.911016 -143.072708 
L 217.241073 -143.089867 
L 217.57113 -143.107027 
L 217.901188 -143.124186 
L 218.231245 -143.141345 
L 218.561302 -143.158505 
L 218.89136 -143.175664 
L 219.221417 -143.192823 
L 219.551474 -143.209983 
L 219.881532 -143.227142 
L 220.211589 -143.244301 
L 220.541646 -143.261461 
L 220.871704 -143.27862 
L 221.201761 -143.295779 
L 221.531818 -143.312939 
L 221.861876 -143.330098 
L 222.191933 -143.347257 
L 222.52199 -143.364417 
L 222.852048 -143.381576 
L 223.182105 -143.398735 
L 223.512162 -143.415895 
L 223.842219 -143.433054 
L 224.172277 -143.450213 
L 224.502334 -143.467373 
L 224.832391 -143.484532 
L 225.162449 -143.501691 
L 225.492506 -143.51885 
L 225.822563 -143.53601 
L 226.152621 -143.553169 
L 226.482678 -143.570328 
L 226.812735 -143.587488 
L 227.142793 -143.604647 
L 227.47285 -143.621806 
L 227.802907 -143.638966 
L 228.132965 -143.656125 
L 228.463022 -143.673284 
L 228.793079 -143.690444 
L 229.123137 -143.707603 
L 229.453194 -143.724762 
L 229.783251 -143.741922 
L 230.113309 -143.759081 
L 230.443366 -143.77624 
L 230.773423 -143.7934 
L 231.103481 -143.810559 
L 231.433538 -143.827718 
L 231.763595 -143.844878 
L 232.093653 -143.862037 
L 232.42371 -143.879196 
L 232.753767 -143.896356 
L 233.083825 -143.913515 
L 233.413882 -143.930674 
L 233.743939 -143.947834 
L 234.073997 -143.964993 
L 234.404054 -143.982152 
L 234.734111 -143.999312 
L 235.064169 -144.016471 
L 235.394226 -144.03363 
L 235.724283 -144.05079 
L 236.054341 -144.067949 
L 236.384398 -144.085108 
L 236.714455 -144.102268 
L 237.044513 -144.119427 
L 237.37457 -144.136586 
L 237.704627 -144.153745 
L 238.034685 -144.170905 
L 238.364742 -144.188064 
L 238.694799 -144.205223 
L 239.024857 -144.222383 
L 239.354914 -144.239542 
L 239.684971 -144.256701 
L 240.015029 -144.273861 
L 240.345086 -144.29102 
L 240.675143 -144.308179 
L 241.005201 -144.325339 
L 241.335258 -144.342498 
L 241.665315 -144.359657 
L 241.995373 -144.376817 
L 242.32543 -144.393976 
L 242.655487 -144.411135 
L 242.985545 -144.428295 
L 243.315602 -144.445454 
L 243.645659 -144.462613 
L 243.975717 -144.479773 
L 244.305774 -144.496932 
L 244.635831 -144.514091 
L 244.965889 -144.531251 
L 245.295946 -144.54841 
L 245.626003 -144.565569 
L 245.956061 -144.582729 
L 246.286118 -144.599888 
L 246.616175 -144.617047 
L 246.946233 -144.634207 
L 247.27629 -144.651366 
L 247.606347 -144.668525 
L 247.936405 -144.685685 
L 248.266462 -144.702844 
L 248.596519 -144.720003 
L 248.926577 -144.737163 
L 249.256634 -144.754322 
L 249.586691 -144.771481 
L 249.916749 -144.78864 
L 250.246806 -144.8058 
L 250.576863 -144.822959 
L 250.906921 -144.840118 
L 251.236978 -144.857278 
L 251.567035 -144.874437 
L 251.897093 -144.891596 
L 252.22715 -144.908756 
L 252.557207 -144.925915 
L 252.887265 -144.943074 
L 253.217322 -144.960234 
L 253.547379 -144.977393 
L 253.877437 -144.994552 
L 254.207494 -145.011712 
L 254.537551 -145.028871 
L 254.867609 -145.04603 
L 255.197666 -145.06319 
L 255.527723 -145.080349 
L 255.857781 -145.097508 
L 256.187838 -145.114668 
L 256.517895 -145.131827 
L 256.847952 -145.148986 
L 257.17801 -145.166146 
L 257.508067 -145.183305 
L 257.838124 -145.200464 
L 258.168182 -145.217624 
L 258.498239 -145.234783 
L 258.828296 -145.251942 
L 259.158354 -145.269102 
L 259.488411 -145.286261 
L 259.818468 -145.30342 
L 260.148526 -145.32058 
L 260.478583 -145.337739 
L 260.80864 -145.354898 
L 261.138698 -145.372058 
L 261.468755 -145.389217 
L 261.798812 -145.406376 
L 262.12887 -145.423536 
L 262.458927 -145.440695 
L 262.788984 -145.457854 
L 263.119042 -145.475013 
L 263.449099 -145.492173 
L 263.779156 -145.509332 
L 264.109214 -145.526491 
L 264.439271 -145.543651 
L 264.769328 -145.56081 
L 265.099386 -145.577969 
L 265.429443 -145.595129 
L 265.7595 -145.612288 
L 266.089558 -145.629447 
L 266.419615 -145.646607 
L 266.749672 -145.663766 
L 267.07973 -145.680925 
L 267.409787 -145.698085 
L 267.739844 -145.715244 
L 268.069902 -145.732403 
L 268.399959 -145.749563 
L 268.730016 -145.766722 
L 269.060074 -145.783881 
L 269.390131 -145.801041 
L 269.720188 -145.8182 
L 270.050246 -145.835359 
L 270.380303 -145.852519 
L 270.71036 -145.869678 
L 271.040418 -145.886837 
L 271.370475 -145.903997 
L 271.700532 -145.921156 
L 272.03059 -145.938315 
L 272.360647 -145.955475 
L 272.690704 -145.972634 
L 273.020762 -145.989793 
L 273.350819 -146.006953 
L 273.680876 -146.024112 
L 274.010934 -146.041271 
L 274.340991 -146.058431 
L 274.671048 -146.07559 
L 275.001106 -146.092749 
L 275.331163 -146.109908 
L 275.66122 -146.127068 
L 275.991278 -146.144227 
L 276.321335 -146.161386 
L 276.651392 -146.178546 
L 276.98145 -146.195705 
L 277.311507 -146.212864 
L 277.641564 -146.230024 
L 277.971622 -146.247183 
L 278.301679 -146.264342 
L 278.631736 -146.281502 
L 278.961794 -146.298661 
L 279.291851 -146.31582 
L 279.621908 -146.33298 
L 279.951966 -146.350139 
L 280.282023 -146.367298 
L 280.61208 -146.384458 
L 280.942138 -146.401617 
L 281.272195 -146.418776 
L 281.602252 -146.435936 
L 281.93231 -146.453095 
L 282.262367 -146.470254 
L 282.592424 -146.487414 
L 282.922482 -146.504573 
L 283.252539 -146.521732 
L 283.582596 -146.538892 
L 283.912654 -146.556051 
L 284.242711 -146.57321 
L 284.572768 -146.59037 
L 284.902826 -146.607529 
L 285.232883 -146.624688 
L 285.56294 -146.641848 
L 285.892998 -146.659007 
L 286.223055 -146.676166 
L 286.553112 -146.693326 
L 286.88317 -146.710485 
L 287.213227 -146.727644 
L 287.543284 -146.744803 
L 287.873342 -146.761963 
L 288.203399 -146.779122 
L 288.533456 -146.796281 
L 288.863514 -146.813441 
L 289.193571 -146.8306 
L 289.523628 -146.847759 
L 289.853686 -146.864919 
L 290.183743 -146.882078 
L 290.5138 -146.899237 
L 290.843857 -146.916397 
L 291.173915 -146.933556 
L 291.503972 -146.950715 
L 291.834029 -146.967875 
L 292.164087 -146.985034 
L 292.494144 -147.002193 
L 292.824201 -147.019353 
L 293.154259 -147.036512 
L 293.484316 -147.053671 
L 293.814373 -147.070831 
L 294.144431 -147.08799 
L 294.474488 -147.105149 
L 294.804545 -147.122309 
L 295.134603 -147.139468 
L 295.46466 -147.156627 
L 295.794717 -147.173787 
L 296.124775 -147.190946 
L 296.454832 -147.208105 
L 296.784889 -147.225265 
L 297.114947 -147.242424 
L 297.445004 -147.259583 
L 297.775061 -147.276743 
L 298.105119 -147.293902 
L 298.435176 -147.311061 
L 298.765233 -147.328221 
L 299.095291 -147.34538 
L 299.425348 -147.362539 
L 299.755405 -147.379698 
L 300.085463 -147.396858 
L 300.41552 -147.414017 
L 300.745577 -147.431176 
L 301.075635 -147.448336 
L 301.405692 -147.465495 
L 301.735749 -147.482654 
L 302.065807 -147.499814 
L 302.395864 -147.516973 
L 302.725921 -147.534132 
L 303.055979 -147.551292 
L 303.386036 -147.568451 
L 303.716093 -147.58561 
L 304.046151 -147.60277 
L 304.376208 -147.619929 
L 304.706265 -147.637088 
L 305.036323 -147.654248 
L 305.36638 -147.671407 
L 305.696437 -147.688566 
L 306.026495 -147.705726 
L 306.356552 -147.722885 
L 306.686609 -147.740044 
L 307.016667 -147.757204 
L 307.346724 -147.774363 
L 307.676781 -147.791522 
L 308.006839 -147.808682 
L 308.336896 -147.825841 
L 308.666953 -147.843 
L 308.997011 -147.86016 
L 309.327068 -147.877319 
L 309.657125 -147.894478 
L 309.987183 -147.911638 
L 310.31724 -147.928797 
L 310.647297 -147.945956 
L 310.977355 -147.963116 
L 311.307412 -147.980275 
L 311.637469 -147.997434 
L 311.967527 -148.014593 
L 312.297584 -148.031753 
L 312.627641 -148.048912 
L 312.957699 -148.066071 
L 313.287756 -148.083231 
L 313.617813 -148.10039 
L 313.947871 -148.117549 
L 314.277928 -148.134709 
L 314.607985 -148.151868 
L 314.938043 -148.169027 
L 315.2681 -148.186187 
L 315.598157 -148.203346 
L 315.928215 -148.220505 
L 316.258272 -148.237665 
L 316.588329 -148.254824 
L 316.918387 -148.271983 
L 317.248444 -148.289143 
L 317.578501 -148.306302 
L 317.908559 -148.323461 
L 318.238616 -148.340621 
L 318.568673 -148.35778 
L 318.898731 -148.374939 
L 319.228788 -148.392099 
L 319.558845 -148.409258 
L 319.888903 -148.426417 
L 320.21896 -148.443577 
L 320.549017 -148.460736 
L 320.879075 -148.477895 
L 321.209132 -148.495055 
L 321.539189 -148.512214 
L 321.869247 -148.529373 
L 322.199304 -148.546533 
L 322.529361 -148.563692 
L 322.859419 -148.580851 
L 323.189476 -148.598011 
L 323.519533 -148.61517 
L 323.84959 -148.632329 
L 324.179648 -148.649488 
L 324.509705 -148.666648 
L 324.839762 -148.683807 
L 325.16982 -148.700966 
L 325.499877 -148.718126 
L 325.829934 -148.735285 
L 326.159992 -148.752444 
L 326.490049 -148.769604 
L 326.820106 -148.786763 
L 327.150164 -148.803922 
L 327.480221 -148.821082 
L 327.810278 -148.838241 
L 328.140336 -148.8554 
L 328.470393 -148.87256 
L 328.80045 -148.889719 
L 329.130508 -148.906878 
L 329.460565 -148.924038 
L 329.790622 -148.941197 
L 330.12068 -148.958356 
L 330.450737 -148.975516 
L 330.780794 -148.992675 
L 331.110852 -149.009834 
L 331.440909 -149.026994 
L 331.770966 -149.044153 
L 332.101024 -149.061312 
L 332.431081 -149.078472 
L 332.761138 -149.095631 
L 333.091196 -149.11279 
L 333.421253 -149.12995 
L 333.75131 -149.147109 
L 334.081368 -149.164268 
L 334.411425 -149.181428 
L 334.741482 -149.198587 
L 335.07154 -149.215746 
L 335.401597 -149.232906 
L 335.731654 -149.250065 
L 336.061712 -149.267224 
L 336.391769 -149.284383 
L 336.721826 -149.301543 
L 337.051884 -149.318702 
L 337.381941 -149.335861 
L 337.711998 -149.353021 
L 338.042056 -149.37018 
L 338.372113 -149.387339 
L 338.70217 -149.404499 
L 339.032228 -149.421658 
L 339.362285 -149.438817 
L 339.692342 -149.455977 
L 340.0224 -149.473136 
L 340.352457 -149.490295 
L 340.682514 -149.507455 
L 341.012572 -149.524614 
L 341.342629 -149.541773 
L 341.672686 -149.558933 
L 342.002744 -149.576092 
L 342.332801 -149.593251 
L 342.662858 -149.610411 
L 342.992916 -149.62757 
L 343.322973 -149.644729 
L 343.65303 -149.661889 
L 343.983088 -149.679048 
L 344.313145 -149.696207 
L 344.643202 -149.713367 
L 344.97326 -149.730526 
L 345.303317 -149.747685 
L 345.633374 -149.764845 
L 345.963432 -149.782004 
L 346.293489 -149.799163 
L 346.623546 -149.816323 
L 346.953604 -149.833482 
L 347.283661 -149.850641 
L 347.613718 -149.867801 
L 347.943776 -149.88496 
L 348.273833 -149.902119 
L 348.60389 -149.919278 
L 348.933948 -149.936438 
L 349.264005 -149.953597 
L 349.594062 -149.970756 
L 349.92412 -149.987916 
L 350.254177 -150.005075 
L 350.584234 -150.022234 
L 350.914292 -150.039394 
L 351.244349 -150.056553 
L 351.574406 -150.073712 
L 351.904464 -150.090872 
L 352.234521 -150.108031 
L 352.564578 -150.12519 
L 352.894636 -150.14235 
L 353.224693 -150.159509 
L 353.55475 -150.176668 
L 353.884808 -150.193828 
L 354.214865 -150.210987 
L 354.544922 -150.228146 
L 354.87498 -150.245306 
L 355.205037 -150.262465 
L 355.535094 -150.279624 
L 355.865152 -150.296784 
L 356.195209 -150.313943 
L 356.525266 -150.331102 
L 356.855324 -150.348262 
L 357.185381 -150.365421 
L 357.515438 -150.38258 
L 357.845495 -150.39974 
L 358.175553 -150.416899 
L 358.50561 -150.434058 
L 358.835667 -150.451218 
L 359.165725 -150.468377 
L 359.495782 -150.485536 
L 359.825839 -150.502696 
L 360.155897 -150.519855 
L 360.485954 -150.537014 
L 360.816011 -150.554173 
L 361.146069 -150.571333 
L 361.476126 -150.588492 
L 361.806183 -150.605651 
L 362.136241 -150.622811 
L 362.466298 -150.63997 
L 362.796355 -150.657129 
L 363.126413 -150.674289 
L 363.45647 -150.691448 
L 363.786527 -150.708607 
L 364.116585 -150.725767 
L 364.446642 -150.742926 
L 364.776699 -150.760085 
L 365.106757 -150.777245 
L 365.436814 -150.794404 
L 365.766871 -150.811563 
L 366.096929 -150.828723 
L 366.426986 -150.845882 
L 366.757043 -150.863041 
L 367.087101 -150.880201 
L 367.417158 -150.89736 
L 367.747215 -150.914519 
L 368.077273 -150.931679 
L 368.40733 -150.948838 
L 368.737387 -150.965997 
L 369.067445 -150.983157 
L 369.397502 -151.000316 
L 369.727559 -151.017475 
L 370.057617 -151.034635 
L 370.387674 -151.051794 
L 370.717731 -151.068953 
L 371.047789 -151.086113 
L 371.377846 -151.103272 
L 371.707903 -151.120431 
L 372.037961 -151.137591 
L 372.368018 -151.15475 
L 372.698075 -151.171909 
L 373.028133 -151.189068 
L 373.35819 -151.206228 
L 373.688247 -151.223387 
L 374.018305 -151.240546 
L 374.348362 -151.257706 
L 374.678419 -151.274865 
L 375.008477 -151.292024 
L 375.338534 -151.309184 
L 375.668591 -151.326343 
L 375.998649 -151.343502 
L 376.328706 -151.360662 
L 376.658763 -151.377821 
L 376.988821 -151.39498 
L 377.318878 -151.41214 
L 377.648935 -151.429299 
L 377.978993 -151.446458 
L 378.30905 -151.463618 
L 378.639107 -151.480777 
L 378.969165 -151.497936 
L 379.299222 -151.515096 
L 379.629279 -151.532255 
L 379.959337 -151.549414 
L 380.289394 -151.566574 
L 380.619451 -151.583733 
L 380.949509 -151.600892 
L 381.279566 -151.618052 
L 381.609623 -151.635211 
L 381.939681 -151.65237 
L 382.269738 -151.66953 
L 382.599795 -151.686689 
L 382.929853 -151.703848 
L 383.25991 -151.721008 
L 383.589967 -151.738167 
L 383.920025 -151.755326 
L 384.250082 -151.772486 
L 384.580139 -151.789645 
L 384.910197 -151.806804 
L 385.240254 -151.823963 
L 385.570311 -151.841123 
L 385.900369 -151.858282 
L 386.230426 -151.875441 
L 386.560483 -151.892601 
L 386.890541 -151.90976 
L 387.220598 -151.926919 
L 387.550655 -151.944079 
L 387.880713 -151.961238 
L 388.21077 -151.978397 
L 388.540827 -151.995557 
L 388.870885 -152.012716 
L 389.200942 -152.029875 
L 389.530999 -152.047035 
L 389.861057 -152.064194 
L 390.191114 -152.081353 
L 390.521171 -152.098513 
L 390.851229 -152.115672 
L 391.181286 -152.132831 
L 391.511343 -152.149991 
L 391.8414 -152.16715 
L 392.171458 -152.184309 
L 392.501515 -152.201469 
L 392.831572 -152.218628 
L 393.16163 -152.235787 
L 393.491687 -152.252947 
L 393.821744 -152.270106 
L 394.151802 -152.287265 
L 394.481859 -152.304425 
L 394.811916 -152.321584 
L 395.141974 -152.338743 
L 395.472031 -152.355903 
L 395.802088 -152.373062 
L 396.132146 -152.390221 
L 396.462203 -152.407381 
L 396.79226 -152.42454 
L 397.122318 -152.441699 
L 397.452375 -152.458858 
L 397.782432 -152.476018 
L 398.11249 -152.493177 
L 398.442547 -152.510336 
L 398.772604 -152.527496 
L 399.102662 -152.544655 
L 399.432719 -152.561814 
L 399.762776 -152.578974 
L 400.092834 -152.596133 
L 400.422891 -152.613292 
L 400.752948 -152.630452 
L 401.083006 -152.647611 
L 401.413063 -152.66477 
L 401.74312 -152.68193 
L 402.073178 -152.699089 
L 402.403235 -152.716248 
L 402.733292 -152.733408 
L 403.06335 -152.750567 
L 403.393407 -152.767726 
L 403.723464 -152.784886 
L 404.053522 -152.802045 
L 404.383579 -152.819204 
L 404.713636 -152.836364 
L 404.713636 -41.563636 
L 404.713636 -41.563636 
L 404.383579 -41.563636 
L 404.053522 -41.563636 
L 403.723464 -41.563636 
L 403.393407 -41.563636 
L 403.06335 -41.563636 
L 402.733292 -41.563636 
L 402.403235 -41.563636 
L 402.073178 -41.563636 
L 401.74312 -41.563636 
L 401.413063 -41.563636 
L 401.083006 -41.563636 
L 400.752948 -41.563636 
L 400.422891 -41.563636 
L 400.092834 -41.563636 
L 399.762776 -41.563636 
L 399.432719 -41.563636 
L 399.102662 -41.563636 
L 398.772604 -41.563636 
L 398.442547 -41.563636 
L 398.11249 -41.563636 
L 397.782432 -41.563636 
L 397.452375 -41.563636 
L 397.122318 -41.563636 
L 396.79226 -41.563636 
L 396.462203 -41.563636 
L 396.132146 -41.563636 
L 395.802088 -41.563636 
L 395.472031 -41.563636 
L 395.141974 -41.563636 
L 394.811916 -41.563636 
L 394.481859 -41.563636 
L 394.151802 -41.563636 
L 393.821744 -41.563636 
L 393.491687 -41.563636 
L 393.16163 -41.563636 
L 392.831572 -41.563636 
L 392.501515 -41.563636 
L 392.171458 -41.563636 
L 391.8414 -41.563636 
L 391.511343 -41.563636 
L 391.181286 -41.563636 
L 390.851229 -41.563636 
L 390.521171 -41.563636 
L 390.191114 -41.563636 
L 389.861057 -41.563636 
L 389.530999 -41.563636 
L 389.200942 -41.563636 
L 388.870885 -41.563636 
L 388.540827 -41.563636 
L 388.21077 -41.563636 
L 387.880713 -41.563636 
L 387.550655 -41.563636 
L 387.220598 -41.563636 
L 386.890541 -41.563636 
L 386.560483 -41.563636 
L 386.230426 -41.563636 
L 385.900369 -41.563636 
L 385.570311 -41.563636 
L 385.240254 -41.563636 
L 384.910197 -41.563636 
L 384.580139 -41.563636 
L 384.250082 -41.563636 
L 383.920025 -41.563636 
L 383.589967 -41.563636 
L 383.25991 -41.563636 
L 382.929853 -41.563636 
L 382.599795 -41.563636 
L 382.269738 -41.563636 
L 381.939681 -41.563636 
L 381.609623 -41.563636 
L 381.279566 -41.563636 
L 380.949509 -41.563636 
L 380.619451 -41.563636 
L 380.289394 -41.563636 
L 379.959337 -41.563636 
L 379.629279 -41.563636 
L 379.299222 -41.563636 
L 378.969165 -41.563636 
L 378.639107 -41.563636 
L 378.30905 -41.563636 
L 377.978993 -41.563636 
L 377.648935 -41.563636 
L 377.318878 -41.563636 
L 376.988821 -41.563636 
L 376.658763 -41.563636 
L 376.328706 -41.563636 
L 375.998649 -41.563636 
L 375.668591 -41.563636 
L 375.338534 -41.563636 
L 375.008477 -41.563636 
L 374.678419 -41.563636 
L 374.348362 -41.563636 
L 374.018305 -41.563636 
L 373.688247 -41.563636 
L 373.35819 -41.563636 
L 373.028133 -41.563636 
L 372.698075 -41.563636 
L 372.368018 -41.563636 
L 372.037961 -41.563636 
L 371.707903 -41.563636 
L 371.377846 -41.563636 
L 371.047789 -41.563636 
L 370.717731 -41.563636 
L 370.387674 -41.563636 
L 370.057617 -41.563636 
L 369.727559 -41.563636 
L 369.397502 -41.563636 
L 369.067445 -41.563636 
L 368.737387 -41.563636 
L 368.40733 -41.563636 
L 368.077273 -41.563636 
L 367.747215 -41.563636 
L 367.417158 -41.563636 
L 367.087101 -41.563636 
L 366.757043 -41.563636 
L 366.426986 -41.563636 
L 366.096929 -41.563636 
L 365.766871 -41.563636 
L 365.436814 -41.563636 
L 365.106757 -41.563636 
L 364.776699 -41.563636 
L 364.446642 -41.563636 
L 364.116585 -41.563636 
L 363.786527 -41.563636 
L 363.45647 -41.563636 
L 363.126413 -41.563636 
L 362.796355 -41.563636 
L 362.466298 -41.563636 
L 362.136241 -41.563636 
L 361.806183 -41.563636 
L 361.476126 -41.563636 
L 361.146069 -41.563636 
L 360.816011 -41.563636 
L 360.485954 -41.563636 
L 360.155897 -41.563636 
L 359.825839 -41.563636 
L 359.495782 -41.563636 
L 359.165725 -41.563636 
L 358.835667 -41.563636 
L 358.50561 -41.563636 
L 358.175553 -41.563636 
L 357.845495 -41.563636 
L 357.515438 -41.563636 
L 357.185381 -41.563636 
L 356.855324 -41.563636 
L 356.525266 -41.563636 
L 356.195209 -41.563636 
L 355.865152 -41.563636 
L 355.535094 -41.563636 
L 355.205037 -41.563636 
L 354.87498 -41.563636 
L 354.544922 -41.563636 
L 354.214865 -41.563636 
L 353.884808 -41.563636 
L 353.55475 -41.563636 
L 353.224693 -41.563636 
L 352.894636 -41.563636 
L 352.564578 -41.563636 
L 352.234521 -41.563636 
L 351.904464 -41.563636 
L 351.574406 -41.563636 
L 351.244349 -41.563636 
L 350.914292 -41.563636 
L 350.584234 -41.563636 
L 350.254177 -41.563636 
L 349.92412 -41.563636 
L 349.594062 -41.563636 
L 349.264005 -41.563636 
L 348.933948 -41.563636 
L 348.60389 -41.563636 
L 348.273833 -41.563636 
L 347.943776 -41.563636 
L 347.613718 -41.563636 
L 347.283661 -41.563636 
L 346.953604 -41.563636 
L 346.623546 -41.563636 
L 346.293489 -41.563636 
L 345.963432 -41.563636 
L 345.633374 -41.563636 
L 345.303317 -41.563636 
L 344.97326 -41.563636 
L 344.643202 -41.563636 
L 344.313145 -41.563636 
L 343.983088 -41.563636 
L 343.65303 -41.563636 
L 343.322973 -41.563636 
L 342.992916 -41.563636 
L 342.662858 -41.563636 
L 342.332801 -41.563636 
L 342.002744 -41.563636 
L 341.672686 -41.563636 
L 341.342629 -41.563636 
L 341.012572 -41.563636 
L 340.682514 -41.563636 
L 340.352457 -41.563636 
L 340.0224 -41.563636 
L 339.692342 -41.563636 
L 339.362285 -41.563636 
L 339.032228 -41.563636 
L 338.70217 -41.563636 
L 338.372113 -41.563636 
L 338.042056 -41.563636 
L 337.711998 -41.563636 
L 337.381941 -41.563636 
L 337.051884 -41.563636 
L 336.721826 -41.563636 
L 336.391769 -41.563636 
L 336.061712 -41.563636 
L 335.731654 -41.563636 
L 335.401597 -41.563636 
L 335.07154 -41.563636 
L 334.741482 -41.563636 
L 334.411425 -41.563636 
L 334.081368 -41.563636 
L 333.75131 -41.563636 
L 333.421253 -41.563636 
L 333.091196 -41.563636 
L 332.761138 -41.563636 
L 332.431081 -41.563636 
L 332.101024 -41.563636 
L 331.770966 -41.563636 
L 331.440909 -41.563636 
L 331.110852 -41.563636 
L 330.780794 -41.563636 
L 330.450737 -41.563636 
L 330.12068 -41.563636 
L 329.790622 -41.563636 
L 329.460565 -41.563636 
L 329.130508 -41.563636 
L 328.80045 -41.563636 
L 328.470393 -41.563636 
L 328.140336 -41.563636 
L 327.810278 -41.563636 
L 327.480221 -41.563636 
L 327.150164 -41.563636 
L 326.820106 -41.563636 
L 326.490049 -41.563636 
L 326.159992 -41.563636 
L 325.829934 -41.563636 
L 325.499877 -41.563636 
L 325.16982 -41.563636 
L 324.839762 -41.563636 
L 324.509705 -41.563636 
L 324.179648 -41.563636 
L 323.84959 -41.563636 
L 323.519533 -41.563636 
L 323.189476 -41.563636 
L 322.859419 -41.563636 
L 322.529361 -41.563636 
L 322.199304 -41.563636 
L 321.869247 -41.563636 
L 321.539189 -41.563636 
L 321.209132 -41.563636 
L 320.879075 -41.563636 
L 320.549017 -41.563636 
L 320.21896 -41.563636 
L 319.888903 -41.563636 
L 319.558845 -41.563636 
L 319.228788 -41.563636 
L 318.898731 -41.563636 
L 318.568673 -41.563636 
L 318.238616 -41.563636 
L 317.908559 -41.563636 
L 317.578501 -41.563636 
L 317.248444 -41.563636 
L 316.918387 -41.563636 
L 316.588329 -41.563636 
L 316.258272 -41.563636 
L 315.928215 -41.563636 
L 315.598157 -41.563636 
L 315.2681 -41.563636 
L 314.938043 -41.563636 
L 314.607985 -41.563636 
L 314.277928 -41.563636 
L 313.947871 -41.563636 
L 313.617813 -41.563636 
L 313.287756 -41.563636 
L 312.957699 -41.563636 
L 312.627641 -41.563636 
L 312.297584 -41.563636 
L 311.967527 -41.563636 
L 311.637469 -41.563636 
L 311.307412 -41.563636 
L 310.977355 -41.563636 
L 310.647297 -41.563636 
L 310.31724 -41.563636 
L 309.987183 -41.563636 
L 309.657125 -41.563636 
L 309.327068 -41.563636 
L 308.997011 -41.563636 
L 308.666953 -41.563636 
L 308.336896 -41.563636 
L 308.006839 -41.563636 
L 307.676781 -41.563636 
L 307.346724 -41.563636 
L 307.016667 -41.563636 
L 306.686609 -41.563636 
L 306.356552 -41.563636 
L 306.026495 -41.563636 
L 305.696437 -41.563636 
L 305.36638 -41.563636 
L 305.036323 -41.563636 
L 304.706265 -41.563636 
L 304.376208 -41.563636 
L 304.046151 -41.563636 
L 303.716093 -41.563636 
L 303.386036 -41.563636 
L 303.055979 -41.563636 
L 302.725921 -41.563636 
L 302.395864 -41.563636 
L 302.065807 -41.563636 
L 301.735749 -41.563636 
L 301.405692 -41.563636 
L 301.075635 -41.563636 
L 300.745577 -41.563636 
L 300.41552 -41.563636 
L 300.085463 -41.563636 
L 299.755405 -41.563636 
L 299.425348 -41.563636 
L 299.095291 -41.563636 
L 298.765233 -41.563636 
L 298.435176 -41.563636 
L 298.105119 -41.563636 
L 297.775061 -41.563636 
L 297.445004 -41.563636 
L 297.114947 -41.563636 
L 296.784889 -41.563636 
L 296.454832 -41.563636 
L 296.124775 -41.563636 
L 295.794717 -41.563636 
L 295.46466 -41.563636 
L 295.134603 -41.563636 
L 294.804545 -41.563636 
L 294.474488 -41.563636 
L 294.144431 -41.563636 
L 293.814373 -41.563636 
L 293.484316 -41.563636 
L 293.154259 -41.563636 
L 292.824201 -41.563636 
L 292.494144 -41.563636 
L 292.164087 -41.563636 
L 291.834029 -41.563636 
L 291.503972 -41.563636 
L 291.173915 -41.563636 
L 290.843857 -41.563636 
L 290.5138 -41.563636 
L 290.183743 -41.563636 
L 289.853686 -41.563636 
L 289.523628 -41.563636 
L 289.193571 -41.563636 
L 288.863514 -41.563636 
L 288.533456 -41.563636 
L 288.203399 -41.563636 
L 287.873342 -41.563636 
L 287.543284 -41.563636 
L 287.213227 -41.563636 
L 286.88317 -41.563636 
L 286.553112 -41.563636 
L 286.223055 -41.563636 
L 285.892998 -41.563636 
L 285.56294 -41.563636 
L 285.232883 -41.563636 
L 284.902826 -41.563636 
L 284.572768 -41.563636 
L 284.242711 -41.563636 
L 283.912654 -41.563636 
L 283.582596 -41.563636 
L 283.252539 -41.563636 
L 282.922482 -41.563636 
L 282.592424 -41.563636 
L 282.262367 -41.563636 
L 281.93231 -41.563636 
L 281.602252 -41.563636 
L 281.272195 -41.563636 
L 280.942138 -41.563636 
L 280.61208 -41.563636 
L 280.282023 -41.563636 
L 279.951966 -41.563636 
L 279.621908 -41.563636 
L 279.291851 -41.563636 
L 278.961794 -41.563636 
L 278.631736 -41.563636 
L 278.301679 -41.563636 
L 277.971622 -41.563636 
L 277.641564 -41.563636 
L 277.311507 -41.563636 
L 276.98145 -41.563636 
L 276.651392 -41.563636 
L 276.321335 -41.563636 
L 275.991278 -41.563636 
L 275.66122 -41.563636 
L 275.331163 -41.563636 
L 275.001106 -41.563636 
L 274.671048 -41.563636 
L 274.340991 -41.563636 
L 274.010934 -41.563636 
L 273.680876 -41.563636 
L 273.350819 -41.563636 
L 273.020762 -41.563636 
L 272.690704 -41.563636 
L 272.360647 -41.563636 
L 272.03059 -41.563636 
L 271.700532 -41.563636 
L 271.370475 -41.563636 
L 271.040418 -41.563636 
L 270.71036 -41.563636 
L 270.380303 -41.563636 
L 270.050246 -41.563636 
L 269.720188 -41.563636 
L 269.390131 -41.563636 
L 269.060074 -41.563636 
L 268.730016 -41.563636 
L 268.399959 -41.563636 
L 268.069902 -41.563636 
L 267.739844 -41.563636 
L 267.409787 -41.563636 
L 267.07973 -41.563636 
L 266.749672 -41.563636 
L 266.419615 -41.563636 
L 266.089558 -41.563636 
L 265.7595 -41.563636 
L 265.429443 -41.563636 
L 265.099386 -41.563636 
L 264.769328 -41.563636 
L 264.439271 -41.563636 
L 264.109214 -41.563636 
L 263.779156 -41.563636 
L 263.449099 -41.563636 
L 263.119042 -41.563636 
L 262.788984 -41.563636 
L 262.458927 -41.563636 
L 262.12887 -41.563636 
L 261.798812 -41.563636 
L 261.468755 -41.563636 
L 261.138698 -41.563636 
L 260.80864 -41.563636 
L 260.478583 -41.563636 
L 260.148526 -41.563636 
L 259.818468 -41.563636 
L 259.488411 -41.563636 
L 259.158354 -41.563636 
L 258.828296 -41.563636 
L 258.498239 -41.563636 
L 258.168182 -41.563636 
L 257.838124 -41.563636 
L 257.508067 -41.563636 
L 257.17801 -41.563636 
L 256.847952 -41.563636 
L 256.517895 -41.563636 
L 256.187838 -41.563636 
L 255.857781 -41.563636 
L 255.527723 -41.563636 
L 255.197666 -41.563636 
L 254.867609 -41.563636 
L 254.537551 -41.563636 
L 254.207494 -41.563636 
L 253.877437 -41.563636 
L 253.547379 -41.563636 
L 253.217322 -41.563636 
L 252.887265 -41.563636 
L 252.557207 -41.563636 
L 252.22715 -41.563636 
L 251.897093 -41.563636 
L 251.567035 -41.563636 
L 251.236978 -41.563636 
L 250.906921 -41.563636 
L 250.576863 -41.563636 
L 250.246806 -41.563636 
L 249.916749 -41.563636 
L 249.586691 -41.563636 
L 249.256634 -41.563636 
L 248.926577 -41.563636 
L 248.596519 -41.563636 
L 248.266462 -41.563636 
L 247.936405 -41.563636 
L 247.606347 -41.563636 
L 247.27629 -41.563636 
L 246.946233 -41.563636 
L 246.616175 -41.563636 
L 246.286118 -41.563636 
L 245.956061 -41.563636 
L 245.626003 -41.563636 
L 245.295946 -41.563636 
L 244.965889 -41.563636 
L 244.635831 -41.563636 
L 244.305774 -41.563636 
L 243.975717 -41.563636 
L 243.645659 -41.563636 
L 243.315602 -41.563636 
L 242.985545 -41.563636 
L 242.655487 -41.563636 
L 242.32543 -41.563636 
L 241.995373 -41.563636 
L 241.665315 -41.563636 
L 241.335258 -41.563636 
L 241.005201 -41.563636 
L 240.675143 -41.563636 
L 240.345086 -41.563636 
L 240.015029 -41.563636 
L 239.684971 -41.563636 
L 239.354914 -41.563636 
L 239.024857 -41.563636 
L 238.694799 -41.563636 
L 238.364742 -41.563636 
L 238.034685 -41.563636 
L 237.704627 -41.563636 
L 237.37457 -41.563636 
L 237.044513 -41.563636 
L 236.714455 -41.563636 
L 236.384398 -41.563636 
L 236.054341 -41.563636 
L 235.724283 -41.563636 
L 235.394226 -41.563636 
L 235.064169 -41.563636 
L 234.734111 -41.563636 
L 234.404054 -41.563636 
L 234.073997 -41.563636 
L 233.743939 -41.563636 
L 233.413882 -41.563636 
L 233.083825 -41.563636 
L 232.753767 -41.563636 
L 232.42371 -41.563636 
L 232.093653 -41.563636 
L 231.763595 -41.563636 
L 231.433538 -41.563636 
L 231.103481 -41.563636 
L 230.773423 -41.563636 
L 230.443366 -41.563636 
L 230.113309 -41.563636 
L 229.783251 -41.563636 
L 229.453194 -41.563636 
L 229.123137 -41.563636 
L 228.793079 -41.563636 
L 228.463022 -41.563636 
L 228.132965 -41.563636 
L 227.802907 -41.563636 
L 227.47285 -41.563636 
L 227.142793 -41.563636 
L 226.812735 -41.563636 
L 226.482678 -41.563636 
L 226.152621 -41.563636 
L 225.822563 -41.563636 
L 225.492506 -41.563636 
L 225.162449 -41.563636 
L 224.832391 -41.563636 
L 224.502334 -41.563636 
L 224.172277 -41.563636 
L 223.842219 -41.563636 
L 223.512162 -41.563636 
L 223.182105 -41.563636 
L 222.852048 -41.563636 
L 222.52199 -41.563636 
L 222.191933 -41.563636 
L 221.861876 -41.563636 
L 221.531818 -41.563636 
L 221.201761 -41.563636 
L 220.871704 -41.563636 
L 220.541646 -41.563636 
L 220.211589 -41.563636 
L 219.881532 -41.563636 
L 219.551474 -41.563636 
L 219.221417 -41.563636 
L 218.89136 -41.563636 
L 218.561302 -41.563636 
L 218.231245 -41.563636 
L 217.901188 -41.563636 
L 217.57113 -41.563636 
L 217.241073 -41.563636 
L 216.911016 -41.563636 
L 216.580958 -41.563636 
L 216.250901 -41.563636 
L 215.920844 -41.563636 
L 215.590786 -41.563636 
L 215.260729 -41.563636 
L 214.930672 -41.563636 
L 214.600614 -41.563636 
L 214.270557 -41.563636 
L 213.9405 -41.563636 
L 213.610442 -41.563636 
L 213.280385 -41.563636 
L 212.950328 -41.563636 
L 212.62027 -41.563636 
L 212.290213 -41.563636 
L 211.960156 -41.563636 
L 211.630098 -41.563636 
L 211.300041 -41.563636 
L 210.969984 -41.563636 
L 210.639926 -41.563636 
L 210.309869 -41.563636 
L 209.979812 -41.563636 
L 209.649754 -41.563636 
L 209.319697 -41.563636 
L 208.98964 -41.563636 
L 208.659582 -41.563636 
L 208.329525 -41.563636 
L 207.999468 -41.563636 
L 207.66941 -41.563636 
L 207.339353 -41.563636 
L 207.009296 -41.563636 
L 206.679238 -41.563636 
L 206.349181 -41.563636 
L 206.019124 -41.563636 
L 205.689066 -41.563636 
L 205.359009 -41.563636 
L 205.028952 -41.563636 
L 204.698894 -41.563636 
L 204.368837 -41.563636 
L 204.03878 -41.563636 
L 203.708722 -41.563636 
L 203.378665 -41.563636 
L 203.048608 -41.563636 
L 202.71855 -41.563636 
L 202.388493 -41.563636 
L 202.058436 -41.563636 
L 201.728378 -41.563636 
L 201.398321 -41.563636 
L 201.068264 -41.563636 
L 200.738206 -41.563636 
L 200.408149 -41.563636 
L 200.078092 -41.563636 
L 199.748034 -41.563636 
L 199.417977 -41.563636 
L 199.08792 -41.563636 
L 198.757862 -41.563636 
L 198.427805 -41.563636 
L 198.097748 -41.563636 
L 197.76769 -41.563636 
L 197.437633 -41.563636 
L 197.107576 -41.563636 
L 196.777518 -41.563636 
L 196.447461 -41.563636 
L 196.117404 -41.563636 
L 195.787346 -41.563636 
L 195.457289 -41.563636 
L 195.127232 -41.563636 
L 194.797174 -41.563636 
L 194.467117 -41.563636 
L 194.13706 -41.563636 
L 193.807002 -41.563636 
L 193.476945 -41.563636 
L 193.146888 -41.563636 
L 192.81683 -41.563636 
L 192.486773 -41.563636 
L 192.156716 -41.563636 
L 191.826658 -41.563636 
L 191.496601 -41.563636 
L 191.166544 -41.563636 
L 190.836486 -41.563636 
L 190.506429 -41.563636 
L 190.176372 -41.563636 
L 189.846314 -41.563636 
L 189.516257 -41.563636 
L 189.1862 -41.563636 
L 188.856143 -41.563636 
L 188.526085 -41.563636 
L 188.196028 -41.563636 
L 187.865971 -41.563636 
L 187.535913 -41.563636 
L 187.205856 -41.563636 
L 186.875799 -41.563636 
L 186.545741 -41.563636 
L 186.215684 -41.563636 
L 185.885627 -41.563636 
L 185.555569 -41.563636 
L 185.225512 -41.563636 
L 184.895455 -41.563636 
L 184.565397 -41.563636 
L 184.23534 -41.563636 
L 183.905283 -41.563636 
L 183.575225 -41.563636 
L 183.245168 -41.563636 
L 182.915111 -41.563636 
L 182.585053 -41.563636 
L 182.254996 -41.563636 
L 181.924939 -41.563636 
L 181.594881 -41.563636 
L 181.264824 -41.563636 
L 180.934767 -41.563636 
L 180.604709 -41.563636 
L 180.274652 -41.563636 
L 179.944595 -41.563636 
L 179.614537 -41.563636 
L 179.28448 -41.563636 
L 178.954423 -41.563636 
L 178.624365 -41.563636 
L 178.294308 -41.563636 
L 177.964251 -41.563636 
L 177.634193 -41.563636 
L 177.304136 -41.563636 
L 176.974079 -41.563636 
L 176.644021 -41.563636 
L 176.313964 -41.563636 
L 175.983907 -41.563636 
L 175.653849 -41.563636 
L 175.323792 -41.563636 
L 174.993735 -41.563636 
L 174.663677 -41.563636 
L 174.33362 -41.563636 
L 174.003563 -41.563636 
L 173.673505 -41.563636 
L 173.343448 -41.563636 
L 173.013391 -41.563636 
L 172.683333 -41.563636 
L 172.353276 -41.563636 
L 172.023219 -41.563636 
L 171.693161 -41.563636 
L 171.363104 -41.563636 
L 171.033047 -41.563636 
L 170.702989 -41.563636 
L 170.372932 -41.563636 
L 170.042875 -41.563636 
L 169.712817 -41.563636 
L 169.38276 -41.563636 
L 169.052703 -41.563636 
L 168.722645 -41.563636 
L 168.392588 -41.563636 
L 168.062531 -41.563636 
L 167.732473 -41.563636 
L 167.402416 -41.563636 
L 167.072359 -41.563636 
L 166.742301 -41.563636 
L 166.412244 -41.563636 
L 166.082187 -41.563636 
L 165.752129 -41.563636 
L 165.422072 -41.563636 
L 165.092015 -41.563636 
L 164.761957 -41.563636 
L 164.4319 -41.563636 
L 164.101843 -41.563636 
L 163.771785 -41.563636 
L 163.441728 -41.563636 
L 163.111671 -41.563636 
L 162.781613 -41.563636 
L 162.451556 -41.563636 
L 162.121499 -41.563636 
L 161.791441 -41.563636 
L 161.461384 -41.563636 
L 161.131327 -41.563636 
L 160.801269 -41.563636 
L 160.471212 -41.563636 
L 160.141155 -41.563636 
L 159.811097 -41.563636 
L 159.48104 -41.563636 
L 159.150983 -41.563636 
L 158.820925 -41.563636 
L 158.490868 -41.563636 
L 158.160811 -41.563636 
L 157.830753 -41.563636 
L 157.500696 -41.563636 
L 157.170639 -41.563636 
L 156.840581 -41.563636 
L 156.510524 -41.563636 
L 156.180467 -41.563636 
L 155.85041 -41.563636 
L 155.520352 -41.563636 
L 155.190295 -41.563636 
L 154.860238 -41.563636 
L 154.53018 -41.563636 
L 154.200123 -41.563636 
L 153.870066 -41.563636 
L 153.540008 -41.563636 
L 153.209951 -41.563636 
L 152.879894 -41.563636 
L 152.549836 -41.563636 
L 152.219779 -41.563636 
L 151.889722 -41.563636 
L 151.559664 -41.563636 
L 151.229607 -41.563636 
L 150.89955 -41.563636 
L 150.569492 -41.563636 
L 150.239435 -41.563636 
L 149.909378 -41.563636 
L 149.57932 -41.563636 
L 149.249263 -41.563636 
L 148.919206 -41.563636 
L 148.589148 -41.563636 
L 148.259091 -41.563636 
L 147.929034 -41.563636 
L 147.598976 -41.563636 
L 147.268919 -41.563636 
L 146.938862 -41.563636 
L 146.608804 -41.563636 
L 146.278747 -41.563636 
L 145.94869 -41.563636 
L 145.618632 -41.563636 
L 145.288575 -41.563636 
L 144.958518 -41.563636 
L 144.62846 -41.563636 
L 144.298403 -41.563636 
L 143.968346 -41.563636 
L 143.638288 -41.563636 
L 143.308231 -41.563636 
L 142.978174 -41.563636 
L 142.648116 -41.563636 
L 142.318059 -41.563636 
L 141.988002 -41.563636 
L 141.657944 -41.563636 
L 141.327887 -41.563636 
L 140.99783 -41.563636 
L 140.667772 -41.563636 
L 140.337715 -41.563636 
L 140.007658 -41.563636 
L 139.6776 -41.563636 
L 139.347543 -41.563636 
L 139.017486 -41.563636 
L 138.687428 -41.563636 
L 138.357371 -41.563636 
L 138.027314 -41.563636 
L 137.697256 -41.563636 
L 137.367199 -41.563636 
L 137.037142 -41.563636 
L 136.707084 -41.563636 
L 136.377027 -41.563636 
L 136.04697 -41.563636 
L 135.716912 -41.563636 
L 135.386855 -41.563636 
L 135.056798 -41.563636 
L 134.72674 -41.563636 
L 134.396683 -41.563636 
L 134.066626 -41.563636 
L 133.736568 -41.563636 
L 133.406511 -41.563636 
L 133.076454 -41.563636 
L 132.746396 -41.563636 
L 132.416339 -41.563636 
L 132.086282 -41.563636 
L 131.756224 -41.563636 
L 131.426167 -41.563636 
L 131.09611 -41.563636 
L 130.766052 -41.563636 
L 130.435995 -41.563636 
L 130.105938 -41.563636 
L 129.77588 -41.563636 
L 129.445823 -41.563636 
L 129.115766 -41.563636 
L 128.785708 -41.563636 
L 128.455651 -41.563636 
L 128.125594 -41.563636 
L 127.795536 -41.563636 
L 127.465479 -41.563636 
L 127.135422 -41.563636 
L 126.805364 -41.563636 
L 126.475307 -41.563636 
L 126.14525 -41.563636 
L 125.815192 -41.563636 
L 125.485135 -41.563636 
L 125.155078 -41.563636 
L 124.82502 -41.563636 
L 124.494963 -41.563636 
L 124.164906 -41.563636 
L 123.834848 -41.563636 
L 123.504791 -41.563636 
L 123.174734 -41.563636 
L 122.844676 -41.563636 
L 122.514619 -41.563636 
L 122.184562 -41.563636 
L 121.854505 -41.563636 
L 121.524447 -41.563636 
L 121.19439 -41.563636 
L 120.864333 -41.563636 
L 120.534275 -41.563636 
L 120.204218 -41.563636 
L 119.874161 -41.563636 
L 119.544103 -41.563636 
L 119.214046 -41.563636 
L 118.883989 -41.563636 
L 118.553931 -41.563636 
L 118.223874 -41.563636 
L 117.893817 -41.563636 
L 117.563759 -41.563636 
L 117.233702 -41.563636 
L 116.903645 -41.563636 
L 116.573587 -41.563636 
L 116.24353 -41.563636 
L 115.913473 -41.563636 
L 115.583415 -41.563636 
L 115.253358 -41.563636 
L 114.923301 -41.563636 
L 114.593243 -41.563636 
L 114.263186 -41.563636 
L 113.933129 -41.563636 
L 113.603071 -41.563636 
L 113.273014 -41.563636 
L 112.942957 -41.563636 
L 112.612899 -41.563636 
L 112.282842 -41.563636 
L 111.952785 -41.563636 
L 111.622727 -41.563636 
L 111.29267 -41.563636 
L 110.962613 -41.563636 
L 110.632555 -41.563636 
L 110.302498 -41.563636 
L 109.972441 -41.563636 
L 109.642383 -41.563636 
L 109.312326 -41.563636 
L 108.982269 -41.563636 
L 108.652211 -41.563636 
L 108.322154 -41.563636 
L 107.992097 -41.563636 
L 107.662039 -41.563636 
L 107.331982 -41.563636 
L 107.001925 -41.563636 
L 106.671867 -41.563636 
L 106.34181 -41.563636 
L 106.011753 -41.563636 
L 105.681695 -41.563636 
L 105.351638 -41.563636 
L 105.021581 -41.563636 
L 104.691523 -41.563636 
L 104.361466 -41.563636 
L 104.031409 -41.563636 
L 103.701351 -41.563636 
L 103.371294 -41.563636 
L 103.041237 -41.563636 
L 102.711179 -41.563636 
L 102.381122 -41.563636 
L 102.051065 -41.563636 
L 101.721007 -41.563636 
L 101.39095 -41.563636 
L 101.060893 -41.563636 
L 100.730835 -41.563636 
L 100.400778 -41.563636 
L 100.070721 -41.563636 
L 99.740663 -41.563636 
L 99.410606 -41.563636 
L 99.080549 -41.563636 
L 98.750491 -41.563636 
L 98.420434 -41.563636 
L 98.090377 -41.563636 
L 97.760319 -41.563636 
L 97.430262 -41.563636 
L 97.100205 -41.563636 
L 96.770147 -41.563636 
L 96.44009 -41.563636 
L 96.110033 -41.563636 
L 95.779975 -41.563636 
L 95.449918 -41.563636 
L 95.119861 -41.563636 
L 94.789803 -41.563636 
L 94.459746 -41.563636 
L 94.129689 -41.563636 
L 93.799631 -41.563636 
L 93.469574 -41.563636 
L 93.139517 -41.563636 
L 92.809459 -41.563636 
L 92.479402 -41.563636 
L 92.149345 -41.563636 
L 91.819287 -41.563636 
L 91.48923 -41.563636 
L 91.159173 -41.563636 
L 90.829115 -41.563636 
L 90.499058 -41.563636 
L 90.169001 -41.563636 
L 89.838943 -41.563636 
L 89.508886 -41.563636 
L 89.178829 -41.563636 
L 88.848771 -41.563636 
L 88.518714 -41.563636 
L 88.188657 -41.563636 
L 87.8586 -41.563636 
L 87.528542 -41.563636 
L 87.198485 -41.563636 
L 86.868428 -41.563636 
L 86.53837 -41.563636 
L 86.208313 -41.563636 
L 85.878256 -41.563636 
L 85.548198 -41.563636 
L 85.218141 -41.563636 
L 84.888084 -41.563636 
L 84.558026 -41.563636 
L 84.227969 -41.563636 
L 83.897912 -41.563636 
L 83.567854 -41.563636 
L 83.237797 -41.563636 
L 82.90774 -41.563636 
L 82.577682 -41.563636 
L 82.247625 -41.563636 
L 81.917568 -41.563636 
L 81.58751 -41.563636 
L 81.257453 -41.563636 
L 80.927396 -41.563636 
L 80.597338 -41.563636 
L 80.267281 -41.563636 
L 79.937224 -41.563636 
L 79.607166 -41.563636 
L 79.277109 -41.563636 
L 78.947052 -41.563636 
L 78.616994 -41.563636 
L 78.286937 -41.563636 
L 77.95688 -41.563636 
L 77.626822 -41.563636 
L 77.296765 -41.563636 
L 76.966708 -41.563636 
L 76.63665 -41.563636 
L 76.306593 -41.563636 
L 75.976536 -41.563636 
L 75.646478 -41.563636 
L 75.316421 -41.563636 
L 74.986364 -41.563636 
z
" style="stroke: #000000; stroke-opacity: 0.1; stroke-width: 0.5"/>
    </defs>
    <g clip-path="url(#pbf1121d618)">
     <use xlink:href="#m544a295dbc" x="0" y="180" style="fill-opacity: 0.1; stroke: #000000; stroke-opacity: 0.1; stroke-width: 0.5"/>
    </g>
   </g>
   <g id="line2d_23">
    <path d="M 74.986364 138.436364 
L 78.947052 124.163748 
L 82.90774 124.163748 
L 83.237797 124.034875 
L 157.500696 39.785366 
L 404.713636 27.163636 
L 404.713636 27.163636 
" clip-path="url(#pbf1121d618)" style="fill: none; stroke-dasharray: 2.59,1.12; stroke-dashoffset: 0; stroke: #000000; stroke-width: 0.7"/>
   </g>
   <g id="line2d_24">
    <path d="M 74.986364 138.436364 
L 78.947052 124.163748 
L 87.528542 124.163748 
L 89.178829 122.326992 
L 161.791441 39.90695 
L 162.451556 39.75858 
L 404.713636 27.163636 
L 404.713636 27.163636 
" clip-path="url(#pbf1121d618)" style="fill: none; stroke: #000000; stroke-width: 0.7; stroke-linecap: square"/>
   </g>
   <g id="patch_3">
    <path d="M 58.5 144 
L 58.5 21.6 
" style="fill: none; stroke: #000000; stroke-width: 0.5; stroke-linejoin: miter; stroke-linecap: square"/>
   </g>
   <g id="patch_4">
    <path d="M 58.5 144 
L 421.2 144 
" style="fill: none; stroke: #000000; stroke-width: 0.5; stroke-linejoin: miter; stroke-linecap: square"/>
   </g>
   <g id="legend_1">
    <g id="patch_5">
     <path d="M 318.189901 139 
L 414.2 139 
Q 416.2 139 416.2 137 
L 416.2 124.062822 
Q 416.2 122.062822 414.2 122.062822 
L 318.189901 122.062822 
Q 316.189901 122.062822 316.189901 124.062822 
L 316.189901 137 
Q 316.189901 139 318.189901 139 
z
" style="fill: #ffffff; opacity: 0.8; stroke: #cccccc; stroke-width: 0.5; stroke-linejoin: miter"/>
    </g>
    <g id="line2d_25">
     <path d="M 320.189901 129.562822 
L 330.189901 129.562822 
L 340.189901 129.562822 
" style="fill: none; stroke-dasharray: 2.59,1.12; stroke-dashoffset: 0; stroke: #000000; stroke-width: 0.7"/>
    </g>
    <g id="text_14">
     <!-- Zugversteifung -->
     <g transform="translate(348.189901 133.062822) scale(0.1 -0.1)">
      <defs>
       <path id="CMR17-5a" d="M 3302 4230 
C 3302 4352 3296 4352 3162 4352 
L 442 4352 
L 378 2948 
L 493 2948 
C 531 3675 723 4192 1760 4192 
L 2816 4192 
L 339 204 
C 294 134 294 127 294 83 
C 294 0 307 0 435 0 
L 3245 0 
L 3334 1666 
L 3219 1666 
C 3162 829 3117 178 1894 178 
L 781 178 
L 3302 4230 
z
" transform="scale(0.015625)"/>
       <path id="CMR17-75" d="M 1882 2693 
L 1882 2528 
C 2259 2528 2317 2489 2317 2186 
L 2317 1032 
C 2317 500 2029 38 1555 38 
C 1030 38 986 348 986 678 
L 986 2763 
L 211 2693 
L 211 2528 
C 467 2528 640 2528 646 2274 
L 646 1058 
C 646 633 646 361 813 183 
C 896 101 1056 -64 1517 -64 
C 2061 -64 2272 377 2323 506 
L 2330 506 
L 2330 -63 
L 3091 -63 
L 3091 128 
C 2714 128 2656 166 2656 473 
L 2656 2763 
L 1882 2693 
z
" transform="scale(0.015625)"/>
       <path id="CMR17-67" d="M 710 1164 
C 832 1068 1043 960 1299 960 
C 1805 960 2240 1357 2240 1888 
C 2240 2054 2189 2310 1997 2509 
C 2176 2692 2438 2752 2586 2752 
C 2611 2752 2650 2752 2682 2734 
C 2656 2728 2598 2703 2598 2605 
C 2598 2527 2656 2471 2739 2471 
C 2835 2471 2886 2533 2886 2614 
C 2886 2731 2790 2854 2586 2854 
C 2330 2854 2106 2738 1926 2580 
C 1734 2753 1504 2816 1299 2816 
C 794 2816 358 2419 358 1888 
C 358 1522 570 1292 634 1228 
C 442 1004 442 743 442 711 
C 442 545 506 302 723 168 
C 390 85 128 -169 128 -486 
C 128 -943 736 -1280 1466 -1280 
C 2170 -1280 2803 -956 2803 -479 
C 2803 384 1856 384 1363 384 
C 1216 384 954 384 922 391 
C 723 423 589 602 589 826 
C 589 883 589 1024 710 1164 
z
M 1299 1068 
C 736 1068 736 1760 736 1889 
C 736 2016 736 2708 1299 2708 
C 1862 2708 1862 2016 1862 1889 
C 1862 1760 1862 1068 1299 1068 
z
M 1466 -1171 
C 826 -1171 384 -835 384 -486 
C 384 -289 493 -105 634 -4 
C 794 104 858 104 1293 104 
C 1818 104 2547 104 2547 -486 
C 2547 -835 2106 -1171 1466 -1171 
z
" transform="scale(0.015625)"/>
       <path id="CMR17-76" d="M 2502 2163 
C 2560 2304 2662 2560 3034 2560 
L 3034 2726 
C 2912 2726 2752 2726 2630 2726 
C 2496 2726 2285 2726 2157 2732 
L 2157 2566 
C 2317 2553 2406 2477 2406 2311 
C 2406 2253 2406 2240 2368 2151 
L 1664 377 
L 902 2286 
C 864 2369 864 2381 864 2407 
C 864 2560 1075 2560 1171 2560 
L 1171 2732 
C 1018 2726 736 2726 576 2726 
C 403 2726 205 2726 64 2732 
L 64 2560 
C 307 2560 442 2560 518 2362 
L 1446 44 
C 1485 -51 1491 -64 1549 -64 
C 1606 -64 1613 -51 1651 44 
L 2502 2163 
z
" transform="scale(0.015625)"/>
       <path id="CMR17-65" d="M 2438 1472 
C 2464 1498 2464 1511 2464 1576 
C 2464 2238 2118 2816 1389 2816 
C 710 2816 173 2169 173 1383 
C 173 551 781 -64 1459 -64 
C 2176 -64 2458 607 2458 740 
C 2458 784 2419 784 2406 784 
C 2362 784 2355 771 2330 696 
C 2189 265 1837 51 1504 51 
C 1229 51 954 203 781 480 
C 582 803 582 1176 582 1472 
L 2438 1472 
z
M 589 1568 
C 634 2505 1126 2714 1382 2714 
C 1818 2714 2112 2297 2118 1568 
L 589 1568 
z
" transform="scale(0.015625)"/>
       <path id="CMR17-72" d="M 960 1497 
C 960 2112 1222 2688 1702 2688 
C 1747 2688 1792 2682 1837 2662 
C 1837 2662 1696 2617 1696 2452 
C 1696 2298 1818 2234 1914 2234 
C 1990 2234 2131 2279 2131 2458 
C 2131 2663 1926 2790 1709 2790 
C 1222 2790 1011 2317 947 2093 
L 941 2093 
L 941 2790 
L 198 2720 
L 198 2554 
C 576 2554 634 2515 634 2208 
L 634 428 
C 634 184 608 153 198 153 
L 198 -13 
C 352 0 646 0 813 0 
C 998 0 1325 0 1498 -13 
L 1498 153 
C 1037 153 960 153 960 440 
L 960 1497 
z
" transform="scale(0.015625)"/>
       <path id="CMR17-73" d="M 1978 2697 
C 1978 2813 1971 2819 1933 2819 
C 1907 2819 1901 2813 1824 2717 
C 1805 2691 1747 2626 1728 2601 
C 1523 2819 1235 2819 1126 2819 
C 416 2819 160 2447 160 2076 
C 160 1498 813 1365 998 1325 
C 1402 1243 1542 1217 1677 1101 
C 1760 1025 1901 884 1901 654 
C 1901 384 1747 38 1158 38 
C 602 38 403 460 288 1021 
C 269 1110 269 1117 218 1117 
C 166 1117 160 1110 160 983 
L 160 63 
C 160 -51 166 -58 205 -58 
C 237 -58 243 -51 275 0 
C 314 57 410 211 448 276 
C 576 103 800 -64 1158 -64 
C 1792 -64 2131 283 2131 784 
C 2131 1112 1958 1285 1875 1362 
C 1683 1561 1459 1606 1190 1657 
C 838 1735 390 1825 390 2217 
C 390 2383 480 2737 1126 2737 
C 1811 2737 1850 2094 1862 1888 
C 1869 1856 1901 1849 1920 1849 
C 1978 1849 1978 1869 1978 1978 
L 1978 2697 
z
" transform="scale(0.015625)"/>
       <path id="CMR17-74" d="M 966 2560 
L 1862 2560 
L 1862 2725 
L 966 2725 
L 966 3904 
L 851 3904 
C 838 3245 614 2668 70 2668 
L 70 2560 
L 627 2560 
L 627 771 
C 627 650 627 -64 1370 -64 
C 1747 -64 1965 306 1965 777 
L 1965 1140 
L 1850 1140 
L 1850 783 
C 1850 344 1677 51 1408 51 
C 1222 51 966 178 966 758 
L 966 2560 
z
" transform="scale(0.015625)"/>
       <path id="CMR17-69" d="M 992 3909 
C 992 4049 877 4170 730 4170 
C 589 4170 467 4056 467 3909 
C 467 3769 582 3648 730 3648 
C 870 3648 992 3763 992 3909 
z
M 243 2706 
L 243 2541 
C 602 2541 653 2502 653 2197 
L 653 427 
C 653 184 627 153 218 153 
L 218 -13 
C 371 0 646 0 806 0 
C 960 0 1222 0 1370 -13 
L 1370 153 
C 992 153 979 191 979 420 
L 979 2776 
L 243 2706 
z
" transform="scale(0.015625)"/>
       <path id="CMR17-66" d="M 979 2560 
L 1709 2560 
L 1709 2725 
L 966 2725 
L 966 3494 
C 966 4022 1235 4352 1510 4352 
C 1594 4352 1690 4327 1754 4282 
C 1702 4269 1568 4225 1568 4067 
C 1568 3901 1696 3850 1786 3850 
C 1875 3850 2003 3901 2003 4067 
C 2003 4308 1773 4454 1517 4454 
C 1152 4454 653 4156 653 3481 
L 653 2725 
L 141 2725 
L 141 2560 
L 653 2560 
L 653 427 
C 653 184 627 153 218 153 
L 218 -13 
C 371 0 666 0 832 0 
C 1018 0 1344 0 1517 -13 
L 1517 153 
C 1056 153 979 153 979 439 
L 979 2560 
z
" transform="scale(0.015625)"/>
       <path id="CMR17-6e" d="M 2656 1933 
C 2656 2259 2592 2790 1837 2790 
C 1331 2790 1069 2400 973 2144 
L 966 2144 
L 966 2790 
L 211 2720 
L 211 2554 
C 589 2554 646 2515 646 2208 
L 646 428 
C 646 184 621 153 211 153 
L 211 -13 
C 365 0 646 0 813 0 
C 979 0 1267 0 1421 -13 
L 1421 153 
C 1011 153 986 178 986 428 
L 986 1658 
C 986 2247 1344 2688 1792 2688 
C 2266 2688 2317 2266 2317 1958 
L 2317 428 
C 2317 184 2291 153 1882 153 
L 1882 -13 
C 2035 0 2317 0 2483 0 
C 2650 0 2938 0 3091 -13 
L 3091 153 
C 2682 153 2656 178 2656 428 
L 2656 1933 
z
" transform="scale(0.015625)"/>
      </defs>
      <use xlink:href="#CMR17-5a" transform="scale(0.996264)"/>
      <use xlink:href="#CMR17-75" transform="translate(56.100171 0) scale(0.996264)"/>
      <use xlink:href="#CMR17-67" transform="translate(106.995541 0) scale(0.996264)"/>
      <use xlink:href="#CMR17-76" transform="translate(152.686018 0) scale(0.996264)"/>
      <use xlink:href="#CMR17-65" transform="translate(198.37648 0) scale(0.996264)"/>
      <use xlink:href="#CMR17-72" transform="translate(238.862141 0) scale(0.996264)"/>
      <use xlink:href="#CMR17-73" transform="translate(274.142908 0) scale(0.996264)"/>
      <use xlink:href="#CMR17-74" transform="translate(309.944246 0) scale(0.996264)"/>
      <use xlink:href="#CMR17-65" transform="translate(345.225014 0) scale(0.996264)"/>
      <use xlink:href="#CMR17-69" transform="translate(385.710674 0) scale(0.996264)"/>
      <use xlink:href="#CMR17-66" transform="translate(410.581733 0) scale(0.996264)"/>
      <use xlink:href="#CMR17-75" transform="translate(438.055245 0) scale(0.996264)"/>
      <use xlink:href="#CMR17-6e" transform="translate(488.950615 0) scale(0.996264)"/>
      <use xlink:href="#CMR17-67" transform="translate(539.845985 0) scale(0.996264)"/>
     </g>
    </g>
   </g>
  </g>
 </g>
 <defs>
  <clipPath id="pbf1121d618">
   <rect x="58.5" y="21.6" width="362.7" height="122.4"/>
  </clipPath>
 </defs>
</svg>
