<?xml version="1.0" encoding="utf-8" standalone="no"?>
<!DOCTYPE svg PUBLIC "-//W3C//DTD SVG 1.1//EN"
  "http://www.w3.org/Graphics/SVG/1.1/DTD/svg11.dtd">
<svg xmlns:xlink="http://www.w3.org/1999/xlink" width="468pt" height="180pt" viewBox="0 0 468 180" xmlns="http://www.w3.org/2000/svg" version="1.1">
 <metadata>
  <rdf:RDF xmlns:dc="http://purl.org/dc/elements/1.1/" xmlns:cc="http://creativecommons.org/ns#" xmlns:rdf="http://www.w3.org/1999/02/22-rdf-syntax-ns#">
   <cc:Work>
    <dc:type rdf:resource="http://purl.org/dc/dcmitype/StillImage"/>
    <dc:date>2024-04-30T13:54:57.148439</dc:date>
    <dc:format>image/svg+xml</dc:format>
    <dc:creator>
     <cc:Agent>
      <dc:title>Matplotlib v3.8.3, https://matplotlib.org/</dc:title>
     </cc:Agent>
    </dc:creator>
   </cc:Work>
  </rdf:RDF>
 </metadata>
 <defs>
  <style type="text/css">*{stroke-linejoin: round; stroke-linecap: butt}</style>
 </defs>
 <g id="figure_1">
  <g id="patch_1">
   <path d="M 0 180 
L 468 180 
L 468 0 
L 0 0 
z
" style="fill: #ffffff"/>
  </g>
  <g id="axes_1">
   <g id="patch_2">
    <path d="M 58.5 144 
L 421.2 144 
L 421.2 21.6 
L 58.5 21.6 
z
" style="fill: #ffffff"/>
   </g>
   <g id="matplotlib.axis_1">
    <g id="xtick_1">
     <g id="line2d_1">
      <path d="M 74.986364 144 
L 74.986364 21.6 
" clip-path="url(#pe6f3b1784e)" style="fill: none; stroke: #d3d3d3; stroke-width: 0.2; stroke-linecap: square"/>
     </g>
     <g id="line2d_2">
      <defs>
       <path id="mfe272a34be" d="M 0 0 
L 0 -3.5 
" style="stroke: #000000; stroke-width: 0.8"/>
      </defs>
      <g>
       <use xlink:href="#mfe272a34be" x="74.986364" y="144" style="stroke: #000000; stroke-width: 0.8"/>
      </g>
     </g>
     <g id="text_1">
      <!-- $\mathdefault{−1.00}$ -->
      <g transform="translate(62.256285 154.418498) scale(0.1 -0.1)">
       <defs>
        <path id="CMSY10-0" d="M 4218 1472 
C 4326 1472 4442 1472 4442 1600 
C 4442 1728 4326 1728 4218 1728 
L 755 1728 
C 646 1728 531 1728 531 1600 
C 531 1472 646 1472 755 1472 
L 4218 1472 
z
" transform="scale(0.015625)"/>
        <path id="CMR17-31" d="M 1702 4058 
C 1702 4192 1696 4192 1606 4192 
C 1357 3916 979 3827 621 3827 
C 602 3827 570 3827 563 3808 
C 557 3795 557 3782 557 3648 
C 755 3648 1088 3686 1344 3839 
L 1344 461 
C 1344 236 1331 160 781 160 
L 589 160 
L 589 0 
C 896 0 1216 0 1523 0 
C 1830 0 2150 0 2458 0 
L 2458 160 
L 2266 160 
C 1715 160 1702 230 1702 458 
L 1702 4058 
z
" transform="scale(0.015625)"/>
        <path id="CMMI12-3a" d="M 1178 307 
C 1178 492 1024 619 870 619 
C 685 619 557 466 557 313 
C 557 128 710 0 864 0 
C 1050 0 1178 153 1178 307 
z
" transform="scale(0.015625)"/>
        <path id="CMR17-30" d="M 2688 2025 
C 2688 2416 2682 3080 2413 3591 
C 2176 4039 1798 4198 1466 4198 
C 1158 4198 768 4058 525 3597 
C 269 3118 243 2524 243 2025 
C 243 1661 250 1106 448 619 
C 723 -39 1216 -128 1466 -128 
C 1760 -128 2208 -7 2470 600 
C 2662 1042 2688 1559 2688 2025 
z
M 1466 -26 
C 1056 -26 813 325 723 812 
C 653 1188 653 1738 653 2096 
C 653 2588 653 2997 736 3387 
C 858 3929 1216 4096 1466 4096 
C 1728 4096 2067 3923 2189 3400 
C 2272 3036 2278 2607 2278 2096 
C 2278 1680 2278 1169 2202 792 
C 2067 95 1690 -26 1466 -26 
z
" transform="scale(0.015625)"/>
       </defs>
       <use xlink:href="#CMSY10-0" transform="scale(0.996264)"/>
       <use xlink:href="#CMR17-31" transform="translate(77.487468 0) scale(0.996264)"/>
       <use xlink:href="#CMMI12-3a" transform="translate(123.177945 0) scale(0.996264)"/>
       <use xlink:href="#CMR17-30" transform="translate(150.275122 0) scale(0.996264)"/>
       <use xlink:href="#CMR17-30" transform="translate(195.965599 0) scale(0.996264)"/>
      </g>
     </g>
    </g>
    <g id="xtick_2">
     <g id="line2d_3">
      <path d="M 116.202273 144 
L 116.202273 21.6 
" clip-path="url(#pe6f3b1784e)" style="fill: none; stroke: #d3d3d3; stroke-width: 0.2; stroke-linecap: square"/>
     </g>
     <g id="line2d_4">
      <g>
       <use xlink:href="#mfe272a34be" x="116.202273" y="144" style="stroke: #000000; stroke-width: 0.8"/>
      </g>
     </g>
     <g id="text_2">
      <!-- $\mathdefault{−0.75}$ -->
      <g transform="translate(103.472194 154.418498) scale(0.1 -0.1)">
       <defs>
        <path id="CMR17-37" d="M 2886 3941 
L 2886 4081 
L 1382 4081 
C 634 4081 621 4165 595 4288 
L 480 4288 
L 294 3094 
L 410 3094 
C 429 3215 474 3540 550 3661 
C 589 3712 1062 3712 1171 3712 
L 2579 3712 
L 1869 2661 
C 1395 1954 1069 999 1069 165 
C 1069 89 1069 -128 1299 -128 
C 1530 -128 1530 89 1530 171 
L 1530 465 
C 1530 1508 1709 2196 2003 2636 
L 2886 3941 
z
" transform="scale(0.015625)"/>
        <path id="CMR17-35" d="M 730 3692 
C 794 3666 1056 3584 1325 3584 
C 1920 3584 2246 3911 2432 4100 
C 2432 4157 2432 4192 2394 4192 
C 2387 4192 2374 4192 2323 4163 
C 2099 4058 1837 3973 1517 3973 
C 1325 3973 1037 3999 723 4139 
C 653 4171 640 4171 634 4171 
C 602 4171 595 4164 595 4037 
L 595 2203 
C 595 2089 595 2057 659 2057 
C 691 2057 704 2070 736 2114 
C 941 2401 1222 2522 1542 2522 
C 1766 2522 2246 2382 2246 1289 
C 2246 1085 2246 715 2054 421 
C 1894 159 1645 25 1370 25 
C 947 25 518 320 403 814 
C 429 807 480 795 506 795 
C 589 795 749 840 749 1038 
C 749 1210 627 1280 506 1280 
C 358 1280 262 1190 262 1011 
C 262 454 704 -128 1382 -128 
C 2042 -128 2669 440 2669 1264 
C 2669 2030 2170 2624 1549 2624 
C 1222 2624 947 2503 730 2274 
L 730 3692 
z
" transform="scale(0.015625)"/>
       </defs>
       <use xlink:href="#CMSY10-0" transform="scale(0.996264)"/>
       <use xlink:href="#CMR17-30" transform="translate(77.487468 0) scale(0.996264)"/>
       <use xlink:href="#CMMI12-3a" transform="translate(123.177945 0) scale(0.996264)"/>
       <use xlink:href="#CMR17-37" transform="translate(150.275122 0) scale(0.996264)"/>
       <use xlink:href="#CMR17-35" transform="translate(195.965599 0) scale(0.996264)"/>
      </g>
     </g>
    </g>
    <g id="xtick_3">
     <g id="line2d_5">
      <path d="M 157.418182 144 
L 157.418182 21.6 
" clip-path="url(#pe6f3b1784e)" style="fill: none; stroke: #d3d3d3; stroke-width: 0.2; stroke-linecap: square"/>
     </g>
     <g id="line2d_6">
      <g>
       <use xlink:href="#mfe272a34be" x="157.418182" y="144" style="stroke: #000000; stroke-width: 0.8"/>
      </g>
     </g>
     <g id="text_3">
      <!-- $\mathdefault{−0.50}$ -->
      <g transform="translate(144.688103 154.418498) scale(0.1 -0.1)">
       <use xlink:href="#CMSY10-0" transform="scale(0.996264)"/>
       <use xlink:href="#CMR17-30" transform="translate(77.487468 0) scale(0.996264)"/>
       <use xlink:href="#CMMI12-3a" transform="translate(123.177945 0) scale(0.996264)"/>
       <use xlink:href="#CMR17-35" transform="translate(150.275122 0) scale(0.996264)"/>
       <use xlink:href="#CMR17-30" transform="translate(195.965599 0) scale(0.996264)"/>
      </g>
     </g>
    </g>
    <g id="xtick_4">
     <g id="line2d_7">
      <path d="M 198.634091 144 
L 198.634091 21.6 
" clip-path="url(#pe6f3b1784e)" style="fill: none; stroke: #d3d3d3; stroke-width: 0.2; stroke-linecap: square"/>
     </g>
     <g id="line2d_8">
      <g>
       <use xlink:href="#mfe272a34be" x="198.634091" y="144" style="stroke: #000000; stroke-width: 0.8"/>
      </g>
     </g>
     <g id="text_4">
      <!-- $\mathdefault{−0.25}$ -->
      <g transform="translate(185.904012 154.418498) scale(0.1 -0.1)">
       <defs>
        <path id="CMR17-32" d="M 2669 989 
L 2554 989 
C 2490 536 2438 459 2413 420 
C 2381 369 1920 369 1830 369 
L 602 369 
C 832 619 1280 1072 1824 1597 
C 2214 1967 2669 2402 2669 3035 
C 2669 3790 2067 4224 1395 4224 
C 691 4224 262 3604 262 3030 
C 262 2780 448 2748 525 2748 
C 589 2748 781 2787 781 3010 
C 781 3207 614 3264 525 3264 
C 486 3264 448 3258 422 3245 
C 544 3790 915 4058 1306 4058 
C 1862 4058 2227 3617 2227 3035 
C 2227 2479 1901 2000 1536 1584 
L 262 146 
L 262 0 
L 2515 0 
L 2669 989 
z
" transform="scale(0.015625)"/>
       </defs>
       <use xlink:href="#CMSY10-0" transform="scale(0.996264)"/>
       <use xlink:href="#CMR17-30" transform="translate(77.487468 0) scale(0.996264)"/>
       <use xlink:href="#CMMI12-3a" transform="translate(123.177945 0) scale(0.996264)"/>
       <use xlink:href="#CMR17-32" transform="translate(150.275122 0) scale(0.996264)"/>
       <use xlink:href="#CMR17-35" transform="translate(195.965599 0) scale(0.996264)"/>
      </g>
     </g>
    </g>
    <g id="xtick_5">
     <g id="line2d_9">
      <path d="M 239.85 144 
L 239.85 21.6 
" clip-path="url(#pe6f3b1784e)" style="fill: none; stroke: #d3d3d3; stroke-width: 0.2; stroke-linecap: square"/>
     </g>
     <g id="line2d_10">
      <g>
       <use xlink:href="#mfe272a34be" x="239.85" y="144" style="stroke: #000000; stroke-width: 0.8"/>
      </g>
     </g>
     <g id="text_5">
      <!-- $\mathdefault{0.00}$ -->
      <g transform="translate(230.994293 154.418498) scale(0.1 -0.1)">
       <use xlink:href="#CMR17-30" transform="scale(0.996264)"/>
       <use xlink:href="#CMMI12-3a" transform="translate(45.690477 0) scale(0.996264)"/>
       <use xlink:href="#CMR17-30" transform="translate(72.787654 0) scale(0.996264)"/>
       <use xlink:href="#CMR17-30" transform="translate(118.478131 0) scale(0.996264)"/>
      </g>
     </g>
    </g>
    <g id="xtick_6">
     <g id="line2d_11">
      <path d="M 281.065909 144 
L 281.065909 21.6 
" clip-path="url(#pe6f3b1784e)" style="fill: none; stroke: #d3d3d3; stroke-width: 0.2; stroke-linecap: square"/>
     </g>
     <g id="line2d_12">
      <g>
       <use xlink:href="#mfe272a34be" x="281.065909" y="144" style="stroke: #000000; stroke-width: 0.8"/>
      </g>
     </g>
     <g id="text_6">
      <!-- $\mathdefault{0.25}$ -->
      <g transform="translate(272.210202 154.418498) scale(0.1 -0.1)">
       <use xlink:href="#CMR17-30" transform="scale(0.996264)"/>
       <use xlink:href="#CMMI12-3a" transform="translate(45.690477 0) scale(0.996264)"/>
       <use xlink:href="#CMR17-32" transform="translate(72.787654 0) scale(0.996264)"/>
       <use xlink:href="#CMR17-35" transform="translate(118.478131 0) scale(0.996264)"/>
      </g>
     </g>
    </g>
    <g id="xtick_7">
     <g id="line2d_13">
      <path d="M 322.281818 144 
L 322.281818 21.6 
" clip-path="url(#pe6f3b1784e)" style="fill: none; stroke: #d3d3d3; stroke-width: 0.2; stroke-linecap: square"/>
     </g>
     <g id="line2d_14">
      <g>
       <use xlink:href="#mfe272a34be" x="322.281818" y="144" style="stroke: #000000; stroke-width: 0.8"/>
      </g>
     </g>
     <g id="text_7">
      <!-- $\mathdefault{0.50}$ -->
      <g transform="translate(313.426111 154.418498) scale(0.1 -0.1)">
       <use xlink:href="#CMR17-30" transform="scale(0.996264)"/>
       <use xlink:href="#CMMI12-3a" transform="translate(45.690477 0) scale(0.996264)"/>
       <use xlink:href="#CMR17-35" transform="translate(72.787654 0) scale(0.996264)"/>
       <use xlink:href="#CMR17-30" transform="translate(118.478131 0) scale(0.996264)"/>
      </g>
     </g>
    </g>
    <g id="xtick_8">
     <g id="line2d_15">
      <path d="M 363.497727 144 
L 363.497727 21.6 
" clip-path="url(#pe6f3b1784e)" style="fill: none; stroke: #d3d3d3; stroke-width: 0.2; stroke-linecap: square"/>
     </g>
     <g id="line2d_16">
      <g>
       <use xlink:href="#mfe272a34be" x="363.497727" y="144" style="stroke: #000000; stroke-width: 0.8"/>
      </g>
     </g>
     <g id="text_8">
      <!-- $\mathdefault{0.75}$ -->
      <g transform="translate(354.64202 154.418498) scale(0.1 -0.1)">
       <use xlink:href="#CMR17-30" transform="scale(0.996264)"/>
       <use xlink:href="#CMMI12-3a" transform="translate(45.690477 0) scale(0.996264)"/>
       <use xlink:href="#CMR17-37" transform="translate(72.787654 0) scale(0.996264)"/>
       <use xlink:href="#CMR17-35" transform="translate(118.478131 0) scale(0.996264)"/>
      </g>
     </g>
    </g>
    <g id="xtick_9">
     <g id="line2d_17">
      <path d="M 404.713636 144 
L 404.713636 21.6 
" clip-path="url(#pe6f3b1784e)" style="fill: none; stroke: #d3d3d3; stroke-width: 0.2; stroke-linecap: square"/>
     </g>
     <g id="line2d_18">
      <g>
       <use xlink:href="#mfe272a34be" x="404.713636" y="144" style="stroke: #000000; stroke-width: 0.8"/>
      </g>
     </g>
     <g id="text_9">
      <!-- $\mathdefault{1.00}$ -->
      <g transform="translate(395.857929 154.418498) scale(0.1 -0.1)">
       <use xlink:href="#CMR17-31" transform="scale(0.996264)"/>
       <use xlink:href="#CMMI12-3a" transform="translate(45.690477 0) scale(0.996264)"/>
       <use xlink:href="#CMR17-30" transform="translate(72.787654 0) scale(0.996264)"/>
       <use xlink:href="#CMR17-30" transform="translate(118.478131 0) scale(0.996264)"/>
      </g>
     </g>
    </g>
    <g id="text_10">
     <!-- $\varphi$ [rad] -->
     <g transform="translate(222.358844 169.322053) scale(0.12 -0.12)">
      <defs>
       <path id="CMMI12-27" d="M 1926 280 
C 1818 280 1722 280 1722 312 
C 1722 325 1830 926 1869 1067 
C 2074 1884 2560 2472 3117 2472 
C 3533 2472 3725 2159 3725 1808 
C 3725 1080 2906 280 1926 280 
z
M 1651 -51 
C 1690 -57 1754 -64 1869 -64 
C 2918 -64 3885 945 3885 1954 
C 3885 2344 3712 2816 3174 2816 
C 2253 2816 1862 1519 1504 318 
C 768 458 461 848 461 1276 
C 461 1449 595 2133 966 2592 
C 1037 2676 1037 2689 1037 2702 
C 1037 2753 986 2753 973 2753 
C 800 2753 314 1820 314 1213 
C 314 497 877 107 1395 -7 
L 1062 -1088 
C 1030 -1184 1030 -1196 1030 -1222 
C 1030 -1376 1184 -1376 1197 -1376 
C 1261 -1376 1376 -1351 1427 -1223 
C 1446 -1166 1626 -178 1651 -51 
z
" transform="scale(0.015625)"/>
       <path id="CMR17-5b" d="M 1504 -1600 
L 1504 -1377 
L 902 -1377 
L 902 4544 
L 1504 4544 
L 1504 4767 
L 678 4767 
L 678 -1600 
L 1504 -1600 
z
" transform="scale(0.015625)"/>
       <path id="CMR17-72" d="M 960 1497 
C 960 2112 1222 2688 1702 2688 
C 1747 2688 1792 2682 1837 2662 
C 1837 2662 1696 2617 1696 2452 
C 1696 2298 1818 2234 1914 2234 
C 1990 2234 2131 2279 2131 2458 
C 2131 2663 1926 2790 1709 2790 
C 1222 2790 1011 2317 947 2093 
L 941 2093 
L 941 2790 
L 198 2720 
L 198 2554 
C 576 2554 634 2515 634 2208 
L 634 428 
C 634 184 608 153 198 153 
L 198 -13 
C 352 0 646 0 813 0 
C 998 0 1325 0 1498 -13 
L 1498 153 
C 1037 153 960 153 960 440 
L 960 1497 
z
" transform="scale(0.015625)"/>
       <path id="CMR17-61" d="M 2304 1653 
C 2304 2072 2304 2294 2035 2543 
C 1798 2752 1523 2816 1306 2816 
C 800 2816 435 2407 435 1971 
C 435 1728 627 1728 666 1728 
C 749 1728 896 1778 896 1954 
C 896 2112 774 2181 666 2181 
C 640 2181 608 2174 589 2168 
C 723 2592 1069 2714 1293 2714 
C 1613 2714 1965 2429 1965 1885 
L 1965 1600 
C 1587 1600 1133 1549 774 1357 
C 371 1133 256 813 256 570 
C 256 77 832 -64 1171 -64 
C 1523 -64 1850 139 1990 511 
C 2003 233 2182 -18 2464 -18 
C 2598 -18 2938 70 2938 567 
L 2938 920 
L 2822 920 
L 2822 562 
C 2822 178 2650 128 2566 128 
C 2304 128 2304 458 2304 738 
L 2304 1653 
z
M 1965 870 
C 1965 317 1568 38 1216 38 
C 896 38 646 275 646 570 
C 646 761 730 1100 1101 1305 
C 1408 1478 1760 1504 1965 1504 
L 1965 870 
z
" transform="scale(0.015625)"/>
       <path id="CMR17-64" d="M 1869 4326 
L 1869 4160 
C 2246 4160 2304 4122 2304 3820 
L 2304 2345 
C 2278 2377 2016 2790 1498 2790 
C 845 2790 211 2208 211 1364 
C 211 525 806 -64 1434 -64 
C 1978 -64 2259 337 2291 380 
L 2291 -63 
L 3066 -63 
L 3066 128 
C 2688 128 2630 166 2630 473 
L 2630 4396 
L 1869 4326 
z
M 2291 755 
C 2291 563 2176 390 2029 262 
C 1811 70 1594 38 1472 38 
C 1286 38 621 134 621 1356 
C 621 2612 1363 2688 1530 2688 
C 1824 2688 2061 2522 2208 2291 
C 2291 2157 2291 2138 2291 2023 
L 2291 755 
z
" transform="scale(0.015625)"/>
       <path id="CMR17-5d" d="M 915 4767 
L 90 4767 
L 90 4544 
L 691 4544 
L 691 -1377 
L 90 -1377 
L 90 -1600 
L 915 -1600 
L 915 4767 
z
" transform="scale(0.015625)"/>
      </defs>
      <use xlink:href="#CMMI12-27" transform="scale(0.996264)"/>
      <use xlink:href="#CMR17-5b" transform="translate(93.97903 0) scale(0.996264)"/>
      <use xlink:href="#CMR17-72" transform="translate(118.850089 0) scale(0.996264)"/>
      <use xlink:href="#CMR17-61" transform="translate(154.130856 0) scale(0.996264)"/>
      <use xlink:href="#CMR17-64" transform="translate(199.821333 0) scale(0.996264)"/>
      <use xlink:href="#CMR17-5d" transform="translate(250.716703 0) scale(0.996264)"/>
     </g>
    </g>
   </g>
   <g id="matplotlib.axis_2">
    <g id="ytick_1">
     <g id="line2d_19">
      <path d="M 58.5 133.429192 
L 421.2 133.429192 
" clip-path="url(#pe6f3b1784e)" style="fill: none; stroke: #d3d3d3; stroke-width: 0.2; stroke-linecap: square"/>
     </g>
     <g id="line2d_20">
      <defs>
       <path id="m777233f8d7" d="M 0 0 
L 3.5 0 
" style="stroke: #000000; stroke-width: 0.8"/>
      </defs>
      <g>
       <use xlink:href="#m777233f8d7" x="58.5" y="133.429192" style="stroke: #000000; stroke-width: 0.8"/>
      </g>
     </g>
     <g id="text_11">
      <!-- $\mathdefault{−50}$ -->
      <g transform="translate(37.288586 136.888441) scale(0.1 -0.1)">
       <use xlink:href="#CMSY10-0" transform="scale(0.996264)"/>
       <use xlink:href="#CMR17-35" transform="translate(77.487468 0) scale(0.996264)"/>
       <use xlink:href="#CMR17-30" transform="translate(123.177945 0) scale(0.996264)"/>
      </g>
     </g>
    </g>
    <g id="ytick_2">
     <g id="line2d_21">
      <path d="M 58.5 108.114596 
L 421.2 108.114596 
" clip-path="url(#pe6f3b1784e)" style="fill: none; stroke: #d3d3d3; stroke-width: 0.2; stroke-linecap: square"/>
     </g>
     <g id="line2d_22">
      <g>
       <use xlink:href="#m777233f8d7" x="58.5" y="108.114596" style="stroke: #000000; stroke-width: 0.8"/>
      </g>
     </g>
     <g id="text_12">
      <!-- $\mathdefault{−25}$ -->
      <g transform="translate(37.288586 111.573845) scale(0.1 -0.1)">
       <use xlink:href="#CMSY10-0" transform="scale(0.996264)"/>
       <use xlink:href="#CMR17-32" transform="translate(77.487468 0) scale(0.996264)"/>
       <use xlink:href="#CMR17-35" transform="translate(123.177945 0) scale(0.996264)"/>
      </g>
     </g>
    </g>
    <g id="ytick_3">
     <g id="line2d_23">
      <path d="M 58.5 82.8 
L 421.2 82.8 
" clip-path="url(#pe6f3b1784e)" style="fill: none; stroke: #d3d3d3; stroke-width: 0.2; stroke-linecap: square"/>
     </g>
     <g id="line2d_24">
      <g>
       <use xlink:href="#m777233f8d7" x="58.5" y="82.8" style="stroke: #000000; stroke-width: 0.8"/>
      </g>
     </g>
     <g id="text_13">
      <!-- $\mathdefault{0}$ -->
      <g transform="translate(50.018665 86.259249) scale(0.1 -0.1)">
       <use xlink:href="#CMR17-30" transform="scale(0.996264)"/>
      </g>
     </g>
    </g>
    <g id="ytick_4">
     <g id="line2d_25">
      <path d="M 58.5 57.485404 
L 421.2 57.485404 
" clip-path="url(#pe6f3b1784e)" style="fill: none; stroke: #d3d3d3; stroke-width: 0.2; stroke-linecap: square"/>
     </g>
     <g id="line2d_26">
      <g>
       <use xlink:href="#m777233f8d7" x="58.5" y="57.485404" style="stroke: #000000; stroke-width: 0.8"/>
      </g>
     </g>
     <g id="text_14">
      <!-- $\mathdefault{25}$ -->
      <g transform="translate(45.037329 60.944653) scale(0.1 -0.1)">
       <use xlink:href="#CMR17-32" transform="scale(0.996264)"/>
       <use xlink:href="#CMR17-35" transform="translate(45.690477 0) scale(0.996264)"/>
      </g>
     </g>
    </g>
    <g id="ytick_5">
     <g id="line2d_27">
      <path d="M 58.5 32.170808 
L 421.2 32.170808 
" clip-path="url(#pe6f3b1784e)" style="fill: none; stroke: #d3d3d3; stroke-width: 0.2; stroke-linecap: square"/>
     </g>
     <g id="line2d_28">
      <g>
       <use xlink:href="#m777233f8d7" x="58.5" y="32.170808" style="stroke: #000000; stroke-width: 0.8"/>
      </g>
     </g>
     <g id="text_15">
      <!-- $\mathdefault{50}$ -->
      <g transform="translate(45.037329 35.630057) scale(0.1 -0.1)">
       <use xlink:href="#CMR17-35" transform="scale(0.996264)"/>
       <use xlink:href="#CMR17-30" transform="translate(45.690477 0) scale(0.996264)"/>
      </g>
     </g>
    </g>
    <g id="text_16">
     <!-- $M$ [kNm] -->
     <g transform="translate(30.299794 106.643699) rotate(-90) scale(0.12 -0.12)">
      <defs>
       <path id="CMMI12-4d" d="M 5811 3886 
C 5869 4103 5882 4167 6336 4167 
C 6458 4167 6515 4167 6515 4288 
C 6515 4352 6470 4352 6349 4352 
L 5581 4352 
C 5421 4352 5414 4346 5344 4243 
L 3008 562 
L 2528 4211 
C 2509 4352 2502 4352 2336 4352 
L 1542 4352 
C 1421 4352 1363 4352 1363 4231 
C 1363 4167 1421 4167 1517 4167 
C 1907 4167 1907 4116 1907 4046 
C 1907 4034 1907 3995 1882 3899 
L 1062 634 
C 986 327 838 186 410 186 
C 390 186 314 186 314 73 
C 314 0 371 0 397 0 
C 525 0 851 0 979 0 
L 1286 0 
C 1376 0 1485 0 1574 0 
C 1619 0 1690 0 1690 122 
C 1690 180 1626 186 1600 186 
C 1389 186 1184 224 1184 454 
C 1184 518 1184 524 1210 613 
L 2093 4129 
L 2099 4129 
L 2630 172 
C 2650 19 2656 0 2714 0 
C 2784 0 2816 51 2848 109 
L 5421 4161 
L 5427 4161 
L 4499 473 
C 4442 250 4429 186 3981 186 
C 3859 186 3795 186 3795 70 
C 3795 0 3853 0 3891 0 
C 4000 0 4128 0 4237 0 
L 4992 0 
C 5101 0 5235 0 5344 0 
C 5395 0 5466 0 5466 122 
C 5466 186 5408 186 5312 186 
C 4922 186 4922 234 4922 294 
C 4922 301 4922 345 4934 396 
L 5811 3886 
z
" transform="scale(0.015625)"/>
       <path id="CMR17-6b" d="M 1670 1673 
C 1664 1686 1632 1724 1632 1743 
C 1632 1756 2086 2171 2144 2222 
C 2509 2528 2739 2560 2906 2560 
L 2906 2733 
C 2867 2733 2854 2733 2848 2720 
L 2534 2720 
C 2355 2720 2080 2720 1907 2733 
L 1907 2566 
C 1997 2559 2061 2508 2061 2419 
C 2061 2291 1933 2170 1926 2170 
L 960 1289 
L 960 4396 
L 198 4326 
L 198 4160 
C 576 4160 634 4122 634 3817 
L 634 426 
C 634 184 608 153 198 153 
L 198 -13 
C 352 0 634 0 794 0 
C 954 0 1235 0 1389 -13 
L 1389 153 
C 979 153 954 178 954 428 
L 954 1130 
L 1395 1532 
L 2042 574 
C 2118 459 2182 369 2182 286 
C 2182 172 2067 153 1990 153 
L 1990 -13 
C 2144 0 2419 0 2579 0 
C 2694 0 2931 0 3040 0 
L 3040 153 
C 2739 153 2669 210 2477 491 
L 1670 1673 
z
" transform="scale(0.015625)"/>
       <path id="CMR17-4e" d="M 1312 4250 
C 1267 4320 1261 4320 1139 4320 
L 326 4320 
L 326 4160 
L 448 4160 
C 704 4160 819 4129 838 4122 
L 838 610 
C 838 451 838 153 326 153 
L 326 -13 
C 474 0 742 0 902 0 
C 1062 0 1331 0 1478 -13 
L 1478 153 
C 966 153 966 451 966 610 
L 966 4033 
C 1011 3995 1011 3982 1056 3919 
L 3430 76 
C 3475 0 3494 0 3526 0 
C 3590 0 3590 19 3590 139 
L 3590 3705 
C 3590 3863 3590 4160 4102 4160 
L 4102 4326 
C 3955 4320 3686 4320 3526 4320 
C 3366 4320 3098 4320 2950 4326 
L 2950 4160 
C 3462 4160 3462 3862 3462 3703 
L 3462 763 
L 1312 4250 
z
" transform="scale(0.015625)"/>
       <path id="CMR17-6d" d="M 4326 1933 
C 4326 2252 4269 2790 3507 2790 
C 3072 2790 2771 2496 2656 2151 
L 2650 2151 
C 2573 2676 2195 2790 1837 2790 
C 1331 2790 1069 2400 973 2144 
L 966 2144 
L 966 2790 
L 211 2720 
L 211 2554 
C 589 2554 646 2515 646 2208 
L 646 428 
C 646 184 621 153 211 153 
L 211 -13 
C 365 0 646 0 813 0 
C 979 0 1267 0 1421 -13 
L 1421 153 
C 1011 153 986 178 986 428 
L 986 1658 
C 986 2247 1344 2688 1792 2688 
C 2266 2688 2317 2266 2317 1958 
L 2317 428 
C 2317 184 2291 153 1882 153 
L 1882 -13 
C 2035 0 2317 0 2483 0 
C 2650 0 2938 0 3091 -13 
L 3091 153 
C 2682 153 2656 178 2656 428 
L 2656 1658 
C 2656 2247 3014 2688 3462 2688 
C 3936 2688 3987 2266 3987 1958 
L 3987 428 
C 3987 184 3962 153 3552 153 
L 3552 -13 
C 3706 0 3987 0 4154 0 
C 4320 0 4608 0 4762 -13 
L 4762 153 
C 4352 153 4326 178 4326 428 
L 4326 1933 
z
" transform="scale(0.015625)"/>
      </defs>
      <use xlink:href="#CMMI12-4d" transform="scale(0.996264)"/>
      <use xlink:href="#CMR17-5b" transform="translate(134.856045 0) scale(0.996264)"/>
      <use xlink:href="#CMR17-6b" transform="translate(159.727104 0) scale(0.996264)"/>
      <use xlink:href="#CMR17-4e" transform="translate(208.02002 0) scale(0.996264)"/>
      <use xlink:href="#CMR17-6d" transform="translate(277.092449 0) scale(0.996264)"/>
      <use xlink:href="#CMR17-5d" transform="translate(354.012039 0) scale(0.996264)"/>
     </g>
    </g>
   </g>
   <g id="PolyCollection_1">
    <defs>
     <path id="m35776a4822" d="M 74.986364 -97.2 
L 74.986364 -41.563636 
L 75.316421 -41.583908 
L 75.646478 -41.60418 
L 75.976536 -41.624452 
L 76.306593 -41.644724 
L 76.63665 -41.664996 
L 76.966708 -41.685268 
L 77.296765 -41.70554 
L 77.626822 -41.725812 
L 77.95688 -41.746084 
L 78.286937 -41.766356 
L 78.616994 -41.786628 
L 78.947052 -41.8069 
L 79.277109 -41.827172 
L 79.607166 -41.847444 
L 79.937224 -41.867716 
L 80.267281 -41.887988 
L 80.597338 -41.908259 
L 80.927396 -41.928531 
L 81.257453 -41.948803 
L 81.58751 -41.969075 
L 81.917568 -41.989347 
L 82.247625 -42.009619 
L 82.577682 -42.029891 
L 82.90774 -42.050163 
L 83.237797 -42.070435 
L 83.567854 -42.090707 
L 83.897912 -42.110979 
L 84.227969 -42.131251 
L 84.558026 -42.151523 
L 84.888084 -42.171795 
L 85.218141 -42.192067 
L 85.548198 -42.212339 
L 85.878256 -42.232611 
L 86.208313 -42.252883 
L 86.53837 -42.273155 
L 86.868428 -42.293427 
L 87.198485 -42.313698 
L 87.528542 -42.33397 
L 87.8586 -42.354242 
L 88.188657 -42.374514 
L 88.518714 -42.394786 
L 88.848771 -42.415058 
L 89.178829 -42.43533 
L 89.508886 -42.455602 
L 89.838943 -42.475874 
L 90.169001 -42.496146 
L 90.499058 -42.516418 
L 90.829115 -42.53669 
L 91.159173 -42.556962 
L 91.48923 -42.577234 
L 91.819287 -42.597506 
L 92.149345 -42.617778 
L 92.479402 -42.63805 
L 92.809459 -42.658322 
L 93.139517 -42.678594 
L 93.469574 -42.698865 
L 93.799631 -42.719137 
L 94.129689 -42.739409 
L 94.459746 -42.759681 
L 94.789803 -42.779953 
L 95.119861 -42.800225 
L 95.449918 -42.820497 
L 95.779975 -42.840769 
L 96.110033 -42.861041 
L 96.44009 -42.881313 
L 96.770147 -42.901585 
L 97.100205 -42.921857 
L 97.430262 -42.942129 
L 97.760319 -42.962401 
L 98.090377 -42.982673 
L 98.420434 -43.002945 
L 98.750491 -43.023217 
L 99.080549 -43.043489 
L 99.410606 -43.063761 
L 99.740663 -43.084033 
L 100.070721 -43.104304 
L 100.400778 -43.124576 
L 100.730835 -43.144848 
L 101.060893 -43.16512 
L 101.39095 -43.185392 
L 101.721007 -43.205664 
L 102.051065 -43.225936 
L 102.381122 -43.246208 
L 102.711179 -43.26648 
L 103.041237 -43.286752 
L 103.371294 -43.307024 
L 103.701351 -43.327296 
L 104.031409 -43.347568 
L 104.361466 -43.36784 
L 104.691523 -43.388112 
L 105.021581 -43.408384 
L 105.351638 -43.428656 
L 105.681695 -43.448928 
L 106.011753 -43.4692 
L 106.34181 -43.489472 
L 106.671867 -43.509743 
L 107.001925 -43.530015 
L 107.331982 -43.550287 
L 107.662039 -43.570559 
L 107.992097 -43.590831 
L 108.322154 -43.611103 
L 108.652211 -43.631375 
L 108.982269 -43.651647 
L 109.312326 -43.671919 
L 109.642383 -43.692191 
L 109.972441 -43.712463 
L 110.302498 -43.732735 
L 110.632555 -43.753007 
L 110.962613 -43.773279 
L 111.29267 -43.793551 
L 111.622727 -43.813823 
L 111.952785 -43.834095 
L 112.282842 -43.854367 
L 112.612899 -43.874639 
L 112.942957 -43.89491 
L 113.273014 -43.915182 
L 113.603071 -43.935454 
L 113.933129 -43.955726 
L 114.263186 -43.975998 
L 114.593243 -43.99627 
L 114.923301 -44.016542 
L 115.253358 -44.036814 
L 115.583415 -44.057086 
L 115.913473 -44.077358 
L 116.24353 -44.09763 
L 116.573587 -44.117902 
L 116.903645 -44.138174 
L 117.233702 -44.158446 
L 117.563759 -44.178718 
L 117.893817 -44.19899 
L 118.223874 -44.219262 
L 118.553931 -44.239534 
L 118.883989 -44.259806 
L 119.214046 -44.280078 
L 119.544103 -44.300349 
L 119.874161 -44.320621 
L 120.204218 -44.340893 
L 120.534275 -44.361165 
L 120.864333 -44.381437 
L 121.19439 -44.401709 
L 121.524447 -44.421981 
L 121.854505 -44.442253 
L 122.184562 -44.462525 
L 122.514619 -44.482797 
L 122.844676 -44.503069 
L 123.174734 -44.523341 
L 123.504791 -44.543613 
L 123.834848 -44.563885 
L 124.164906 -44.584157 
L 124.494963 -44.604429 
L 124.82502 -44.624701 
L 125.155078 -44.644973 
L 125.485135 -44.665245 
L 125.815192 -44.685516 
L 126.14525 -44.705788 
L 126.475307 -44.72606 
L 126.805364 -44.746332 
L 127.135422 -44.766604 
L 127.465479 -44.786876 
L 127.795536 -44.807148 
L 128.125594 -44.82742 
L 128.455651 -44.847692 
L 128.785708 -44.867964 
L 129.115766 -44.888236 
L 129.445823 -44.908508 
L 129.77588 -44.92878 
L 130.105938 -44.949052 
L 130.435995 -44.969324 
L 130.766052 -44.989596 
L 131.09611 -45.009868 
L 131.426167 -45.03014 
L 131.756224 -45.050412 
L 132.086282 -45.070684 
L 132.416339 -45.090955 
L 132.746396 -45.111227 
L 133.076454 -45.131499 
L 133.406511 -45.151771 
L 133.736568 -45.172043 
L 134.066626 -45.192315 
L 134.396683 -45.212587 
L 134.72674 -45.232859 
L 135.056798 -45.253131 
L 135.386855 -45.273403 
L 135.716912 -45.293675 
L 136.04697 -45.313947 
L 136.377027 -45.334219 
L 136.707084 -45.354491 
L 137.037142 -45.374763 
L 137.367199 -45.395035 
L 137.697256 -45.415307 
L 138.027314 -45.435579 
L 138.357371 -45.455851 
L 138.687428 -45.476122 
L 139.017486 -45.496394 
L 139.347543 -45.516666 
L 139.6776 -45.536938 
L 140.007658 -45.55721 
L 140.337715 -45.577482 
L 140.667772 -45.597754 
L 140.99783 -45.618026 
L 141.327887 -45.638298 
L 141.657944 -45.65857 
L 141.988002 -45.678842 
L 142.318059 -45.699114 
L 142.648116 -45.719386 
L 142.978174 -45.739658 
L 143.308231 -45.75993 
L 143.638288 -45.780202 
L 143.968346 -45.800474 
L 144.298403 -45.820746 
L 144.62846 -45.841018 
L 144.958518 -45.86129 
L 145.288575 -45.881561 
L 145.618632 -45.901833 
L 145.94869 -45.922105 
L 146.278747 -45.942377 
L 146.608804 -45.962649 
L 146.938862 -45.982921 
L 147.268919 -46.003193 
L 147.598976 -46.023465 
L 147.929034 -46.043737 
L 148.259091 -46.064009 
L 148.589148 -46.084281 
L 148.919206 -46.104553 
L 149.249263 -46.124825 
L 149.57932 -46.145097 
L 149.909378 -46.165369 
L 150.239435 -46.185641 
L 150.569492 -46.205913 
L 150.89955 -46.226185 
L 151.229607 -46.246457 
L 151.559664 -46.266728 
L 151.889722 -46.287 
L 152.219779 -46.307272 
L 152.549836 -46.327544 
L 152.879894 -46.347816 
L 153.209951 -46.368088 
L 153.540008 -46.38836 
L 153.870066 -46.408632 
L 154.200123 -46.428904 
L 154.53018 -46.449176 
L 154.860238 -46.469448 
L 155.190295 -46.48972 
L 155.520352 -46.509992 
L 155.85041 -46.530264 
L 156.180467 -46.550536 
L 156.510524 -46.570808 
L 156.840581 -46.59108 
L 157.170639 -46.611352 
L 157.500696 -46.621488 
L 157.830753 -46.824207 
L 158.160811 -47.026927 
L 158.490868 -47.229646 
L 158.820925 -47.432366 
L 159.150983 -47.635085 
L 159.48104 -47.837805 
L 159.811097 -48.040524 
L 160.141155 -48.243244 
L 160.471212 -48.445963 
L 160.801269 -48.648682 
L 161.131327 -48.851402 
L 161.461384 -49.054121 
L 161.791441 -49.256841 
L 162.121499 -49.45956 
L 162.451556 -49.66228 
L 162.781613 -49.864999 
L 163.111671 -50.067719 
L 163.441728 -50.270438 
L 163.771785 -50.473158 
L 164.101843 -50.675877 
L 164.4319 -50.878597 
L 164.761957 -51.081316 
L 165.092015 -51.284036 
L 165.422072 -51.486755 
L 165.752129 -51.689475 
L 166.082187 -51.892194 
L 166.412244 -52.094914 
L 166.742301 -52.297633 
L 167.072359 -52.500353 
L 167.402416 -52.703072 
L 167.732473 -52.905792 
L 168.062531 -53.108511 
L 168.392588 -53.311231 
L 168.722645 -53.51395 
L 169.052703 -53.71667 
L 169.38276 -53.919389 
L 169.712817 -54.122109 
L 170.042875 -54.324828 
L 170.372932 -54.527548 
L 170.702989 -54.730267 
L 171.033047 -54.932987 
L 171.363104 -55.135706 
L 171.693161 -55.338426 
L 172.023219 -55.541145 
L 172.353276 -55.743865 
L 172.683333 -55.946584 
L 173.013391 -56.149304 
L 173.343448 -56.352023 
L 173.673505 -56.554743 
L 174.003563 -56.757462 
L 174.33362 -56.960182 
L 174.663677 -57.162901 
L 174.993735 -57.36562 
L 175.323792 -57.56834 
L 175.653849 -57.771059 
L 175.983907 -57.973779 
L 176.313964 -58.176498 
L 176.644021 -58.379218 
L 176.974079 -58.581937 
L 177.304136 -58.784657 
L 177.634193 -58.987376 
L 177.964251 -59.190096 
L 178.294308 -59.392815 
L 178.624365 -59.595535 
L 178.954423 -59.798254 
L 179.28448 -60.000974 
L 179.614537 -60.203693 
L 179.944595 -60.406413 
L 180.274652 -60.609132 
L 180.604709 -60.811852 
L 180.934767 -61.014571 
L 181.264824 -61.217291 
L 181.594881 -61.42001 
L 181.924939 -61.62273 
L 182.254996 -61.825449 
L 182.585053 -62.028169 
L 182.915111 -62.230888 
L 183.245168 -62.433608 
L 183.575225 -62.636327 
L 183.905283 -62.839047 
L 184.23534 -63.041766 
L 184.565397 -63.244486 
L 184.895455 -63.447205 
L 185.225512 -63.649925 
L 185.555569 -63.852644 
L 185.885627 -64.055364 
L 186.215684 -64.258083 
L 186.545741 -64.460803 
L 186.875799 -64.663522 
L 187.205856 -64.866242 
L 187.535913 -65.068961 
L 187.865971 -65.271681 
L 188.196028 -65.4744 
L 188.526085 -65.67712 
L 188.856143 -65.879839 
L 189.1862 -66.082559 
L 189.516257 -66.285278 
L 189.846314 -66.487997 
L 190.176372 -66.690717 
L 190.506429 -66.893436 
L 190.836486 -67.096156 
L 191.166544 -67.298875 
L 191.496601 -67.501595 
L 191.826658 -67.704314 
L 192.156716 -67.907034 
L 192.486773 -68.109753 
L 192.81683 -68.312473 
L 193.146888 -68.515192 
L 193.476945 -68.717912 
L 193.807002 -68.920631 
L 194.13706 -69.123351 
L 194.467117 -69.32607 
L 194.797174 -69.52879 
L 195.127232 -69.731509 
L 195.457289 -69.934229 
L 195.787346 -70.136948 
L 196.117404 -70.339668 
L 196.447461 -70.542387 
L 196.777518 -70.745107 
L 197.107576 -70.947826 
L 197.437633 -71.150546 
L 197.76769 -71.353265 
L 198.097748 -71.555985 
L 198.427805 -71.758704 
L 198.757862 -71.961424 
L 199.08792 -72.164143 
L 199.417977 -72.366863 
L 199.748034 -72.569582 
L 200.078092 -72.772302 
L 200.408149 -72.975021 
L 200.738206 -73.177741 
L 201.068264 -73.38046 
L 201.398321 -73.58318 
L 201.728378 -73.785899 
L 202.058436 -73.988619 
L 202.388493 -74.191338 
L 202.71855 -74.394058 
L 203.048608 -74.596777 
L 203.378665 -74.799497 
L 203.708722 -75.002216 
L 204.03878 -75.204935 
L 204.368837 -75.407655 
L 204.698894 -75.610374 
L 205.028952 -75.813094 
L 205.359009 -76.015813 
L 205.689066 -76.218533 
L 206.019124 -76.421252 
L 206.349181 -76.623972 
L 206.679238 -76.826691 
L 207.009296 -77.029411 
L 207.339353 -77.23213 
L 207.66941 -77.43485 
L 207.999468 -77.637569 
L 208.329525 -77.840289 
L 208.659582 -78.043008 
L 208.98964 -78.245728 
L 209.319697 -78.448447 
L 209.649754 -78.651167 
L 209.979812 -78.853886 
L 210.309869 -79.056606 
L 210.639926 -79.259325 
L 210.969984 -79.462045 
L 211.300041 -79.664764 
L 211.630098 -79.867484 
L 211.960156 -80.070203 
L 212.290213 -80.272923 
L 212.62027 -80.475642 
L 212.950328 -80.678362 
L 213.280385 -80.881081 
L 213.610442 -81.083801 
L 213.9405 -81.28652 
L 214.270557 -81.48924 
L 214.600614 -81.691959 
L 214.930672 -81.894679 
L 215.260729 -82.097398 
L 215.590786 -82.300118 
L 215.920844 -82.502837 
L 216.250901 -82.705557 
L 216.580958 -82.908276 
L 216.911016 -83.110996 
L 217.241073 -83.313715 
L 217.57113 -83.516435 
L 217.901188 -83.719154 
L 218.231245 -83.921873 
L 218.561302 -84.124593 
L 218.89136 -84.327312 
L 219.221417 -84.530032 
L 219.551474 -84.732751 
L 219.881532 -84.935471 
L 220.211589 -85.13819 
L 220.541646 -85.34091 
L 220.871704 -85.543629 
L 221.201761 -85.746349 
L 221.531818 -85.949068 
L 221.861876 -86.151788 
L 222.191933 -86.354507 
L 222.52199 -86.557227 
L 222.852048 -86.759946 
L 223.182105 -86.962666 
L 223.512162 -87.165385 
L 223.842219 -87.368105 
L 224.172277 -87.570824 
L 224.502334 -87.773544 
L 224.832391 -87.976263 
L 225.162449 -88.178983 
L 225.492506 -88.381702 
L 225.822563 -88.584422 
L 226.152621 -88.787141 
L 226.482678 -88.989861 
L 226.812735 -89.19258 
L 227.142793 -89.3953 
L 227.47285 -89.598019 
L 227.802907 -89.800739 
L 228.132965 -90.003458 
L 228.463022 -90.206178 
L 228.793079 -90.408897 
L 229.123137 -90.611617 
L 229.453194 -90.814336 
L 229.783251 -91.017056 
L 230.113309 -91.219775 
L 230.443366 -91.422495 
L 230.773423 -91.625214 
L 231.103481 -91.827934 
L 231.433538 -92.030653 
L 231.763595 -92.233373 
L 232.093653 -92.436092 
L 232.42371 -92.638812 
L 232.753767 -92.841531 
L 233.083825 -93.04425 
L 233.413882 -93.24697 
L 233.743939 -93.449689 
L 234.073997 -93.652409 
L 234.404054 -93.855128 
L 234.734111 -94.057848 
L 235.064169 -94.260567 
L 235.394226 -94.463287 
L 235.724283 -94.666006 
L 236.054341 -94.868726 
L 236.384398 -95.071445 
L 236.714455 -95.274165 
L 237.044513 -95.476884 
L 237.37457 -95.679604 
L 237.704627 -95.882323 
L 238.034685 -96.085043 
L 238.364742 -96.287762 
L 238.694799 -96.490482 
L 239.024857 -96.693201 
L 239.354914 -96.895921 
L 239.684971 -97.09864 
L 240.015029 -97.30136 
L 240.345086 -97.504079 
L 240.675143 -97.706799 
L 241.005201 -97.909518 
L 241.335258 -98.112238 
L 241.665315 -98.314957 
L 241.995373 -98.517677 
L 242.32543 -98.720396 
L 242.655487 -98.923116 
L 242.985545 -99.125835 
L 243.315602 -99.328555 
L 243.645659 -99.531274 
L 243.975717 -99.733994 
L 244.305774 -99.936713 
L 244.635831 -100.139433 
L 244.965889 -100.342152 
L 245.295946 -100.544872 
L 245.626003 -100.747591 
L 245.956061 -100.950311 
L 246.286118 -101.15303 
L 246.616175 -101.35575 
L 246.946233 -101.558469 
L 247.27629 -101.761188 
L 247.606347 -101.963908 
L 247.936405 -102.166627 
L 248.266462 -102.369347 
L 248.596519 -102.572066 
L 248.926577 -102.774786 
L 249.256634 -102.977505 
L 249.586691 -103.180225 
L 249.916749 -103.382944 
L 250.246806 -103.585664 
L 250.576863 -103.788383 
L 250.906921 -103.991103 
L 251.236978 -104.193822 
L 251.567035 -104.396542 
L 251.897093 -104.599261 
L 252.22715 -104.801981 
L 252.557207 -105.0047 
L 252.887265 -105.20742 
L 253.217322 -105.410139 
L 253.547379 -105.612859 
L 253.877437 -105.815578 
L 254.207494 -106.018298 
L 254.537551 -106.221017 
L 254.867609 -106.423737 
L 255.197666 -106.626456 
L 255.527723 -106.829176 
L 255.857781 -107.031895 
L 256.187838 -107.234615 
L 256.517895 -107.437334 
L 256.847952 -107.640054 
L 257.17801 -107.842773 
L 257.508067 -108.045493 
L 257.838124 -108.248212 
L 258.168182 -108.450932 
L 258.498239 -108.653651 
L 258.828296 -108.856371 
L 259.158354 -109.05909 
L 259.488411 -109.26181 
L 259.818468 -109.464529 
L 260.148526 -109.667249 
L 260.478583 -109.869968 
L 260.80864 -110.072688 
L 261.138698 -110.275407 
L 261.468755 -110.478127 
L 261.798812 -110.680846 
L 262.12887 -110.883565 
L 262.458927 -111.086285 
L 262.788984 -111.289004 
L 263.119042 -111.491724 
L 263.449099 -111.694443 
L 263.779156 -111.897163 
L 264.109214 -112.099882 
L 264.439271 -112.302602 
L 264.769328 -112.505321 
L 265.099386 -112.708041 
L 265.429443 -112.91076 
L 265.7595 -113.11348 
L 266.089558 -113.316199 
L 266.419615 -113.518919 
L 266.749672 -113.721638 
L 267.07973 -113.924358 
L 267.409787 -114.127077 
L 267.739844 -114.329797 
L 268.069902 -114.532516 
L 268.399959 -114.735236 
L 268.730016 -114.937955 
L 269.060074 -115.140675 
L 269.390131 -115.343394 
L 269.720188 -115.546114 
L 270.050246 -115.748833 
L 270.380303 -115.951553 
L 270.71036 -116.154272 
L 271.040418 -116.356992 
L 271.370475 -116.559711 
L 271.700532 -116.762431 
L 272.03059 -116.96515 
L 272.360647 -117.16787 
L 272.690704 -117.370589 
L 273.020762 -117.573309 
L 273.350819 -117.776028 
L 273.680876 -117.978748 
L 274.010934 -118.181467 
L 274.340991 -118.384187 
L 274.671048 -118.586906 
L 275.001106 -118.789626 
L 275.331163 -118.992345 
L 275.66122 -119.195065 
L 275.991278 -119.397784 
L 276.321335 -119.600503 
L 276.651392 -119.803223 
L 276.98145 -120.005942 
L 277.311507 -120.208662 
L 277.641564 -120.411381 
L 277.971622 -120.614101 
L 278.301679 -120.81682 
L 278.631736 -121.01954 
L 278.961794 -121.222259 
L 279.291851 -121.424979 
L 279.621908 -121.627698 
L 279.951966 -121.830418 
L 280.282023 -122.033137 
L 280.61208 -122.235857 
L 280.942138 -122.438576 
L 281.272195 -122.641296 
L 281.602252 -122.844015 
L 281.93231 -123.046735 
L 282.262367 -123.249454 
L 282.592424 -123.452174 
L 282.922482 -123.654893 
L 283.252539 -123.857613 
L 283.582596 -124.060332 
L 283.912654 -124.263052 
L 284.242711 -124.465771 
L 284.572768 -124.668491 
L 284.902826 -124.87121 
L 285.232883 -125.07393 
L 285.56294 -125.276649 
L 285.892998 -125.479369 
L 286.223055 -125.682088 
L 286.553112 -125.884808 
L 286.88317 -126.087527 
L 287.213227 -126.290247 
L 287.543284 -126.492966 
L 287.873342 -126.695686 
L 288.203399 -126.898405 
L 288.533456 -127.101125 
L 288.863514 -127.303844 
L 289.193571 -127.506564 
L 289.523628 -127.709283 
L 289.853686 -127.912003 
L 290.183743 -128.114722 
L 290.5138 -128.317441 
L 290.843857 -128.520161 
L 291.173915 -128.72288 
L 291.503972 -128.9256 
L 291.834029 -129.128319 
L 292.164087 -129.331039 
L 292.494144 -129.533758 
L 292.824201 -129.736478 
L 293.154259 -129.939197 
L 293.484316 -130.141917 
L 293.814373 -130.344636 
L 294.144431 -130.547356 
L 294.474488 -130.750075 
L 294.804545 -130.952795 
L 295.134603 -131.155514 
L 295.46466 -131.358234 
L 295.794717 -131.560953 
L 296.124775 -131.763673 
L 296.454832 -131.966392 
L 296.784889 -132.169112 
L 297.114947 -132.371831 
L 297.445004 -132.574551 
L 297.775061 -132.77727 
L 298.105119 -132.97999 
L 298.435176 -133.182709 
L 298.765233 -133.385429 
L 299.095291 -133.588148 
L 299.425348 -133.790868 
L 299.755405 -133.993587 
L 300.085463 -134.196307 
L 300.41552 -134.399026 
L 300.745577 -134.601746 
L 301.075635 -134.804465 
L 301.405692 -135.007185 
L 301.735749 -135.209904 
L 302.065807 -135.412624 
L 302.395864 -135.615343 
L 302.725921 -135.818063 
L 303.055979 -136.020782 
L 303.386036 -136.223502 
L 303.716093 -136.426221 
L 304.046151 -136.628941 
L 304.376208 -136.83166 
L 304.706265 -137.03438 
L 305.036323 -137.237099 
L 305.36638 -137.439818 
L 305.696437 -137.642538 
L 306.026495 -137.845257 
L 306.356552 -138.047977 
L 306.686609 -138.250696 
L 307.016667 -138.453416 
L 307.346724 -138.656135 
L 307.676781 -138.858855 
L 308.006839 -139.061574 
L 308.336896 -139.264294 
L 308.666953 -139.467013 
L 308.997011 -139.669733 
L 309.327068 -139.872452 
L 309.657125 -140.075172 
L 309.987183 -140.277891 
L 310.31724 -140.480611 
L 310.647297 -140.68333 
L 310.977355 -140.88605 
L 311.307412 -141.088769 
L 311.637469 -141.291489 
L 311.967527 -141.494208 
L 312.297584 -141.696928 
L 312.627641 -141.899647 
L 312.957699 -142.102367 
L 313.287756 -142.305086 
L 313.617813 -142.507806 
L 313.947871 -142.710525 
L 314.277928 -142.913245 
L 314.607985 -143.115964 
L 314.938043 -143.318684 
L 315.2681 -143.521403 
L 315.598157 -143.724123 
L 315.928215 -143.926842 
L 316.258272 -144.129562 
L 316.588329 -144.332281 
L 316.918387 -144.535001 
L 317.248444 -144.73772 
L 317.578501 -144.94044 
L 317.908559 -145.143159 
L 318.238616 -145.345879 
L 318.568673 -145.548598 
L 318.898731 -145.751318 
L 319.228788 -145.954037 
L 319.558845 -146.156756 
L 319.888903 -146.359476 
L 320.21896 -146.562195 
L 320.549017 -146.764915 
L 320.879075 -146.967634 
L 321.209132 -147.170354 
L 321.539189 -147.373073 
L 321.869247 -147.575793 
L 322.199304 -147.778512 
L 322.529361 -147.788648 
L 322.859419 -147.80892 
L 323.189476 -147.829192 
L 323.519533 -147.849464 
L 323.84959 -147.869736 
L 324.179648 -147.890008 
L 324.509705 -147.91028 
L 324.839762 -147.930552 
L 325.16982 -147.950824 
L 325.499877 -147.971096 
L 325.829934 -147.991368 
L 326.159992 -148.01164 
L 326.490049 -148.031912 
L 326.820106 -148.052184 
L 327.150164 -148.072456 
L 327.480221 -148.092728 
L 327.810278 -148.113 
L 328.140336 -148.133272 
L 328.470393 -148.153543 
L 328.80045 -148.173815 
L 329.130508 -148.194087 
L 329.460565 -148.214359 
L 329.790622 -148.234631 
L 330.12068 -148.254903 
L 330.450737 -148.275175 
L 330.780794 -148.295447 
L 331.110852 -148.315719 
L 331.440909 -148.335991 
L 331.770966 -148.356263 
L 332.101024 -148.376535 
L 332.431081 -148.396807 
L 332.761138 -148.417079 
L 333.091196 -148.437351 
L 333.421253 -148.457623 
L 333.75131 -148.477895 
L 334.081368 -148.498167 
L 334.411425 -148.518439 
L 334.741482 -148.53871 
L 335.07154 -148.558982 
L 335.401597 -148.579254 
L 335.731654 -148.599526 
L 336.061712 -148.619798 
L 336.391769 -148.64007 
L 336.721826 -148.660342 
L 337.051884 -148.680614 
L 337.381941 -148.700886 
L 337.711998 -148.721158 
L 338.042056 -148.74143 
L 338.372113 -148.761702 
L 338.70217 -148.781974 
L 339.032228 -148.802246 
L 339.362285 -148.822518 
L 339.692342 -148.84279 
L 340.0224 -148.863062 
L 340.352457 -148.883334 
L 340.682514 -148.903606 
L 341.012572 -148.923878 
L 341.342629 -148.944149 
L 341.672686 -148.964421 
L 342.002744 -148.984693 
L 342.332801 -149.004965 
L 342.662858 -149.025237 
L 342.992916 -149.045509 
L 343.322973 -149.065781 
L 343.65303 -149.086053 
L 343.983088 -149.106325 
L 344.313145 -149.126597 
L 344.643202 -149.146869 
L 344.97326 -149.167141 
L 345.303317 -149.187413 
L 345.633374 -149.207685 
L 345.963432 -149.227957 
L 346.293489 -149.248229 
L 346.623546 -149.268501 
L 346.953604 -149.288773 
L 347.283661 -149.309045 
L 347.613718 -149.329316 
L 347.943776 -149.349588 
L 348.273833 -149.36986 
L 348.60389 -149.390132 
L 348.933948 -149.410404 
L 349.264005 -149.430676 
L 349.594062 -149.450948 
L 349.92412 -149.47122 
L 350.254177 -149.491492 
L 350.584234 -149.511764 
L 350.914292 -149.532036 
L 351.244349 -149.552308 
L 351.574406 -149.57258 
L 351.904464 -149.592852 
L 352.234521 -149.613124 
L 352.564578 -149.633396 
L 352.894636 -149.653668 
L 353.224693 -149.67394 
L 353.55475 -149.694212 
L 353.884808 -149.714484 
L 354.214865 -149.734755 
L 354.544922 -149.755027 
L 354.87498 -149.775299 
L 355.205037 -149.795571 
L 355.535094 -149.815843 
L 355.865152 -149.836115 
L 356.195209 -149.856387 
L 356.525266 -149.876659 
L 356.855324 -149.896931 
L 357.185381 -149.917203 
L 357.515438 -149.937475 
L 357.845495 -149.957747 
L 358.175553 -149.978019 
L 358.50561 -149.998291 
L 358.835667 -150.018563 
L 359.165725 -150.038835 
L 359.495782 -150.059107 
L 359.825839 -150.079379 
L 360.155897 -150.099651 
L 360.485954 -150.119922 
L 360.816011 -150.140194 
L 361.146069 -150.160466 
L 361.476126 -150.180738 
L 361.806183 -150.20101 
L 362.136241 -150.221282 
L 362.466298 -150.241554 
L 362.796355 -150.261826 
L 363.126413 -150.282098 
L 363.45647 -150.30237 
L 363.786527 -150.322642 
L 364.116585 -150.342914 
L 364.446642 -150.363186 
L 364.776699 -150.383458 
L 365.106757 -150.40373 
L 365.436814 -150.424002 
L 365.766871 -150.444274 
L 366.096929 -150.464546 
L 366.426986 -150.484818 
L 366.757043 -150.50509 
L 367.087101 -150.525361 
L 367.417158 -150.545633 
L 367.747215 -150.565905 
L 368.077273 -150.586177 
L 368.40733 -150.606449 
L 368.737387 -150.626721 
L 369.067445 -150.646993 
L 369.397502 -150.667265 
L 369.727559 -150.687537 
L 370.057617 -150.707809 
L 370.387674 -150.728081 
L 370.717731 -150.748353 
L 371.047789 -150.768625 
L 371.377846 -150.788897 
L 371.707903 -150.809169 
L 372.037961 -150.829441 
L 372.368018 -150.849713 
L 372.698075 -150.869985 
L 373.028133 -150.890257 
L 373.35819 -150.910528 
L 373.688247 -150.9308 
L 374.018305 -150.951072 
L 374.348362 -150.971344 
L 374.678419 -150.991616 
L 375.008477 -151.011888 
L 375.338534 -151.03216 
L 375.668591 -151.052432 
L 375.998649 -151.072704 
L 376.328706 -151.092976 
L 376.658763 -151.113248 
L 376.988821 -151.13352 
L 377.318878 -151.153792 
L 377.648935 -151.174064 
L 377.978993 -151.194336 
L 378.30905 -151.214608 
L 378.639107 -151.23488 
L 378.969165 -151.255152 
L 379.299222 -151.275424 
L 379.629279 -151.295696 
L 379.959337 -151.315967 
L 380.289394 -151.336239 
L 380.619451 -151.356511 
L 380.949509 -151.376783 
L 381.279566 -151.397055 
L 381.609623 -151.417327 
L 381.939681 -151.437599 
L 382.269738 -151.457871 
L 382.599795 -151.478143 
L 382.929853 -151.498415 
L 383.25991 -151.518687 
L 383.589967 -151.538959 
L 383.920025 -151.559231 
L 384.250082 -151.579503 
L 384.580139 -151.599775 
L 384.910197 -151.620047 
L 385.240254 -151.640319 
L 385.570311 -151.660591 
L 385.900369 -151.680863 
L 386.230426 -151.701135 
L 386.560483 -151.721406 
L 386.890541 -151.741678 
L 387.220598 -151.76195 
L 387.550655 -151.782222 
L 387.880713 -151.802494 
L 388.21077 -151.822766 
L 388.540827 -151.843038 
L 388.870885 -151.86331 
L 389.200942 -151.883582 
L 389.530999 -151.903854 
L 389.861057 -151.924126 
L 390.191114 -151.944398 
L 390.521171 -151.96467 
L 390.851229 -151.984942 
L 391.181286 -152.005214 
L 391.511343 -152.025486 
L 391.8414 -152.045758 
L 392.171458 -152.06603 
L 392.501515 -152.086302 
L 392.831572 -152.106573 
L 393.16163 -152.126845 
L 393.491687 -152.147117 
L 393.821744 -152.167389 
L 394.151802 -152.187661 
L 394.481859 -152.207933 
L 394.811916 -152.228205 
L 395.141974 -152.248477 
L 395.472031 -152.268749 
L 395.802088 -152.289021 
L 396.132146 -152.309293 
L 396.462203 -152.329565 
L 396.79226 -152.349837 
L 397.122318 -152.370109 
L 397.452375 -152.390381 
L 397.782432 -152.410653 
L 398.11249 -152.430925 
L 398.442547 -152.451197 
L 398.772604 -152.471469 
L 399.102662 -152.491741 
L 399.432719 -152.512012 
L 399.762776 -152.532284 
L 400.092834 -152.552556 
L 400.422891 -152.572828 
L 400.752948 -152.5931 
L 401.083006 -152.613372 
L 401.413063 -152.633644 
L 401.74312 -152.653916 
L 402.073178 -152.674188 
L 402.403235 -152.69446 
L 402.733292 -152.714732 
L 403.06335 -152.735004 
L 403.393407 -152.755276 
L 403.723464 -152.775548 
L 404.053522 -152.79582 
L 404.383579 -152.816092 
L 404.713636 -152.836364 
L 404.713636 -97.2 
L 404.713636 -97.2 
L 404.383579 -97.2 
L 404.053522 -97.2 
L 403.723464 -97.2 
L 403.393407 -97.2 
L 403.06335 -97.2 
L 402.733292 -97.2 
L 402.403235 -97.2 
L 402.073178 -97.2 
L 401.74312 -97.2 
L 401.413063 -97.2 
L 401.083006 -97.2 
L 400.752948 -97.2 
L 400.422891 -97.2 
L 400.092834 -97.2 
L 399.762776 -97.2 
L 399.432719 -97.2 
L 399.102662 -97.2 
L 398.772604 -97.2 
L 398.442547 -97.2 
L 398.11249 -97.2 
L 397.782432 -97.2 
L 397.452375 -97.2 
L 397.122318 -97.2 
L 396.79226 -97.2 
L 396.462203 -97.2 
L 396.132146 -97.2 
L 395.802088 -97.2 
L 395.472031 -97.2 
L 395.141974 -97.2 
L 394.811916 -97.2 
L 394.481859 -97.2 
L 394.151802 -97.2 
L 393.821744 -97.2 
L 393.491687 -97.2 
L 393.16163 -97.2 
L 392.831572 -97.2 
L 392.501515 -97.2 
L 392.171458 -97.2 
L 391.8414 -97.2 
L 391.511343 -97.2 
L 391.181286 -97.2 
L 390.851229 -97.2 
L 390.521171 -97.2 
L 390.191114 -97.2 
L 389.861057 -97.2 
L 389.530999 -97.2 
L 389.200942 -97.2 
L 388.870885 -97.2 
L 388.540827 -97.2 
L 388.21077 -97.2 
L 387.880713 -97.2 
L 387.550655 -97.2 
L 387.220598 -97.2 
L 386.890541 -97.2 
L 386.560483 -97.2 
L 386.230426 -97.2 
L 385.900369 -97.2 
L 385.570311 -97.2 
L 385.240254 -97.2 
L 384.910197 -97.2 
L 384.580139 -97.2 
L 384.250082 -97.2 
L 383.920025 -97.2 
L 383.589967 -97.2 
L 383.25991 -97.2 
L 382.929853 -97.2 
L 382.599795 -97.2 
L 382.269738 -97.2 
L 381.939681 -97.2 
L 381.609623 -97.2 
L 381.279566 -97.2 
L 380.949509 -97.2 
L 380.619451 -97.2 
L 380.289394 -97.2 
L 379.959337 -97.2 
L 379.629279 -97.2 
L 379.299222 -97.2 
L 378.969165 -97.2 
L 378.639107 -97.2 
L 378.30905 -97.2 
L 377.978993 -97.2 
L 377.648935 -97.2 
L 377.318878 -97.2 
L 376.988821 -97.2 
L 376.658763 -97.2 
L 376.328706 -97.2 
L 375.998649 -97.2 
L 375.668591 -97.2 
L 375.338534 -97.2 
L 375.008477 -97.2 
L 374.678419 -97.2 
L 374.348362 -97.2 
L 374.018305 -97.2 
L 373.688247 -97.2 
L 373.35819 -97.2 
L 373.028133 -97.2 
L 372.698075 -97.2 
L 372.368018 -97.2 
L 372.037961 -97.2 
L 371.707903 -97.2 
L 371.377846 -97.2 
L 371.047789 -97.2 
L 370.717731 -97.2 
L 370.387674 -97.2 
L 370.057617 -97.2 
L 369.727559 -97.2 
L 369.397502 -97.2 
L 369.067445 -97.2 
L 368.737387 -97.2 
L 368.40733 -97.2 
L 368.077273 -97.2 
L 367.747215 -97.2 
L 367.417158 -97.2 
L 367.087101 -97.2 
L 366.757043 -97.2 
L 366.426986 -97.2 
L 366.096929 -97.2 
L 365.766871 -97.2 
L 365.436814 -97.2 
L 365.106757 -97.2 
L 364.776699 -97.2 
L 364.446642 -97.2 
L 364.116585 -97.2 
L 363.786527 -97.2 
L 363.45647 -97.2 
L 363.126413 -97.2 
L 362.796355 -97.2 
L 362.466298 -97.2 
L 362.136241 -97.2 
L 361.806183 -97.2 
L 361.476126 -97.2 
L 361.146069 -97.2 
L 360.816011 -97.2 
L 360.485954 -97.2 
L 360.155897 -97.2 
L 359.825839 -97.2 
L 359.495782 -97.2 
L 359.165725 -97.2 
L 358.835667 -97.2 
L 358.50561 -97.2 
L 358.175553 -97.2 
L 357.845495 -97.2 
L 357.515438 -97.2 
L 357.185381 -97.2 
L 356.855324 -97.2 
L 356.525266 -97.2 
L 356.195209 -97.2 
L 355.865152 -97.2 
L 355.535094 -97.2 
L 355.205037 -97.2 
L 354.87498 -97.2 
L 354.544922 -97.2 
L 354.214865 -97.2 
L 353.884808 -97.2 
L 353.55475 -97.2 
L 353.224693 -97.2 
L 352.894636 -97.2 
L 352.564578 -97.2 
L 352.234521 -97.2 
L 351.904464 -97.2 
L 351.574406 -97.2 
L 351.244349 -97.2 
L 350.914292 -97.2 
L 350.584234 -97.2 
L 350.254177 -97.2 
L 349.92412 -97.2 
L 349.594062 -97.2 
L 349.264005 -97.2 
L 348.933948 -97.2 
L 348.60389 -97.2 
L 348.273833 -97.2 
L 347.943776 -97.2 
L 347.613718 -97.2 
L 347.283661 -97.2 
L 346.953604 -97.2 
L 346.623546 -97.2 
L 346.293489 -97.2 
L 345.963432 -97.2 
L 345.633374 -97.2 
L 345.303317 -97.2 
L 344.97326 -97.2 
L 344.643202 -97.2 
L 344.313145 -97.2 
L 343.983088 -97.2 
L 343.65303 -97.2 
L 343.322973 -97.2 
L 342.992916 -97.2 
L 342.662858 -97.2 
L 342.332801 -97.2 
L 342.002744 -97.2 
L 341.672686 -97.2 
L 341.342629 -97.2 
L 341.012572 -97.2 
L 340.682514 -97.2 
L 340.352457 -97.2 
L 340.0224 -97.2 
L 339.692342 -97.2 
L 339.362285 -97.2 
L 339.032228 -97.2 
L 338.70217 -97.2 
L 338.372113 -97.2 
L 338.042056 -97.2 
L 337.711998 -97.2 
L 337.381941 -97.2 
L 337.051884 -97.2 
L 336.721826 -97.2 
L 336.391769 -97.2 
L 336.061712 -97.2 
L 335.731654 -97.2 
L 335.401597 -97.2 
L 335.07154 -97.2 
L 334.741482 -97.2 
L 334.411425 -97.2 
L 334.081368 -97.2 
L 333.75131 -97.2 
L 333.421253 -97.2 
L 333.091196 -97.2 
L 332.761138 -97.2 
L 332.431081 -97.2 
L 332.101024 -97.2 
L 331.770966 -97.2 
L 331.440909 -97.2 
L 331.110852 -97.2 
L 330.780794 -97.2 
L 330.450737 -97.2 
L 330.12068 -97.2 
L 329.790622 -97.2 
L 329.460565 -97.2 
L 329.130508 -97.2 
L 328.80045 -97.2 
L 328.470393 -97.2 
L 328.140336 -97.2 
L 327.810278 -97.2 
L 327.480221 -97.2 
L 327.150164 -97.2 
L 326.820106 -97.2 
L 326.490049 -97.2 
L 326.159992 -97.2 
L 325.829934 -97.2 
L 325.499877 -97.2 
L 325.16982 -97.2 
L 324.839762 -97.2 
L 324.509705 -97.2 
L 324.179648 -97.2 
L 323.84959 -97.2 
L 323.519533 -97.2 
L 323.189476 -97.2 
L 322.859419 -97.2 
L 322.529361 -97.2 
L 322.199304 -97.2 
L 321.869247 -97.2 
L 321.539189 -97.2 
L 321.209132 -97.2 
L 320.879075 -97.2 
L 320.549017 -97.2 
L 320.21896 -97.2 
L 319.888903 -97.2 
L 319.558845 -97.2 
L 319.228788 -97.2 
L 318.898731 -97.2 
L 318.568673 -97.2 
L 318.238616 -97.2 
L 317.908559 -97.2 
L 317.578501 -97.2 
L 317.248444 -97.2 
L 316.918387 -97.2 
L 316.588329 -97.2 
L 316.258272 -97.2 
L 315.928215 -97.2 
L 315.598157 -97.2 
L 315.2681 -97.2 
L 314.938043 -97.2 
L 314.607985 -97.2 
L 314.277928 -97.2 
L 313.947871 -97.2 
L 313.617813 -97.2 
L 313.287756 -97.2 
L 312.957699 -97.2 
L 312.627641 -97.2 
L 312.297584 -97.2 
L 311.967527 -97.2 
L 311.637469 -97.2 
L 311.307412 -97.2 
L 310.977355 -97.2 
L 310.647297 -97.2 
L 310.31724 -97.2 
L 309.987183 -97.2 
L 309.657125 -97.2 
L 309.327068 -97.2 
L 308.997011 -97.2 
L 308.666953 -97.2 
L 308.336896 -97.2 
L 308.006839 -97.2 
L 307.676781 -97.2 
L 307.346724 -97.2 
L 307.016667 -97.2 
L 306.686609 -97.2 
L 306.356552 -97.2 
L 306.026495 -97.2 
L 305.696437 -97.2 
L 305.36638 -97.2 
L 305.036323 -97.2 
L 304.706265 -97.2 
L 304.376208 -97.2 
L 304.046151 -97.2 
L 303.716093 -97.2 
L 303.386036 -97.2 
L 303.055979 -97.2 
L 302.725921 -97.2 
L 302.395864 -97.2 
L 302.065807 -97.2 
L 301.735749 -97.2 
L 301.405692 -97.2 
L 301.075635 -97.2 
L 300.745577 -97.2 
L 300.41552 -97.2 
L 300.085463 -97.2 
L 299.755405 -97.2 
L 299.425348 -97.2 
L 299.095291 -97.2 
L 298.765233 -97.2 
L 298.435176 -97.2 
L 298.105119 -97.2 
L 297.775061 -97.2 
L 297.445004 -97.2 
L 297.114947 -97.2 
L 296.784889 -97.2 
L 296.454832 -97.2 
L 296.124775 -97.2 
L 295.794717 -97.2 
L 295.46466 -97.2 
L 295.134603 -97.2 
L 294.804545 -97.2 
L 294.474488 -97.2 
L 294.144431 -97.2 
L 293.814373 -97.2 
L 293.484316 -97.2 
L 293.154259 -97.2 
L 292.824201 -97.2 
L 292.494144 -97.2 
L 292.164087 -97.2 
L 291.834029 -97.2 
L 291.503972 -97.2 
L 291.173915 -97.2 
L 290.843857 -97.2 
L 290.5138 -97.2 
L 290.183743 -97.2 
L 289.853686 -97.2 
L 289.523628 -97.2 
L 289.193571 -97.2 
L 288.863514 -97.2 
L 288.533456 -97.2 
L 288.203399 -97.2 
L 287.873342 -97.2 
L 287.543284 -97.2 
L 287.213227 -97.2 
L 286.88317 -97.2 
L 286.553112 -97.2 
L 286.223055 -97.2 
L 285.892998 -97.2 
L 285.56294 -97.2 
L 285.232883 -97.2 
L 284.902826 -97.2 
L 284.572768 -97.2 
L 284.242711 -97.2 
L 283.912654 -97.2 
L 283.582596 -97.2 
L 283.252539 -97.2 
L 282.922482 -97.2 
L 282.592424 -97.2 
L 282.262367 -97.2 
L 281.93231 -97.2 
L 281.602252 -97.2 
L 281.272195 -97.2 
L 280.942138 -97.2 
L 280.61208 -97.2 
L 280.282023 -97.2 
L 279.951966 -97.2 
L 279.621908 -97.2 
L 279.291851 -97.2 
L 278.961794 -97.2 
L 278.631736 -97.2 
L 278.301679 -97.2 
L 277.971622 -97.2 
L 277.641564 -97.2 
L 277.311507 -97.2 
L 276.98145 -97.2 
L 276.651392 -97.2 
L 276.321335 -97.2 
L 275.991278 -97.2 
L 275.66122 -97.2 
L 275.331163 -97.2 
L 275.001106 -97.2 
L 274.671048 -97.2 
L 274.340991 -97.2 
L 274.010934 -97.2 
L 273.680876 -97.2 
L 273.350819 -97.2 
L 273.020762 -97.2 
L 272.690704 -97.2 
L 272.360647 -97.2 
L 272.03059 -97.2 
L 271.700532 -97.2 
L 271.370475 -97.2 
L 271.040418 -97.2 
L 270.71036 -97.2 
L 270.380303 -97.2 
L 270.050246 -97.2 
L 269.720188 -97.2 
L 269.390131 -97.2 
L 269.060074 -97.2 
L 268.730016 -97.2 
L 268.399959 -97.2 
L 268.069902 -97.2 
L 267.739844 -97.2 
L 267.409787 -97.2 
L 267.07973 -97.2 
L 266.749672 -97.2 
L 266.419615 -97.2 
L 266.089558 -97.2 
L 265.7595 -97.2 
L 265.429443 -97.2 
L 265.099386 -97.2 
L 264.769328 -97.2 
L 264.439271 -97.2 
L 264.109214 -97.2 
L 263.779156 -97.2 
L 263.449099 -97.2 
L 263.119042 -97.2 
L 262.788984 -97.2 
L 262.458927 -97.2 
L 262.12887 -97.2 
L 261.798812 -97.2 
L 261.468755 -97.2 
L 261.138698 -97.2 
L 260.80864 -97.2 
L 260.478583 -97.2 
L 260.148526 -97.2 
L 259.818468 -97.2 
L 259.488411 -97.2 
L 259.158354 -97.2 
L 258.828296 -97.2 
L 258.498239 -97.2 
L 258.168182 -97.2 
L 257.838124 -97.2 
L 257.508067 -97.2 
L 257.17801 -97.2 
L 256.847952 -97.2 
L 256.517895 -97.2 
L 256.187838 -97.2 
L 255.857781 -97.2 
L 255.527723 -97.2 
L 255.197666 -97.2 
L 254.867609 -97.2 
L 254.537551 -97.2 
L 254.207494 -97.2 
L 253.877437 -97.2 
L 253.547379 -97.2 
L 253.217322 -97.2 
L 252.887265 -97.2 
L 252.557207 -97.2 
L 252.22715 -97.2 
L 251.897093 -97.2 
L 251.567035 -97.2 
L 251.236978 -97.2 
L 250.906921 -97.2 
L 250.576863 -97.2 
L 250.246806 -97.2 
L 249.916749 -97.2 
L 249.586691 -97.2 
L 249.256634 -97.2 
L 248.926577 -97.2 
L 248.596519 -97.2 
L 248.266462 -97.2 
L 247.936405 -97.2 
L 247.606347 -97.2 
L 247.27629 -97.2 
L 246.946233 -97.2 
L 246.616175 -97.2 
L 246.286118 -97.2 
L 245.956061 -97.2 
L 245.626003 -97.2 
L 245.295946 -97.2 
L 244.965889 -97.2 
L 244.635831 -97.2 
L 244.305774 -97.2 
L 243.975717 -97.2 
L 243.645659 -97.2 
L 243.315602 -97.2 
L 242.985545 -97.2 
L 242.655487 -97.2 
L 242.32543 -97.2 
L 241.995373 -97.2 
L 241.665315 -97.2 
L 241.335258 -97.2 
L 241.005201 -97.2 
L 240.675143 -97.2 
L 240.345086 -97.2 
L 240.015029 -97.2 
L 239.684971 -97.2 
L 239.354914 -97.2 
L 239.024857 -97.2 
L 238.694799 -97.2 
L 238.364742 -97.2 
L 238.034685 -97.2 
L 237.704627 -97.2 
L 237.37457 -97.2 
L 237.044513 -97.2 
L 236.714455 -97.2 
L 236.384398 -97.2 
L 236.054341 -97.2 
L 235.724283 -97.2 
L 235.394226 -97.2 
L 235.064169 -97.2 
L 234.734111 -97.2 
L 234.404054 -97.2 
L 234.073997 -97.2 
L 233.743939 -97.2 
L 233.413882 -97.2 
L 233.083825 -97.2 
L 232.753767 -97.2 
L 232.42371 -97.2 
L 232.093653 -97.2 
L 231.763595 -97.2 
L 231.433538 -97.2 
L 231.103481 -97.2 
L 230.773423 -97.2 
L 230.443366 -97.2 
L 230.113309 -97.2 
L 229.783251 -97.2 
L 229.453194 -97.2 
L 229.123137 -97.2 
L 228.793079 -97.2 
L 228.463022 -97.2 
L 228.132965 -97.2 
L 227.802907 -97.2 
L 227.47285 -97.2 
L 227.142793 -97.2 
L 226.812735 -97.2 
L 226.482678 -97.2 
L 226.152621 -97.2 
L 225.822563 -97.2 
L 225.492506 -97.2 
L 225.162449 -97.2 
L 224.832391 -97.2 
L 224.502334 -97.2 
L 224.172277 -97.2 
L 223.842219 -97.2 
L 223.512162 -97.2 
L 223.182105 -97.2 
L 222.852048 -97.2 
L 222.52199 -97.2 
L 222.191933 -97.2 
L 221.861876 -97.2 
L 221.531818 -97.2 
L 221.201761 -97.2 
L 220.871704 -97.2 
L 220.541646 -97.2 
L 220.211589 -97.2 
L 219.881532 -97.2 
L 219.551474 -97.2 
L 219.221417 -97.2 
L 218.89136 -97.2 
L 218.561302 -97.2 
L 218.231245 -97.2 
L 217.901188 -97.2 
L 217.57113 -97.2 
L 217.241073 -97.2 
L 216.911016 -97.2 
L 216.580958 -97.2 
L 216.250901 -97.2 
L 215.920844 -97.2 
L 215.590786 -97.2 
L 215.260729 -97.2 
L 214.930672 -97.2 
L 214.600614 -97.2 
L 214.270557 -97.2 
L 213.9405 -97.2 
L 213.610442 -97.2 
L 213.280385 -97.2 
L 212.950328 -97.2 
L 212.62027 -97.2 
L 212.290213 -97.2 
L 211.960156 -97.2 
L 211.630098 -97.2 
L 211.300041 -97.2 
L 210.969984 -97.2 
L 210.639926 -97.2 
L 210.309869 -97.2 
L 209.979812 -97.2 
L 209.649754 -97.2 
L 209.319697 -97.2 
L 208.98964 -97.2 
L 208.659582 -97.2 
L 208.329525 -97.2 
L 207.999468 -97.2 
L 207.66941 -97.2 
L 207.339353 -97.2 
L 207.009296 -97.2 
L 206.679238 -97.2 
L 206.349181 -97.2 
L 206.019124 -97.2 
L 205.689066 -97.2 
L 205.359009 -97.2 
L 205.028952 -97.2 
L 204.698894 -97.2 
L 204.368837 -97.2 
L 204.03878 -97.2 
L 203.708722 -97.2 
L 203.378665 -97.2 
L 203.048608 -97.2 
L 202.71855 -97.2 
L 202.388493 -97.2 
L 202.058436 -97.2 
L 201.728378 -97.2 
L 201.398321 -97.2 
L 201.068264 -97.2 
L 200.738206 -97.2 
L 200.408149 -97.2 
L 200.078092 -97.2 
L 199.748034 -97.2 
L 199.417977 -97.2 
L 199.08792 -97.2 
L 198.757862 -97.2 
L 198.427805 -97.2 
L 198.097748 -97.2 
L 197.76769 -97.2 
L 197.437633 -97.2 
L 197.107576 -97.2 
L 196.777518 -97.2 
L 196.447461 -97.2 
L 196.117404 -97.2 
L 195.787346 -97.2 
L 195.457289 -97.2 
L 195.127232 -97.2 
L 194.797174 -97.2 
L 194.467117 -97.2 
L 194.13706 -97.2 
L 193.807002 -97.2 
L 193.476945 -97.2 
L 193.146888 -97.2 
L 192.81683 -97.2 
L 192.486773 -97.2 
L 192.156716 -97.2 
L 191.826658 -97.2 
L 191.496601 -97.2 
L 191.166544 -97.2 
L 190.836486 -97.2 
L 190.506429 -97.2 
L 190.176372 -97.2 
L 189.846314 -97.2 
L 189.516257 -97.2 
L 189.1862 -97.2 
L 188.856143 -97.2 
L 188.526085 -97.2 
L 188.196028 -97.2 
L 187.865971 -97.2 
L 187.535913 -97.2 
L 187.205856 -97.2 
L 186.875799 -97.2 
L 186.545741 -97.2 
L 186.215684 -97.2 
L 185.885627 -97.2 
L 185.555569 -97.2 
L 185.225512 -97.2 
L 184.895455 -97.2 
L 184.565397 -97.2 
L 184.23534 -97.2 
L 183.905283 -97.2 
L 183.575225 -97.2 
L 183.245168 -97.2 
L 182.915111 -97.2 
L 182.585053 -97.2 
L 182.254996 -97.2 
L 181.924939 -97.2 
L 181.594881 -97.2 
L 181.264824 -97.2 
L 180.934767 -97.2 
L 180.604709 -97.2 
L 180.274652 -97.2 
L 179.944595 -97.2 
L 179.614537 -97.2 
L 179.28448 -97.2 
L 178.954423 -97.2 
L 178.624365 -97.2 
L 178.294308 -97.2 
L 177.964251 -97.2 
L 177.634193 -97.2 
L 177.304136 -97.2 
L 176.974079 -97.2 
L 176.644021 -97.2 
L 176.313964 -97.2 
L 175.983907 -97.2 
L 175.653849 -97.2 
L 175.323792 -97.2 
L 174.993735 -97.2 
L 174.663677 -97.2 
L 174.33362 -97.2 
L 174.003563 -97.2 
L 173.673505 -97.2 
L 173.343448 -97.2 
L 173.013391 -97.2 
L 172.683333 -97.2 
L 172.353276 -97.2 
L 172.023219 -97.2 
L 171.693161 -97.2 
L 171.363104 -97.2 
L 171.033047 -97.2 
L 170.702989 -97.2 
L 170.372932 -97.2 
L 170.042875 -97.2 
L 169.712817 -97.2 
L 169.38276 -97.2 
L 169.052703 -97.2 
L 168.722645 -97.2 
L 168.392588 -97.2 
L 168.062531 -97.2 
L 167.732473 -97.2 
L 167.402416 -97.2 
L 167.072359 -97.2 
L 166.742301 -97.2 
L 166.412244 -97.2 
L 166.082187 -97.2 
L 165.752129 -97.2 
L 165.422072 -97.2 
L 165.092015 -97.2 
L 164.761957 -97.2 
L 164.4319 -97.2 
L 164.101843 -97.2 
L 163.771785 -97.2 
L 163.441728 -97.2 
L 163.111671 -97.2 
L 162.781613 -97.2 
L 162.451556 -97.2 
L 162.121499 -97.2 
L 161.791441 -97.2 
L 161.461384 -97.2 
L 161.131327 -97.2 
L 160.801269 -97.2 
L 160.471212 -97.2 
L 160.141155 -97.2 
L 159.811097 -97.2 
L 159.48104 -97.2 
L 159.150983 -97.2 
L 158.820925 -97.2 
L 158.490868 -97.2 
L 158.160811 -97.2 
L 157.830753 -97.2 
L 157.500696 -97.2 
L 157.170639 -97.2 
L 156.840581 -97.2 
L 156.510524 -97.2 
L 156.180467 -97.2 
L 155.85041 -97.2 
L 155.520352 -97.2 
L 155.190295 -97.2 
L 154.860238 -97.2 
L 154.53018 -97.2 
L 154.200123 -97.2 
L 153.870066 -97.2 
L 153.540008 -97.2 
L 153.209951 -97.2 
L 152.879894 -97.2 
L 152.549836 -97.2 
L 152.219779 -97.2 
L 151.889722 -97.2 
L 151.559664 -97.2 
L 151.229607 -97.2 
L 150.89955 -97.2 
L 150.569492 -97.2 
L 150.239435 -97.2 
L 149.909378 -97.2 
L 149.57932 -97.2 
L 149.249263 -97.2 
L 148.919206 -97.2 
L 148.589148 -97.2 
L 148.259091 -97.2 
L 147.929034 -97.2 
L 147.598976 -97.2 
L 147.268919 -97.2 
L 146.938862 -97.2 
L 146.608804 -97.2 
L 146.278747 -97.2 
L 145.94869 -97.2 
L 145.618632 -97.2 
L 145.288575 -97.2 
L 144.958518 -97.2 
L 144.62846 -97.2 
L 144.298403 -97.2 
L 143.968346 -97.2 
L 143.638288 -97.2 
L 143.308231 -97.2 
L 142.978174 -97.2 
L 142.648116 -97.2 
L 142.318059 -97.2 
L 141.988002 -97.2 
L 141.657944 -97.2 
L 141.327887 -97.2 
L 140.99783 -97.2 
L 140.667772 -97.2 
L 140.337715 -97.2 
L 140.007658 -97.2 
L 139.6776 -97.2 
L 139.347543 -97.2 
L 139.017486 -97.2 
L 138.687428 -97.2 
L 138.357371 -97.2 
L 138.027314 -97.2 
L 137.697256 -97.2 
L 137.367199 -97.2 
L 137.037142 -97.2 
L 136.707084 -97.2 
L 136.377027 -97.2 
L 136.04697 -97.2 
L 135.716912 -97.2 
L 135.386855 -97.2 
L 135.056798 -97.2 
L 134.72674 -97.2 
L 134.396683 -97.2 
L 134.066626 -97.2 
L 133.736568 -97.2 
L 133.406511 -97.2 
L 133.076454 -97.2 
L 132.746396 -97.2 
L 132.416339 -97.2 
L 132.086282 -97.2 
L 131.756224 -97.2 
L 131.426167 -97.2 
L 131.09611 -97.2 
L 130.766052 -97.2 
L 130.435995 -97.2 
L 130.105938 -97.2 
L 129.77588 -97.2 
L 129.445823 -97.2 
L 129.115766 -97.2 
L 128.785708 -97.2 
L 128.455651 -97.2 
L 128.125594 -97.2 
L 127.795536 -97.2 
L 127.465479 -97.2 
L 127.135422 -97.2 
L 126.805364 -97.2 
L 126.475307 -97.2 
L 126.14525 -97.2 
L 125.815192 -97.2 
L 125.485135 -97.2 
L 125.155078 -97.2 
L 124.82502 -97.2 
L 124.494963 -97.2 
L 124.164906 -97.2 
L 123.834848 -97.2 
L 123.504791 -97.2 
L 123.174734 -97.2 
L 122.844676 -97.2 
L 122.514619 -97.2 
L 122.184562 -97.2 
L 121.854505 -97.2 
L 121.524447 -97.2 
L 121.19439 -97.2 
L 120.864333 -97.2 
L 120.534275 -97.2 
L 120.204218 -97.2 
L 119.874161 -97.2 
L 119.544103 -97.2 
L 119.214046 -97.2 
L 118.883989 -97.2 
L 118.553931 -97.2 
L 118.223874 -97.2 
L 117.893817 -97.2 
L 117.563759 -97.2 
L 117.233702 -97.2 
L 116.903645 -97.2 
L 116.573587 -97.2 
L 116.24353 -97.2 
L 115.913473 -97.2 
L 115.583415 -97.2 
L 115.253358 -97.2 
L 114.923301 -97.2 
L 114.593243 -97.2 
L 114.263186 -97.2 
L 113.933129 -97.2 
L 113.603071 -97.2 
L 113.273014 -97.2 
L 112.942957 -97.2 
L 112.612899 -97.2 
L 112.282842 -97.2 
L 111.952785 -97.2 
L 111.622727 -97.2 
L 111.29267 -97.2 
L 110.962613 -97.2 
L 110.632555 -97.2 
L 110.302498 -97.2 
L 109.972441 -97.2 
L 109.642383 -97.2 
L 109.312326 -97.2 
L 108.982269 -97.2 
L 108.652211 -97.2 
L 108.322154 -97.2 
L 107.992097 -97.2 
L 107.662039 -97.2 
L 107.331982 -97.2 
L 107.001925 -97.2 
L 106.671867 -97.2 
L 106.34181 -97.2 
L 106.011753 -97.2 
L 105.681695 -97.2 
L 105.351638 -97.2 
L 105.021581 -97.2 
L 104.691523 -97.2 
L 104.361466 -97.2 
L 104.031409 -97.2 
L 103.701351 -97.2 
L 103.371294 -97.2 
L 103.041237 -97.2 
L 102.711179 -97.2 
L 102.381122 -97.2 
L 102.051065 -97.2 
L 101.721007 -97.2 
L 101.39095 -97.2 
L 101.060893 -97.2 
L 100.730835 -97.2 
L 100.400778 -97.2 
L 100.070721 -97.2 
L 99.740663 -97.2 
L 99.410606 -97.2 
L 99.080549 -97.2 
L 98.750491 -97.2 
L 98.420434 -97.2 
L 98.090377 -97.2 
L 97.760319 -97.2 
L 97.430262 -97.2 
L 97.100205 -97.2 
L 96.770147 -97.2 
L 96.44009 -97.2 
L 96.110033 -97.2 
L 95.779975 -97.2 
L 95.449918 -97.2 
L 95.119861 -97.2 
L 94.789803 -97.2 
L 94.459746 -97.2 
L 94.129689 -97.2 
L 93.799631 -97.2 
L 93.469574 -97.2 
L 93.139517 -97.2 
L 92.809459 -97.2 
L 92.479402 -97.2 
L 92.149345 -97.2 
L 91.819287 -97.2 
L 91.48923 -97.2 
L 91.159173 -97.2 
L 90.829115 -97.2 
L 90.499058 -97.2 
L 90.169001 -97.2 
L 89.838943 -97.2 
L 89.508886 -97.2 
L 89.178829 -97.2 
L 88.848771 -97.2 
L 88.518714 -97.2 
L 88.188657 -97.2 
L 87.8586 -97.2 
L 87.528542 -97.2 
L 87.198485 -97.2 
L 86.868428 -97.2 
L 86.53837 -97.2 
L 86.208313 -97.2 
L 85.878256 -97.2 
L 85.548198 -97.2 
L 85.218141 -97.2 
L 84.888084 -97.2 
L 84.558026 -97.2 
L 84.227969 -97.2 
L 83.897912 -97.2 
L 83.567854 -97.2 
L 83.237797 -97.2 
L 82.90774 -97.2 
L 82.577682 -97.2 
L 82.247625 -97.2 
L 81.917568 -97.2 
L 81.58751 -97.2 
L 81.257453 -97.2 
L 80.927396 -97.2 
L 80.597338 -97.2 
L 80.267281 -97.2 
L 79.937224 -97.2 
L 79.607166 -97.2 
L 79.277109 -97.2 
L 78.947052 -97.2 
L 78.616994 -97.2 
L 78.286937 -97.2 
L 77.95688 -97.2 
L 77.626822 -97.2 
L 77.296765 -97.2 
L 76.966708 -97.2 
L 76.63665 -97.2 
L 76.306593 -97.2 
L 75.976536 -97.2 
L 75.646478 -97.2 
L 75.316421 -97.2 
L 74.986364 -97.2 
z
" style="stroke: #000000; stroke-opacity: 0.1; stroke-width: 0.5"/>
    </defs>
    <g clip-path="url(#pe6f3b1784e)">
     <use xlink:href="#m35776a4822" x="0" y="180" style="fill-opacity: 0.1; stroke: #000000; stroke-opacity: 0.1; stroke-width: 0.5"/>
    </g>
   </g>
   <g id="line2d_29">
    <path d="M 74.986364 138.436364 
L 157.500696 133.378512 
L 322.199304 32.221488 
L 325.829934 32.008632 
L 404.713636 27.163636 
L 404.713636 27.163636 
" clip-path="url(#pe6f3b1784e)" style="fill: none; stroke: #000000; stroke-width: 0.7; stroke-linecap: square"/>
   </g>
   <g id="line2d_30">
    <path d="M 198.634091 144 
L 198.634091 21.6 
" clip-path="url(#pe6f3b1784e)" style="fill: none; stroke-dasharray: 2.59,1.12; stroke-dashoffset: 0; stroke: #000000; stroke-width: 0.7"/>
   </g>
   <g id="line2d_31">
    <path d="M 94.686661 144 
L 94.686661 21.6 
" clip-path="url(#pe6f3b1784e)" style="fill: none; stroke-dasharray: 0.7,1.155; stroke-dashoffset: 0; stroke: #000000; stroke-width: 0.7"/>
   </g>
   <g id="patch_3">
    <path d="M 58.5 144 
L 58.5 21.6 
" style="fill: none; stroke: #000000; stroke-width: 0.5; stroke-linejoin: miter; stroke-linecap: square"/>
   </g>
   <g id="patch_4">
    <path d="M 58.5 144 
L 421.2 144 
" style="fill: none; stroke: #000000; stroke-width: 0.5; stroke-linejoin: miter; stroke-linecap: square"/>
   </g>
   <g id="legend_1">
    <g id="patch_5">
     <path d="M 371.82223 139 
L 414.2 139 
Q 416.2 139 416.2 137 
L 416.2 110.125643 
Q 416.2 108.125643 414.2 108.125643 
L 371.82223 108.125643 
Q 369.82223 108.125643 369.82223 110.125643 
L 369.82223 137 
Q 369.82223 139 371.82223 139 
z
" style="fill: #ffffff; opacity: 0.8; stroke: #cccccc; stroke-width: 0.5; stroke-linejoin: miter"/>
    </g>
    <g id="line2d_32">
     <path d="M 373.82223 115.625643 
L 383.82223 115.625643 
L 393.82223 115.625643 
" style="fill: none; stroke-dasharray: 2.59,1.12; stroke-dashoffset: 0; stroke: #000000; stroke-width: 0.7"/>
    </g>
    <g id="text_17">
     <!-- $F_1$ -->
     <g transform="translate(401.82223 119.125643) scale(0.1 -0.1)">
      <defs>
       <path id="CMMI12-46" d="M 1901 2055 
L 2515 2055 
C 3002 2055 3040 1946 3040 1761 
C 3040 1678 3027 1589 2995 1448 
C 2982 1423 2976 1391 2976 1378 
C 2976 1333 3002 1308 3046 1308 
C 3098 1308 3104 1333 3130 1435 
L 3501 2935 
C 3501 2961 3482 2999 3437 2999 
C 3379 2999 3373 2974 3347 2863 
C 3213 2376 3085 2240 2528 2240 
L 1946 2240 
L 2362 3926 
C 2419 4154 2432 4154 2694 4154 
L 3552 4154 
C 4352 4154 4467 3918 4467 3464 
C 4467 3426 4467 3285 4448 3119 
C 4442 3094 4429 3011 4429 2985 
C 4429 2934 4461 2915 4499 2915 
C 4544 2915 4570 2941 4582 3055 
L 4717 4174 
C 4717 4195 4730 4263 4730 4277 
C 4730 4352 4672 4352 4557 4352 
L 1523 4352 
C 1402 4352 1338 4352 1338 4229 
C 1338 4154 1382 4154 1491 4154 
C 1888 4154 1888 4113 1888 4050 
C 1888 4018 1882 3992 1862 3922 
L 998 473 
C 941 249 928 185 480 185 
C 358 185 294 185 294 70 
C 294 0 352 0 390 0 
C 512 0 640 0 762 0 
L 1594 0 
C 1734 0 1888 0 2029 0 
C 2086 0 2163 0 2163 115 
C 2163 185 2125 185 1984 185 
C 1478 185 1466 229 1466 324 
C 1466 356 1478 406 1491 449 
L 1901 2055 
z
" transform="scale(0.015625)"/>
      </defs>
      <use xlink:href="#CMMI12-46" transform="scale(0.996264)"/>
      <use xlink:href="#CMR17-31" transform="translate(63.148204 -14.943915) scale(0.697382)"/>
     </g>
    </g>
    <g id="line2d_33">
     <path d="M 373.82223 129.562822 
L 383.82223 129.562822 
L 393.82223 129.562822 
" style="fill: none; stroke-dasharray: 0.7,1.155; stroke-dashoffset: 0; stroke: #000000; stroke-width: 0.7"/>
    </g>
    <g id="text_18">
     <!-- $F_2$ -->
     <g transform="translate(401.82223 133.062822) scale(0.1 -0.1)">
      <use xlink:href="#CMMI12-46" transform="scale(0.996264)"/>
      <use xlink:href="#CMR17-32" transform="translate(63.148204 -14.943915) scale(0.697382)"/>
     </g>
    </g>
   </g>
  </g>
 </g>
 <defs>
  <clipPath id="pe6f3b1784e">
   <rect x="58.5" y="21.6" width="362.7" height="122.4"/>
  </clipPath>
 </defs>
</svg>
