<?xml version="1.0" encoding="UTF-8" standalone="yes"?>
<svg xmlns="http://www.w3.org/2000/svg" xmlns:xlink="http://www.w3.org/1999/xlink" width="52.599mm" height="27.595mm" version="1.1" viewBox="-108.233 437.255 273.349 143.408">
  <!--
	Exported with Concepts: Smarter Sketching
	Version: 2670 on iOS 16.2
	https://concepts.app/
	-->
  <title>F9F214B3-D780-4922-B87E-63332AD9463F</title>
  <desc>Drawing exported from Concepts: Smarter Sketching</desc>
  <defs></defs>
  <g id="Füllen" opacity="1.000">
    <path id="STROKE_111e648b-a703-4be6-b4e7-fc19d625a72c" opacity="0.500" fill="#d3dbdc" stroke="#d3dbdc" stroke-width="0.500" stroke-opacity="1.000" stroke-linecap="round" stroke-linejoin="round" d="M -103.914 456.500 Q -103.921 456.500 -103.940 456.493 Q -103.940 456.480 -103.940 456.447 Q -103.940 456.690 -103.940 456.636 Q -103.940 456.919 -103.940 456.872 Q -103.870 457.060 -103.920 458.821 Q -103.970 460.582 -104.027 461.882 Q -104.083 463.182 -103.976 464.107 Q -103.868 465.031 -103.904 465.671 Q -103.939 466.311 -103.784 468.703 Q -103.628 471.094 -103.512 472.380 Q -103.395 473.667 -103.364 474.578 Q -103.333 475.488 -103.197 477.198 Q -103.062 478.907 -103.000 479.755 Q -102.938 480.602 -102.934 480.971 Q -102.929 481.340 -102.927 481.570 Q -102.924 481.800 -102.926 482.419 Q -102.929 483.039 -103.017 483.912 Q -103.105 484.785 -103.196 485.437 Q -103.287 486.089 -103.363 487.555 Q -103.439 489.021 -103.444 489.752 Q -103.449 490.483 -103.453 490.928 Q -103.457 491.372 -103.433 493.219 Q -103.410 495.066 -103.410 496.966 Q -103.411 498.866 -103.405 499.841 Q -103.400 500.817 -103.419 501.245 Q -103.438 501.672 -103.489 503.139 Q -103.540 504.606 -103.567 505.496 Q -103.594 506.386 -103.592 506.765 Q -103.589 507.144 -103.585 507.651 Q -103.581 508.158 -103.600 508.581 Q -103.619 509.004 -103.573 510.890 Q -103.526 512.775 -103.488 513.763 Q -103.450 514.750 -103.426 515.269 Q -103.401 515.787 -103.372 517.307 Q -103.344 518.827 -103.427 520.076 Q -103.511 521.325 -103.629 522.362 Q -103.747 523.400 -103.812 523.913 Q -103.876 524.426 -103.919 525.727 Q -103.962 527.028 -103.916 527.967 Q -103.870 528.907 -103.753 529.825 Q -103.636 530.743 -103.572 531.968 Q -103.509 533.193 -103.485 533.727 Q -103.462 534.261 -103.396 535.646 Q -103.331 537.032 -103.540 539.608 Q -103.750 542.184 -103.862 543.557 Q -103.974 544.930 -104.055 545.626 Q -104.135 546.321 -104.166 548.324 Q -104.197 550.327 -104.179 551.458 Q -104.160 552.589 -104.146 552.973 Q -104.132 553.357 -104.135 554.553 Q -104.139 555.749 -104.138 556.415 Q -104.136 557.080 -104.139 557.749 Q -104.142 558.419 -104.124 559.720 Q -104.013 559.715 -104.103 559.719 Q -104.192 559.724 -103.892 559.761 Q -103.592 559.799 -103.369 559.805 Q -103.145 559.812 -103.036 559.813 Q -102.927 559.813 -102.870 559.813 Q -102.814 559.812 -102.778 559.816 Q -102.742 559.819 -102.731 559.807 Q -102.721 559.796 -102.515 559.827 Q -102.309 559.858 -102.028 559.918 Q -101.747 559.979 -101.547 560.020 Q -101.347 560.061 -101.176 560.094 Q -101.004 560.127 -100.770 560.142 Q -100.536 560.157 -100.073 560.214 Q -99.611 560.271 -99.277 560.342 Q -98.942 560.414 -98.695 560.420 Q -98.449 560.427 -98.276 560.425 Q -98.103 560.423 -98.025 560.424 Q -97.946 560.424 -97.858 560.424 Q -97.769 560.423 -97.658 560.420 Q -97.548 560.417 -97.668 560.421 Q -97.789 560.425 -96.830 560.335 Q -95.871 560.245 -95.369 560.159 Q -94.867 560.073 -94.276 559.943 Q -93.685 559.814 -93.266 559.770 Q -92.847 559.727 -92.663 559.704 Q -92.479 559.681 -92.247 559.649 Q -92.015 559.617 -91.386 559.620 Q -90.758 559.622 -90.450 559.630 Q -90.142 559.639 -89.989 559.671 Q -89.837 559.703 -89.536 559.699 Q -89.236 559.694 -88.919 559.695 Q -88.603 559.696 -88.559 559.697 Q -88.516 559.698 -88.165 559.693 Q -87.815 559.688 -87.327 559.688 Q -86.840 559.689 -86.556 559.697 Q -86.272 559.705 -86.215 559.714 Q -86.158 559.722 -85.916 559.757 Q -85.675 559.792 -85.418 559.825 Q -85.161 559.858 -84.965 559.889 Q -84.769 559.919 -84.662 559.932 Q -84.555 559.945 -84.397 559.958 Q -84.238 559.972 -84.147 559.963 Q -84.056 559.955 -83.833 559.968 Q -83.609 559.982 -82.841 559.977 Q -82.072 559.973 -81.654 559.933 Q -81.237 559.893 -81.044 559.859 Q -80.852 559.825 -80.760 559.809 Q -80.669 559.794 -80.646 559.762 Q -80.622 559.730 -80.068 559.681 Q -79.514 559.633 -79.075 559.648 Q -78.636 559.664 -78.422 559.624 Q -78.209 559.585 -77.764 559.572 Q -77.319 559.559 -77.075 559.579 Q -76.832 559.598 -76.713 559.594 Q -76.595 559.590 -76.497 559.598 Q -76.400 559.605 -76.475 559.586 Q -76.550 559.567 -76.138 559.602 Q -75.725 559.637 -75.488 559.696 Q -75.251 559.756 -75.144 559.762 Q -75.038 559.769 -74.948 559.779 Q -74.858 559.789 -74.722 559.787 Q -74.586 559.785 -74.468 559.785 Q -74.349 559.785 -74.290 559.785 Q -74.231 559.786 -74.214 559.789 Q -74.198 559.792 -74.111 559.796 Q -74.024 559.800 -74.035 559.787 Q -74.045 559.774 -73.929 559.809 Q -73.813 559.844 -73.039 559.856 Q -72.264 559.867 -71.710 559.805 Q -71.156 559.742 -70.881 559.691 Q -70.607 559.640 -70.381 559.614 Q -70.155 559.588 -69.998 559.574 Q -69.840 559.560 -69.723 559.554 Q -69.606 559.548 -69.452 559.549 Q -69.298 559.549 -69.204 559.552 Q -69.110 559.556 -68.834 559.554 Q -68.558 559.553 -68.284 559.542 Q -68.010 559.530 -67.924 559.527 Q -67.837 559.524 -66.917 559.525 Q -65.996 559.527 -65.427 559.526 Q -64.857 559.525 -64.509 559.527 Q -64.160 559.530 -63.883 559.527 Q -63.605 559.525 -63.245 559.511 Q -62.884 559.497 -62.405 559.498 Q -61.925 559.500 -61.718 559.500 Q -61.512 559.499 -61.411 559.499 Q -61.310 559.500 -61.321 559.499 Q -61.333 559.499 -61.337 559.499 Q -61.341 559.499 -61.297 559.499 Q -61.253 559.499 -61.304 559.494 Q -61.356 559.489 -61.200 559.490 Q -61.044 559.491 -60.174 559.551 Q -59.304 559.611 -58.737 559.594 Q -58.169 559.578 -57.945 559.560 Q -57.720 559.542 -57.405 559.555 Q -57.090 559.569 -56.923 559.583 Q -56.757 559.597 -56.677 559.593 Q -56.597 559.590 -56.596 559.591 Q -56.595 559.592 -56.591 559.580 Q -56.588 559.568 -56.563 559.616 Q -56.539 559.664 -55.426 559.627 Q -54.313 559.589 -53.672 559.575 Q -53.031 559.561 -52.784 559.554 Q -52.537 559.546 -52.522 559.501 Q -52.507 559.455 -52.497 559.458 Q -52.487 559.461 -52.367 559.382 Q -52.248 559.303 -52.249 559.307 Q -52.249 559.311 -52.228 559.298 Q -52.208 559.285 -52.150 559.272 Q -52.093 559.259 -51.984 559.212 Q -51.876 559.165 -51.873 559.162 Q -51.870 559.159 -51.863 559.154 Q -51.855 559.149 -51.824 559.125 Q -51.793 559.102 -51.683 559.015 Q -51.573 558.929 -51.622 558.957 Q -51.671 558.986 -51.583 558.909 Q -51.495 558.833 -51.379 558.769 Q -51.263 558.705 -51.266 558.708 Q -51.268 558.710 -51.282 558.718 Q -51.297 558.725 -51.247 558.700 Q -51.198 558.674 -51.116 558.586 Q -51.033 558.498 -51.047 558.492 Q -51.061 558.485 -51.055 558.477 Q -51.049 558.468 -51.029 558.426 Q -51.009 558.384 -50.992 557.695 Q -50.974 557.007 -50.980 556.623 Q -50.986 556.239 -51.006 556.058 Q -51.026 555.877 -51.042 555.795 Q -51.057 555.712 -51.064 555.647 Q -51.071 555.582 -51.067 555.656 Q -51.062 555.731 -51.146 554.796 Q -51.230 553.862 -51.225 552.414 Q -51.221 550.967 -51.129 550.048 Q -51.037 549.129 -51.032 548.219 Q -51.027 547.310 -51.015 546.588 Q -51.003 545.866 -51.092 545.288 Q -51.182 544.709 -51.299 543.846 Q -51.415 542.984 -51.459 542.467 Q -51.504 541.951 -51.558 541.597 Q -51.611 541.243 -51.710 540.266 Q -51.808 539.289 -51.722 537.883 Q -51.636 536.478 -51.560 535.638 Q -51.485 534.797 -51.469 534.437 Q -51.454 534.077 -51.436 533.879 Q -51.418 533.680 -51.403 533.561 Q -51.389 533.441 -51.376 533.139 Q -51.363 532.837 -51.365 532.716 Q -51.367 532.594 -51.358 532.055 Q -51.349 531.516 -51.448 530.295 Q -51.548 529.075 -51.578 528.440 Q -51.609 527.805 -51.700 527.312 Q -51.791 526.819 -51.821 525.890 Q -51.851 524.961 -51.861 524.560 Q -51.871 524.158 -51.854 522.269 Q -51.838 520.380 -51.853 519.392 Q -51.868 518.403 -51.798 517.828 Q -51.729 517.252 -51.649 516.280 Q -51.570 515.309 -51.558 514.896 Q -51.546 514.484 -51.469 513.921 Q -51.391 513.359 -51.276 511.612 Q -51.160 509.865 -51.191 508.352 Q -51.222 506.839 -51.285 506.164 Q -51.348 505.488 -51.346 505.239 Q -51.345 504.990 -51.618 503.266 Q -51.891 501.543 -52.009 500.396 Q -52.126 499.249 -52.156 498.656 Q -52.186 498.063 -52.232 497.570 Q -52.278 497.077 -52.271 495.633 Q -52.265 494.189 -52.204 492.726 Q -52.143 491.263 -52.121 490.460 Q -52.098 489.657 -52.108 488.804 Q -52.118 487.951 -52.109 487.397 Q -52.101 486.842 -52.067 486.054 Q -52.034 485.267 -52.016 484.651 Q -51.998 484.035 -52.010 483.831 Q -52.022 483.627 -51.987 482.726 Q -51.952 481.826 -51.797 479.811 Q -51.642 477.797 -51.587 476.770 Q -51.533 475.743 -51.481 475.148 Q -51.430 474.554 -51.413 474.093 Q -51.397 473.633 -51.397 472.831 Q -51.398 472.029 -51.373 470.997 Q -51.349 469.964 -51.316 469.344 Q -51.283 468.723 -51.278 468.428 Q -51.274 468.134 -51.274 467.952 Q -51.275 467.770 -51.280 466.822 Q -51.285 465.874 -51.266 465.239 Q -51.247 464.605 -51.264 463.678 Q -51.281 462.752 -51.276 462.263 Q -51.271 461.775 -51.331 461.541 Q -51.391 461.308 -51.453 461.039 Q -51.516 460.771 -51.521 460.643 Q -51.526 460.516 -51.525 460.443 Q -51.523 460.370 -51.524 460.251 Q -51.524 460.131 -51.524 460.031 Q -51.524 459.930 -51.524 459.912 Q -51.524 459.894 -51.529 459.886 Q -51.535 459.878 -51.528 459.892 Q -51.522 459.907 -51.517 459.396 Q -51.513 458.884 -51.558 458.423 Q -51.603 457.961 -51.621 457.722 Q -51.639 457.483 -51.651 457.441 Q -51.663 457.399 -51.672 457.346 Q -51.681 457.294 -51.695 457.228 Q -51.709 457.162 -51.705 457.164 Q -51.744 456.918 -51.731 456.988 Q -51.745 456.786 -51.747 456.771 Q -51.748 456.755 -51.744 456.785 Q -51.744 456.481 -51.744 456.578 Q -51.744 456.286 -51.744 456.389 Q -51.744 456.193 -51.744 456.179 Q -51.744 456.164 -51.744 456.193 Q -51.744 455.899 -51.744 456.005 Q -51.744 455.998 -51.750 455.925 Q -52.077 455.764 -52.006 455.800 Q -51.935 455.837 -52.161 455.678 "></path>
    <path id="STROKE_0723b5e3-8538-44f4-bf0b-cfb57fa214b3" opacity="0.500" fill="#71c047" stroke="#71c047" stroke-width="0.500" stroke-opacity="1.000" stroke-linecap="round" stroke-linejoin="round" d="M 52.600 456.100 L 52.600 456.284 L 52.600 456.474 L 52.600 456.721 L 52.600 456.969 L 52.600 457.245 L 52.600 457.521 L 52.600 457.895 L 52.600 458.234 L 52.600 458.602 L 52.600 458.976 L 52.600 459.373 L 52.600 459.776 L 52.600 460.178 L 52.600 460.610 L 52.600 461.013 L 52.600 461.415 L 52.600 461.875 L 52.600 462.249 L 52.600 462.744 L 52.600 463.112 L 52.600 463.636 L 52.600 464.009 L 52.600 464.504 L 52.600 464.843 L 52.600 465.367 L 52.600 465.741 L 52.600 466.264 L 52.600 466.632 L 52.600 467.098 L 52.600 467.466 L 52.600 467.996 L 52.600 468.364 L 52.600 468.887 L 52.600 469.319 L 52.600 469.721 L 52.600 470.095 L 52.600 470.590 L 52.600 470.895 L 52.600 471.332 L 52.600 471.700 L 52.600 472.068 L 52.600 472.408 L 52.600 472.782 L 52.600 473.121 L 52.600 473.460 L 52.600 473.771 L 52.600 474.139 L 52.600 474.450 L 52.600 474.852 L 52.600 475.128 L 52.600 475.497 L 52.600 475.807 L 52.600 476.181 L 52.600 476.486 L 52.600 476.860 L 52.600 477.165 L 52.600 477.539 L 52.600 477.849 L 52.600 478.217 L 52.600 478.557 L 52.600 478.959 L 52.600 479.270 L 52.600 479.609 L 52.600 479.914 L 52.600 480.288 L 52.600 480.593 L 52.600 480.938 L 52.600 481.214 L 52.600 481.554 L 52.600 481.830 L 52.600 482.169 L 52.600 482.451 L 52.600 482.756 L 52.600 483.038 L 52.600 483.343 L 52.600 483.590 L 52.600 483.929 L 52.600 484.211 L 52.600 484.551 L 52.600 484.827 L 52.600 485.166 L 52.600 485.442 L 52.600 485.753 L 52.600 486.035 L 52.600 486.340 L 52.600 486.587 L 52.600 486.898 L 52.600 487.145 L 52.600 487.456 L 52.600 487.697 L 52.600 488.008 L 52.600 488.290 L 52.600 488.594 L 52.600 488.876 L 52.600 489.181 L 52.600 489.521 L 52.600 489.831 L 52.600 490.107 L 52.600 490.418 L 52.600 490.694 L 52.600 491.033 L 52.600 491.315 L 52.600 491.655 L 52.600 491.965 L 52.600 492.270 L 52.600 492.552 L 52.600 492.891 L 52.600 493.139 L 52.600 493.444 L 52.600 493.725 L 52.600 494.030 L 52.600 494.278 L 52.600 494.560 L 52.600 494.807 L 52.600 495.048 L 52.600 495.296 L 52.600 495.543 L 52.600 495.762 L 52.600 495.980 L 52.600 496.193 L 52.600 507.824 L 64.197 496.228 L 64.383 496.041 L 64.613 495.812 L 64.812 495.612 L 65.062 495.362 L 65.249 495.175 L 65.496 494.929 L 65.709 494.715 L 65.956 494.469 L 66.155 494.269 L 66.402 494.023 L 66.622 493.802 L 66.853 493.571 L 67.067 493.357 L 67.299 493.125 L 67.516 492.909 L 67.747 492.678 L 67.931 492.494 L 68.148 492.276 L 68.350 492.075 L 68.566 491.858 L 68.750 491.674 L 68.950 491.474 L 69.136 491.288 L 69.335 491.089 L 69.508 490.916 L 69.724 490.700 L 69.908 490.516 L 70.107 490.317 L 70.294 490.130 L 70.508 489.917 L 70.692 489.732 L 70.908 489.516 L 71.096 489.328 L 71.298 489.127 L 71.467 488.957 L 71.696 488.728 L 71.882 488.542 L 72.129 488.295 L 72.313 488.111 L 72.533 487.891 L 72.732 487.692 L 72.949 487.476 L 73.133 487.292 L 73.364 487.061 L 73.533 486.891 L 73.747 486.677 L 73.934 486.490 L 74.152 486.273 L 74.336 486.088 L 74.538 485.886 L 74.722 485.702 L 74.923 485.501 L 75.090 485.334 L 75.262 485.162 L 75.413 485.011 L 75.589 484.835 L 75.726 484.698 L 75.865 484.559 L 76.002 484.422 L 76.158 484.266 L 76.266 484.159 L 76.434 483.990 L 76.572 483.853 L 76.726 483.698 L 76.850 483.574 L 77.009 483.416 L 77.160 483.264 L 77.314 483.110 L 77.453 482.971 L 77.608 482.816 L 77.762 482.662 L 77.917 482.508 L 78.071 482.353 L 78.240 482.185 L 78.394 482.030 L 78.582 481.842 L 78.719 481.705 L 78.906 481.518 L 79.043 481.381 L 79.212 481.212 L 79.352 481.072 L 79.506 480.918 L 79.643 480.781 L 79.812 480.612 L 79.923 480.501 L 80.095 480.329 L 80.201 480.223 L 80.371 480.053 L 80.510 479.914 L 80.679 479.746 L 80.818 479.607 L 80.986 479.438 L 81.155 479.269 L 81.342 479.082 L 81.495 478.929 L 81.698 478.727 L 81.854 478.570 L 82.052 478.372 L 82.221 478.203 L 82.422 478.002 L 82.576 477.848 L 82.792 477.633 L 82.960 477.464 L 83.162 477.263 L 83.320 477.104 L 83.489 476.936 L 83.657 476.767 L 83.812 476.613 L 83.935 476.489 L 84.104 476.320 L 84.229 476.196 L 84.397 476.027 L 84.536 475.888 L 84.690 475.734 L 84.833 475.592 L 84.987 475.437 L 85.123 475.301 L 85.295 475.129 L 85.431 474.993 L 85.587 474.837 L 85.756 474.668 L 85.942 474.482 L 86.095 474.329 L 86.264 474.160 L 86.433 473.992 L 86.605 473.819 L 86.776 473.648 L 86.960 473.464 L 87.113 473.311 L 87.268 473.156 L 87.407 473.017 L 87.546 472.878 L 87.668 472.757 L 87.824 472.600 L 87.916 472.508 L 88.038 472.387 L 88.151 472.273 L 88.290 472.134 L 88.382 472.042 L 88.521 471.903 L 88.613 471.811 L 88.749 471.675 L 88.844 471.580 L 88.965 471.460 L 89.104 471.320 L 89.243 471.182 L 89.383 471.042 L 89.536 470.888 L 89.675 470.749 L 89.833 470.591 L 89.969 470.455 L 90.094 470.330 L 90.233 470.191 L 90.386 470.038 L 90.494 469.930 L 90.633 469.791 L 90.755 469.670 L 90.864 469.560 L 90.956 469.468 L 91.095 469.329 L 91.187 469.237 L 91.294 469.130 L 91.407 469.017 L 91.499 468.925 L 91.592 468.833 L 91.713 468.711 L 91.805 468.619 L 91.930 468.494 L 92.022 468.402 L 92.144 468.280 L 92.236 468.188 L 92.360 468.064 L 92.467 467.957 L 92.607 467.817 L 92.729 467.696 L 92.857 467.567 L 92.963 467.461 L 93.088 467.336 L 93.180 467.244 L 93.288 467.137 L 93.397 467.027 L 93.489 466.935 L 93.580 466.844 L 93.687 466.737 L 93.764 466.660 L 93.873 466.551 L 93.995 466.429 L 94.087 466.337 L 94.196 466.228 L 94.318 466.106 L 94.447 465.978 L 94.554 465.870 L 94.693 465.731 L 94.816 465.609 L 94.922 465.502 L 95.062 465.362 L 95.184 465.240 L 95.324 465.100 L 95.463 464.961 L 95.586 464.839 L 95.707 464.717 L 95.850 464.574 L 95.975 464.449 L 96.096 464.328 L 96.236 464.188 L 96.373 464.052 L 96.482 463.942 L 96.619 463.805 L 96.728 463.696 L 96.850 463.574 L 96.959 463.465 L 97.067 463.357 L 97.173 463.251 L 97.282 463.142 L 97.378 463.046 L 97.485 462.940 L 97.580 462.845 L 97.672 462.753 L 97.764 462.660 L 97.871 462.553 L 98.025 462.399 L 98.100 462.324 L 98.195 462.229 L 98.272 462.152 L 98.347 462.078 L 98.441 461.983 L 98.534 461.891 L 98.688 461.736 L 98.765 461.660 L 98.876 461.548 L 99.060 461.364 L 99.137 461.288 L 99.229 461.196 L 99.321 461.104 L 99.398 461.026 L 99.537 460.887 L 99.660 460.764 L 99.767 460.657 L 99.892 460.532 L 99.982 460.442 L 100.074 460.350 L 100.184 460.240 L 100.280 460.144 L 100.388 460.037 L 100.527 459.897 L 100.664 459.760 L 100.818 459.606 L 100.955 459.469 L 101.110 459.315 L 101.250 459.175 L 101.357 459.067 L 101.434 458.991 L 101.511 458.913 L 101.588 458.836 L 101.669 458.755 L 101.762 458.663 L 101.838 458.586 L 101.915 458.509 L 102.007 458.417 L 102.084 458.341 L 102.161 458.263 L 102.238 458.186 L 102.315 458.110 L 102.391 458.033 L 102.483 457.941 L 102.577 457.847 L 102.684 457.740 L 102.760 457.664 L 102.840 457.584 "></path>
    <path id="STROKE_c1a7718c-4d0f-4b1d-b00c-01449d3f1f07" opacity="0.500" fill="#71c047" stroke="#71c047" stroke-width="0.500" stroke-opacity="1.000" stroke-linecap="round" stroke-linejoin="round" d="M 53.122 511.327 L 53.029 511.235 L 52.921 511.127 L 52.814 511.020 L 52.708 510.914 L 52.601 510.807 L 52.476 510.682 L 52.384 510.590 L 52.245 510.451 L 52.106 510.312 L 51.952 510.158 L 51.749 509.954 "></path>
    <path id="STROKE_5535be6c-9396-4f2f-a1dd-c86bd68adfe1" opacity="0.500" fill="#71c047" stroke="#71c047" stroke-width="0.500" stroke-opacity="1.000" stroke-linecap="round" stroke-linejoin="round" d="M 51.396 509.107 L 50.347 510.156 L 50.038 510.464 L 49.640 510.862 L 49.287 511.216 L 48.867 511.636 L 48.513 511.990 L 48.083 512.420 L 47.647 512.855 L 47.232 513.271 L 46.847 513.656 L 46.337 514.166 L 45.965 514.538 L 45.503 515.000 L 45.058 515.445 L 44.641 515.862 L 44.237 516.266 L 43.745 516.757 L 43.375 517.128 L 42.925 517.578 L 42.555 517.948 L 42.122 518.380 L 41.785 518.718 L 41.385 519.118 L 41.041 519.462 L 40.674 519.829 L 40.351 520.152 L 39.981 520.522 L 39.683 520.819 L 39.346 521.157 L 39.068 521.435 L 38.697 521.806 L 38.406 522.096 L 38.079 522.423 L 37.786 522.717 L 37.448 523.055 L 37.201 523.302 L 36.832 523.671 L 36.567 523.936 L 36.227 524.276 L 35.950 524.553 L 35.614 524.889 L 35.367 525.136 L 35.054 525.449 L 34.762 525.740 L 34.485 526.018 L 34.209 526.294 L 33.911 526.592 L 33.682 526.821 L 33.388 527.115 L 33.111 527.391 L 32.865 527.638 L 32.589 527.914 L 32.323 528.179 L 32.077 528.426 L 31.799 528.704 L 31.523 528.980 L 31.276 529.226 L 30.998 529.504 L 30.734 529.769 L 30.458 530.045 L 30.164 530.338 L 29.871 530.632 L 29.596 530.907 L 29.299 531.204 L 29.023 531.480 L 28.776 531.727 L 28.483 532.020 L 28.207 532.296 L 27.960 532.543 L 27.693 532.810 L 27.479 533.024 L 27.262 533.240 L 27.030 533.472 L 26.846 533.657 L 26.617 533.886 L 26.447 534.055 L 26.227 534.276 L 26.042 534.461 L 25.860 534.643 L 25.690 534.813 L 25.488 535.015 L 25.306 535.197 L 25.101 535.401 L 24.932 535.571 L 24.700 535.803 L 24.515 535.988 L 24.333 536.170 L 24.130 536.373 L 23.915 536.587 L 23.727 536.776 L 23.497 537.005 L 23.298 537.205 L 23.051 537.452 L 22.851 537.651 L 22.605 537.898 L 22.404 538.099 L 22.153 538.349 L 21.970 538.533 L 21.739 538.764 L 21.552 538.951 L 21.324 539.179 L 21.138 539.365 L 20.907 539.596 L 20.688 539.815 L 20.456 540.046 L 20.270 540.232 L 20.042 540.460 L 19.841 540.662 L 19.640 540.863 L 19.471 541.032 L 19.272 541.230 L 19.067 541.435 L 18.836 541.667 L 18.637 541.866 L 18.406 542.097 L 18.206 542.296 L 17.990 542.513 L 17.773 542.730 L 17.555 542.947 L 17.354 543.149 L 17.140 543.362 L 16.953 543.549 L 16.722 543.780 L 16.554 543.949 L 16.340 544.163 L 16.154 544.349 L 15.933 544.570 L 15.750 544.753 L 15.549 544.954 L 15.380 545.123 L 15.182 545.321 L 15.027 545.475 L 14.840 545.662 L 14.672 545.831 L 14.503 546.000 L 14.329 546.173 L 14.161 546.342 L 14.006 546.496 L 13.837 546.666 L 13.682 546.821 L 13.515 546.987 L 13.391 547.112 L 13.221 547.282 L 13.099 547.403 L 12.956 547.547 L 12.834 547.669 L 12.694 547.809 L 12.571 547.932 L 12.449 548.053 L 12.327 548.176 L 12.202 548.301 L 12.095 548.408 L 11.958 548.545 L 11.818 548.685 L 11.706 548.796 L 11.566 548.936 L 11.429 549.073 L 11.322 549.181 L 11.152 549.351 L 1.760 558.743 L 20.556 558.743 L 20.779 558.743 L 21.085 558.743 L 21.331 558.743 L 21.607 558.743 L 21.883 558.743 L 22.228 558.743 L 22.504 558.743 L 22.842 558.743 L 23.149 558.743 L 23.486 558.743 L 23.800 558.743 L 24.138 558.743 L 24.445 558.743 L 24.751 558.743 L 25.035 558.743 L 25.373 558.743 L 25.618 558.743 L 25.925 558.743 L 26.201 558.743 L 26.477 558.743 L 26.730 558.743 L 27.037 558.743 L 27.313 558.743 L 27.589 558.743 L 27.835 558.743 L 28.149 558.743 L 28.425 558.743 L 28.701 558.743 L 28.977 558.743 L 29.254 558.743 L 29.507 558.743 L 29.783 558.743 L 30.028 558.743 L 30.274 558.743 L 30.519 558.743 L 30.764 558.743 L 30.987 558.743 L 31.202 558.743 L 31.416 558.743 L 31.662 558.743 L 31.877 558.743 L 32.153 558.743 L 32.367 558.743 L 32.621 558.743 L 32.866 558.743 L 33.142 558.743 L 33.388 558.743 L 33.664 558.743 L 33.878 558.743 L 34.193 558.743 L 34.438 558.743 L 34.714 558.743 L 34.960 558.743 L 35.236 558.743 L 35.489 558.743 L 35.765 558.743 L 36.011 558.743 L 36.317 558.743 L 36.563 558.743 L 36.877 558.743 L 37.123 558.743 L 37.429 558.743 L 37.706 558.743 L 38.012 558.743 L 38.258 558.743 L 38.572 558.743 L 38.818 558.743 L 39.094 558.743 L 39.339 558.743 L 39.585 558.743 L 39.838 558.743 L 40.114 558.743 L 40.329 558.743 L 40.574 558.743 L 40.758 558.743 L 41.003 558.743 L 41.218 558.743 L 41.471 558.743 L 41.686 558.743 L 41.901 558.743 L 42.085 558.743 L 42.330 558.743 L 42.484 558.743 L 42.729 558.743 L 42.921 558.743 L 43.105 558.743 L 43.289 558.743 L 43.504 558.743 L 43.657 558.743 L 43.872 558.743 L 44.025 558.743 L 44.209 558.743 L 44.401 558.743 L 44.616 558.743 L 44.769 558.743 L 44.953 558.743 L 45.137 558.743 L 45.291 558.743 L 45.444 558.743 L 45.628 558.743 L 45.751 558.743 L 45.943 558.743 L 46.127 558.743 L 46.250 558.743 L 46.403 558.743 L 46.587 558.743 L 46.710 558.743 L 46.894 558.743 L 47.047 558.743 L 47.201 558.743 L 47.331 558.743 L 47.515 558.743 L 47.607 558.743 L 47.760 558.743 L 47.883 558.743 L 48.006 558.743 L 48.129 558.743 L 48.251 558.743 L 48.374 558.743 L 48.466 558.743 L 48.589 558.743 L 48.781 558.743 L 48.903 558.743 L 49.057 558.743 L 49.241 558.743 L 49.394 558.743 L 49.517 558.743 L 49.639 558.743 L 49.793 558.743 L 49.946 558.743 L 50.069 558.743 L 50.192 558.743 L 50.291 558.743 L 50.414 558.743 L 50.537 558.743 L 50.690 558.743 L 50.844 558.743 L 50.997 558.743 L 51.120 558.743 L 51.242 558.743 L 51.365 558.743 L 51.488 558.743 L 51.611 558.743 L 51.741 558.743 L 51.864 558.743 "></path>
  </g>
  <g id="Stift" opacity="1.000">
    <path id="STROKE_88e65f58-dba2-4837-aa6e-9be46e9a28f5" opacity="1.000" fill="none" stroke="#000000" stroke-width="0.995" stroke-opacity="1.000" stroke-linecap="round" stroke-linejoin="round" d="M -104.373 454.543 L -104.373 455.801 L -104.373 456.119 L -104.373 456.572 L -104.373 457.150 L -104.373 457.787 L -104.373 458.726 L -104.373 459.673 L -104.373 460.847 L -104.373 462.062 L -104.373 463.278 L -104.373 464.443 L -104.373 465.977 L -104.373 467.008 L -104.373 468.407 L -104.373 469.715 L -104.373 470.972 L -104.373 472.230 L -104.373 473.856 L -104.373 475.021 L -104.373 476.647 L -104.373 478.214 L -104.373 479.933 L -104.373 481.232 L -104.373 483.076 L -104.373 484.291 L -104.373 485.917 L -104.373 487.443 L -104.373 488.885 L -104.373 490.234 L -104.373 491.902 L -104.373 493.159 L -104.373 494.920 L -104.373 496.353 L -104.373 498.021 L -104.373 499.287 L -104.373 501.039 L -104.373 502.212 L -104.373 503.645 L -104.373 504.995 L -104.373 506.210 L -104.373 507.342 L -104.373 508.599 L -104.373 509.722 L -104.373 510.988 L -104.373 512.111 L -104.373 513.461 L -104.373 514.676 L -104.373 516.210 L -104.373 517.283 L -104.373 518.591 L -104.373 519.764 L -104.373 520.979 L -104.373 521.918 L -104.373 523.184 L -104.373 524.081 L -104.373 525.162 L -104.373 526.151 L -104.373 527.098 L -104.373 527.953 L -104.373 528.993 L -104.373 529.705 L -104.373 530.610 L -104.373 531.415 L -104.373 532.228 L -104.373 532.991 L -104.373 533.988 L -104.373 534.701 L -104.373 535.606 L -104.373 536.327 L -104.373 537.132 L -104.373 537.852 L -104.373 538.573 L -104.373 539.160 L -104.373 539.839 L -104.373 540.468 L -104.373 541.054 L -104.373 541.683 L -104.373 542.219 L -104.373 542.764 L -104.373 543.343 L -104.373 543.846 L -104.373 544.340 L -104.373 544.742 L -104.373 545.195 L -104.373 545.555 L -104.373 545.866 L -104.373 546.184 L -104.373 546.452 L -104.373 546.721 L -104.373 546.947 L -104.373 547.173 L -104.373 547.400 L -104.373 547.626 L -104.373 547.844 L -104.373 548.028 L -104.373 548.204 L -104.373 548.347 L -104.373 548.523 L -104.373 548.615 L -104.373 548.791 L -104.373 548.925 L -104.373 549.151 L -104.373 549.378 L -104.373 549.512 L -104.373 549.646 L -104.373 549.914 L -104.373 550.057 L -104.373 550.233 L -104.373 550.367 L -104.373 550.501 L -104.373 550.685 L -104.373 550.861 L -104.373 551.046 L -104.373 551.222 L -104.373 551.406 L -104.373 551.582 L -104.373 551.767 L -104.373 551.943 L -104.373 552.077 L -104.373 552.261 L -104.373 552.395 L -104.373 552.571 L -104.373 552.705 L -104.373 552.890 L -104.373 553.024 L -104.373 553.158 L -104.373 553.384 L -104.373 553.560 L -104.373 553.745 L -104.373 553.971 L -104.373 554.105 L -104.373 554.281 L -104.373 554.466 L -104.373 554.642 L -104.373 554.826 L -104.373 555.002 L -104.373 555.136 L -104.373 555.320 L -104.373 555.455 L -104.373 555.589 L -104.373 555.723 L -104.373 555.907 L -104.373 556.041 L -104.373 556.217 L -104.373 556.402 L -104.373 556.628 L -104.373 556.762 L -104.373 556.980 L -104.373 557.165 L -104.373 557.341 L -104.373 557.525 L -104.373 557.751 L -104.373 557.927 L -104.373 558.112 L -104.373 558.338 L -104.373 558.514 L -104.373 558.698 L -104.373 558.875 L -104.373 559.143 L -104.373 559.327 L -104.373 559.553 L -104.373 559.729 "></path>
    <path id="STROKE_283278a0-96f3-4fa2-a07e-4af6d981db7c" opacity="1.000" fill="none" stroke="#000000" stroke-width="1.360" stroke-opacity="1.000" stroke-linecap="round" stroke-linejoin="round" d="M -103.871 559.998 L -103.111 559.998 L -102.842 559.998 L -102.529 559.998 L -102.216 559.998 L -101.904 559.998 L -101.490 559.998 L -101.132 559.998 L -100.685 559.998 L -100.283 559.998 L -99.791 559.998 L -99.333 559.998 L -98.797 559.998 L -98.305 559.998 L -97.634 559.998 L -97.131 559.998 L -96.416 559.998 L -95.835 559.998 L -95.108 559.998 L -94.527 559.998 L -93.812 559.998 L -93.186 559.998 L -92.504 559.998 L -91.879 559.998 L -91.163 559.998 L -90.616 559.998 L -89.856 559.998 L -89.230 559.998 L -88.548 559.998 L -87.922 559.998 L -87.207 559.998 L -86.715 559.998 L -85.944 559.998 L -85.408 559.998 L -84.692 559.998 L -84.100 559.998 L -83.430 559.998 L -82.938 559.998 L -82.167 559.998 L -81.630 559.998 L -80.870 559.998 L -80.289 559.998 L -79.697 559.998 L -79.160 559.998 L -78.445 559.998 L -77.987 559.998 L -77.361 559.998 L -76.825 559.998 L -76.333 559.998 L -75.830 559.998 L -75.293 559.998 L -74.846 559.998 L -74.355 559.998 L -73.908 559.998 L -73.405 559.998 L -72.958 559.998 L -72.376 559.998 L -71.929 559.998 L -71.382 559.998 L -70.845 559.998 L -70.309 559.998 L -69.728 559.998 L -69.135 559.998 L -68.599 559.998 L -67.973 559.998 L -67.392 559.998 L -66.800 559.998 L -66.218 559.998 L -65.637 559.998 L -65.045 559.998 L -64.374 559.998 L -63.793 559.998 L -63.123 559.998 L -62.530 559.998 L -61.860 559.998 L -61.368 559.998 L -60.742 559.998 L -60.150 559.998 L -59.658 559.998 L -59.211 559.998 L -58.719 559.998 L -58.306 559.998 L -57.904 559.998 L -57.591 559.998 L -57.233 559.998 L -56.920 559.998 L -56.607 559.998 L -56.372 559.998 L -56.059 559.998 L -55.836 559.998 L -55.568 559.998 L -55.344 559.998 L -55.121 559.998 L -54.942 559.998 L -54.718 559.998 L -54.495 559.998 L -54.271 559.998 L -54.081 559.998 L -53.902 559.998 L -53.724 559.998 L -53.500 559.998 L -53.321 559.998 L -53.142 559.998 L -52.964 559.998 L -52.785 559.998 L -52.651 559.998 L -52.427 559.998 L -52.293 559.998 L -52.114 559.998 L -51.969 559.998 L -51.790 559.998 L -51.656 559.998 L -51.477 559.998 L -51.254 559.998 L -51.030 559.998 L -50.851 559.998 L -50.717 559.998 L -50.538 559.998 L -50.449 559.998 "></path>
    <path id="STROKE_d77dff25-c406-4dea-ade1-a545f3dcce7a" opacity="1.000" fill="none" stroke="#000000" stroke-width="1.307" stroke-opacity="1.000" stroke-linecap="round" stroke-linejoin="round" d="M -51.209 454.862 L -51.209 456.253 L -51.209 456.480 L -51.209 456.706 L -51.209 456.974 L -51.209 457.335 L -51.209 457.653 L -51.209 458.148 L -51.209 458.642 L -51.209 459.137 L -51.209 459.673 L -51.209 460.394 L -51.209 460.889 L -51.209 461.651 L -51.209 462.288 L -51.209 463.009 L -51.209 463.680 L -51.209 464.443 L -51.209 465.080 L -51.209 465.842 L -51.209 466.513 L -51.209 467.326 L -51.209 468.005 L -51.209 468.768 L -51.209 469.489 L -51.209 470.293 L -51.209 470.972 L -51.209 471.827 L -51.209 472.548 L -51.209 473.537 L -51.209 474.216 L -51.209 475.113 L -51.209 476.010 L -51.209 476.915 L -51.209 477.770 L -51.209 478.851 L -51.209 479.614 L -51.209 480.561 L -51.209 481.324 L -51.209 482.271 L -51.209 482.992 L -51.209 483.889 L -51.209 484.610 L -51.209 485.507 L -51.209 486.228 L -51.209 487.133 L -51.209 487.854 L -51.209 488.709 L -51.209 489.471 L -51.209 490.368 L -51.209 491.089 L -51.209 491.994 L -51.209 492.757 L -51.209 493.746 L -51.209 494.425 L -51.209 495.364 L -51.209 496.219 L -51.209 497.074 L -51.209 497.887 L -51.209 498.784 L -51.209 499.505 L -51.209 500.410 L -51.209 501.131 L -51.209 501.986 L -51.209 502.707 L -51.209 503.562 L -51.209 504.232 L -51.209 505.087 L -51.209 505.766 L -51.209 506.571 L -51.209 507.250 L -51.209 508.105 L -51.209 508.825 L -51.209 509.680 L -51.209 510.401 L -51.209 511.298 L -51.209 512.069 L -51.209 513.008 L -51.209 513.779 L -51.209 514.718 L -51.209 515.623 L -51.209 516.520 L -51.209 517.425 L -51.209 518.280 L -51.209 519.135 L -51.209 520.074 L -51.209 520.979 L -51.209 521.834 L -51.209 522.597 L -51.209 523.494 L -51.209 524.215 L -51.209 525.028 L -51.209 525.749 L -51.209 526.511 L -51.209 527.232 L -51.209 528.045 L -51.209 528.716 L -51.209 529.529 L -51.209 530.250 L -51.209 531.105 L -51.209 531.868 L -51.209 532.723 L -51.209 533.443 L -51.209 534.298 L -51.209 535.019 L -51.209 535.782 L -51.209 536.461 L -51.209 537.182 L -51.209 537.718 L -51.209 538.397 L -51.209 538.984 L -51.209 539.520 L -51.209 540.015 L -51.209 540.560 L -51.209 540.962 L -51.209 541.457 L -51.209 541.817 L -51.209 542.270 L -51.209 542.580 L -51.209 542.991 L -51.209 543.301 L -51.209 543.661 L -51.209 543.929 L -51.209 544.290 L -51.209 544.608 L -51.209 544.969 L -51.209 545.279 L -51.209 545.597 L -51.209 545.916 L -51.209 546.276 L -51.209 546.545 L -51.209 546.855 L -51.209 547.131 L -51.209 547.441 L -51.209 547.626 L -51.209 547.844 L -51.209 548.028 L -51.209 548.204 L -51.209 548.347 L -51.209 548.523 L -51.209 548.657 L -51.209 548.841 L -51.209 548.975 L -51.209 549.151 L -51.209 549.285 L -51.209 549.512 L -51.209 549.696 L -51.209 549.914 L -51.209 550.141 L -51.209 550.325 L -51.209 550.501 L -51.209 550.769 L -51.209 550.953 L -51.209 551.180 L -51.209 551.356 L -51.209 551.582 L -51.209 551.767 L -51.209 552.035 L -51.209 552.261 L -51.209 552.529 L -51.209 552.798 L -51.209 553.024 L -51.209 553.250 L -51.209 553.476 L -51.209 553.652 L -51.209 553.879 L -51.209 554.013 L -51.209 554.197 L -51.209 554.415 L -51.209 554.642 L -51.209 554.868 L -51.209 555.094 L -51.209 555.228 L -51.209 555.362 L -51.209 555.497 L -51.209 555.631 L -51.209 555.773 L -51.209 555.949 L -51.209 556.083 L -51.209 556.268 L -51.209 556.444 L -51.209 556.628 L -51.209 556.804 L -51.209 556.980 L -51.209 557.123 L -51.209 557.299 L -51.209 557.433 L -51.209 557.617 L -51.209 557.793 L -51.209 557.885 L -51.209 558.020 L -51.209 558.196 L -51.209 558.338 L -51.209 558.472 L -51.209 558.648 L -51.209 558.782 L -51.209 559.009 L -51.209 559.143 L -51.209 559.277 L -51.209 559.411 L -51.209 559.553 L -51.209 559.771 L -51.209 559.914 L -51.209 560.090 L -51.209 560.266 L -51.209 560.450 L -51.209 560.677 "></path>
    <path id="STROKE_75a0eb93-67f3-4934-a534-3ee77fd22d83" opacity="1.000" fill="none" stroke="#000000" stroke-width="1.360" stroke-opacity="1.000" stroke-linecap="round" stroke-linejoin="round" d="M -104.105 456.077 L -102.529 456.077 L -102.127 456.077 L -101.714 456.077 L -101.222 456.077 L -100.730 456.077 L -100.238 456.077 L -99.702 456.077 L -99.154 456.077 L -98.662 456.077 L -98.081 456.077 L -97.500 456.077 L -96.997 456.077 L -96.461 456.077 L -95.924 456.077 L -95.477 456.077 L -94.885 456.077 L -94.349 456.077 L -93.857 456.077 L -93.320 456.077 L -92.773 456.077 L -92.281 456.077 L -91.655 456.077 L -91.074 456.077 L -90.482 456.077 L -89.856 456.077 L -89.185 456.077 L -88.682 456.077 L -88.012 456.077 L -87.431 456.077 L -86.849 456.077 L -86.257 456.077 L -85.721 456.077 L -85.229 456.077 L -84.692 456.077 L -84.234 456.077 L -83.742 456.077 L -83.340 456.077 L -82.893 456.077 L -82.491 456.077 L -82.033 456.077 L -81.675 456.077 L -81.228 456.077 L -80.870 456.077 L -80.423 456.077 L -80.010 456.077 L -79.607 456.077 L -79.205 456.077 L -78.713 456.077 L -78.311 456.077 L -77.808 456.077 L -77.406 456.077 L -76.914 456.077 L -76.467 456.077 L -75.930 456.077 L -75.472 456.077 L -74.936 456.077 L -74.489 456.077 L -73.952 456.077 L -73.494 456.077 L -72.958 456.077 L -72.511 456.077 L -72.019 456.077 L -71.572 456.077 L -71.069 456.077 L -70.622 456.077 L -70.130 456.077 L -69.728 456.077 L -69.225 456.077 L -68.822 456.077 L -68.331 456.077 L -67.928 456.077 L -67.481 456.077 L -67.068 456.077 L -66.621 456.077 L -66.263 456.077 L -65.816 456.077 L -65.414 456.077 L -64.911 456.077 L -64.508 456.077 L -64.017 456.077 L -63.614 456.077 L -63.123 456.077 L -62.709 456.077 L -62.262 456.077 L -61.905 456.077 L -61.457 456.077 L -61.100 456.077 L -60.686 456.077 L -60.329 456.077 L -59.971 456.077 L -59.658 456.077 L -59.301 456.077 L -59.032 456.077 L -58.675 456.077 L -58.440 456.077 L -58.082 456.077 L -57.814 456.077 L -57.591 456.077 L -57.322 456.077 L -57.099 456.077 L -56.875 456.077 L -56.652 456.077 L -56.473 456.077 L -56.238 456.077 L -56.104 456.077 L -55.881 456.077 L -55.746 456.077 L -55.612 456.077 L -55.478 456.077 L -55.299 456.077 L -55.165 456.077 L -55.031 456.077 L -54.897 456.077 L -54.718 456.077 L -54.584 456.077 L -54.405 456.077 L -54.271 456.077 L -54.037 456.077 L -53.858 456.077 L -53.634 456.077 L -53.455 456.077 L -53.232 456.077 L -53.053 456.077 L -52.874 456.077 L -52.695 456.077 L -52.561 456.077 L -52.383 456.077 L -52.248 456.077 L -52.014 456.077 L -51.790 456.077 L -51.611 456.077 L -51.477 456.077 L -51.343 456.077 L -51.209 456.077 L -51.075 456.077 L -50.941 456.077 L -50.717 456.077 "></path>
    <path id="STROKE_e51efb5d-8e0f-446e-a231-ebd18c566793" opacity="1.000" fill="none" stroke="#000000" stroke-width="0.484" stroke-opacity="1.000" stroke-linecap="round" stroke-linejoin="round" d="M -44.609 508.182 L -43.517 508.182 L -43.266 508.182 L -42.936 508.182 L -42.603 508.182 L -42.273 508.182 L -41.944 508.182 L -41.495 508.182 L -41.115 508.182 L -40.666 508.182 L -40.271 508.182 L -39.789 508.182 L -39.373 508.182 L -38.829 508.182 L -38.446 508.182 L -37.951 508.182 L -37.469 508.182 L -36.987 508.182 L -36.526 508.182 L -35.912 508.182 L -35.484 508.182 L -34.919 508.182 L -34.388 508.182 L -33.860 508.182 L -33.362 508.182 L -32.748 508.182 L -32.320 508.182 L -31.788 508.182 L -31.273 508.182 L -30.812 508.182 L -30.379 508.182 L -29.815 508.182 L -29.436 508.182 L -28.954 508.182 L -28.558 508.182 L -28.109 508.182 L -27.779 508.182 L -27.314 508.182 L -27.017 508.182 L -26.634 508.182 L -26.288 508.182 L -26.008 508.182 L -25.773 508.182 L -25.476 508.182 L -25.295 508.182 L -25.077 508.182 L -24.912 508.182 L -24.747 508.182 L -24.615 508.182 L -24.500 508.182 L -24.368 508.182 L -24.265 508.182 L -24.166 508.182 L -24.051 508.182 L -23.952 508.182 L -23.853 508.182 L -23.721 508.182 L -23.622 508.182 "></path>
    <path id="STROKE_29682079-0967-469f-84fe-328963d70e30" opacity="1.000" fill="none" stroke="#000000" stroke-width="0.575" stroke-opacity="1.000" stroke-linecap="round" stroke-linejoin="round" d="M -44.757 511.436 L -44.757 513.011 L -44.757 513.376 L -44.757 513.775 L -44.757 514.121 L -44.757 514.569 L -44.757 514.952 L -44.757 515.415 L -44.757 515.799 L -44.757 516.262 L -44.757 516.661 L -44.757 517.093 L -44.757 517.424 L -44.757 517.887 L -44.757 518.237 L -44.757 518.586 L -44.757 518.966 L -44.757 519.383 L -44.757 519.714 L -44.757 520.177 L -44.757 520.545 L -44.757 521.008 L -44.757 521.422 L -44.757 521.886 L -44.757 522.219 L -44.757 522.701 L -44.757 523.032 L -44.757 523.381 L -44.757 523.662 L -44.757 523.993 L -44.757 524.243 L -44.757 524.524 L -44.757 524.756 L -44.757 525.022 L -44.757 525.257 L -44.757 525.519 L -44.757 525.770 L -44.757 526.051 L -44.757 526.317 L -44.757 526.632 L -44.757 526.898 L -44.757 527.231 L -44.757 527.512 L -44.757 527.828 L -44.757 528.093 L -44.757 528.408 L -44.757 528.656 L -44.757 528.940 L -44.757 529.138 L -44.757 529.437 L -44.757 529.620 L -44.757 529.851 L -44.757 530.049 L -44.757 530.232 L -44.757 530.417 L -44.757 530.630 L -44.757 530.781 L -44.757 530.979 L -44.757 531.128 L -44.757 531.294 L -44.757 531.477 "></path>
    <path id="STROKE_b40a4ff0-f128-474b-ba2a-0d381450d2f4" opacity="1.000" fill="none" stroke="#000000" stroke-width="0.680" stroke-opacity="1.000" stroke-linecap="round" stroke-linejoin="round" d="M -44.922 531.461 Q -44.922 531.469 -44.922 531.560 Q -44.914 531.686 -44.588 531.145 Q -44.262 530.603 -43.857 529.745 Q -43.451 528.887 -43.199 528.357 Q -42.947 527.827 -42.553 526.864 Q -42.653 526.923 -42.611 526.835 Q -42.569 526.748 -43.203 527.073 Q -43.836 527.398 -44.198 527.643 Q -44.561 527.887 -44.676 527.930 Q -44.791 527.973 -44.948 527.973 Q -45.106 527.973 -45.223 527.892 "></path>
    <path id="STROKE_9c2ae1b6-a76a-4455-a40e-648f8a0b4636" opacity="1.000" fill="none" stroke="#000000" stroke-width="0.680" stroke-opacity="1.000" stroke-linecap="round" stroke-linejoin="round" d="M -23.355 507.385 Q -23.346 507.385 -23.305 507.385 Q -23.359 507.542 -23.396 507.494 Q -23.337 507.455 -23.922 507.544 Q -24.506 507.632 -25.124 507.520 Q -25.742 507.408 -26.902 506.523 Q -26.801 506.632 -26.667 508.250 "></path>
    <path id="STROKE_cef14dcb-21dd-4895-88d8-a0653fd25af8" opacity="1.000" fill="none" stroke="#000000" stroke-width="0.680" stroke-opacity="1.000" stroke-linecap="round" stroke-linejoin="round" d="M -19.461 503.603 Q -19.461 503.603 -19.424 503.664 Q -19.386 503.724 -19.460 503.656 Q -19.534 503.588 -19.157 503.850 Q -18.780 504.111 -18.505 504.428 Q -18.230 504.745 -18.089 504.935 Q -17.948 505.125 -17.850 505.272 Q -17.751 505.418 -17.696 505.535 Q -17.641 505.653 -17.144 506.174 Q -17.092 506.141 -17.060 506.109 "></path>
    <path id="STROKE_374ca4ea-1096-4904-b365-35daa49a01e4" opacity="1.000" fill="none" stroke="#000000" stroke-width="0.607" stroke-opacity="1.000" stroke-linecap="round" stroke-linejoin="round" d="M -16.450 503.652 Q -16.450 503.644 -16.450 503.618 Q -16.696 503.618 -16.639 503.618 Q -16.902 503.813 -17.636 504.669 Q -18.370 505.526 -19.927 506.921 "></path>
    <path id="STROKE_ebc2dcca-c53d-4c92-9ded-90497edab507" opacity="1.000" fill="none" stroke="#000000" stroke-width="0.680" stroke-opacity="1.000" stroke-linecap="round" stroke-linejoin="round" d="M -44.461 535.892 Q -44.401 535.873 -44.533 535.734 Q -44.664 535.596 -44.658 535.620 Q -44.652 535.643 -44.651 535.646 Q -44.651 535.649 -44.526 535.538 Q -44.400 535.428 -44.130 535.420 Q -43.860 535.411 -43.671 535.446 Q -43.481 535.481 -43.395 535.547 Q -43.309 535.613 -43.235 535.691 Q -43.162 535.769 -43.125 535.782 Q -43.088 535.796 -43.106 535.804 Q -43.125 535.811 -43.055 535.901 Q -42.985 535.992 -42.981 536.172 Q -42.977 536.353 -43.012 536.536 Q -43.048 536.719 -43.085 536.758 Q -43.123 536.796 -43.189 536.902 Q -43.255 537.008 -43.374 537.171 Q -43.493 537.334 -43.462 537.308 Q -43.431 537.283 -43.593 537.473 Q -43.754 537.664 -44.085 538.028 Q -44.416 538.392 -44.566 538.591 Q -44.715 538.790 -44.762 538.935 Q -44.809 539.080 -44.803 539.088 Q -44.797 539.097 -44.797 539.125 Q -44.797 539.154 -44.817 539.118 Q -44.837 539.082 -44.795 539.164 Q -44.752 539.245 -44.626 539.340 Q -44.500 539.435 -44.452 539.424 Q -44.404 539.413 -44.433 539.422 Q -44.463 539.431 -44.163 539.479 Q -43.864 539.526 -43.584 539.571 Q -43.303 539.615 -43.312 539.618 Q -43.322 539.621 -43.212 539.633 Q -43.103 539.645 -43.126 539.640 Q -43.109 539.640 -43.035 539.575 "></path>
    <path id="STROKE_13a1ac99-0ab4-4632-b007-e90927bf3953" opacity="1.000" fill="none" stroke="#000000" stroke-width="0.680" stroke-opacity="1.000" stroke-linecap="round" stroke-linejoin="round" d="M -44.560 537.814 Q -44.291 538.013 -44.370 537.939 Q -43.971 537.997 -44.057 538.016 Q -44.144 538.034 -42.273 537.898 "></path>
    <path id="STROKE_80539d1c-5c9b-41d1-9cd0-8c6a99a8fcab" opacity="1.000" fill="none" stroke="#000000" stroke-width="0.680" stroke-opacity="1.000" stroke-linecap="round" stroke-linejoin="round" d="M -47.060 502.623 Q -47.060 502.276 -47.060 502.367 Q -47.101 502.162 -47.102 502.209 Q -47.118 502.169 -47.176 502.027 Q -47.282 501.920 -46.971 502.636 Q -46.661 503.351 -46.018 504.017 "></path>
    <path id="STROKE_35dd344e-d4be-4d0b-a725-06c244ced77c" opacity="1.000" fill="none" stroke="#000000" stroke-width="0.642" stroke-opacity="1.000" stroke-linecap="round" stroke-linejoin="round" d="M -45.141 502.175 Q -45.132 502.424 -45.165 502.374 Q -45.263 502.477 -47.542 506.356 "></path>
    <path id="STROKE_f6aca173-e505-49ff-a29d-c86bfba73728" opacity="1.000" fill="none" stroke="#000000" stroke-width="1.359" stroke-opacity="1.000" stroke-linecap="round" stroke-linejoin="round" d="M 51.855 456.374 L 51.855 456.811 L 51.855 456.995 L 51.855 457.208 L 51.855 457.427 L 51.855 457.737 L 51.855 457.985 L 51.855 458.324 L 51.855 458.692 L 51.855 459.032 L 51.855 459.434 L 51.855 459.894 L 51.855 460.240 L 51.855 460.792 L 51.855 461.223 L 51.855 461.781 L 51.855 462.276 L 51.855 462.863 L 51.855 463.357 L 51.855 463.973 L 51.855 464.502 L 51.855 465.117 L 51.855 465.641 L 51.855 466.228 L 51.855 466.757 L 51.855 467.436 L 51.855 467.896 L 51.855 468.517 L 51.855 469.133 L 51.855 469.690 L 51.855 470.243 L 51.855 470.956 L 51.855 471.451 L 51.855 472.129 L 51.855 472.745 L 51.855 473.395 L 51.855 473.982 L 51.855 474.787 L 51.855 475.339 L 51.855 476.081 L 51.855 476.794 L 51.855 477.439 L 51.855 478.060 L 51.855 478.831 L 51.855 479.354 L 51.855 480.039 L 51.855 480.654 L 51.855 481.212 L 51.855 481.764 L 51.855 482.443 L 51.855 482.909 L 51.855 483.559 L 51.855 484.083 L 51.855 484.698 L 51.855 485.227 L 51.855 485.935 L 51.855 486.430 L 51.855 487.079 L 51.855 487.695 L 51.855 488.282 L 51.855 488.840 L 51.855 489.518 L 51.855 489.984 L 51.855 490.571 L 51.855 491.066 L 51.855 491.653 L 51.855 492.113 L 51.855 492.636 L 51.855 493.102 L 51.855 493.597 L 51.855 494.028 L 51.855 494.523 L 51.855 494.954 L 51.855 495.449 L 51.855 495.817 L 51.855 496.375 L 51.855 496.778 L 51.855 497.272 L 51.855 497.704 L 51.855 498.227 L 51.855 498.693 L 51.855 499.217 L 51.855 499.711 L 51.855 500.269 L 51.855 500.856 L 51.855 501.408 L 51.855 501.938 L 51.855 502.553 L 51.855 503.076 L 51.855 503.698 L 51.855 504.221 L 51.855 504.808 L 51.855 505.274 L 51.855 505.826 L 51.855 506.321 L 51.855 506.844 L 51.855 507.310 L 51.855 507.868 L 51.855 508.299 L 51.855 508.852 L 51.855 509.346 L 51.855 509.904 L 51.855 510.491 L 51.855 511.049 L 51.855 511.601 L 51.855 512.286 L 51.855 512.930 L 51.855 513.551 L 51.855 514.196 L 51.855 514.782 L 51.855 515.375 L 51.855 515.990 L 51.855 516.606 L 51.855 517.135 L 51.855 517.658 L 51.855 518.274 L 51.855 518.769 L 51.855 519.355 L 51.855 519.850 L 51.855 520.471 L 51.855 520.960 L 51.855 521.518 L 51.855 522.013 L 51.855 522.600 L 51.855 523.065 L 51.855 523.618 L 51.855 524.112 L 51.855 524.636 L 51.855 525.130 L 51.855 525.660 L 51.855 526.120 L 51.855 526.678 L 51.855 527.138 L 51.855 527.667 L 51.855 528.099 L 51.855 528.593 L 51.855 529.025 L 51.855 529.519 L 51.855 529.951 L 51.855 530.417 L 51.855 530.814 L 51.855 531.308 L 51.855 531.682 L 51.855 532.206 L 51.855 532.608 L 51.855 533.103 L 51.855 533.443 L 51.855 533.966 L 51.855 534.397 L 51.855 534.892 L 51.855 535.295 L 51.855 535.761 L 51.855 536.192 L 51.855 536.687 L 51.855 537.118 L 51.855 537.613 L 51.855 538.016 L 51.855 538.504 L 51.855 538.942 L 51.855 539.402 L 51.855 539.776 L 51.855 540.328 L 51.855 540.731 L 51.855 541.133 L 51.855 541.536 L 51.855 541.996 L 51.855 542.335 L 51.855 542.738 L 51.855 543.112 L 51.855 543.451 L 51.855 543.756 L 51.855 544.096 L 51.855 544.378 L 51.855 544.682 L 51.855 544.964 L 51.855 545.269 L 51.855 545.516 L 51.855 545.798 L 51.855 546.046 L 51.855 546.293 L 51.855 546.506 L 51.855 546.753 L 51.855 546.937 L 51.855 547.156 L 51.855 547.340 L 51.855 547.558 L 51.855 547.743 L 51.855 547.961 L 51.855 548.111 L 51.855 548.358 L 51.855 548.548 L 51.855 548.761 L 51.855 548.979 L 51.855 549.227 L 51.855 549.474 L 51.855 549.721 L 51.855 549.905 L 51.855 550.182 L 51.855 550.400 L 51.855 550.676 L 51.855 550.895 L 51.855 551.142 L 51.855 551.355 L 51.855 551.539 L 51.855 551.758 L 51.855 551.942 L 51.855 552.126 L 51.855 552.281 L 51.855 552.436 L 51.855 552.620 L 51.855 552.747 L 51.855 552.960 L 51.855 553.086 L 51.855 553.271 L 51.855 553.397 L 51.855 553.581 L 51.855 553.736 L 51.855 553.892 L 51.855 554.041 L 51.855 554.197 L 51.855 554.415 L 51.855 554.628 L 51.855 554.755 L 51.855 554.910 L 51.855 555.031 L 51.855 555.186 L 51.855 555.341 L 51.855 555.525 L 51.855 555.709 L 51.855 555.836 L 51.855 556.020 L 51.855 556.147 L 51.855 556.331 L 51.855 556.486 L 51.855 556.607 L 51.855 556.733 L 51.855 556.854 L 51.855 556.981 L 51.855 557.101 L 51.855 557.222 L 51.855 557.349 L 51.855 557.504 L 51.855 557.625 L 51.855 557.780 L 51.855 557.936 L 51.855 558.091 L 51.855 558.212 L 51.855 558.338 "></path>
    <path id="STROKE_35607774-2e9f-4745-b407-7027757ea1e7" opacity="1.000" fill="none" stroke="#000000" stroke-width="1.360" stroke-opacity="1.000" stroke-linecap="round" stroke-linejoin="round" d="M 51.701 559.667 L 51.701 559.632 L 51.701 559.448 L 51.701 559.264 L 51.701 559.109 L 51.701 558.925 L 51.701 558.706 L 51.701 558.551 L 51.701 558.338 L 51.701 558.154 L 51.701 557.815 "></path>
    <path id="STROKE_348da15e-861d-471c-a29d-79b021841c5b" opacity="1.000" fill="none" stroke="#71c047" stroke-width="1.056" stroke-opacity="1.000" stroke-linecap="round" stroke-linejoin="round" d="M 104.001 455.327 L 102.459 456.869 L 102.169 457.159 L 101.779 457.548 L 101.427 457.901 L 100.979 458.349 L 100.593 458.734 L 100.067 459.261 L 99.711 459.616 L 99.190 460.138 L 98.709 460.619 L 98.155 461.173 L 97.739 461.588 L 97.104 462.224 L 96.597 462.731 L 95.963 463.365 L 95.360 463.968 L 94.714 464.614 L 94.064 465.264 L 93.400 465.928 L 92.787 466.541 L 92.042 467.286 L 91.319 468.009 L 90.639 468.689 L 89.915 469.412 L 89.217 470.110 L 88.526 470.802 L 87.613 471.715 L 86.937 472.391 L 86.085 473.242 L 85.362 473.966 L 84.510 474.818 L 83.757 475.571 L 82.813 476.515 L 81.921 477.407 L 81.056 478.272 L 80.266 479.062 L 79.327 480.000 L 78.540 480.788 L 77.616 481.712 L 76.735 482.593 L 75.885 483.443 L 74.976 484.352 L 74.125 485.202 L 73.327 486.001 L 72.397 486.931 L 71.614 487.714 L 70.701 488.627 L 69.913 489.415 L 69.037 490.291 L 68.370 490.957 L 67.476 491.852 L 66.797 492.531 L 66.072 493.255 L 65.360 493.968 L 64.685 494.643 L 64.018 495.310 L 63.173 496.155 L 62.506 496.822 L 61.691 497.637 L 61.009 498.318 L 60.206 499.122 L 59.591 499.737 L 58.695 500.633 L 58.002 501.326 L 57.183 502.145 L 56.520 502.808 L 55.824 503.504 L 55.179 504.149 L 54.435 504.893 L 53.742 505.585 L 53.093 506.234 L 52.431 506.897 L 51.800 507.528 L 51.195 508.133 L 50.488 508.840 L 49.839 509.489 L 49.190 510.137 L 48.527 510.801 L 47.895 511.433 L 47.291 512.037 L 46.567 512.760 L 45.889 513.439 L 45.194 514.134 L 44.500 514.827 L 43.804 515.524 L 43.173 516.155 L 42.354 516.974 L 41.800 517.528 L 41.072 518.256 L 40.378 518.950 L 39.731 519.597 L 39.097 520.231 L 38.280 521.047 L 37.692 521.636 L 36.893 522.435 L 36.150 523.178 L 35.350 523.978 L 34.729 524.598 L 33.838 525.490 L 33.217 526.110 L 32.432 526.896 L 31.688 527.639 L 30.995 528.333 L 30.345 528.983 L 29.546 529.782 L 29.007 530.321 L 28.325 531.003 L 27.741 531.586 L 27.091 532.236 L 26.505 532.823 L 25.782 533.546 L 25.286 534.042 L 24.655 534.673 L 24.131 535.197 L 23.526 535.802 L 23.002 536.325 L 22.445 536.882 L 22.014 537.314 L 21.429 537.899 L 20.951 538.377 L 20.484 538.844 L 20.068 539.260 L 19.530 539.798 L 19.175 540.153 L 18.710 540.617 L 18.356 540.972 L 17.926 541.402 L 17.586 541.742 L 17.181 542.147 L 16.844 542.484 L 16.458 542.870 L 16.120 543.208 L 15.748 543.580 L 15.439 543.889 L 15.068 544.260 L 14.807 544.520 L 14.469 544.859 L 14.172 545.156 L 13.911 545.417 L 13.633 545.695 L 13.325 546.003 L 13.127 546.201 L 12.849 546.479 L 12.598 546.730 L 12.352 546.976 L 12.090 547.238 L 11.859 547.468 L 11.597 547.731 L 11.320 548.008 L 11.057 548.271 L 10.793 548.534 L 10.531 548.797 L 10.268 549.060 L 10.023 549.305 L 9.745 549.583 L 9.485 549.843 L 9.207 550.121 L 8.925 550.403 L 8.634 550.693 L 8.371 550.957 L 8.065 551.263 L 7.787 551.541 L 7.507 551.821 L 7.214 552.114 L 6.935 552.393 L 6.691 552.637 L 6.412 552.916 L 6.151 553.177 L 5.901 553.427 L 5.639 553.688 L 5.393 553.935 L 5.194 554.134 L 4.932 554.396 L 4.730 554.597 L 4.480 554.848 L 4.281 555.047 L 4.049 555.279 L 3.865 555.463 L 3.665 555.662 L 3.511 555.817 L 3.327 556.001 L 3.173 556.155 L 3.014 556.313 L 2.893 556.435 L 2.768 556.560 L 2.662 556.666 L 2.570 556.758 L 2.493 556.835 L 2.398 556.930 L 2.262 557.066 L 2.153 557.175 L 2.029 557.299 L 1.922 557.405 L 1.813 557.515 L 1.707 557.621 L 1.597 557.730 L 1.521 557.807 L 1.425 557.903 L 1.333 557.995 L 1.241 558.087 L 1.149 558.179 L 1.024 558.304 L 0.917 558.411 L 0.809 558.518 L 0.717 558.610 L 0.640 558.688 L 0.548 558.780 L 0.470 558.858 L 0.395 558.933 L 0.303 559.025 L 0.194 559.134 L 0.072 559.256 L -0.024 559.352 L -0.103 559.431 L -0.195 559.523 L -0.379 559.707 L 2.853 562.940 L 2.869 562.955 L 2.884 562.971 L 2.899 562.986 L 2.917 563.003 L 2.932 563.019 L 2.947 563.034 L 2.963 563.049 L 2.978 563.065 L 2.993 563.080 L 3.012 563.098 L 3.027 563.114 L 3.042 563.129 L 3.087 563.174 L 3.151 563.237 L 3.241 563.327 "></path>
    <path id="STROKE_4f0bf099-0766-4cbc-ad4a-12c8502515ab" opacity="1.000" fill="none" stroke="#71c047" stroke-width="1.360" stroke-opacity="1.000" stroke-linecap="round" stroke-linejoin="round" d="M 2.862 559.301 L 5.171 559.301 L 5.416 559.301 L 5.662 559.301 L 5.976 559.301 L 6.252 559.301 L 6.559 559.301 L 6.835 559.301 L 7.203 559.301 L 7.487 559.301 L 7.886 559.301 L 8.193 559.301 L 8.592 559.301 L 8.967 559.301 L 9.335 559.301 L 9.704 559.301 L 10.041 559.301 L 10.386 559.301 L 10.785 559.301 L 11.123 559.301 L 11.460 559.301 L 11.774 559.301 L 12.112 559.301 L 12.388 559.301 L 12.725 559.301 L 13.002 559.301 L 13.285 559.301 L 13.561 559.301 L 13.838 559.301 L 14.114 559.301 L 14.390 559.301 L 14.643 559.301 L 14.950 559.301 L 15.226 559.301 L 15.502 559.301 L 15.747 559.301 L 16.054 559.301 L 16.307 559.301 L 16.583 559.301 L 16.829 559.301 L 17.105 559.301 L 17.350 559.301 L 17.596 559.301 L 17.849 559.301 L 18.094 559.301 L 18.340 559.301 L 18.585 559.301 L 18.800 559.301 L 19.045 559.301 L 19.237 559.301 L 19.482 559.301 L 19.667 559.301 L 19.912 559.301 L 20.127 559.301 L 20.372 559.301 L 20.625 559.301 L 20.871 559.301 L 21.147 559.301 L 21.454 559.301 L 21.699 559.301 L 22.006 559.301 L 22.320 559.301 L 22.627 559.301 L 22.903 559.301 L 23.241 559.301 L 23.486 559.301 L 23.800 559.301 L 24.046 559.301 L 24.291 559.301 L 24.506 559.301 L 24.782 559.301 L 24.966 559.301 L 25.219 559.301 L 25.373 559.301 L 25.649 559.301 L 25.833 559.301 L 26.078 559.301 L 26.293 559.301 L 26.546 559.301 L 26.761 559.301 L 27.006 559.301 L 27.221 559.301 L 27.467 559.301 L 27.712 559.301 L 27.957 559.301 L 28.211 559.301 L 28.517 559.301 L 28.763 559.301 L 29.069 559.301 L 29.315 559.301 L 29.629 559.301 L 29.905 559.301 L 30.212 559.301 L 30.488 559.301 L 30.764 559.301 L 31.018 559.301 L 31.294 559.301 L 31.539 559.301 L 31.785 559.301 L 31.999 559.301 L 32.245 559.301 L 32.436 559.301 L 32.682 559.301 L 32.866 559.301 L 33.111 559.301 L 33.295 559.301 L 33.541 559.301 L 33.786 559.301 L 34.039 559.301 L 34.285 559.301 L 34.561 559.301 L 34.806 559.301 L 35.113 559.301 L 35.397 559.301 L 35.704 559.301 L 35.980 559.301 L 36.287 559.301 L 36.532 559.301 L 36.839 559.301 L 37.092 559.301 L 37.337 559.301 L 37.552 559.301 L 37.828 559.301 L 38.012 559.301 L 38.258 559.301 L 38.449 559.301 L 38.695 559.301 L 38.879 559.301 L 39.124 559.301 L 39.339 559.301 L 39.585 559.301 L 39.838 559.301 L 40.114 559.301 L 40.359 559.301 L 40.666 559.301 L 40.911 559.301 L 41.218 559.301 L 41.441 559.301 L 41.717 559.301 L 41.870 559.301 L 42.085 559.301 L 42.269 559.301 L 42.453 559.301 L 42.576 559.301 L 42.729 559.301 L 42.860 559.301 L 43.013 559.301 L 43.258 559.301 L 43.381 559.301 L 43.504 559.301 L 43.626 559.301 L 43.780 559.301 L 43.903 559.301 L 44.056 559.301 L 44.209 559.301 L 44.370 559.301 L 44.524 559.301 L 44.739 559.301 L 44.892 559.301 L 45.076 559.301 L 45.260 559.301 L 45.444 559.301 L 45.598 559.301 L 45.820 559.301 L 45.943 559.301 L 46.127 559.301 L 46.250 559.301 L 46.434 559.301 L 46.556 559.301 L 46.710 559.301 L 46.832 559.301 L 46.955 559.301 L 47.078 559.301 L 47.201 559.301 L 47.331 559.301 L 47.454 559.301 L 47.576 559.301 L 47.699 559.301 L 47.822 559.301 L 47.975 559.301 L 48.098 559.301 L 48.251 559.301 L 48.374 559.301 L 48.527 559.301 L 48.650 559.301 L 48.811 559.301 L 48.965 559.301 L 49.087 559.301 L 49.241 559.301 L 49.394 559.301 L 49.517 559.301 L 49.670 559.301 L 49.793 559.301 L 49.946 559.301 L 50.069 559.301 L 50.192 559.301 L 50.322 559.301 L 50.475 559.301 L 50.690 559.301 L 50.905 559.301 L 51.089 559.301 L 51.242 559.301 L 51.396 559.301 L 51.519 559.301 L 51.672 559.301 L 51.833 559.301 L 51.956 559.301 L 52.078 559.301 L 52.232 559.301 "></path>
    <path id="STROKE_47b5fcf9-3d02-4d27-9d82-bffd5e35e145" opacity="1.000" fill="none" stroke="#71c047" stroke-width="1.360" stroke-opacity="1.000" stroke-linecap="round" stroke-linejoin="round" d="M 52.569 456.813 L 53.405 456.813 L 53.528 456.813 L 53.651 456.813 L 53.835 456.813 L 53.958 456.813 L 54.172 456.813 L 54.356 456.813 L 54.602 456.813 L 54.855 456.813 L 55.131 456.813 L 55.376 456.813 L 55.714 456.813 L 55.990 456.813 L 56.366 456.813 L 56.734 456.813 L 57.071 456.813 L 57.440 456.813 L 57.846 456.813 L 58.276 456.813 L 58.736 456.813 L 59.142 456.813 L 59.602 456.813 L 59.971 456.813 L 60.553 456.813 L 60.991 456.813 L 61.512 456.813 L 61.942 456.813 L 62.471 456.813 L 62.839 456.813 L 63.391 456.813 L 63.798 456.813 L 64.289 456.813 L 64.687 456.813 L 65.155 456.813 L 65.493 456.813 L 66.014 456.813 L 66.382 456.813 L 66.850 456.813 L 67.249 456.813 L 67.709 456.813 L 68.054 456.813 L 68.484 456.813 L 68.913 456.813 L 69.312 456.813 L 69.749 456.813 L 70.210 456.813 L 70.547 456.813 L 71.076 456.813 L 71.475 456.813 L 71.966 456.813 L 72.395 456.813 L 72.925 456.813 L 73.385 456.813 L 73.906 456.813 L 74.343 456.813 L 74.896 456.813 L 75.325 456.813 L 75.824 456.813 L 76.284 456.813 L 76.805 456.813 L 77.243 456.813 L 77.764 456.813 L 78.224 456.813 L 78.753 456.813 L 79.183 456.813 L 79.735 456.813 L 80.172 456.813 L 80.663 456.813 L 81.062 456.813 L 81.499 456.813 L 81.898 456.813 L 82.358 456.813 L 82.665 456.813 L 83.072 456.813 L 83.378 456.813 L 83.746 456.813 L 84.053 456.813 L 84.398 456.813 L 84.705 456.813 L 85.043 456.813 L 85.349 456.813 L 85.687 456.813 L 85.971 456.813 L 86.308 456.813 L 86.584 456.813 L 86.891 456.813 L 87.167 456.813 L 87.482 456.813 L 87.727 456.813 L 88.034 456.813 L 88.279 456.813 L 88.555 456.813 L 88.778 456.813 L 89.023 456.813 L 89.269 456.813 L 89.514 456.813 L 89.698 456.813 L 89.944 456.813 L 90.128 456.813 L 90.350 456.813 L 90.503 456.813 L 90.749 456.813 L 90.902 456.813 L 91.148 456.813 L 91.332 456.813 L 91.577 456.813 L 91.769 456.813 L 91.984 456.813 L 92.168 456.813 L 92.382 456.813 L 92.567 456.813 L 92.751 456.813 L 92.904 456.813 L 93.088 456.813 L 93.218 456.813 L 93.403 456.813 L 93.525 456.813 L 93.679 456.813 L 93.801 456.813 L 93.955 456.813 L 94.077 456.813 L 94.200 456.813 L 94.323 456.813 L 94.446 456.813 L 94.568 456.813 L 94.729 456.813 L 94.852 456.813 L 95.005 456.813 L 95.128 456.813 L 95.282 456.813 L 95.404 456.813 L 95.558 456.813 L 95.680 456.813 L 95.834 456.813 L 95.957 456.813 L 96.079 456.813 L 96.210 456.813 L 96.332 456.813 L 96.455 456.813 L 96.608 456.813 L 96.823 456.813 L 96.946 456.813 L 97.069 456.813 L 97.283 456.813 L 97.406 456.813 L 97.529 456.813 L 97.659 456.813 L 97.782 456.813 L 97.997 456.813 L 98.181 456.813 L 98.365 456.813 L 98.518 456.813 L 98.672 456.813 L 98.825 456.813 L 98.948 456.813 L 99.070 456.813 L 99.201 456.813 L 99.323 456.813 L 99.416 456.813 L 99.538 456.813 L 99.692 456.813 L 99.814 456.813 L 99.968 456.813 L 100.121 456.813 L 100.275 456.813 L 100.428 456.813 L 100.551 456.813 "></path>
    <path id="STROKE_0a10204b-693e-4435-b902-8f2d09bbacf8" opacity="1.000" fill="none" stroke="#71c047" stroke-width="0.679" stroke-opacity="1.000" stroke-linecap="round" stroke-linejoin="round" d="M 114.555 441.679 Q 114.556 441.198 114.558 441.163 Q 114.560 441.127 114.540 441.182 Q 114.655 441.302 114.456 441.062 Q 114.258 440.821 113.713 440.627 Q 113.169 440.432 112.372 440.970 Q 111.576 441.509 110.986 442.298 Q 110.395 443.087 110.191 445.027 Q 110.396 445.110 110.883 445.314 Q 111.369 445.517 111.872 445.487 Q 112.376 445.457 112.601 445.235 Q 112.826 445.014 112.891 444.783 Q 112.309 444.758 112.442 444.768 Q 111.866 444.436 111.070 445.256 Q 110.274 446.076 109.982 446.490 Q 109.689 446.904 109.543 447.531 Q 109.398 448.158 109.487 448.480 Q 109.577 448.801 109.757 448.923 Q 109.937 449.046 110.188 449.158 Q 110.438 449.271 110.593 449.282 Q 110.748 449.292 110.984 449.371 Q 111.221 449.450 112.430 449.526 Q 113.640 449.602 115.108 448.967 "></path>
    <path id="STROKE_69c53a89-9431-41dc-bfe1-dd66b98149ab" opacity="1.000" fill="none" stroke="#71c047" stroke-width="0.680" stroke-opacity="1.000" stroke-linecap="round" stroke-linejoin="round" d="M 118.996 445.815 Q 118.996 445.206 118.996 445.415 Q 118.996 445.369 118.981 445.151 Q 118.870 445.222 118.472 445.054 Q 118.073 444.886 117.478 445.421 Q 116.883 445.956 116.753 446.091 Q 116.622 446.226 116.557 446.790 Q 116.543 446.874 117.267 446.985 Q 117.991 447.096 118.492 447.228 Q 118.993 447.360 119.362 447.535 Q 119.730 447.711 119.672 447.703 Q 119.614 447.695 119.637 447.652 Q 119.661 447.608 119.687 447.883 Q 119.713 448.158 119.685 448.452 Q 119.656 448.747 119.414 448.958 Q 119.171 449.169 119.158 449.178 Q 119.144 449.187 118.983 449.285 Q 118.823 449.383 118.415 449.468 Q 118.008 449.554 117.669 448.967 "></path>
    <path id="STROKE_0c64ce5a-93c1-41ca-bc36-00a2d3ccbbd9" opacity="1.000" fill="none" stroke="#71c047" stroke-width="0.680" stroke-opacity="1.000" stroke-linecap="round" stroke-linejoin="round" d="M 121.182 446.436 Q 121.182 446.436 121.059 446.456 Q 120.936 446.476 120.937 447.017 Q 120.938 447.557 120.864 447.912 Q 120.791 448.268 121.081 448.385 Q 121.371 448.502 121.667 448.519 Q 121.964 448.535 122.307 448.577 Q 122.651 448.618 123.215 448.156 Q 123.780 447.695 124.334 446.281 Q 124.289 446.012 124.309 446.618 Q 124.329 447.223 124.328 447.563 Q 124.328 447.902 124.468 448.106 Q 124.609 448.309 124.583 448.268 Q 124.557 448.226 124.584 448.291 Q 124.612 448.356 125.531 448.409 "></path>
    <path id="STROKE_bfaabad2-6d64-4cb9-a3f7-1823bc38ed7f" opacity="1.000" fill="none" stroke="#71c047" stroke-width="0.680" stroke-opacity="1.000" stroke-linecap="round" stroke-linejoin="round" d="M 127.417 445.907 Q 127.172 446.180 127.113 446.308 Q 127.054 446.435 127.109 446.458 Q 127.164 446.482 127.054 446.442 Q 126.944 446.402 127.224 447.709 Q 127.505 449.016 128.430 450.572 "></path>
    <path id="STROKE_94d629e8-0955-4725-b189-765857bbe29c" opacity="1.000" fill="none" stroke="#71c047" stroke-width="0.680" stroke-opacity="1.000" stroke-linecap="round" stroke-linejoin="round" d="M 126.581 447.052 Q 126.395 446.207 126.901 445.839 Q 127.408 445.470 128.011 445.351 Q 128.614 445.232 128.793 445.319 Q 128.972 445.406 129.128 445.585 Q 129.283 445.763 129.310 445.802 Q 129.338 445.840 129.305 445.813 Q 129.271 445.785 129.484 445.982 Q 129.696 446.179 129.841 446.576 Q 129.986 446.974 129.959 447.552 Q 129.932 448.130 129.169 448.305 Q 128.407 448.480 127.448 448.225 "></path>
    <path id="STROKE_05a169fc-8bf0-4d23-afa6-fcc37385c6d9" opacity="1.000" fill="none" stroke="#71c047" stroke-width="0.680" stroke-opacity="1.000" stroke-linecap="round" stroke-linejoin="round" d="M 3.445 568.349 Q 3.445 568.349 3.452 568.255 Q 3.460 568.162 3.432 568.342 Q 3.404 568.523 3.599 567.452 Q 2.966 567.461 3.138 567.466 Q 3.005 567.558 2.001 568.305 Q 0.996 569.053 0.557 569.773 Q 0.118 570.494 0.102 570.797 Q 0.085 571.100 0.227 571.340 Q 0.369 571.581 0.423 571.539 Q 0.478 571.498 0.364 571.573 Q 0.251 571.647 0.781 571.624 Q 1.310 571.601 1.577 571.609 Q 1.843 571.617 2.210 571.191 Q 1.571 571.191 1.735 571.191 Q 1.372 571.210 1.382 571.251 Q 0.977 571.262 0.397 572.207 Q -0.184 573.151 -0.296 573.782 Q -0.407 574.413 -0.255 574.697 Q -0.104 574.981 0.118 575.053 Q 0.340 575.126 0.937 575.297 Q 1.534 575.468 2.532 575.586 Q 3.530 575.704 4.181 574.959 "></path>
    <path id="STROKE_91600907-d3cd-467a-98f7-646d432b6657" opacity="1.000" fill="none" stroke="#71c047" stroke-width="0.680" stroke-opacity="1.000" stroke-linecap="round" stroke-linejoin="round" d="M 5.761 573.848 Q 5.761 573.831 5.761 573.722 Q 5.529 573.451 6.452 576.238 L 6.528 576.253 "></path>
    <path id="STROKE_8247e1a3-499b-439e-b1fb-dab4da78d24c" opacity="1.000" fill="none" stroke="#71c047" stroke-width="0.680" stroke-opacity="1.000" stroke-linecap="round" stroke-linejoin="round" d="M 6.099 571.622 Q 6.068 571.530 5.662 570.972 Q 6.003 571.038 6.038 571.254 "></path>
    <path id="STROKE_3843cf69-18a0-4809-9b56-1b4611897eba" opacity="1.000" fill="none" stroke="#71c047" stroke-width="0.680" stroke-opacity="1.000" stroke-linecap="round" stroke-linejoin="round" d="M 8.346 576.011 Q 8.314 575.823 8.423 577.228 Q 8.835 577.212 8.694 575.876 Q 8.553 574.540 8.606 574.003 Q 8.658 573.465 8.772 573.245 Q 8.886 573.025 9.038 572.936 Q 9.190 572.848 9.090 572.816 Q 8.990 572.785 9.194 572.742 Q 9.399 572.700 9.569 572.713 Q 9.739 572.727 9.903 572.893 Q 10.066 573.060 10.138 573.146 Q 10.210 573.233 10.379 573.662 Q 10.548 574.092 10.632 574.343 Q 10.715 574.594 10.887 575.033 Q 11.058 575.473 11.028 575.396 Q 10.998 575.319 10.995 575.367 Q 10.991 575.415 11.113 575.501 Q 11.236 575.588 11.713 575.143 "></path>
    <path id="STROKE_a342bebc-d320-48b7-acdb-51be78b74184" opacity="1.000" fill="none" stroke="#71c047" stroke-width="0.680" stroke-opacity="1.000" stroke-linecap="round" stroke-linejoin="round" d="M 13.032 573.969 Q 13.077 574.115 13.239 574.143 Q 13.401 574.171 13.640 574.088 Q 13.878 574.004 14.109 573.812 Q 14.339 573.620 14.605 573.336 Q 14.870 573.052 14.992 572.806 Q 15.114 572.560 15.168 572.452 Q 15.221 572.344 15.255 572.036 Q 15.289 571.728 15.268 571.872 Q 15.247 572.016 15.345 571.402 Q 15.443 570.788 15.207 570.281 Q 14.971 569.774 14.637 569.416 Q 14.302 569.057 14.345 569.100 Q 14.388 569.143 14.335 569.101 Q 14.282 569.060 13.715 569.169 Q 13.788 568.962 13.471 570.366 Q 13.153 571.769 13.768 573.581 Q 14.383 575.393 15.901 577.305 "></path>
    <path id="STROKE_1fd3c3f5-5b33-412d-bd47-521c534fda17" opacity="1.000" fill="none" stroke="#71c047" stroke-width="0.667" stroke-opacity="1.000" stroke-linecap="round" stroke-linejoin="round" d="M 13.469 575.269 Q 13.469 575.298 13.469 575.361 Q 13.797 575.568 16.184 574.775 "></path>
    <path id="STROKE_6bc4fa00-3746-42b1-823b-aa34286c82f7" opacity="1.000" fill="none" stroke="#000000" stroke-width="0.438" stroke-opacity="1.000" stroke-linecap="round" stroke-linejoin="round" d="M 142.281 454.277 L 142.281 456.227 L 142.281 456.658 L 142.281 457.153 L 142.281 457.613 L 142.281 458.142 L 142.281 458.602 L 142.281 459.189 L 142.281 459.776 L 142.281 460.305 L 142.281 460.857 L 142.281 461.570 L 142.281 462.094 L 142.281 462.899 L 142.281 463.515 L 142.281 464.320 L 142.281 464.935 L 142.281 465.833 L 142.281 466.604 L 142.281 467.466 L 142.281 468.272 L 142.281 469.135 L 142.281 469.877 L 142.281 470.745 L 142.281 471.482 L 142.281 472.350 L 142.281 473.092 L 142.281 473.926 L 142.281 474.663 L 142.281 475.560 L 142.281 476.331 L 142.281 477.291 L 142.281 478.246 L 142.281 479.172 L 142.281 480.006 L 142.281 481.088 L 142.281 481.801 L 142.281 482.698 L 142.281 483.406 L 142.281 484.240 L 142.281 484.827 L 142.281 485.690 L 142.281 486.276 L 142.281 487.110 L 142.281 487.795 L 142.281 488.566 L 142.281 489.152 L 142.281 490.050 L 142.281 490.729 L 142.281 491.563 L 142.281 492.241 L 142.281 493.012 L 142.281 493.599 L 142.281 494.404 L 142.281 494.956 L 142.281 495.698 L 142.281 496.377 L 142.281 497.062 L 142.281 497.741 L 142.281 498.419 L 142.281 499.035 L 142.281 499.748 L 142.281 500.456 L 142.281 501.134 L 142.281 501.813 L 142.281 502.590 L 142.281 503.205 L 142.281 504.068 L 142.281 504.752 L 142.281 505.523 L 142.281 506.202 L 142.281 506.973 L 142.281 507.531 L 142.281 508.273 L 142.281 508.980 L 142.281 509.630 L 142.281 510.309 L 142.281 510.988 L 142.281 511.609 L 142.281 512.409 L 142.281 513.087 L 142.281 513.893 L 142.281 514.635 L 142.281 515.532 L 142.281 516.303 L 142.281 517.229 L 142.281 518.000 L 142.281 518.869 L 142.281 519.605 L 142.281 520.439 L 142.281 521.060 L 142.281 521.957 L 142.281 522.636 L 142.281 523.436 L 142.281 524.115 L 142.281 524.920 L 142.281 525.535 L 142.281 526.433 L 142.281 527.146 L 142.281 527.980 L 142.281 528.688 L 142.281 529.550 L 142.281 530.292 L 142.281 531.127 L 142.281 531.840 L 142.281 532.611 L 142.281 533.261 L 142.281 533.911 L 142.281 534.463 L 142.281 535.113 L 142.281 535.728 L 142.281 536.286 L 142.281 536.810 L 142.281 537.396 L 142.281 537.862 L 142.281 538.449 L 142.281 538.909 L 142.281 539.439 L 142.281 539.870 L 142.281 540.393 L 142.281 540.825 L 142.281 541.320 L 142.281 541.659 L 142.281 542.125 L 142.281 542.527 L 142.281 542.930 L 142.281 543.298 L 142.281 543.764 L 142.281 544.069 L 142.281 544.443 L 142.281 544.811 L 142.281 545.150 L 142.281 545.461 L 142.281 545.864 L 142.281 546.140 L 142.281 546.479 L 142.281 546.790 L 142.281 547.129 L 142.281 547.405 L 142.281 547.716 L 142.281 547.992 L 142.281 548.303 L 142.281 548.550 L 142.281 548.826 L 142.281 549.073 L 142.281 549.321 L 142.281 549.539 L 142.281 549.787 L 142.281 549.971 L 142.281 550.218 L 142.281 550.431 L 142.281 550.678 L 142.281 550.834 L 142.281 551.081 L 142.281 551.300 L 142.281 551.484 L 142.281 551.668 L 142.281 551.886 L 142.281 552.042 L 142.281 552.255 L 142.281 552.439 L 142.281 552.657 L 142.281 552.812 L 142.281 553.025 L 142.281 553.181 L 142.281 553.399 L 142.281 553.583 L 142.281 553.739 L 142.281 553.894 L 142.281 554.049 L 142.281 554.170 L 142.281 554.297 L 142.281 554.509 L 142.281 554.665 L 142.281 554.820 L 142.281 554.941 L 142.281 555.131 L 142.281 555.315 L 142.281 555.528 L 142.281 555.775 L 142.281 555.901 L 142.281 556.057 L 142.281 556.212 L 142.281 556.362 L 142.281 556.517 L 142.281 556.672 L 142.281 556.799 L 142.281 556.948 L 142.281 557.104 L 142.281 557.230 L 142.281 557.351 L 142.281 557.478 L 142.281 557.598 L 142.281 557.782 L 142.281 557.909 L 142.281 558.093 L 142.281 558.277 L 142.281 558.467 L 142.281 558.651 L 142.281 558.835 L 142.281 559.019 L 142.281 559.146 L 142.281 559.359 L 142.281 559.485 L 142.281 559.732 L 142.281 559.853 L 142.281 560.008 L 142.281 560.164 L 142.281 560.319 L 142.281 560.440 L 142.281 560.624 L 142.281 560.779 L 142.281 560.935 L 142.281 561.090 L 142.281 561.274 L 142.281 561.458 L 142.281 561.613 L 142.281 561.797 L 142.281 561.987 L 142.281 562.171 L 142.281 562.384 L 142.281 562.574 L 142.281 562.787 L 142.281 562.977 L 142.281 563.190 L 142.281 563.374 L 142.281 563.563 L 142.281 563.776 L 142.281 563.932 L 142.281 564.052 "></path>
    <path id="STROKE_9073719b-29c0-4a3f-9849-2ee681928c2f" opacity="1.000" fill="none" stroke="#000000" stroke-width="0.435" stroke-opacity="1.000" stroke-linecap="round" stroke-linejoin="round" d="M 104.194 560.193 L 104.316 560.193 L 104.531 560.193 L 104.777 560.193 L 105.022 560.193 L 105.429 560.193 L 105.827 560.193 L 106.318 560.193 L 106.817 560.193 L 107.400 560.193 L 107.952 560.193 L 108.604 560.193 L 109.248 560.193 L 109.992 560.193 L 110.575 560.193 L 111.472 560.193 L 112.208 560.193 L 113.106 560.193 L 113.904 560.193 L 114.831 560.193 L 115.668 560.193 L 116.619 560.193 L 117.547 560.193 L 118.413 560.193 L 119.334 560.193 L 120.200 560.193 L 121.029 560.193 L 121.987 560.193 L 122.915 560.193 L 123.836 560.193 L 124.794 560.193 L 125.684 560.193 L 126.551 560.193 L 127.479 560.193 L 128.276 560.193 L 129.204 560.193 L 129.941 560.193 L 130.746 560.193 L 131.360 560.193 L 132.134 560.193 L 132.809 560.193 L 133.461 560.193 L 134.136 560.193 L 134.757 560.193 L 135.309 560.193 L 136.015 560.193 L 136.667 560.193 L 137.281 560.193 L 137.933 560.193 L 138.546 560.193 L 139.137 560.193 L 139.842 560.193 L 140.302 560.193 L 140.924 560.193 L 141.414 560.193 L 141.936 560.193 L 142.404 560.193 L 142.895 560.193 L 143.263 560.193 L 143.792 560.193 L 144.191 560.193 L 144.651 560.193 L 145.019 560.193 L 145.518 560.193 L 145.886 560.193 L 146.377 560.193 L 146.814 560.193 L 147.274 560.193 L 147.612 560.193 L 148.141 560.193 L 148.509 560.193 L 149.000 560.193 L 149.368 560.193 L 149.805 560.193 L 150.173 560.193 L 150.633 560.193 L 150.940 560.193 L 151.347 560.193 L 151.746 560.193 L 152.083 560.193 L 152.420 560.193 L 152.766 560.193 L 153.042 560.193 L 153.349 560.193 L 153.594 560.193 L 153.839 560.193 L 154.000 560.193 L 154.185 560.193 L 154.338 560.193 L 154.461 560.193 L 154.645 560.193 L 154.767 560.193 L 154.921 560.193 "></path>
    <path id="STROKE_2da19515-2e05-4276-b3cf-a160a1a118fc" opacity="1.000" fill="none" stroke="#000000" stroke-width="0.449" stroke-opacity="1.000" stroke-linecap="round" stroke-linejoin="round" d="M 103.266 506.760 L 104.194 506.760 L 104.501 506.760 L 104.869 506.760 L 105.214 506.760 L 105.735 506.760 L 106.195 506.760 L 106.786 506.760 L 107.369 506.760 L 108.021 506.760 L 108.634 506.760 L 109.501 506.760 L 110.176 506.760 L 111.073 506.760 L 111.932 506.760 L 112.768 506.760 L 113.597 506.760 L 114.647 506.760 L 115.384 506.760 L 116.373 506.760 L 117.301 506.760 L 118.160 506.760 L 119.088 506.760 L 119.955 506.760 L 120.753 506.760 L 121.680 506.760 L 122.540 506.760 L 123.406 506.760 L 124.296 506.760 L 125.132 506.760 L 125.906 506.760 L 126.796 506.760 L 127.540 506.760 L 128.399 506.760 L 129.143 506.760 L 129.971 506.760 L 130.593 506.760 L 131.482 506.760 L 132.165 506.760 L 132.840 506.760 L 133.584 506.760 L 134.197 506.760 L 134.819 506.760 L 135.524 506.760 L 136.176 506.760 L 136.820 506.760 L 137.434 506.760 L 138.025 506.760 L 138.546 506.760 L 139.137 506.760 L 139.597 506.760 L 140.149 506.760 L 140.579 506.760 L 141.077 506.760 L 141.476 506.760 L 141.967 506.760 L 142.373 506.760 L 142.864 506.760 L 143.263 506.760 L 143.669 506.760 L 144.038 506.760 L 144.436 506.760 L 144.774 506.760 L 145.150 506.760 L 145.456 506.760 L 145.825 506.760 L 146.101 506.760 L 146.407 506.760 L 146.691 506.760 L 146.998 506.760 L 147.243 506.760 L 147.489 506.760 L 147.642 506.760 L 147.826 506.760 L 147.980 506.760 L 148.141 506.760 L 148.356 506.760 L 148.540 506.760 L 148.693 506.760 L 148.846 506.760 L 149.000 506.760 L 149.184 506.760 L 149.337 506.760 L 149.529 506.760 L 149.744 506.760 L 149.866 506.760 L 149.989 506.760 L 150.112 506.760 L 150.265 506.760 L 150.357 506.760 L 150.541 506.760 L 150.695 506.760 L 150.879 506.760 L 151.040 506.760 L 151.255 506.760 L 151.377 506.760 L 151.592 506.760 L 151.776 506.760 L 151.899 506.760 L 152.052 506.760 L 152.236 506.760 "></path>
    <path id="STROKE_42f1bc41-4c65-48ee-884b-ab5cc87c3844" opacity="1.000" fill="none" stroke="#000000" stroke-width="0.452" stroke-opacity="1.000" stroke-linecap="round" stroke-linejoin="round" d="M 109.064 455.979 L 109.432 455.979 L 109.655 455.979 L 109.839 455.979 L 110.115 455.979 L 110.421 455.979 L 110.820 455.979 L 111.135 455.979 L 111.626 455.979 L 111.994 455.979 L 112.523 455.979 L 112.952 455.979 L 113.505 455.979 L 114.003 455.979 L 114.586 455.979 L 115.169 455.979 L 115.760 455.979 L 116.281 455.979 L 116.994 455.979 L 117.485 455.979 L 118.160 455.979 L 118.812 455.979 L 119.426 455.979 L 120.016 455.979 L 120.783 455.979 L 121.305 455.979 L 122.018 455.979 L 122.693 455.979 L 123.376 455.979 L 123.989 455.979 L 124.825 455.979 L 125.377 455.979 L 126.091 455.979 L 126.766 455.979 L 127.387 455.979 L 127.970 455.979 L 128.737 455.979 L 129.266 455.979 L 129.941 455.979 L 130.562 455.979 L 131.176 455.979 L 131.735 455.979 L 132.441 455.979 L 132.901 455.979 L 133.522 455.979 L 134.013 455.979 L 134.627 455.979 L 135.156 455.979 L 135.831 455.979 L 136.330 455.979 L 136.943 455.979 L 137.557 455.979 L 138.117 455.979 L 138.638 455.979 L 139.259 455.979 L 139.781 455.979 L 140.364 455.979 L 140.862 455.979 L 141.445 455.979 L 141.905 455.979 L 142.496 455.979 L 142.987 455.979 L 143.539 455.979 L 144.007 455.979 L 144.559 455.979 L 145.019 455.979 L 145.548 455.979 L 145.978 455.979 L 146.469 455.979 L 146.906 455.979 L 147.428 455.979 L 147.857 455.979 L 148.386 455.979 L 148.816 455.979 L 149.368 455.979 L 149.805 455.979 L 150.296 455.979 L 150.726 455.979 L 151.132 455.979 L 151.500 455.979 L 151.899 455.979 L 152.236 455.979 L 152.612 455.979 L 152.888 455.979 L 153.226 455.979 L 153.471 455.979 L 153.747 455.979 L 154.000 455.979 L 154.246 455.979 L 154.430 455.979 L 154.614 455.979 L 154.829 455.979 "></path>
    <path id="STROKE_22cda798-ece7-4802-bd50-4bf16847bc8f" opacity="1.000" fill="none" stroke="#000000" stroke-width="0.524" stroke-opacity="1.000" stroke-linecap="round" stroke-linejoin="round" d="M 140.119 458.058 Q 140.150 458.092 140.280 457.827 Q 140.410 457.562 141.526 456.611 Q 142.641 455.660 144.792 453.534 "></path>
    <path id="STROKE_048ba746-4051-482b-bb88-b7e3921a58c4" opacity="1.000" fill="none" stroke="#000000" stroke-width="0.490" stroke-opacity="1.000" stroke-linecap="round" stroke-linejoin="round" d="M 140.284 509.233 Q 140.282 509.009 141.348 507.756 Q 142.414 506.503 143.235 505.699 Q 144.056 504.895 144.480 504.437 Q 144.904 503.979 145.322 503.303 "></path>
    <path id="STROKE_b0192513-e535-4d5c-b00c-1310afc1b94b" opacity="1.000" fill="none" stroke="#000000" stroke-width="0.453" stroke-opacity="1.000" stroke-linecap="round" stroke-linejoin="round" d="M 139.596 562.798 Q 139.596 562.804 139.613 562.810 Q 139.642 562.729 139.734 562.592 Q 139.827 562.455 139.998 562.259 Q 140.169 562.063 140.246 561.997 Q 140.323 561.930 140.531 561.731 Q 140.739 561.533 141.252 561.058 Q 141.766 560.584 142.445 559.947 Q 143.124 559.310 145.673 556.947 "></path>
    <path id="STROKE_69de9e07-51b0-434f-8ccc-39b9958fe912" opacity="1.000" fill="none" stroke="#000000" stroke-width="0.642" stroke-opacity="1.000" stroke-linecap="round" stroke-linejoin="round" d="M 151.040 526.701 Q 151.028 526.754 151.040 526.629 Q 151.053 526.504 151.621 526.296 Q 152.189 526.089 152.697 526.027 Q 153.204 525.965 153.472 525.947 Q 153.740 525.928 153.896 526.001 Q 154.052 526.074 154.074 526.173 Q 154.097 526.273 154.093 526.343 Q 154.089 526.414 154.078 526.463 Q 154.067 526.511 154.074 526.579 Q 154.081 526.646 153.653 527.164 Q 153.224 527.682 152.491 528.400 Q 151.757 529.119 151.301 529.632 Q 150.844 530.146 150.608 530.532 Q 150.372 530.918 150.296 531.192 Q 150.219 531.465 150.213 531.568 Q 150.206 531.671 150.335 531.853 Q 150.464 532.035 151.251 532.070 Q 152.037 532.104 152.839 532.187 "></path>
    <path id="STROKE_d658a7bb-7c97-4636-9751-b07ec9b03dba" opacity="1.000" fill="none" stroke="#000000" stroke-width="0.680" stroke-opacity="1.000" stroke-linecap="round" stroke-linejoin="round" d="M 150.686 529.765 Q 150.762 529.790 151.665 529.723 Q 152.569 529.657 154.287 529.489 "></path>
    <path id="STROKE_7ecf673b-51fe-41ab-8244-ce85f56b2226" opacity="1.000" fill="none" stroke="#000000" stroke-width="0.543" stroke-opacity="1.000" stroke-linecap="round" stroke-linejoin="round" d="M 158.130 528.471 Q 158.141 528.466 158.152 528.461 Q 158.048 528.469 157.235 529.442 Q 156.422 530.414 155.821 531.331 Q 155.221 532.248 154.877 532.758 Q 154.533 533.268 154.452 533.759 "></path>
    <path id="STROKE_6312010b-24af-433b-bc3f-601a7f6c8b46" opacity="1.000" fill="none" stroke="#000000" stroke-width="0.680" stroke-opacity="1.000" stroke-linecap="round" stroke-linejoin="round" d="M 157.954 532.144 Q 157.989 532.143 158.090 531.970 Q 158.191 531.797 158.479 531.584 Q 158.767 531.372 159.069 531.376 Q 159.372 531.381 159.535 531.382 Q 159.699 531.383 159.766 531.438 Q 159.834 531.492 159.832 531.643 Q 159.829 531.794 159.792 531.915 Q 159.755 532.036 159.490 532.309 Q 159.225 532.582 158.841 532.990 Q 158.457 533.398 158.296 533.600 Q 158.135 533.803 158.043 533.960 Q 157.951 534.117 157.923 534.332 Q 157.895 534.546 157.998 534.730 Q 158.101 534.915 158.662 535.043 Q 159.224 535.172 159.622 535.166 Q 160.020 535.161 160.385 534.998 "></path>
    <path id="STROKE_8ba937d0-1213-46db-80b0-f4950b92e6d4" opacity="1.000" fill="none" stroke="#000000" stroke-width="0.680" stroke-opacity="1.000" stroke-linecap="round" stroke-linejoin="round" d="M 149.715 475.108 Q 149.664 475.113 149.933 475.087 Q 150.203 475.060 150.466 475.149 Q 150.730 475.238 150.834 475.332 Q 150.938 475.425 150.994 475.478 Q 151.049 475.532 151.132 475.642 Q 151.214 475.752 151.315 475.862 Q 151.417 475.972 151.477 476.103 Q 151.538 476.234 151.480 476.453 Q 151.422 476.671 150.738 477.172 Q 150.055 477.673 149.648 477.976 Q 149.241 478.279 149.074 478.463 Q 148.907 478.647 148.859 478.891 Q 148.810 479.135 148.849 479.318 Q 148.887 479.501 149.173 479.629 Q 149.459 479.758 150.962 479.842 "></path>
    <path id="STROKE_204da512-b4b7-4d3f-a406-9b9a0002b924" opacity="1.000" fill="none" stroke="#000000" stroke-width="0.680" stroke-opacity="1.000" stroke-linecap="round" stroke-linejoin="round" d="M 148.764 478.260 Q 148.987 478.256 148.952 478.249 Q 149.181 478.237 152.000 477.961 "></path>
    <path id="STROKE_6087cc2f-844f-44d8-ac59-9149ad593d23" opacity="1.000" fill="none" stroke="#000000" stroke-width="0.563" stroke-opacity="1.000" stroke-linecap="round" stroke-linejoin="round" d="M 157.082 475.959 Q 157.188 475.939 157.083 476.074 Q 156.978 476.209 156.362 477.189 Q 155.746 478.169 154.219 480.473 "></path>
    <path id="STROKE_f6eb4a36-1477-44aa-a68d-6b9a13d42269" opacity="1.000" fill="none" stroke="#000000" stroke-width="0.658" stroke-opacity="1.000" stroke-linecap="round" stroke-linejoin="round" d="M 158.230 478.404 Q 158.150 478.495 158.469 478.243 Q 158.787 477.991 159.214 477.879 Q 159.640 477.767 159.955 477.759 Q 160.270 477.751 160.382 477.807 Q 160.495 477.863 160.541 477.914 Q 160.586 477.966 160.637 478.244 Q 160.687 478.522 160.081 479.093 Q 159.475 479.664 159.084 480.021 Q 158.693 480.378 158.565 480.585 Q 158.437 480.793 158.379 480.957 Q 158.320 481.120 158.321 481.326 Q 158.322 481.532 158.440 481.719 Q 158.558 481.907 159.098 482.078 Q 159.638 482.248 160.345 482.266 Q 161.051 482.284 161.919 482.055 "></path>
    <path id="STROKE_e4641d2f-7371-47d3-a505-d5ca96ed18a5" opacity="1.000" fill="none" stroke="#000000" stroke-width="1.360" stroke-opacity="1.000" stroke-linecap="round" stroke-linejoin="round" d="M 35.271 524.707 Q 35.271 524.712 35.271 524.717 Q 35.414 524.744 35.386 524.743 Q 35.426 524.756 35.496 524.807 Q 35.566 524.857 35.568 524.852 Q 35.571 524.847 35.559 524.877 Q 35.547 524.906 36.068 525.416 Q 36.590 525.926 36.920 526.218 Q 37.249 526.510 37.400 526.586 Q 37.550 526.662 37.846 526.875 Q 38.142 527.087 39.297 527.554 Q 40.453 528.021 41.600 528.309 Q 42.746 528.597 43.398 528.704 Q 44.049 528.810 44.982 528.889 Q 45.915 528.968 46.693 528.935 Q 47.470 528.903 48.206 528.708 Q 48.942 528.512 49.406 528.339 Q 49.869 528.165 50.293 527.918 "></path>
    <path id="STROKE_9e0ab290-7855-4a59-8bcd-54734dc1b347" opacity="1.000" fill="none" stroke="#000000" stroke-width="0.642" stroke-opacity="1.000" stroke-linecap="round" stroke-linejoin="round" d="M 36.113 535.426 Q 36.117 535.353 36.090 535.235 Q 36.063 535.116 36.157 534.876 Q 36.250 534.635 36.642 534.324 Q 37.034 534.013 37.493 533.767 Q 37.953 533.521 38.520 533.451 Q 39.088 533.380 39.550 533.418 Q 40.012 533.455 40.279 533.599 Q 40.547 533.742 40.776 533.908 Q 41.005 534.075 41.142 534.652 Q 41.279 535.229 41.155 536.127 Q 41.032 537.024 40.949 537.721 Q 40.866 538.418 40.865 538.900 Q 40.864 539.383 40.959 539.688 Q 41.053 539.992 41.331 540.193 Q 41.608 540.393 42.072 540.481 Q 42.536 540.568 43.099 540.452 Q 43.662 540.336 44.484 539.890 Q 45.307 539.444 46.604 538.416 "></path>
    <path id="STROKE_ac1117fc-f633-4fb0-bdc7-46728df8fc6c" opacity="1.000" fill="none" stroke="#000000" stroke-width="0.430" stroke-opacity="1.000" stroke-linecap="round" stroke-linejoin="round" d="M 37.763 539.471 Q 37.690 539.482 38.099 539.169 Q 38.508 538.857 39.182 538.275 Q 39.856 537.693 40.902 537.013 Q 41.948 536.333 43.234 535.446 Q 44.520 534.560 46.092 533.333 "></path>
  </g>
</svg>