<?xml version="1.0" encoding="utf-8" standalone="no"?>
<!DOCTYPE svg PUBLIC "-//W3C//DTD SVG 1.1//EN"
  "http://www.w3.org/Graphics/SVG/1.1/DTD/svg11.dtd">
<svg xmlns:xlink="http://www.w3.org/1999/xlink" width="425.461335pt" height="153.115422pt" viewBox="0 0 425.461335 153.115422" xmlns="http://www.w3.org/2000/svg" version="1.1">
 <metadata>
  <rdf:RDF xmlns:dc="http://purl.org/dc/elements/1.1/" xmlns:cc="http://creativecommons.org/ns#" xmlns:rdf="http://www.w3.org/1999/02/22-rdf-syntax-ns#">
   <cc:Work>
    <dc:type rdf:resource="http://purl.org/dc/dcmitype/StillImage"/>
    <dc:date>2024-06-01T15:00:46.943746</dc:date>
    <dc:format>image/svg+xml</dc:format>
    <dc:creator>
     <cc:Agent>
      <dc:title>Matplotlib v3.8.4, https://matplotlib.org/</dc:title>
     </cc:Agent>
    </dc:creator>
   </cc:Work>
  </rdf:RDF>
 </metadata>
 <defs>
  <style type="text/css">*{stroke-linejoin: round; stroke-linecap: butt}</style>
 </defs>
 <g id="figure_1">
  <g id="patch_1">
   <path d="M 0 153.115422 
L 425.461335 153.115422 
L 425.461335 0 
L 0 0 
z
" style="fill: #ffffff"/>
  </g>
  <g id="axes_1">
   <g id="patch_2">
    <path d="M 60.118624 117.604578 
L 207.357631 117.604578 
L 207.357631 7.2 
L 60.118624 7.2 
z
" style="fill: #ffffff"/>
   </g>
   <g id="matplotlib.axis_1">
    <g id="xtick_1">
     <g id="line2d_1">
      <path d="M 66.811306 117.604578 
L 66.811306 7.2 
" clip-path="url(#p90be145ead)" style="fill: none; stroke: #d3d3d3; stroke-width: 0.2; stroke-linecap: square"/>
     </g>
     <g id="line2d_2">
      <defs>
       <path id="m23979f67d0" d="M 0 0 
L 0 -3.5 
" style="stroke: #000000; stroke-width: 0.8"/>
      </defs>
      <g>
       <use xlink:href="#m23979f67d0" x="66.811306" y="117.604578" style="stroke: #000000; stroke-width: 0.8"/>
      </g>
     </g>
     <g id="text_1">
      <!-- $\mathdefault{0}$ -->
      <g transform="translate(64.320638 128.023076) scale(0.1 -0.1)">
       <defs>
        <path id="CMR17-30" d="M 2688 2038 
C 2688 2430 2682 3099 2413 3613 
C 2176 4063 1798 4224 1466 4224 
C 1158 4224 768 4082 525 3620 
C 269 3137 243 2539 243 2038 
C 243 1671 250 1112 448 623 
C 723 -39 1216 -128 1466 -128 
C 1760 -128 2208 -7 2470 604 
C 2662 1048 2688 1568 2688 2038 
z
M 1466 -26 
C 1056 -26 813 328 723 816 
C 653 1196 653 1749 653 2109 
C 653 2604 653 3015 736 3407 
C 858 3954 1216 4121 1466 4121 
C 1728 4121 2067 3947 2189 3420 
C 2272 3054 2278 2623 2278 2109 
C 2278 1691 2278 1176 2202 797 
C 2067 96 1690 -26 1466 -26 
z
" transform="scale(0.015625)"/>
       </defs>
       <use xlink:href="#CMR17-30" transform="scale(0.996264)"/>
      </g>
     </g>
    </g>
    <g id="xtick_2">
     <g id="line2d_3">
      <path d="M 120.352763 117.604578 
L 120.352763 7.2 
" clip-path="url(#p90be145ead)" style="fill: none; stroke: #d3d3d3; stroke-width: 0.2; stroke-linecap: square"/>
     </g>
     <g id="line2d_4">
      <g>
       <use xlink:href="#m23979f67d0" x="120.352763" y="117.604578" style="stroke: #000000; stroke-width: 0.8"/>
      </g>
     </g>
     <g id="text_2">
      <!-- $\mathdefault{2}$ -->
      <g transform="translate(117.862095 128.023076) scale(0.1 -0.1)">
       <defs>
        <path id="CMR17-32" d="M 2669 990 
L 2554 990 
C 2490 537 2438 460 2413 422 
C 2381 371 1920 371 1830 371 
L 602 371 
C 832 620 1280 1073 1824 1596 
C 2214 1966 2669 2400 2669 3033 
C 2669 3788 2067 4224 1395 4224 
C 691 4224 262 3603 262 3027 
C 262 2777 448 2745 525 2745 
C 589 2745 781 2783 781 3007 
C 781 3206 614 3264 525 3264 
C 486 3264 448 3257 422 3244 
C 544 3788 915 4057 1306 4057 
C 1862 4057 2227 3616 2227 3033 
C 2227 2477 1901 1998 1536 1583 
L 262 147 
L 262 0 
L 2515 0 
L 2669 990 
z
" transform="scale(0.015625)"/>
       </defs>
       <use xlink:href="#CMR17-32" transform="scale(0.996264)"/>
      </g>
     </g>
    </g>
    <g id="xtick_3">
     <g id="line2d_5">
      <path d="M 173.89422 117.604578 
L 173.89422 7.2 
" clip-path="url(#p90be145ead)" style="fill: none; stroke: #d3d3d3; stroke-width: 0.2; stroke-linecap: square"/>
     </g>
     <g id="line2d_6">
      <g>
       <use xlink:href="#m23979f67d0" x="173.89422" y="117.604578" style="stroke: #000000; stroke-width: 0.8"/>
      </g>
     </g>
     <g id="text_3">
      <!-- $\mathdefault{4}$ -->
      <g transform="translate(171.403553 128.023076) scale(0.1 -0.1)">
       <defs>
        <path id="CMR17-34" d="M 2150 4147 
C 2150 4281 2144 4288 2029 4288 
L 128 1254 
L 128 1088 
L 1779 1088 
L 1779 460 
C 1779 230 1766 166 1318 166 
L 1197 166 
L 1197 0 
C 1402 12 1747 12 1965 12 
C 2182 12 2528 12 2733 0 
L 2733 166 
L 2611 166 
C 2163 166 2150 230 2150 460 
L 2150 1088 
L 2803 1088 
L 2803 1254 
L 2150 1254 
L 2150 4147 
z
M 1798 3723 
L 1798 1254 
L 256 1254 
L 1798 3723 
z
" transform="scale(0.015625)"/>
       </defs>
       <use xlink:href="#CMR17-34" transform="scale(0.996264)"/>
      </g>
     </g>
    </g>
    <g id="text_4">
     <!-- $x$ [m] -->
     <g transform="translate(120.331934 142.92663) scale(0.12 -0.12)">
      <defs>
       <path id="CMMI12-78" d="M 3034 2624 
C 2829 2585 2752 2431 2752 2310 
C 2752 2156 2874 2105 2963 2105 
C 3155 2105 3290 2271 3290 2444 
C 3290 2694 2982 2816 2714 2816 
C 2323 2816 2106 2451 2048 2329 
C 1901 2790 1504 2816 1389 2816 
C 736 2816 390 1993 390 1849 
C 390 1823 416 1790 461 1790 
C 512 1790 525 1829 538 1855 
C 755 2572 1184 2687 1370 2687 
C 1658 2687 1715 2438 1715 2284 
C 1715 2143 1677 1993 1600 1678 
L 1382 778 
C 1286 390 1101 64 762 64 
C 730 64 570 64 435 126 
C 666 166 717 358 717 435 
C 717 563 621 640 499 640 
C 346 640 179 505 179 300 
C 179 57 480 -64 755 -64 
C 1062 -64 1280 153 1414 415 
C 1517 64 1837 -64 2074 -64 
C 2726 -64 3072 751 3072 896 
C 3072 929 3046 955 3008 955 
C 2950 955 2944 922 2925 870 
C 2752 300 2381 64 2093 64 
C 1869 64 1747 204 1747 467 
C 1747 607 1773 712 1875 1146 
L 2099 2039 
C 2195 2425 2413 2687 2707 2687 
C 2720 2687 2899 2687 3034 2624 
z
" transform="scale(0.015625)"/>
       <path id="CMR17-5b" d="M 1504 -1600 
L 1504 -1376 
L 902 -1376 
L 902 4575 
L 1504 4575 
L 1504 4800 
L 678 4800 
L 678 -1600 
L 1504 -1600 
z
" transform="scale(0.015625)"/>
       <path id="CMR17-6d" d="M 4326 1954 
C 4326 2276 4269 2816 3507 2816 
C 3072 2816 2771 2520 2656 2173 
L 2650 2173 
C 2573 2700 2195 2816 1837 2816 
C 1331 2816 1069 2424 973 2166 
L 966 2166 
L 966 2816 
L 211 2745 
L 211 2578 
C 589 2578 646 2540 646 2231 
L 646 443 
C 646 198 621 166 211 166 
L 211 0 
C 365 12 646 12 813 12 
C 979 12 1267 12 1421 0 
L 1421 166 
C 1011 166 986 192 986 443 
L 986 1678 
C 986 2269 1344 2713 1792 2713 
C 2266 2713 2317 2289 2317 1980 
L 2317 443 
C 2317 198 2291 166 1882 166 
L 1882 0 
C 2035 12 2317 12 2483 12 
C 2650 12 2938 12 3091 0 
L 3091 166 
C 2682 166 2656 192 2656 443 
L 2656 1678 
C 2656 2269 3014 2713 3462 2713 
C 3936 2713 3987 2289 3987 1980 
L 3987 443 
C 3987 198 3962 166 3552 166 
L 3552 0 
C 3706 12 3987 12 4154 12 
C 4320 12 4608 12 4762 0 
L 4762 166 
C 4352 166 4326 192 4326 443 
L 4326 1954 
z
" transform="scale(0.015625)"/>
       <path id="CMR17-5d" d="M 915 4800 
L 90 4800 
L 90 4575 
L 691 4575 
L 691 -1376 
L 90 -1376 
L 90 -1600 
L 915 -1600 
L 915 4800 
z
" transform="scale(0.015625)"/>
      </defs>
      <use xlink:href="#CMMI12-78" transform="scale(0.996264)"/>
      <use xlink:href="#CMR17-5b" transform="translate(85.510026 0) scale(0.996264)"/>
      <use xlink:href="#CMR17-6d" transform="translate(110.381084 0) scale(0.996264)"/>
      <use xlink:href="#CMR17-5d" transform="translate(187.300674 0) scale(0.996264)"/>
     </g>
    </g>
   </g>
   <g id="matplotlib.axis_2">
    <g id="ytick_1">
     <g id="line2d_7">
      <path d="M 60.118624 112.586188 
L 207.357631 112.586188 
" clip-path="url(#p90be145ead)" style="fill: none; stroke: #d3d3d3; stroke-width: 0.2; stroke-linecap: square"/>
     </g>
     <g id="line2d_8">
      <defs>
       <path id="mf5881deba8" d="M 0 0 
L 3.5 0 
" style="stroke: #000000; stroke-width: 0.8"/>
      </defs>
      <g>
       <use xlink:href="#mf5881deba8" x="60.118624" y="112.586188" style="stroke: #000000; stroke-width: 0.8"/>
      </g>
     </g>
     <g id="text_5">
      <!-- $\mathdefault{0.00000}$ -->
      <g transform="translate(23.963204 116.045437) scale(0.1 -0.1)">
       <defs>
        <path id="CMMI12-3a" d="M 1178 307 
C 1178 492 1024 620 870 620 
C 685 620 557 467 557 313 
C 557 128 710 0 864 0 
C 1050 0 1178 153 1178 307 
z
" transform="scale(0.015625)"/>
       </defs>
       <use xlink:href="#CMR17-30" transform="scale(0.996264)"/>
       <use xlink:href="#CMMI12-3a" transform="translate(45.690477 0) scale(0.996264)"/>
       <use xlink:href="#CMR17-30" transform="translate(72.787654 0) scale(0.996264)"/>
       <use xlink:href="#CMR17-30" transform="translate(118.478131 0) scale(0.996264)"/>
       <use xlink:href="#CMR17-30" transform="translate(164.168608 0) scale(0.996264)"/>
       <use xlink:href="#CMR17-30" transform="translate(209.859086 0) scale(0.996264)"/>
       <use xlink:href="#CMR17-30" transform="translate(255.549563 0) scale(0.996264)"/>
      </g>
     </g>
    </g>
    <g id="ytick_2">
     <g id="line2d_9">
      <path d="M 60.118624 87.494238 
L 207.357631 87.494238 
" clip-path="url(#p90be145ead)" style="fill: none; stroke: #d3d3d3; stroke-width: 0.2; stroke-linecap: square"/>
     </g>
     <g id="line2d_10">
      <g>
       <use xlink:href="#mf5881deba8" x="60.118624" y="87.494238" style="stroke: #000000; stroke-width: 0.8"/>
      </g>
     </g>
     <g id="text_6">
      <!-- $\mathdefault{0.00025}$ -->
      <g transform="translate(23.963204 90.953487) scale(0.1 -0.1)">
       <defs>
        <path id="CMR17-35" d="M 730 3750 
C 794 3724 1056 3641 1325 3641 
C 1920 3641 2246 3961 2432 4140 
C 2432 4191 2432 4224 2394 4224 
C 2387 4224 2374 4224 2323 4198 
C 2099 4102 1837 4032 1517 4032 
C 1325 4032 1037 4055 723 4191 
C 653 4224 640 4224 634 4224 
C 602 4224 595 4217 595 4090 
L 595 2231 
C 595 2113 595 2080 659 2080 
C 691 2080 704 2093 736 2139 
C 941 2435 1222 2560 1542 2560 
C 1766 2560 2246 2415 2246 1293 
C 2246 1087 2246 716 2054 422 
C 1894 159 1645 25 1370 25 
C 947 25 518 319 403 812 
C 429 806 480 793 506 793 
C 589 793 749 838 749 1036 
C 749 1209 627 1280 506 1280 
C 358 1280 262 1190 262 1011 
C 262 454 704 -128 1382 -128 
C 2042 -128 2669 441 2669 1267 
C 2669 2054 2170 2662 1549 2662 
C 1222 2662 947 2540 730 2304 
L 730 3750 
z
" transform="scale(0.015625)"/>
       </defs>
       <use xlink:href="#CMR17-30" transform="scale(0.996264)"/>
       <use xlink:href="#CMMI12-3a" transform="translate(45.690477 0) scale(0.996264)"/>
       <use xlink:href="#CMR17-30" transform="translate(72.787654 0) scale(0.996264)"/>
       <use xlink:href="#CMR17-30" transform="translate(118.478131 0) scale(0.996264)"/>
       <use xlink:href="#CMR17-30" transform="translate(164.168608 0) scale(0.996264)"/>
       <use xlink:href="#CMR17-32" transform="translate(209.859086 0) scale(0.996264)"/>
       <use xlink:href="#CMR17-35" transform="translate(255.549563 0) scale(0.996264)"/>
      </g>
     </g>
    </g>
    <g id="ytick_3">
     <g id="line2d_11">
      <path d="M 60.118624 62.402289 
L 207.357631 62.402289 
" clip-path="url(#p90be145ead)" style="fill: none; stroke: #d3d3d3; stroke-width: 0.2; stroke-linecap: square"/>
     </g>
     <g id="line2d_12">
      <g>
       <use xlink:href="#mf5881deba8" x="60.118624" y="62.402289" style="stroke: #000000; stroke-width: 0.8"/>
      </g>
     </g>
     <g id="text_7">
      <!-- $\mathdefault{0.00050}$ -->
      <g transform="translate(23.963204 65.861538) scale(0.1 -0.1)">
       <use xlink:href="#CMR17-30" transform="scale(0.996264)"/>
       <use xlink:href="#CMMI12-3a" transform="translate(45.690477 0) scale(0.996264)"/>
       <use xlink:href="#CMR17-30" transform="translate(72.787654 0) scale(0.996264)"/>
       <use xlink:href="#CMR17-30" transform="translate(118.478131 0) scale(0.996264)"/>
       <use xlink:href="#CMR17-30" transform="translate(164.168608 0) scale(0.996264)"/>
       <use xlink:href="#CMR17-35" transform="translate(209.859086 0) scale(0.996264)"/>
       <use xlink:href="#CMR17-30" transform="translate(255.549563 0) scale(0.996264)"/>
      </g>
     </g>
    </g>
    <g id="ytick_4">
     <g id="line2d_13">
      <path d="M 60.118624 37.310339 
L 207.357631 37.310339 
" clip-path="url(#p90be145ead)" style="fill: none; stroke: #d3d3d3; stroke-width: 0.2; stroke-linecap: square"/>
     </g>
     <g id="line2d_14">
      <g>
       <use xlink:href="#mf5881deba8" x="60.118624" y="37.310339" style="stroke: #000000; stroke-width: 0.8"/>
      </g>
     </g>
     <g id="text_8">
      <!-- $\mathdefault{0.00075}$ -->
      <g transform="translate(23.963204 40.769589) scale(0.1 -0.1)">
       <defs>
        <path id="CMR17-37" d="M 2886 3955 
L 2886 4096 
L 1382 4096 
C 634 4096 621 4166 595 4288 
L 480 4288 
L 294 3104 
L 410 3104 
C 429 3226 474 3552 550 3673 
C 589 3724 1062 3724 1171 3724 
L 2579 3724 
L 1869 2670 
C 1395 1961 1069 1003 1069 166 
C 1069 89 1069 -128 1299 -128 
C 1530 -128 1530 89 1530 172 
L 1530 466 
C 1530 1514 1709 2204 2003 2644 
L 2886 3955 
z
" transform="scale(0.015625)"/>
       </defs>
       <use xlink:href="#CMR17-30" transform="scale(0.996264)"/>
       <use xlink:href="#CMMI12-3a" transform="translate(45.690477 0) scale(0.996264)"/>
       <use xlink:href="#CMR17-30" transform="translate(72.787654 0) scale(0.996264)"/>
       <use xlink:href="#CMR17-30" transform="translate(118.478131 0) scale(0.996264)"/>
       <use xlink:href="#CMR17-30" transform="translate(164.168608 0) scale(0.996264)"/>
       <use xlink:href="#CMR17-37" transform="translate(209.859086 0) scale(0.996264)"/>
       <use xlink:href="#CMR17-35" transform="translate(255.549563 0) scale(0.996264)"/>
      </g>
     </g>
    </g>
    <g id="ytick_5">
     <g id="line2d_15">
      <path d="M 60.118624 12.21839 
L 207.357631 12.21839 
" clip-path="url(#p90be145ead)" style="fill: none; stroke: #d3d3d3; stroke-width: 0.2; stroke-linecap: square"/>
     </g>
     <g id="line2d_16">
      <g>
       <use xlink:href="#mf5881deba8" x="60.118624" y="12.21839" style="stroke: #000000; stroke-width: 0.8"/>
      </g>
     </g>
     <g id="text_9">
      <!-- $\mathdefault{0.00100}$ -->
      <g transform="translate(23.963204 15.677639) scale(0.1 -0.1)">
       <defs>
        <path id="CMR17-31" d="M 1702 4083 
C 1702 4217 1696 4224 1606 4224 
C 1357 3927 979 3833 621 3820 
C 602 3820 570 3820 563 3808 
C 557 3795 557 3782 557 3648 
C 755 3648 1088 3686 1344 3839 
L 1344 467 
C 1344 243 1331 166 781 166 
L 589 166 
L 589 0 
C 896 6 1216 12 1523 12 
C 1830 12 2150 6 2458 0 
L 2458 166 
L 2266 166 
C 1715 166 1702 236 1702 467 
L 1702 4083 
z
" transform="scale(0.015625)"/>
       </defs>
       <use xlink:href="#CMR17-30" transform="scale(0.996264)"/>
       <use xlink:href="#CMMI12-3a" transform="translate(45.690477 0) scale(0.996264)"/>
       <use xlink:href="#CMR17-30" transform="translate(72.787654 0) scale(0.996264)"/>
       <use xlink:href="#CMR17-30" transform="translate(118.478131 0) scale(0.996264)"/>
       <use xlink:href="#CMR17-31" transform="translate(164.168608 0) scale(0.996264)"/>
       <use xlink:href="#CMR17-30" transform="translate(209.859086 0) scale(0.996264)"/>
       <use xlink:href="#CMR17-30" transform="translate(255.549563 0) scale(0.996264)"/>
      </g>
     </g>
    </g>
    <g id="text_10">
     <!-- $\bar{V}$ [-] -->
     <g transform="translate(16.974412 74.268777) rotate(-90) scale(0.12 -0.12)">
      <defs>
       <path id="CMR17-16" d="M 2554 3520 
L 2554 3667 
L 378 3667 
L 378 3520 
L 2554 3520 
z
" transform="scale(0.015625)"/>
       <path id="CMMI12-56" d="M 3962 3644 
C 4179 3987 4378 4140 4704 4166 
C 4768 4172 4819 4172 4819 4287 
C 4819 4313 4806 4352 4749 4352 
C 4634 4352 4358 4339 4243 4339 
C 4058 4339 3866 4352 3686 4352 
C 3635 4352 3571 4352 3571 4230 
C 3571 4172 3629 4166 3654 4166 
C 3891 4146 3917 4032 3917 3956 
C 3917 3860 3827 3714 3821 3708 
L 1811 540 
L 1363 3968 
C 1363 4153 1696 4166 1766 4166 
C 1862 4166 1920 4166 1920 4287 
C 1920 4352 1850 4352 1830 4352 
C 1722 4352 1594 4339 1485 4339 
L 1126 4339 
C 659 4339 467 4352 461 4352 
C 422 4352 346 4352 346 4236 
C 346 4166 390 4166 493 4166 
C 819 4166 838 4108 858 3949 
L 1370 25 
C 1389 -109 1389 -128 1478 -128 
C 1555 -128 1587 -109 1651 -7 
L 3962 3644 
z
" transform="scale(0.015625)"/>
       <path id="CMR17-2d" d="M 1632 1254 
L 1632 1536 
L 26 1536 
L 26 1254 
L 1632 1254 
z
" transform="scale(0.015625)"/>
      </defs>
      <use xlink:href="#CMR17-16" transform="translate(16.428429 25.189733) scale(0.996264)"/>
      <use xlink:href="#CMMI12-56" transform="scale(0.996264)"/>
      <use xlink:href="#CMR17-5b" transform="translate(108.623287 0) scale(0.996264)"/>
      <use xlink:href="#CMR17-2d" transform="translate(133.494346 0) scale(0.996264)"/>
      <use xlink:href="#CMR17-5d" transform="translate(163.570312 0) scale(0.996264)"/>
     </g>
    </g>
   </g>
   <g id="PolyCollection_1">
    <defs>
     <path id="mafd86cb820" d="M 66.811306 -40.529235 
L 66.811306 -140.897033 
L 67.07955 -140.897033 
L 67.347793 -140.897033 
L 67.616037 -140.897033 
L 67.884281 -140.897033 
L 68.152525 -140.897033 
L 68.420768 -140.897033 
L 68.689012 -140.897033 
L 68.957256 -140.897033 
L 69.2255 -140.897033 
L 69.493744 -140.897033 
L 69.761987 -140.897033 
L 70.030231 -140.897033 
L 70.298475 -140.897033 
L 70.566719 -140.897033 
L 70.834962 -140.897033 
L 71.103206 -140.897033 
L 71.37145 -140.897033 
L 71.639694 -140.897033 
L 71.907937 -140.897033 
L 72.176181 -140.897033 
L 72.444425 -140.897033 
L 72.712669 -140.897033 
L 72.980913 -140.897033 
L 73.249156 -140.897033 
L 73.5174 -140.897033 
L 73.785644 -140.897033 
L 74.053888 -140.897033 
L 74.322131 -140.897033 
L 74.590375 -140.897033 
L 74.858619 -140.897033 
L 75.126863 -140.897033 
L 75.395107 -140.897033 
L 75.66335 -140.897033 
L 75.931594 -140.897033 
L 76.199838 -140.897033 
L 76.468082 -140.897033 
L 76.736325 -140.897033 
L 77.004569 -140.897033 
L 77.272813 -140.897033 
L 77.541057 -140.897033 
L 77.809301 -140.897033 
L 78.077544 -140.897033 
L 78.345788 -140.897033 
L 78.614032 -140.897033 
L 78.882276 -140.897033 
L 79.150519 -140.897033 
L 79.418763 -140.897033 
L 79.687007 -140.897033 
L 79.955251 -140.897033 
L 80.223494 -140.897033 
L 80.491738 -140.897033 
L 80.759982 -140.897033 
L 81.028226 -140.897033 
L 81.29647 -140.897033 
L 81.564713 -140.897033 
L 81.832957 -140.897033 
L 82.101201 -140.897033 
L 82.369445 -140.897033 
L 82.637688 -140.897033 
L 82.905932 -140.897033 
L 83.174176 -140.897033 
L 83.44242 -140.897033 
L 83.710664 -140.897033 
L 83.978907 -140.897033 
L 84.247151 -140.897033 
L 84.515395 -140.897033 
L 84.783639 -140.897033 
L 85.051882 -140.897033 
L 85.320126 -140.897033 
L 85.58837 -140.897033 
L 85.856614 -140.897033 
L 86.124858 -140.897033 
L 86.393101 -140.897033 
L 86.661345 -140.897033 
L 86.929589 -140.897033 
L 87.197833 -140.897033 
L 87.466076 -140.897033 
L 87.73432 -140.897033 
L 88.002564 -140.897033 
L 88.270808 -140.897033 
L 88.539051 -140.897033 
L 88.807295 -140.897033 
L 89.075539 -140.897033 
L 89.343783 -140.897033 
L 89.612027 -140.897033 
L 89.88027 -140.897033 
L 90.148514 -140.897033 
L 90.416758 -140.897033 
L 90.685002 -140.897033 
L 90.953245 -140.897033 
L 91.221489 -140.897033 
L 91.489733 -140.897033 
L 91.757977 -140.897033 
L 92.026221 -140.897033 
L 92.294464 -140.897033 
L 92.562708 -140.897033 
L 92.830952 -140.897033 
L 93.099196 -140.897033 
L 93.367439 -140.897033 
L 93.635683 -140.897033 
L 93.903927 -140.897033 
L 94.172171 -140.897033 
L 94.440414 -140.897033 
L 94.708658 -140.897033 
L 94.976902 -140.897033 
L 95.245146 -140.897033 
L 95.51339 -140.897033 
L 95.781633 -140.897033 
L 96.049877 -140.897033 
L 96.318121 -140.897033 
L 96.586365 -140.897033 
L 96.854608 -140.897033 
L 97.122852 -140.897033 
L 97.391096 -140.897033 
L 97.65934 -140.897033 
L 97.927584 -140.897033 
L 98.195827 -140.897033 
L 98.464071 -140.897033 
L 98.732315 -140.897033 
L 99.000559 -140.897033 
L 99.268802 -140.897033 
L 99.537046 -140.897033 
L 99.80529 -140.897033 
L 100.073534 -140.897033 
L 100.341778 -140.897033 
L 100.610021 -140.897033 
L 100.878265 -140.897033 
L 101.146509 -140.897033 
L 101.414753 -140.897033 
L 101.682996 -140.897033 
L 101.95124 -140.897033 
L 102.219484 -140.897033 
L 102.487728 -140.897033 
L 102.755971 -140.897033 
L 103.024215 -140.897033 
L 103.292459 -140.897033 
L 103.560703 -140.897033 
L 103.828947 -140.897033 
L 104.09719 -140.897033 
L 104.365434 -140.897033 
L 104.633678 -140.897033 
L 104.901922 -140.897033 
L 105.170165 -140.897033 
L 105.438409 -140.897033 
L 105.706653 -140.897033 
L 105.974897 -140.897033 
L 106.243141 -140.897033 
L 106.511384 -140.897033 
L 106.779628 -140.897033 
L 107.047872 -140.897033 
L 107.316116 -140.897033 
L 107.584359 -140.897033 
L 107.852603 -140.897033 
L 108.120847 -140.897033 
L 108.389091 -140.897033 
L 108.657334 -140.897033 
L 108.925578 -140.897033 
L 109.193822 -140.897033 
L 109.462066 -140.897033 
L 109.73031 -140.897033 
L 109.998553 -140.897033 
L 110.266797 -140.897033 
L 110.535041 -140.897033 
L 110.803285 -140.897033 
L 111.071528 -140.897033 
L 111.339772 -140.897033 
L 111.608016 -140.897033 
L 111.87626 -140.897033 
L 112.144504 -140.897033 
L 112.412747 -140.897033 
L 112.680991 -140.897033 
L 112.949235 -140.897033 
L 113.217479 -140.897033 
L 113.485722 -140.897033 
L 113.753966 -140.897033 
L 114.02221 -140.897033 
L 114.290454 -140.897033 
L 114.558698 -140.897033 
L 114.826941 -140.897033 
L 115.095185 -140.897033 
L 115.363429 -140.897033 
L 115.631673 -140.897033 
L 115.899916 -140.897033 
L 116.16816 -140.897033 
L 116.436404 -140.897033 
L 116.704648 -140.897033 
L 116.972891 -140.897033 
L 117.241135 -140.897033 
L 117.509379 -140.897033 
L 117.777623 -140.897033 
L 118.045867 -140.897033 
L 118.31411 -140.897033 
L 118.582354 -140.897033 
L 118.850598 -140.897033 
L 119.118842 -140.897033 
L 119.387085 -140.897033 
L 119.655329 -140.897033 
L 119.923573 -140.897033 
L 120.191817 -140.897033 
L 120.460061 -140.897033 
L 120.728304 -140.897033 
L 120.996548 -140.897033 
L 121.264792 -140.897033 
L 121.533036 -140.897033 
L 121.801279 -140.897033 
L 122.069523 -140.897033 
L 122.337767 -140.897033 
L 122.606011 -140.897033 
L 122.874254 -140.897033 
L 123.142498 -140.897033 
L 123.410742 -140.897033 
L 123.678986 -140.897033 
L 123.94723 -140.897033 
L 124.215473 -140.897033 
L 124.483717 -140.897033 
L 124.751961 -140.897033 
L 125.020205 -140.897033 
L 125.288448 -140.897033 
L 125.556692 -140.897033 
L 125.824936 -140.897033 
L 126.09318 -140.897033 
L 126.361424 -140.897033 
L 126.629667 -140.897033 
L 126.897911 -140.897033 
L 127.166155 -140.897033 
L 127.434399 -140.897033 
L 127.702642 -140.897033 
L 127.970886 -140.897033 
L 128.23913 -140.897033 
L 128.507374 -140.897033 
L 128.775618 -140.897033 
L 129.043861 -140.897033 
L 129.312105 -140.897033 
L 129.580349 -140.897033 
L 129.848593 -140.897033 
L 130.116836 -140.897033 
L 130.38508 -140.897033 
L 130.653324 -140.897033 
L 130.921568 -140.897033 
L 131.189811 -140.897033 
L 131.458055 -140.897033 
L 131.726299 -140.897033 
L 131.994543 -140.897033 
L 132.262787 -140.897033 
L 132.53103 -140.897033 
L 132.799274 -140.897033 
L 133.067518 -140.897033 
L 133.335762 -140.897033 
L 133.604005 -140.897033 
L 133.872249 -140.897033 
L 134.140493 -140.897033 
L 134.408737 -140.897033 
L 134.676981 -140.897033 
L 134.945224 -140.897033 
L 135.213468 -140.897033 
L 135.481712 -140.897033 
L 135.749956 -140.897033 
L 136.018199 -140.897033 
L 136.286443 -140.897033 
L 136.554687 -140.897033 
L 136.822931 -140.897033 
L 137.091174 -140.897033 
L 137.359418 -140.897033 
L 137.627662 -140.897033 
L 137.895906 -140.897033 
L 138.16415 -140.897033 
L 138.432393 -140.897033 
L 138.700637 -140.897033 
L 138.968881 -140.897033 
L 139.237125 -140.897033 
L 139.505368 -140.897033 
L 139.773612 -140.897033 
L 140.041856 -140.897033 
L 140.3101 -140.897033 
L 140.578344 -140.897033 
L 140.846587 -140.897033 
L 141.114831 -140.897033 
L 141.383075 -140.897033 
L 141.651319 -140.897033 
L 141.919562 -140.897033 
L 142.187806 -140.897033 
L 142.45605 -140.897033 
L 142.724294 -140.897033 
L 142.992538 -140.897033 
L 143.260781 -140.897033 
L 143.529025 -140.897033 
L 143.797269 -140.897033 
L 144.065513 -140.897033 
L 144.333756 -140.897033 
L 144.602 -140.897033 
L 144.870244 -140.897033 
L 145.138488 -140.897033 
L 145.406731 -140.897033 
L 145.674975 -140.897033 
L 145.943219 -140.897033 
L 146.211463 -140.897033 
L 146.479707 -140.897033 
L 146.74795 -140.897033 
L 147.016194 -140.897033 
L 147.284438 -140.897033 
L 147.552682 -140.897033 
L 147.820925 -140.897033 
L 148.089169 -140.897033 
L 148.357413 -140.897033 
L 148.625657 -140.897033 
L 148.893901 -140.897033 
L 149.162144 -140.897033 
L 149.430388 -140.897033 
L 149.698632 -140.897033 
L 149.966876 -140.897033 
L 150.235119 -140.897033 
L 150.503363 -140.897033 
L 150.771607 -140.897033 
L 151.039851 -140.897033 
L 151.308095 -140.897033 
L 151.576338 -140.897033 
L 151.844582 -140.897033 
L 152.112826 -140.897033 
L 152.38107 -140.897033 
L 152.649313 -140.897033 
L 152.917557 -140.897033 
L 153.185801 -140.897033 
L 153.454045 -140.897033 
L 153.722288 -140.897033 
L 153.990532 -140.897033 
L 154.258776 -140.897033 
L 154.52702 -140.897033 
L 154.795264 -140.897033 
L 155.063507 -140.897033 
L 155.331751 -140.897033 
L 155.599995 -140.897033 
L 155.868239 -140.897033 
L 156.136482 -140.897033 
L 156.404726 -140.897033 
L 156.67297 -140.897033 
L 156.941214 -140.897033 
L 157.209458 -140.897033 
L 157.477701 -140.897033 
L 157.745945 -140.897033 
L 158.014189 -140.897033 
L 158.282433 -140.897033 
L 158.550676 -140.897033 
L 158.81892 -140.897033 
L 159.087164 -140.897033 
L 159.355408 -140.897033 
L 159.623651 -140.897033 
L 159.891895 -140.897033 
L 160.160139 -140.897033 
L 160.428383 -140.897033 
L 160.696627 -140.897033 
L 160.96487 -140.897033 
L 161.233114 -140.897033 
L 161.501358 -140.897033 
L 161.769602 -140.897033 
L 162.037845 -140.897033 
L 162.306089 -140.897033 
L 162.574333 -140.897033 
L 162.842577 -140.897033 
L 163.110821 -140.897033 
L 163.379064 -140.897033 
L 163.647308 -140.897033 
L 163.915552 -140.897033 
L 164.183796 -140.897033 
L 164.452039 -140.897033 
L 164.720283 -140.897033 
L 164.988527 -140.897033 
L 165.256771 -140.897033 
L 165.525015 -140.897033 
L 165.793258 -140.897033 
L 166.061502 -140.897033 
L 166.329746 -140.897033 
L 166.59799 -140.897033 
L 166.866233 -140.897033 
L 167.134477 -140.897033 
L 167.402721 -140.897033 
L 167.670965 -140.897033 
L 167.939208 -140.897033 
L 168.207452 -140.897033 
L 168.475696 -140.897033 
L 168.74394 -140.897033 
L 169.012184 -140.897033 
L 169.280427 -140.897033 
L 169.548671 -140.897033 
L 169.816915 -140.897033 
L 170.085159 -140.897033 
L 170.353402 -140.897033 
L 170.621646 -140.897033 
L 170.88989 -140.897033 
L 171.158134 -140.897033 
L 171.426378 -140.897033 
L 171.694621 -140.897033 
L 171.962865 -140.897033 
L 172.231109 -140.897033 
L 172.499353 -140.897033 
L 172.767596 -140.897033 
L 173.03584 -140.897033 
L 173.304084 -140.897033 
L 173.572328 -140.897033 
L 173.840571 -140.897033 
L 174.108815 -140.897033 
L 174.377059 -140.897033 
L 174.645303 -140.897033 
L 174.913547 -140.897033 
L 175.18179 -140.897033 
L 175.450034 -140.897033 
L 175.718278 -140.897033 
L 175.986522 -140.897033 
L 176.254765 -140.897033 
L 176.523009 -140.897033 
L 176.791253 -140.897033 
L 177.059497 -140.897033 
L 177.327741 -140.897033 
L 177.595984 -140.897033 
L 177.864228 -140.897033 
L 178.132472 -140.897033 
L 178.400716 -140.897033 
L 178.668959 -140.897033 
L 178.937203 -140.897033 
L 179.205447 -140.897033 
L 179.473691 -140.897033 
L 179.741935 -140.897033 
L 180.010178 -140.897033 
L 180.278422 -140.897033 
L 180.546666 -140.897033 
L 180.81491 -140.897033 
L 181.083153 -140.897033 
L 181.351397 -140.897033 
L 181.619641 -140.897033 
L 181.887885 -140.897033 
L 182.156128 -140.897033 
L 182.424372 -140.897033 
L 182.692616 -140.897033 
L 182.96086 -140.897033 
L 183.229104 -140.897033 
L 183.497347 -140.897033 
L 183.765591 -140.897033 
L 184.033835 -140.897033 
L 184.302079 -140.897033 
L 184.570322 -140.897033 
L 184.838566 -140.897033 
L 185.10681 -140.897033 
L 185.375054 -140.897033 
L 185.643298 -140.897033 
L 185.911541 -140.897033 
L 186.179785 -140.897033 
L 186.448029 -140.897033 
L 186.716273 -140.897033 
L 186.984516 -140.897033 
L 187.25276 -140.897033 
L 187.521004 -140.897033 
L 187.789248 -140.897033 
L 188.057491 -140.897033 
L 188.325735 -140.897033 
L 188.593979 -140.897033 
L 188.862223 -140.897033 
L 189.130467 -140.897033 
L 189.39871 -140.897033 
L 189.666954 -140.897033 
L 189.935198 -140.897033 
L 190.203442 -140.897033 
L 190.471685 -140.897033 
L 190.739929 -140.897033 
L 191.008173 -140.897033 
L 191.276417 -140.897033 
L 191.544661 -140.897033 
L 191.812904 -140.897033 
L 192.081148 -140.897033 
L 192.349392 -140.897033 
L 192.617636 -140.897033 
L 192.885879 -140.897033 
L 193.154123 -140.897033 
L 193.422367 -140.897033 
L 193.690611 -140.897033 
L 193.958855 -140.897033 
L 194.227098 -140.897033 
L 194.495342 -140.897033 
L 194.763586 -140.897033 
L 195.03183 -140.897033 
L 195.300073 -140.897033 
L 195.568317 -140.897033 
L 195.836561 -140.897033 
L 196.104805 -140.897033 
L 196.373048 -140.897033 
L 196.641292 -140.897033 
L 196.909536 -140.897033 
L 197.17778 -140.897033 
L 197.446024 -140.897033 
L 197.714267 -140.897033 
L 197.982511 -140.897033 
L 198.250755 -140.897033 
L 198.518999 -140.897033 
L 198.787242 -140.897033 
L 199.055486 -140.897033 
L 199.32373 -140.897033 
L 199.591974 -140.897033 
L 199.860218 -140.897033 
L 200.128461 -140.897033 
L 200.396705 -140.897033 
L 200.664949 -140.897033 
L 200.664949 -40.529235 
L 200.664949 -40.529235 
L 200.396705 -40.529235 
L 200.128461 -40.529235 
L 199.860218 -40.529235 
L 199.591974 -40.529235 
L 199.32373 -40.529235 
L 199.055486 -40.529235 
L 198.787242 -40.529235 
L 198.518999 -40.529235 
L 198.250755 -40.529235 
L 197.982511 -40.529235 
L 197.714267 -40.529235 
L 197.446024 -40.529235 
L 197.17778 -40.529235 
L 196.909536 -40.529235 
L 196.641292 -40.529235 
L 196.373048 -40.529235 
L 196.104805 -40.529235 
L 195.836561 -40.529235 
L 195.568317 -40.529235 
L 195.300073 -40.529235 
L 195.03183 -40.529235 
L 194.763586 -40.529235 
L 194.495342 -40.529235 
L 194.227098 -40.529235 
L 193.958855 -40.529235 
L 193.690611 -40.529235 
L 193.422367 -40.529235 
L 193.154123 -40.529235 
L 192.885879 -40.529235 
L 192.617636 -40.529235 
L 192.349392 -40.529235 
L 192.081148 -40.529235 
L 191.812904 -40.529235 
L 191.544661 -40.529235 
L 191.276417 -40.529235 
L 191.008173 -40.529235 
L 190.739929 -40.529235 
L 190.471685 -40.529235 
L 190.203442 -40.529235 
L 189.935198 -40.529235 
L 189.666954 -40.529235 
L 189.39871 -40.529235 
L 189.130467 -40.529235 
L 188.862223 -40.529235 
L 188.593979 -40.529235 
L 188.325735 -40.529235 
L 188.057491 -40.529235 
L 187.789248 -40.529235 
L 187.521004 -40.529235 
L 187.25276 -40.529235 
L 186.984516 -40.529235 
L 186.716273 -40.529235 
L 186.448029 -40.529235 
L 186.179785 -40.529235 
L 185.911541 -40.529235 
L 185.643298 -40.529235 
L 185.375054 -40.529235 
L 185.10681 -40.529235 
L 184.838566 -40.529235 
L 184.570322 -40.529235 
L 184.302079 -40.529235 
L 184.033835 -40.529235 
L 183.765591 -40.529235 
L 183.497347 -40.529235 
L 183.229104 -40.529235 
L 182.96086 -40.529235 
L 182.692616 -40.529235 
L 182.424372 -40.529235 
L 182.156128 -40.529235 
L 181.887885 -40.529235 
L 181.619641 -40.529235 
L 181.351397 -40.529235 
L 181.083153 -40.529235 
L 180.81491 -40.529235 
L 180.546666 -40.529235 
L 180.278422 -40.529235 
L 180.010178 -40.529235 
L 179.741935 -40.529235 
L 179.473691 -40.529235 
L 179.205447 -40.529235 
L 178.937203 -40.529235 
L 178.668959 -40.529235 
L 178.400716 -40.529235 
L 178.132472 -40.529235 
L 177.864228 -40.529235 
L 177.595984 -40.529235 
L 177.327741 -40.529235 
L 177.059497 -40.529235 
L 176.791253 -40.529235 
L 176.523009 -40.529235 
L 176.254765 -40.529235 
L 175.986522 -40.529235 
L 175.718278 -40.529235 
L 175.450034 -40.529235 
L 175.18179 -40.529235 
L 174.913547 -40.529235 
L 174.645303 -40.529235 
L 174.377059 -40.529235 
L 174.108815 -40.529235 
L 173.840571 -40.529235 
L 173.572328 -40.529235 
L 173.304084 -40.529235 
L 173.03584 -40.529235 
L 172.767596 -40.529235 
L 172.499353 -40.529235 
L 172.231109 -40.529235 
L 171.962865 -40.529235 
L 171.694621 -40.529235 
L 171.426378 -40.529235 
L 171.158134 -40.529235 
L 170.88989 -40.529235 
L 170.621646 -40.529235 
L 170.353402 -40.529235 
L 170.085159 -40.529235 
L 169.816915 -40.529235 
L 169.548671 -40.529235 
L 169.280427 -40.529235 
L 169.012184 -40.529235 
L 168.74394 -40.529235 
L 168.475696 -40.529235 
L 168.207452 -40.529235 
L 167.939208 -40.529235 
L 167.670965 -40.529235 
L 167.402721 -40.529235 
L 167.134477 -40.529235 
L 166.866233 -40.529235 
L 166.59799 -40.529235 
L 166.329746 -40.529235 
L 166.061502 -40.529235 
L 165.793258 -40.529235 
L 165.525015 -40.529235 
L 165.256771 -40.529235 
L 164.988527 -40.529235 
L 164.720283 -40.529235 
L 164.452039 -40.529235 
L 164.183796 -40.529235 
L 163.915552 -40.529235 
L 163.647308 -40.529235 
L 163.379064 -40.529235 
L 163.110821 -40.529235 
L 162.842577 -40.529235 
L 162.574333 -40.529235 
L 162.306089 -40.529235 
L 162.037845 -40.529235 
L 161.769602 -40.529235 
L 161.501358 -40.529235 
L 161.233114 -40.529235 
L 160.96487 -40.529235 
L 160.696627 -40.529235 
L 160.428383 -40.529235 
L 160.160139 -40.529235 
L 159.891895 -40.529235 
L 159.623651 -40.529235 
L 159.355408 -40.529235 
L 159.087164 -40.529235 
L 158.81892 -40.529235 
L 158.550676 -40.529235 
L 158.282433 -40.529235 
L 158.014189 -40.529235 
L 157.745945 -40.529235 
L 157.477701 -40.529235 
L 157.209458 -40.529235 
L 156.941214 -40.529235 
L 156.67297 -40.529235 
L 156.404726 -40.529235 
L 156.136482 -40.529235 
L 155.868239 -40.529235 
L 155.599995 -40.529235 
L 155.331751 -40.529235 
L 155.063507 -40.529235 
L 154.795264 -40.529235 
L 154.52702 -40.529235 
L 154.258776 -40.529235 
L 153.990532 -40.529235 
L 153.722288 -40.529235 
L 153.454045 -40.529235 
L 153.185801 -40.529235 
L 152.917557 -40.529235 
L 152.649313 -40.529235 
L 152.38107 -40.529235 
L 152.112826 -40.529235 
L 151.844582 -40.529235 
L 151.576338 -40.529235 
L 151.308095 -40.529235 
L 151.039851 -40.529235 
L 150.771607 -40.529235 
L 150.503363 -40.529235 
L 150.235119 -40.529235 
L 149.966876 -40.529235 
L 149.698632 -40.529235 
L 149.430388 -40.529235 
L 149.162144 -40.529235 
L 148.893901 -40.529235 
L 148.625657 -40.529235 
L 148.357413 -40.529235 
L 148.089169 -40.529235 
L 147.820925 -40.529235 
L 147.552682 -40.529235 
L 147.284438 -40.529235 
L 147.016194 -40.529235 
L 146.74795 -40.529235 
L 146.479707 -40.529235 
L 146.211463 -40.529235 
L 145.943219 -40.529235 
L 145.674975 -40.529235 
L 145.406731 -40.529235 
L 145.138488 -40.529235 
L 144.870244 -40.529235 
L 144.602 -40.529235 
L 144.333756 -40.529235 
L 144.065513 -40.529235 
L 143.797269 -40.529235 
L 143.529025 -40.529235 
L 143.260781 -40.529235 
L 142.992538 -40.529235 
L 142.724294 -40.529235 
L 142.45605 -40.529235 
L 142.187806 -40.529235 
L 141.919562 -40.529235 
L 141.651319 -40.529235 
L 141.383075 -40.529235 
L 141.114831 -40.529235 
L 140.846587 -40.529235 
L 140.578344 -40.529235 
L 140.3101 -40.529235 
L 140.041856 -40.529235 
L 139.773612 -40.529235 
L 139.505368 -40.529235 
L 139.237125 -40.529235 
L 138.968881 -40.529235 
L 138.700637 -40.529235 
L 138.432393 -40.529235 
L 138.16415 -40.529235 
L 137.895906 -40.529235 
L 137.627662 -40.529235 
L 137.359418 -40.529235 
L 137.091174 -40.529235 
L 136.822931 -40.529235 
L 136.554687 -40.529235 
L 136.286443 -40.529235 
L 136.018199 -40.529235 
L 135.749956 -40.529235 
L 135.481712 -40.529235 
L 135.213468 -40.529235 
L 134.945224 -40.529235 
L 134.676981 -40.529235 
L 134.408737 -40.529235 
L 134.140493 -40.529235 
L 133.872249 -40.529235 
L 133.604005 -40.529235 
L 133.335762 -40.529235 
L 133.067518 -40.529235 
L 132.799274 -40.529235 
L 132.53103 -40.529235 
L 132.262787 -40.529235 
L 131.994543 -40.529235 
L 131.726299 -40.529235 
L 131.458055 -40.529235 
L 131.189811 -40.529235 
L 130.921568 -40.529235 
L 130.653324 -40.529235 
L 130.38508 -40.529235 
L 130.116836 -40.529235 
L 129.848593 -40.529235 
L 129.580349 -40.529235 
L 129.312105 -40.529235 
L 129.043861 -40.529235 
L 128.775618 -40.529235 
L 128.507374 -40.529235 
L 128.23913 -40.529235 
L 127.970886 -40.529235 
L 127.702642 -40.529235 
L 127.434399 -40.529235 
L 127.166155 -40.529235 
L 126.897911 -40.529235 
L 126.629667 -40.529235 
L 126.361424 -40.529235 
L 126.09318 -40.529235 
L 125.824936 -40.529235 
L 125.556692 -40.529235 
L 125.288448 -40.529235 
L 125.020205 -40.529235 
L 124.751961 -40.529235 
L 124.483717 -40.529235 
L 124.215473 -40.529235 
L 123.94723 -40.529235 
L 123.678986 -40.529235 
L 123.410742 -40.529235 
L 123.142498 -40.529235 
L 122.874254 -40.529235 
L 122.606011 -40.529235 
L 122.337767 -40.529235 
L 122.069523 -40.529235 
L 121.801279 -40.529235 
L 121.533036 -40.529235 
L 121.264792 -40.529235 
L 120.996548 -40.529235 
L 120.728304 -40.529235 
L 120.460061 -40.529235 
L 120.191817 -40.529235 
L 119.923573 -40.529235 
L 119.655329 -40.529235 
L 119.387085 -40.529235 
L 119.118842 -40.529235 
L 118.850598 -40.529235 
L 118.582354 -40.529235 
L 118.31411 -40.529235 
L 118.045867 -40.529235 
L 117.777623 -40.529235 
L 117.509379 -40.529235 
L 117.241135 -40.529235 
L 116.972891 -40.529235 
L 116.704648 -40.529235 
L 116.436404 -40.529235 
L 116.16816 -40.529235 
L 115.899916 -40.529235 
L 115.631673 -40.529235 
L 115.363429 -40.529235 
L 115.095185 -40.529235 
L 114.826941 -40.529235 
L 114.558698 -40.529235 
L 114.290454 -40.529235 
L 114.02221 -40.529235 
L 113.753966 -40.529235 
L 113.485722 -40.529235 
L 113.217479 -40.529235 
L 112.949235 -40.529235 
L 112.680991 -40.529235 
L 112.412747 -40.529235 
L 112.144504 -40.529235 
L 111.87626 -40.529235 
L 111.608016 -40.529235 
L 111.339772 -40.529235 
L 111.071528 -40.529235 
L 110.803285 -40.529235 
L 110.535041 -40.529235 
L 110.266797 -40.529235 
L 109.998553 -40.529235 
L 109.73031 -40.529235 
L 109.462066 -40.529235 
L 109.193822 -40.529235 
L 108.925578 -40.529235 
L 108.657334 -40.529235 
L 108.389091 -40.529235 
L 108.120847 -40.529235 
L 107.852603 -40.529235 
L 107.584359 -40.529235 
L 107.316116 -40.529235 
L 107.047872 -40.529235 
L 106.779628 -40.529235 
L 106.511384 -40.529235 
L 106.243141 -40.529235 
L 105.974897 -40.529235 
L 105.706653 -40.529235 
L 105.438409 -40.529235 
L 105.170165 -40.529235 
L 104.901922 -40.529235 
L 104.633678 -40.529235 
L 104.365434 -40.529235 
L 104.09719 -40.529235 
L 103.828947 -40.529235 
L 103.560703 -40.529235 
L 103.292459 -40.529235 
L 103.024215 -40.529235 
L 102.755971 -40.529235 
L 102.487728 -40.529235 
L 102.219484 -40.529235 
L 101.95124 -40.529235 
L 101.682996 -40.529235 
L 101.414753 -40.529235 
L 101.146509 -40.529235 
L 100.878265 -40.529235 
L 100.610021 -40.529235 
L 100.341778 -40.529235 
L 100.073534 -40.529235 
L 99.80529 -40.529235 
L 99.537046 -40.529235 
L 99.268802 -40.529235 
L 99.000559 -40.529235 
L 98.732315 -40.529235 
L 98.464071 -40.529235 
L 98.195827 -40.529235 
L 97.927584 -40.529235 
L 97.65934 -40.529235 
L 97.391096 -40.529235 
L 97.122852 -40.529235 
L 96.854608 -40.529235 
L 96.586365 -40.529235 
L 96.318121 -40.529235 
L 96.049877 -40.529235 
L 95.781633 -40.529235 
L 95.51339 -40.529235 
L 95.245146 -40.529235 
L 94.976902 -40.529235 
L 94.708658 -40.529235 
L 94.440414 -40.529235 
L 94.172171 -40.529235 
L 93.903927 -40.529235 
L 93.635683 -40.529235 
L 93.367439 -40.529235 
L 93.099196 -40.529235 
L 92.830952 -40.529235 
L 92.562708 -40.529235 
L 92.294464 -40.529235 
L 92.026221 -40.529235 
L 91.757977 -40.529235 
L 91.489733 -40.529235 
L 91.221489 -40.529235 
L 90.953245 -40.529235 
L 90.685002 -40.529235 
L 90.416758 -40.529235 
L 90.148514 -40.529235 
L 89.88027 -40.529235 
L 89.612027 -40.529235 
L 89.343783 -40.529235 
L 89.075539 -40.529235 
L 88.807295 -40.529235 
L 88.539051 -40.529235 
L 88.270808 -40.529235 
L 88.002564 -40.529235 
L 87.73432 -40.529235 
L 87.466076 -40.529235 
L 87.197833 -40.529235 
L 86.929589 -40.529235 
L 86.661345 -40.529235 
L 86.393101 -40.529235 
L 86.124858 -40.529235 
L 85.856614 -40.529235 
L 85.58837 -40.529235 
L 85.320126 -40.529235 
L 85.051882 -40.529235 
L 84.783639 -40.529235 
L 84.515395 -40.529235 
L 84.247151 -40.529235 
L 83.978907 -40.529235 
L 83.710664 -40.529235 
L 83.44242 -40.529235 
L 83.174176 -40.529235 
L 82.905932 -40.529235 
L 82.637688 -40.529235 
L 82.369445 -40.529235 
L 82.101201 -40.529235 
L 81.832957 -40.529235 
L 81.564713 -40.529235 
L 81.29647 -40.529235 
L 81.028226 -40.529235 
L 80.759982 -40.529235 
L 80.491738 -40.529235 
L 80.223494 -40.529235 
L 79.955251 -40.529235 
L 79.687007 -40.529235 
L 79.418763 -40.529235 
L 79.150519 -40.529235 
L 78.882276 -40.529235 
L 78.614032 -40.529235 
L 78.345788 -40.529235 
L 78.077544 -40.529235 
L 77.809301 -40.529235 
L 77.541057 -40.529235 
L 77.272813 -40.529235 
L 77.004569 -40.529235 
L 76.736325 -40.529235 
L 76.468082 -40.529235 
L 76.199838 -40.529235 
L 75.931594 -40.529235 
L 75.66335 -40.529235 
L 75.395107 -40.529235 
L 75.126863 -40.529235 
L 74.858619 -40.529235 
L 74.590375 -40.529235 
L 74.322131 -40.529235 
L 74.053888 -40.529235 
L 73.785644 -40.529235 
L 73.5174 -40.529235 
L 73.249156 -40.529235 
L 72.980913 -40.529235 
L 72.712669 -40.529235 
L 72.444425 -40.529235 
L 72.176181 -40.529235 
L 71.907937 -40.529235 
L 71.639694 -40.529235 
L 71.37145 -40.529235 
L 71.103206 -40.529235 
L 70.834962 -40.529235 
L 70.566719 -40.529235 
L 70.298475 -40.529235 
L 70.030231 -40.529235 
L 69.761987 -40.529235 
L 69.493744 -40.529235 
L 69.2255 -40.529235 
L 68.957256 -40.529235 
L 68.689012 -40.529235 
L 68.420768 -40.529235 
L 68.152525 -40.529235 
L 67.884281 -40.529235 
L 67.616037 -40.529235 
L 67.347793 -40.529235 
L 67.07955 -40.529235 
L 66.811306 -40.529235 
z
" style="stroke: #000000; stroke-opacity: 0.1; stroke-width: 0.5"/>
    </defs>
    <g clip-path="url(#p90be145ead)">
     <use xlink:href="#mafd86cb820" x="0" y="153.115422" style="fill-opacity: 0.1; stroke: #000000; stroke-opacity: 0.1; stroke-width: 0.5"/>
    </g>
   </g>
   <g id="line2d_17">
    <path d="M 66.811306 12.21839 
L 200.664949 12.21839 
L 200.664949 12.21839 
" clip-path="url(#p90be145ead)" style="fill: none; stroke: #000000; stroke-opacity: 0.5; stroke-width: 0.7; stroke-linecap: square"/>
   </g>
   <g id="line2d_18">
    <path d="M 66.811306 112.586188 
L 200.664949 112.586188 
L 200.664949 112.586188 
" clip-path="url(#p90be145ead)" style="fill: none; stroke: #000000; stroke-width: 0.7; stroke-linecap: square"/>
   </g>
   <g id="patch_3">
    <path d="M 60.118624 117.604578 
L 60.118624 7.2 
" style="fill: none; stroke: #000000; stroke-width: 0.5; stroke-linejoin: miter; stroke-linecap: square"/>
   </g>
   <g id="patch_4">
    <path d="M 60.118624 117.604578 
L 207.357631 117.604578 
" style="fill: none; stroke: #000000; stroke-width: 0.5; stroke-linejoin: miter; stroke-linecap: square"/>
   </g>
  </g>
  <g id="axes_2">
   <g id="patch_5">
    <path d="M 271.022328 117.604578 
L 418.261335 117.604578 
L 418.261335 7.2 
L 271.022328 7.2 
z
" style="fill: #ffffff"/>
   </g>
   <g id="matplotlib.axis_3">
    <g id="xtick_4">
     <g id="line2d_19">
      <path d="M 277.71501 117.604578 
L 277.71501 7.2 
" clip-path="url(#pbad2bd1a0b)" style="fill: none; stroke: #d3d3d3; stroke-width: 0.2; stroke-linecap: square"/>
     </g>
     <g id="line2d_20">
      <g>
       <use xlink:href="#m23979f67d0" x="277.71501" y="117.604578" style="stroke: #000000; stroke-width: 0.8"/>
      </g>
     </g>
     <g id="text_11">
      <!-- $\mathdefault{0}$ -->
      <g transform="translate(275.224342 128.023076) scale(0.1 -0.1)">
       <use xlink:href="#CMR17-30" transform="scale(0.996264)"/>
      </g>
     </g>
    </g>
    <g id="xtick_5">
     <g id="line2d_21">
      <path d="M 331.256467 117.604578 
L 331.256467 7.2 
" clip-path="url(#pbad2bd1a0b)" style="fill: none; stroke: #d3d3d3; stroke-width: 0.2; stroke-linecap: square"/>
     </g>
     <g id="line2d_22">
      <g>
       <use xlink:href="#m23979f67d0" x="331.256467" y="117.604578" style="stroke: #000000; stroke-width: 0.8"/>
      </g>
     </g>
     <g id="text_12">
      <!-- $\mathdefault{2}$ -->
      <g transform="translate(328.7658 128.023076) scale(0.1 -0.1)">
       <use xlink:href="#CMR17-32" transform="scale(0.996264)"/>
      </g>
     </g>
    </g>
    <g id="xtick_6">
     <g id="line2d_23">
      <path d="M 384.797924 117.604578 
L 384.797924 7.2 
" clip-path="url(#pbad2bd1a0b)" style="fill: none; stroke: #d3d3d3; stroke-width: 0.2; stroke-linecap: square"/>
     </g>
     <g id="line2d_24">
      <g>
       <use xlink:href="#m23979f67d0" x="384.797924" y="117.604578" style="stroke: #000000; stroke-width: 0.8"/>
      </g>
     </g>
     <g id="text_13">
      <!-- $\mathdefault{4}$ -->
      <g transform="translate(382.307257 128.023076) scale(0.1 -0.1)">
       <use xlink:href="#CMR17-34" transform="scale(0.996264)"/>
      </g>
     </g>
    </g>
    <g id="text_14">
     <!-- $x$ [m] -->
     <g transform="translate(331.235638 142.92663) scale(0.12 -0.12)">
      <use xlink:href="#CMMI12-78" transform="scale(0.996264)"/>
      <use xlink:href="#CMR17-5b" transform="translate(85.510026 0) scale(0.996264)"/>
      <use xlink:href="#CMR17-6d" transform="translate(110.381084 0) scale(0.996264)"/>
      <use xlink:href="#CMR17-5d" transform="translate(187.300674 0) scale(0.996264)"/>
     </g>
    </g>
   </g>
   <g id="matplotlib.axis_4">
    <g id="ytick_6">
     <g id="line2d_25">
      <path d="M 271.022328 32.291949 
L 418.261335 32.291949 
" clip-path="url(#pbad2bd1a0b)" style="fill: none; stroke: #d3d3d3; stroke-width: 0.2; stroke-linecap: square"/>
     </g>
     <g id="line2d_26">
      <g>
       <use xlink:href="#mf5881deba8" x="271.022328" y="32.291949" style="stroke: #000000; stroke-width: 0.8"/>
      </g>
     </g>
     <g id="text_15">
      <!-- $\mathdefault{−0.004}$ -->
      <g transform="translate(237.080835 35.751199) scale(0.1 -0.1)">
       <defs>
        <path id="CMSY10-0" d="M 4218 1472 
C 4326 1472 4442 1472 4442 1600 
C 4442 1728 4326 1728 4218 1728 
L 755 1728 
C 646 1728 531 1728 531 1600 
C 531 1472 646 1472 755 1472 
L 4218 1472 
z
" transform="scale(0.015625)"/>
       </defs>
       <use xlink:href="#CMSY10-0" transform="scale(0.996264)"/>
       <use xlink:href="#CMR17-30" transform="translate(77.487468 0) scale(0.996264)"/>
       <use xlink:href="#CMMI12-3a" transform="translate(123.177945 0) scale(0.996264)"/>
       <use xlink:href="#CMR17-30" transform="translate(150.275122 0) scale(0.996264)"/>
       <use xlink:href="#CMR17-30" transform="translate(195.965599 0) scale(0.996264)"/>
       <use xlink:href="#CMR17-34" transform="translate(241.656076 0) scale(0.996264)"/>
      </g>
     </g>
    </g>
    <g id="ytick_7">
     <g id="line2d_27">
      <path d="M 271.022328 72.439069 
L 418.261335 72.439069 
" clip-path="url(#pbad2bd1a0b)" style="fill: none; stroke: #d3d3d3; stroke-width: 0.2; stroke-linecap: square"/>
     </g>
     <g id="line2d_28">
      <g>
       <use xlink:href="#mf5881deba8" x="271.022328" y="72.439069" style="stroke: #000000; stroke-width: 0.8"/>
      </g>
     </g>
     <g id="text_16">
      <!-- $\mathdefault{−0.002}$ -->
      <g transform="translate(237.080835 75.898318) scale(0.1 -0.1)">
       <use xlink:href="#CMSY10-0" transform="scale(0.996264)"/>
       <use xlink:href="#CMR17-30" transform="translate(77.487468 0) scale(0.996264)"/>
       <use xlink:href="#CMMI12-3a" transform="translate(123.177945 0) scale(0.996264)"/>
       <use xlink:href="#CMR17-30" transform="translate(150.275122 0) scale(0.996264)"/>
       <use xlink:href="#CMR17-30" transform="translate(195.965599 0) scale(0.996264)"/>
       <use xlink:href="#CMR17-32" transform="translate(241.656076 0) scale(0.996264)"/>
      </g>
     </g>
    </g>
    <g id="ytick_8">
     <g id="line2d_29">
      <path d="M 271.022328 112.586188 
L 418.261335 112.586188 
" clip-path="url(#pbad2bd1a0b)" style="fill: none; stroke: #d3d3d3; stroke-width: 0.2; stroke-linecap: square"/>
     </g>
     <g id="line2d_30">
      <g>
       <use xlink:href="#mf5881deba8" x="271.022328" y="112.586188" style="stroke: #000000; stroke-width: 0.8"/>
      </g>
     </g>
     <g id="text_17">
      <!-- $\mathdefault{0.000}$ -->
      <g transform="translate(244.829578 116.045437) scale(0.1 -0.1)">
       <use xlink:href="#CMR17-30" transform="scale(0.996264)"/>
       <use xlink:href="#CMMI12-3a" transform="translate(45.690477 0) scale(0.996264)"/>
       <use xlink:href="#CMR17-30" transform="translate(72.787654 0) scale(0.996264)"/>
       <use xlink:href="#CMR17-30" transform="translate(118.478131 0) scale(0.996264)"/>
       <use xlink:href="#CMR17-30" transform="translate(164.168608 0) scale(0.996264)"/>
      </g>
     </g>
    </g>
    <g id="text_18">
     <!-- $\bar{M}$ [m] -->
     <g transform="translate(230.092043 78.769242) rotate(-90) scale(0.12 -0.12)">
      <defs>
       <path id="CMMI12-4d" d="M 5811 3886 
C 5869 4102 5882 4166 6336 4166 
C 6458 4166 6515 4166 6515 4287 
C 6515 4352 6470 4352 6349 4352 
L 5581 4352 
C 5421 4352 5414 4345 5344 4243 
L 3008 567 
L 2528 4211 
C 2509 4352 2502 4352 2336 4352 
L 1542 4352 
C 1421 4352 1363 4352 1363 4230 
C 1363 4166 1421 4166 1517 4166 
C 1907 4166 1907 4115 1907 4045 
C 1907 4032 1907 3994 1882 3898 
L 1062 650 
C 986 344 838 204 410 185 
C 390 185 314 179 314 70 
C 314 0 371 0 397 0 
C 525 0 851 12 979 12 
L 1286 12 
C 1376 12 1485 0 1574 0 
C 1619 0 1690 0 1690 121 
C 1690 179 1626 185 1600 185 
C 1389 191 1184 230 1184 459 
C 1184 523 1184 529 1210 618 
L 2093 4128 
L 2099 4128 
L 2630 172 
C 2650 19 2656 0 2714 0 
C 2784 0 2816 51 2848 108 
L 5421 4159 
L 5427 4159 
L 4499 472 
C 4442 249 4429 185 3981 185 
C 3859 185 3795 185 3795 70 
C 3795 0 3853 0 3891 0 
C 4000 0 4128 12 4237 12 
L 4992 12 
C 5101 12 5235 0 5344 0 
C 5395 0 5466 0 5466 121 
C 5466 185 5408 185 5312 185 
C 4922 185 4922 236 4922 300 
C 4922 306 4922 351 4934 402 
L 5811 3886 
z
" transform="scale(0.015625)"/>
      </defs>
      <use xlink:href="#CMR17-16" transform="translate(37.673954 25.189733) scale(0.996264)"/>
      <use xlink:href="#CMMI12-4d" transform="scale(0.996264)"/>
      <use xlink:href="#CMR17-5b" transform="translate(134.856045 0) scale(0.996264)"/>
      <use xlink:href="#CMR17-6d" transform="translate(159.727104 0) scale(0.996264)"/>
      <use xlink:href="#CMR17-5d" transform="translate(236.646694 0) scale(0.996264)"/>
     </g>
    </g>
   </g>
   <g id="PolyCollection_2">
    <defs>
     <path id="m5b2f9d2cb3" d="M 277.71501 -40.529235 
L 277.71501 -140.897033 
L 277.983254 -140.695895 
L 278.251498 -140.494757 
L 278.519741 -140.293619 
L 278.787985 -140.092481 
L 279.056229 -139.891343 
L 279.324473 -139.690205 
L 279.592716 -139.489067 
L 279.86096 -139.28793 
L 280.129204 -139.086792 
L 280.397448 -138.885654 
L 280.665692 -138.684516 
L 280.933935 -138.483378 
L 281.202179 -138.28224 
L 281.470423 -138.081102 
L 281.738667 -137.879964 
L 282.00691 -137.678827 
L 282.275154 -137.477689 
L 282.543398 -137.276551 
L 282.811642 -137.075413 
L 283.079886 -136.874275 
L 283.348129 -136.673137 
L 283.616373 -136.471999 
L 283.884617 -136.270861 
L 284.152861 -136.069724 
L 284.421104 -135.868586 
L 284.689348 -135.667448 
L 284.957592 -135.46631 
L 285.225836 -135.265172 
L 285.494079 -135.064034 
L 285.762323 -134.862896 
L 286.030567 -134.661759 
L 286.298811 -134.460621 
L 286.567055 -134.259483 
L 286.835298 -134.058345 
L 287.103542 -133.857207 
L 287.371786 -133.656069 
L 287.64003 -133.454931 
L 287.908273 -133.253793 
L 288.176517 -133.052656 
L 288.444761 -132.851518 
L 288.713005 -132.65038 
L 288.981249 -132.449242 
L 289.249492 -132.248104 
L 289.517736 -132.046966 
L 289.78598 -131.845828 
L 290.054224 -131.64469 
L 290.322467 -131.443553 
L 290.590711 -131.242415 
L 290.858955 -131.041277 
L 291.127199 -130.840139 
L 291.395442 -130.639001 
L 291.663686 -130.437863 
L 291.93193 -130.236725 
L 292.200174 -130.035587 
L 292.468418 -129.83445 
L 292.736661 -129.633312 
L 293.004905 -129.432174 
L 293.273149 -129.231036 
L 293.541393 -129.029898 
L 293.809636 -128.82876 
L 294.07788 -128.627622 
L 294.346124 -128.426485 
L 294.614368 -128.225347 
L 294.882612 -128.024209 
L 295.150855 -127.823071 
L 295.419099 -127.621933 
L 295.687343 -127.420795 
L 295.955587 -127.219657 
L 296.22383 -127.018519 
L 296.492074 -126.817382 
L 296.760318 -126.616244 
L 297.028562 -126.415106 
L 297.296806 -126.213968 
L 297.565049 -126.01283 
L 297.833293 -125.811692 
L 298.101537 -125.610554 
L 298.369781 -125.409416 
L 298.638024 -125.208279 
L 298.906268 -125.007141 
L 299.174512 -124.806003 
L 299.442756 -124.604865 
L 299.710999 -124.403727 
L 299.979243 -124.202589 
L 300.247487 -124.001451 
L 300.515731 -123.800313 
L 300.783975 -123.599176 
L 301.052218 -123.398038 
L 301.320462 -123.1969 
L 301.588706 -122.995762 
L 301.85695 -122.794624 
L 302.125193 -122.593486 
L 302.393437 -122.392348 
L 302.661681 -122.19121 
L 302.929925 -121.990073 
L 303.198169 -121.788935 
L 303.466412 -121.587797 
L 303.734656 -121.386659 
L 304.0029 -121.185521 
L 304.271144 -120.984383 
L 304.539387 -120.783245 
L 304.807631 -120.582108 
L 305.075875 -120.38097 
L 305.344119 -120.179832 
L 305.612362 -119.978694 
L 305.880606 -119.777556 
L 306.14885 -119.576418 
L 306.417094 -119.37528 
L 306.685338 -119.174142 
L 306.953581 -118.973005 
L 307.221825 -118.771867 
L 307.490069 -118.570729 
L 307.758313 -118.369591 
L 308.026556 -118.168453 
L 308.2948 -117.967315 
L 308.563044 -117.766177 
L 308.831288 -117.565039 
L 309.099532 -117.363902 
L 309.367775 -117.162764 
L 309.636019 -116.961626 
L 309.904263 -116.760488 
L 310.172507 -116.55935 
L 310.44075 -116.358212 
L 310.708994 -116.157074 
L 310.977238 -115.955936 
L 311.245482 -115.754799 
L 311.513726 -115.553661 
L 311.781969 -115.352523 
L 312.050213 -115.151385 
L 312.318457 -114.950247 
L 312.586701 -114.749109 
L 312.854944 -114.547971 
L 313.123188 -114.346834 
L 313.391432 -114.145696 
L 313.659676 -113.944558 
L 313.927919 -113.74342 
L 314.196163 -113.542282 
L 314.464407 -113.341144 
L 314.732651 -113.140006 
L 315.000895 -112.938868 
L 315.269138 -112.737731 
L 315.537382 -112.536593 
L 315.805626 -112.335455 
L 316.07387 -112.134317 
L 316.342113 -111.933179 
L 316.610357 -111.732041 
L 316.878601 -111.530903 
L 317.146845 -111.329765 
L 317.415089 -111.128628 
L 317.683332 -110.92749 
L 317.951576 -110.726352 
L 318.21982 -110.525214 
L 318.488064 -110.324076 
L 318.756307 -110.122938 
L 319.024551 -109.9218 
L 319.292795 -109.720662 
L 319.561039 -109.519525 
L 319.829283 -109.318387 
L 320.097526 -109.117249 
L 320.36577 -108.916111 
L 320.634014 -108.714973 
L 320.902258 -108.513835 
L 321.170501 -108.312697 
L 321.438745 -108.111559 
L 321.706989 -107.910422 
L 321.975233 -107.709284 
L 322.243476 -107.508146 
L 322.51172 -107.307008 
L 322.779964 -107.10587 
L 323.048208 -106.904732 
L 323.316452 -106.703594 
L 323.584695 -106.502457 
L 323.852939 -106.301319 
L 324.121183 -106.100181 
L 324.389427 -105.899043 
L 324.65767 -105.697905 
L 324.925914 -105.496767 
L 325.194158 -105.295629 
L 325.462402 -105.094491 
L 325.730646 -104.893354 
L 325.998889 -104.692216 
L 326.267133 -104.491078 
L 326.535377 -104.28994 
L 326.803621 -104.088802 
L 327.071864 -103.887664 
L 327.340108 -103.686526 
L 327.608352 -103.485388 
L 327.876596 -103.284251 
L 328.144839 -103.083113 
L 328.413083 -102.881975 
L 328.681327 -102.680837 
L 328.949571 -102.479699 
L 329.217815 -102.278561 
L 329.486058 -102.077423 
L 329.754302 -101.876285 
L 330.022546 -101.675148 
L 330.29079 -101.47401 
L 330.559033 -101.272872 
L 330.827277 -101.071734 
L 331.095521 -100.870596 
L 331.363765 -100.669458 
L 331.632009 -100.46832 
L 331.900252 -100.267183 
L 332.168496 -100.066045 
L 332.43674 -99.864907 
L 332.704984 -99.663769 
L 332.973227 -99.462631 
L 333.241471 -99.261493 
L 333.509715 -99.060355 
L 333.777959 -98.859217 
L 334.046203 -98.65808 
L 334.314446 -98.456942 
L 334.58269 -98.255804 
L 334.850934 -98.054666 
L 335.119178 -97.853528 
L 335.387421 -97.65239 
L 335.655665 -97.451252 
L 335.923909 -97.250114 
L 336.192153 -97.048977 
L 336.460396 -96.847839 
L 336.72864 -96.646701 
L 336.996884 -96.445563 
L 337.265128 -96.244425 
L 337.533372 -96.043287 
L 337.801615 -95.842149 
L 338.069859 -95.641011 
L 338.338103 -95.439874 
L 338.606347 -95.238736 
L 338.87459 -95.037598 
L 339.142834 -94.83646 
L 339.411078 -94.635322 
L 339.679322 -94.434184 
L 339.947566 -94.233046 
L 340.215809 -94.031908 
L 340.484053 -93.830771 
L 340.752297 -93.629633 
L 341.020541 -93.428495 
L 341.288784 -93.227357 
L 341.557028 -93.026219 
L 341.825272 -92.825081 
L 342.093516 -92.623943 
L 342.361759 -92.422806 
L 342.630003 -92.221668 
L 342.898247 -92.02053 
L 343.166491 -91.819392 
L 343.434735 -91.618254 
L 343.702978 -91.417116 
L 343.971222 -91.215978 
L 344.239466 -91.01484 
L 344.50771 -90.813703 
L 344.775953 -90.612565 
L 345.044197 -90.411427 
L 345.312441 -90.210289 
L 345.580685 -90.009151 
L 345.848929 -89.808013 
L 346.117172 -89.606875 
L 346.385416 -89.405737 
L 346.65366 -89.2046 
L 346.921904 -89.003462 
L 347.190147 -88.802324 
L 347.458391 -88.601186 
L 347.726635 -88.400048 
L 347.994879 -88.19891 
L 348.263123 -87.997772 
L 348.531366 -87.796634 
L 348.79961 -87.595497 
L 349.067854 -87.394359 
L 349.336098 -87.193221 
L 349.604341 -86.992083 
L 349.872585 -86.790945 
L 350.140829 -86.589807 
L 350.409073 -86.388669 
L 350.677316 -86.187532 
L 350.94556 -85.986394 
L 351.213804 -85.785256 
L 351.482048 -85.584118 
L 351.750292 -85.38298 
L 352.018535 -85.181842 
L 352.286779 -84.980704 
L 352.555023 -84.779566 
L 352.823267 -84.578429 
L 353.09151 -84.377291 
L 353.359754 -84.176153 
L 353.627998 -83.975015 
L 353.896242 -83.773877 
L 354.164486 -83.572739 
L 354.432729 -83.371601 
L 354.700973 -83.170463 
L 354.969217 -82.969326 
L 355.237461 -82.768188 
L 355.505704 -82.56705 
L 355.773948 -82.365912 
L 356.042192 -82.164774 
L 356.310436 -81.963636 
L 356.578679 -81.762498 
L 356.846923 -81.56136 
L 357.115167 -81.360223 
L 357.383411 -81.159085 
L 357.651655 -80.957947 
L 357.919898 -80.756809 
L 358.188142 -80.555671 
L 358.456386 -80.354533 
L 358.72463 -80.153395 
L 358.992873 -79.952258 
L 359.261117 -79.75112 
L 359.529361 -79.549982 
L 359.797605 -79.348844 
L 360.065849 -79.147706 
L 360.334092 -78.946568 
L 360.602336 -78.74543 
L 360.87058 -78.544292 
L 361.138824 -78.343155 
L 361.407067 -78.142017 
L 361.675311 -77.940879 
L 361.943555 -77.739741 
L 362.211799 -77.538603 
L 362.480043 -77.337465 
L 362.748286 -77.136327 
L 363.01653 -76.935189 
L 363.284774 -76.734052 
L 363.553018 -76.532914 
L 363.821261 -76.331776 
L 364.089505 -76.130638 
L 364.357749 -75.9295 
L 364.625993 -75.728362 
L 364.894236 -75.527224 
L 365.16248 -75.326086 
L 365.430724 -75.124949 
L 365.698968 -74.923811 
L 365.967212 -74.722673 
L 366.235455 -74.521535 
L 366.503699 -74.320397 
L 366.771943 -74.119259 
L 367.040187 -73.918121 
L 367.30843 -73.716983 
L 367.576674 -73.515846 
L 367.844918 -73.314708 
L 368.113162 -73.11357 
L 368.381406 -72.912432 
L 368.649649 -72.711294 
L 368.917893 -72.510156 
L 369.186137 -72.309018 
L 369.454381 -72.107881 
L 369.722624 -71.906743 
L 369.990868 -71.705605 
L 370.259112 -71.504467 
L 370.527356 -71.303329 
L 370.795599 -71.102191 
L 371.063843 -70.901053 
L 371.332087 -70.699915 
L 371.600331 -70.498778 
L 371.868575 -70.29764 
L 372.136818 -70.096502 
L 372.405062 -69.895364 
L 372.673306 -69.694226 
L 372.94155 -69.493088 
L 373.209793 -69.29195 
L 373.478037 -69.090812 
L 373.746281 -68.889675 
L 374.014525 -68.688537 
L 374.282769 -68.487399 
L 374.551012 -68.286261 
L 374.819256 -68.085123 
L 375.0875 -67.883985 
L 375.355744 -67.682847 
L 375.623987 -67.481709 
L 375.892231 -67.280572 
L 376.160475 -67.079434 
L 376.428719 -66.878296 
L 376.696963 -66.677158 
L 376.965206 -66.47602 
L 377.23345 -66.274882 
L 377.501694 -66.073744 
L 377.769938 -65.872607 
L 378.038181 -65.671469 
L 378.306425 -65.470331 
L 378.574669 -65.269193 
L 378.842913 -65.068055 
L 379.111156 -64.866917 
L 379.3794 -64.665779 
L 379.647644 -64.464641 
L 379.915888 -64.263504 
L 380.184132 -64.062366 
L 380.452375 -63.861228 
L 380.720619 -63.66009 
L 380.988863 -63.458952 
L 381.257107 -63.257814 
L 381.52535 -63.056676 
L 381.793594 -62.855538 
L 382.061838 -62.654401 
L 382.330082 -62.453263 
L 382.598326 -62.252125 
L 382.866569 -62.050987 
L 383.134813 -61.849849 
L 383.403057 -61.648711 
L 383.671301 -61.447573 
L 383.939544 -61.246435 
L 384.207788 -61.045298 
L 384.476032 -60.84416 
L 384.744276 -60.643022 
L 385.01252 -60.441884 
L 385.280763 -60.240746 
L 385.549007 -60.039608 
L 385.817251 -59.83847 
L 386.085495 -59.637332 
L 386.353738 -59.436195 
L 386.621982 -59.235057 
L 386.890226 -59.033919 
L 387.15847 -58.832781 
L 387.426713 -58.631643 
L 387.694957 -58.430505 
L 387.963201 -58.229367 
L 388.231445 -58.02823 
L 388.499689 -57.827092 
L 388.767932 -57.625954 
L 389.036176 -57.424816 
L 389.30442 -57.223678 
L 389.572664 -57.02254 
L 389.840907 -56.821402 
L 390.109151 -56.620264 
L 390.377395 -56.419127 
L 390.645639 -56.217989 
L 390.913883 -56.016851 
L 391.182126 -55.815713 
L 391.45037 -55.614575 
L 391.718614 -55.413437 
L 391.986858 -55.212299 
L 392.255101 -55.011161 
L 392.523345 -54.810024 
L 392.791589 -54.608886 
L 393.059833 -54.407748 
L 393.328076 -54.20661 
L 393.59632 -54.005472 
L 393.864564 -53.804334 
L 394.132808 -53.603196 
L 394.401052 -53.402058 
L 394.669295 -53.200921 
L 394.937539 -52.999783 
L 395.205783 -52.798645 
L 395.474027 -52.597507 
L 395.74227 -52.396369 
L 396.010514 -52.195231 
L 396.278758 -51.994093 
L 396.547002 -51.792956 
L 396.815246 -51.591818 
L 397.083489 -51.39068 
L 397.351733 -51.189542 
L 397.619977 -50.988404 
L 397.888221 -50.787266 
L 398.156464 -50.586128 
L 398.424708 -50.38499 
L 398.692952 -50.183853 
L 398.961196 -49.982715 
L 399.22944 -49.781577 
L 399.497683 -49.580439 
L 399.765927 -49.379301 
L 400.034171 -49.178163 
L 400.302415 -48.977025 
L 400.570658 -48.775887 
L 400.838902 -48.57475 
L 401.107146 -48.373612 
L 401.37539 -48.172474 
L 401.643633 -47.971336 
L 401.911877 -47.770198 
L 402.180121 -47.56906 
L 402.448365 -47.367922 
L 402.716609 -47.166784 
L 402.984852 -46.965647 
L 403.253096 -46.764509 
L 403.52134 -46.563371 
L 403.789584 -46.362233 
L 404.057827 -46.161095 
L 404.326071 -45.959957 
L 404.594315 -45.758819 
L 404.862559 -45.557682 
L 405.130803 -45.356544 
L 405.399046 -45.155406 
L 405.66729 -44.954268 
L 405.935534 -44.75313 
L 406.203778 -44.551992 
L 406.472021 -44.350854 
L 406.740265 -44.149716 
L 407.008509 -43.948579 
L 407.276753 -43.747441 
L 407.544996 -43.546303 
L 407.81324 -43.345165 
L 408.081484 -43.144027 
L 408.349728 -42.942889 
L 408.617972 -42.741751 
L 408.886215 -42.540613 
L 409.154459 -42.339476 
L 409.422703 -42.138338 
L 409.690947 -41.9372 
L 409.95919 -41.736062 
L 410.227434 -41.534924 
L 410.495678 -41.333786 
L 410.763922 -41.132648 
L 411.032166 -40.93151 
L 411.300409 -40.730373 
L 411.568653 -40.529235 
L 411.568653 -40.529235 
L 411.568653 -40.529235 
L 411.300409 -40.529235 
L 411.032166 -40.529235 
L 410.763922 -40.529235 
L 410.495678 -40.529235 
L 410.227434 -40.529235 
L 409.95919 -40.529235 
L 409.690947 -40.529235 
L 409.422703 -40.529235 
L 409.154459 -40.529235 
L 408.886215 -40.529235 
L 408.617972 -40.529235 
L 408.349728 -40.529235 
L 408.081484 -40.529235 
L 407.81324 -40.529235 
L 407.544996 -40.529235 
L 407.276753 -40.529235 
L 407.008509 -40.529235 
L 406.740265 -40.529235 
L 406.472021 -40.529235 
L 406.203778 -40.529235 
L 405.935534 -40.529235 
L 405.66729 -40.529235 
L 405.399046 -40.529235 
L 405.130803 -40.529235 
L 404.862559 -40.529235 
L 404.594315 -40.529235 
L 404.326071 -40.529235 
L 404.057827 -40.529235 
L 403.789584 -40.529235 
L 403.52134 -40.529235 
L 403.253096 -40.529235 
L 402.984852 -40.529235 
L 402.716609 -40.529235 
L 402.448365 -40.529235 
L 402.180121 -40.529235 
L 401.911877 -40.529235 
L 401.643633 -40.529235 
L 401.37539 -40.529235 
L 401.107146 -40.529235 
L 400.838902 -40.529235 
L 400.570658 -40.529235 
L 400.302415 -40.529235 
L 400.034171 -40.529235 
L 399.765927 -40.529235 
L 399.497683 -40.529235 
L 399.22944 -40.529235 
L 398.961196 -40.529235 
L 398.692952 -40.529235 
L 398.424708 -40.529235 
L 398.156464 -40.529235 
L 397.888221 -40.529235 
L 397.619977 -40.529235 
L 397.351733 -40.529235 
L 397.083489 -40.529235 
L 396.815246 -40.529235 
L 396.547002 -40.529235 
L 396.278758 -40.529235 
L 396.010514 -40.529235 
L 395.74227 -40.529235 
L 395.474027 -40.529235 
L 395.205783 -40.529235 
L 394.937539 -40.529235 
L 394.669295 -40.529235 
L 394.401052 -40.529235 
L 394.132808 -40.529235 
L 393.864564 -40.529235 
L 393.59632 -40.529235 
L 393.328076 -40.529235 
L 393.059833 -40.529235 
L 392.791589 -40.529235 
L 392.523345 -40.529235 
L 392.255101 -40.529235 
L 391.986858 -40.529235 
L 391.718614 -40.529235 
L 391.45037 -40.529235 
L 391.182126 -40.529235 
L 390.913883 -40.529235 
L 390.645639 -40.529235 
L 390.377395 -40.529235 
L 390.109151 -40.529235 
L 389.840907 -40.529235 
L 389.572664 -40.529235 
L 389.30442 -40.529235 
L 389.036176 -40.529235 
L 388.767932 -40.529235 
L 388.499689 -40.529235 
L 388.231445 -40.529235 
L 387.963201 -40.529235 
L 387.694957 -40.529235 
L 387.426713 -40.529235 
L 387.15847 -40.529235 
L 386.890226 -40.529235 
L 386.621982 -40.529235 
L 386.353738 -40.529235 
L 386.085495 -40.529235 
L 385.817251 -40.529235 
L 385.549007 -40.529235 
L 385.280763 -40.529235 
L 385.01252 -40.529235 
L 384.744276 -40.529235 
L 384.476032 -40.529235 
L 384.207788 -40.529235 
L 383.939544 -40.529235 
L 383.671301 -40.529235 
L 383.403057 -40.529235 
L 383.134813 -40.529235 
L 382.866569 -40.529235 
L 382.598326 -40.529235 
L 382.330082 -40.529235 
L 382.061838 -40.529235 
L 381.793594 -40.529235 
L 381.52535 -40.529235 
L 381.257107 -40.529235 
L 380.988863 -40.529235 
L 380.720619 -40.529235 
L 380.452375 -40.529235 
L 380.184132 -40.529235 
L 379.915888 -40.529235 
L 379.647644 -40.529235 
L 379.3794 -40.529235 
L 379.111156 -40.529235 
L 378.842913 -40.529235 
L 378.574669 -40.529235 
L 378.306425 -40.529235 
L 378.038181 -40.529235 
L 377.769938 -40.529235 
L 377.501694 -40.529235 
L 377.23345 -40.529235 
L 376.965206 -40.529235 
L 376.696963 -40.529235 
L 376.428719 -40.529235 
L 376.160475 -40.529235 
L 375.892231 -40.529235 
L 375.623987 -40.529235 
L 375.355744 -40.529235 
L 375.0875 -40.529235 
L 374.819256 -40.529235 
L 374.551012 -40.529235 
L 374.282769 -40.529235 
L 374.014525 -40.529235 
L 373.746281 -40.529235 
L 373.478037 -40.529235 
L 373.209793 -40.529235 
L 372.94155 -40.529235 
L 372.673306 -40.529235 
L 372.405062 -40.529235 
L 372.136818 -40.529235 
L 371.868575 -40.529235 
L 371.600331 -40.529235 
L 371.332087 -40.529235 
L 371.063843 -40.529235 
L 370.795599 -40.529235 
L 370.527356 -40.529235 
L 370.259112 -40.529235 
L 369.990868 -40.529235 
L 369.722624 -40.529235 
L 369.454381 -40.529235 
L 369.186137 -40.529235 
L 368.917893 -40.529235 
L 368.649649 -40.529235 
L 368.381406 -40.529235 
L 368.113162 -40.529235 
L 367.844918 -40.529235 
L 367.576674 -40.529235 
L 367.30843 -40.529235 
L 367.040187 -40.529235 
L 366.771943 -40.529235 
L 366.503699 -40.529235 
L 366.235455 -40.529235 
L 365.967212 -40.529235 
L 365.698968 -40.529235 
L 365.430724 -40.529235 
L 365.16248 -40.529235 
L 364.894236 -40.529235 
L 364.625993 -40.529235 
L 364.357749 -40.529235 
L 364.089505 -40.529235 
L 363.821261 -40.529235 
L 363.553018 -40.529235 
L 363.284774 -40.529235 
L 363.01653 -40.529235 
L 362.748286 -40.529235 
L 362.480043 -40.529235 
L 362.211799 -40.529235 
L 361.943555 -40.529235 
L 361.675311 -40.529235 
L 361.407067 -40.529235 
L 361.138824 -40.529235 
L 360.87058 -40.529235 
L 360.602336 -40.529235 
L 360.334092 -40.529235 
L 360.065849 -40.529235 
L 359.797605 -40.529235 
L 359.529361 -40.529235 
L 359.261117 -40.529235 
L 358.992873 -40.529235 
L 358.72463 -40.529235 
L 358.456386 -40.529235 
L 358.188142 -40.529235 
L 357.919898 -40.529235 
L 357.651655 -40.529235 
L 357.383411 -40.529235 
L 357.115167 -40.529235 
L 356.846923 -40.529235 
L 356.578679 -40.529235 
L 356.310436 -40.529235 
L 356.042192 -40.529235 
L 355.773948 -40.529235 
L 355.505704 -40.529235 
L 355.237461 -40.529235 
L 354.969217 -40.529235 
L 354.700973 -40.529235 
L 354.432729 -40.529235 
L 354.164486 -40.529235 
L 353.896242 -40.529235 
L 353.627998 -40.529235 
L 353.359754 -40.529235 
L 353.09151 -40.529235 
L 352.823267 -40.529235 
L 352.555023 -40.529235 
L 352.286779 -40.529235 
L 352.018535 -40.529235 
L 351.750292 -40.529235 
L 351.482048 -40.529235 
L 351.213804 -40.529235 
L 350.94556 -40.529235 
L 350.677316 -40.529235 
L 350.409073 -40.529235 
L 350.140829 -40.529235 
L 349.872585 -40.529235 
L 349.604341 -40.529235 
L 349.336098 -40.529235 
L 349.067854 -40.529235 
L 348.79961 -40.529235 
L 348.531366 -40.529235 
L 348.263123 -40.529235 
L 347.994879 -40.529235 
L 347.726635 -40.529235 
L 347.458391 -40.529235 
L 347.190147 -40.529235 
L 346.921904 -40.529235 
L 346.65366 -40.529235 
L 346.385416 -40.529235 
L 346.117172 -40.529235 
L 345.848929 -40.529235 
L 345.580685 -40.529235 
L 345.312441 -40.529235 
L 345.044197 -40.529235 
L 344.775953 -40.529235 
L 344.50771 -40.529235 
L 344.239466 -40.529235 
L 343.971222 -40.529235 
L 343.702978 -40.529235 
L 343.434735 -40.529235 
L 343.166491 -40.529235 
L 342.898247 -40.529235 
L 342.630003 -40.529235 
L 342.361759 -40.529235 
L 342.093516 -40.529235 
L 341.825272 -40.529235 
L 341.557028 -40.529235 
L 341.288784 -40.529235 
L 341.020541 -40.529235 
L 340.752297 -40.529235 
L 340.484053 -40.529235 
L 340.215809 -40.529235 
L 339.947566 -40.529235 
L 339.679322 -40.529235 
L 339.411078 -40.529235 
L 339.142834 -40.529235 
L 338.87459 -40.529235 
L 338.606347 -40.529235 
L 338.338103 -40.529235 
L 338.069859 -40.529235 
L 337.801615 -40.529235 
L 337.533372 -40.529235 
L 337.265128 -40.529235 
L 336.996884 -40.529235 
L 336.72864 -40.529235 
L 336.460396 -40.529235 
L 336.192153 -40.529235 
L 335.923909 -40.529235 
L 335.655665 -40.529235 
L 335.387421 -40.529235 
L 335.119178 -40.529235 
L 334.850934 -40.529235 
L 334.58269 -40.529235 
L 334.314446 -40.529235 
L 334.046203 -40.529235 
L 333.777959 -40.529235 
L 333.509715 -40.529235 
L 333.241471 -40.529235 
L 332.973227 -40.529235 
L 332.704984 -40.529235 
L 332.43674 -40.529235 
L 332.168496 -40.529235 
L 331.900252 -40.529235 
L 331.632009 -40.529235 
L 331.363765 -40.529235 
L 331.095521 -40.529235 
L 330.827277 -40.529235 
L 330.559033 -40.529235 
L 330.29079 -40.529235 
L 330.022546 -40.529235 
L 329.754302 -40.529235 
L 329.486058 -40.529235 
L 329.217815 -40.529235 
L 328.949571 -40.529235 
L 328.681327 -40.529235 
L 328.413083 -40.529235 
L 328.144839 -40.529235 
L 327.876596 -40.529235 
L 327.608352 -40.529235 
L 327.340108 -40.529235 
L 327.071864 -40.529235 
L 326.803621 -40.529235 
L 326.535377 -40.529235 
L 326.267133 -40.529235 
L 325.998889 -40.529235 
L 325.730646 -40.529235 
L 325.462402 -40.529235 
L 325.194158 -40.529235 
L 324.925914 -40.529235 
L 324.65767 -40.529235 
L 324.389427 -40.529235 
L 324.121183 -40.529235 
L 323.852939 -40.529235 
L 323.584695 -40.529235 
L 323.316452 -40.529235 
L 323.048208 -40.529235 
L 322.779964 -40.529235 
L 322.51172 -40.529235 
L 322.243476 -40.529235 
L 321.975233 -40.529235 
L 321.706989 -40.529235 
L 321.438745 -40.529235 
L 321.170501 -40.529235 
L 320.902258 -40.529235 
L 320.634014 -40.529235 
L 320.36577 -40.529235 
L 320.097526 -40.529235 
L 319.829283 -40.529235 
L 319.561039 -40.529235 
L 319.292795 -40.529235 
L 319.024551 -40.529235 
L 318.756307 -40.529235 
L 318.488064 -40.529235 
L 318.21982 -40.529235 
L 317.951576 -40.529235 
L 317.683332 -40.529235 
L 317.415089 -40.529235 
L 317.146845 -40.529235 
L 316.878601 -40.529235 
L 316.610357 -40.529235 
L 316.342113 -40.529235 
L 316.07387 -40.529235 
L 315.805626 -40.529235 
L 315.537382 -40.529235 
L 315.269138 -40.529235 
L 315.000895 -40.529235 
L 314.732651 -40.529235 
L 314.464407 -40.529235 
L 314.196163 -40.529235 
L 313.927919 -40.529235 
L 313.659676 -40.529235 
L 313.391432 -40.529235 
L 313.123188 -40.529235 
L 312.854944 -40.529235 
L 312.586701 -40.529235 
L 312.318457 -40.529235 
L 312.050213 -40.529235 
L 311.781969 -40.529235 
L 311.513726 -40.529235 
L 311.245482 -40.529235 
L 310.977238 -40.529235 
L 310.708994 -40.529235 
L 310.44075 -40.529235 
L 310.172507 -40.529235 
L 309.904263 -40.529235 
L 309.636019 -40.529235 
L 309.367775 -40.529235 
L 309.099532 -40.529235 
L 308.831288 -40.529235 
L 308.563044 -40.529235 
L 308.2948 -40.529235 
L 308.026556 -40.529235 
L 307.758313 -40.529235 
L 307.490069 -40.529235 
L 307.221825 -40.529235 
L 306.953581 -40.529235 
L 306.685338 -40.529235 
L 306.417094 -40.529235 
L 306.14885 -40.529235 
L 305.880606 -40.529235 
L 305.612362 -40.529235 
L 305.344119 -40.529235 
L 305.075875 -40.529235 
L 304.807631 -40.529235 
L 304.539387 -40.529235 
L 304.271144 -40.529235 
L 304.0029 -40.529235 
L 303.734656 -40.529235 
L 303.466412 -40.529235 
L 303.198169 -40.529235 
L 302.929925 -40.529235 
L 302.661681 -40.529235 
L 302.393437 -40.529235 
L 302.125193 -40.529235 
L 301.85695 -40.529235 
L 301.588706 -40.529235 
L 301.320462 -40.529235 
L 301.052218 -40.529235 
L 300.783975 -40.529235 
L 300.515731 -40.529235 
L 300.247487 -40.529235 
L 299.979243 -40.529235 
L 299.710999 -40.529235 
L 299.442756 -40.529235 
L 299.174512 -40.529235 
L 298.906268 -40.529235 
L 298.638024 -40.529235 
L 298.369781 -40.529235 
L 298.101537 -40.529235 
L 297.833293 -40.529235 
L 297.565049 -40.529235 
L 297.296806 -40.529235 
L 297.028562 -40.529235 
L 296.760318 -40.529235 
L 296.492074 -40.529235 
L 296.22383 -40.529235 
L 295.955587 -40.529235 
L 295.687343 -40.529235 
L 295.419099 -40.529235 
L 295.150855 -40.529235 
L 294.882612 -40.529235 
L 294.614368 -40.529235 
L 294.346124 -40.529235 
L 294.07788 -40.529235 
L 293.809636 -40.529235 
L 293.541393 -40.529235 
L 293.273149 -40.529235 
L 293.004905 -40.529235 
L 292.736661 -40.529235 
L 292.468418 -40.529235 
L 292.200174 -40.529235 
L 291.93193 -40.529235 
L 291.663686 -40.529235 
L 291.395442 -40.529235 
L 291.127199 -40.529235 
L 290.858955 -40.529235 
L 290.590711 -40.529235 
L 290.322467 -40.529235 
L 290.054224 -40.529235 
L 289.78598 -40.529235 
L 289.517736 -40.529235 
L 289.249492 -40.529235 
L 288.981249 -40.529235 
L 288.713005 -40.529235 
L 288.444761 -40.529235 
L 288.176517 -40.529235 
L 287.908273 -40.529235 
L 287.64003 -40.529235 
L 287.371786 -40.529235 
L 287.103542 -40.529235 
L 286.835298 -40.529235 
L 286.567055 -40.529235 
L 286.298811 -40.529235 
L 286.030567 -40.529235 
L 285.762323 -40.529235 
L 285.494079 -40.529235 
L 285.225836 -40.529235 
L 284.957592 -40.529235 
L 284.689348 -40.529235 
L 284.421104 -40.529235 
L 284.152861 -40.529235 
L 283.884617 -40.529235 
L 283.616373 -40.529235 
L 283.348129 -40.529235 
L 283.079886 -40.529235 
L 282.811642 -40.529235 
L 282.543398 -40.529235 
L 282.275154 -40.529235 
L 282.00691 -40.529235 
L 281.738667 -40.529235 
L 281.470423 -40.529235 
L 281.202179 -40.529235 
L 280.933935 -40.529235 
L 280.665692 -40.529235 
L 280.397448 -40.529235 
L 280.129204 -40.529235 
L 279.86096 -40.529235 
L 279.592716 -40.529235 
L 279.324473 -40.529235 
L 279.056229 -40.529235 
L 278.787985 -40.529235 
L 278.519741 -40.529235 
L 278.251498 -40.529235 
L 277.983254 -40.529235 
L 277.71501 -40.529235 
z
" style="stroke: #000000; stroke-opacity: 0.1; stroke-width: 0.5"/>
    </defs>
    <g clip-path="url(#pbad2bd1a0b)">
     <use xlink:href="#m5b2f9d2cb3" x="0" y="153.115422" style="fill-opacity: 0.1; stroke: #000000; stroke-opacity: 0.1; stroke-width: 0.5"/>
    </g>
   </g>
   <g id="line2d_31">
    <path d="M 277.71501 12.21839 
L 411.568653 112.586188 
L 411.568653 112.586188 
" clip-path="url(#pbad2bd1a0b)" style="fill: none; stroke: #000000; stroke-opacity: 0.5; stroke-width: 0.7; stroke-linecap: square"/>
   </g>
   <g id="line2d_32">
    <path d="M 277.71501 112.586188 
L 411.568653 112.586188 
L 411.568653 112.586188 
" clip-path="url(#pbad2bd1a0b)" style="fill: none; stroke: #000000; stroke-width: 0.7; stroke-linecap: square"/>
   </g>
   <g id="patch_6">
    <path d="M 271.022328 117.604578 
L 271.022328 7.2 
" style="fill: none; stroke: #000000; stroke-width: 0.5; stroke-linejoin: miter; stroke-linecap: square"/>
   </g>
   <g id="patch_7">
    <path d="M 271.022328 117.604578 
L 418.261335 117.604578 
" style="fill: none; stroke: #000000; stroke-width: 0.5; stroke-linejoin: miter; stroke-linecap: square"/>
   </g>
  </g>
 </g>
 <defs>
  <clipPath id="p90be145ead">
   <rect x="60.118624" y="7.2" width="147.239007" height="110.404578"/>
  </clipPath>
  <clipPath id="pbad2bd1a0b">
   <rect x="271.022328" y="7.2" width="147.239007" height="110.404578"/>
  </clipPath>
 </defs>
</svg>
