<?xml version="1.0" encoding="utf-8" standalone="no"?>
<!DOCTYPE svg PUBLIC "-//W3C//DTD SVG 1.1//EN"
  "http://www.w3.org/Graphics/SVG/1.1/DTD/svg11.dtd">
<svg xmlns:xlink="http://www.w3.org/1999/xlink" width="425.461335pt" height="153.115422pt" viewBox="0 0 425.461335 153.115422" xmlns="http://www.w3.org/2000/svg" version="1.1">
 <metadata>
  <rdf:RDF xmlns:dc="http://purl.org/dc/elements/1.1/" xmlns:cc="http://creativecommons.org/ns#" xmlns:rdf="http://www.w3.org/1999/02/22-rdf-syntax-ns#">
   <cc:Work>
    <dc:type rdf:resource="http://purl.org/dc/dcmitype/StillImage"/>
    <dc:date>2024-02-20T17:29:17.850446</dc:date>
    <dc:format>image/svg+xml</dc:format>
    <dc:creator>
     <cc:Agent>
      <dc:title>Matplotlib v3.8.2, https://matplotlib.org/</dc:title>
     </cc:Agent>
    </dc:creator>
   </cc:Work>
  </rdf:RDF>
 </metadata>
 <defs>
  <style type="text/css">*{stroke-linejoin: round; stroke-linecap: butt}</style>
 </defs>
 <g id="figure_1">
  <g id="patch_1">
   <path d="M 0 153.115422 
L 425.461335 153.115422 
L 425.461335 0 
L 0 0 
z
" style="fill: #ffffff"/>
  </g>
  <g id="axes_1">
   <g id="patch_2">
    <path d="M 59.310588 117.604578 
L 207.357631 117.604578 
L 207.357631 7.2 
L 59.310588 7.2 
z
" style="fill: #ffffff"/>
   </g>
   <g id="matplotlib.axis_1">
    <g id="xtick_1">
     <g id="line2d_1">
      <path d="M 66.039999 117.604578 
L 66.039999 7.2 
" clip-path="url(#p54f6f90383)" style="fill: none; stroke: #d3d3d3; stroke-width: 0.2; stroke-linecap: square"/>
     </g>
     <g id="line2d_2">
      <defs>
       <path id="m92aff6cf9e" d="M 0 0 
L 0 -3.5 
" style="stroke: #000000; stroke-width: 0.8"/>
      </defs>
      <g>
       <use xlink:href="#m92aff6cf9e" x="66.039999" y="117.604578" style="stroke: #000000; stroke-width: 0.8"/>
      </g>
     </g>
     <g id="text_1">
      <!-- $\mathdefault{0}$ -->
      <g transform="translate(63.549332 128.023076) scale(0.1 -0.1)">
       <defs>
        <path id="CMR17-30" d="M 2688 2038 
C 2688 2430 2682 3099 2413 3613 
C 2176 4063 1798 4224 1466 4224 
C 1158 4224 768 4082 525 3620 
C 269 3137 243 2539 243 2038 
C 243 1671 250 1112 448 623 
C 723 -39 1216 -128 1466 -128 
C 1760 -128 2208 -7 2470 604 
C 2662 1048 2688 1568 2688 2038 
z
M 1466 -26 
C 1056 -26 813 328 723 816 
C 653 1196 653 1749 653 2109 
C 653 2604 653 3015 736 3407 
C 858 3954 1216 4121 1466 4121 
C 1728 4121 2067 3947 2189 3420 
C 2272 3054 2278 2623 2278 2109 
C 2278 1691 2278 1176 2202 797 
C 2067 96 1690 -26 1466 -26 
z
" transform="scale(0.015625)"/>
       </defs>
       <use xlink:href="#CMR17-30" transform="scale(0.996264)"/>
      </g>
     </g>
    </g>
    <g id="xtick_2">
     <g id="line2d_3">
      <path d="M 119.875287 117.604578 
L 119.875287 7.2 
" clip-path="url(#p54f6f90383)" style="fill: none; stroke: #d3d3d3; stroke-width: 0.2; stroke-linecap: square"/>
     </g>
     <g id="line2d_4">
      <g>
       <use xlink:href="#m92aff6cf9e" x="119.875287" y="117.604578" style="stroke: #000000; stroke-width: 0.8"/>
      </g>
     </g>
     <g id="text_2">
      <!-- $\mathdefault{2}$ -->
      <g transform="translate(117.38462 128.023076) scale(0.1 -0.1)">
       <defs>
        <path id="CMR17-32" d="M 2669 990 
L 2554 990 
C 2490 537 2438 460 2413 422 
C 2381 371 1920 371 1830 371 
L 602 371 
C 832 620 1280 1073 1824 1596 
C 2214 1966 2669 2400 2669 3033 
C 2669 3788 2067 4224 1395 4224 
C 691 4224 262 3603 262 3027 
C 262 2777 448 2745 525 2745 
C 589 2745 781 2783 781 3007 
C 781 3206 614 3264 525 3264 
C 486 3264 448 3257 422 3244 
C 544 3788 915 4057 1306 4057 
C 1862 4057 2227 3616 2227 3033 
C 2227 2477 1901 1998 1536 1583 
L 262 147 
L 262 0 
L 2515 0 
L 2669 990 
z
" transform="scale(0.015625)"/>
       </defs>
       <use xlink:href="#CMR17-32" transform="scale(0.996264)"/>
      </g>
     </g>
    </g>
    <g id="xtick_3">
     <g id="line2d_5">
      <path d="M 173.710576 117.604578 
L 173.710576 7.2 
" clip-path="url(#p54f6f90383)" style="fill: none; stroke: #d3d3d3; stroke-width: 0.2; stroke-linecap: square"/>
     </g>
     <g id="line2d_6">
      <g>
       <use xlink:href="#m92aff6cf9e" x="173.710576" y="117.604578" style="stroke: #000000; stroke-width: 0.8"/>
      </g>
     </g>
     <g id="text_3">
      <!-- $\mathdefault{4}$ -->
      <g transform="translate(171.219908 128.023076) scale(0.1 -0.1)">
       <defs>
        <path id="CMR17-34" d="M 2150 4147 
C 2150 4281 2144 4288 2029 4288 
L 128 1254 
L 128 1088 
L 1779 1088 
L 1779 460 
C 1779 230 1766 166 1318 166 
L 1197 166 
L 1197 0 
C 1402 12 1747 12 1965 12 
C 2182 12 2528 12 2733 0 
L 2733 166 
L 2611 166 
C 2163 166 2150 230 2150 460 
L 2150 1088 
L 2803 1088 
L 2803 1254 
L 2150 1254 
L 2150 4147 
z
M 1798 3723 
L 1798 1254 
L 256 1254 
L 1798 3723 
z
" transform="scale(0.015625)"/>
       </defs>
       <use xlink:href="#CMR17-34" transform="scale(0.996264)"/>
      </g>
     </g>
    </g>
    <g id="text_4">
     <!-- $x$ [m] -->
     <g transform="translate(119.927916 142.92663) scale(0.12 -0.12)">
      <defs>
       <path id="CMMI12-78" d="M 3034 2624 
C 2829 2585 2752 2431 2752 2310 
C 2752 2156 2874 2105 2963 2105 
C 3155 2105 3290 2271 3290 2444 
C 3290 2694 2982 2816 2714 2816 
C 2323 2816 2106 2451 2048 2329 
C 1901 2790 1504 2816 1389 2816 
C 736 2816 390 1993 390 1849 
C 390 1823 416 1790 461 1790 
C 512 1790 525 1829 538 1855 
C 755 2572 1184 2687 1370 2687 
C 1658 2687 1715 2438 1715 2284 
C 1715 2143 1677 1993 1600 1678 
L 1382 778 
C 1286 390 1101 64 762 64 
C 730 64 570 64 435 126 
C 666 166 717 358 717 435 
C 717 563 621 640 499 640 
C 346 640 179 505 179 300 
C 179 57 480 -64 755 -64 
C 1062 -64 1280 153 1414 415 
C 1517 64 1837 -64 2074 -64 
C 2726 -64 3072 751 3072 896 
C 3072 929 3046 955 3008 955 
C 2950 955 2944 922 2925 870 
C 2752 300 2381 64 2093 64 
C 1869 64 1747 204 1747 467 
C 1747 607 1773 712 1875 1146 
L 2099 2039 
C 2195 2425 2413 2687 2707 2687 
C 2720 2687 2899 2687 3034 2624 
z
" transform="scale(0.015625)"/>
       <path id="CMR17-5b" d="M 1504 -1600 
L 1504 -1376 
L 902 -1376 
L 902 4575 
L 1504 4575 
L 1504 4800 
L 678 4800 
L 678 -1600 
L 1504 -1600 
z
" transform="scale(0.015625)"/>
       <path id="CMR17-6d" d="M 4326 1954 
C 4326 2276 4269 2816 3507 2816 
C 3072 2816 2771 2520 2656 2173 
L 2650 2173 
C 2573 2700 2195 2816 1837 2816 
C 1331 2816 1069 2424 973 2166 
L 966 2166 
L 966 2816 
L 211 2745 
L 211 2578 
C 589 2578 646 2540 646 2231 
L 646 443 
C 646 198 621 166 211 166 
L 211 0 
C 365 12 646 12 813 12 
C 979 12 1267 12 1421 0 
L 1421 166 
C 1011 166 986 192 986 443 
L 986 1678 
C 986 2269 1344 2713 1792 2713 
C 2266 2713 2317 2289 2317 1980 
L 2317 443 
C 2317 198 2291 166 1882 166 
L 1882 0 
C 2035 12 2317 12 2483 12 
C 2650 12 2938 12 3091 0 
L 3091 166 
C 2682 166 2656 192 2656 443 
L 2656 1678 
C 2656 2269 3014 2713 3462 2713 
C 3936 2713 3987 2289 3987 1980 
L 3987 443 
C 3987 198 3962 166 3552 166 
L 3552 0 
C 3706 12 3987 12 4154 12 
C 4320 12 4608 12 4762 0 
L 4762 166 
C 4352 166 4326 192 4326 443 
L 4326 1954 
z
" transform="scale(0.015625)"/>
       <path id="CMR17-5d" d="M 915 4800 
L 90 4800 
L 90 4575 
L 691 4575 
L 691 -1376 
L 90 -1376 
L 90 -1600 
L 915 -1600 
L 915 4800 
z
" transform="scale(0.015625)"/>
      </defs>
      <use xlink:href="#CMMI12-78" transform="scale(0.996264)"/>
      <use xlink:href="#CMR17-5b" transform="translate(85.510026 0) scale(0.996264)"/>
      <use xlink:href="#CMR17-6d" transform="translate(110.381084 0) scale(0.996264)"/>
      <use xlink:href="#CMR17-5d" transform="translate(187.300674 0) scale(0.996264)"/>
     </g>
    </g>
   </g>
   <g id="matplotlib.axis_2">
    <g id="ytick_1">
     <g id="line2d_7">
      <path d="M 59.310588 112.586188 
L 207.357631 112.586188 
" clip-path="url(#p54f6f90383)" style="fill: none; stroke: #d3d3d3; stroke-width: 0.2; stroke-linecap: square"/>
     </g>
     <g id="line2d_8">
      <defs>
       <path id="m736b87e40f" d="M 0 0 
L 3.5 0 
" style="stroke: #000000; stroke-width: 0.8"/>
      </defs>
      <g>
       <use xlink:href="#m736b87e40f" x="59.310588" y="112.586188" style="stroke: #000000; stroke-width: 0.8"/>
      </g>
     </g>
     <g id="text_5">
      <!-- $\mathdefault{0.00000}$ -->
      <g transform="translate(23.155168 116.045437) scale(0.1 -0.1)">
       <defs>
        <path id="CMMI12-3a" d="M 1178 307 
C 1178 492 1024 620 870 620 
C 685 620 557 467 557 313 
C 557 128 710 0 864 0 
C 1050 0 1178 153 1178 307 
z
" transform="scale(0.015625)"/>
       </defs>
       <use xlink:href="#CMR17-30" transform="scale(0.996264)"/>
       <use xlink:href="#CMMI12-3a" transform="translate(45.690477 0) scale(0.996264)"/>
       <use xlink:href="#CMR17-30" transform="translate(72.787654 0) scale(0.996264)"/>
       <use xlink:href="#CMR17-30" transform="translate(118.478131 0) scale(0.996264)"/>
       <use xlink:href="#CMR17-30" transform="translate(164.168608 0) scale(0.996264)"/>
       <use xlink:href="#CMR17-30" transform="translate(209.859086 0) scale(0.996264)"/>
       <use xlink:href="#CMR17-30" transform="translate(255.549563 0) scale(0.996264)"/>
      </g>
     </g>
    </g>
    <g id="ytick_2">
     <g id="line2d_9">
      <path d="M 59.310588 87.494238 
L 207.357631 87.494238 
" clip-path="url(#p54f6f90383)" style="fill: none; stroke: #d3d3d3; stroke-width: 0.2; stroke-linecap: square"/>
     </g>
     <g id="line2d_10">
      <g>
       <use xlink:href="#m736b87e40f" x="59.310588" y="87.494238" style="stroke: #000000; stroke-width: 0.8"/>
      </g>
     </g>
     <g id="text_6">
      <!-- $\mathdefault{0.00025}$ -->
      <g transform="translate(23.155168 90.953487) scale(0.1 -0.1)">
       <defs>
        <path id="CMR17-35" d="M 730 3750 
C 794 3724 1056 3641 1325 3641 
C 1920 3641 2246 3961 2432 4140 
C 2432 4191 2432 4224 2394 4224 
C 2387 4224 2374 4224 2323 4198 
C 2099 4102 1837 4032 1517 4032 
C 1325 4032 1037 4055 723 4191 
C 653 4224 640 4224 634 4224 
C 602 4224 595 4217 595 4090 
L 595 2231 
C 595 2113 595 2080 659 2080 
C 691 2080 704 2093 736 2139 
C 941 2435 1222 2560 1542 2560 
C 1766 2560 2246 2415 2246 1293 
C 2246 1087 2246 716 2054 422 
C 1894 159 1645 25 1370 25 
C 947 25 518 319 403 812 
C 429 806 480 793 506 793 
C 589 793 749 838 749 1036 
C 749 1209 627 1280 506 1280 
C 358 1280 262 1190 262 1011 
C 262 454 704 -128 1382 -128 
C 2042 -128 2669 441 2669 1267 
C 2669 2054 2170 2662 1549 2662 
C 1222 2662 947 2540 730 2304 
L 730 3750 
z
" transform="scale(0.015625)"/>
       </defs>
       <use xlink:href="#CMR17-30" transform="scale(0.996264)"/>
       <use xlink:href="#CMMI12-3a" transform="translate(45.690477 0) scale(0.996264)"/>
       <use xlink:href="#CMR17-30" transform="translate(72.787654 0) scale(0.996264)"/>
       <use xlink:href="#CMR17-30" transform="translate(118.478131 0) scale(0.996264)"/>
       <use xlink:href="#CMR17-30" transform="translate(164.168608 0) scale(0.996264)"/>
       <use xlink:href="#CMR17-32" transform="translate(209.859086 0) scale(0.996264)"/>
       <use xlink:href="#CMR17-35" transform="translate(255.549563 0) scale(0.996264)"/>
      </g>
     </g>
    </g>
    <g id="ytick_3">
     <g id="line2d_11">
      <path d="M 59.310588 62.402289 
L 207.357631 62.402289 
" clip-path="url(#p54f6f90383)" style="fill: none; stroke: #d3d3d3; stroke-width: 0.2; stroke-linecap: square"/>
     </g>
     <g id="line2d_12">
      <g>
       <use xlink:href="#m736b87e40f" x="59.310588" y="62.402289" style="stroke: #000000; stroke-width: 0.8"/>
      </g>
     </g>
     <g id="text_7">
      <!-- $\mathdefault{0.00050}$ -->
      <g transform="translate(23.155168 65.861538) scale(0.1 -0.1)">
       <use xlink:href="#CMR17-30" transform="scale(0.996264)"/>
       <use xlink:href="#CMMI12-3a" transform="translate(45.690477 0) scale(0.996264)"/>
       <use xlink:href="#CMR17-30" transform="translate(72.787654 0) scale(0.996264)"/>
       <use xlink:href="#CMR17-30" transform="translate(118.478131 0) scale(0.996264)"/>
       <use xlink:href="#CMR17-30" transform="translate(164.168608 0) scale(0.996264)"/>
       <use xlink:href="#CMR17-35" transform="translate(209.859086 0) scale(0.996264)"/>
       <use xlink:href="#CMR17-30" transform="translate(255.549563 0) scale(0.996264)"/>
      </g>
     </g>
    </g>
    <g id="ytick_4">
     <g id="line2d_13">
      <path d="M 59.310588 37.310339 
L 207.357631 37.310339 
" clip-path="url(#p54f6f90383)" style="fill: none; stroke: #d3d3d3; stroke-width: 0.2; stroke-linecap: square"/>
     </g>
     <g id="line2d_14">
      <g>
       <use xlink:href="#m736b87e40f" x="59.310588" y="37.310339" style="stroke: #000000; stroke-width: 0.8"/>
      </g>
     </g>
     <g id="text_8">
      <!-- $\mathdefault{0.00075}$ -->
      <g transform="translate(23.155168 40.769589) scale(0.1 -0.1)">
       <defs>
        <path id="CMR17-37" d="M 2886 3955 
L 2886 4096 
L 1382 4096 
C 634 4096 621 4166 595 4288 
L 480 4288 
L 294 3104 
L 410 3104 
C 429 3226 474 3552 550 3673 
C 589 3724 1062 3724 1171 3724 
L 2579 3724 
L 1869 2670 
C 1395 1961 1069 1003 1069 166 
C 1069 89 1069 -128 1299 -128 
C 1530 -128 1530 89 1530 172 
L 1530 466 
C 1530 1514 1709 2204 2003 2644 
L 2886 3955 
z
" transform="scale(0.015625)"/>
       </defs>
       <use xlink:href="#CMR17-30" transform="scale(0.996264)"/>
       <use xlink:href="#CMMI12-3a" transform="translate(45.690477 0) scale(0.996264)"/>
       <use xlink:href="#CMR17-30" transform="translate(72.787654 0) scale(0.996264)"/>
       <use xlink:href="#CMR17-30" transform="translate(118.478131 0) scale(0.996264)"/>
       <use xlink:href="#CMR17-30" transform="translate(164.168608 0) scale(0.996264)"/>
       <use xlink:href="#CMR17-37" transform="translate(209.859086 0) scale(0.996264)"/>
       <use xlink:href="#CMR17-35" transform="translate(255.549563 0) scale(0.996264)"/>
      </g>
     </g>
    </g>
    <g id="ytick_5">
     <g id="line2d_15">
      <path d="M 59.310588 12.21839 
L 207.357631 12.21839 
" clip-path="url(#p54f6f90383)" style="fill: none; stroke: #d3d3d3; stroke-width: 0.2; stroke-linecap: square"/>
     </g>
     <g id="line2d_16">
      <g>
       <use xlink:href="#m736b87e40f" x="59.310588" y="12.21839" style="stroke: #000000; stroke-width: 0.8"/>
      </g>
     </g>
     <g id="text_9">
      <!-- $\mathdefault{0.00100}$ -->
      <g transform="translate(23.155168 15.677639) scale(0.1 -0.1)">
       <defs>
        <path id="CMR17-31" d="M 1702 4083 
C 1702 4217 1696 4224 1606 4224 
C 1357 3927 979 3833 621 3820 
C 602 3820 570 3820 563 3808 
C 557 3795 557 3782 557 3648 
C 755 3648 1088 3686 1344 3839 
L 1344 467 
C 1344 243 1331 166 781 166 
L 589 166 
L 589 0 
C 896 6 1216 12 1523 12 
C 1830 12 2150 6 2458 0 
L 2458 166 
L 2266 166 
C 1715 166 1702 236 1702 467 
L 1702 4083 
z
" transform="scale(0.015625)"/>
       </defs>
       <use xlink:href="#CMR17-30" transform="scale(0.996264)"/>
       <use xlink:href="#CMMI12-3a" transform="translate(45.690477 0) scale(0.996264)"/>
       <use xlink:href="#CMR17-30" transform="translate(72.787654 0) scale(0.996264)"/>
       <use xlink:href="#CMR17-30" transform="translate(118.478131 0) scale(0.996264)"/>
       <use xlink:href="#CMR17-31" transform="translate(164.168608 0) scale(0.996264)"/>
       <use xlink:href="#CMR17-30" transform="translate(209.859086 0) scale(0.996264)"/>
       <use xlink:href="#CMR17-30" transform="translate(255.549563 0) scale(0.996264)"/>
      </g>
     </g>
    </g>
    <g id="text_10">
     <!-- $V_x$ [kN] -->
     <g transform="translate(16.166376 81.126377) rotate(-90) scale(0.12 -0.12)">
      <defs>
       <path id="CMMI12-56" d="M 3962 3644 
C 4179 3987 4378 4140 4704 4166 
C 4768 4172 4819 4172 4819 4287 
C 4819 4313 4806 4352 4749 4352 
C 4634 4352 4358 4339 4243 4339 
C 4058 4339 3866 4352 3686 4352 
C 3635 4352 3571 4352 3571 4230 
C 3571 4172 3629 4166 3654 4166 
C 3891 4146 3917 4032 3917 3956 
C 3917 3860 3827 3714 3821 3708 
L 1811 540 
L 1363 3968 
C 1363 4153 1696 4166 1766 4166 
C 1862 4166 1920 4166 1920 4287 
C 1920 4352 1850 4352 1830 4352 
C 1722 4352 1594 4339 1485 4339 
L 1126 4339 
C 659 4339 467 4352 461 4352 
C 422 4352 346 4352 346 4236 
C 346 4166 390 4166 493 4166 
C 819 4166 838 4108 858 3949 
L 1370 25 
C 1389 -109 1389 -128 1478 -128 
C 1555 -128 1587 -109 1651 -7 
L 3962 3644 
z
" transform="scale(0.015625)"/>
       <path id="CMR17-6b" d="M 1670 1679 
C 1664 1692 1632 1730 1632 1749 
C 1632 1762 2086 2175 2144 2226 
C 2509 2532 2739 2563 2906 2570 
L 2906 2735 
C 2867 2735 2854 2735 2848 2729 
L 2534 2722 
C 2355 2722 2080 2722 1907 2735 
L 1907 2570 
C 1997 2563 2061 2513 2061 2423 
C 2061 2296 1933 2175 1926 2175 
L 960 1298 
L 960 4416 
L 198 4345 
L 198 4179 
C 576 4179 634 4141 634 3835 
L 634 439 
C 634 198 608 166 198 166 
L 198 0 
C 352 12 634 12 794 12 
C 954 12 1235 12 1389 0 
L 1389 166 
C 979 166 954 191 954 439 
L 954 1139 
L 1395 1540 
L 2042 586 
C 2118 471 2182 382 2182 299 
C 2182 185 2067 166 1990 166 
L 1990 0 
C 2144 12 2419 12 2579 12 
C 2694 12 2931 6 3040 0 
L 3040 166 
C 2739 166 2669 223 2477 503 
L 1670 1679 
z
" transform="scale(0.015625)"/>
       <path id="CMR17-4e" d="M 1312 4275 
C 1267 4345 1261 4352 1139 4352 
L 326 4352 
L 326 4185 
L 448 4185 
C 704 4185 819 4153 838 4147 
L 838 624 
C 838 465 838 166 326 166 
L 326 0 
C 474 12 742 12 902 12 
C 1062 12 1331 12 1478 0 
L 1478 166 
C 966 166 966 465 966 624 
L 966 4057 
C 1011 4019 1011 4007 1056 3943 
L 3430 76 
C 3475 0 3494 0 3526 0 
C 3590 0 3590 19 3590 140 
L 3590 3726 
C 3590 3885 3590 4185 4102 4185 
L 4102 4352 
C 3955 4339 3686 4339 3526 4339 
C 3366 4339 3098 4339 2950 4352 
L 2950 4185 
C 3462 4185 3462 3885 3462 3726 
L 3462 777 
L 1312 4275 
z
" transform="scale(0.015625)"/>
      </defs>
      <use xlink:href="#CMMI12-56" transform="scale(0.996264)"/>
      <use xlink:href="#CMMI12-78" transform="translate(56.869579 -14.943915) scale(0.697382)"/>
      <use xlink:href="#CMR17-5b" transform="translate(126.247337 0) scale(0.996264)"/>
      <use xlink:href="#CMR17-6b" transform="translate(151.118395 0) scale(0.996264)"/>
      <use xlink:href="#CMR17-4e" transform="translate(199.411311 0) scale(0.996264)"/>
      <use xlink:href="#CMR17-5d" transform="translate(268.483741 0) scale(0.996264)"/>
     </g>
    </g>
   </g>
   <g id="PolyCollection_1">
    <defs>
     <path id="md09cc73ad6" d="M 66.039999 -40.529235 
L 66.039999 -140.897033 
L 66.309715 -140.897033 
L 66.579431 -140.897033 
L 66.849147 -140.897033 
L 67.118863 -140.897033 
L 67.388579 -140.897033 
L 67.658294 -140.897033 
L 67.92801 -140.897033 
L 68.197726 -140.897033 
L 68.467442 -140.897033 
L 68.737158 -140.897033 
L 69.006874 -140.897033 
L 69.27659 -140.897033 
L 69.546305 -140.897033 
L 69.816021 -140.897033 
L 70.085737 -140.897033 
L 70.355453 -140.897033 
L 70.625169 -140.897033 
L 70.894885 -140.897033 
L 71.164601 -140.897033 
L 71.434317 -140.897033 
L 71.704032 -140.897033 
L 71.973748 -140.897033 
L 72.243464 -140.897033 
L 72.51318 -140.897033 
L 72.782896 -140.897033 
L 73.052612 -140.897033 
L 73.322328 -140.897033 
L 73.592044 -140.897033 
L 73.861759 -140.897033 
L 74.131475 -140.897033 
L 74.401191 -140.897033 
L 74.670907 -140.897033 
L 74.940623 -140.897033 
L 75.210339 -140.897033 
L 75.480055 -140.897033 
L 75.749771 -140.897033 
L 76.019486 -140.897033 
L 76.289202 -140.897033 
L 76.558918 -140.897033 
L 76.828634 -140.897033 
L 77.09835 -140.897033 
L 77.368066 -140.897033 
L 77.637782 -140.897033 
L 77.907498 -140.897033 
L 78.177213 -140.897033 
L 78.446929 -140.897033 
L 78.716645 -140.897033 
L 78.986361 -140.897033 
L 79.256077 -140.897033 
L 79.525793 -140.897033 
L 79.795509 -140.897033 
L 80.065225 -140.897033 
L 80.33494 -140.897033 
L 80.604656 -140.897033 
L 80.874372 -140.897033 
L 81.144088 -140.897033 
L 81.413804 -140.897033 
L 81.68352 -140.897033 
L 81.953236 -140.897033 
L 82.222952 -140.897033 
L 82.492667 -140.897033 
L 82.762383 -140.897033 
L 83.032099 -140.897033 
L 83.301815 -140.897033 
L 83.571531 -140.897033 
L 83.841247 -140.897033 
L 84.110963 -140.897033 
L 84.380679 -140.897033 
L 84.650394 -140.897033 
L 84.92011 -140.897033 
L 85.189826 -140.897033 
L 85.459542 -140.897033 
L 85.729258 -140.897033 
L 85.998974 -140.897033 
L 86.26869 -140.897033 
L 86.538406 -140.897033 
L 86.808121 -140.897033 
L 87.077837 -140.897033 
L 87.347553 -140.897033 
L 87.617269 -140.897033 
L 87.886985 -140.897033 
L 88.156701 -140.897033 
L 88.426417 -140.897033 
L 88.696133 -140.897033 
L 88.965848 -140.897033 
L 89.235564 -140.897033 
L 89.50528 -140.897033 
L 89.774996 -140.897033 
L 90.044712 -140.897033 
L 90.314428 -140.897033 
L 90.584144 -140.897033 
L 90.853859 -140.897033 
L 91.123575 -140.897033 
L 91.393291 -140.897033 
L 91.663007 -140.897033 
L 91.932723 -140.897033 
L 92.202439 -140.897033 
L 92.472155 -140.897033 
L 92.741871 -140.897033 
L 93.011586 -140.897033 
L 93.281302 -140.897033 
L 93.551018 -140.897033 
L 93.820734 -140.897033 
L 94.09045 -140.897033 
L 94.360166 -140.897033 
L 94.629882 -140.897033 
L 94.899598 -140.897033 
L 95.169313 -140.897033 
L 95.439029 -140.897033 
L 95.708745 -140.897033 
L 95.978461 -140.897033 
L 96.248177 -140.897033 
L 96.517893 -140.897033 
L 96.787609 -140.897033 
L 97.057325 -140.897033 
L 97.32704 -140.897033 
L 97.596756 -140.897033 
L 97.866472 -140.897033 
L 98.136188 -140.897033 
L 98.405904 -140.897033 
L 98.67562 -140.897033 
L 98.945336 -140.897033 
L 99.215052 -140.897033 
L 99.484767 -140.897033 
L 99.754483 -140.897033 
L 100.024199 -140.897033 
L 100.293915 -140.897033 
L 100.563631 -140.897033 
L 100.833347 -140.897033 
L 101.103063 -140.897033 
L 101.372779 -140.897033 
L 101.642494 -140.897033 
L 101.91221 -140.897033 
L 102.181926 -140.897033 
L 102.451642 -140.897033 
L 102.721358 -140.897033 
L 102.991074 -140.897033 
L 103.26079 -140.897033 
L 103.530506 -140.897033 
L 103.800221 -140.897033 
L 104.069937 -140.897033 
L 104.339653 -140.897033 
L 104.609369 -140.897033 
L 104.879085 -140.897033 
L 105.148801 -140.897033 
L 105.418517 -140.897033 
L 105.688233 -140.897033 
L 105.957948 -140.897033 
L 106.227664 -140.897033 
L 106.49738 -140.897033 
L 106.767096 -140.897033 
L 107.036812 -140.897033 
L 107.306528 -140.897033 
L 107.576244 -140.897033 
L 107.84596 -140.897033 
L 108.115675 -140.897033 
L 108.385391 -140.897033 
L 108.655107 -140.897033 
L 108.924823 -140.897033 
L 109.194539 -140.897033 
L 109.464255 -140.897033 
L 109.733971 -140.897033 
L 110.003687 -140.897033 
L 110.273402 -140.897033 
L 110.543118 -140.897033 
L 110.812834 -140.897033 
L 111.08255 -140.897033 
L 111.352266 -140.897033 
L 111.621982 -140.897033 
L 111.891698 -140.897033 
L 112.161413 -140.897033 
L 112.431129 -140.897033 
L 112.700845 -140.897033 
L 112.970561 -140.897033 
L 113.240277 -140.897033 
L 113.509993 -140.897033 
L 113.779709 -140.897033 
L 114.049425 -140.897033 
L 114.31914 -140.897033 
L 114.588856 -140.897033 
L 114.858572 -140.897033 
L 115.128288 -140.897033 
L 115.398004 -140.897033 
L 115.66772 -140.897033 
L 115.937436 -140.897033 
L 116.207152 -140.897033 
L 116.476867 -140.897033 
L 116.746583 -140.897033 
L 117.016299 -140.897033 
L 117.286015 -140.897033 
L 117.555731 -140.897033 
L 117.825447 -140.897033 
L 118.095163 -140.897033 
L 118.364879 -140.897033 
L 118.634594 -140.897033 
L 118.90431 -140.897033 
L 119.174026 -140.897033 
L 119.443742 -140.897033 
L 119.713458 -140.897033 
L 119.983174 -140.897033 
L 120.25289 -140.897033 
L 120.522606 -140.897033 
L 120.792321 -140.897033 
L 121.062037 -140.897033 
L 121.331753 -140.897033 
L 121.601469 -140.897033 
L 121.871185 -140.897033 
L 122.140901 -140.897033 
L 122.410617 -140.897033 
L 122.680333 -140.897033 
L 122.950048 -140.897033 
L 123.219764 -140.897033 
L 123.48948 -140.897033 
L 123.759196 -140.897033 
L 124.028912 -140.897033 
L 124.298628 -140.897033 
L 124.568344 -140.897033 
L 124.83806 -140.897033 
L 125.107775 -140.897033 
L 125.377491 -140.897033 
L 125.647207 -140.897033 
L 125.916923 -140.897033 
L 126.186639 -140.897033 
L 126.456355 -140.897033 
L 126.726071 -140.897033 
L 126.995787 -140.897033 
L 127.265502 -140.897033 
L 127.535218 -140.897033 
L 127.804934 -140.897033 
L 128.07465 -140.897033 
L 128.344366 -140.897033 
L 128.614082 -140.897033 
L 128.883798 -140.897033 
L 129.153514 -140.897033 
L 129.423229 -140.897033 
L 129.692945 -140.897033 
L 129.962661 -140.897033 
L 130.232377 -140.897033 
L 130.502093 -140.897033 
L 130.771809 -140.897033 
L 131.041525 -140.897033 
L 131.311241 -140.897033 
L 131.580956 -140.897033 
L 131.850672 -140.897033 
L 132.120388 -140.897033 
L 132.390104 -140.897033 
L 132.65982 -140.897033 
L 132.929536 -140.897033 
L 133.199252 -140.897033 
L 133.468967 -140.897033 
L 133.738683 -140.897033 
L 134.008399 -140.897033 
L 134.278115 -140.897033 
L 134.547831 -140.897033 
L 134.817547 -140.897033 
L 135.087263 -140.897033 
L 135.356979 -140.897033 
L 135.626694 -140.897033 
L 135.89641 -140.897033 
L 136.166126 -140.897033 
L 136.435842 -140.897033 
L 136.705558 -140.897033 
L 136.975274 -140.897033 
L 137.24499 -140.897033 
L 137.514706 -140.897033 
L 137.784421 -140.897033 
L 138.054137 -140.897033 
L 138.323853 -140.897033 
L 138.593569 -140.897033 
L 138.863285 -140.897033 
L 139.133001 -140.897033 
L 139.402717 -140.897033 
L 139.672433 -140.897033 
L 139.942148 -140.897033 
L 140.211864 -140.897033 
L 140.48158 -140.897033 
L 140.751296 -140.897033 
L 141.021012 -140.897033 
L 141.290728 -140.897033 
L 141.560444 -140.897033 
L 141.83016 -140.897033 
L 142.099875 -140.897033 
L 142.369591 -140.897033 
L 142.639307 -140.897033 
L 142.909023 -140.897033 
L 143.178739 -140.897033 
L 143.448455 -140.897033 
L 143.718171 -140.897033 
L 143.987887 -140.897033 
L 144.257602 -140.897033 
L 144.527318 -140.897033 
L 144.797034 -140.897033 
L 145.06675 -140.897033 
L 145.336466 -140.897033 
L 145.606182 -140.897033 
L 145.875898 -140.897033 
L 146.145614 -140.897033 
L 146.415329 -140.897033 
L 146.685045 -140.897033 
L 146.954761 -140.897033 
L 147.224477 -140.897033 
L 147.494193 -140.897033 
L 147.763909 -140.897033 
L 148.033625 -140.897033 
L 148.303341 -140.897033 
L 148.573056 -140.897033 
L 148.842772 -140.897033 
L 149.112488 -140.897033 
L 149.382204 -140.897033 
L 149.65192 -140.897033 
L 149.921636 -140.897033 
L 150.191352 -140.897033 
L 150.461068 -140.897033 
L 150.730783 -140.897033 
L 151.000499 -140.897033 
L 151.270215 -140.897033 
L 151.539931 -140.897033 
L 151.809647 -140.897033 
L 152.079363 -140.897033 
L 152.349079 -140.897033 
L 152.618795 -140.897033 
L 152.88851 -140.897033 
L 153.158226 -140.897033 
L 153.427942 -140.897033 
L 153.697658 -140.897033 
L 153.967374 -140.897033 
L 154.23709 -140.897033 
L 154.506806 -140.897033 
L 154.776521 -140.897033 
L 155.046237 -140.897033 
L 155.315953 -140.897033 
L 155.585669 -140.897033 
L 155.855385 -140.897033 
L 156.125101 -140.897033 
L 156.394817 -140.897033 
L 156.664533 -140.897033 
L 156.934248 -140.897033 
L 157.203964 -140.897033 
L 157.47368 -140.897033 
L 157.743396 -140.897033 
L 158.013112 -140.897033 
L 158.282828 -140.897033 
L 158.552544 -140.897033 
L 158.82226 -140.897033 
L 159.091975 -140.897033 
L 159.361691 -140.897033 
L 159.631407 -140.897033 
L 159.901123 -140.897033 
L 160.170839 -140.897033 
L 160.440555 -140.897033 
L 160.710271 -140.897033 
L 160.979987 -140.897033 
L 161.249702 -140.897033 
L 161.519418 -140.897033 
L 161.789134 -140.897033 
L 162.05885 -140.897033 
L 162.328566 -140.897033 
L 162.598282 -140.897033 
L 162.867998 -140.897033 
L 163.137714 -140.897033 
L 163.407429 -140.897033 
L 163.677145 -140.897033 
L 163.946861 -140.897033 
L 164.216577 -140.897033 
L 164.486293 -140.897033 
L 164.756009 -140.897033 
L 165.025725 -140.897033 
L 165.295441 -140.897033 
L 165.565156 -140.897033 
L 165.834872 -140.897033 
L 166.104588 -140.897033 
L 166.374304 -140.897033 
L 166.64402 -140.897033 
L 166.913736 -140.897033 
L 167.183452 -140.897033 
L 167.453168 -140.897033 
L 167.722883 -140.897033 
L 167.992599 -140.897033 
L 168.262315 -140.897033 
L 168.532031 -140.897033 
L 168.801747 -140.897033 
L 169.071463 -140.897033 
L 169.341179 -140.897033 
L 169.610895 -140.897033 
L 169.88061 -140.897033 
L 170.150326 -140.897033 
L 170.420042 -140.897033 
L 170.689758 -140.897033 
L 170.959474 -140.897033 
L 171.22919 -140.897033 
L 171.498906 -140.897033 
L 171.768622 -140.897033 
L 172.038337 -140.897033 
L 172.308053 -140.897033 
L 172.577769 -140.897033 
L 172.847485 -140.897033 
L 173.117201 -140.897033 
L 173.386917 -140.897033 
L 173.656633 -140.897033 
L 173.926349 -140.897033 
L 174.196064 -140.897033 
L 174.46578 -140.897033 
L 174.735496 -140.897033 
L 175.005212 -140.897033 
L 175.274928 -140.897033 
L 175.544644 -140.897033 
L 175.81436 -140.897033 
L 176.084075 -140.897033 
L 176.353791 -140.897033 
L 176.623507 -140.897033 
L 176.893223 -140.897033 
L 177.162939 -140.897033 
L 177.432655 -140.897033 
L 177.702371 -140.897033 
L 177.972087 -140.897033 
L 178.241802 -140.897033 
L 178.511518 -140.897033 
L 178.781234 -140.897033 
L 179.05095 -140.897033 
L 179.320666 -140.897033 
L 179.590382 -140.897033 
L 179.860098 -140.897033 
L 180.129814 -140.897033 
L 180.399529 -140.897033 
L 180.669245 -140.897033 
L 180.938961 -140.897033 
L 181.208677 -140.897033 
L 181.478393 -140.897033 
L 181.748109 -140.897033 
L 182.017825 -140.897033 
L 182.287541 -140.897033 
L 182.557256 -140.897033 
L 182.826972 -140.897033 
L 183.096688 -140.897033 
L 183.366404 -140.897033 
L 183.63612 -140.897033 
L 183.905836 -140.897033 
L 184.175552 -140.897033 
L 184.445268 -140.897033 
L 184.714983 -140.897033 
L 184.984699 -140.897033 
L 185.254415 -140.897033 
L 185.524131 -140.897033 
L 185.793847 -140.897033 
L 186.063563 -140.897033 
L 186.333279 -140.897033 
L 186.602995 -140.897033 
L 186.87271 -140.897033 
L 187.142426 -140.897033 
L 187.412142 -140.897033 
L 187.681858 -140.897033 
L 187.951574 -140.897033 
L 188.22129 -140.897033 
L 188.491006 -140.897033 
L 188.760722 -140.897033 
L 189.030437 -140.897033 
L 189.300153 -140.897033 
L 189.569869 -140.897033 
L 189.839585 -140.897033 
L 190.109301 -140.897033 
L 190.379017 -140.897033 
L 190.648733 -140.897033 
L 190.918449 -140.897033 
L 191.188164 -140.897033 
L 191.45788 -140.897033 
L 191.727596 -140.897033 
L 191.997312 -140.897033 
L 192.267028 -140.897033 
L 192.536744 -140.897033 
L 192.80646 -140.897033 
L 193.076176 -140.897033 
L 193.345891 -140.897033 
L 193.615607 -140.897033 
L 193.885323 -140.897033 
L 194.155039 -140.897033 
L 194.424755 -140.897033 
L 194.694471 -140.897033 
L 194.964187 -140.897033 
L 195.233903 -140.897033 
L 195.503618 -140.897033 
L 195.773334 -140.897033 
L 196.04305 -140.897033 
L 196.312766 -140.897033 
L 196.582482 -140.897033 
L 196.852198 -140.897033 
L 197.121914 -140.897033 
L 197.391629 -140.897033 
L 197.661345 -140.897033 
L 197.931061 -140.897033 
L 198.200777 -140.897033 
L 198.470493 -140.897033 
L 198.740209 -140.897033 
L 199.009925 -140.897033 
L 199.279641 -140.897033 
L 199.549356 -140.897033 
L 199.819072 -140.897033 
L 200.088788 -140.897033 
L 200.358504 -140.897033 
L 200.62822 -140.897033 
L 200.62822 -40.529235 
L 200.62822 -40.529235 
L 200.358504 -40.529235 
L 200.088788 -40.529235 
L 199.819072 -40.529235 
L 199.549356 -40.529235 
L 199.279641 -40.529235 
L 199.009925 -40.529235 
L 198.740209 -40.529235 
L 198.470493 -40.529235 
L 198.200777 -40.529235 
L 197.931061 -40.529235 
L 197.661345 -40.529235 
L 197.391629 -40.529235 
L 197.121914 -40.529235 
L 196.852198 -40.529235 
L 196.582482 -40.529235 
L 196.312766 -40.529235 
L 196.04305 -40.529235 
L 195.773334 -40.529235 
L 195.503618 -40.529235 
L 195.233903 -40.529235 
L 194.964187 -40.529235 
L 194.694471 -40.529235 
L 194.424755 -40.529235 
L 194.155039 -40.529235 
L 193.885323 -40.529235 
L 193.615607 -40.529235 
L 193.345891 -40.529235 
L 193.076176 -40.529235 
L 192.80646 -40.529235 
L 192.536744 -40.529235 
L 192.267028 -40.529235 
L 191.997312 -40.529235 
L 191.727596 -40.529235 
L 191.45788 -40.529235 
L 191.188164 -40.529235 
L 190.918449 -40.529235 
L 190.648733 -40.529235 
L 190.379017 -40.529235 
L 190.109301 -40.529235 
L 189.839585 -40.529235 
L 189.569869 -40.529235 
L 189.300153 -40.529235 
L 189.030437 -40.529235 
L 188.760722 -40.529235 
L 188.491006 -40.529235 
L 188.22129 -40.529235 
L 187.951574 -40.529235 
L 187.681858 -40.529235 
L 187.412142 -40.529235 
L 187.142426 -40.529235 
L 186.87271 -40.529235 
L 186.602995 -40.529235 
L 186.333279 -40.529235 
L 186.063563 -40.529235 
L 185.793847 -40.529235 
L 185.524131 -40.529235 
L 185.254415 -40.529235 
L 184.984699 -40.529235 
L 184.714983 -40.529235 
L 184.445268 -40.529235 
L 184.175552 -40.529235 
L 183.905836 -40.529235 
L 183.63612 -40.529235 
L 183.366404 -40.529235 
L 183.096688 -40.529235 
L 182.826972 -40.529235 
L 182.557256 -40.529235 
L 182.287541 -40.529235 
L 182.017825 -40.529235 
L 181.748109 -40.529235 
L 181.478393 -40.529235 
L 181.208677 -40.529235 
L 180.938961 -40.529235 
L 180.669245 -40.529235 
L 180.399529 -40.529235 
L 180.129814 -40.529235 
L 179.860098 -40.529235 
L 179.590382 -40.529235 
L 179.320666 -40.529235 
L 179.05095 -40.529235 
L 178.781234 -40.529235 
L 178.511518 -40.529235 
L 178.241802 -40.529235 
L 177.972087 -40.529235 
L 177.702371 -40.529235 
L 177.432655 -40.529235 
L 177.162939 -40.529235 
L 176.893223 -40.529235 
L 176.623507 -40.529235 
L 176.353791 -40.529235 
L 176.084075 -40.529235 
L 175.81436 -40.529235 
L 175.544644 -40.529235 
L 175.274928 -40.529235 
L 175.005212 -40.529235 
L 174.735496 -40.529235 
L 174.46578 -40.529235 
L 174.196064 -40.529235 
L 173.926349 -40.529235 
L 173.656633 -40.529235 
L 173.386917 -40.529235 
L 173.117201 -40.529235 
L 172.847485 -40.529235 
L 172.577769 -40.529235 
L 172.308053 -40.529235 
L 172.038337 -40.529235 
L 171.768622 -40.529235 
L 171.498906 -40.529235 
L 171.22919 -40.529235 
L 170.959474 -40.529235 
L 170.689758 -40.529235 
L 170.420042 -40.529235 
L 170.150326 -40.529235 
L 169.88061 -40.529235 
L 169.610895 -40.529235 
L 169.341179 -40.529235 
L 169.071463 -40.529235 
L 168.801747 -40.529235 
L 168.532031 -40.529235 
L 168.262315 -40.529235 
L 167.992599 -40.529235 
L 167.722883 -40.529235 
L 167.453168 -40.529235 
L 167.183452 -40.529235 
L 166.913736 -40.529235 
L 166.64402 -40.529235 
L 166.374304 -40.529235 
L 166.104588 -40.529235 
L 165.834872 -40.529235 
L 165.565156 -40.529235 
L 165.295441 -40.529235 
L 165.025725 -40.529235 
L 164.756009 -40.529235 
L 164.486293 -40.529235 
L 164.216577 -40.529235 
L 163.946861 -40.529235 
L 163.677145 -40.529235 
L 163.407429 -40.529235 
L 163.137714 -40.529235 
L 162.867998 -40.529235 
L 162.598282 -40.529235 
L 162.328566 -40.529235 
L 162.05885 -40.529235 
L 161.789134 -40.529235 
L 161.519418 -40.529235 
L 161.249702 -40.529235 
L 160.979987 -40.529235 
L 160.710271 -40.529235 
L 160.440555 -40.529235 
L 160.170839 -40.529235 
L 159.901123 -40.529235 
L 159.631407 -40.529235 
L 159.361691 -40.529235 
L 159.091975 -40.529235 
L 158.82226 -40.529235 
L 158.552544 -40.529235 
L 158.282828 -40.529235 
L 158.013112 -40.529235 
L 157.743396 -40.529235 
L 157.47368 -40.529235 
L 157.203964 -40.529235 
L 156.934248 -40.529235 
L 156.664533 -40.529235 
L 156.394817 -40.529235 
L 156.125101 -40.529235 
L 155.855385 -40.529235 
L 155.585669 -40.529235 
L 155.315953 -40.529235 
L 155.046237 -40.529235 
L 154.776521 -40.529235 
L 154.506806 -40.529235 
L 154.23709 -40.529235 
L 153.967374 -40.529235 
L 153.697658 -40.529235 
L 153.427942 -40.529235 
L 153.158226 -40.529235 
L 152.88851 -40.529235 
L 152.618795 -40.529235 
L 152.349079 -40.529235 
L 152.079363 -40.529235 
L 151.809647 -40.529235 
L 151.539931 -40.529235 
L 151.270215 -40.529235 
L 151.000499 -40.529235 
L 150.730783 -40.529235 
L 150.461068 -40.529235 
L 150.191352 -40.529235 
L 149.921636 -40.529235 
L 149.65192 -40.529235 
L 149.382204 -40.529235 
L 149.112488 -40.529235 
L 148.842772 -40.529235 
L 148.573056 -40.529235 
L 148.303341 -40.529235 
L 148.033625 -40.529235 
L 147.763909 -40.529235 
L 147.494193 -40.529235 
L 147.224477 -40.529235 
L 146.954761 -40.529235 
L 146.685045 -40.529235 
L 146.415329 -40.529235 
L 146.145614 -40.529235 
L 145.875898 -40.529235 
L 145.606182 -40.529235 
L 145.336466 -40.529235 
L 145.06675 -40.529235 
L 144.797034 -40.529235 
L 144.527318 -40.529235 
L 144.257602 -40.529235 
L 143.987887 -40.529235 
L 143.718171 -40.529235 
L 143.448455 -40.529235 
L 143.178739 -40.529235 
L 142.909023 -40.529235 
L 142.639307 -40.529235 
L 142.369591 -40.529235 
L 142.099875 -40.529235 
L 141.83016 -40.529235 
L 141.560444 -40.529235 
L 141.290728 -40.529235 
L 141.021012 -40.529235 
L 140.751296 -40.529235 
L 140.48158 -40.529235 
L 140.211864 -40.529235 
L 139.942148 -40.529235 
L 139.672433 -40.529235 
L 139.402717 -40.529235 
L 139.133001 -40.529235 
L 138.863285 -40.529235 
L 138.593569 -40.529235 
L 138.323853 -40.529235 
L 138.054137 -40.529235 
L 137.784421 -40.529235 
L 137.514706 -40.529235 
L 137.24499 -40.529235 
L 136.975274 -40.529235 
L 136.705558 -40.529235 
L 136.435842 -40.529235 
L 136.166126 -40.529235 
L 135.89641 -40.529235 
L 135.626694 -40.529235 
L 135.356979 -40.529235 
L 135.087263 -40.529235 
L 134.817547 -40.529235 
L 134.547831 -40.529235 
L 134.278115 -40.529235 
L 134.008399 -40.529235 
L 133.738683 -40.529235 
L 133.468967 -40.529235 
L 133.199252 -40.529235 
L 132.929536 -40.529235 
L 132.65982 -40.529235 
L 132.390104 -40.529235 
L 132.120388 -40.529235 
L 131.850672 -40.529235 
L 131.580956 -40.529235 
L 131.311241 -40.529235 
L 131.041525 -40.529235 
L 130.771809 -40.529235 
L 130.502093 -40.529235 
L 130.232377 -40.529235 
L 129.962661 -40.529235 
L 129.692945 -40.529235 
L 129.423229 -40.529235 
L 129.153514 -40.529235 
L 128.883798 -40.529235 
L 128.614082 -40.529235 
L 128.344366 -40.529235 
L 128.07465 -40.529235 
L 127.804934 -40.529235 
L 127.535218 -40.529235 
L 127.265502 -40.529235 
L 126.995787 -40.529235 
L 126.726071 -40.529235 
L 126.456355 -40.529235 
L 126.186639 -40.529235 
L 125.916923 -40.529235 
L 125.647207 -40.529235 
L 125.377491 -40.529235 
L 125.107775 -40.529235 
L 124.83806 -40.529235 
L 124.568344 -40.529235 
L 124.298628 -40.529235 
L 124.028912 -40.529235 
L 123.759196 -40.529235 
L 123.48948 -40.529235 
L 123.219764 -40.529235 
L 122.950048 -40.529235 
L 122.680333 -40.529235 
L 122.410617 -40.529235 
L 122.140901 -40.529235 
L 121.871185 -40.529235 
L 121.601469 -40.529235 
L 121.331753 -40.529235 
L 121.062037 -40.529235 
L 120.792321 -40.529235 
L 120.522606 -40.529235 
L 120.25289 -40.529235 
L 119.983174 -40.529235 
L 119.713458 -40.529235 
L 119.443742 -40.529235 
L 119.174026 -40.529235 
L 118.90431 -40.529235 
L 118.634594 -40.529235 
L 118.364879 -40.529235 
L 118.095163 -40.529235 
L 117.825447 -40.529235 
L 117.555731 -40.529235 
L 117.286015 -40.529235 
L 117.016299 -40.529235 
L 116.746583 -40.529235 
L 116.476867 -40.529235 
L 116.207152 -40.529235 
L 115.937436 -40.529235 
L 115.66772 -40.529235 
L 115.398004 -40.529235 
L 115.128288 -40.529235 
L 114.858572 -40.529235 
L 114.588856 -40.529235 
L 114.31914 -40.529235 
L 114.049425 -40.529235 
L 113.779709 -40.529235 
L 113.509993 -40.529235 
L 113.240277 -40.529235 
L 112.970561 -40.529235 
L 112.700845 -40.529235 
L 112.431129 -40.529235 
L 112.161413 -40.529235 
L 111.891698 -40.529235 
L 111.621982 -40.529235 
L 111.352266 -40.529235 
L 111.08255 -40.529235 
L 110.812834 -40.529235 
L 110.543118 -40.529235 
L 110.273402 -40.529235 
L 110.003687 -40.529235 
L 109.733971 -40.529235 
L 109.464255 -40.529235 
L 109.194539 -40.529235 
L 108.924823 -40.529235 
L 108.655107 -40.529235 
L 108.385391 -40.529235 
L 108.115675 -40.529235 
L 107.84596 -40.529235 
L 107.576244 -40.529235 
L 107.306528 -40.529235 
L 107.036812 -40.529235 
L 106.767096 -40.529235 
L 106.49738 -40.529235 
L 106.227664 -40.529235 
L 105.957948 -40.529235 
L 105.688233 -40.529235 
L 105.418517 -40.529235 
L 105.148801 -40.529235 
L 104.879085 -40.529235 
L 104.609369 -40.529235 
L 104.339653 -40.529235 
L 104.069937 -40.529235 
L 103.800221 -40.529235 
L 103.530506 -40.529235 
L 103.26079 -40.529235 
L 102.991074 -40.529235 
L 102.721358 -40.529235 
L 102.451642 -40.529235 
L 102.181926 -40.529235 
L 101.91221 -40.529235 
L 101.642494 -40.529235 
L 101.372779 -40.529235 
L 101.103063 -40.529235 
L 100.833347 -40.529235 
L 100.563631 -40.529235 
L 100.293915 -40.529235 
L 100.024199 -40.529235 
L 99.754483 -40.529235 
L 99.484767 -40.529235 
L 99.215052 -40.529235 
L 98.945336 -40.529235 
L 98.67562 -40.529235 
L 98.405904 -40.529235 
L 98.136188 -40.529235 
L 97.866472 -40.529235 
L 97.596756 -40.529235 
L 97.32704 -40.529235 
L 97.057325 -40.529235 
L 96.787609 -40.529235 
L 96.517893 -40.529235 
L 96.248177 -40.529235 
L 95.978461 -40.529235 
L 95.708745 -40.529235 
L 95.439029 -40.529235 
L 95.169313 -40.529235 
L 94.899598 -40.529235 
L 94.629882 -40.529235 
L 94.360166 -40.529235 
L 94.09045 -40.529235 
L 93.820734 -40.529235 
L 93.551018 -40.529235 
L 93.281302 -40.529235 
L 93.011586 -40.529235 
L 92.741871 -40.529235 
L 92.472155 -40.529235 
L 92.202439 -40.529235 
L 91.932723 -40.529235 
L 91.663007 -40.529235 
L 91.393291 -40.529235 
L 91.123575 -40.529235 
L 90.853859 -40.529235 
L 90.584144 -40.529235 
L 90.314428 -40.529235 
L 90.044712 -40.529235 
L 89.774996 -40.529235 
L 89.50528 -40.529235 
L 89.235564 -40.529235 
L 88.965848 -40.529235 
L 88.696133 -40.529235 
L 88.426417 -40.529235 
L 88.156701 -40.529235 
L 87.886985 -40.529235 
L 87.617269 -40.529235 
L 87.347553 -40.529235 
L 87.077837 -40.529235 
L 86.808121 -40.529235 
L 86.538406 -40.529235 
L 86.26869 -40.529235 
L 85.998974 -40.529235 
L 85.729258 -40.529235 
L 85.459542 -40.529235 
L 85.189826 -40.529235 
L 84.92011 -40.529235 
L 84.650394 -40.529235 
L 84.380679 -40.529235 
L 84.110963 -40.529235 
L 83.841247 -40.529235 
L 83.571531 -40.529235 
L 83.301815 -40.529235 
L 83.032099 -40.529235 
L 82.762383 -40.529235 
L 82.492667 -40.529235 
L 82.222952 -40.529235 
L 81.953236 -40.529235 
L 81.68352 -40.529235 
L 81.413804 -40.529235 
L 81.144088 -40.529235 
L 80.874372 -40.529235 
L 80.604656 -40.529235 
L 80.33494 -40.529235 
L 80.065225 -40.529235 
L 79.795509 -40.529235 
L 79.525793 -40.529235 
L 79.256077 -40.529235 
L 78.986361 -40.529235 
L 78.716645 -40.529235 
L 78.446929 -40.529235 
L 78.177213 -40.529235 
L 77.907498 -40.529235 
L 77.637782 -40.529235 
L 77.368066 -40.529235 
L 77.09835 -40.529235 
L 76.828634 -40.529235 
L 76.558918 -40.529235 
L 76.289202 -40.529235 
L 76.019486 -40.529235 
L 75.749771 -40.529235 
L 75.480055 -40.529235 
L 75.210339 -40.529235 
L 74.940623 -40.529235 
L 74.670907 -40.529235 
L 74.401191 -40.529235 
L 74.131475 -40.529235 
L 73.861759 -40.529235 
L 73.592044 -40.529235 
L 73.322328 -40.529235 
L 73.052612 -40.529235 
L 72.782896 -40.529235 
L 72.51318 -40.529235 
L 72.243464 -40.529235 
L 71.973748 -40.529235 
L 71.704032 -40.529235 
L 71.434317 -40.529235 
L 71.164601 -40.529235 
L 70.894885 -40.529235 
L 70.625169 -40.529235 
L 70.355453 -40.529235 
L 70.085737 -40.529235 
L 69.816021 -40.529235 
L 69.546305 -40.529235 
L 69.27659 -40.529235 
L 69.006874 -40.529235 
L 68.737158 -40.529235 
L 68.467442 -40.529235 
L 68.197726 -40.529235 
L 67.92801 -40.529235 
L 67.658294 -40.529235 
L 67.388579 -40.529235 
L 67.118863 -40.529235 
L 66.849147 -40.529235 
L 66.579431 -40.529235 
L 66.309715 -40.529235 
L 66.039999 -40.529235 
z
" style="stroke: #000000; stroke-opacity: 0.1; stroke-width: 0.5"/>
    </defs>
    <g clip-path="url(#p54f6f90383)">
     <use xlink:href="#md09cc73ad6" x="0" y="153.115422" style="fill-opacity: 0.1; stroke: #000000; stroke-opacity: 0.1; stroke-width: 0.5"/>
    </g>
   </g>
   <g id="line2d_17">
    <path d="M 66.039999 12.21839 
L 200.62822 12.21839 
L 200.62822 12.21839 
" clip-path="url(#p54f6f90383)" style="fill: none; stroke: #000000; stroke-opacity: 0.5; stroke-width: 0.7; stroke-linecap: square"/>
   </g>
   <g id="line2d_18">
    <path d="M 66.039999 112.586188 
L 200.62822 112.586188 
L 200.62822 112.586188 
" clip-path="url(#p54f6f90383)" style="fill: none; stroke: #000000; stroke-width: 0.7; stroke-linecap: square"/>
   </g>
   <g id="patch_3">
    <path d="M 59.310588 117.604578 
L 59.310588 7.2 
" style="fill: none; stroke: #000000; stroke-width: 0.5; stroke-linejoin: miter; stroke-linecap: square"/>
   </g>
   <g id="patch_4">
    <path d="M 59.310588 117.604578 
L 207.357631 117.604578 
" style="fill: none; stroke: #000000; stroke-width: 0.5; stroke-linejoin: miter; stroke-linecap: square"/>
   </g>
  </g>
  <g id="axes_2">
   <g id="patch_5">
    <path d="M 270.214292 117.604578 
L 418.261335 117.604578 
L 418.261335 7.2 
L 270.214292 7.2 
z
" style="fill: #ffffff"/>
   </g>
   <g id="matplotlib.axis_3">
    <g id="xtick_4">
     <g id="line2d_19">
      <path d="M 276.943703 117.604578 
L 276.943703 7.2 
" clip-path="url(#p914ec169ed)" style="fill: none; stroke: #d3d3d3; stroke-width: 0.2; stroke-linecap: square"/>
     </g>
     <g id="line2d_20">
      <g>
       <use xlink:href="#m92aff6cf9e" x="276.943703" y="117.604578" style="stroke: #000000; stroke-width: 0.8"/>
      </g>
     </g>
     <g id="text_11">
      <!-- $\mathdefault{0}$ -->
      <g transform="translate(274.453036 128.023076) scale(0.1 -0.1)">
       <use xlink:href="#CMR17-30" transform="scale(0.996264)"/>
      </g>
     </g>
    </g>
    <g id="xtick_5">
     <g id="line2d_21">
      <path d="M 330.778992 117.604578 
L 330.778992 7.2 
" clip-path="url(#p914ec169ed)" style="fill: none; stroke: #d3d3d3; stroke-width: 0.2; stroke-linecap: square"/>
     </g>
     <g id="line2d_22">
      <g>
       <use xlink:href="#m92aff6cf9e" x="330.778992" y="117.604578" style="stroke: #000000; stroke-width: 0.8"/>
      </g>
     </g>
     <g id="text_12">
      <!-- $\mathdefault{2}$ -->
      <g transform="translate(328.288324 128.023076) scale(0.1 -0.1)">
       <use xlink:href="#CMR17-32" transform="scale(0.996264)"/>
      </g>
     </g>
    </g>
    <g id="xtick_6">
     <g id="line2d_23">
      <path d="M 384.61428 117.604578 
L 384.61428 7.2 
" clip-path="url(#p914ec169ed)" style="fill: none; stroke: #d3d3d3; stroke-width: 0.2; stroke-linecap: square"/>
     </g>
     <g id="line2d_24">
      <g>
       <use xlink:href="#m92aff6cf9e" x="384.61428" y="117.604578" style="stroke: #000000; stroke-width: 0.8"/>
      </g>
     </g>
     <g id="text_13">
      <!-- $\mathdefault{4}$ -->
      <g transform="translate(382.123612 128.023076) scale(0.1 -0.1)">
       <use xlink:href="#CMR17-34" transform="scale(0.996264)"/>
      </g>
     </g>
    </g>
    <g id="text_14">
     <!-- $x$ [m] -->
     <g transform="translate(330.83162 142.92663) scale(0.12 -0.12)">
      <use xlink:href="#CMMI12-78" transform="scale(0.996264)"/>
      <use xlink:href="#CMR17-5b" transform="translate(85.510026 0) scale(0.996264)"/>
      <use xlink:href="#CMR17-6d" transform="translate(110.381084 0) scale(0.996264)"/>
      <use xlink:href="#CMR17-5d" transform="translate(187.300674 0) scale(0.996264)"/>
     </g>
    </g>
   </g>
   <g id="matplotlib.axis_4">
    <g id="ytick_6">
     <g id="line2d_25">
      <path d="M 270.214292 32.291949 
L 418.261335 32.291949 
" clip-path="url(#p914ec169ed)" style="fill: none; stroke: #d3d3d3; stroke-width: 0.2; stroke-linecap: square"/>
     </g>
     <g id="line2d_26">
      <g>
       <use xlink:href="#m736b87e40f" x="270.214292" y="32.291949" style="stroke: #000000; stroke-width: 0.8"/>
      </g>
     </g>
     <g id="text_15">
      <!-- $\mathdefault{−0.004}$ -->
      <g transform="translate(236.272799 35.751199) scale(0.1 -0.1)">
       <defs>
        <path id="CMSY10-0" d="M 4218 1472 
C 4326 1472 4442 1472 4442 1600 
C 4442 1728 4326 1728 4218 1728 
L 755 1728 
C 646 1728 531 1728 531 1600 
C 531 1472 646 1472 755 1472 
L 4218 1472 
z
" transform="scale(0.015625)"/>
       </defs>
       <use xlink:href="#CMSY10-0" transform="scale(0.996264)"/>
       <use xlink:href="#CMR17-30" transform="translate(77.487468 0) scale(0.996264)"/>
       <use xlink:href="#CMMI12-3a" transform="translate(123.177945 0) scale(0.996264)"/>
       <use xlink:href="#CMR17-30" transform="translate(150.275122 0) scale(0.996264)"/>
       <use xlink:href="#CMR17-30" transform="translate(195.965599 0) scale(0.996264)"/>
       <use xlink:href="#CMR17-34" transform="translate(241.656076 0) scale(0.996264)"/>
      </g>
     </g>
    </g>
    <g id="ytick_7">
     <g id="line2d_27">
      <path d="M 270.214292 72.439069 
L 418.261335 72.439069 
" clip-path="url(#p914ec169ed)" style="fill: none; stroke: #d3d3d3; stroke-width: 0.2; stroke-linecap: square"/>
     </g>
     <g id="line2d_28">
      <g>
       <use xlink:href="#m736b87e40f" x="270.214292" y="72.439069" style="stroke: #000000; stroke-width: 0.8"/>
      </g>
     </g>
     <g id="text_16">
      <!-- $\mathdefault{−0.002}$ -->
      <g transform="translate(236.272799 75.898318) scale(0.1 -0.1)">
       <use xlink:href="#CMSY10-0" transform="scale(0.996264)"/>
       <use xlink:href="#CMR17-30" transform="translate(77.487468 0) scale(0.996264)"/>
       <use xlink:href="#CMMI12-3a" transform="translate(123.177945 0) scale(0.996264)"/>
       <use xlink:href="#CMR17-30" transform="translate(150.275122 0) scale(0.996264)"/>
       <use xlink:href="#CMR17-30" transform="translate(195.965599 0) scale(0.996264)"/>
       <use xlink:href="#CMR17-32" transform="translate(241.656076 0) scale(0.996264)"/>
      </g>
     </g>
    </g>
    <g id="ytick_8">
     <g id="line2d_29">
      <path d="M 270.214292 112.586188 
L 418.261335 112.586188 
" clip-path="url(#p914ec169ed)" style="fill: none; stroke: #d3d3d3; stroke-width: 0.2; stroke-linecap: square"/>
     </g>
     <g id="line2d_30">
      <g>
       <use xlink:href="#m736b87e40f" x="270.214292" y="112.586188" style="stroke: #000000; stroke-width: 0.8"/>
      </g>
     </g>
     <g id="text_17">
      <!-- $\mathdefault{0.000}$ -->
      <g transform="translate(244.021543 116.045437) scale(0.1 -0.1)">
       <use xlink:href="#CMR17-30" transform="scale(0.996264)"/>
       <use xlink:href="#CMMI12-3a" transform="translate(45.690477 0) scale(0.996264)"/>
       <use xlink:href="#CMR17-30" transform="translate(72.787654 0) scale(0.996264)"/>
       <use xlink:href="#CMR17-30" transform="translate(118.478131 0) scale(0.996264)"/>
       <use xlink:href="#CMR17-30" transform="translate(164.168608 0) scale(0.996264)"/>
      </g>
     </g>
    </g>
    <g id="text_18">
     <!-- $M$ [kNm] -->
     <g transform="translate(229.284007 86.245988) rotate(-90) scale(0.12 -0.12)">
      <defs>
       <path id="CMMI12-4d" d="M 5811 3886 
C 5869 4102 5882 4166 6336 4166 
C 6458 4166 6515 4166 6515 4287 
C 6515 4352 6470 4352 6349 4352 
L 5581 4352 
C 5421 4352 5414 4345 5344 4243 
L 3008 567 
L 2528 4211 
C 2509 4352 2502 4352 2336 4352 
L 1542 4352 
C 1421 4352 1363 4352 1363 4230 
C 1363 4166 1421 4166 1517 4166 
C 1907 4166 1907 4115 1907 4045 
C 1907 4032 1907 3994 1882 3898 
L 1062 650 
C 986 344 838 204 410 185 
C 390 185 314 179 314 70 
C 314 0 371 0 397 0 
C 525 0 851 12 979 12 
L 1286 12 
C 1376 12 1485 0 1574 0 
C 1619 0 1690 0 1690 121 
C 1690 179 1626 185 1600 185 
C 1389 191 1184 230 1184 459 
C 1184 523 1184 529 1210 618 
L 2093 4128 
L 2099 4128 
L 2630 172 
C 2650 19 2656 0 2714 0 
C 2784 0 2816 51 2848 108 
L 5421 4159 
L 5427 4159 
L 4499 472 
C 4442 249 4429 185 3981 185 
C 3859 185 3795 185 3795 70 
C 3795 0 3853 0 3891 0 
C 4000 0 4128 12 4237 12 
L 4992 12 
C 5101 12 5235 0 5344 0 
C 5395 0 5466 0 5466 121 
C 5466 185 5408 185 5312 185 
C 4922 185 4922 236 4922 300 
C 4922 306 4922 351 4934 402 
L 5811 3886 
z
" transform="scale(0.015625)"/>
      </defs>
      <use xlink:href="#CMMI12-4d" transform="scale(0.996264)"/>
      <use xlink:href="#CMR17-5b" transform="translate(134.856045 0) scale(0.996264)"/>
      <use xlink:href="#CMR17-6b" transform="translate(159.727104 0) scale(0.996264)"/>
      <use xlink:href="#CMR17-4e" transform="translate(208.02002 0) scale(0.996264)"/>
      <use xlink:href="#CMR17-6d" transform="translate(277.092449 0) scale(0.996264)"/>
      <use xlink:href="#CMR17-5d" transform="translate(354.012039 0) scale(0.996264)"/>
     </g>
    </g>
   </g>
   <g id="PolyCollection_2">
    <defs>
     <path id="m2aeb6be5d1" d="M 276.943703 -40.529235 
L 276.943703 -140.897033 
L 277.213419 -140.695895 
L 277.483135 -140.494757 
L 277.752851 -140.293619 
L 278.022567 -140.092481 
L 278.292283 -139.891343 
L 278.561999 -139.690205 
L 278.831714 -139.489067 
L 279.10143 -139.28793 
L 279.371146 -139.086792 
L 279.640862 -138.885654 
L 279.910578 -138.684516 
L 280.180294 -138.483378 
L 280.45001 -138.28224 
L 280.719726 -138.081102 
L 280.989441 -137.879964 
L 281.259157 -137.678827 
L 281.528873 -137.477689 
L 281.798589 -137.276551 
L 282.068305 -137.075413 
L 282.338021 -136.874275 
L 282.607737 -136.673137 
L 282.877453 -136.471999 
L 283.147168 -136.270861 
L 283.416884 -136.069724 
L 283.6866 -135.868586 
L 283.956316 -135.667448 
L 284.226032 -135.46631 
L 284.495748 -135.265172 
L 284.765464 -135.064034 
L 285.03518 -134.862896 
L 285.304895 -134.661759 
L 285.574611 -134.460621 
L 285.844327 -134.259483 
L 286.114043 -134.058345 
L 286.383759 -133.857207 
L 286.653475 -133.656069 
L 286.923191 -133.454931 
L 287.192907 -133.253793 
L 287.462622 -133.052656 
L 287.732338 -132.851518 
L 288.002054 -132.65038 
L 288.27177 -132.449242 
L 288.541486 -132.248104 
L 288.811202 -132.046966 
L 289.080918 -131.845828 
L 289.350634 -131.64469 
L 289.620349 -131.443553 
L 289.890065 -131.242415 
L 290.159781 -131.041277 
L 290.429497 -130.840139 
L 290.699213 -130.639001 
L 290.968929 -130.437863 
L 291.238645 -130.236725 
L 291.508361 -130.035587 
L 291.778076 -129.83445 
L 292.047792 -129.633312 
L 292.317508 -129.432174 
L 292.587224 -129.231036 
L 292.85694 -129.029898 
L 293.126656 -128.82876 
L 293.396372 -128.627622 
L 293.666088 -128.426485 
L 293.935803 -128.225347 
L 294.205519 -128.024209 
L 294.475235 -127.823071 
L 294.744951 -127.621933 
L 295.014667 -127.420795 
L 295.284383 -127.219657 
L 295.554099 -127.018519 
L 295.823815 -126.817382 
L 296.09353 -126.616244 
L 296.363246 -126.415106 
L 296.632962 -126.213968 
L 296.902678 -126.01283 
L 297.172394 -125.811692 
L 297.44211 -125.610554 
L 297.711826 -125.409416 
L 297.981542 -125.208279 
L 298.251257 -125.007141 
L 298.520973 -124.806003 
L 298.790689 -124.604865 
L 299.060405 -124.403727 
L 299.330121 -124.202589 
L 299.599837 -124.001451 
L 299.869553 -123.800313 
L 300.139268 -123.599176 
L 300.408984 -123.398038 
L 300.6787 -123.1969 
L 300.948416 -122.995762 
L 301.218132 -122.794624 
L 301.487848 -122.593486 
L 301.757564 -122.392348 
L 302.02728 -122.19121 
L 302.296995 -121.990073 
L 302.566711 -121.788935 
L 302.836427 -121.587797 
L 303.106143 -121.386659 
L 303.375859 -121.185521 
L 303.645575 -120.984383 
L 303.915291 -120.783245 
L 304.185007 -120.582108 
L 304.454722 -120.38097 
L 304.724438 -120.179832 
L 304.994154 -119.978694 
L 305.26387 -119.777556 
L 305.533586 -119.576418 
L 305.803302 -119.37528 
L 306.073018 -119.174142 
L 306.342734 -118.973005 
L 306.612449 -118.771867 
L 306.882165 -118.570729 
L 307.151881 -118.369591 
L 307.421597 -118.168453 
L 307.691313 -117.967315 
L 307.961029 -117.766177 
L 308.230745 -117.565039 
L 308.500461 -117.363902 
L 308.770176 -117.162764 
L 309.039892 -116.961626 
L 309.309608 -116.760488 
L 309.579324 -116.55935 
L 309.84904 -116.358212 
L 310.118756 -116.157074 
L 310.388472 -115.955936 
L 310.658188 -115.754799 
L 310.927903 -115.553661 
L 311.197619 -115.352523 
L 311.467335 -115.151385 
L 311.737051 -114.950247 
L 312.006767 -114.749109 
L 312.276483 -114.547971 
L 312.546199 -114.346834 
L 312.815915 -114.145696 
L 313.08563 -113.944558 
L 313.355346 -113.74342 
L 313.625062 -113.542282 
L 313.894778 -113.341144 
L 314.164494 -113.140006 
L 314.43421 -112.938868 
L 314.703926 -112.737731 
L 314.973642 -112.536593 
L 315.243357 -112.335455 
L 315.513073 -112.134317 
L 315.782789 -111.933179 
L 316.052505 -111.732041 
L 316.322221 -111.530903 
L 316.591937 -111.329765 
L 316.861653 -111.128628 
L 317.131369 -110.92749 
L 317.401084 -110.726352 
L 317.6708 -110.525214 
L 317.940516 -110.324076 
L 318.210232 -110.122938 
L 318.479948 -109.9218 
L 318.749664 -109.720662 
L 319.01938 -109.519525 
L 319.289096 -109.318387 
L 319.558811 -109.117249 
L 319.828527 -108.916111 
L 320.098243 -108.714973 
L 320.367959 -108.513835 
L 320.637675 -108.312697 
L 320.907391 -108.111559 
L 321.177107 -107.910422 
L 321.446822 -107.709284 
L 321.716538 -107.508146 
L 321.986254 -107.307008 
L 322.25597 -107.10587 
L 322.525686 -106.904732 
L 322.795402 -106.703594 
L 323.065118 -106.502457 
L 323.334834 -106.301319 
L 323.604549 -106.100181 
L 323.874265 -105.899043 
L 324.143981 -105.697905 
L 324.413697 -105.496767 
L 324.683413 -105.295629 
L 324.953129 -105.094491 
L 325.222845 -104.893354 
L 325.492561 -104.692216 
L 325.762276 -104.491078 
L 326.031992 -104.28994 
L 326.301708 -104.088802 
L 326.571424 -103.887664 
L 326.84114 -103.686526 
L 327.110856 -103.485388 
L 327.380572 -103.284251 
L 327.650288 -103.083113 
L 327.920003 -102.881975 
L 328.189719 -102.680837 
L 328.459435 -102.479699 
L 328.729151 -102.278561 
L 328.998867 -102.077423 
L 329.268583 -101.876285 
L 329.538299 -101.675148 
L 329.808015 -101.47401 
L 330.07773 -101.272872 
L 330.347446 -101.071734 
L 330.617162 -100.870596 
L 330.886878 -100.669458 
L 331.156594 -100.46832 
L 331.42631 -100.267183 
L 331.696026 -100.066045 
L 331.965742 -99.864907 
L 332.235457 -99.663769 
L 332.505173 -99.462631 
L 332.774889 -99.261493 
L 333.044605 -99.060355 
L 333.314321 -98.859217 
L 333.584037 -98.65808 
L 333.853753 -98.456942 
L 334.123469 -98.255804 
L 334.393184 -98.054666 
L 334.6629 -97.853528 
L 334.932616 -97.65239 
L 335.202332 -97.451252 
L 335.472048 -97.250114 
L 335.741764 -97.048977 
L 336.01148 -96.847839 
L 336.281196 -96.646701 
L 336.550911 -96.445563 
L 336.820627 -96.244425 
L 337.090343 -96.043287 
L 337.360059 -95.842149 
L 337.629775 -95.641011 
L 337.899491 -95.439874 
L 338.169207 -95.238736 
L 338.438923 -95.037598 
L 338.708638 -94.83646 
L 338.978354 -94.635322 
L 339.24807 -94.434184 
L 339.517786 -94.233046 
L 339.787502 -94.031908 
L 340.057218 -93.830771 
L 340.326934 -93.629633 
L 340.59665 -93.428495 
L 340.866365 -93.227357 
L 341.136081 -93.026219 
L 341.405797 -92.825081 
L 341.675513 -92.623943 
L 341.945229 -92.422806 
L 342.214945 -92.221668 
L 342.484661 -92.02053 
L 342.754376 -91.819392 
L 343.024092 -91.618254 
L 343.293808 -91.417116 
L 343.563524 -91.215978 
L 343.83324 -91.01484 
L 344.102956 -90.813703 
L 344.372672 -90.612565 
L 344.642388 -90.411427 
L 344.912103 -90.210289 
L 345.181819 -90.009151 
L 345.451535 -89.808013 
L 345.721251 -89.606875 
L 345.990967 -89.405737 
L 346.260683 -89.2046 
L 346.530399 -89.003462 
L 346.800115 -88.802324 
L 347.06983 -88.601186 
L 347.339546 -88.400048 
L 347.609262 -88.19891 
L 347.878978 -87.997772 
L 348.148694 -87.796634 
L 348.41841 -87.595497 
L 348.688126 -87.394359 
L 348.957842 -87.193221 
L 349.227557 -86.992083 
L 349.497273 -86.790945 
L 349.766989 -86.589807 
L 350.036705 -86.388669 
L 350.306421 -86.187532 
L 350.576137 -85.986394 
L 350.845853 -85.785256 
L 351.115569 -85.584118 
L 351.385284 -85.38298 
L 351.655 -85.181842 
L 351.924716 -84.980704 
L 352.194432 -84.779566 
L 352.464148 -84.578429 
L 352.733864 -84.377291 
L 353.00358 -84.176153 
L 353.273296 -83.975015 
L 353.543011 -83.773877 
L 353.812727 -83.572739 
L 354.082443 -83.371601 
L 354.352159 -83.170463 
L 354.621875 -82.969326 
L 354.891591 -82.768188 
L 355.161307 -82.56705 
L 355.431023 -82.365912 
L 355.700738 -82.164774 
L 355.970454 -81.963636 
L 356.24017 -81.762498 
L 356.509886 -81.56136 
L 356.779602 -81.360223 
L 357.049318 -81.159085 
L 357.319034 -80.957947 
L 357.58875 -80.756809 
L 357.858465 -80.555671 
L 358.128181 -80.354533 
L 358.397897 -80.153395 
L 358.667613 -79.952258 
L 358.937329 -79.75112 
L 359.207045 -79.549982 
L 359.476761 -79.348844 
L 359.746477 -79.147706 
L 360.016192 -78.946568 
L 360.285908 -78.74543 
L 360.555624 -78.544292 
L 360.82534 -78.343155 
L 361.095056 -78.142017 
L 361.364772 -77.940879 
L 361.634488 -77.739741 
L 361.904204 -77.538603 
L 362.173919 -77.337465 
L 362.443635 -77.136327 
L 362.713351 -76.935189 
L 362.983067 -76.734052 
L 363.252783 -76.532914 
L 363.522499 -76.331776 
L 363.792215 -76.130638 
L 364.06193 -75.9295 
L 364.331646 -75.728362 
L 364.601362 -75.527224 
L 364.871078 -75.326086 
L 365.140794 -75.124949 
L 365.41051 -74.923811 
L 365.680226 -74.722673 
L 365.949942 -74.521535 
L 366.219657 -74.320397 
L 366.489373 -74.119259 
L 366.759089 -73.918121 
L 367.028805 -73.716983 
L 367.298521 -73.515846 
L 367.568237 -73.314708 
L 367.837953 -73.11357 
L 368.107669 -72.912432 
L 368.377384 -72.711294 
L 368.6471 -72.510156 
L 368.916816 -72.309018 
L 369.186532 -72.107881 
L 369.456248 -71.906743 
L 369.725964 -71.705605 
L 369.99568 -71.504467 
L 370.265396 -71.303329 
L 370.535111 -71.102191 
L 370.804827 -70.901053 
L 371.074543 -70.699915 
L 371.344259 -70.498778 
L 371.613975 -70.29764 
L 371.883691 -70.096502 
L 372.153407 -69.895364 
L 372.423123 -69.694226 
L 372.692838 -69.493088 
L 372.962554 -69.29195 
L 373.23227 -69.090812 
L 373.501986 -68.889675 
L 373.771702 -68.688537 
L 374.041418 -68.487399 
L 374.311134 -68.286261 
L 374.58085 -68.085123 
L 374.850565 -67.883985 
L 375.120281 -67.682847 
L 375.389997 -67.481709 
L 375.659713 -67.280572 
L 375.929429 -67.079434 
L 376.199145 -66.878296 
L 376.468861 -66.677158 
L 376.738577 -66.47602 
L 377.008292 -66.274882 
L 377.278008 -66.073744 
L 377.547724 -65.872607 
L 377.81744 -65.671469 
L 378.087156 -65.470331 
L 378.356872 -65.269193 
L 378.626588 -65.068055 
L 378.896304 -64.866917 
L 379.166019 -64.665779 
L 379.435735 -64.464641 
L 379.705451 -64.263504 
L 379.975167 -64.062366 
L 380.244883 -63.861228 
L 380.514599 -63.66009 
L 380.784315 -63.458952 
L 381.054031 -63.257814 
L 381.323746 -63.056676 
L 381.593462 -62.855538 
L 381.863178 -62.654401 
L 382.132894 -62.453263 
L 382.40261 -62.252125 
L 382.672326 -62.050987 
L 382.942042 -61.849849 
L 383.211758 -61.648711 
L 383.481473 -61.447573 
L 383.751189 -61.246435 
L 384.020905 -61.045298 
L 384.290621 -60.84416 
L 384.560337 -60.643022 
L 384.830053 -60.441884 
L 385.099769 -60.240746 
L 385.369484 -60.039608 
L 385.6392 -59.83847 
L 385.908916 -59.637332 
L 386.178632 -59.436195 
L 386.448348 -59.235057 
L 386.718064 -59.033919 
L 386.98778 -58.832781 
L 387.257496 -58.631643 
L 387.527211 -58.430505 
L 387.796927 -58.229367 
L 388.066643 -58.02823 
L 388.336359 -57.827092 
L 388.606075 -57.625954 
L 388.875791 -57.424816 
L 389.145507 -57.223678 
L 389.415223 -57.02254 
L 389.684938 -56.821402 
L 389.954654 -56.620264 
L 390.22437 -56.419127 
L 390.494086 -56.217989 
L 390.763802 -56.016851 
L 391.033518 -55.815713 
L 391.303234 -55.614575 
L 391.57295 -55.413437 
L 391.842665 -55.212299 
L 392.112381 -55.011161 
L 392.382097 -54.810024 
L 392.651813 -54.608886 
L 392.921529 -54.407748 
L 393.191245 -54.20661 
L 393.460961 -54.005472 
L 393.730677 -53.804334 
L 394.000392 -53.603196 
L 394.270108 -53.402058 
L 394.539824 -53.200921 
L 394.80954 -52.999783 
L 395.079256 -52.798645 
L 395.348972 -52.597507 
L 395.618688 -52.396369 
L 395.888404 -52.195231 
L 396.158119 -51.994093 
L 396.427835 -51.792956 
L 396.697551 -51.591818 
L 396.967267 -51.39068 
L 397.236983 -51.189542 
L 397.506699 -50.988404 
L 397.776415 -50.787266 
L 398.046131 -50.586128 
L 398.315846 -50.38499 
L 398.585562 -50.183853 
L 398.855278 -49.982715 
L 399.124994 -49.781577 
L 399.39471 -49.580439 
L 399.664426 -49.379301 
L 399.934142 -49.178163 
L 400.203858 -48.977025 
L 400.473573 -48.775887 
L 400.743289 -48.57475 
L 401.013005 -48.373612 
L 401.282721 -48.172474 
L 401.552437 -47.971336 
L 401.822153 -47.770198 
L 402.091869 -47.56906 
L 402.361585 -47.367922 
L 402.6313 -47.166784 
L 402.901016 -46.965647 
L 403.170732 -46.764509 
L 403.440448 -46.563371 
L 403.710164 -46.362233 
L 403.97988 -46.161095 
L 404.249596 -45.959957 
L 404.519312 -45.758819 
L 404.789027 -45.557682 
L 405.058743 -45.356544 
L 405.328459 -45.155406 
L 405.598175 -44.954268 
L 405.867891 -44.75313 
L 406.137607 -44.551992 
L 406.407323 -44.350854 
L 406.677038 -44.149716 
L 406.946754 -43.948579 
L 407.21647 -43.747441 
L 407.486186 -43.546303 
L 407.755902 -43.345165 
L 408.025618 -43.144027 
L 408.295334 -42.942889 
L 408.56505 -42.741751 
L 408.834765 -42.540613 
L 409.104481 -42.339476 
L 409.374197 -42.138338 
L 409.643913 -41.9372 
L 409.913629 -41.736062 
L 410.183345 -41.534924 
L 410.453061 -41.333786 
L 410.722777 -41.132648 
L 410.992492 -40.93151 
L 411.262208 -40.730373 
L 411.531924 -40.529235 
L 411.531924 -40.529235 
L 411.531924 -40.529235 
L 411.262208 -40.529235 
L 410.992492 -40.529235 
L 410.722777 -40.529235 
L 410.453061 -40.529235 
L 410.183345 -40.529235 
L 409.913629 -40.529235 
L 409.643913 -40.529235 
L 409.374197 -40.529235 
L 409.104481 -40.529235 
L 408.834765 -40.529235 
L 408.56505 -40.529235 
L 408.295334 -40.529235 
L 408.025618 -40.529235 
L 407.755902 -40.529235 
L 407.486186 -40.529235 
L 407.21647 -40.529235 
L 406.946754 -40.529235 
L 406.677038 -40.529235 
L 406.407323 -40.529235 
L 406.137607 -40.529235 
L 405.867891 -40.529235 
L 405.598175 -40.529235 
L 405.328459 -40.529235 
L 405.058743 -40.529235 
L 404.789027 -40.529235 
L 404.519312 -40.529235 
L 404.249596 -40.529235 
L 403.97988 -40.529235 
L 403.710164 -40.529235 
L 403.440448 -40.529235 
L 403.170732 -40.529235 
L 402.901016 -40.529235 
L 402.6313 -40.529235 
L 402.361585 -40.529235 
L 402.091869 -40.529235 
L 401.822153 -40.529235 
L 401.552437 -40.529235 
L 401.282721 -40.529235 
L 401.013005 -40.529235 
L 400.743289 -40.529235 
L 400.473573 -40.529235 
L 400.203858 -40.529235 
L 399.934142 -40.529235 
L 399.664426 -40.529235 
L 399.39471 -40.529235 
L 399.124994 -40.529235 
L 398.855278 -40.529235 
L 398.585562 -40.529235 
L 398.315846 -40.529235 
L 398.046131 -40.529235 
L 397.776415 -40.529235 
L 397.506699 -40.529235 
L 397.236983 -40.529235 
L 396.967267 -40.529235 
L 396.697551 -40.529235 
L 396.427835 -40.529235 
L 396.158119 -40.529235 
L 395.888404 -40.529235 
L 395.618688 -40.529235 
L 395.348972 -40.529235 
L 395.079256 -40.529235 
L 394.80954 -40.529235 
L 394.539824 -40.529235 
L 394.270108 -40.529235 
L 394.000392 -40.529235 
L 393.730677 -40.529235 
L 393.460961 -40.529235 
L 393.191245 -40.529235 
L 392.921529 -40.529235 
L 392.651813 -40.529235 
L 392.382097 -40.529235 
L 392.112381 -40.529235 
L 391.842665 -40.529235 
L 391.57295 -40.529235 
L 391.303234 -40.529235 
L 391.033518 -40.529235 
L 390.763802 -40.529235 
L 390.494086 -40.529235 
L 390.22437 -40.529235 
L 389.954654 -40.529235 
L 389.684938 -40.529235 
L 389.415223 -40.529235 
L 389.145507 -40.529235 
L 388.875791 -40.529235 
L 388.606075 -40.529235 
L 388.336359 -40.529235 
L 388.066643 -40.529235 
L 387.796927 -40.529235 
L 387.527211 -40.529235 
L 387.257496 -40.529235 
L 386.98778 -40.529235 
L 386.718064 -40.529235 
L 386.448348 -40.529235 
L 386.178632 -40.529235 
L 385.908916 -40.529235 
L 385.6392 -40.529235 
L 385.369484 -40.529235 
L 385.099769 -40.529235 
L 384.830053 -40.529235 
L 384.560337 -40.529235 
L 384.290621 -40.529235 
L 384.020905 -40.529235 
L 383.751189 -40.529235 
L 383.481473 -40.529235 
L 383.211758 -40.529235 
L 382.942042 -40.529235 
L 382.672326 -40.529235 
L 382.40261 -40.529235 
L 382.132894 -40.529235 
L 381.863178 -40.529235 
L 381.593462 -40.529235 
L 381.323746 -40.529235 
L 381.054031 -40.529235 
L 380.784315 -40.529235 
L 380.514599 -40.529235 
L 380.244883 -40.529235 
L 379.975167 -40.529235 
L 379.705451 -40.529235 
L 379.435735 -40.529235 
L 379.166019 -40.529235 
L 378.896304 -40.529235 
L 378.626588 -40.529235 
L 378.356872 -40.529235 
L 378.087156 -40.529235 
L 377.81744 -40.529235 
L 377.547724 -40.529235 
L 377.278008 -40.529235 
L 377.008292 -40.529235 
L 376.738577 -40.529235 
L 376.468861 -40.529235 
L 376.199145 -40.529235 
L 375.929429 -40.529235 
L 375.659713 -40.529235 
L 375.389997 -40.529235 
L 375.120281 -40.529235 
L 374.850565 -40.529235 
L 374.58085 -40.529235 
L 374.311134 -40.529235 
L 374.041418 -40.529235 
L 373.771702 -40.529235 
L 373.501986 -40.529235 
L 373.23227 -40.529235 
L 372.962554 -40.529235 
L 372.692838 -40.529235 
L 372.423123 -40.529235 
L 372.153407 -40.529235 
L 371.883691 -40.529235 
L 371.613975 -40.529235 
L 371.344259 -40.529235 
L 371.074543 -40.529235 
L 370.804827 -40.529235 
L 370.535111 -40.529235 
L 370.265396 -40.529235 
L 369.99568 -40.529235 
L 369.725964 -40.529235 
L 369.456248 -40.529235 
L 369.186532 -40.529235 
L 368.916816 -40.529235 
L 368.6471 -40.529235 
L 368.377384 -40.529235 
L 368.107669 -40.529235 
L 367.837953 -40.529235 
L 367.568237 -40.529235 
L 367.298521 -40.529235 
L 367.028805 -40.529235 
L 366.759089 -40.529235 
L 366.489373 -40.529235 
L 366.219657 -40.529235 
L 365.949942 -40.529235 
L 365.680226 -40.529235 
L 365.41051 -40.529235 
L 365.140794 -40.529235 
L 364.871078 -40.529235 
L 364.601362 -40.529235 
L 364.331646 -40.529235 
L 364.06193 -40.529235 
L 363.792215 -40.529235 
L 363.522499 -40.529235 
L 363.252783 -40.529235 
L 362.983067 -40.529235 
L 362.713351 -40.529235 
L 362.443635 -40.529235 
L 362.173919 -40.529235 
L 361.904204 -40.529235 
L 361.634488 -40.529235 
L 361.364772 -40.529235 
L 361.095056 -40.529235 
L 360.82534 -40.529235 
L 360.555624 -40.529235 
L 360.285908 -40.529235 
L 360.016192 -40.529235 
L 359.746477 -40.529235 
L 359.476761 -40.529235 
L 359.207045 -40.529235 
L 358.937329 -40.529235 
L 358.667613 -40.529235 
L 358.397897 -40.529235 
L 358.128181 -40.529235 
L 357.858465 -40.529235 
L 357.58875 -40.529235 
L 357.319034 -40.529235 
L 357.049318 -40.529235 
L 356.779602 -40.529235 
L 356.509886 -40.529235 
L 356.24017 -40.529235 
L 355.970454 -40.529235 
L 355.700738 -40.529235 
L 355.431023 -40.529235 
L 355.161307 -40.529235 
L 354.891591 -40.529235 
L 354.621875 -40.529235 
L 354.352159 -40.529235 
L 354.082443 -40.529235 
L 353.812727 -40.529235 
L 353.543011 -40.529235 
L 353.273296 -40.529235 
L 353.00358 -40.529235 
L 352.733864 -40.529235 
L 352.464148 -40.529235 
L 352.194432 -40.529235 
L 351.924716 -40.529235 
L 351.655 -40.529235 
L 351.385284 -40.529235 
L 351.115569 -40.529235 
L 350.845853 -40.529235 
L 350.576137 -40.529235 
L 350.306421 -40.529235 
L 350.036705 -40.529235 
L 349.766989 -40.529235 
L 349.497273 -40.529235 
L 349.227557 -40.529235 
L 348.957842 -40.529235 
L 348.688126 -40.529235 
L 348.41841 -40.529235 
L 348.148694 -40.529235 
L 347.878978 -40.529235 
L 347.609262 -40.529235 
L 347.339546 -40.529235 
L 347.06983 -40.529235 
L 346.800115 -40.529235 
L 346.530399 -40.529235 
L 346.260683 -40.529235 
L 345.990967 -40.529235 
L 345.721251 -40.529235 
L 345.451535 -40.529235 
L 345.181819 -40.529235 
L 344.912103 -40.529235 
L 344.642388 -40.529235 
L 344.372672 -40.529235 
L 344.102956 -40.529235 
L 343.83324 -40.529235 
L 343.563524 -40.529235 
L 343.293808 -40.529235 
L 343.024092 -40.529235 
L 342.754376 -40.529235 
L 342.484661 -40.529235 
L 342.214945 -40.529235 
L 341.945229 -40.529235 
L 341.675513 -40.529235 
L 341.405797 -40.529235 
L 341.136081 -40.529235 
L 340.866365 -40.529235 
L 340.59665 -40.529235 
L 340.326934 -40.529235 
L 340.057218 -40.529235 
L 339.787502 -40.529235 
L 339.517786 -40.529235 
L 339.24807 -40.529235 
L 338.978354 -40.529235 
L 338.708638 -40.529235 
L 338.438923 -40.529235 
L 338.169207 -40.529235 
L 337.899491 -40.529235 
L 337.629775 -40.529235 
L 337.360059 -40.529235 
L 337.090343 -40.529235 
L 336.820627 -40.529235 
L 336.550911 -40.529235 
L 336.281196 -40.529235 
L 336.01148 -40.529235 
L 335.741764 -40.529235 
L 335.472048 -40.529235 
L 335.202332 -40.529235 
L 334.932616 -40.529235 
L 334.6629 -40.529235 
L 334.393184 -40.529235 
L 334.123469 -40.529235 
L 333.853753 -40.529235 
L 333.584037 -40.529235 
L 333.314321 -40.529235 
L 333.044605 -40.529235 
L 332.774889 -40.529235 
L 332.505173 -40.529235 
L 332.235457 -40.529235 
L 331.965742 -40.529235 
L 331.696026 -40.529235 
L 331.42631 -40.529235 
L 331.156594 -40.529235 
L 330.886878 -40.529235 
L 330.617162 -40.529235 
L 330.347446 -40.529235 
L 330.07773 -40.529235 
L 329.808015 -40.529235 
L 329.538299 -40.529235 
L 329.268583 -40.529235 
L 328.998867 -40.529235 
L 328.729151 -40.529235 
L 328.459435 -40.529235 
L 328.189719 -40.529235 
L 327.920003 -40.529235 
L 327.650288 -40.529235 
L 327.380572 -40.529235 
L 327.110856 -40.529235 
L 326.84114 -40.529235 
L 326.571424 -40.529235 
L 326.301708 -40.529235 
L 326.031992 -40.529235 
L 325.762276 -40.529235 
L 325.492561 -40.529235 
L 325.222845 -40.529235 
L 324.953129 -40.529235 
L 324.683413 -40.529235 
L 324.413697 -40.529235 
L 324.143981 -40.529235 
L 323.874265 -40.529235 
L 323.604549 -40.529235 
L 323.334834 -40.529235 
L 323.065118 -40.529235 
L 322.795402 -40.529235 
L 322.525686 -40.529235 
L 322.25597 -40.529235 
L 321.986254 -40.529235 
L 321.716538 -40.529235 
L 321.446822 -40.529235 
L 321.177107 -40.529235 
L 320.907391 -40.529235 
L 320.637675 -40.529235 
L 320.367959 -40.529235 
L 320.098243 -40.529235 
L 319.828527 -40.529235 
L 319.558811 -40.529235 
L 319.289096 -40.529235 
L 319.01938 -40.529235 
L 318.749664 -40.529235 
L 318.479948 -40.529235 
L 318.210232 -40.529235 
L 317.940516 -40.529235 
L 317.6708 -40.529235 
L 317.401084 -40.529235 
L 317.131369 -40.529235 
L 316.861653 -40.529235 
L 316.591937 -40.529235 
L 316.322221 -40.529235 
L 316.052505 -40.529235 
L 315.782789 -40.529235 
L 315.513073 -40.529235 
L 315.243357 -40.529235 
L 314.973642 -40.529235 
L 314.703926 -40.529235 
L 314.43421 -40.529235 
L 314.164494 -40.529235 
L 313.894778 -40.529235 
L 313.625062 -40.529235 
L 313.355346 -40.529235 
L 313.08563 -40.529235 
L 312.815915 -40.529235 
L 312.546199 -40.529235 
L 312.276483 -40.529235 
L 312.006767 -40.529235 
L 311.737051 -40.529235 
L 311.467335 -40.529235 
L 311.197619 -40.529235 
L 310.927903 -40.529235 
L 310.658188 -40.529235 
L 310.388472 -40.529235 
L 310.118756 -40.529235 
L 309.84904 -40.529235 
L 309.579324 -40.529235 
L 309.309608 -40.529235 
L 309.039892 -40.529235 
L 308.770176 -40.529235 
L 308.500461 -40.529235 
L 308.230745 -40.529235 
L 307.961029 -40.529235 
L 307.691313 -40.529235 
L 307.421597 -40.529235 
L 307.151881 -40.529235 
L 306.882165 -40.529235 
L 306.612449 -40.529235 
L 306.342734 -40.529235 
L 306.073018 -40.529235 
L 305.803302 -40.529235 
L 305.533586 -40.529235 
L 305.26387 -40.529235 
L 304.994154 -40.529235 
L 304.724438 -40.529235 
L 304.454722 -40.529235 
L 304.185007 -40.529235 
L 303.915291 -40.529235 
L 303.645575 -40.529235 
L 303.375859 -40.529235 
L 303.106143 -40.529235 
L 302.836427 -40.529235 
L 302.566711 -40.529235 
L 302.296995 -40.529235 
L 302.02728 -40.529235 
L 301.757564 -40.529235 
L 301.487848 -40.529235 
L 301.218132 -40.529235 
L 300.948416 -40.529235 
L 300.6787 -40.529235 
L 300.408984 -40.529235 
L 300.139268 -40.529235 
L 299.869553 -40.529235 
L 299.599837 -40.529235 
L 299.330121 -40.529235 
L 299.060405 -40.529235 
L 298.790689 -40.529235 
L 298.520973 -40.529235 
L 298.251257 -40.529235 
L 297.981542 -40.529235 
L 297.711826 -40.529235 
L 297.44211 -40.529235 
L 297.172394 -40.529235 
L 296.902678 -40.529235 
L 296.632962 -40.529235 
L 296.363246 -40.529235 
L 296.09353 -40.529235 
L 295.823815 -40.529235 
L 295.554099 -40.529235 
L 295.284383 -40.529235 
L 295.014667 -40.529235 
L 294.744951 -40.529235 
L 294.475235 -40.529235 
L 294.205519 -40.529235 
L 293.935803 -40.529235 
L 293.666088 -40.529235 
L 293.396372 -40.529235 
L 293.126656 -40.529235 
L 292.85694 -40.529235 
L 292.587224 -40.529235 
L 292.317508 -40.529235 
L 292.047792 -40.529235 
L 291.778076 -40.529235 
L 291.508361 -40.529235 
L 291.238645 -40.529235 
L 290.968929 -40.529235 
L 290.699213 -40.529235 
L 290.429497 -40.529235 
L 290.159781 -40.529235 
L 289.890065 -40.529235 
L 289.620349 -40.529235 
L 289.350634 -40.529235 
L 289.080918 -40.529235 
L 288.811202 -40.529235 
L 288.541486 -40.529235 
L 288.27177 -40.529235 
L 288.002054 -40.529235 
L 287.732338 -40.529235 
L 287.462622 -40.529235 
L 287.192907 -40.529235 
L 286.923191 -40.529235 
L 286.653475 -40.529235 
L 286.383759 -40.529235 
L 286.114043 -40.529235 
L 285.844327 -40.529235 
L 285.574611 -40.529235 
L 285.304895 -40.529235 
L 285.03518 -40.529235 
L 284.765464 -40.529235 
L 284.495748 -40.529235 
L 284.226032 -40.529235 
L 283.956316 -40.529235 
L 283.6866 -40.529235 
L 283.416884 -40.529235 
L 283.147168 -40.529235 
L 282.877453 -40.529235 
L 282.607737 -40.529235 
L 282.338021 -40.529235 
L 282.068305 -40.529235 
L 281.798589 -40.529235 
L 281.528873 -40.529235 
L 281.259157 -40.529235 
L 280.989441 -40.529235 
L 280.719726 -40.529235 
L 280.45001 -40.529235 
L 280.180294 -40.529235 
L 279.910578 -40.529235 
L 279.640862 -40.529235 
L 279.371146 -40.529235 
L 279.10143 -40.529235 
L 278.831714 -40.529235 
L 278.561999 -40.529235 
L 278.292283 -40.529235 
L 278.022567 -40.529235 
L 277.752851 -40.529235 
L 277.483135 -40.529235 
L 277.213419 -40.529235 
L 276.943703 -40.529235 
z
" style="stroke: #000000; stroke-opacity: 0.1; stroke-width: 0.5"/>
    </defs>
    <g clip-path="url(#p914ec169ed)">
     <use xlink:href="#m2aeb6be5d1" x="0" y="153.115422" style="fill-opacity: 0.1; stroke: #000000; stroke-opacity: 0.1; stroke-width: 0.5"/>
    </g>
   </g>
   <g id="line2d_31">
    <path d="M 276.943703 12.21839 
L 411.531924 112.586188 
L 411.531924 112.586188 
" clip-path="url(#p914ec169ed)" style="fill: none; stroke: #000000; stroke-opacity: 0.5; stroke-width: 0.7; stroke-linecap: square"/>
   </g>
   <g id="line2d_32">
    <path d="M 276.943703 112.586188 
L 411.531924 112.586188 
L 411.531924 112.586188 
" clip-path="url(#p914ec169ed)" style="fill: none; stroke: #000000; stroke-width: 0.7; stroke-linecap: square"/>
   </g>
   <g id="patch_6">
    <path d="M 270.214292 117.604578 
L 270.214292 7.2 
" style="fill: none; stroke: #000000; stroke-width: 0.5; stroke-linejoin: miter; stroke-linecap: square"/>
   </g>
   <g id="patch_7">
    <path d="M 270.214292 117.604578 
L 418.261335 117.604578 
" style="fill: none; stroke: #000000; stroke-width: 0.5; stroke-linejoin: miter; stroke-linecap: square"/>
   </g>
  </g>
 </g>
 <defs>
  <clipPath id="p54f6f90383">
   <rect x="59.310588" y="7.2" width="148.047043" height="110.404578"/>
  </clipPath>
  <clipPath id="p914ec169ed">
   <rect x="270.214292" y="7.2" width="148.047043" height="110.404578"/>
  </clipPath>
 </defs>
</svg>
