<?xml version="1.0" encoding="utf-8" standalone="no"?>
<!DOCTYPE svg PUBLIC "-//W3C//DTD SVG 1.1//EN"
  "http://www.w3.org/Graphics/SVG/1.1/DTD/svg11.dtd">
<svg xmlns:xlink="http://www.w3.org/1999/xlink" width="406.517839pt" height="165.110845pt" viewBox="0 0 406.517839 165.110845" xmlns="http://www.w3.org/2000/svg" version="1.1">
 <metadata>
  <rdf:RDF xmlns:dc="http://purl.org/dc/elements/1.1/" xmlns:cc="http://creativecommons.org/ns#" xmlns:rdf="http://www.w3.org/1999/02/22-rdf-syntax-ns#">
   <cc:Work>
    <dc:type rdf:resource="http://purl.org/dc/dcmitype/StillImage"/>
    <dc:date>2024-02-20T17:29:16.835678</dc:date>
    <dc:format>image/svg+xml</dc:format>
    <dc:creator>
     <cc:Agent>
      <dc:title>Matplotlib v3.8.2, https://matplotlib.org/</dc:title>
     </cc:Agent>
    </dc:creator>
   </cc:Work>
  </rdf:RDF>
 </metadata>
 <defs>
  <style type="text/css">*{stroke-linejoin: round; stroke-linecap: butt}</style>
 </defs>
 <g id="figure_1">
  <g id="patch_1">
   <path d="M 0 165.110845 
L 406.517839 165.110845 
L 406.517839 0 
L 0 0 
z
" style="fill: #ffffff"/>
  </g>
  <g id="axes_1">
   <g id="patch_2">
    <path d="M 36.617839 129.6 
L 399.317839 129.6 
L 399.317839 7.2 
L 36.617839 7.2 
z
" style="fill: #ffffff"/>
   </g>
   <g id="matplotlib.axis_1">
    <g id="xtick_1">
     <g id="line2d_1">
      <path d="M 53.104202 129.6 
L 53.104202 7.2 
" clip-path="url(#p8e89e4ad1a)" style="fill: none; stroke: #d3d3d3; stroke-width: 0.2; stroke-linecap: square"/>
     </g>
     <g id="line2d_2">
      <defs>
       <path id="m9ce4c7ea15" d="M 0 0 
L 0 -3.5 
" style="stroke: #000000; stroke-width: 0.8"/>
      </defs>
      <g>
       <use xlink:href="#m9ce4c7ea15" x="53.104202" y="129.6" style="stroke: #000000; stroke-width: 0.8"/>
      </g>
     </g>
     <g id="text_1">
      <!-- $\mathdefault{0.0}$ -->
      <g transform="translate(46.739163 140.018498) scale(0.1 -0.1)">
       <defs>
        <path id="CMR17-30" d="M 2688 2038 
C 2688 2430 2682 3099 2413 3613 
C 2176 4063 1798 4224 1466 4224 
C 1158 4224 768 4082 525 3620 
C 269 3137 243 2539 243 2038 
C 243 1671 250 1112 448 623 
C 723 -39 1216 -128 1466 -128 
C 1760 -128 2208 -7 2470 604 
C 2662 1048 2688 1568 2688 2038 
z
M 1466 -26 
C 1056 -26 813 328 723 816 
C 653 1196 653 1749 653 2109 
C 653 2604 653 3015 736 3407 
C 858 3954 1216 4121 1466 4121 
C 1728 4121 2067 3947 2189 3420 
C 2272 3054 2278 2623 2278 2109 
C 2278 1691 2278 1176 2202 797 
C 2067 96 1690 -26 1466 -26 
z
" transform="scale(0.015625)"/>
        <path id="CMMI12-3a" d="M 1178 307 
C 1178 492 1024 620 870 620 
C 685 620 557 467 557 313 
C 557 128 710 0 864 0 
C 1050 0 1178 153 1178 307 
z
" transform="scale(0.015625)"/>
       </defs>
       <use xlink:href="#CMR17-30" transform="scale(0.996264)"/>
       <use xlink:href="#CMMI12-3a" transform="translate(45.690477 0) scale(0.996264)"/>
       <use xlink:href="#CMR17-30" transform="translate(72.787654 0) scale(0.996264)"/>
      </g>
     </g>
    </g>
    <g id="xtick_2">
     <g id="line2d_3">
      <path d="M 119.049657 129.6 
L 119.049657 7.2 
" clip-path="url(#p8e89e4ad1a)" style="fill: none; stroke: #d3d3d3; stroke-width: 0.2; stroke-linecap: square"/>
     </g>
     <g id="line2d_4">
      <g>
       <use xlink:href="#m9ce4c7ea15" x="119.049657" y="129.6" style="stroke: #000000; stroke-width: 0.8"/>
      </g>
     </g>
     <g id="text_2">
      <!-- $\mathdefault{0.2}$ -->
      <g transform="translate(112.684617 140.018498) scale(0.1 -0.1)">
       <defs>
        <path id="CMR17-32" d="M 2669 990 
L 2554 990 
C 2490 537 2438 460 2413 422 
C 2381 371 1920 371 1830 371 
L 602 371 
C 832 620 1280 1073 1824 1596 
C 2214 1966 2669 2400 2669 3033 
C 2669 3788 2067 4224 1395 4224 
C 691 4224 262 3603 262 3027 
C 262 2777 448 2745 525 2745 
C 589 2745 781 2783 781 3007 
C 781 3206 614 3264 525 3264 
C 486 3264 448 3257 422 3244 
C 544 3788 915 4057 1306 4057 
C 1862 4057 2227 3616 2227 3033 
C 2227 2477 1901 1998 1536 1583 
L 262 147 
L 262 0 
L 2515 0 
L 2669 990 
z
" transform="scale(0.015625)"/>
       </defs>
       <use xlink:href="#CMR17-30" transform="scale(0.996264)"/>
       <use xlink:href="#CMMI12-3a" transform="translate(45.690477 0) scale(0.996264)"/>
       <use xlink:href="#CMR17-32" transform="translate(72.787654 0) scale(0.996264)"/>
      </g>
     </g>
    </g>
    <g id="xtick_3">
     <g id="line2d_5">
      <path d="M 184.995111 129.6 
L 184.995111 7.2 
" clip-path="url(#p8e89e4ad1a)" style="fill: none; stroke: #d3d3d3; stroke-width: 0.2; stroke-linecap: square"/>
     </g>
     <g id="line2d_6">
      <g>
       <use xlink:href="#m9ce4c7ea15" x="184.995111" y="129.6" style="stroke: #000000; stroke-width: 0.8"/>
      </g>
     </g>
     <g id="text_3">
      <!-- $\mathdefault{0.4}$ -->
      <g transform="translate(178.630072 140.018498) scale(0.1 -0.1)">
       <defs>
        <path id="CMR17-34" d="M 2150 4147 
C 2150 4281 2144 4288 2029 4288 
L 128 1254 
L 128 1088 
L 1779 1088 
L 1779 460 
C 1779 230 1766 166 1318 166 
L 1197 166 
L 1197 0 
C 1402 12 1747 12 1965 12 
C 2182 12 2528 12 2733 0 
L 2733 166 
L 2611 166 
C 2163 166 2150 230 2150 460 
L 2150 1088 
L 2803 1088 
L 2803 1254 
L 2150 1254 
L 2150 4147 
z
M 1798 3723 
L 1798 1254 
L 256 1254 
L 1798 3723 
z
" transform="scale(0.015625)"/>
       </defs>
       <use xlink:href="#CMR17-30" transform="scale(0.996264)"/>
       <use xlink:href="#CMMI12-3a" transform="translate(45.690477 0) scale(0.996264)"/>
       <use xlink:href="#CMR17-34" transform="translate(72.787654 0) scale(0.996264)"/>
      </g>
     </g>
    </g>
    <g id="xtick_4">
     <g id="line2d_7">
      <path d="M 250.940566 129.6 
L 250.940566 7.2 
" clip-path="url(#p8e89e4ad1a)" style="fill: none; stroke: #d3d3d3; stroke-width: 0.2; stroke-linecap: square"/>
     </g>
     <g id="line2d_8">
      <g>
       <use xlink:href="#m9ce4c7ea15" x="250.940566" y="129.6" style="stroke: #000000; stroke-width: 0.8"/>
      </g>
     </g>
     <g id="text_4">
      <!-- $\mathdefault{0.6}$ -->
      <g transform="translate(244.575526 140.018498) scale(0.1 -0.1)">
       <defs>
        <path id="CMR17-36" d="M 678 2198 
C 678 3712 1395 4076 1811 4076 
C 1946 4076 2272 4049 2400 3782 
C 2298 3782 2106 3782 2106 3558 
C 2106 3385 2246 3328 2336 3328 
C 2394 3328 2566 3353 2566 3571 
C 2566 3987 2246 4224 1805 4224 
C 1043 4224 243 3411 243 2011 
C 243 257 966 -128 1478 -128 
C 2099 -128 2688 431 2688 1295 
C 2688 2101 2170 2688 1517 2688 
C 1126 2688 838 2430 678 1979 
L 678 2198 
z
M 1478 25 
C 691 25 691 1212 691 1450 
C 691 1914 909 2585 1504 2585 
C 1613 2585 1926 2585 2138 2140 
C 2253 1889 2253 1624 2253 1302 
C 2253 954 2253 696 2118 438 
C 1978 173 1773 25 1478 25 
z
" transform="scale(0.015625)"/>
       </defs>
       <use xlink:href="#CMR17-30" transform="scale(0.996264)"/>
       <use xlink:href="#CMMI12-3a" transform="translate(45.690477 0) scale(0.996264)"/>
       <use xlink:href="#CMR17-36" transform="translate(72.787654 0) scale(0.996264)"/>
      </g>
     </g>
    </g>
    <g id="xtick_5">
     <g id="line2d_9">
      <path d="M 316.88602 129.6 
L 316.88602 7.2 
" clip-path="url(#p8e89e4ad1a)" style="fill: none; stroke: #d3d3d3; stroke-width: 0.2; stroke-linecap: square"/>
     </g>
     <g id="line2d_10">
      <g>
       <use xlink:href="#m9ce4c7ea15" x="316.88602" y="129.6" style="stroke: #000000; stroke-width: 0.8"/>
      </g>
     </g>
     <g id="text_5">
      <!-- $\mathdefault{0.8}$ -->
      <g transform="translate(310.520981 140.018498) scale(0.1 -0.1)">
       <defs>
        <path id="CMR17-38" d="M 1741 2289 
C 2144 2494 2554 2803 2554 3298 
C 2554 3884 1990 4224 1472 4224 
C 890 4224 378 3800 378 3215 
C 378 3054 416 2777 666 2533 
C 730 2469 998 2276 1171 2154 
C 883 2006 211 1652 211 945 
C 211 282 838 -128 1459 -128 
C 2144 -128 2720 366 2720 1022 
C 2720 1607 2330 1877 2074 2051 
L 1741 2289 
z
M 902 2855 
C 851 2887 595 3086 595 3388 
C 595 3781 998 4076 1459 4076 
C 1965 4076 2336 3716 2336 3298 
C 2336 2700 1670 2359 1638 2359 
C 1632 2359 1626 2359 1574 2398 
L 902 2855 
z
M 2080 1536 
C 2176 1466 2483 1253 2483 861 
C 2483 385 2010 25 1472 25 
C 890 25 448 443 448 951 
C 448 1459 838 1884 1280 2083 
L 2080 1536 
z
" transform="scale(0.015625)"/>
       </defs>
       <use xlink:href="#CMR17-30" transform="scale(0.996264)"/>
       <use xlink:href="#CMMI12-3a" transform="translate(45.690477 0) scale(0.996264)"/>
       <use xlink:href="#CMR17-38" transform="translate(72.787654 0) scale(0.996264)"/>
      </g>
     </g>
    </g>
    <g id="xtick_6">
     <g id="line2d_11">
      <path d="M 382.831475 129.6 
L 382.831475 7.2 
" clip-path="url(#p8e89e4ad1a)" style="fill: none; stroke: #d3d3d3; stroke-width: 0.2; stroke-linecap: square"/>
     </g>
     <g id="line2d_12">
      <g>
       <use xlink:href="#m9ce4c7ea15" x="382.831475" y="129.6" style="stroke: #000000; stroke-width: 0.8"/>
      </g>
     </g>
     <g id="text_6">
      <!-- $\mathdefault{1.0}$ -->
      <g transform="translate(376.466435 140.018498) scale(0.1 -0.1)">
       <defs>
        <path id="CMR17-31" d="M 1702 4083 
C 1702 4217 1696 4224 1606 4224 
C 1357 3927 979 3833 621 3820 
C 602 3820 570 3820 563 3808 
C 557 3795 557 3782 557 3648 
C 755 3648 1088 3686 1344 3839 
L 1344 467 
C 1344 243 1331 166 781 166 
L 589 166 
L 589 0 
C 896 6 1216 12 1523 12 
C 1830 12 2150 6 2458 0 
L 2458 166 
L 2266 166 
C 1715 166 1702 236 1702 467 
L 1702 4083 
z
" transform="scale(0.015625)"/>
       </defs>
       <use xlink:href="#CMR17-31" transform="scale(0.996264)"/>
       <use xlink:href="#CMMI12-3a" transform="translate(45.690477 0) scale(0.996264)"/>
       <use xlink:href="#CMR17-30" transform="translate(72.787654 0) scale(0.996264)"/>
      </g>
     </g>
    </g>
    <g id="text_7">
     <!-- $\varphi$ [rad] -->
     <g transform="translate(200.476683 154.922053) scale(0.12 -0.12)">
      <defs>
       <path id="CMMI12-27" d="M 1926 281 
C 1818 281 1722 281 1722 313 
C 1722 326 1830 926 1869 1066 
C 2074 1883 2560 2470 3117 2470 
C 3533 2470 3725 2157 3725 1806 
C 3725 1079 2906 281 1926 281 
z
M 1651 -52 
C 1690 -58 1754 -64 1869 -64 
C 2918 -64 3885 945 3885 1953 
C 3885 2342 3712 2816 3174 2816 
C 2253 2816 1862 1519 1504 319 
C 768 460 461 849 461 1277 
C 461 1449 595 2132 966 2592 
C 1037 2675 1037 2687 1037 2700 
C 1037 2752 986 2752 973 2752 
C 800 2752 314 1819 314 1213 
C 314 498 877 108 1395 -7 
L 1062 -1111 
C 1030 -1209 1030 -1222 1030 -1248 
C 1030 -1402 1184 -1408 1197 -1408 
C 1261 -1408 1376 -1383 1427 -1254 
C 1446 -1196 1626 -182 1651 -52 
z
" transform="scale(0.015625)"/>
       <path id="CMR17-5b" d="M 1504 -1600 
L 1504 -1376 
L 902 -1376 
L 902 4575 
L 1504 4575 
L 1504 4800 
L 678 4800 
L 678 -1600 
L 1504 -1600 
z
" transform="scale(0.015625)"/>
       <path id="CMR17-72" d="M 960 1517 
C 960 2134 1222 2713 1702 2713 
C 1747 2713 1792 2707 1837 2687 
C 1837 2687 1696 2642 1696 2475 
C 1696 2321 1818 2257 1914 2257 
C 1990 2257 2131 2302 2131 2482 
C 2131 2687 1926 2816 1709 2816 
C 1222 2816 1011 2340 947 2115 
L 941 2115 
L 941 2816 
L 198 2745 
L 198 2578 
C 576 2578 634 2540 634 2231 
L 634 443 
C 634 198 608 166 198 166 
L 198 0 
C 352 12 646 12 813 12 
C 998 12 1325 12 1498 0 
L 1498 166 
C 1037 166 960 166 960 455 
L 960 1517 
z
" transform="scale(0.015625)"/>
       <path id="CMR17-61" d="M 2304 1656 
C 2304 2048 2304 2275 2035 2534 
C 1798 2751 1523 2816 1306 2816 
C 800 2816 435 2408 435 1977 
C 435 1740 627 1728 666 1728 
C 749 1728 896 1779 896 1958 
C 896 2118 774 2188 666 2188 
C 640 2188 608 2182 589 2176 
C 723 2594 1069 2713 1293 2713 
C 1613 2713 1965 2421 1965 1875 
L 1965 1632 
C 1587 1619 1133 1568 774 1373 
C 371 1147 256 822 256 576 
C 256 77 832 -64 1171 -64 
C 1523 -64 1850 135 1990 505 
C 2003 219 2182 -39 2464 -39 
C 2598 -39 2938 51 2938 563 
L 2938 926 
L 2822 926 
L 2822 557 
C 2822 161 2650 109 2566 109 
C 2304 109 2304 446 2304 732 
L 2304 1656 
z
M 1965 887 
C 1965 323 1568 38 1216 38 
C 896 38 646 278 646 576 
C 646 771 730 1114 1101 1322 
C 1408 1497 1760 1523 1965 1536 
L 1965 887 
z
" transform="scale(0.015625)"/>
       <path id="CMR17-64" d="M 1869 4345 
L 1869 4179 
C 2246 4179 2304 4141 2304 3843 
L 2304 2371 
C 2278 2403 2016 2816 1498 2816 
C 845 2816 211 2228 211 1376 
C 211 529 806 -64 1434 -64 
C 1978 -64 2259 361 2291 406 
L 2291 -64 
L 3066 -13 
L 3066 154 
C 2688 154 2630 193 2630 503 
L 2630 4416 
L 1869 4345 
z
M 2291 762 
C 2291 568 2176 393 2029 264 
C 1811 70 1594 38 1472 38 
C 1286 38 621 135 621 1369 
C 621 2636 1363 2713 1530 2713 
C 1824 2713 2061 2545 2208 2313 
C 2291 2177 2291 2157 2291 2041 
L 2291 762 
z
" transform="scale(0.015625)"/>
       <path id="CMR17-5d" d="M 915 4800 
L 90 4800 
L 90 4575 
L 691 4575 
L 691 -1376 
L 90 -1376 
L 90 -1600 
L 915 -1600 
L 915 4800 
z
" transform="scale(0.015625)"/>
      </defs>
      <use xlink:href="#CMMI12-27" transform="scale(0.996264)"/>
      <use xlink:href="#CMR17-5b" transform="translate(93.97903 0) scale(0.996264)"/>
      <use xlink:href="#CMR17-72" transform="translate(118.850089 0) scale(0.996264)"/>
      <use xlink:href="#CMR17-61" transform="translate(154.130856 0) scale(0.996264)"/>
      <use xlink:href="#CMR17-64" transform="translate(199.821333 0) scale(0.996264)"/>
      <use xlink:href="#CMR17-5d" transform="translate(250.716703 0) scale(0.996264)"/>
     </g>
    </g>
   </g>
   <g id="matplotlib.axis_2">
    <g id="ytick_1">
     <g id="line2d_13">
      <path d="M 36.617839 124.036364 
L 399.317839 124.036364 
" clip-path="url(#p8e89e4ad1a)" style="fill: none; stroke: #d3d3d3; stroke-width: 0.2; stroke-linecap: square"/>
     </g>
     <g id="line2d_14">
      <defs>
       <path id="m784dd01c19" d="M 0 0 
L 3.5 0 
" style="stroke: #000000; stroke-width: 0.8"/>
      </defs>
      <g>
       <use xlink:href="#m784dd01c19" x="36.617839" y="124.036364" style="stroke: #000000; stroke-width: 0.8"/>
      </g>
     </g>
     <g id="text_8">
      <!-- $\mathdefault{0}$ -->
      <g transform="translate(28.136503 127.495613) scale(0.1 -0.1)">
       <use xlink:href="#CMR17-30" transform="scale(0.996264)"/>
      </g>
     </g>
    </g>
    <g id="ytick_2">
     <g id="line2d_15">
      <path d="M 36.617839 83.492303 
L 399.317839 83.492303 
" clip-path="url(#p8e89e4ad1a)" style="fill: none; stroke: #d3d3d3; stroke-width: 0.2; stroke-linecap: square"/>
     </g>
     <g id="line2d_16">
      <g>
       <use xlink:href="#m784dd01c19" x="36.617839" y="83.492303" style="stroke: #000000; stroke-width: 0.8"/>
      </g>
     </g>
     <g id="text_9">
      <!-- $\mathdefault{20}$ -->
      <g transform="translate(23.155168 86.951552) scale(0.1 -0.1)">
       <use xlink:href="#CMR17-32" transform="scale(0.996264)"/>
       <use xlink:href="#CMR17-30" transform="translate(45.690477 0) scale(0.996264)"/>
      </g>
     </g>
    </g>
    <g id="ytick_3">
     <g id="line2d_17">
      <path d="M 36.617839 42.948243 
L 399.317839 42.948243 
" clip-path="url(#p8e89e4ad1a)" style="fill: none; stroke: #d3d3d3; stroke-width: 0.2; stroke-linecap: square"/>
     </g>
     <g id="line2d_18">
      <g>
       <use xlink:href="#m784dd01c19" x="36.617839" y="42.948243" style="stroke: #000000; stroke-width: 0.8"/>
      </g>
     </g>
     <g id="text_10">
      <!-- $\mathdefault{40}$ -->
      <g transform="translate(23.155168 46.407492) scale(0.1 -0.1)">
       <use xlink:href="#CMR17-34" transform="scale(0.996264)"/>
       <use xlink:href="#CMR17-30" transform="translate(45.690477 0) scale(0.996264)"/>
      </g>
     </g>
    </g>
    <g id="text_11">
     <!-- $M$ [kNm] -->
     <g transform="translate(16.166376 92.243699) rotate(-90) scale(0.12 -0.12)">
      <defs>
       <path id="CMMI12-4d" d="M 5811 3886 
C 5869 4102 5882 4166 6336 4166 
C 6458 4166 6515 4166 6515 4287 
C 6515 4352 6470 4352 6349 4352 
L 5581 4352 
C 5421 4352 5414 4345 5344 4243 
L 3008 567 
L 2528 4211 
C 2509 4352 2502 4352 2336 4352 
L 1542 4352 
C 1421 4352 1363 4352 1363 4230 
C 1363 4166 1421 4166 1517 4166 
C 1907 4166 1907 4115 1907 4045 
C 1907 4032 1907 3994 1882 3898 
L 1062 650 
C 986 344 838 204 410 185 
C 390 185 314 179 314 70 
C 314 0 371 0 397 0 
C 525 0 851 12 979 12 
L 1286 12 
C 1376 12 1485 0 1574 0 
C 1619 0 1690 0 1690 121 
C 1690 179 1626 185 1600 185 
C 1389 191 1184 230 1184 459 
C 1184 523 1184 529 1210 618 
L 2093 4128 
L 2099 4128 
L 2630 172 
C 2650 19 2656 0 2714 0 
C 2784 0 2816 51 2848 108 
L 5421 4159 
L 5427 4159 
L 4499 472 
C 4442 249 4429 185 3981 185 
C 3859 185 3795 185 3795 70 
C 3795 0 3853 0 3891 0 
C 4000 0 4128 12 4237 12 
L 4992 12 
C 5101 12 5235 0 5344 0 
C 5395 0 5466 0 5466 121 
C 5466 185 5408 185 5312 185 
C 4922 185 4922 236 4922 300 
C 4922 306 4922 351 4934 402 
L 5811 3886 
z
" transform="scale(0.015625)"/>
       <path id="CMR17-6b" d="M 1670 1679 
C 1664 1692 1632 1730 1632 1749 
C 1632 1762 2086 2175 2144 2226 
C 2509 2532 2739 2563 2906 2570 
L 2906 2735 
C 2867 2735 2854 2735 2848 2729 
L 2534 2722 
C 2355 2722 2080 2722 1907 2735 
L 1907 2570 
C 1997 2563 2061 2513 2061 2423 
C 2061 2296 1933 2175 1926 2175 
L 960 1298 
L 960 4416 
L 198 4345 
L 198 4179 
C 576 4179 634 4141 634 3835 
L 634 439 
C 634 198 608 166 198 166 
L 198 0 
C 352 12 634 12 794 12 
C 954 12 1235 12 1389 0 
L 1389 166 
C 979 166 954 191 954 439 
L 954 1139 
L 1395 1540 
L 2042 586 
C 2118 471 2182 382 2182 299 
C 2182 185 2067 166 1990 166 
L 1990 0 
C 2144 12 2419 12 2579 12 
C 2694 12 2931 6 3040 0 
L 3040 166 
C 2739 166 2669 223 2477 503 
L 1670 1679 
z
" transform="scale(0.015625)"/>
       <path id="CMR17-4e" d="M 1312 4275 
C 1267 4345 1261 4352 1139 4352 
L 326 4352 
L 326 4185 
L 448 4185 
C 704 4185 819 4153 838 4147 
L 838 624 
C 838 465 838 166 326 166 
L 326 0 
C 474 12 742 12 902 12 
C 1062 12 1331 12 1478 0 
L 1478 166 
C 966 166 966 465 966 624 
L 966 4057 
C 1011 4019 1011 4007 1056 3943 
L 3430 76 
C 3475 0 3494 0 3526 0 
C 3590 0 3590 19 3590 140 
L 3590 3726 
C 3590 3885 3590 4185 4102 4185 
L 4102 4352 
C 3955 4339 3686 4339 3526 4339 
C 3366 4339 3098 4339 2950 4352 
L 2950 4185 
C 3462 4185 3462 3885 3462 3726 
L 3462 777 
L 1312 4275 
z
" transform="scale(0.015625)"/>
       <path id="CMR17-6d" d="M 4326 1954 
C 4326 2276 4269 2816 3507 2816 
C 3072 2816 2771 2520 2656 2173 
L 2650 2173 
C 2573 2700 2195 2816 1837 2816 
C 1331 2816 1069 2424 973 2166 
L 966 2166 
L 966 2816 
L 211 2745 
L 211 2578 
C 589 2578 646 2540 646 2231 
L 646 443 
C 646 198 621 166 211 166 
L 211 0 
C 365 12 646 12 813 12 
C 979 12 1267 12 1421 0 
L 1421 166 
C 1011 166 986 192 986 443 
L 986 1678 
C 986 2269 1344 2713 1792 2713 
C 2266 2713 2317 2289 2317 1980 
L 2317 443 
C 2317 198 2291 166 1882 166 
L 1882 0 
C 2035 12 2317 12 2483 12 
C 2650 12 2938 12 3091 0 
L 3091 166 
C 2682 166 2656 192 2656 443 
L 2656 1678 
C 2656 2269 3014 2713 3462 2713 
C 3936 2713 3987 2289 3987 1980 
L 3987 443 
C 3987 198 3962 166 3552 166 
L 3552 0 
C 3706 12 3987 12 4154 12 
C 4320 12 4608 12 4762 0 
L 4762 166 
C 4352 166 4326 192 4326 443 
L 4326 1954 
z
" transform="scale(0.015625)"/>
      </defs>
      <use xlink:href="#CMMI12-4d" transform="scale(0.996264)"/>
      <use xlink:href="#CMR17-5b" transform="translate(134.856045 0) scale(0.996264)"/>
      <use xlink:href="#CMR17-6b" transform="translate(159.727104 0) scale(0.996264)"/>
      <use xlink:href="#CMR17-4e" transform="translate(208.02002 0) scale(0.996264)"/>
      <use xlink:href="#CMR17-6d" transform="translate(277.092449 0) scale(0.996264)"/>
      <use xlink:href="#CMR17-5d" transform="translate(354.012039 0) scale(0.996264)"/>
     </g>
    </g>
   </g>
   <g id="PolyCollection_1">
    <defs>
     <path id="mbcd83508a5" d="M 53.104202 -41.074481 
L 53.104202 -41.074481 
L 53.764978 -41.480734 
L 54.425754 -41.886987 
L 55.086531 -42.293241 
L 55.747307 -42.699494 
L 56.408083 -43.105747 
L 57.068859 -43.512 
L 57.729635 -43.918253 
L 58.390411 -44.324506 
L 59.051187 -44.730759 
L 59.711963 -45.137012 
L 60.372739 -45.543265 
L 61.033515 -45.949519 
L 61.694292 -46.355772 
L 62.355068 -46.762025 
L 63.015844 -47.168278 
L 63.67662 -47.574531 
L 64.337396 -47.980784 
L 64.998172 -48.387037 
L 65.658948 -48.79329 
L 66.319724 -49.199543 
L 66.9805 -49.605797 
L 67.641276 -50.01205 
L 68.302053 -50.418303 
L 68.962829 -50.824556 
L 69.623605 -51.230809 
L 70.284381 -51.637062 
L 70.945157 -52.043315 
L 71.605933 -52.449568 
L 72.266709 -52.855821 
L 72.927485 -53.262075 
L 73.588261 -53.668328 
L 74.249037 -54.074581 
L 74.909813 -54.480834 
L 75.57059 -54.887087 
L 76.231366 -55.29334 
L 76.892142 -55.699593 
L 77.552918 -56.105846 
L 78.213694 -56.512099 
L 78.87447 -56.918353 
L 79.535246 -57.324606 
L 80.196022 -57.730859 
L 80.856798 -58.137112 
L 81.517574 -58.543365 
L 82.178351 -58.949618 
L 82.839127 -59.355871 
L 83.499903 -59.762124 
L 84.160679 -60.168377 
L 84.821455 -60.574631 
L 85.482231 -60.980884 
L 86.143007 -61.387137 
L 86.803783 -61.79339 
L 87.464559 -62.199643 
L 88.125335 -62.605896 
L 88.786112 -63.012149 
L 89.446888 -63.418402 
L 90.107664 -63.824655 
L 90.76844 -64.230909 
L 91.429216 -64.637162 
L 92.089992 -65.043415 
L 92.750768 -65.449668 
L 93.411544 -65.855921 
L 94.07232 -66.262174 
L 94.733096 -66.668427 
L 95.393873 -67.07468 
L 96.054649 -67.480933 
L 96.715425 -67.887187 
L 97.376201 -68.29344 
L 98.036977 -68.699693 
L 98.697753 -69.105946 
L 99.358529 -69.512199 
L 100.019305 -69.918452 
L 100.680081 -70.324705 
L 101.340857 -70.730958 
L 102.001633 -71.137211 
L 102.66241 -71.543465 
L 103.323186 -71.949718 
L 103.983962 -72.355971 
L 104.644738 -72.762224 
L 105.305514 -73.168477 
L 105.96629 -73.57473 
L 106.627066 -73.980983 
L 107.287842 -74.387236 
L 107.948618 -74.793489 
L 108.609394 -75.199743 
L 109.270171 -75.605996 
L 109.930947 -76.012249 
L 110.591723 -76.418502 
L 111.252499 -76.824755 
L 111.913275 -77.231008 
L 112.574051 -77.637261 
L 113.234827 -78.043514 
L 113.895603 -78.449767 
L 114.556379 -78.856021 
L 115.217155 -79.262274 
L 115.877932 -79.668527 
L 116.538708 -80.07478 
L 117.199484 -80.481033 
L 117.86026 -80.887286 
L 118.521036 -81.293539 
L 119.181812 -81.699792 
L 119.842588 -82.106045 
L 120.503364 -82.512299 
L 121.16414 -82.918552 
L 121.824916 -83.324805 
L 122.485693 -83.731058 
L 123.146469 -84.137311 
L 123.807245 -84.543564 
L 124.468021 -84.949817 
L 125.128797 -85.35607 
L 125.789573 -85.762323 
L 126.450349 -86.168577 
L 127.111125 -86.57483 
L 127.771901 -86.981083 
L 128.432677 -87.387336 
L 129.093453 -87.793589 
L 129.75423 -88.199842 
L 130.415006 -88.606095 
L 131.075782 -89.012348 
L 131.736558 -89.418601 
L 132.397334 -89.824855 
L 133.05811 -90.231108 
L 133.718886 -90.637361 
L 134.379662 -91.043614 
L 135.040438 -91.449867 
L 135.701214 -91.85612 
L 136.361991 -92.262373 
L 137.022767 -92.668626 
L 137.683543 -93.074879 
L 138.344319 -93.481133 
L 139.005095 -93.887386 
L 139.665871 -94.293639 
L 140.326647 -94.699892 
L 140.987423 -95.106145 
L 141.648199 -95.512398 
L 142.308975 -95.918651 
L 142.969752 -96.324904 
L 143.630528 -96.731157 
L 144.291304 -97.137411 
L 144.95208 -97.543664 
L 145.612856 -97.949917 
L 146.273632 -98.35617 
L 146.934408 -98.762423 
L 147.595184 -99.168676 
L 148.25596 -99.574929 
L 148.916736 -99.981182 
L 149.577513 -100.387435 
L 150.238289 -100.793689 
L 150.899065 -101.199942 
L 151.559841 -101.606195 
L 152.220617 -102.012448 
L 152.881393 -102.418701 
L 153.542169 -102.824954 
L 154.202945 -103.231207 
L 154.863721 -103.63746 
L 155.524497 -104.043713 
L 156.185273 -104.449967 
L 156.84605 -104.85622 
L 157.506826 -105.262473 
L 158.167602 -105.668726 
L 158.828378 -106.074979 
L 159.489154 -106.481232 
L 160.14993 -106.887485 
L 160.810706 -107.293738 
L 161.471482 -107.699991 
L 162.132258 -108.106245 
L 162.793034 -108.512498 
L 163.453811 -108.918751 
L 164.114587 -109.325004 
L 164.775363 -109.731257 
L 165.436139 -110.13751 
L 166.096915 -110.543763 
L 166.757691 -110.950016 
L 167.418467 -111.35627 
L 168.079243 -111.762523 
L 168.740019 -112.168776 
L 169.400795 -112.575029 
L 170.061572 -112.981282 
L 170.722348 -113.387535 
L 171.383124 -113.793788 
L 172.0439 -114.200041 
L 172.704676 -114.606294 
L 173.365452 -115.012548 
L 174.026228 -115.418801 
L 174.687004 -115.825054 
L 175.34778 -116.231307 
L 176.008556 -116.63756 
L 176.669333 -117.043813 
L 177.330109 -117.450066 
L 177.990885 -117.856319 
L 178.651661 -118.262572 
L 179.312437 -118.668826 
L 179.973213 -119.075079 
L 180.633989 -119.481332 
L 181.294765 -119.887585 
L 181.955541 -120.293838 
L 182.616317 -120.700091 
L 183.277093 -121.106344 
L 183.93787 -121.512597 
L 184.598646 -121.91885 
L 185.259422 -122.325104 
L 185.920198 -122.731357 
L 186.580974 -123.13761 
L 187.24175 -123.543863 
L 187.902526 -123.950116 
L 188.563302 -124.356369 
L 189.224078 -124.762622 
L 189.884854 -125.168875 
L 190.545631 -125.575128 
L 191.206407 -125.981382 
L 191.867183 -126.387635 
L 192.527959 -126.793888 
L 193.188735 -127.200141 
L 193.849511 -127.606394 
L 194.510287 -128.012647 
L 195.171063 -128.4189 
L 195.831839 -128.825153 
L 196.492615 -129.231406 
L 197.153392 -129.63766 
L 197.814168 -130.043913 
L 198.474944 -130.450166 
L 199.13572 -130.856419 
L 199.796496 -131.262672 
L 200.457272 -131.668925 
L 201.118048 -132.075178 
L 201.778824 -132.481431 
L 202.4396 -132.887684 
L 203.100376 -133.293938 
L 203.761153 -133.700191 
L 204.421929 -134.106444 
L 205.082705 -134.512697 
L 205.743481 -134.91895 
L 206.404257 -135.325203 
L 207.065033 -135.731456 
L 207.725809 -136.137709 
L 208.386585 -136.543962 
L 209.047361 -136.950216 
L 209.708137 -137.356469 
L 210.368913 -137.762722 
L 211.02969 -138.168975 
L 211.690466 -138.575228 
L 212.351242 -138.981481 
L 213.012018 -139.387734 
L 213.672794 -139.793987 
L 214.33357 -140.20024 
L 214.994346 -140.606494 
L 215.655122 -141.012747 
L 216.315898 -141.419 
L 216.976674 -141.825253 
L 217.637451 -142.231506 
L 218.298227 -142.231506 
L 218.959003 -142.272131 
L 219.619779 -142.312757 
L 220.280555 -142.353382 
L 220.941331 -142.394007 
L 221.602107 -142.434633 
L 222.262883 -142.475258 
L 222.923659 -142.515883 
L 223.584435 -142.556508 
L 224.245212 -142.597134 
L 224.905988 -142.637759 
L 225.566764 -142.678384 
L 226.22754 -142.71901 
L 226.888316 -142.759635 
L 227.549092 -142.80026 
L 228.209868 -142.840886 
L 228.870644 -142.881511 
L 229.53142 -142.922136 
L 230.192196 -142.962762 
L 230.852973 -143.003387 
L 231.513749 -143.044012 
L 232.174525 -143.084638 
L 232.835301 -143.125263 
L 233.496077 -143.165888 
L 234.156853 -143.206513 
L 234.817629 -143.247139 
L 235.478405 -143.287764 
L 236.139181 -143.328389 
L 236.799957 -143.369015 
L 237.460734 -143.40964 
L 238.12151 -143.450265 
L 238.782286 -143.490891 
L 239.443062 -143.531516 
L 240.103838 -143.572141 
L 240.764614 -143.612767 
L 241.42539 -143.653392 
L 242.086166 -143.694017 
L 242.746942 -143.734642 
L 243.407718 -143.775268 
L 244.068494 -143.815893 
L 244.729271 -143.856518 
L 245.390047 -143.897144 
L 246.050823 -143.937769 
L 246.711599 -143.978394 
L 247.372375 -144.01902 
L 248.033151 -144.059645 
L 248.693927 -144.10027 
L 249.354703 -144.140896 
L 250.015479 -144.181521 
L 250.676255 -144.222146 
L 251.337032 -144.262772 
L 251.997808 -144.303397 
L 252.658584 -144.344022 
L 253.31936 -144.384647 
L 253.980136 -144.425273 
L 254.640912 -144.465898 
L 255.301688 -144.506523 
L 255.962464 -144.547149 
L 256.62324 -144.587774 
L 257.284016 -144.628399 
L 257.944793 -144.669025 
L 258.605569 -144.70965 
L 259.266345 -144.750275 
L 259.927121 -144.790901 
L 260.587897 -144.831526 
L 261.248673 -144.872151 
L 261.909449 -144.912777 
L 262.570225 -144.953402 
L 263.231001 -144.994027 
L 263.891777 -145.034652 
L 264.552554 -145.075278 
L 265.21333 -145.115903 
L 265.874106 -145.156528 
L 266.534882 -145.197154 
L 267.195658 -145.237779 
L 267.856434 -145.278404 
L 268.51721 -145.31903 
L 269.177986 -145.359655 
L 269.838762 -145.40028 
L 270.499538 -145.440906 
L 271.160314 -145.481531 
L 271.821091 -145.522156 
L 272.481867 -145.562782 
L 273.142643 -145.603407 
L 273.803419 -145.644032 
L 274.464195 -145.684657 
L 275.124971 -145.725283 
L 275.785747 -145.765908 
L 276.446523 -145.806533 
L 277.107299 -145.847159 
L 277.768075 -145.887784 
L 278.428852 -145.928409 
L 279.089628 -145.969035 
L 279.750404 -146.00966 
L 280.41118 -146.050285 
L 281.071956 -146.090911 
L 281.732732 -146.131536 
L 282.393508 -146.172161 
L 283.054284 -146.212786 
L 283.71506 -146.253412 
L 284.375836 -146.294037 
L 285.036613 -146.334662 
L 285.697389 -146.375288 
L 286.358165 -146.415913 
L 287.018941 -146.456538 
L 287.679717 -146.497164 
L 288.340493 -146.537789 
L 289.001269 -146.578414 
L 289.662045 -146.61904 
L 290.322821 -146.659665 
L 290.983597 -146.70029 
L 291.644374 -146.740916 
L 292.30515 -146.781541 
L 292.965926 -146.822166 
L 293.626702 -146.862791 
L 294.287478 -146.903417 
L 294.948254 -146.944042 
L 295.60903 -146.984667 
L 296.269806 -147.025293 
L 296.930582 -147.065918 
L 297.591358 -147.106543 
L 298.252134 -147.147169 
L 298.912911 -147.187794 
L 299.573687 -147.228419 
L 300.234463 -147.269045 
L 300.895239 -147.30967 
L 301.556015 -147.350295 
L 302.216791 -147.390921 
L 302.877567 -147.431546 
L 303.538343 -147.472171 
L 304.199119 -147.512796 
L 304.859895 -147.553422 
L 305.520672 -147.594047 
L 306.181448 -147.634672 
L 306.842224 -147.675298 
L 307.503 -147.715923 
L 308.163776 -147.756548 
L 308.824552 -147.797174 
L 309.485328 -147.837799 
L 310.146104 -147.878424 
L 310.80688 -147.91905 
L 311.467656 -147.959675 
L 312.128433 -148.0003 
L 312.789209 -148.040925 
L 313.449985 -148.081551 
L 314.110761 -148.122176 
L 314.771537 -148.162801 
L 315.432313 -148.203427 
L 316.093089 -148.244052 
L 316.753865 -148.284677 
L 317.414641 -148.325303 
L 318.075417 -148.365928 
L 318.736194 -148.406553 
L 319.39697 -148.447179 
L 320.057746 -148.487804 
L 320.718522 -148.528429 
L 321.379298 -148.569055 
L 322.040074 -148.60968 
L 322.70085 -148.650305 
L 323.361626 -148.69093 
L 324.022402 -148.731556 
L 324.683178 -148.772181 
L 325.343954 -148.812806 
L 326.004731 -148.853432 
L 326.665507 -148.894057 
L 327.326283 -148.934682 
L 327.987059 -148.975308 
L 328.647835 -149.015933 
L 329.308611 -149.056558 
L 329.969387 -149.097184 
L 330.630163 -149.137809 
L 331.290939 -149.178434 
L 331.951715 -149.21906 
L 332.612492 -149.259685 
L 333.273268 -149.30031 
L 333.934044 -149.340935 
L 334.59482 -149.381561 
L 335.255596 -149.422186 
L 335.916372 -149.462811 
L 336.577148 -149.503437 
L 337.237924 -149.544062 
L 337.8987 -149.584687 
L 338.559476 -149.625313 
L 339.220253 -149.665938 
L 339.881029 -149.706563 
L 340.541805 -149.747189 
L 341.202581 -149.787814 
L 341.863357 -149.828439 
L 342.524133 -149.869064 
L 343.184909 -149.90969 
L 343.845685 -149.950315 
L 344.506461 -149.99094 
L 345.167237 -150.031566 
L 345.828014 -150.072191 
L 346.48879 -150.112816 
L 347.149566 -150.153442 
L 347.810342 -150.194067 
L 348.471118 -150.234692 
L 349.131894 -150.275318 
L 349.79267 -150.315943 
L 350.453446 -150.356568 
L 351.114222 -150.397194 
L 351.774998 -150.437819 
L 352.435774 -150.478444 
L 353.096551 -150.519069 
L 353.757327 -150.559695 
L 354.418103 -150.60032 
L 355.078879 -150.640945 
L 355.739655 -150.681571 
L 356.400431 -150.722196 
L 357.061207 -150.762821 
L 357.721983 -150.803447 
L 358.382759 -150.844072 
L 359.043535 -150.884697 
L 359.704312 -150.925323 
L 360.365088 -150.965948 
L 361.025864 -151.006573 
L 361.68664 -151.047199 
L 362.347416 -151.087824 
L 363.008192 -151.128449 
L 363.668968 -151.169074 
L 364.329744 -151.2097 
L 364.99052 -151.250325 
L 365.651296 -151.29095 
L 366.312073 -151.331576 
L 366.972849 -151.372201 
L 367.633625 -151.412826 
L 368.294401 -151.453452 
L 368.955177 -151.494077 
L 369.615953 -151.534702 
L 370.276729 -151.575328 
L 370.937505 -151.615953 
L 371.598281 -151.656578 
L 372.259057 -151.697203 
L 372.919834 -151.737829 
L 373.58061 -151.778454 
L 374.241386 -151.819079 
L 374.902162 -151.859705 
L 375.562938 -151.90033 
L 376.223714 -151.940955 
L 376.88449 -151.981581 
L 377.545266 -152.022206 
L 378.206042 -152.062831 
L 378.866818 -152.103457 
L 379.527594 -152.144082 
L 380.188371 -152.184707 
L 380.849147 -152.225333 
L 381.509923 -152.265958 
L 382.170699 -152.306583 
L 382.831475 -152.347208 
L 382.831475 -41.074481 
L 382.831475 -41.074481 
L 382.170699 -41.074481 
L 381.509923 -41.074481 
L 380.849147 -41.074481 
L 380.188371 -41.074481 
L 379.527594 -41.074481 
L 378.866818 -41.074481 
L 378.206042 -41.074481 
L 377.545266 -41.074481 
L 376.88449 -41.074481 
L 376.223714 -41.074481 
L 375.562938 -41.074481 
L 374.902162 -41.074481 
L 374.241386 -41.074481 
L 373.58061 -41.074481 
L 372.919834 -41.074481 
L 372.259057 -41.074481 
L 371.598281 -41.074481 
L 370.937505 -41.074481 
L 370.276729 -41.074481 
L 369.615953 -41.074481 
L 368.955177 -41.074481 
L 368.294401 -41.074481 
L 367.633625 -41.074481 
L 366.972849 -41.074481 
L 366.312073 -41.074481 
L 365.651296 -41.074481 
L 364.99052 -41.074481 
L 364.329744 -41.074481 
L 363.668968 -41.074481 
L 363.008192 -41.074481 
L 362.347416 -41.074481 
L 361.68664 -41.074481 
L 361.025864 -41.074481 
L 360.365088 -41.074481 
L 359.704312 -41.074481 
L 359.043535 -41.074481 
L 358.382759 -41.074481 
L 357.721983 -41.074481 
L 357.061207 -41.074481 
L 356.400431 -41.074481 
L 355.739655 -41.074481 
L 355.078879 -41.074481 
L 354.418103 -41.074481 
L 353.757327 -41.074481 
L 353.096551 -41.074481 
L 352.435774 -41.074481 
L 351.774998 -41.074481 
L 351.114222 -41.074481 
L 350.453446 -41.074481 
L 349.79267 -41.074481 
L 349.131894 -41.074481 
L 348.471118 -41.074481 
L 347.810342 -41.074481 
L 347.149566 -41.074481 
L 346.48879 -41.074481 
L 345.828014 -41.074481 
L 345.167237 -41.074481 
L 344.506461 -41.074481 
L 343.845685 -41.074481 
L 343.184909 -41.074481 
L 342.524133 -41.074481 
L 341.863357 -41.074481 
L 341.202581 -41.074481 
L 340.541805 -41.074481 
L 339.881029 -41.074481 
L 339.220253 -41.074481 
L 338.559476 -41.074481 
L 337.8987 -41.074481 
L 337.237924 -41.074481 
L 336.577148 -41.074481 
L 335.916372 -41.074481 
L 335.255596 -41.074481 
L 334.59482 -41.074481 
L 333.934044 -41.074481 
L 333.273268 -41.074481 
L 332.612492 -41.074481 
L 331.951715 -41.074481 
L 331.290939 -41.074481 
L 330.630163 -41.074481 
L 329.969387 -41.074481 
L 329.308611 -41.074481 
L 328.647835 -41.074481 
L 327.987059 -41.074481 
L 327.326283 -41.074481 
L 326.665507 -41.074481 
L 326.004731 -41.074481 
L 325.343954 -41.074481 
L 324.683178 -41.074481 
L 324.022402 -41.074481 
L 323.361626 -41.074481 
L 322.70085 -41.074481 
L 322.040074 -41.074481 
L 321.379298 -41.074481 
L 320.718522 -41.074481 
L 320.057746 -41.074481 
L 319.39697 -41.074481 
L 318.736194 -41.074481 
L 318.075417 -41.074481 
L 317.414641 -41.074481 
L 316.753865 -41.074481 
L 316.093089 -41.074481 
L 315.432313 -41.074481 
L 314.771537 -41.074481 
L 314.110761 -41.074481 
L 313.449985 -41.074481 
L 312.789209 -41.074481 
L 312.128433 -41.074481 
L 311.467656 -41.074481 
L 310.80688 -41.074481 
L 310.146104 -41.074481 
L 309.485328 -41.074481 
L 308.824552 -41.074481 
L 308.163776 -41.074481 
L 307.503 -41.074481 
L 306.842224 -41.074481 
L 306.181448 -41.074481 
L 305.520672 -41.074481 
L 304.859895 -41.074481 
L 304.199119 -41.074481 
L 303.538343 -41.074481 
L 302.877567 -41.074481 
L 302.216791 -41.074481 
L 301.556015 -41.074481 
L 300.895239 -41.074481 
L 300.234463 -41.074481 
L 299.573687 -41.074481 
L 298.912911 -41.074481 
L 298.252134 -41.074481 
L 297.591358 -41.074481 
L 296.930582 -41.074481 
L 296.269806 -41.074481 
L 295.60903 -41.074481 
L 294.948254 -41.074481 
L 294.287478 -41.074481 
L 293.626702 -41.074481 
L 292.965926 -41.074481 
L 292.30515 -41.074481 
L 291.644374 -41.074481 
L 290.983597 -41.074481 
L 290.322821 -41.074481 
L 289.662045 -41.074481 
L 289.001269 -41.074481 
L 288.340493 -41.074481 
L 287.679717 -41.074481 
L 287.018941 -41.074481 
L 286.358165 -41.074481 
L 285.697389 -41.074481 
L 285.036613 -41.074481 
L 284.375836 -41.074481 
L 283.71506 -41.074481 
L 283.054284 -41.074481 
L 282.393508 -41.074481 
L 281.732732 -41.074481 
L 281.071956 -41.074481 
L 280.41118 -41.074481 
L 279.750404 -41.074481 
L 279.089628 -41.074481 
L 278.428852 -41.074481 
L 277.768075 -41.074481 
L 277.107299 -41.074481 
L 276.446523 -41.074481 
L 275.785747 -41.074481 
L 275.124971 -41.074481 
L 274.464195 -41.074481 
L 273.803419 -41.074481 
L 273.142643 -41.074481 
L 272.481867 -41.074481 
L 271.821091 -41.074481 
L 271.160314 -41.074481 
L 270.499538 -41.074481 
L 269.838762 -41.074481 
L 269.177986 -41.074481 
L 268.51721 -41.074481 
L 267.856434 -41.074481 
L 267.195658 -41.074481 
L 266.534882 -41.074481 
L 265.874106 -41.074481 
L 265.21333 -41.074481 
L 264.552554 -41.074481 
L 263.891777 -41.074481 
L 263.231001 -41.074481 
L 262.570225 -41.074481 
L 261.909449 -41.074481 
L 261.248673 -41.074481 
L 260.587897 -41.074481 
L 259.927121 -41.074481 
L 259.266345 -41.074481 
L 258.605569 -41.074481 
L 257.944793 -41.074481 
L 257.284016 -41.074481 
L 256.62324 -41.074481 
L 255.962464 -41.074481 
L 255.301688 -41.074481 
L 254.640912 -41.074481 
L 253.980136 -41.074481 
L 253.31936 -41.074481 
L 252.658584 -41.074481 
L 251.997808 -41.074481 
L 251.337032 -41.074481 
L 250.676255 -41.074481 
L 250.015479 -41.074481 
L 249.354703 -41.074481 
L 248.693927 -41.074481 
L 248.033151 -41.074481 
L 247.372375 -41.074481 
L 246.711599 -41.074481 
L 246.050823 -41.074481 
L 245.390047 -41.074481 
L 244.729271 -41.074481 
L 244.068494 -41.074481 
L 243.407718 -41.074481 
L 242.746942 -41.074481 
L 242.086166 -41.074481 
L 241.42539 -41.074481 
L 240.764614 -41.074481 
L 240.103838 -41.074481 
L 239.443062 -41.074481 
L 238.782286 -41.074481 
L 238.12151 -41.074481 
L 237.460734 -41.074481 
L 236.799957 -41.074481 
L 236.139181 -41.074481 
L 235.478405 -41.074481 
L 234.817629 -41.074481 
L 234.156853 -41.074481 
L 233.496077 -41.074481 
L 232.835301 -41.074481 
L 232.174525 -41.074481 
L 231.513749 -41.074481 
L 230.852973 -41.074481 
L 230.192196 -41.074481 
L 229.53142 -41.074481 
L 228.870644 -41.074481 
L 228.209868 -41.074481 
L 227.549092 -41.074481 
L 226.888316 -41.074481 
L 226.22754 -41.074481 
L 225.566764 -41.074481 
L 224.905988 -41.074481 
L 224.245212 -41.074481 
L 223.584435 -41.074481 
L 222.923659 -41.074481 
L 222.262883 -41.074481 
L 221.602107 -41.074481 
L 220.941331 -41.074481 
L 220.280555 -41.074481 
L 219.619779 -41.074481 
L 218.959003 -41.074481 
L 218.298227 -41.074481 
L 217.637451 -41.074481 
L 216.976674 -41.074481 
L 216.315898 -41.074481 
L 215.655122 -41.074481 
L 214.994346 -41.074481 
L 214.33357 -41.074481 
L 213.672794 -41.074481 
L 213.012018 -41.074481 
L 212.351242 -41.074481 
L 211.690466 -41.074481 
L 211.02969 -41.074481 
L 210.368913 -41.074481 
L 209.708137 -41.074481 
L 209.047361 -41.074481 
L 208.386585 -41.074481 
L 207.725809 -41.074481 
L 207.065033 -41.074481 
L 206.404257 -41.074481 
L 205.743481 -41.074481 
L 205.082705 -41.074481 
L 204.421929 -41.074481 
L 203.761153 -41.074481 
L 203.100376 -41.074481 
L 202.4396 -41.074481 
L 201.778824 -41.074481 
L 201.118048 -41.074481 
L 200.457272 -41.074481 
L 199.796496 -41.074481 
L 199.13572 -41.074481 
L 198.474944 -41.074481 
L 197.814168 -41.074481 
L 197.153392 -41.074481 
L 196.492615 -41.074481 
L 195.831839 -41.074481 
L 195.171063 -41.074481 
L 194.510287 -41.074481 
L 193.849511 -41.074481 
L 193.188735 -41.074481 
L 192.527959 -41.074481 
L 191.867183 -41.074481 
L 191.206407 -41.074481 
L 190.545631 -41.074481 
L 189.884854 -41.074481 
L 189.224078 -41.074481 
L 188.563302 -41.074481 
L 187.902526 -41.074481 
L 187.24175 -41.074481 
L 186.580974 -41.074481 
L 185.920198 -41.074481 
L 185.259422 -41.074481 
L 184.598646 -41.074481 
L 183.93787 -41.074481 
L 183.277093 -41.074481 
L 182.616317 -41.074481 
L 181.955541 -41.074481 
L 181.294765 -41.074481 
L 180.633989 -41.074481 
L 179.973213 -41.074481 
L 179.312437 -41.074481 
L 178.651661 -41.074481 
L 177.990885 -41.074481 
L 177.330109 -41.074481 
L 176.669333 -41.074481 
L 176.008556 -41.074481 
L 175.34778 -41.074481 
L 174.687004 -41.074481 
L 174.026228 -41.074481 
L 173.365452 -41.074481 
L 172.704676 -41.074481 
L 172.0439 -41.074481 
L 171.383124 -41.074481 
L 170.722348 -41.074481 
L 170.061572 -41.074481 
L 169.400795 -41.074481 
L 168.740019 -41.074481 
L 168.079243 -41.074481 
L 167.418467 -41.074481 
L 166.757691 -41.074481 
L 166.096915 -41.074481 
L 165.436139 -41.074481 
L 164.775363 -41.074481 
L 164.114587 -41.074481 
L 163.453811 -41.074481 
L 162.793034 -41.074481 
L 162.132258 -41.074481 
L 161.471482 -41.074481 
L 160.810706 -41.074481 
L 160.14993 -41.074481 
L 159.489154 -41.074481 
L 158.828378 -41.074481 
L 158.167602 -41.074481 
L 157.506826 -41.074481 
L 156.84605 -41.074481 
L 156.185273 -41.074481 
L 155.524497 -41.074481 
L 154.863721 -41.074481 
L 154.202945 -41.074481 
L 153.542169 -41.074481 
L 152.881393 -41.074481 
L 152.220617 -41.074481 
L 151.559841 -41.074481 
L 150.899065 -41.074481 
L 150.238289 -41.074481 
L 149.577513 -41.074481 
L 148.916736 -41.074481 
L 148.25596 -41.074481 
L 147.595184 -41.074481 
L 146.934408 -41.074481 
L 146.273632 -41.074481 
L 145.612856 -41.074481 
L 144.95208 -41.074481 
L 144.291304 -41.074481 
L 143.630528 -41.074481 
L 142.969752 -41.074481 
L 142.308975 -41.074481 
L 141.648199 -41.074481 
L 140.987423 -41.074481 
L 140.326647 -41.074481 
L 139.665871 -41.074481 
L 139.005095 -41.074481 
L 138.344319 -41.074481 
L 137.683543 -41.074481 
L 137.022767 -41.074481 
L 136.361991 -41.074481 
L 135.701214 -41.074481 
L 135.040438 -41.074481 
L 134.379662 -41.074481 
L 133.718886 -41.074481 
L 133.05811 -41.074481 
L 132.397334 -41.074481 
L 131.736558 -41.074481 
L 131.075782 -41.074481 
L 130.415006 -41.074481 
L 129.75423 -41.074481 
L 129.093453 -41.074481 
L 128.432677 -41.074481 
L 127.771901 -41.074481 
L 127.111125 -41.074481 
L 126.450349 -41.074481 
L 125.789573 -41.074481 
L 125.128797 -41.074481 
L 124.468021 -41.074481 
L 123.807245 -41.074481 
L 123.146469 -41.074481 
L 122.485693 -41.074481 
L 121.824916 -41.074481 
L 121.16414 -41.074481 
L 120.503364 -41.074481 
L 119.842588 -41.074481 
L 119.181812 -41.074481 
L 118.521036 -41.074481 
L 117.86026 -41.074481 
L 117.199484 -41.074481 
L 116.538708 -41.074481 
L 115.877932 -41.074481 
L 115.217155 -41.074481 
L 114.556379 -41.074481 
L 113.895603 -41.074481 
L 113.234827 -41.074481 
L 112.574051 -41.074481 
L 111.913275 -41.074481 
L 111.252499 -41.074481 
L 110.591723 -41.074481 
L 109.930947 -41.074481 
L 109.270171 -41.074481 
L 108.609394 -41.074481 
L 107.948618 -41.074481 
L 107.287842 -41.074481 
L 106.627066 -41.074481 
L 105.96629 -41.074481 
L 105.305514 -41.074481 
L 104.644738 -41.074481 
L 103.983962 -41.074481 
L 103.323186 -41.074481 
L 102.66241 -41.074481 
L 102.001633 -41.074481 
L 101.340857 -41.074481 
L 100.680081 -41.074481 
L 100.019305 -41.074481 
L 99.358529 -41.074481 
L 98.697753 -41.074481 
L 98.036977 -41.074481 
L 97.376201 -41.074481 
L 96.715425 -41.074481 
L 96.054649 -41.074481 
L 95.393873 -41.074481 
L 94.733096 -41.074481 
L 94.07232 -41.074481 
L 93.411544 -41.074481 
L 92.750768 -41.074481 
L 92.089992 -41.074481 
L 91.429216 -41.074481 
L 90.76844 -41.074481 
L 90.107664 -41.074481 
L 89.446888 -41.074481 
L 88.786112 -41.074481 
L 88.125335 -41.074481 
L 87.464559 -41.074481 
L 86.803783 -41.074481 
L 86.143007 -41.074481 
L 85.482231 -41.074481 
L 84.821455 -41.074481 
L 84.160679 -41.074481 
L 83.499903 -41.074481 
L 82.839127 -41.074481 
L 82.178351 -41.074481 
L 81.517574 -41.074481 
L 80.856798 -41.074481 
L 80.196022 -41.074481 
L 79.535246 -41.074481 
L 78.87447 -41.074481 
L 78.213694 -41.074481 
L 77.552918 -41.074481 
L 76.892142 -41.074481 
L 76.231366 -41.074481 
L 75.57059 -41.074481 
L 74.909813 -41.074481 
L 74.249037 -41.074481 
L 73.588261 -41.074481 
L 72.927485 -41.074481 
L 72.266709 -41.074481 
L 71.605933 -41.074481 
L 70.945157 -41.074481 
L 70.284381 -41.074481 
L 69.623605 -41.074481 
L 68.962829 -41.074481 
L 68.302053 -41.074481 
L 67.641276 -41.074481 
L 66.9805 -41.074481 
L 66.319724 -41.074481 
L 65.658948 -41.074481 
L 64.998172 -41.074481 
L 64.337396 -41.074481 
L 63.67662 -41.074481 
L 63.015844 -41.074481 
L 62.355068 -41.074481 
L 61.694292 -41.074481 
L 61.033515 -41.074481 
L 60.372739 -41.074481 
L 59.711963 -41.074481 
L 59.051187 -41.074481 
L 58.390411 -41.074481 
L 57.729635 -41.074481 
L 57.068859 -41.074481 
L 56.408083 -41.074481 
L 55.747307 -41.074481 
L 55.086531 -41.074481 
L 54.425754 -41.074481 
L 53.764978 -41.074481 
L 53.104202 -41.074481 
z
" style="stroke: #000000; stroke-opacity: 0.1; stroke-width: 0.5"/>
    </defs>
    <g clip-path="url(#p8e89e4ad1a)">
     <use xlink:href="#mbcd83508a5" x="0" y="165.110845" style="fill-opacity: 0.1; stroke: #000000; stroke-opacity: 0.1; stroke-width: 0.5"/>
    </g>
   </g>
   <g id="line2d_19">
    <path d="M 53.104202 124.036364 
L 217.637451 22.879339 
L 219.619779 22.798088 
L 382.831475 12.763636 
L 382.831475 12.763636 
" clip-path="url(#p8e89e4ad1a)" style="fill: none; stroke: #000000; stroke-width: 0.7; stroke-linecap: square"/>
   </g>
   <g id="patch_3">
    <path d="M 36.617839 129.6 
L 36.617839 7.2 
" style="fill: none; stroke: #000000; stroke-width: 0.5; stroke-linejoin: miter; stroke-linecap: square"/>
   </g>
   <g id="patch_4">
    <path d="M 36.617839 129.6 
L 399.317839 129.6 
" style="fill: none; stroke: #000000; stroke-width: 0.5; stroke-linejoin: miter; stroke-linecap: square"/>
   </g>
  </g>
 </g>
 <defs>
  <clipPath id="p8e89e4ad1a">
   <rect x="36.617839" y="7.2" width="362.7" height="122.4"/>
  </clipPath>
 </defs>
</svg>
